  0
SECTION
  2
BLOCKS
  0
ENDSEC
  0
SECTION
  2
ENTITIES
  0
LINE
  8
0
 10
-7.8
 11
-7.8
 20
-1.15
 21
1.15
  0
LINE
  8
0
 10
-7.8
 11
-5.359
 20
1.15
 21
1.15
  0
LINE
  8
0
 10
-5.359
 11
-5.302
 20
1.15
 21
1.463
  0
LINE
  8
0
 10
-5.302
 11
-4.955
 20
1.463
 21
2.386
  0
LINE
  8
0
 10
-4.955
 11
-4.45
 20
2.386
 21
3.233
  0
LINE
  8
0
 10
-4.45
 11
-3.801
 20
3.233
 21
3.975
  0
LINE
  8
0
 10
-3.801
 11
-3.679
 20
3.975
 21
4.072
  0
LINE
  8
0
 10
-3.679
 11
-4.896
 20
4.072
 21
6.18
  0
LINE
  8
0
 10
-4.896
 11
-2.904
 20
6.18
 21
7.33
  0
LINE
  8
0
 10
-2.904
 11
-1.682
 20
7.33
 21
5.213
  0
LINE
  8
0
 10
-1.682
 11
-1.224
 20
5.213
 21
5.362
  0
LINE
  8
0
 10
-1.224
 11
-0.247
 20
5.362
 21
5.494
  0
LINE
  8
0
 10
-0.247
 11
0.738
 20
5.494
 21
5.45
  0
LINE
  8
0
 10
0.738
 11
1.693
 20
5.45
 21
5.232
  0
LINE
  8
0
 10
1.693
 11
2.904
 20
5.232
 21
7.33
  0
LINE
  8
0
 10
2.904
 11
4.896
 20
7.33
 21
6.18
  0
LINE
  8
0
 10
4.896
 11
3.675
 20
6.18
 21
4.065
  0
LINE
  8
0
 10
3.675
 11
4.142
 20
4.065
 21
3.619
  0
LINE
  8
0
 10
4.142
 11
4.721
 20
3.619
 21
2.821
  0
LINE
  8
0
 10
4.721
 11
5.149
 20
2.821
 21
1.933
  0
LINE
  8
0
 10
5.149
 11
5.365
 20
1.933
 21
1.15
  0
LINE
  8
0
 10
5.365
 11
7.8
 20
1.15
 21
1.15
  0
LINE
  8
0
 10
7.8
 11
7.8
 20
1.15
 21
-1.15
  0
LINE
  8
0
 10
7.8
 11
5.365
 20
-1.15
 21
-1.15
  0
LINE
  8
0
 10
5.365
 11
5.149
 20
-1.15
 21
-1.933
  0
LINE
  8
0
 10
5.149
 11
4.721
 20
-1.933
 21
-2.821
  0
LINE
  8
0
 10
4.721
 11
4.142
 20
-2.821
 21
-3.619
  0
LINE
  8
0
 10
4.142
 11
3.675
 20
-3.619
 21
-4.065
  0
LINE
  8
0
 10
3.675
 11
4.896
 20
-4.065
 21
-6.18
  0
LINE
  8
0
 10
4.896
 11
2.904
 20
-6.18
 21
-7.33
  0
LINE
  8
0
 10
2.904
 11
1.693
 20
-7.33
 21
-5.232
  0
LINE
  8
0
 10
1.693
 11
0.738
 20
-5.232
 21
-5.45
  0
LINE
  8
0
 10
0.738
 11
-0.247
 20
-5.45
 21
-5.494
  0
LINE
  8
0
 10
-0.247
 11
-1.224
 20
-5.494
 21
-5.362
  0
LINE
  8
0
 10
-1.224
 11
-1.682
 20
-5.362
 21
-5.213
  0
LINE
  8
0
 10
-1.682
 11
-2.904
 20
-5.213
 21
-7.33
  0
LINE
  8
0
 10
-2.904
 11
-4.896
 20
-7.33
 21
-6.18
  0
LINE
  8
0
 10
-4.896
 11
-3.679
 20
-6.18
 21
-4.072
  0
LINE
  8
0
 10
-3.679
 11
-3.801
 20
-4.072
 21
-3.975
  0
LINE
  8
0
 10
-3.801
 11
-4.45
 20
-3.975
 21
-3.233
  0
LINE
  8
0
 10
-4.45
 11
-4.955
 20
-3.233
 21
-2.386
  0
LINE
  8
0
 10
-4.955
 11
-5.302
 20
-2.386
 21
-1.463
  0
LINE
  8
0
 10
-5.302
 11
-5.359
 20
-1.463
 21
-1.15
  0
LINE
  8
0
 10
-5.359
 11
-7.8
 20
-1.15
 21
-1.15
  0
LINE
  8
0
 10
-50
 11
-49.81
 20
0
 21
4.358
  0
LINE
  8
0
 10
-49.81
 11
-49.24
 20
4.358
 21
8.682
  0
LINE
  8
0
 10
-49.24
 11
-48.296
 20
8.682
 21
12.941
  0
LINE
  8
0
 10
-48.296
 11
-46.985
 20
12.941
 21
17.101
  0
LINE
  8
0
 10
-46.985
 11
-45.315
 20
17.101
 21
21.131
  0
LINE
  8
0
 10
-45.315
 11
-43.301
 20
21.131
 21
25
  0
LINE
  8
0
 10
-43.301
 11
-40.958
 20
25
 21
28.679
  0
LINE
  8
0
 10
-40.958
 11
-38.302
 20
28.679
 21
32.139
  0
LINE
  8
0
 10
-38.302
 11
-35.355
 20
32.139
 21
35.355
  0
LINE
  8
0
 10
-35.355
 11
-32.139
 20
35.355
 21
38.302
  0
LINE
  8
0
 10
-32.139
 11
-28.679
 20
38.302
 21
40.958
  0
LINE
  8
0
 10
-28.679
 11
-25
 20
40.958
 21
43.301
  0
LINE
  8
0
 10
-25
 11
-21.131
 20
43.301
 21
45.315
  0
LINE
  8
0
 10
-21.131
 11
-17.101
 20
45.315
 21
46.985
  0
LINE
  8
0
 10
-17.101
 11
-12.941
 20
46.985
 21
48.296
  0
LINE
  8
0
 10
-12.941
 11
-8.682
 20
48.296
 21
49.24
  0
LINE
  8
0
 10
-8.682
 11
-4.358
 20
49.24
 21
49.81
  0
LINE
  8
0
 10
-4.358
 11
0
 20
49.81
 21
50
  0
LINE
  8
0
 10
0
 11
4.358
 20
50
 21
49.81
  0
LINE
  8
0
 10
4.358
 11
8.682
 20
49.81
 21
49.24
  0
LINE
  8
0
 10
8.682
 11
12.941
 20
49.24
 21
48.296
  0
LINE
  8
0
 10
12.941
 11
17.101
 20
48.296
 21
46.985
  0
LINE
  8
0
 10
17.101
 11
21.131
 20
46.985
 21
45.315
  0
LINE
  8
0
 10
21.131
 11
25
 20
45.315
 21
43.301
  0
LINE
  8
0
 10
25
 11
28.679
 20
43.301
 21
40.958
  0
LINE
  8
0
 10
28.679
 11
32.139
 20
40.958
 21
38.302
  0
LINE
  8
0
 10
32.139
 11
35.355
 20
38.302
 21
35.355
  0
LINE
  8
0
 10
35.355
 11
38.302
 20
35.355
 21
32.139
  0
LINE
  8
0
 10
38.302
 11
40.958
 20
32.139
 21
28.679
  0
LINE
  8
0
 10
40.958
 11
43.301
 20
28.679
 21
25
  0
LINE
  8
0
 10
43.301
 11
45.315
 20
25
 21
21.131
  0
LINE
  8
0
 10
45.315
 11
46.985
 20
21.131
 21
17.101
  0
LINE
  8
0
 10
46.985
 11
48.296
 20
17.101
 21
12.941
  0
LINE
  8
0
 10
48.296
 11
49.24
 20
12.941
 21
8.682
  0
LINE
  8
0
 10
49.24
 11
49.81
 20
8.682
 21
4.358
  0
LINE
  8
0
 10
49.81
 11
50
 20
4.358
 21
0
  0
LINE
  8
0
 10
50
 11
49.81
 20
0
 21
-4.358
  0
LINE
  8
0
 10
49.81
 11
49.24
 20
-4.358
 21
-8.682
  0
LINE
  8
0
 10
49.24
 11
48.296
 20
-8.682
 21
-12.941
  0
LINE
  8
0
 10
48.296
 11
46.985
 20
-12.941
 21
-17.101
  0
LINE
  8
0
 10
46.985
 11
45.315
 20
-17.101
 21
-21.131
  0
LINE
  8
0
 10
45.315
 11
43.301
 20
-21.131
 21
-25
  0
LINE
  8
0
 10
43.301
 11
40.958
 20
-25
 21
-28.679
  0
LINE
  8
0
 10
40.958
 11
38.302
 20
-28.679
 21
-32.139
  0
LINE
  8
0
 10
38.302
 11
35.355
 20
-32.139
 21
-35.355
  0
LINE
  8
0
 10
35.355
 11
32.139
 20
-35.355
 21
-38.302
  0
LINE
  8
0
 10
32.139
 11
28.679
 20
-38.302
 21
-40.958
  0
LINE
  8
0
 10
28.679
 11
25
 20
-40.958
 21
-43.301
  0
LINE
  8
0
 10
25
 11
21.131
 20
-43.301
 21
-45.315
  0
LINE
  8
0
 10
21.131
 11
17.101
 20
-45.315
 21
-46.985
  0
LINE
  8
0
 10
17.101
 11
12.941
 20
-46.985
 21
-48.296
  0
LINE
  8
0
 10
12.941
 11
8.682
 20
-48.296
 21
-49.24
  0
LINE
  8
0
 10
8.682
 11
4.358
 20
-49.24
 21
-49.81
  0
LINE
  8
0
 10
4.358
 11
0
 20
-49.81
 21
-50
  0
LINE
  8
0
 10
0
 11
-4.358
 20
-50
 21
-49.81
  0
LINE
  8
0
 10
-4.358
 11
-8.682
 20
-49.81
 21
-49.24
  0
LINE
  8
0
 10
-8.682
 11
-12.941
 20
-49.24
 21
-48.296
  0
LINE
  8
0
 10
-12.941
 11
-17.101
 20
-48.296
 21
-46.985
  0
LINE
  8
0
 10
-17.101
 11
-21.131
 20
-46.985
 21
-45.315
  0
LINE
  8
0
 10
-21.131
 11
-25
 20
-45.315
 21
-43.301
  0
LINE
  8
0
 10
-25
 11
-28.679
 20
-43.301
 21
-40.958
  0
LINE
  8
0
 10
-28.679
 11
-32.139
 20
-40.958
 21
-38.302
  0
LINE
  8
0
 10
-32.139
 11
-35.355
 20
-38.302
 21
-35.355
  0
LINE
  8
0
 10
-35.355
 11
-38.302
 20
-35.355
 21
-32.139
  0
LINE
  8
0
 10
-38.302
 11
-40.958
 20
-32.139
 21
-28.679
  0
LINE
  8
0
 10
-40.958
 11
-43.301
 20
-28.679
 21
-25
  0
LINE
  8
0
 10
-43.301
 11
-45.315
 20
-25
 21
-21.131
  0
LINE
  8
0
 10
-45.315
 11
-46.985
 20
-21.131
 21
-17.101
  0
LINE
  8
0
 10
-46.985
 11
-48.296
 20
-17.101
 21
-12.941
  0
LINE
  8
0
 10
-48.296
 11
-49.24
 20
-12.941
 21
-8.682
  0
LINE
  8
0
 10
-49.24
 11
-49.81
 20
-8.682
 21
-4.358
  0
LINE
  8
0
 10
-49.81
 11
-50
 20
-4.358
 21
0
  0
ENDSEC
  0
SECTION
  2
OBJECTS
  0
DICTIONARY
  0
ENDSEC
  0
EOF
