  0
SECTION
  2
BLOCKS
  0
ENDSEC
  0
SECTION
  2
ENTITIES
  0
LINE
  8
0
 10
-7.6
 11
-7.6
 20
-1.05
 21
1.05
  0
LINE
  8
0
 10
-7.6
 11
-5.188
 20
1.05
 21
1.05
  0
LINE
  8
0
 10
-5.188
 11
-4.942
 20
1.05
 21
1.915
  0
LINE
  8
0
 10
-4.942
 11
-4.506
 20
1.915
 21
2.79
  0
LINE
  8
0
 10
-4.506
 11
-3.917
 20
2.79
 21
3.571
  0
LINE
  8
0
 10
-3.917
 11
-3.496
 20
3.571
 21
3.955
  0
LINE
  8
0
 10
-3.496
 11
-4.709
 20
3.955
 21
6.057
  0
LINE
  8
0
 10
-4.709
 11
-2.891
 20
6.057
 21
7.107
  0
LINE
  8
0
 10
-2.891
 11
-1.679
 20
7.107
 21
5.009
  0
LINE
  8
0
 10
-1.679
 11
-1.45
 20
5.009
 21
5.098
  0
LINE
  8
0
 10
-1.45
 11
-0.489
 20
5.098
 21
5.277
  0
LINE
  8
0
 10
-0.489
 11
0.489
 20
5.277
 21
5.277
  0
LINE
  8
0
 10
0.489
 11
1.45
 20
5.277
 21
5.098
  0
LINE
  8
0
 10
1.45
 11
1.679
 20
5.098
 21
5.009
  0
LINE
  8
0
 10
1.679
 11
2.891
 20
5.009
 21
7.107
  0
LINE
  8
0
 10
2.891
 11
4.709
 20
7.107
 21
6.057
  0
LINE
  8
0
 10
4.709
 11
3.496
 20
6.057
 21
3.955
  0
LINE
  8
0
 10
3.496
 11
3.917
 20
3.955
 21
3.571
  0
LINE
  8
0
 10
3.917
 11
4.506
 20
3.571
 21
2.79
  0
LINE
  8
0
 10
4.506
 11
4.942
 20
2.79
 21
1.915
  0
LINE
  8
0
 10
4.942
 11
5.188
 20
1.915
 21
1.05
  0
LINE
  8
0
 10
5.188
 11
7.6
 20
1.05
 21
1.05
  0
LINE
  8
0
 10
7.6
 11
7.6
 20
1.05
 21
-1.05
  0
LINE
  8
0
 10
7.6
 11
5.188
 20
-1.05
 21
-1.05
  0
LINE
  8
0
 10
5.188
 11
4.942
 20
-1.05
 21
-1.915
  0
LINE
  8
0
 10
4.942
 11
4.506
 20
-1.915
 21
-2.79
  0
LINE
  8
0
 10
4.506
 11
3.917
 20
-2.79
 21
-3.571
  0
LINE
  8
0
 10
3.917
 11
3.496
 20
-3.571
 21
-3.955
  0
LINE
  8
0
 10
3.496
 11
4.709
 20
-3.955
 21
-6.057
  0
LINE
  8
0
 10
4.709
 11
2.891
 20
-6.057
 21
-7.107
  0
LINE
  8
0
 10
2.891
 11
1.679
 20
-7.107
 21
-5.009
  0
LINE
  8
0
 10
1.679
 11
1.45
 20
-5.009
 21
-5.098
  0
LINE
  8
0
 10
1.45
 11
0.489
 20
-5.098
 21
-5.277
  0
LINE
  8
0
 10
0.489
 11
-0.489
 20
-5.277
 21
-5.277
  0
LINE
  8
0
 10
-0.489
 11
-1.45
 20
-5.277
 21
-5.098
  0
LINE
  8
0
 10
-1.45
 11
-1.679
 20
-5.098
 21
-5.009
  0
LINE
  8
0
 10
-1.679
 11
-2.891
 20
-5.009
 21
-7.107
  0
LINE
  8
0
 10
-2.891
 11
-4.709
 20
-7.107
 21
-6.057
  0
LINE
  8
0
 10
-4.709
 11
-3.496
 20
-6.057
 21
-3.955
  0
LINE
  8
0
 10
-3.496
 11
-3.917
 20
-3.955
 21
-3.571
  0
LINE
  8
0
 10
-3.917
 11
-4.506
 20
-3.571
 21
-2.79
  0
LINE
  8
0
 10
-4.506
 11
-4.942
 20
-2.79
 21
-1.915
  0
LINE
  8
0
 10
-4.942
 11
-5.188
 20
-1.915
 21
-1.05
  0
LINE
  8
0
 10
-5.188
 11
-7.6
 20
-1.05
 21
-1.05
  0
LINE
  8
0
 10
-50
 11
-49.81
 20
0
 21
4.358
  0
LINE
  8
0
 10
-49.81
 11
-49.24
 20
4.358
 21
8.682
  0
LINE
  8
0
 10
-49.24
 11
-48.296
 20
8.682
 21
12.941
  0
LINE
  8
0
 10
-48.296
 11
-46.985
 20
12.941
 21
17.101
  0
LINE
  8
0
 10
-46.985
 11
-45.315
 20
17.101
 21
21.131
  0
LINE
  8
0
 10
-45.315
 11
-43.301
 20
21.131
 21
25
  0
LINE
  8
0
 10
-43.301
 11
-40.958
 20
25
 21
28.679
  0
LINE
  8
0
 10
-40.958
 11
-38.302
 20
28.679
 21
32.139
  0
LINE
  8
0
 10
-38.302
 11
-35.355
 20
32.139
 21
35.355
  0
LINE
  8
0
 10
-35.355
 11
-32.139
 20
35.355
 21
38.302
  0
LINE
  8
0
 10
-32.139
 11
-28.679
 20
38.302
 21
40.958
  0
LINE
  8
0
 10
-28.679
 11
-25
 20
40.958
 21
43.301
  0
LINE
  8
0
 10
-25
 11
-21.131
 20
43.301
 21
45.315
  0
LINE
  8
0
 10
-21.131
 11
-17.101
 20
45.315
 21
46.985
  0
LINE
  8
0
 10
-17.101
 11
-12.941
 20
46.985
 21
48.296
  0
LINE
  8
0
 10
-12.941
 11
-8.682
 20
48.296
 21
49.24
  0
LINE
  8
0
 10
-8.682
 11
-4.358
 20
49.24
 21
49.81
  0
LINE
  8
0
 10
-4.358
 11
0
 20
49.81
 21
50
  0
LINE
  8
0
 10
0
 11
4.358
 20
50
 21
49.81
  0
LINE
  8
0
 10
4.358
 11
8.682
 20
49.81
 21
49.24
  0
LINE
  8
0
 10
8.682
 11
12.941
 20
49.24
 21
48.296
  0
LINE
  8
0
 10
12.941
 11
17.101
 20
48.296
 21
46.985
  0
LINE
  8
0
 10
17.101
 11
21.131
 20
46.985
 21
45.315
  0
LINE
  8
0
 10
21.131
 11
25
 20
45.315
 21
43.301
  0
LINE
  8
0
 10
25
 11
28.679
 20
43.301
 21
40.958
  0
LINE
  8
0
 10
28.679
 11
32.139
 20
40.958
 21
38.302
  0
LINE
  8
0
 10
32.139
 11
35.355
 20
38.302
 21
35.355
  0
LINE
  8
0
 10
35.355
 11
38.302
 20
35.355
 21
32.139
  0
LINE
  8
0
 10
38.302
 11
40.958
 20
32.139
 21
28.679
  0
LINE
  8
0
 10
40.958
 11
43.301
 20
28.679
 21
25
  0
LINE
  8
0
 10
43.301
 11
45.315
 20
25
 21
21.131
  0
LINE
  8
0
 10
45.315
 11
46.985
 20
21.131
 21
17.101
  0
LINE
  8
0
 10
46.985
 11
48.296
 20
17.101
 21
12.941
  0
LINE
  8
0
 10
48.296
 11
49.24
 20
12.941
 21
8.682
  0
LINE
  8
0
 10
49.24
 11
49.81
 20
8.682
 21
4.358
  0
LINE
  8
0
 10
49.81
 11
50
 20
4.358
 21
0
  0
LINE
  8
0
 10
50
 11
49.81
 20
0
 21
-4.358
  0
LINE
  8
0
 10
49.81
 11
49.24
 20
-4.358
 21
-8.682
  0
LINE
  8
0
 10
49.24
 11
48.296
 20
-8.682
 21
-12.941
  0
LINE
  8
0
 10
48.296
 11
46.985
 20
-12.941
 21
-17.101
  0
LINE
  8
0
 10
46.985
 11
45.315
 20
-17.101
 21
-21.131
  0
LINE
  8
0
 10
45.315
 11
43.301
 20
-21.131
 21
-25
  0
LINE
  8
0
 10
43.301
 11
40.958
 20
-25
 21
-28.679
  0
LINE
  8
0
 10
40.958
 11
38.302
 20
-28.679
 21
-32.139
  0
LINE
  8
0
 10
38.302
 11
35.355
 20
-32.139
 21
-35.355
  0
LINE
  8
0
 10
35.355
 11
32.139
 20
-35.355
 21
-38.302
  0
LINE
  8
0
 10
32.139
 11
28.679
 20
-38.302
 21
-40.958
  0
LINE
  8
0
 10
28.679
 11
25
 20
-40.958
 21
-43.301
  0
LINE
  8
0
 10
25
 11
21.131
 20
-43.301
 21
-45.315
  0
LINE
  8
0
 10
21.131
 11
17.101
 20
-45.315
 21
-46.985
  0
LINE
  8
0
 10
17.101
 11
12.941
 20
-46.985
 21
-48.296
  0
LINE
  8
0
 10
12.941
 11
8.682
 20
-48.296
 21
-49.24
  0
LINE
  8
0
 10
8.682
 11
4.358
 20
-49.24
 21
-49.81
  0
LINE
  8
0
 10
4.358
 11
0
 20
-49.81
 21
-50
  0
LINE
  8
0
 10
0
 11
-4.358
 20
-50
 21
-49.81
  0
LINE
  8
0
 10
-4.358
 11
-8.682
 20
-49.81
 21
-49.24
  0
LINE
  8
0
 10
-8.682
 11
-12.941
 20
-49.24
 21
-48.296
  0
LINE
  8
0
 10
-12.941
 11
-17.101
 20
-48.296
 21
-46.985
  0
LINE
  8
0
 10
-17.101
 11
-21.131
 20
-46.985
 21
-45.315
  0
LINE
  8
0
 10
-21.131
 11
-25
 20
-45.315
 21
-43.301
  0
LINE
  8
0
 10
-25
 11
-28.679
 20
-43.301
 21
-40.958
  0
LINE
  8
0
 10
-28.679
 11
-32.139
 20
-40.958
 21
-38.302
  0
LINE
  8
0
 10
-32.139
 11
-35.355
 20
-38.302
 21
-35.355
  0
LINE
  8
0
 10
-35.355
 11
-38.302
 20
-35.355
 21
-32.139
  0
LINE
  8
0
 10
-38.302
 11
-40.958
 20
-32.139
 21
-28.679
  0
LINE
  8
0
 10
-40.958
 11
-43.301
 20
-28.679
 21
-25
  0
LINE
  8
0
 10
-43.301
 11
-45.315
 20
-25
 21
-21.131
  0
LINE
  8
0
 10
-45.315
 11
-46.985
 20
-21.131
 21
-17.101
  0
LINE
  8
0
 10
-46.985
 11
-48.296
 20
-17.101
 21
-12.941
  0
LINE
  8
0
 10
-48.296
 11
-49.24
 20
-12.941
 21
-8.682
  0
LINE
  8
0
 10
-49.24
 11
-49.81
 20
-8.682
 21
-4.358
  0
LINE
  8
0
 10
-49.81
 11
-50
 20
-4.358
 21
0
  0
ENDSEC
  0
SECTION
  2
OBJECTS
  0
DICTIONARY
  0
ENDSEC
  0
EOF
