  0
SECTION
  2
BLOCKS
  0
ENDSEC
  0
SECTION
  2
ENTITIES
  0
LINE
  8
0
 10
14.25
 11
14.25
 20
-1.125
 21
1.125
  0
LINE
  8
0
 10
14.25
 11
16.687
 20
1.125
 21
1.125
  0
LINE
  8
0
 10
16.687
 11
16.746
 20
1.125
 21
1.45
  0
LINE
  8
0
 10
16.746
 11
17.09
 20
1.45
 21
2.365
  0
LINE
  8
0
 10
17.09
 11
17.591
 20
2.365
 21
3.203
  0
LINE
  8
0
 10
17.591
 11
18.234
 20
3.203
 21
3.939
  0
LINE
  8
0
 10
18.234
 11
18.366
 20
3.939
 21
4.045
  0
LINE
  8
0
 10
18.366
 11
17.151
 20
4.045
 21
6.149
  0
LINE
  8
0
 10
17.151
 11
19.099
 20
6.149
 21
7.274
  0
LINE
  8
0
 10
19.099
 11
20.319
 20
7.274
 21
5.161
  0
LINE
  8
0
 10
20.319
 11
20.787
 20
5.161
 21
5.313
  0
LINE
  8
0
 10
20.787
 11
21.755
 20
5.313
 21
5.445
  0
LINE
  8
0
 10
21.755
 11
22.732
 20
5.445
 21
5.401
  0
LINE
  8
0
 10
22.732
 11
23.684
 20
5.401
 21
5.183
  0
LINE
  8
0
 10
23.684
 11
23.692
 20
5.183
 21
5.18
  0
LINE
  8
0
 10
23.692
 11
24.901
 20
5.18
 21
7.274
  0
LINE
  8
0
 10
24.901
 11
26.849
 20
7.274
 21
6.149
  0
LINE
  8
0
 10
26.849
 11
25.631
 20
6.149
 21
4.039
  0
LINE
  8
0
 10
25.631
 11
26.104
 20
4.039
 21
3.586
  0
LINE
  8
0
 10
26.104
 11
26.679
 20
3.586
 21
2.795
  0
LINE
  8
0
 10
26.679
 11
27.102
 20
2.795
 21
1.915
  0
LINE
  8
0
 10
27.102
 11
27.321
 20
1.915
 21
1.125
  0
LINE
  8
0
 10
27.321
 11
29.75
 20
1.125
 21
1.125
  0
LINE
  8
0
 10
29.75
 11
29.75
 20
1.125
 21
-1.125
  0
LINE
  8
0
 10
29.75
 11
27.321
 20
-1.125
 21
-1.125
  0
LINE
  8
0
 10
27.321
 11
27.102
 20
-1.125
 21
-1.915
  0
LINE
  8
0
 10
27.102
 11
26.679
 20
-1.915
 21
-2.795
  0
LINE
  8
0
 10
26.679
 11
26.104
 20
-2.795
 21
-3.586
  0
LINE
  8
0
 10
26.104
 11
25.631
 20
-3.586
 21
-4.039
  0
LINE
  8
0
 10
25.631
 11
26.849
 20
-4.039
 21
-6.149
  0
LINE
  8
0
 10
26.849
 11
24.901
 20
-6.149
 21
-7.274
  0
LINE
  8
0
 10
24.901
 11
23.692
 20
-7.274
 21
-5.18
  0
LINE
  8
0
 10
23.692
 11
23.684
 20
-5.18
 21
-5.183
  0
LINE
  8
0
 10
23.684
 11
22.732
 20
-5.183
 21
-5.401
  0
LINE
  8
0
 10
22.732
 11
21.755
 20
-5.401
 21
-5.445
  0
LINE
  8
0
 10
21.755
 11
20.787
 20
-5.445
 21
-5.313
  0
LINE
  8
0
 10
20.787
 11
20.319
 20
-5.313
 21
-5.161
  0
LINE
  8
0
 10
20.319
 11
19.099
 20
-5.161
 21
-7.274
  0
LINE
  8
0
 10
19.099
 11
17.151
 20
-7.274
 21
-6.149
  0
LINE
  8
0
 10
17.151
 11
18.366
 20
-6.149
 21
-4.045
  0
LINE
  8
0
 10
18.366
 11
18.234
 20
-4.045
 21
-3.939
  0
LINE
  8
0
 10
18.234
 11
17.591
 20
-3.939
 21
-3.203
  0
LINE
  8
0
 10
17.591
 11
17.09
 20
-3.203
 21
-2.365
  0
LINE
  8
0
 10
17.09
 11
16.746
 20
-2.365
 21
-1.45
  0
LINE
  8
0
 10
16.746
 11
16.687
 20
-1.45
 21
-1.125
  0
LINE
  8
0
 10
16.687
 11
14.25
 20
-1.125
 21
-1.125
  0
LINE
  8
0
 10
36.3
 11
36.3
 20
-1.1
 21
1.1
  0
LINE
  8
0
 10
36.3
 11
38.723
 20
1.1
 21
1.1
  0
LINE
  8
0
 10
38.723
 11
38.965
 20
1.1
 21
1.951
  0
LINE
  8
0
 10
38.965
 11
39.409
 20
1.951
 21
2.843
  0
LINE
  8
0
 10
39.409
 11
40.009
 20
2.843
 21
3.638
  0
LINE
  8
0
 10
40.009
 11
40.416
 20
3.638
 21
4.008
  0
LINE
  8
0
 10
40.416
 11
39.197
 20
4.008
 21
6.118
  0
LINE
  8
0
 10
39.197
 11
41.103
 20
6.118
 21
7.218
  0
LINE
  8
0
 10
41.103
 11
42.317
 20
7.218
 21
5.114
  0
LINE
  8
0
 10
42.317
 11
42.522
 20
5.114
 21
5.194
  0
LINE
  8
0
 10
42.522
 11
43.502
 20
5.194
 21
5.377
  0
LINE
  8
0
 10
43.502
 11
44.498
 20
5.377
 21
5.377
  0
LINE
  8
0
 10
44.498
 11
45.478
 20
5.377
 21
5.194
  0
LINE
  8
0
 10
45.478
 11
45.683
 20
5.194
 21
5.114
  0
LINE
  8
0
 10
45.683
 11
46.897
 20
5.114
 21
7.218
  0
LINE
  8
0
 10
46.897
 11
48.803
 20
7.218
 21
6.118
  0
LINE
  8
0
 10
48.803
 11
47.584
 20
6.118
 21
4.008
  0
LINE
  8
0
 10
47.584
 11
47.991
 20
4.008
 21
3.638
  0
LINE
  8
0
 10
47.991
 11
48.591
 20
3.638
 21
2.843
  0
LINE
  8
0
 10
48.591
 11
49.035
 20
2.843
 21
1.951
  0
LINE
  8
0
 10
49.035
 11
49.277
 20
1.951
 21
1.1
  0
LINE
  8
0
 10
49.277
 11
51.7
 20
1.1
 21
1.1
  0
LINE
  8
0
 10
51.7
 11
51.7
 20
1.1
 21
-1.1
  0
LINE
  8
0
 10
51.7
 11
49.277
 20
-1.1
 21
-1.1
  0
LINE
  8
0
 10
49.277
 11
49.035
 20
-1.1
 21
-1.951
  0
LINE
  8
0
 10
49.035
 11
48.591
 20
-1.951
 21
-2.843
  0
LINE
  8
0
 10
48.591
 11
47.991
 20
-2.843
 21
-3.638
  0
LINE
  8
0
 10
47.991
 11
47.584
 20
-3.638
 21
-4.008
  0
LINE
  8
0
 10
47.584
 11
48.803
 20
-4.008
 21
-6.118
  0
LINE
  8
0
 10
48.803
 11
46.897
 20
-6.118
 21
-7.218
  0
LINE
  8
0
 10
46.897
 11
45.683
 20
-7.218
 21
-5.114
  0
LINE
  8
0
 10
45.683
 11
45.478
 20
-5.114
 21
-5.194
  0
LINE
  8
0
 10
45.478
 11
44.498
 20
-5.194
 21
-5.377
  0
LINE
  8
0
 10
44.498
 11
43.502
 20
-5.377
 21
-5.377
  0
LINE
  8
0
 10
43.502
 11
42.522
 20
-5.377
 21
-5.194
  0
LINE
  8
0
 10
42.522
 11
42.317
 20
-5.194
 21
-5.114
  0
LINE
  8
0
 10
42.317
 11
41.103
 20
-5.114
 21
-7.218
  0
LINE
  8
0
 10
41.103
 11
39.197
 20
-7.218
 21
-6.118
  0
LINE
  8
0
 10
39.197
 11
40.416
 20
-6.118
 21
-4.008
  0
LINE
  8
0
 10
40.416
 11
40.009
 20
-4.008
 21
-3.638
  0
LINE
  8
0
 10
40.009
 11
39.409
 20
-3.638
 21
-2.843
  0
LINE
  8
0
 10
39.409
 11
38.965
 20
-2.843
 21
-1.951
  0
LINE
  8
0
 10
38.965
 11
38.723
 20
-1.951
 21
-1.1
  0
LINE
  8
0
 10
38.723
 11
36.3
 20
-1.1
 21
-1.1
  0
LINE
  8
0
 10
58.35
 11
58.35
 20
-1.075
 21
1.075
  0
LINE
  8
0
 10
58.35
 11
60.767
 20
1.075
 21
1.075
  0
LINE
  8
0
 10
60.767
 11
61.011
 20
1.075
 21
1.933
  0
LINE
  8
0
 10
61.011
 11
61.451
 20
1.933
 21
2.816
  0
LINE
  8
0
 10
61.451
 11
62.046
 20
2.816
 21
3.604
  0
LINE
  8
0
 10
62.046
 11
62.46
 20
3.604
 21
3.981
  0
LINE
  8
0
 10
62.46
 11
61.244
 20
3.981
 21
6.088
  0
LINE
  8
0
 10
61.244
 11
63.106
 20
6.088
 21
7.163
  0
LINE
  8
0
 10
63.106
 11
64.319
 20
7.163
 21
5.062
  0
LINE
  8
0
 10
64.319
 11
64.536
 20
5.062
 21
5.146
  0
LINE
  8
0
 10
64.536
 11
65.506
 20
5.146
 21
5.327
  0
LINE
  8
0
 10
65.506
 11
66.494
 20
5.327
 21
5.327
  0
LINE
  8
0
 10
66.494
 11
67.464
 20
5.327
 21
5.146
  0
LINE
  8
0
 10
67.464
 11
67.681
 20
5.146
 21
5.062
  0
LINE
  8
0
 10
67.681
 11
68.894
 20
5.062
 21
7.163
  0
LINE
  8
0
 10
68.894
 11
70.756
 20
7.163
 21
6.088
  0
LINE
  8
0
 10
70.756
 11
69.54
 20
6.088
 21
3.981
  0
LINE
  8
0
 10
69.54
 11
69.954
 20
3.981
 21
3.604
  0
LINE
  8
0
 10
69.954
 11
70.549
 20
3.604
 21
2.816
  0
LINE
  8
0
 10
70.549
 11
70.989
 20
2.816
 21
1.933
  0
LINE
  8
0
 10
70.989
 11
71.233
 20
1.933
 21
1.075
  0
LINE
  8
0
 10
71.233
 11
73.65
 20
1.075
 21
1.075
  0
LINE
  8
0
 10
73.65
 11
73.65
 20
1.075
 21
-1.075
  0
LINE
  8
0
 10
73.65
 11
71.233
 20
-1.075
 21
-1.075
  0
LINE
  8
0
 10
71.233
 11
70.989
 20
-1.075
 21
-1.933
  0
LINE
  8
0
 10
70.989
 11
70.549
 20
-1.933
 21
-2.816
  0
LINE
  8
0
 10
70.549
 11
69.954
 20
-2.816
 21
-3.604
  0
LINE
  8
0
 10
69.954
 11
69.54
 20
-3.604
 21
-3.981
  0
LINE
  8
0
 10
69.54
 11
70.756
 20
-3.981
 21
-6.088
  0
LINE
  8
0
 10
70.756
 11
68.894
 20
-6.088
 21
-7.163
  0
LINE
  8
0
 10
68.894
 11
67.681
 20
-7.163
 21
-5.062
  0
LINE
  8
0
 10
67.681
 11
67.464
 20
-5.062
 21
-5.146
  0
LINE
  8
0
 10
67.464
 11
66.494
 20
-5.146
 21
-5.327
  0
LINE
  8
0
 10
66.494
 11
65.506
 20
-5.327
 21
-5.327
  0
LINE
  8
0
 10
65.506
 11
64.536
 20
-5.327
 21
-5.146
  0
LINE
  8
0
 10
64.536
 11
64.319
 20
-5.146
 21
-5.062
  0
LINE
  8
0
 10
64.319
 11
63.106
 20
-5.062
 21
-7.163
  0
LINE
  8
0
 10
63.106
 11
61.244
 20
-7.163
 21
-6.088
  0
LINE
  8
0
 10
61.244
 11
62.46
 20
-6.088
 21
-3.981
  0
LINE
  8
0
 10
62.46
 11
62.046
 20
-3.981
 21
-3.604
  0
LINE
  8
0
 10
62.046
 11
61.451
 20
-3.604
 21
-2.816
  0
LINE
  8
0
 10
61.451
 11
61.011
 20
-2.816
 21
-1.933
  0
LINE
  8
0
 10
61.011
 11
60.767
 20
-1.933
 21
-1.075
  0
LINE
  8
0
 10
60.767
 11
58.35
 20
-1.075
 21
-1.075
  0
LINE
  8
0
 10
80.4
 11
80.4
 20
-1.05
 21
1.05
  0
LINE
  8
0
 10
80.4
 11
82.812
 20
1.05
 21
1.05
  0
LINE
  8
0
 10
82.812
 11
83.058
 20
1.05
 21
1.915
  0
LINE
  8
0
 10
83.058
 11
83.494
 20
1.915
 21
2.79
  0
LINE
  8
0
 10
83.494
 11
84.083
 20
2.79
 21
3.571
  0
LINE
  8
0
 10
84.083
 11
84.504
 20
3.571
 21
3.955
  0
LINE
  8
0
 10
84.504
 11
83.291
 20
3.955
 21
6.057
  0
LINE
  8
0
 10
83.291
 11
85.109
 20
6.057
 21
7.107
  0
LINE
  8
0
 10
85.109
 11
86.321
 20
7.107
 21
5.009
  0
LINE
  8
0
 10
86.321
 11
86.55
 20
5.009
 21
5.098
  0
LINE
  8
0
 10
86.55
 11
87.511
 20
5.098
 21
5.277
  0
LINE
  8
0
 10
87.511
 11
88.489
 20
5.277
 21
5.277
  0
LINE
  8
0
 10
88.489
 11
89.45
 20
5.277
 21
5.098
  0
LINE
  8
0
 10
89.45
 11
89.679
 20
5.098
 21
5.009
  0
LINE
  8
0
 10
89.679
 11
90.891
 20
5.009
 21
7.107
  0
LINE
  8
0
 10
90.891
 11
92.709
 20
7.107
 21
6.057
  0
LINE
  8
0
 10
92.709
 11
91.496
 20
6.057
 21
3.955
  0
LINE
  8
0
 10
91.496
 11
91.917
 20
3.955
 21
3.571
  0
LINE
  8
0
 10
91.917
 11
92.506
 20
3.571
 21
2.79
  0
LINE
  8
0
 10
92.506
 11
92.942
 20
2.79
 21
1.915
  0
LINE
  8
0
 10
92.942
 11
93.188
 20
1.915
 21
1.05
  0
LINE
  8
0
 10
93.188
 11
95.6
 20
1.05
 21
1.05
  0
LINE
  8
0
 10
95.6
 11
95.6
 20
1.05
 21
-1.05
  0
LINE
  8
0
 10
95.6
 11
93.188
 20
-1.05
 21
-1.05
  0
LINE
  8
0
 10
93.188
 11
92.942
 20
-1.05
 21
-1.915
  0
LINE
  8
0
 10
92.942
 11
92.506
 20
-1.915
 21
-2.79
  0
LINE
  8
0
 10
92.506
 11
91.917
 20
-2.79
 21
-3.571
  0
LINE
  8
0
 10
91.917
 11
91.496
 20
-3.571
 21
-3.955
  0
LINE
  8
0
 10
91.496
 11
92.709
 20
-3.955
 21
-6.057
  0
LINE
  8
0
 10
92.709
 11
90.891
 20
-6.057
 21
-7.107
  0
LINE
  8
0
 10
90.891
 11
89.679
 20
-7.107
 21
-5.009
  0
LINE
  8
0
 10
89.679
 11
89.45
 20
-5.009
 21
-5.098
  0
LINE
  8
0
 10
89.45
 11
88.489
 20
-5.098
 21
-5.277
  0
LINE
  8
0
 10
88.489
 11
87.511
 20
-5.277
 21
-5.277
  0
LINE
  8
0
 10
87.511
 11
86.55
 20
-5.277
 21
-5.098
  0
LINE
  8
0
 10
86.55
 11
86.321
 20
-5.098
 21
-5.009
  0
LINE
  8
0
 10
86.321
 11
85.109
 20
-5.009
 21
-7.107
  0
LINE
  8
0
 10
85.109
 11
83.291
 20
-7.107
 21
-6.057
  0
LINE
  8
0
 10
83.291
 11
84.504
 20
-6.057
 21
-3.955
  0
LINE
  8
0
 10
84.504
 11
84.083
 20
-3.955
 21
-3.571
  0
LINE
  8
0
 10
84.083
 11
83.494
 20
-3.571
 21
-2.79
  0
LINE
  8
0
 10
83.494
 11
83.058
 20
-2.79
 21
-1.915
  0
LINE
  8
0
 10
83.058
 11
82.812
 20
-1.915
 21
-1.05
  0
LINE
  8
0
 10
82.812
 11
80.4
 20
-1.05
 21
-1.05
  0
LINE
  8
0
 10
102.45
 11
102.45
 20
-1.025
 21
1.025
  0
LINE
  8
0
 10
102.45
 11
104.875
 20
1.025
 21
1.025
  0
LINE
  8
0
 10
104.875
 11
104.963
 20
1.025
 21
1.479
  0
LINE
  8
0
 10
104.963
 11
105.334
 20
1.479
 21
2.406
  0
LINE
  8
0
 10
105.334
 11
105.873
 20
2.406
 21
3.245
  0
LINE
  8
0
 10
105.873
 11
106.539
 20
3.245
 21
3.944
  0
LINE
  8
0
 10
106.539
 11
105.337
 20
3.944
 21
6.026
  0
LINE
  8
0
 10
105.337
 11
107.113
 20
6.026
 21
7.051
  0
LINE
  8
0
 10
107.113
 11
108.315
 20
7.051
 21
4.969
  0
LINE
  8
0
 10
108.315
 11
109.253
 20
4.969
 21
5.197
  0
LINE
  8
0
 10
109.253
 11
110.25
 20
5.197
 21
5.244
  0
LINE
  8
0
 10
110.25
 11
111.238
 20
5.244
 21
5.102
  0
LINE
  8
0
 10
111.238
 11
111.675
 20
5.102
 21
4.951
  0
LINE
  8
0
 10
111.675
 11
112.887
 20
4.951
 21
7.051
  0
LINE
  8
0
 10
112.887
 11
114.663
 20
7.051
 21
6.026
  0
LINE
  8
0
 10
114.663
 11
113.45
 20
6.026
 21
3.926
  0
LINE
  8
0
 10
113.45
 11
113.8
 20
3.926
 21
3.623
  0
LINE
  8
0
 10
113.8
 11
114.417
 20
3.623
 21
2.838
  0
LINE
  8
0
 10
114.417
 11
114.874
 20
2.838
 21
1.951
  0
LINE
  8
0
 10
114.874
 11
115.146
 20
1.951
 21
1.025
  0
LINE
  8
0
 10
115.146
 11
117.55
 20
1.025
 21
1.025
  0
LINE
  8
0
 10
117.55
 11
117.55
 20
1.025
 21
-1.025
  0
LINE
  8
0
 10
117.55
 11
115.146
 20
-1.025
 21
-1.025
  0
LINE
  8
0
 10
115.146
 11
114.874
 20
-1.025
 21
-1.951
  0
LINE
  8
0
 10
114.874
 11
114.417
 20
-1.951
 21
-2.838
  0
LINE
  8
0
 10
114.417
 11
113.8
 20
-2.838
 21
-3.623
  0
LINE
  8
0
 10
113.8
 11
113.45
 20
-3.623
 21
-3.926
  0
LINE
  8
0
 10
113.45
 11
114.663
 20
-3.926
 21
-6.026
  0
LINE
  8
0
 10
114.663
 11
112.887
 20
-6.026
 21
-7.051
  0
LINE
  8
0
 10
112.887
 11
111.675
 20
-7.051
 21
-4.951
  0
LINE
  8
0
 10
111.675
 11
111.238
 20
-4.951
 21
-5.102
  0
LINE
  8
0
 10
111.238
 11
110.25
 20
-5.102
 21
-5.244
  0
LINE
  8
0
 10
110.25
 11
109.253
 20
-5.244
 21
-5.197
  0
LINE
  8
0
 10
109.253
 11
108.315
 20
-5.197
 21
-4.969
  0
LINE
  8
0
 10
108.315
 11
107.113
 20
-4.969
 21
-7.051
  0
LINE
  8
0
 10
107.113
 11
105.337
 20
-7.051
 21
-6.026
  0
LINE
  8
0
 10
105.337
 11
106.539
 20
-6.026
 21
-3.944
  0
LINE
  8
0
 10
106.539
 11
105.873
 20
-3.944
 21
-3.245
  0
LINE
  8
0
 10
105.873
 11
105.334
 20
-3.245
 21
-2.406
  0
LINE
  8
0
 10
105.334
 11
104.963
 20
-2.406
 21
-1.479
  0
LINE
  8
0
 10
104.963
 11
104.875
 20
-1.479
 21
-1.025
  0
LINE
  8
0
 10
104.875
 11
102.45
 20
-1.025
 21
-1.025
  0
ENDSEC
  0
SECTION
  2
OBJECTS
  0
DICTIONARY
  0
ENDSEC
  0
EOF
