  0
SECTION
  2
BLOCKS
  0
ENDSEC
  0
SECTION
  2
ENTITIES
  0
LINE
  8
0
 10
-7.2
 11
-7.2
 20
-1
 21
1
  0
LINE
  8
0
 10
-7.2
 11
-5.079
 20
1
 21
1
  0
LINE
  8
0
 10
-5.079
 11
-4.989
 20
1
 21
1.465
  0
LINE
  8
0
 10
-4.989
 11
-4.622
 20
1.465
 21
2.383
  0
LINE
  8
0
 10
-4.622
 11
-4.087
 20
2.383
 21
3.214
  0
LINE
  8
0
 10
-4.087
 11
-3.417
 20
3.214
 21
3.918
  0
LINE
  8
0
 10
-3.417
 11
-4.466
 20
3.918
 21
5.735
  0
LINE
  8
0
 10
-4.466
 11
-2.734
 20
5.735
 21
6.735
  0
LINE
  8
0
 10
-2.734
 11
-1.685
 20
6.735
 21
4.918
  0
LINE
  8
0
 10
-1.685
 11
-0.74
 20
4.918
 21
5.147
  0
LINE
  8
0
 10
-0.74
 11
0.247
 20
5.147
 21
5.194
  0
LINE
  8
0
 10
0.247
 11
1.226
 20
5.194
 21
5.053
  0
LINE
  8
0
 10
1.226
 11
1.673
 20
5.053
 21
4.899
  0
LINE
  8
0
 10
1.673
 11
2.734
 20
4.899
 21
6.735
  0
LINE
  8
0
 10
2.734
 11
4.466
 20
6.735
 21
5.735
  0
LINE
  8
0
 10
4.466
 11
3.406
 20
5.735
 21
3.899
  0
LINE
  8
0
 10
3.406
 11
3.763
 20
3.899
 21
3.588
  0
LINE
  8
0
 10
3.763
 11
4.375
 20
3.588
 21
2.811
  0
LINE
  8
0
 10
4.375
 11
4.828
 20
2.811
 21
1.933
  0
LINE
  8
0
 10
4.828
 11
5.101
 20
1.933
 21
1
  0
LINE
  8
0
 10
5.101
 11
7.2
 20
1
 21
1
  0
LINE
  8
0
 10
7.2
 11
7.2
 20
1
 21
-1
  0
LINE
  8
0
 10
7.2
 11
5.101
 20
-1
 21
-1
  0
LINE
  8
0
 10
5.101
 11
4.828
 20
-1
 21
-1.933
  0
LINE
  8
0
 10
4.828
 11
4.375
 20
-1.933
 21
-2.811
  0
LINE
  8
0
 10
4.375
 11
3.763
 20
-2.811
 21
-3.588
  0
LINE
  8
0
 10
3.763
 11
3.406
 20
-3.588
 21
-3.899
  0
LINE
  8
0
 10
3.406
 11
4.466
 20
-3.899
 21
-5.735
  0
LINE
  8
0
 10
4.466
 11
2.734
 20
-5.735
 21
-6.735
  0
LINE
  8
0
 10
2.734
 11
1.673
 20
-6.735
 21
-4.899
  0
LINE
  8
0
 10
1.673
 11
1.226
 20
-4.899
 21
-5.053
  0
LINE
  8
0
 10
1.226
 11
0.247
 20
-5.053
 21
-5.194
  0
LINE
  8
0
 10
0.247
 11
-0.74
 20
-5.194
 21
-5.147
  0
LINE
  8
0
 10
-0.74
 11
-1.685
 20
-5.147
 21
-4.918
  0
LINE
  8
0
 10
-1.685
 11
-2.734
 20
-4.918
 21
-6.735
  0
LINE
  8
0
 10
-2.734
 11
-4.466
 20
-6.735
 21
-5.735
  0
LINE
  8
0
 10
-4.466
 11
-3.417
 20
-5.735
 21
-3.918
  0
LINE
  8
0
 10
-3.417
 11
-4.087
 20
-3.918
 21
-3.214
  0
LINE
  8
0
 10
-4.087
 11
-4.622
 20
-3.214
 21
-2.383
  0
LINE
  8
0
 10
-4.622
 11
-4.989
 20
-2.383
 21
-1.465
  0
LINE
  8
0
 10
-4.989
 11
-5.079
 20
-1.465
 21
-1
  0
LINE
  8
0
 10
-5.079
 11
-7.2
 20
-1
 21
-1
  0
LINE
  8
0
 10
-50
 11
-49.81
 20
0
 21
4.358
  0
LINE
  8
0
 10
-49.81
 11
-49.24
 20
4.358
 21
8.682
  0
LINE
  8
0
 10
-49.24
 11
-48.296
 20
8.682
 21
12.941
  0
LINE
  8
0
 10
-48.296
 11
-46.985
 20
12.941
 21
17.101
  0
LINE
  8
0
 10
-46.985
 11
-45.315
 20
17.101
 21
21.131
  0
LINE
  8
0
 10
-45.315
 11
-43.301
 20
21.131
 21
25
  0
LINE
  8
0
 10
-43.301
 11
-40.958
 20
25
 21
28.679
  0
LINE
  8
0
 10
-40.958
 11
-38.302
 20
28.679
 21
32.139
  0
LINE
  8
0
 10
-38.302
 11
-35.355
 20
32.139
 21
35.355
  0
LINE
  8
0
 10
-35.355
 11
-32.139
 20
35.355
 21
38.302
  0
LINE
  8
0
 10
-32.139
 11
-28.679
 20
38.302
 21
40.958
  0
LINE
  8
0
 10
-28.679
 11
-25
 20
40.958
 21
43.301
  0
LINE
  8
0
 10
-25
 11
-21.131
 20
43.301
 21
45.315
  0
LINE
  8
0
 10
-21.131
 11
-17.101
 20
45.315
 21
46.985
  0
LINE
  8
0
 10
-17.101
 11
-12.941
 20
46.985
 21
48.296
  0
LINE
  8
0
 10
-12.941
 11
-8.682
 20
48.296
 21
49.24
  0
LINE
  8
0
 10
-8.682
 11
-4.358
 20
49.24
 21
49.81
  0
LINE
  8
0
 10
-4.358
 11
0
 20
49.81
 21
50
  0
LINE
  8
0
 10
0
 11
4.358
 20
50
 21
49.81
  0
LINE
  8
0
 10
4.358
 11
8.682
 20
49.81
 21
49.24
  0
LINE
  8
0
 10
8.682
 11
12.941
 20
49.24
 21
48.296
  0
LINE
  8
0
 10
12.941
 11
17.101
 20
48.296
 21
46.985
  0
LINE
  8
0
 10
17.101
 11
21.131
 20
46.985
 21
45.315
  0
LINE
  8
0
 10
21.131
 11
25
 20
45.315
 21
43.301
  0
LINE
  8
0
 10
25
 11
28.679
 20
43.301
 21
40.958
  0
LINE
  8
0
 10
28.679
 11
32.139
 20
40.958
 21
38.302
  0
LINE
  8
0
 10
32.139
 11
35.355
 20
38.302
 21
35.355
  0
LINE
  8
0
 10
35.355
 11
38.302
 20
35.355
 21
32.139
  0
LINE
  8
0
 10
38.302
 11
40.958
 20
32.139
 21
28.679
  0
LINE
  8
0
 10
40.958
 11
43.301
 20
28.679
 21
25
  0
LINE
  8
0
 10
43.301
 11
45.315
 20
25
 21
21.131
  0
LINE
  8
0
 10
45.315
 11
46.985
 20
21.131
 21
17.101
  0
LINE
  8
0
 10
46.985
 11
48.296
 20
17.101
 21
12.941
  0
LINE
  8
0
 10
48.296
 11
49.24
 20
12.941
 21
8.682
  0
LINE
  8
0
 10
49.24
 11
49.81
 20
8.682
 21
4.358
  0
LINE
  8
0
 10
49.81
 11
50
 20
4.358
 21
0
  0
LINE
  8
0
 10
50
 11
49.81
 20
0
 21
-4.358
  0
LINE
  8
0
 10
49.81
 11
49.24
 20
-4.358
 21
-8.682
  0
LINE
  8
0
 10
49.24
 11
48.296
 20
-8.682
 21
-12.941
  0
LINE
  8
0
 10
48.296
 11
46.985
 20
-12.941
 21
-17.101
  0
LINE
  8
0
 10
46.985
 11
45.315
 20
-17.101
 21
-21.131
  0
LINE
  8
0
 10
45.315
 11
43.301
 20
-21.131
 21
-25
  0
LINE
  8
0
 10
43.301
 11
40.958
 20
-25
 21
-28.679
  0
LINE
  8
0
 10
40.958
 11
38.302
 20
-28.679
 21
-32.139
  0
LINE
  8
0
 10
38.302
 11
35.355
 20
-32.139
 21
-35.355
  0
LINE
  8
0
 10
35.355
 11
32.139
 20
-35.355
 21
-38.302
  0
LINE
  8
0
 10
32.139
 11
28.679
 20
-38.302
 21
-40.958
  0
LINE
  8
0
 10
28.679
 11
25
 20
-40.958
 21
-43.301
  0
LINE
  8
0
 10
25
 11
21.131
 20
-43.301
 21
-45.315
  0
LINE
  8
0
 10
21.131
 11
17.101
 20
-45.315
 21
-46.985
  0
LINE
  8
0
 10
17.101
 11
12.941
 20
-46.985
 21
-48.296
  0
LINE
  8
0
 10
12.941
 11
8.682
 20
-48.296
 21
-49.24
  0
LINE
  8
0
 10
8.682
 11
4.358
 20
-49.24
 21
-49.81
  0
LINE
  8
0
 10
4.358
 11
0
 20
-49.81
 21
-50
  0
LINE
  8
0
 10
0
 11
-4.358
 20
-50
 21
-49.81
  0
LINE
  8
0
 10
-4.358
 11
-8.682
 20
-49.81
 21
-49.24
  0
LINE
  8
0
 10
-8.682
 11
-12.941
 20
-49.24
 21
-48.296
  0
LINE
  8
0
 10
-12.941
 11
-17.101
 20
-48.296
 21
-46.985
  0
LINE
  8
0
 10
-17.101
 11
-21.131
 20
-46.985
 21
-45.315
  0
LINE
  8
0
 10
-21.131
 11
-25
 20
-45.315
 21
-43.301
  0
LINE
  8
0
 10
-25
 11
-28.679
 20
-43.301
 21
-40.958
  0
LINE
  8
0
 10
-28.679
 11
-32.139
 20
-40.958
 21
-38.302
  0
LINE
  8
0
 10
-32.139
 11
-35.355
 20
-38.302
 21
-35.355
  0
LINE
  8
0
 10
-35.355
 11
-38.302
 20
-35.355
 21
-32.139
  0
LINE
  8
0
 10
-38.302
 11
-40.958
 20
-32.139
 21
-28.679
  0
LINE
  8
0
 10
-40.958
 11
-43.301
 20
-28.679
 21
-25
  0
LINE
  8
0
 10
-43.301
 11
-45.315
 20
-25
 21
-21.131
  0
LINE
  8
0
 10
-45.315
 11
-46.985
 20
-21.131
 21
-17.101
  0
LINE
  8
0
 10
-46.985
 11
-48.296
 20
-17.101
 21
-12.941
  0
LINE
  8
0
 10
-48.296
 11
-49.24
 20
-12.941
 21
-8.682
  0
LINE
  8
0
 10
-49.24
 11
-49.81
 20
-8.682
 21
-4.358
  0
LINE
  8
0
 10
-49.81
 11
-50
 20
-4.358
 21
0
  0
ENDSEC
  0
SECTION
  2
OBJECTS
  0
DICTIONARY
  0
ENDSEC
  0
EOF
