<?xml version="1.0" encoding="UTF-8" standalone="no"?>
<!-- Created with Inkscape (http://www.inkscape.org/) -->

<svg
   xmlns:dc="http://purl.org/dc/elements/1.1/"
   xmlns:cc="http://creativecommons.org/ns#"
   xmlns:rdf="http://www.w3.org/1999/02/22-rdf-syntax-ns#"
   xmlns:svg="http://www.w3.org/2000/svg"
   xmlns="http://www.w3.org/2000/svg"
   xmlns:sodipodi="http://sodipodi.sourceforge.net/DTD/sodipodi-0.dtd"
   xmlns:inkscape="http://www.inkscape.org/namespaces/inkscape"
   width="744.09448"
   height="1052.3622"
   id="svg3876"
   version="1.1"
   inkscape:version="0.47 r22583"
   sodipodi:docname="New document 20">
  <defs
     id="defs3878">
    <inkscape:perspective
       sodipodi:type="inkscape:persp3d"
       inkscape:vp_x="0 : 526.18109 : 1"
       inkscape:vp_y="0 : 1000 : 0"
       inkscape:vp_z="744.09448 : 526.18109 : 1"
       inkscape:persp3d-origin="372.04724 : 350.78739 : 1"
       id="perspective3884" />
    <inkscape:perspective
       id="perspective6236"
       inkscape:persp3d-origin="0.5 : 0.33333333 : 1"
       inkscape:vp_z="1 : 0.5 : 1"
       inkscape:vp_y="0 : 1000 : 0"
       inkscape:vp_x="0 : 0.5 : 1"
       sodipodi:type="inkscape:persp3d" />
  </defs>
  <sodipodi:namedview
     id="base"
     pagecolor="#ffffff"
     bordercolor="#666666"
     borderopacity="1.0"
     inkscape:pageopacity="0.0"
     inkscape:pageshadow="2"
     inkscape:zoom="0.35"
     inkscape:cx="375"
     inkscape:cy="520"
     inkscape:document-units="mm"
     inkscape:current-layer="layer1"
     showgrid="true"
     units="mm"
     showborder="false"
     inkscape:window-width="1600"
     inkscape:window-height="1125"
     inkscape:window-x="0"
     inkscape:window-y="25"
     inkscape:window-maximized="1">
    <inkscape:grid
       type="xygrid"
       id="grid3886"
       empspacing="5"
       visible="true"
       enabled="true"
       snapvisiblegridlinesonly="true"
       units="mm"
       spacingx="5mm"
       spacingy="5mm" />
  </sodipodi:namedview>
  <metadata
     id="metadata3881">
    <rdf:RDF>
      <cc:Work
         rdf:about="">
        <dc:format>image/svg+xml</dc:format>
        <dc:type
           rdf:resource="http://purl.org/dc/dcmitype/StillImage" />
        <dc:title></dc:title>
      </cc:Work>
    </rdf:RDF>
  </metadata>
  <g
     inkscape:label="Layer 1"
     inkscape:groupmode="layer"
     id="layer1"
     transform="translate(0,-2.5390623e-6)">
    <path
       style="fill:none;stroke:#000000;stroke-width:0.1;stroke-linecap:butt;stroke-linejoin:miter;stroke-miterlimit:4;stroke-opacity:1;stroke-dasharray:none"
       d="m -681.48007,-78.627209 c 0,3.5433 0,7.0866 0,10.6299 -1.59449,0 -3.18898,0 -4.78347,0 0,5.315 0,10.6299 0,15.9449 1.59449,0 3.18898,0 4.78349,0 3.54332,0 7.08662,0 10.62993,0 1.59449,0 3.18897,0 4.78346,0 0,-5.315 0,-10.6299 0,-15.9449 -1.59449,0 -3.18897,0 -4.78346,0 0,-3.5433 0,-7.0866 0,-10.6299 5.31496,0 10.62992,0 15.94488,0 0,-3.543301 0,-7.086601 -2e-5,-10.6299 6.49605,0 12.99212,0 19.48818,0 0,3.543299 0,7.086599 -0.0698,10.6299 7.80971,-0.09 15.68924,-0.1791 23.56878,-0.2691 0.0321,17.8443 0.0642,35.6886 0.0963,53.5329 -42.87572,-0.1794 -85.75143,-0.3588 -128.62715,-0.5382 0.25162,-17.5752 0.50323,-35.1504 0.75485,-52.7256 7.64131,0 15.28261,0 22.85245,0 -0.0715,-3.543301 -0.0715,-7.086601 -0.0715,-10.6299 m 4e-5,0 c 6.49606,0 12.99213,0 19.48819,0 0,3.543299 0,7.086599 0,10.6299 5.31496,0 10.62992,0 15.94488,0"
       id="path5170"
       sodipodi:nodetypes="cccccccccccccccccccccccc" />
  </g>
</svg>
