  0
SECTION
  2
BLOCKS
  0
ENDSEC
  0
SECTION
  2
ENTITIES
  0
LINE
  8
0
 10
-13
 11
-13
 20
-68.475
 21
-67.475
  0
LINE
  8
0
 10
-13
 11
-10
 20
-67.475
 21
-67.475
  0
LINE
  8
0
 10
-10
 11
-8
 20
-67.475
 21
-65.475
  0
LINE
  8
0
 10
-8
 11
-5
 20
-65.475
 21
-65.475
  0
LINE
  8
0
 10
-5
 11
-5
 20
-65.475
 21
62.9
  0
LINE
  8
0
 10
-5
 11
5
 20
62.9
 21
62.9
  0
LINE
  8
0
 10
5
 11
5
 20
62.9
 21
-0.999
  0
LINE
  8
0
 10
5
 11
5.7
 20
-0.999
 21
-1
  0
LINE
  8
0
 10
5.7
 11
7.083
 20
-1
 21
-2.384
  0
LINE
  8
0
 10
7.083
 11
7.083
 20
-2.384
 21
-3.384
  0
LINE
  8
0
 10
7.083
 11
5
 20
-3.384
 21
-3.384
  0
LINE
  8
0
 10
5
 11
5
 20
-3.384
 21
-82.9
  0
LINE
  8
0
 10
5
 11
-5
 20
-82.9
 21
-82.9
  0
LINE
  8
0
 10
-5
 11
-5
 20
-82.9
 21
-70.475
  0
LINE
  8
0
 10
-5
 11
-8
 20
-70.475
 21
-70.475
  0
LINE
  8
0
 10
-8
 11
-10
 20
-70.475
 21
-68.475
  0
LINE
  8
0
 10
-10
 11
-13
 20
-68.475
 21
-68.475
  0
LINE
  8
0
 10
-1.5
 11
-1.427
 20
-38.45
 21
-37.986
  0
LINE
  8
0
 10
-1.427
 11
-1.214
 20
-37.986
 21
-37.568
  0
LINE
  8
0
 10
-1.214
 11
1.118
 20
-37.568
 21
-35.236
  0
LINE
  8
0
 10
1.118
 11
1.536
 20
-35.236
 21
-35.023
  0
LINE
  8
0
 10
1.536
 11
2
 20
-35.023
 21
-34.95
  0
LINE
  8
0
 10
2
 11
2.464
 20
-34.95
 21
-35.023
  0
LINE
  8
0
 10
2.464
 11
2.882
 20
-35.023
 21
-35.236
  0
LINE
  8
0
 10
2.882
 11
3.214
 20
-35.236
 21
-35.568
  0
LINE
  8
0
 10
3.214
 11
3.427
 20
-35.568
 21
-35.986
  0
LINE
  8
0
 10
3.427
 11
3.5
 20
-35.986
 21
-36.45
  0
LINE
  8
0
 10
3.5
 11
3.427
 20
-36.45
 21
-36.914
  0
LINE
  8
0
 10
3.427
 11
3.214
 20
-36.914
 21
-37.332
  0
LINE
  8
0
 10
3.214
 11
0.882
 20
-37.332
 21
-39.664
  0
LINE
  8
0
 10
0.882
 11
0.464
 20
-39.664
 21
-39.877
  0
LINE
  8
0
 10
0.464
 11
0
 20
-39.877
 21
-39.95
  0
LINE
  8
0
 10
0
 11
-0.464
 20
-39.95
 21
-39.877
  0
LINE
  8
0
 10
-0.464
 11
-0.882
 20
-39.877
 21
-39.664
  0
LINE
  8
0
 10
-0.882
 11
-1.214
 20
-39.664
 21
-39.332
  0
LINE
  8
0
 10
-1.214
 11
-1.427
 20
-39.332
 21
-38.914
  0
LINE
  8
0
 10
-1.427
 11
-1.5
 20
-38.914
 21
-38.45
  0
LINE
  8
0
 10
-1.5
 11
-1.427
 20
34.45
 21
34.914
  0
LINE
  8
0
 10
-1.427
 11
-1.214
 20
34.914
 21
35.332
  0
LINE
  8
0
 10
-1.214
 11
1.118
 20
35.332
 21
37.664
  0
LINE
  8
0
 10
1.118
 11
1.536
 20
37.664
 21
37.877
  0
LINE
  8
0
 10
1.536
 11
2
 20
37.877
 21
37.95
  0
LINE
  8
0
 10
2
 11
2.464
 20
37.95
 21
37.877
  0
LINE
  8
0
 10
2.464
 11
2.882
 20
37.877
 21
37.664
  0
LINE
  8
0
 10
2.882
 11
3.214
 20
37.664
 21
37.332
  0
LINE
  8
0
 10
3.214
 11
3.427
 20
37.332
 21
36.914
  0
LINE
  8
0
 10
3.427
 11
3.5
 20
36.914
 21
36.45
  0
LINE
  8
0
 10
3.5
 11
3.427
 20
36.45
 21
35.986
  0
LINE
  8
0
 10
3.427
 11
3.214
 20
35.986
 21
35.568
  0
LINE
  8
0
 10
3.214
 11
0.882
 20
35.568
 21
33.236
  0
LINE
  8
0
 10
0.882
 11
0.464
 20
33.236
 21
33.023
  0
LINE
  8
0
 10
0.464
 11
0
 20
33.023
 21
32.95
  0
LINE
  8
0
 10
0
 11
-0.464
 20
32.95
 21
33.023
  0
LINE
  8
0
 10
-0.464
 11
-0.882
 20
33.023
 21
33.236
  0
LINE
  8
0
 10
-0.882
 11
-1.214
 20
33.236
 21
33.568
  0
LINE
  8
0
 10
-1.214
 11
-1.427
 20
33.568
 21
33.986
  0
LINE
  8
0
 10
-1.427
 11
-1.5
 20
33.986
 21
34.45
  0
LINE
  8
0
 10
7
 11
7
 20
-32.025
 21
-31.025
  0
LINE
  8
0
 10
7
 11
10
 20
-31.025
 21
-31.025
  0
LINE
  8
0
 10
10
 11
12
 20
-31.025
 21
-29.025
  0
LINE
  8
0
 10
12
 11
15
 20
-29.025
 21
-29.025
  0
LINE
  8
0
 10
15
 11
15
 20
-29.025
 21
62.9
  0
LINE
  8
0
 10
15
 11
25
 20
62.9
 21
62.9
  0
LINE
  8
0
 10
25
 11
25
 20
62.9
 21
-0.999
  0
LINE
  8
0
 10
25
 11
25.7
 20
-0.999
 21
-1
  0
LINE
  8
0
 10
25.7
 11
27.083
 20
-1
 21
-2.384
  0
LINE
  8
0
 10
27.083
 11
27.083
 20
-2.384
 21
-3.384
  0
LINE
  8
0
 10
27.083
 11
25
 20
-3.384
 21
-3.384
  0
LINE
  8
0
 10
25
 11
25
 20
-3.384
 21
-82.9
  0
LINE
  8
0
 10
25
 11
15
 20
-82.9
 21
-82.9
  0
LINE
  8
0
 10
15
 11
15
 20
-82.9
 21
-34.025
  0
LINE
  8
0
 10
15
 11
12
 20
-34.025
 21
-34.025
  0
LINE
  8
0
 10
12
 11
10
 20
-34.025
 21
-32.025
  0
LINE
  8
0
 10
10
 11
7
 20
-32.025
 21
-32.025
  0
LINE
  8
0
 10
18.5
 11
18.573
 20
-38.45
 21
-37.986
  0
LINE
  8
0
 10
18.573
 11
18.786
 20
-37.986
 21
-37.568
  0
LINE
  8
0
 10
18.786
 11
21.118
 20
-37.568
 21
-35.236
  0
LINE
  8
0
 10
21.118
 11
21.536
 20
-35.236
 21
-35.023
  0
LINE
  8
0
 10
21.536
 11
22
 20
-35.023
 21
-34.95
  0
LINE
  8
0
 10
22
 11
22.464
 20
-34.95
 21
-35.023
  0
LINE
  8
0
 10
22.464
 11
22.882
 20
-35.023
 21
-35.236
  0
LINE
  8
0
 10
22.882
 11
23.214
 20
-35.236
 21
-35.568
  0
LINE
  8
0
 10
23.214
 11
23.427
 20
-35.568
 21
-35.986
  0
LINE
  8
0
 10
23.427
 11
23.5
 20
-35.986
 21
-36.45
  0
LINE
  8
0
 10
23.5
 11
23.427
 20
-36.45
 21
-36.914
  0
LINE
  8
0
 10
23.427
 11
23.214
 20
-36.914
 21
-37.332
  0
LINE
  8
0
 10
23.214
 11
20.882
 20
-37.332
 21
-39.664
  0
LINE
  8
0
 10
20.882
 11
20.464
 20
-39.664
 21
-39.877
  0
LINE
  8
0
 10
20.464
 11
20
 20
-39.877
 21
-39.95
  0
LINE
  8
0
 10
20
 11
19.536
 20
-39.95
 21
-39.877
  0
LINE
  8
0
 10
19.536
 11
19.118
 20
-39.877
 21
-39.664
  0
LINE
  8
0
 10
19.118
 11
18.786
 20
-39.664
 21
-39.332
  0
LINE
  8
0
 10
18.786
 11
18.573
 20
-39.332
 21
-38.914
  0
LINE
  8
0
 10
18.573
 11
18.5
 20
-38.914
 21
-38.45
  0
LINE
  8
0
 10
18.5
 11
18.573
 20
34.45
 21
34.914
  0
LINE
  8
0
 10
18.573
 11
18.786
 20
34.914
 21
35.332
  0
LINE
  8
0
 10
18.786
 11
21.118
 20
35.332
 21
37.664
  0
LINE
  8
0
 10
21.118
 11
21.536
 20
37.664
 21
37.877
  0
LINE
  8
0
 10
21.536
 11
22
 20
37.877
 21
37.95
  0
LINE
  8
0
 10
22
 11
22.464
 20
37.95
 21
37.877
  0
LINE
  8
0
 10
22.464
 11
22.882
 20
37.877
 21
37.664
  0
LINE
  8
0
 10
22.882
 11
23.214
 20
37.664
 21
37.332
  0
LINE
  8
0
 10
23.214
 11
23.427
 20
37.332
 21
36.914
  0
LINE
  8
0
 10
23.427
 11
23.5
 20
36.914
 21
36.45
  0
LINE
  8
0
 10
23.5
 11
23.427
 20
36.45
 21
35.986
  0
LINE
  8
0
 10
23.427
 11
23.214
 20
35.986
 21
35.568
  0
LINE
  8
0
 10
23.214
 11
20.882
 20
35.568
 21
33.236
  0
LINE
  8
0
 10
20.882
 11
20.464
 20
33.236
 21
33.023
  0
LINE
  8
0
 10
20.464
 11
20
 20
33.023
 21
32.95
  0
LINE
  8
0
 10
20
 11
19.536
 20
32.95
 21
33.023
  0
LINE
  8
0
 10
19.536
 11
19.118
 20
33.023
 21
33.236
  0
LINE
  8
0
 10
19.118
 11
18.786
 20
33.236
 21
33.568
  0
LINE
  8
0
 10
18.786
 11
18.573
 20
33.568
 21
33.986
  0
LINE
  8
0
 10
18.573
 11
18.5
 20
33.986
 21
34.45
  0
LINE
  8
0
 10
27
 11
27
 20
4.425
 21
5.425
  0
LINE
  8
0
 10
27
 11
30
 20
5.425
 21
5.425
  0
LINE
  8
0
 10
30
 11
32
 20
5.425
 21
7.425
  0
LINE
  8
0
 10
32
 11
35
 20
7.425
 21
7.425
  0
LINE
  8
0
 10
35
 11
35
 20
7.425
 21
62.9
  0
LINE
  8
0
 10
35
 11
45
 20
62.9
 21
62.9
  0
LINE
  8
0
 10
45
 11
45
 20
62.9
 21
-0.999
  0
LINE
  8
0
 10
45
 11
45.7
 20
-0.999
 21
-1
  0
LINE
  8
0
 10
45.7
 11
47.083
 20
-1
 21
-2.384
  0
LINE
  8
0
 10
47.083
 11
47.083
 20
-2.384
 21
-3.384
  0
LINE
  8
0
 10
47.083
 11
45
 20
-3.384
 21
-3.384
  0
LINE
  8
0
 10
45
 11
45
 20
-3.384
 21
-82.9
  0
LINE
  8
0
 10
45
 11
35
 20
-82.9
 21
-82.9
  0
LINE
  8
0
 10
35
 11
35
 20
-82.9
 21
2.425
  0
LINE
  8
0
 10
35
 11
32
 20
2.425
 21
2.425
  0
LINE
  8
0
 10
32
 11
30
 20
2.425
 21
4.425
  0
LINE
  8
0
 10
30
 11
27
 20
4.425
 21
4.425
  0
LINE
  8
0
 10
38.5
 11
38.573
 20
-38.45
 21
-37.986
  0
LINE
  8
0
 10
38.573
 11
38.786
 20
-37.986
 21
-37.568
  0
LINE
  8
0
 10
38.786
 11
41.118
 20
-37.568
 21
-35.236
  0
LINE
  8
0
 10
41.118
 11
41.536
 20
-35.236
 21
-35.023
  0
LINE
  8
0
 10
41.536
 11
42
 20
-35.023
 21
-34.95
  0
LINE
  8
0
 10
42
 11
42.464
 20
-34.95
 21
-35.023
  0
LINE
  8
0
 10
42.464
 11
42.882
 20
-35.023
 21
-35.236
  0
LINE
  8
0
 10
42.882
 11
43.214
 20
-35.236
 21
-35.568
  0
LINE
  8
0
 10
43.214
 11
43.427
 20
-35.568
 21
-35.986
  0
LINE
  8
0
 10
43.427
 11
43.5
 20
-35.986
 21
-36.45
  0
LINE
  8
0
 10
43.5
 11
43.427
 20
-36.45
 21
-36.914
  0
LINE
  8
0
 10
43.427
 11
43.214
 20
-36.914
 21
-37.332
  0
LINE
  8
0
 10
43.214
 11
40.882
 20
-37.332
 21
-39.664
  0
LINE
  8
0
 10
40.882
 11
40.464
 20
-39.664
 21
-39.877
  0
LINE
  8
0
 10
40.464
 11
40
 20
-39.877
 21
-39.95
  0
LINE
  8
0
 10
40
 11
39.536
 20
-39.95
 21
-39.877
  0
LINE
  8
0
 10
39.536
 11
39.118
 20
-39.877
 21
-39.664
  0
LINE
  8
0
 10
39.118
 11
38.786
 20
-39.664
 21
-39.332
  0
LINE
  8
0
 10
38.786
 11
38.573
 20
-39.332
 21
-38.914
  0
LINE
  8
0
 10
38.573
 11
38.5
 20
-38.914
 21
-38.45
  0
LINE
  8
0
 10
38.5
 11
38.573
 20
34.45
 21
34.914
  0
LINE
  8
0
 10
38.573
 11
38.786
 20
34.914
 21
35.332
  0
LINE
  8
0
 10
38.786
 11
41.118
 20
35.332
 21
37.664
  0
LINE
  8
0
 10
41.118
 11
41.536
 20
37.664
 21
37.877
  0
LINE
  8
0
 10
41.536
 11
42
 20
37.877
 21
37.95
  0
LINE
  8
0
 10
42
 11
42.464
 20
37.95
 21
37.877
  0
LINE
  8
0
 10
42.464
 11
42.882
 20
37.877
 21
37.664
  0
LINE
  8
0
 10
42.882
 11
43.214
 20
37.664
 21
37.332
  0
LINE
  8
0
 10
43.214
 11
43.427
 20
37.332
 21
36.914
  0
LINE
  8
0
 10
43.427
 11
43.5
 20
36.914
 21
36.45
  0
LINE
  8
0
 10
43.5
 11
43.427
 20
36.45
 21
35.986
  0
LINE
  8
0
 10
43.427
 11
43.214
 20
35.986
 21
35.568
  0
LINE
  8
0
 10
43.214
 11
40.882
 20
35.568
 21
33.236
  0
LINE
  8
0
 10
40.882
 11
40.464
 20
33.236
 21
33.023
  0
LINE
  8
0
 10
40.464
 11
40
 20
33.023
 21
32.95
  0
LINE
  8
0
 10
40
 11
39.536
 20
32.95
 21
33.023
  0
LINE
  8
0
 10
39.536
 11
39.118
 20
33.023
 21
33.236
  0
LINE
  8
0
 10
39.118
 11
38.786
 20
33.236
 21
33.568
  0
LINE
  8
0
 10
38.786
 11
38.573
 20
33.568
 21
33.986
  0
LINE
  8
0
 10
38.573
 11
38.5
 20
33.986
 21
34.45
  0
LINE
  8
0
 10
47
 11
47
 20
40.875
 21
41.875
  0
LINE
  8
0
 10
47
 11
50
 20
41.875
 21
41.875
  0
LINE
  8
0
 10
50
 11
52
 20
41.875
 21
43.875
  0
LINE
  8
0
 10
52
 11
55
 20
43.875
 21
43.875
  0
LINE
  8
0
 10
55
 11
55
 20
43.875
 21
62.9
  0
LINE
  8
0
 10
55
 11
65
 20
62.9
 21
62.9
  0
LINE
  8
0
 10
65
 11
65
 20
62.9
 21
-0.999
  0
LINE
  8
0
 10
65
 11
65.7
 20
-0.999
 21
-1
  0
LINE
  8
0
 10
65.7
 11
67.083
 20
-1
 21
-2.384
  0
LINE
  8
0
 10
67.083
 11
67.083
 20
-2.384
 21
-3.384
  0
LINE
  8
0
 10
67.083
 11
65
 20
-3.384
 21
-3.384
  0
LINE
  8
0
 10
65
 11
65
 20
-3.384
 21
-82.9
  0
LINE
  8
0
 10
65
 11
55
 20
-82.9
 21
-82.9
  0
LINE
  8
0
 10
55
 11
55
 20
-82.9
 21
38.875
  0
LINE
  8
0
 10
55
 11
52
 20
38.875
 21
38.875
  0
LINE
  8
0
 10
52
 11
50
 20
38.875
 21
40.875
  0
LINE
  8
0
 10
50
 11
47
 20
40.875
 21
40.875
  0
LINE
  8
0
 10
58.5
 11
58.573
 20
-38.45
 21
-37.986
  0
LINE
  8
0
 10
58.573
 11
58.786
 20
-37.986
 21
-37.568
  0
LINE
  8
0
 10
58.786
 11
61.118
 20
-37.568
 21
-35.236
  0
LINE
  8
0
 10
61.118
 11
61.536
 20
-35.236
 21
-35.023
  0
LINE
  8
0
 10
61.536
 11
62
 20
-35.023
 21
-34.95
  0
LINE
  8
0
 10
62
 11
62.464
 20
-34.95
 21
-35.023
  0
LINE
  8
0
 10
62.464
 11
62.882
 20
-35.023
 21
-35.236
  0
LINE
  8
0
 10
62.882
 11
63.214
 20
-35.236
 21
-35.568
  0
LINE
  8
0
 10
63.214
 11
63.427
 20
-35.568
 21
-35.986
  0
LINE
  8
0
 10
63.427
 11
63.5
 20
-35.986
 21
-36.45
  0
LINE
  8
0
 10
63.5
 11
63.427
 20
-36.45
 21
-36.914
  0
LINE
  8
0
 10
63.427
 11
63.214
 20
-36.914
 21
-37.332
  0
LINE
  8
0
 10
63.214
 11
60.882
 20
-37.332
 21
-39.664
  0
LINE
  8
0
 10
60.882
 11
60.464
 20
-39.664
 21
-39.877
  0
LINE
  8
0
 10
60.464
 11
60
 20
-39.877
 21
-39.95
  0
LINE
  8
0
 10
60
 11
59.536
 20
-39.95
 21
-39.877
  0
LINE
  8
0
 10
59.536
 11
59.118
 20
-39.877
 21
-39.664
  0
LINE
  8
0
 10
59.118
 11
58.786
 20
-39.664
 21
-39.332
  0
LINE
  8
0
 10
58.786
 11
58.573
 20
-39.332
 21
-38.914
  0
LINE
  8
0
 10
58.573
 11
58.5
 20
-38.914
 21
-38.45
  0
LINE
  8
0
 10
58.5
 11
58.573
 20
34.45
 21
34.914
  0
LINE
  8
0
 10
58.573
 11
58.786
 20
34.914
 21
35.332
  0
LINE
  8
0
 10
58.786
 11
61.118
 20
35.332
 21
37.664
  0
LINE
  8
0
 10
61.118
 11
61.536
 20
37.664
 21
37.877
  0
LINE
  8
0
 10
61.536
 11
62
 20
37.877
 21
37.95
  0
LINE
  8
0
 10
62
 11
62.464
 20
37.95
 21
37.877
  0
LINE
  8
0
 10
62.464
 11
62.882
 20
37.877
 21
37.664
  0
LINE
  8
0
 10
62.882
 11
63.214
 20
37.664
 21
37.332
  0
LINE
  8
0
 10
63.214
 11
63.427
 20
37.332
 21
36.914
  0
LINE
  8
0
 10
63.427
 11
63.5
 20
36.914
 21
36.45
  0
LINE
  8
0
 10
63.5
 11
63.427
 20
36.45
 21
35.986
  0
LINE
  8
0
 10
63.427
 11
63.214
 20
35.986
 21
35.568
  0
LINE
  8
0
 10
63.214
 11
60.882
 20
35.568
 21
33.236
  0
LINE
  8
0
 10
60.882
 11
60.464
 20
33.236
 21
33.023
  0
LINE
  8
0
 10
60.464
 11
60
 20
33.023
 21
32.95
  0
LINE
  8
0
 10
60
 11
59.536
 20
32.95
 21
33.023
  0
LINE
  8
0
 10
59.536
 11
59.118
 20
33.023
 21
33.236
  0
LINE
  8
0
 10
59.118
 11
58.786
 20
33.236
 21
33.568
  0
LINE
  8
0
 10
58.786
 11
58.573
 20
33.568
 21
33.986
  0
LINE
  8
0
 10
58.573
 11
58.5
 20
33.986
 21
34.45
  0
ENDSEC
  0
SECTION
  2
OBJECTS
  0
DICTIONARY
  0
ENDSEC
  0
EOF
