  0
SECTION
  2
HEADER
  9
$ACADVER
  1
AC1009
  9
$EXTMIN
 10
0.0
 20
0.0
 30
0.0
  9
$EXTMAX
 10
1000.0
 20
1000.0
 30
0.0
  9
$FILLMODE
 70
 0
  9
$SPLFRAME
 70
 1
  0
ENDSEC
  0
SECTION
  2
TABLES
  0
TABLE
  2
LAYER
 70
1
  0
LAYER
  2
0
 70
     0
 62
     7
  6
CONTINUOUS
  0
ENDTAB
  0
ENDSEC
  0
SECTION
  2
ENTITIES
  0
LINE
  8
0
 62
     30
 10
25.7473
 20
29.0932
 30
0.0
 11
24.5181
 21
25.7693
 31
0.0
  0
LINE
  8
0
 62
     30
 10
24.5181
 20
25.7693
 30
0.0
 11
26.9765
 21
25.7693
 31
0.0
  0
LINE
  8
0
 62
     30
 10
26.9765
 20
25.7693
 30
0.0
 11
25.7473
 21
29.0932
 31
0.0
  0
LINE
  8
0
 62
     30
 10
25.2347
 20
29.9861
 30
0.0
 11
26.2599
 21
29.9861
 31
0.0
  0
LINE
  8
0
 62
     30
 10
26.2599
 20
29.9861
 30
0.0
 11
28.812
 21
23.2999
 31
0.0
  0
LINE
  8
0
 62
     30
 10
28.812
 20
23.2999
 30
0.0
 11
27.8694
 21
23.2999
 31
0.0
  0
LINE
  8
0
 62
     30
 10
27.8694
 20
23.2999
 30
0.0
 11
27.2576
 21
25.0142
 31
0.0
  0
LINE
  8
0
 62
     30
 10
27.2576
 20
25.0142
 30
0.0
 11
24.248
 21
25.0142
 31
0.0
  0
LINE
  8
0
 62
     30
 10
24.248
 20
25.0142
 30
0.0
 11
23.6361
 21
23.2999
 31
0.0
  0
LINE
  8
0
 62
     30
 10
23.6361
 20
23.2999
 30
0.0
 11
22.6825
 21
23.2999
 31
0.0
  0
LINE
  8
0
 62
     30
 10
22.6825
 20
23.2999
 30
0.0
 11
25.2347
 21
29.9861
 31
0.0
  0
LINE
  8
0
 62
     30
 10
30.5911
 20
29.242
 30
0.0
 11
30.5911
 21
24.044
 31
0.0
  0
LINE
  8
0
 62
     30
 10
30.5911
 20
24.044
 30
0.0
 11
31.688
 21
24.044
 31
0.0
  0
LINE
  8
0
 62
     30
 10
31.688
 20
24.044
 30
0.0
 11
32.8841
 21
24.1997
 31
0.0
  0
LINE
  8
0
 62
     30
 10
32.8841
 20
24.1997
 30
0.0
 11
33.711
 21
24.6669
 31
0.0
  0
LINE
  8
0
 62
     30
 10
33.711
 20
24.6669
 30
0.0
 11
34.1946
 21
25.4772
 31
0.0
  0
LINE
  8
0
 62
     30
 10
34.1946
 20
25.4772
 30
0.0
 11
34.3559
 21
26.6513
 31
0.0
  0
LINE
  8
0
 62
     30
 10
34.3559
 20
26.6513
 30
0.0
 11
34.1946
 21
27.8157
 31
0.0
  0
LINE
  8
0
 62
     30
 10
34.1946
 20
27.8157
 30
0.0
 11
33.711
 21
28.6191
 31
0.0
  0
LINE
  8
0
 62
     30
 10
33.711
 20
28.6191
 30
0.0
 11
32.8841
 21
29.0862
 31
0.0
  0
LINE
  8
0
 62
     30
 10
32.8841
 20
29.0862
 30
0.0
 11
31.688
 21
29.242
 31
0.0
  0
LINE
  8
0
 62
     30
 10
31.688
 20
29.242
 30
0.0
 11
30.5911
 21
29.242
 31
0.0
  0
LINE
  8
0
 62
     30
 10
29.6871
 20
29.9861
 30
0.0
 11
31.5502
 21
29.9861
 31
0.0
  0
LINE
  8
0
 62
     30
 10
31.5502
 20
29.9861
 30
0.0
 11
33.2314
 21
29.7835
 31
0.0
  0
LINE
  8
0
 62
     30
 10
33.2314
 20
29.7835
 30
0.0
 11
34.4
 21
29.1758
 31
0.0
  0
LINE
  8
0
 62
     30
 10
34.4
 20
29.1758
 30
0.0
 11
35.0821
 21
28.1423
 31
0.0
  0
LINE
  8
0
 62
     30
 10
35.0821
 20
28.1423
 30
0.0
 11
35.3095
 21
26.6513
 31
0.0
  0
LINE
  8
0
 62
     30
 10
35.3095
 20
26.6513
 30
0.0
 11
35.0793
 21
25.1506
 31
0.0
  0
LINE
  8
0
 62
     30
 10
35.0793
 20
25.1506
 30
0.0
 11
34.3945
 21
24.1102
 31
0.0
  0
LINE
  8
0
 62
     30
 10
34.3945
 20
24.1102
 30
0.0
 11
33.2286
 21
23.5024
 31
0.0
  0
LINE
  8
0
 62
     30
 10
33.2286
 20
23.5024
 30
0.0
 11
31.5502
 21
23.2999
 31
0.0
  0
LINE
  8
0
 62
     30
 10
31.5502
 20
23.2999
 30
0.0
 11
29.6871
 21
23.2999
 31
0.0
  0
LINE
  8
0
 62
     30
 10
29.6871
 20
23.2999
 30
0.0
 11
29.6871
 21
29.9861
 31
0.0
  0
LINE
  8
0
 62
     30
 10
37.5447
 20
26.4914
 30
0.0
 11
37.5447
 21
24.044
 31
0.0
  0
LINE
  8
0
 62
     30
 10
37.5447
 20
24.044
 30
0.0
 11
38.9999
 21
24.044
 31
0.0
  0
LINE
  8
0
 62
     30
 10
38.9999
 20
24.044
 30
0.0
 11
40.0801
 21
24.3472
 31
0.0
  0
LINE
  8
0
 62
     30
 10
40.0801
 20
24.3472
 30
0.0
 11
40.4329
 21
25.2732
 31
0.0
  0
LINE
  8
0
 62
     30
 10
40.4329
 20
25.2732
 30
0.0
 11
40.0801
 21
26.1938
 31
0.0
  0
LINE
  8
0
 62
     30
 10
40.0801
 20
26.1938
 30
0.0
 11
38.9999
 21
26.4914
 31
0.0
  0
LINE
  8
0
 62
     30
 10
38.9999
 20
26.4914
 30
0.0
 11
37.5447
 21
26.4914
 31
0.0
  0
LINE
  8
0
 62
     30
 10
37.5447
 20
29.242
 30
0.0
 11
37.5447
 21
27.23
 31
0.0
  0
LINE
  8
0
 62
     30
 10
37.5447
 20
27.23
 30
0.0
 11
38.8842
 21
27.23
 31
0.0
  0
LINE
  8
0
 62
     30
 10
38.8842
 20
27.23
 30
0.0
 11
39.8709
 21
27.4781
 31
0.0
  0
LINE
  8
0
 62
     30
 10
39.8709
 20
27.4781
 30
0.0
 11
40.1959
 21
28.2333
 31
0.0
  0
LINE
  8
0
 62
     30
 10
40.1959
 20
28.2333
 30
0.0
 11
39.8709
 21
28.9884
 31
0.0
  0
LINE
  8
0
 62
     30
 10
39.8709
 20
28.9884
 30
0.0
 11
38.8842
 21
29.242
 31
0.0
  0
LINE
  8
0
 62
     30
 10
38.8842
 20
29.242
 30
0.0
 11
37.5447
 21
29.242
 31
0.0
  0
LINE
  8
0
 62
     30
 10
36.6406
 20
29.9861
 30
0.0
 11
38.9558
 21
29.9861
 31
0.0
  0
LINE
  8
0
 62
     30
 10
38.9558
 20
29.9861
 30
0.0
 11
39.8667
 21
29.8786
 31
0.0
  0
LINE
  8
0
 62
     30
 10
39.8667
 20
29.8786
 30
0.0
 11
40.5433
 21
29.5562
 31
0.0
  0
LINE
  8
0
 62
     30
 10
40.5433
 20
29.5562
 30
0.0
 11
40.9649
 21
29.0353
 31
0.0
  0
LINE
  8
0
 62
     30
 10
40.9649
 20
29.0353
 30
0.0
 11
41.1057
 21
28.3325
 31
0.0
  0
LINE
  8
0
 62
     30
 10
41.1057
 20
28.3325
 30
0.0
 11
40.8189
 21
27.3568
 31
0.0
  0
LINE
  8
0
 62
     30
 10
40.8189
 20
27.3568
 30
0.0
 11
39.981
 21
26.9048
 31
0.0
  0
LINE
  8
0
 62
     30
 10
39.981
 20
26.9048
 30
0.0
 11
41.0175
 21
26.304
 31
0.0
  0
LINE
  8
0
 62
     30
 10
41.0175
 20
26.304
 30
0.0
 11
41.3865
 21
25.174
 31
0.0
  0
LINE
  8
0
 62
     30
 10
41.3865
 20
25.174
 30
0.0
 11
41.2337
 21
24.3775
 31
0.0
  0
LINE
  8
0
 62
     30
 10
41.2337
 20
24.3775
 30
0.0
 11
40.7748
 21
23.7849
 31
0.0
  0
LINE
  8
0
 62
     30
 10
40.7748
 20
23.7849
 30
0.0
 11
40.0375
 21
23.4211
 31
0.0
  0
LINE
  8
0
 62
     30
 10
40.0375
 20
23.4211
 30
0.0
 11
39.044
 21
23.2999
 31
0.0
  0
LINE
  8
0
 62
     30
 10
39.044
 20
23.2999
 30
0.0
 11
36.6406
 21
23.2999
 31
0.0
  0
LINE
  8
0
 62
     30
 10
36.6406
 20
23.2999
 30
0.0
 11
36.6406
 21
29.9861
 31
0.0
  0
LINE
  8
0
 62
     30
 10
43.7388
 20
26.4914
 30
0.0
 11
43.7388
 21
24.044
 31
0.0
  0
LINE
  8
0
 62
     30
 10
43.7388
 20
24.044
 30
0.0
 11
45.194
 21
24.044
 31
0.0
  0
LINE
  8
0
 62
     30
 10
45.194
 20
24.044
 30
0.0
 11
46.2746
 21
24.3472
 31
0.0
  0
LINE
  8
0
 62
     30
 10
46.2746
 20
24.3472
 30
0.0
 11
46.6273
 21
25.2732
 31
0.0
  0
LINE
  8
0
 62
     30
 10
46.6273
 20
25.2732
 30
0.0
 11
46.2746
 21
26.1938
 31
0.0
  0
LINE
  8
0
 62
     30
 10
46.2746
 20
26.1938
 30
0.0
 11
45.194
 21
26.4914
 31
0.0
  0
LINE
  8
0
 62
     30
 10
45.194
 20
26.4914
 30
0.0
 11
43.7388
 21
26.4914
 31
0.0
  0
LINE
  8
0
 62
     30
 10
43.7388
 20
29.242
 30
0.0
 11
43.7388
 21
27.23
 31
0.0
  0
LINE
  8
0
 62
     30
 10
43.7388
 20
27.23
 30
0.0
 11
45.0783
 21
27.23
 31
0.0
  0
LINE
  8
0
 62
     30
 10
45.0783
 20
27.23
 30
0.0
 11
46.065
 21
27.4781
 31
0.0
  0
LINE
  8
0
 62
     30
 10
46.065
 20
27.4781
 30
0.0
 11
46.3903
 21
28.2333
 31
0.0
  0
LINE
  8
0
 62
     30
 10
46.3903
 20
28.2333
 30
0.0
 11
46.065
 21
28.9884
 31
0.0
  0
LINE
  8
0
 62
     30
 10
46.065
 20
28.9884
 30
0.0
 11
45.0783
 21
29.242
 31
0.0
  0
LINE
  8
0
 62
     30
 10
45.0783
 20
29.242
 30
0.0
 11
43.7388
 21
29.242
 31
0.0
  0
LINE
  8
0
 62
     30
 10
42.835
 20
29.9861
 30
0.0
 11
45.1499
 21
29.9861
 31
0.0
  0
LINE
  8
0
 62
     30
 10
45.1499
 20
29.9861
 30
0.0
 11
46.0608
 21
29.8786
 31
0.0
  0
LINE
  8
0
 62
     30
 10
46.0608
 20
29.8786
 30
0.0
 11
46.7374
 21
29.5562
 31
0.0
  0
LINE
  8
0
 62
     30
 10
46.7374
 20
29.5562
 30
0.0
 11
47.1593
 21
29.0353
 31
0.0
  0
LINE
  8
0
 62
     30
 10
47.1593
 20
29.0353
 30
0.0
 11
47.2997
 21
28.3325
 31
0.0
  0
LINE
  8
0
 62
     30
 10
47.2997
 20
28.3325
 30
0.0
 11
47.0133
 21
27.3568
 31
0.0
  0
LINE
  8
0
 62
     30
 10
47.0133
 20
27.3568
 30
0.0
 11
46.1754
 21
26.9048
 31
0.0
  0
LINE
  8
0
 62
     30
 10
46.1754
 20
26.9048
 30
0.0
 11
47.2115
 21
26.304
 31
0.0
  0
LINE
  8
0
 62
     30
 10
47.2115
 20
26.304
 30
0.0
 11
47.5809
 21
25.174
 31
0.0
  0
LINE
  8
0
 62
     30
 10
47.5809
 20
25.174
 30
0.0
 11
47.4278
 21
24.3775
 31
0.0
  0
LINE
  8
0
 62
     30
 10
47.4278
 20
24.3775
 30
0.0
 11
46.9692
 21
23.7849
 31
0.0
  0
LINE
  8
0
 62
     30
 10
46.9692
 20
23.7849
 30
0.0
 11
46.2319
 21
23.4211
 31
0.0
  0
LINE
  8
0
 62
     30
 10
46.2319
 20
23.4211
 30
0.0
 11
45.2381
 21
23.2999
 31
0.0
  0
LINE
  8
0
 62
     30
 10
45.2381
 20
23.2999
 30
0.0
 11
42.835
 21
23.2999
 31
0.0
  0
LINE
  8
0
 62
     30
 10
42.835
 20
23.2999
 30
0.0
 11
42.835
 21
29.9861
 31
0.0
  0
LINE
  8
0
 62
     114
 10
107.236
 20
38.118
 30
0.0
 11
105.777
 21
37.8245
 31
0.0
  0
LINE
  8
0
 62
     114
 10
105.777
 20
37.8245
 30
0.0
 11
104.585
 21
37.0198
 31
0.0
  0
LINE
  8
0
 62
     114
 10
104.585
 20
37.0198
 30
0.0
 11
103.78
 21
35.8278
 31
0.0
  0
LINE
  8
0
 62
     114
 10
103.78
 20
35.8278
 30
0.0
 11
103.487
 21
34.3669
 31
0.0
  0
LINE
  8
0
 62
     114
 10
103.487
 20
34.3669
 30
0.0
 11
103.487
 21
26.8676
 31
0.0
  0
LINE
  8
0
 62
     114
 10
103.487
 20
26.8676
 30
0.0
 11
103.78
 21
25.4096
 31
0.0
  0
LINE
  8
0
 62
     114
 10
103.78
 20
25.4096
 30
0.0
 11
104.585
 21
24.2176
 31
0.0
  0
LINE
  8
0
 62
     114
 10
104.585
 20
24.2176
 30
0.0
 11
105.777
 21
23.4129
 31
0.0
  0
LINE
  8
0
 62
     114
 10
105.777
 20
23.4129
 30
0.0
 11
107.236
 21
23.118
 31
0.0
  0
LINE
  8
0
 62
     114
 10
107.236
 20
23.118
 30
0.0
 11
125.987
 21
23.118
 31
0.0
  0
LINE
  8
0
 62
     114
 10
125.987
 20
23.118
 30
0.0
 11
127.445
 21
23.4129
 31
0.0
  0
LINE
  8
0
 62
     114
 10
127.445
 20
23.4129
 30
0.0
 11
128.637
 21
24.2176
 31
0.0
  0
LINE
  8
0
 62
     114
 10
128.637
 20
24.2176
 30
0.0
 11
129.442
 21
25.4096
 31
0.0
  0
LINE
  8
0
 62
     114
 10
129.442
 20
25.4096
 30
0.0
 11
129.737
 21
26.8676
 31
0.0
  0
LINE
  8
0
 62
     114
 10
129.737
 20
26.8676
 30
0.0
 11
129.737
 21
34.3669
 31
0.0
  0
LINE
  8
0
 62
     114
 10
129.737
 20
34.3669
 30
0.0
 11
129.442
 21
35.8278
 31
0.0
  0
LINE
  8
0
 62
     114
 10
129.442
 20
35.8278
 30
0.0
 11
128.637
 21
37.0198
 31
0.0
  0
LINE
  8
0
 62
     114
 10
128.637
 20
37.0198
 30
0.0
 11
127.445
 21
37.8245
 31
0.0
  0
LINE
  8
0
 62
     114
 10
127.445
 20
37.8245
 30
0.0
 11
125.987
 21
38.118
 31
0.0
  0
LINE
  8
0
 62
     114
 10
125.987
 20
38.118
 30
0.0
 11
107.236
 21
38.118
 31
0.0
  0
LINE
  8
0
 62
     114
 10
122.236
 20
34.3697
 30
0.0
 11
123.694
 21
34.0761
 31
0.0
  0
LINE
  8
0
 62
     114
 10
123.694
 20
34.0761
 30
0.0
 11
124.888
 21
33.2714
 31
0.0
  0
LINE
  8
0
 62
     114
 10
124.888
 20
33.2714
 30
0.0
 11
125.691
 21
32.0794
 31
0.0
  0
LINE
  8
0
 62
     114
 10
125.691
 20
32.0794
 30
0.0
 11
125.987
 21
30.62
 31
0.0
  0
LINE
  8
0
 62
     114
 10
125.987
 20
30.62
 30
0.0
 11
125.691
 21
29.1621
 31
0.0
  0
LINE
  8
0
 62
     114
 10
125.691
 20
29.1621
 30
0.0
 11
124.888
 21
27.9701
 31
0.0
  0
LINE
  8
0
 62
     114
 10
124.888
 20
27.9701
 30
0.0
 11
123.694
 21
27.1653
 31
0.0
  0
LINE
  8
0
 62
     114
 10
123.694
 20
27.1653
 30
0.0
 11
122.236
 21
26.8704
 31
0.0
  0
LINE
  8
0
 62
     114
 10
122.236
 20
26.8704
 30
0.0
 11
120.777
 21
27.1653
 31
0.0
  0
LINE
  8
0
 62
     114
 10
120.777
 20
27.1653
 30
0.0
 11
119.585
 21
27.9701
 31
0.0
  0
LINE
  8
0
 62
     114
 10
119.585
 20
27.9701
 30
0.0
 11
118.78
 21
29.1621
 31
0.0
  0
LINE
  8
0
 62
     114
 10
118.78
 20
29.1621
 30
0.0
 11
118.486
 21
30.62
 31
0.0
  0
LINE
  8
0
 62
     114
 10
118.486
 20
30.62
 30
0.0
 11
118.78
 21
32.0794
 31
0.0
  0
LINE
  8
0
 62
     114
 10
118.78
 20
32.0794
 30
0.0
 11
119.585
 21
33.2714
 31
0.0
  0
LINE
  8
0
 62
     114
 10
119.585
 20
33.2714
 30
0.0
 11
120.777
 21
34.0761
 31
0.0
  0
LINE
  8
0
 62
     114
 10
120.777
 20
34.0761
 30
0.0
 11
122.236
 21
34.3697
 31
0.0
  0
LINE
  8
0
 62
     114
 10
110.987
 20
34.3697
 30
0.0
 11
112.445
 21
34.0761
 31
0.0
  0
LINE
  8
0
 62
     114
 10
112.445
 20
34.0761
 30
0.0
 11
113.637
 21
33.2714
 31
0.0
  0
LINE
  8
0
 62
     114
 10
113.637
 20
33.2714
 30
0.0
 11
114.442
 21
32.0794
 31
0.0
  0
LINE
  8
0
 62
     114
 10
114.442
 20
32.0794
 30
0.0
 11
114.737
 21
30.62
 31
0.0
  0
LINE
  8
0
 62
     114
 10
114.737
 20
30.62
 30
0.0
 11
114.442
 21
29.1621
 31
0.0
  0
LINE
  8
0
 62
     114
 10
114.442
 20
29.1621
 30
0.0
 11
113.637
 21
27.9701
 31
0.0
  0
LINE
  8
0
 62
     114
 10
113.637
 20
27.9701
 30
0.0
 11
112.445
 21
27.1653
 31
0.0
  0
LINE
  8
0
 62
     114
 10
112.445
 20
27.1653
 30
0.0
 11
110.987
 21
26.8704
 31
0.0
  0
LINE
  8
0
 62
     114
 10
110.987
 20
26.8704
 30
0.0
 11
109.527
 21
27.1653
 31
0.0
  0
LINE
  8
0
 62
     114
 10
109.527
 20
27.1653
 30
0.0
 11
108.335
 21
27.9701
 31
0.0
  0
LINE
  8
0
 62
     114
 10
108.335
 20
27.9701
 30
0.0
 11
107.53
 21
29.1621
 31
0.0
  0
LINE
  8
0
 62
     114
 10
107.53
 20
29.1621
 30
0.0
 11
107.236
 21
30.62
 31
0.0
  0
LINE
  8
0
 62
     114
 10
107.236
 20
30.62
 30
0.0
 11
107.53
 21
32.0794
 31
0.0
  0
LINE
  8
0
 62
     114
 10
107.53
 20
32.0794
 30
0.0
 11
108.335
 21
33.2714
 31
0.0
  0
LINE
  8
0
 62
     114
 10
108.335
 20
33.2714
 30
0.0
 11
109.527
 21
34.0761
 31
0.0
  0
LINE
  8
0
 62
     114
 10
109.527
 20
34.0761
 30
0.0
 11
110.987
 21
34.3697
 31
0.0
  0
LINE
  8
0
 62
     250
 10
19.6123
 20
16.6164
 30
0.0
 11
19.3752
 21
15.4492
 31
0.0
  0
LINE
  8
0
 62
     250
 10
19.3752
 20
15.4492
 30
0.0
 11
18.7331
 21
14.4956
 31
0.0
  0
LINE
  8
0
 62
     250
 10
18.7331
 20
14.4956
 30
0.0
 11
17.7794
 21
13.852
 31
0.0
  0
LINE
  8
0
 62
     250
 10
17.7794
 20
13.852
 30
0.0
 11
16.6122
 21
13.615
 31
0.0
  0
LINE
  8
0
 62
     250
 10
16.6122
 20
13.615
 30
0.0
 11
15.4437
 21
13.852
 31
0.0
  0
LINE
  8
0
 62
     250
 10
15.4437
 20
13.852
 30
0.0
 11
14.4901
 21
14.4956
 31
0.0
  0
LINE
  8
0
 62
     250
 10
14.4901
 20
14.4956
 30
0.0
 11
13.8465
 21
15.4492
 31
0.0
  0
LINE
  8
0
 62
     250
 10
13.8465
 20
15.4492
 30
0.0
 11
13.6122
 21
16.6164
 31
0.0
  0
LINE
  8
0
 62
     250
 10
13.6122
 20
16.6164
 30
0.0
 11
13.8465
 21
17.785
 31
0.0
  0
LINE
  8
0
 62
     250
 10
13.8465
 20
17.785
 30
0.0
 11
14.4901
 21
18.7386
 31
0.0
  0
LINE
  8
0
 62
     250
 10
14.4901
 20
18.7386
 30
0.0
 11
15.4437
 21
19.3807
 31
0.0
  0
LINE
  8
0
 62
     250
 10
15.4437
 20
19.3807
 30
0.0
 11
16.6122
 21
19.6164
 31
0.0
  0
LINE
  8
0
 62
     250
 10
16.6122
 20
19.6164
 30
0.0
 11
17.7794
 21
19.3807
 31
0.0
  0
LINE
  8
0
 62
     250
 10
17.7794
 20
19.3807
 30
0.0
 11
18.7331
 21
18.7386
 31
0.0
  0
LINE
  8
0
 62
     250
 10
18.7331
 20
18.7386
 30
0.0
 11
19.3752
 21
17.785
 31
0.0
  0
LINE
  8
0
 62
     250
 10
19.3752
 20
17.785
 30
0.0
 11
19.6123
 21
16.6164
 31
0.0
  0
LINE
  8
0
 62
     250
 10
153.111
 20
5.11665
 30
0.0
 11
153.111
 21
148.117
 31
0.0
  0
LINE
  8
0
 62
     250
 10
153.111
 20
148.117
 30
0.0
 11
153.009
 21
149.124
 31
0.0
  0
LINE
  8
0
 62
     250
 10
153.009
 20
149.124
 30
0.0
 11
152.717
 21
150.063
 31
0.0
  0
LINE
  8
0
 62
     250
 10
152.717
 20
150.063
 30
0.0
 11
152.257
 21
150.913
 31
0.0
  0
LINE
  8
0
 62
     250
 10
152.257
 20
150.913
 30
0.0
 11
151.646
 21
151.653
 31
0.0
  0
LINE
  8
0
 62
     250
 10
151.646
 20
151.653
 30
0.0
 11
150.905
 21
152.263
 31
0.0
  0
LINE
  8
0
 62
     250
 10
150.905
 20
152.263
 30
0.0
 11
150.056
 21
152.724
 31
0.0
  0
LINE
  8
0
 62
     250
 10
150.056
 20
152.724
 30
0.0
 11
149.117
 21
153.016
 31
0.0
  0
LINE
  8
0
 62
     250
 10
149.117
 20
153.016
 30
0.0
 11
148.11
 21
153.116
 31
0.0
  0
LINE
  8
0
 62
     250
 10
148.11
 20
153.116
 30
0.0
 11
5.11115
 21
153.116
 31
0.0
  0
LINE
  8
0
 62
     250
 10
5.11115
 20
153.116
 30
0.0
 11
4.10242
 21
153.016
 31
0.0
  0
LINE
  8
0
 62
     250
 10
4.10242
 20
153.016
 30
0.0
 11
3.16398
 21
152.724
 31
0.0
  0
LINE
  8
0
 62
     250
 10
3.16398
 20
152.724
 30
0.0
 11
2.3151
 21
152.263
 31
0.0
  0
LINE
  8
0
 62
     250
 10
2.3151
 20
152.263
 30
0.0
 11
1.5751
 21
151.653
 31
0.0
  0
LINE
  8
0
 62
     250
 10
1.5751
 20
151.653
 30
0.0
 11
0.963249
 21
150.913
 31
0.0
  0
LINE
  8
0
 62
     250
 10
0.963249
 20
150.913
 30
0.0
 11
0.502984
 21
150.063
 31
0.0
  0
LINE
  8
0
 62
     250
 10
0.502984
 20
150.063
 30
0.0
 11
0.21084
 21
149.124
 31
0.0
  0
LINE
  8
0
 62
     250
 10
0.21084
 20
149.124
 30
0.0
 11
0.110243
 21
148.117
 31
0.0
  0
LINE
  8
0
 62
     250
 10
0.110243
 20
148.117
 30
0.0
 11
0.110243
 21
5.11665
 31
0.0
  0
LINE
  8
0
 62
     250
 10
0.110243
 20
5.11665
 30
0.0
 11
0.21084
 21
4.1093
 31
0.0
  0
LINE
  8
0
 62
     250
 10
0.21084
 20
4.1093
 30
0.0
 11
0.502984
 21
3.17087
 31
0.0
  0
LINE
  8
0
 62
     250
 10
0.502984
 20
3.17087
 30
0.0
 11
0.963249
 21
2.32199
 31
0.0
  0
LINE
  8
0
 62
     250
 10
0.963249
 20
2.32199
 30
0.0
 11
1.5751
 21
1.58199
 31
0.0
  0
LINE
  8
0
 62
     250
 10
1.5751
 20
1.58199
 30
0.0
 11
2.3151
 21
0.971518
 31
0.0
  0
LINE
  8
0
 62
     250
 10
2.3151
 20
0.971518
 30
0.0
 11
3.16398
 21
0.511253
 31
0.0
  0
LINE
  8
0
 62
     250
 10
3.16398
 20
0.511253
 30
0.0
 11
4.10242
 21
0.219108
 31
0.0
  0
LINE
  8
0
 62
     250
 10
4.10242
 20
0.219108
 30
0.0
 11
5.11115
 21
0.117133
 31
0.0
  0
LINE
  8
0
 62
     250
 10
5.11115
 20
0.117133
 30
0.0
 11
148.11
 21
0.117133
 31
0.0
  0
LINE
  8
0
 62
     250
 10
148.11
 20
0.117133
 30
0.0
 11
149.117
 21
0.219108
 31
0.0
  0
LINE
  8
0
 62
     250
 10
149.117
 20
0.219108
 30
0.0
 11
150.056
 21
0.511253
 31
0.0
  0
LINE
  8
0
 62
     250
 10
150.056
 20
0.511253
 30
0.0
 11
150.905
 21
0.971518
 31
0.0
  0
LINE
  8
0
 62
     250
 10
150.905
 20
0.971518
 30
0.0
 11
151.646
 21
1.58199
 31
0.0
  0
LINE
  8
0
 62
     250
 10
151.646
 20
1.58199
 30
0.0
 11
152.257
 21
2.32199
 31
0.0
  0
LINE
  8
0
 62
     250
 10
152.257
 20
2.32199
 30
0.0
 11
152.717
 21
3.17087
 31
0.0
  0
LINE
  8
0
 62
     250
 10
152.717
 20
3.17087
 30
0.0
 11
153.009
 21
4.1093
 31
0.0
  0
LINE
  8
0
 62
     250
 10
153.009
 20
4.1093
 30
0.0
 11
153.111
 21
5.11665
 31
0.0
  0
LINE
  8
0
 62
     250
 10
139.61
 20
16.6164
 30
0.0
 11
139.375
 21
15.4492
 31
0.0
  0
LINE
  8
0
 62
     250
 10
139.375
 20
15.4492
 30
0.0
 11
138.731
 21
14.4956
 31
0.0
  0
LINE
  8
0
 62
     250
 10
138.731
 20
14.4956
 30
0.0
 11
137.778
 21
13.852
 31
0.0
  0
LINE
  8
0
 62
     250
 10
137.778
 20
13.852
 30
0.0
 11
136.61
 21
13.615
 31
0.0
  0
LINE
  8
0
 62
     250
 10
136.61
 20
13.615
 30
0.0
 11
135.442
 21
13.852
 31
0.0
  0
LINE
  8
0
 62
     250
 10
135.442
 20
13.852
 30
0.0
 11
134.488
 21
14.4956
 31
0.0
  0
LINE
  8
0
 62
     250
 10
134.488
 20
14.4956
 30
0.0
 11
133.846
 21
15.4492
 31
0.0
  0
LINE
  8
0
 62
     250
 10
133.846
 20
15.4492
 30
0.0
 11
133.61
 21
16.6164
 31
0.0
  0
LINE
  8
0
 62
     250
 10
133.61
 20
16.6164
 30
0.0
 11
133.846
 21
17.785
 31
0.0
  0
LINE
  8
0
 62
     250
 10
133.846
 20
17.785
 30
0.0
 11
134.488
 21
18.7386
 31
0.0
  0
LINE
  8
0
 62
     250
 10
134.488
 20
18.7386
 30
0.0
 11
135.442
 21
19.3807
 31
0.0
  0
LINE
  8
0
 62
     250
 10
135.442
 20
19.3807
 30
0.0
 11
136.61
 21
19.6164
 31
0.0
  0
LINE
  8
0
 62
     250
 10
136.61
 20
19.6164
 30
0.0
 11
137.778
 21
19.3807
 31
0.0
  0
LINE
  8
0
 62
     250
 10
137.778
 20
19.3807
 30
0.0
 11
138.731
 21
18.7386
 31
0.0
  0
LINE
  8
0
 62
     250
 10
138.731
 20
18.7386
 30
0.0
 11
139.375
 21
17.785
 31
0.0
  0
LINE
  8
0
 62
     250
 10
139.375
 20
17.785
 30
0.0
 11
139.61
 21
16.6164
 31
0.0
  0
LINE
  8
0
 62
     250
 10
19.6123
 20
136.617
 30
0.0
 11
19.3752
 21
135.45
 31
0.0
  0
LINE
  8
0
 62
     250
 10
19.3752
 20
135.45
 30
0.0
 11
18.7331
 21
134.497
 31
0.0
  0
LINE
  8
0
 62
     250
 10
18.7331
 20
134.497
 30
0.0
 11
17.7794
 21
133.853
 31
0.0
  0
LINE
  8
0
 62
     250
 10
17.7794
 20
133.853
 30
0.0
 11
16.6122
 21
133.617
 31
0.0
  0
LINE
  8
0
 62
     250
 10
16.6122
 20
133.617
 30
0.0
 11
15.4437
 21
133.853
 31
0.0
  0
LINE
  8
0
 62
     250
 10
15.4437
 20
133.853
 30
0.0
 11
14.4901
 21
134.497
 31
0.0
  0
LINE
  8
0
 62
     250
 10
14.4901
 20
134.497
 30
0.0
 11
13.8465
 21
135.45
 31
0.0
  0
LINE
  8
0
 62
     250
 10
13.8465
 20
135.45
 30
0.0
 11
13.6122
 21
136.617
 31
0.0
  0
LINE
  8
0
 62
     250
 10
13.6122
 20
136.617
 30
0.0
 11
13.8465
 21
137.786
 31
0.0
  0
LINE
  8
0
 62
     250
 10
13.8465
 20
137.786
 30
0.0
 11
14.4901
 21
138.739
 31
0.0
  0
LINE
  8
0
 62
     250
 10
14.4901
 20
138.739
 30
0.0
 11
15.4437
 21
139.382
 31
0.0
  0
LINE
  8
0
 62
     250
 10
15.4437
 20
139.382
 30
0.0
 11
16.6122
 21
139.617
 31
0.0
  0
LINE
  8
0
 62
     250
 10
16.6122
 20
139.617
 30
0.0
 11
17.7794
 21
139.382
 31
0.0
  0
LINE
  8
0
 62
     250
 10
17.7794
 20
139.382
 30
0.0
 11
18.7331
 21
138.739
 31
0.0
  0
LINE
  8
0
 62
     250
 10
18.7331
 20
138.739
 30
0.0
 11
19.3752
 21
137.786
 31
0.0
  0
LINE
  8
0
 62
     250
 10
19.3752
 20
137.786
 30
0.0
 11
19.6123
 21
136.617
 31
0.0
  0
LINE
  8
0
 62
     250
 10
138.611
 20
136.617
 30
0.0
 11
138.374
 21
135.45
 31
0.0
  0
LINE
  8
0
 62
     250
 10
138.374
 20
135.45
 30
0.0
 11
137.732
 21
134.497
 31
0.0
  0
LINE
  8
0
 62
     250
 10
137.732
 20
134.497
 30
0.0
 11
136.779
 21
133.853
 31
0.0
  0
LINE
  8
0
 62
     250
 10
136.779
 20
133.853
 30
0.0
 11
135.611
 21
133.617
 31
0.0
  0
LINE
  8
0
 62
     250
 10
135.611
 20
133.617
 30
0.0
 11
134.443
 21
133.853
 31
0.0
  0
LINE
  8
0
 62
     250
 10
134.443
 20
133.853
 30
0.0
 11
133.489
 21
134.497
 31
0.0
  0
LINE
  8
0
 62
     250
 10
133.489
 20
134.497
 30
0.0
 11
132.847
 21
135.45
 31
0.0
  0
LINE
  8
0
 62
     250
 10
132.847
 20
135.45
 30
0.0
 11
132.611
 21
136.617
 31
0.0
  0
LINE
  8
0
 62
     250
 10
132.611
 20
136.617
 30
0.0
 11
132.847
 21
137.786
 31
0.0
  0
LINE
  8
0
 62
     250
 10
132.847
 20
137.786
 30
0.0
 11
133.489
 21
138.739
 31
0.0
  0
LINE
  8
0
 62
     250
 10
133.489
 20
138.739
 30
0.0
 11
134.443
 21
139.382
 31
0.0
  0
LINE
  8
0
 62
     250
 10
134.443
 20
139.382
 30
0.0
 11
135.611
 21
139.617
 31
0.0
  0
LINE
  8
0
 62
     250
 10
135.611
 20
139.617
 30
0.0
 11
136.779
 21
139.382
 31
0.0
  0
LINE
  8
0
 62
     250
 10
136.779
 20
139.382
 30
0.0
 11
137.732
 21
138.739
 31
0.0
  0
LINE
  8
0
 62
     250
 10
137.732
 20
138.739
 30
0.0
 11
138.374
 21
137.786
 31
0.0
  0
LINE
  8
0
 62
     250
 10
138.374
 20
137.786
 30
0.0
 11
138.611
 21
136.617
 31
0.0
  0
LINE
  8
0
 62
     250
 10
145.011
 20
80.6168
 30
0.0
 11
145.011
 21
72.6172
 31
0.0
  0
LINE
  8
0
 62
     250
 10
145.011
 20
72.6172
 30
0.0
 11
148.211
 21
72.6172
 31
0.0
  0
LINE
  8
0
 62
     250
 10
148.211
 20
72.6172
 30
0.0
 11
148.211
 21
80.6168
 31
0.0
  0
LINE
  8
0
 62
     250
 10
148.211
 20
80.6168
 30
0.0
 11
145.011
 21
80.6168
 31
0.0
  0
LINE
  8
0
 62
     250
 10
5.01191
 20
80.6168
 30
0.0
 11
5.01191
 21
72.6172
 31
0.0
  0
LINE
  8
0
 62
     250
 10
5.01191
 20
72.6172
 30
0.0
 11
8.21171
 21
72.6172
 31
0.0
  0
LINE
  8
0
 62
     250
 10
8.21171
 20
72.6172
 30
0.0
 11
8.21171
 21
80.6168
 31
0.0
  0
LINE
  8
0
 62
     250
 10
8.21171
 20
80.6168
 30
0.0
 11
5.01191
 21
80.6168
 31
0.0
  0
LINE
  8
0
 62
     250
 10
72.6115
 20
8.21725
 30
0.0
 11
80.6111
 21
8.21725
 31
0.0
  0
LINE
  8
0
 62
     250
 10
80.6111
 20
8.21725
 30
0.0
 11
80.6111
 21
5.01745
 31
0.0
  0
LINE
  8
0
 62
     250
 10
80.6111
 20
5.01745
 30
0.0
 11
72.6115
 21
5.01745
 31
0.0
  0
LINE
  8
0
 62
     250
 10
72.6115
 20
5.01745
 30
0.0
 11
72.6115
 21
8.21725
 31
0.0
  0
LINE
  8
0
 62
     250
 10
117.612
 20
8.21725
 30
0.0
 11
125.612
 21
8.21725
 31
0.0
  0
LINE
  8
0
 62
     250
 10
125.612
 20
8.21725
 30
0.0
 11
125.612
 21
5.01745
 31
0.0
  0
LINE
  8
0
 62
     250
 10
125.612
 20
5.01745
 30
0.0
 11
117.612
 21
5.01745
 31
0.0
  0
LINE
  8
0
 62
     250
 10
117.612
 20
5.01745
 30
0.0
 11
117.612
 21
8.21725
 31
0.0
  0
LINE
  8
0
 62
     250
 10
27.6104
 20
8.21725
 30
0.0
 11
35.6112
 21
8.21725
 31
0.0
  0
LINE
  8
0
 62
     250
 10
35.6112
 20
8.21725
 30
0.0
 11
35.6112
 21
5.01745
 31
0.0
  0
LINE
  8
0
 62
     250
 10
35.6112
 20
5.01745
 30
0.0
 11
27.6104
 21
5.01745
 31
0.0
  0
LINE
  8
0
 62
     250
 10
27.6104
 20
5.01745
 30
0.0
 11
27.6104
 21
8.21725
 31
0.0
  0
LINE
  8
0
 62
     250
 10
72.6115
 20
148.216
 30
0.0
 11
80.6111
 21
148.216
 31
0.0
  0
LINE
  8
0
 62
     250
 10
80.6111
 20
148.216
 30
0.0
 11
80.6111
 21
145.016
 31
0.0
  0
LINE
  8
0
 62
     250
 10
80.6111
 20
145.016
 30
0.0
 11
72.6115
 21
145.016
 31
0.0
  0
LINE
  8
0
 62
     250
 10
72.6115
 20
145.016
 30
0.0
 11
72.6115
 21
148.216
 31
0.0
  0
LINE
  8
0
 62
     250
 10
117.612
 20
148.216
 30
0.0
 11
125.612
 21
148.216
 31
0.0
  0
LINE
  8
0
 62
     250
 10
125.612
 20
148.216
 30
0.0
 11
125.612
 21
145.016
 31
0.0
  0
LINE
  8
0
 62
     250
 10
125.612
 20
145.016
 30
0.0
 11
117.612
 21
145.016
 31
0.0
  0
LINE
  8
0
 62
     250
 10
117.612
 20
145.016
 30
0.0
 11
117.612
 21
148.216
 31
0.0
  0
LINE
  8
0
 62
     250
 10
27.6104
 20
148.216
 30
0.0
 11
35.6112
 21
148.216
 31
0.0
  0
LINE
  8
0
 62
     250
 10
35.6112
 20
148.216
 30
0.0
 11
35.6112
 21
145.016
 31
0.0
  0
LINE
  8
0
 62
     250
 10
35.6112
 20
145.016
 30
0.0
 11
27.6104
 21
145.016
 31
0.0
  0
LINE
  8
0
 62
     250
 10
27.6104
 20
145.016
 30
0.0
 11
27.6104
 21
148.216
 31
0.0
  0
LINE
  8
0
 62
     250
 10
145.011
 20
35.6168
 30
0.0
 11
145.011
 21
27.6173
 31
0.0
  0
LINE
  8
0
 62
     250
 10
145.011
 20
27.6173
 30
0.0
 11
148.211
 21
27.6173
 31
0.0
  0
LINE
  8
0
 62
     250
 10
148.211
 20
27.6173
 30
0.0
 11
148.211
 21
35.6168
 31
0.0
  0
LINE
  8
0
 62
     250
 10
148.211
 20
35.6168
 30
0.0
 11
145.011
 21
35.6168
 31
0.0
  0
LINE
  8
0
 62
     250
 10
145.011
 20
125.616
 30
0.0
 11
145.011
 21
117.617
 31
0.0
  0
LINE
  8
0
 62
     250
 10
145.011
 20
117.617
 30
0.0
 11
148.211
 21
117.617
 31
0.0
  0
LINE
  8
0
 62
     250
 10
148.211
 20
117.617
 30
0.0
 11
148.211
 21
125.616
 31
0.0
  0
LINE
  8
0
 62
     250
 10
148.211
 20
125.616
 30
0.0
 11
145.011
 21
125.616
 31
0.0
  0
LINE
  8
0
 62
     250
 10
5.01191
 20
125.616
 30
0.0
 11
5.01191
 21
117.617
 31
0.0
  0
LINE
  8
0
 62
     250
 10
5.01191
 20
117.617
 30
0.0
 11
8.21171
 21
117.617
 31
0.0
  0
LINE
  8
0
 62
     250
 10
8.21171
 20
117.617
 30
0.0
 11
8.21171
 21
125.616
 31
0.0
  0
LINE
  8
0
 62
     250
 10
8.21171
 20
125.616
 30
0.0
 11
5.01191
 21
125.616
 31
0.0
  0
LINE
  8
0
 62
     250
 10
5.01191
 20
35.6168
 30
0.0
 11
5.01191
 21
27.6173
 31
0.0
  0
LINE
  8
0
 62
     250
 10
5.01191
 20
27.6173
 30
0.0
 11
8.21171
 21
27.6173
 31
0.0
  0
LINE
  8
0
 62
     250
 10
8.21171
 20
27.6173
 30
0.0
 11
8.21171
 21
35.6168
 31
0.0
  0
LINE
  8
0
 62
     250
 10
8.21171
 20
35.6168
 30
0.0
 11
5.01191
 21
35.6168
 31
0.0
  0
LINE
  8
0
 62
     0
 10
61.8518
 20
42.6434
 30
0.0
 11
61.5692
 21
39.8445
 31
0.0
  0
LINE
  8
0
 62
     0
 10
61.5692
 20
39.8445
 30
0.0
 11
60.7603
 21
37.2375
 31
0.0
  0
LINE
  8
0
 62
     0
 10
60.7603
 20
37.2375
 30
0.0
 11
59.479
 21
34.8782
 31
0.0
  0
LINE
  8
0
 62
     0
 10
59.479
 20
34.8782
 30
0.0
 11
57.7839
 21
32.8221
 31
0.0
  0
LINE
  8
0
 62
     0
 10
57.7839
 20
32.8221
 30
0.0
 11
55.728
 21
31.1271
 31
0.0
  0
LINE
  8
0
 62
     0
 10
55.728
 20
31.1271
 30
0.0
 11
53.3686
 21
29.8456
 31
0.0
  0
LINE
  8
0
 62
     0
 10
53.3686
 20
29.8456
 30
0.0
 11
50.763
 21
29.0366
 31
0.0
  0
LINE
  8
0
 62
     0
 10
50.763
 20
29.0366
 30
0.0
 11
47.964
 21
28.7541
 31
0.0
  0
LINE
  8
0
 62
     0
 10
47.964
 20
28.7541
 30
0.0
 11
45.1637
 21
29.0366
 31
0.0
  0
LINE
  8
0
 62
     0
 10
45.1637
 20
29.0366
 30
0.0
 11
42.5566
 21
29.8456
 31
0.0
  0
LINE
  8
0
 62
     0
 10
42.5566
 20
29.8456
 30
0.0
 11
40.1973
 21
31.1271
 31
0.0
  0
LINE
  8
0
 62
     0
 10
40.1973
 20
31.1271
 30
0.0
 11
38.1413
 21
32.8221
 31
0.0
  0
LINE
  8
0
 62
     0
 10
38.1413
 20
32.8221
 30
0.0
 11
36.4465
 21
34.8782
 31
0.0
  0
LINE
  8
0
 62
     0
 10
36.4465
 20
34.8782
 30
0.0
 11
35.1648
 21
37.2375
 31
0.0
  0
LINE
  8
0
 62
     0
 10
35.1648
 20
37.2375
 30
0.0
 11
34.3559
 21
39.8445
 31
0.0
  0
LINE
  8
0
 62
     0
 10
34.3559
 20
39.8445
 30
0.0
 11
34.0747
 21
42.6434
 31
0.0
  0
LINE
  8
0
 62
     0
 10
34.0747
 20
42.6434
 30
0.0
 11
34.3559
 21
45.4434
 31
0.0
  0
LINE
  8
0
 62
     0
 10
34.3559
 20
45.4434
 30
0.0
 11
35.1648
 21
48.0494
 31
0.0
  0
LINE
  8
0
 62
     0
 10
35.1648
 20
48.0494
 30
0.0
 11
36.4465
 21
50.4088
 31
0.0
  0
LINE
  8
0
 62
     0
 10
36.4465
 20
50.4088
 30
0.0
 11
38.1413
 21
52.4648
 31
0.0
  0
LINE
  8
0
 62
     0
 10
38.1413
 20
52.4648
 30
0.0
 11
40.1973
 21
54.1595
 31
0.0
  0
LINE
  8
0
 62
     0
 10
40.1973
 20
54.1595
 30
0.0
 11
42.5566
 21
55.4411
 31
0.0
  0
LINE
  8
0
 62
     0
 10
42.5566
 20
55.4411
 30
0.0
 11
45.1637
 21
56.2501
 31
0.0
  0
LINE
  8
0
 62
     0
 10
45.1637
 20
56.2501
 30
0.0
 11
47.964
 21
56.5312
 31
0.0
  0
LINE
  8
0
 62
     0
 10
47.964
 20
56.5312
 30
0.0
 11
50.763
 21
56.2501
 31
0.0
  0
LINE
  8
0
 62
     0
 10
50.763
 20
56.2501
 30
0.0
 11
53.3686
 21
55.4411
 31
0.0
  0
LINE
  8
0
 62
     0
 10
53.3686
 20
55.4411
 30
0.0
 11
55.728
 21
54.1595
 31
0.0
  0
LINE
  8
0
 62
     0
 10
55.728
 20
54.1595
 30
0.0
 11
57.7839
 21
52.4648
 31
0.0
  0
LINE
  8
0
 62
     0
 10
57.7839
 20
52.4648
 30
0.0
 11
59.479
 21
50.4088
 31
0.0
  0
LINE
  8
0
 62
     0
 10
59.479
 20
50.4088
 30
0.0
 11
60.7603
 21
48.0494
 31
0.0
  0
LINE
  8
0
 62
     0
 10
60.7603
 20
48.0494
 30
0.0
 11
61.5692
 21
45.4434
 31
0.0
  0
LINE
  8
0
 62
     0
 10
61.5692
 20
45.4434
 30
0.0
 11
61.8518
 21
42.6434
 31
0.0
  0
LINE
  8
0
 62
     0
 10
119.146
 20
42.6434
 30
0.0
 11
118.864
 21
39.8445
 31
0.0
  0
LINE
  8
0
 62
     0
 10
118.864
 20
39.8445
 30
0.0
 11
118.055
 21
37.2375
 31
0.0
  0
LINE
  8
0
 62
     0
 10
118.055
 20
37.2375
 30
0.0
 11
116.774
 21
34.8782
 31
0.0
  0
LINE
  8
0
 62
     0
 10
116.774
 20
34.8782
 30
0.0
 11
115.079
 21
32.8221
 31
0.0
  0
LINE
  8
0
 62
     0
 10
115.079
 20
32.8221
 30
0.0
 11
113.023
 21
31.1271
 31
0.0
  0
LINE
  8
0
 62
     0
 10
113.023
 20
31.1271
 30
0.0
 11
110.663
 21
29.8456
 31
0.0
  0
LINE
  8
0
 62
     0
 10
110.663
 20
29.8456
 30
0.0
 11
108.058
 21
29.0366
 31
0.0
  0
LINE
  8
0
 62
     0
 10
108.058
 20
29.0366
 30
0.0
 11
105.259
 21
28.7541
 31
0.0
  0
LINE
  8
0
 62
     0
 10
105.259
 20
28.7541
 30
0.0
 11
102.459
 21
29.0366
 31
0.0
  0
LINE
  8
0
 62
     0
 10
102.459
 20
29.0366
 30
0.0
 11
99.8513
 21
29.8456
 31
0.0
  0
LINE
  8
0
 62
     0
 10
99.8513
 20
29.8456
 30
0.0
 11
97.4919
 21
31.1271
 31
0.0
  0
LINE
  8
0
 62
     0
 10
97.4919
 20
31.1271
 30
0.0
 11
95.4359
 21
32.8221
 31
0.0
  0
LINE
  8
0
 62
     0
 10
95.4359
 20
32.8221
 30
0.0
 11
93.7412
 21
34.8782
 31
0.0
  0
LINE
  8
0
 62
     0
 10
93.7412
 20
34.8782
 30
0.0
 11
92.4595
 21
37.2375
 31
0.0
  0
LINE
  8
0
 62
     0
 10
92.4595
 20
37.2375
 30
0.0
 11
91.6506
 21
39.8445
 31
0.0
  0
LINE
  8
0
 62
     0
 10
91.6506
 20
39.8445
 30
0.0
 11
91.3694
 21
42.6434
 31
0.0
  0
LINE
  8
0
 62
     0
 10
91.3694
 20
42.6434
 30
0.0
 11
91.6506
 21
45.4434
 31
0.0
  0
LINE
  8
0
 62
     0
 10
91.6506
 20
45.4434
 30
0.0
 11
92.4595
 21
48.0494
 31
0.0
  0
LINE
  8
0
 62
     0
 10
92.4595
 20
48.0494
 30
0.0
 11
93.7412
 21
50.4088
 31
0.0
  0
LINE
  8
0
 62
     0
 10
93.7412
 20
50.4088
 30
0.0
 11
95.4359
 21
52.4648
 31
0.0
  0
LINE
  8
0
 62
     0
 10
95.4359
 20
52.4648
 30
0.0
 11
97.4919
 21
54.1595
 31
0.0
  0
LINE
  8
0
 62
     0
 10
97.4919
 20
54.1595
 30
0.0
 11
99.8513
 21
55.4411
 31
0.0
  0
LINE
  8
0
 62
     0
 10
99.8513
 20
55.4411
 30
0.0
 11
102.459
 21
56.2501
 31
0.0
  0
LINE
  8
0
 62
     0
 10
102.459
 20
56.2501
 30
0.0
 11
105.259
 21
56.5312
 31
0.0
  0
LINE
  8
0
 62
     0
 10
105.259
 20
56.5312
 30
0.0
 11
108.058
 21
56.2501
 31
0.0
  0
LINE
  8
0
 62
     0
 10
108.058
 20
56.2501
 30
0.0
 11
110.663
 21
55.4411
 31
0.0
  0
LINE
  8
0
 62
     0
 10
110.663
 20
55.4411
 30
0.0
 11
113.023
 21
54.1595
 31
0.0
  0
LINE
  8
0
 62
     0
 10
113.023
 20
54.1595
 30
0.0
 11
115.079
 21
52.4648
 31
0.0
  0
LINE
  8
0
 62
     0
 10
115.079
 20
52.4648
 30
0.0
 11
116.774
 21
50.4088
 31
0.0
  0
LINE
  8
0
 62
     0
 10
116.774
 20
50.4088
 30
0.0
 11
118.055
 21
48.0494
 31
0.0
  0
LINE
  8
0
 62
     0
 10
118.055
 20
48.0494
 30
0.0
 11
118.864
 21
45.4434
 31
0.0
  0
LINE
  8
0
 62
     0
 10
118.864
 20
45.4434
 30
0.0
 11
119.146
 21
42.6434
 31
0.0
  0
LINE
  8
0
 62
     0
 10
68.2957
 20
87.4021
 30
0.0
 11
68.2046
 21
86.5036
 31
0.0
  0
LINE
  8
0
 62
     0
 10
68.2046
 20
86.5036
 30
0.0
 11
67.9443
 21
85.6657
 31
0.0
  0
LINE
  8
0
 62
     0
 10
67.9443
 20
85.6657
 30
0.0
 11
67.5322
 21
84.9066
 31
0.0
  0
LINE
  8
0
 62
     0
 10
67.5322
 20
84.9066
 30
0.0
 11
66.9879
 21
84.2465
 31
0.0
  0
LINE
  8
0
 62
     0
 10
66.9879
 20
84.2465
 30
0.0
 11
66.3279
 21
83.7008
 31
0.0
  0
LINE
  8
0
 62
     0
 10
66.3279
 20
83.7008
 30
0.0
 11
65.5683
 21
83.2887
 31
0.0
  0
LINE
  8
0
 62
     0
 10
65.5683
 20
83.2887
 30
0.0
 11
64.7305
 21
83.028
 31
0.0
  0
LINE
  8
0
 62
     0
 10
64.7305
 20
83.028
 30
0.0
 11
63.832
 21
82.9374
 31
0.0
  0
LINE
  8
0
 62
     0
 10
63.832
 20
82.9374
 30
0.0
 11
62.9324
 21
83.028
 31
0.0
  0
LINE
  8
0
 62
     0
 10
62.9324
 20
83.028
 30
0.0
 11
62.0945
 21
83.2887
 31
0.0
  0
LINE
  8
0
 62
     0
 10
62.0945
 20
83.2887
 30
0.0
 11
61.335
 21
83.7008
 31
0.0
  0
LINE
  8
0
 62
     0
 10
61.335
 20
83.7008
 30
0.0
 11
60.675
 21
84.2465
 31
0.0
  0
LINE
  8
0
 62
     0
 10
60.675
 20
84.2465
 30
0.0
 11
60.1292
 21
84.9066
 31
0.0
  0
LINE
  8
0
 62
     0
 10
60.1292
 20
84.9066
 30
0.0
 11
59.7172
 21
85.6657
 31
0.0
  0
LINE
  8
0
 62
     0
 10
59.7172
 20
85.6657
 30
0.0
 11
59.4568
 21
86.5036
 31
0.0
  0
LINE
  8
0
 62
     0
 10
59.4568
 20
86.5036
 30
0.0
 11
59.3672
 21
87.4021
 31
0.0
  0
LINE
  8
0
 62
     0
 10
59.3672
 20
87.4021
 30
0.0
 11
59.4568
 21
88.302
 31
0.0
  0
LINE
  8
0
 62
     0
 10
59.4568
 20
88.302
 30
0.0
 11
59.7172
 21
89.1399
 31
0.0
  0
LINE
  8
0
 62
     0
 10
59.7172
 20
89.1399
 30
0.0
 11
60.1292
 21
89.8991
 31
0.0
  0
LINE
  8
0
 62
     0
 10
60.1292
 20
89.8991
 30
0.0
 11
60.675
 21
90.5591
 31
0.0
  0
LINE
  8
0
 62
     0
 10
60.675
 20
90.5591
 30
0.0
 11
61.335
 21
91.1035
 31
0.0
  0
LINE
  8
0
 62
     0
 10
61.335
 20
91.1035
 30
0.0
 11
62.0945
 21
91.5155
 31
0.0
  0
LINE
  8
0
 62
     0
 10
62.0945
 20
91.5155
 30
0.0
 11
62.9324
 21
91.7758
 31
0.0
  0
LINE
  8
0
 62
     0
 10
62.9324
 20
91.7758
 30
0.0
 11
63.832
 21
91.8655
 31
0.0
  0
LINE
  8
0
 62
     0
 10
63.832
 20
91.8655
 30
0.0
 11
64.7305
 21
91.7758
 31
0.0
  0
LINE
  8
0
 62
     0
 10
64.7305
 20
91.7758
 30
0.0
 11
65.5683
 21
91.5155
 31
0.0
  0
LINE
  8
0
 62
     0
 10
65.5683
 20
91.5155
 30
0.0
 11
66.3279
 21
91.1035
 31
0.0
  0
LINE
  8
0
 62
     0
 10
66.3279
 20
91.1035
 30
0.0
 11
66.9879
 21
90.5591
 31
0.0
  0
LINE
  8
0
 62
     0
 10
66.9879
 20
90.5591
 30
0.0
 11
67.5322
 21
89.8991
 31
0.0
  0
LINE
  8
0
 62
     0
 10
67.5322
 20
89.8991
 30
0.0
 11
67.9443
 21
89.1399
 31
0.0
  0
LINE
  8
0
 62
     0
 10
67.9443
 20
89.1399
 30
0.0
 11
68.2046
 21
88.302
 31
0.0
  0
LINE
  8
0
 62
     0
 10
68.2046
 20
88.302
 30
0.0
 11
68.2957
 21
87.4021
 31
0.0
  0
LINE
  8
0
 62
     0
 10
42.7373
 20
87.4021
 30
0.0
 11
42.6462
 21
86.5036
 31
0.0
  0
LINE
  8
0
 62
     0
 10
42.6462
 20
86.5036
 30
0.0
 11
42.3855
 21
85.6657
 31
0.0
  0
LINE
  8
0
 62
     0
 10
42.3855
 20
85.6657
 30
0.0
 11
41.9735
 21
84.9066
 31
0.0
  0
LINE
  8
0
 62
     0
 10
41.9735
 20
84.9066
 30
0.0
 11
41.4295
 21
84.2465
 31
0.0
  0
LINE
  8
0
 62
     0
 10
41.4295
 20
84.2465
 30
0.0
 11
40.7691
 21
83.7008
 31
0.0
  0
LINE
  8
0
 62
     0
 10
40.7691
 20
83.7008
 30
0.0
 11
40.0099
 21
83.2887
 31
0.0
  0
LINE
  8
0
 62
     0
 10
40.0099
 20
83.2887
 30
0.0
 11
39.1721
 21
83.028
 31
0.0
  0
LINE
  8
0
 62
     0
 10
39.1721
 20
83.028
 30
0.0
 11
38.2736
 21
82.9374
 31
0.0
  0
LINE
  8
0
 62
     0
 10
38.2736
 20
82.9374
 30
0.0
 11
37.3736
 21
83.028
 31
0.0
  0
LINE
  8
0
 62
     0
 10
37.3736
 20
83.028
 30
0.0
 11
36.5358
 21
83.2887
 31
0.0
  0
LINE
  8
0
 62
     0
 10
36.5358
 20
83.2887
 30
0.0
 11
35.7766
 21
83.7008
 31
0.0
  0
LINE
  8
0
 62
     0
 10
35.7766
 20
83.7008
 30
0.0
 11
35.1166
 21
84.2465
 31
0.0
  0
LINE
  8
0
 62
     0
 10
35.1166
 20
84.2465
 30
0.0
 11
34.5722
 21
84.9066
 31
0.0
  0
LINE
  8
0
 62
     0
 10
34.5722
 20
84.9066
 30
0.0
 11
34.1602
 21
85.6657
 31
0.0
  0
LINE
  8
0
 62
     0
 10
34.1602
 20
85.6657
 30
0.0
 11
33.8998
 21
86.5036
 31
0.0
  0
LINE
  8
0
 62
     0
 10
33.8998
 20
86.5036
 30
0.0
 11
33.8102
 21
87.4021
 31
0.0
  0
LINE
  8
0
 62
     0
 10
33.8102
 20
87.4021
 30
0.0
 11
33.8998
 21
88.302
 31
0.0
  0
LINE
  8
0
 62
     0
 10
33.8998
 20
88.302
 30
0.0
 11
34.1602
 21
89.1399
 31
0.0
  0
LINE
  8
0
 62
     0
 10
34.1602
 20
89.1399
 30
0.0
 11
34.5722
 21
89.8991
 31
0.0
  0
LINE
  8
0
 62
     0
 10
34.5722
 20
89.8991
 30
0.0
 11
35.1166
 21
90.5591
 31
0.0
  0
LINE
  8
0
 62
     0
 10
35.1166
 20
90.5591
 30
0.0
 11
35.7766
 21
91.1035
 31
0.0
  0
LINE
  8
0
 62
     0
 10
35.7766
 20
91.1035
 30
0.0
 11
36.5358
 21
91.5155
 31
0.0
  0
LINE
  8
0
 62
     0
 10
36.5358
 20
91.5155
 30
0.0
 11
37.3736
 21
91.7758
 31
0.0
  0
LINE
  8
0
 62
     0
 10
37.3736
 20
91.7758
 30
0.0
 11
38.2736
 21
91.8655
 31
0.0
  0
LINE
  8
0
 62
     0
 10
38.2736
 20
91.8655
 30
0.0
 11
39.1721
 21
91.7758
 31
0.0
  0
LINE
  8
0
 62
     0
 10
39.1721
 20
91.7758
 30
0.0
 11
40.0099
 21
91.5155
 31
0.0
  0
LINE
  8
0
 62
     0
 10
40.0099
 20
91.5155
 30
0.0
 11
40.7691
 21
91.1035
 31
0.0
  0
LINE
  8
0
 62
     0
 10
40.7691
 20
91.1035
 30
0.0
 11
41.4295
 21
90.5591
 31
0.0
  0
LINE
  8
0
 62
     0
 10
41.4295
 20
90.5591
 30
0.0
 11
41.9735
 21
89.8991
 31
0.0
  0
LINE
  8
0
 62
     0
 10
41.9735
 20
89.8991
 30
0.0
 11
42.3855
 21
89.1399
 31
0.0
  0
LINE
  8
0
 62
     0
 10
42.3855
 20
89.1399
 30
0.0
 11
42.6462
 21
88.302
 31
0.0
  0
LINE
  8
0
 62
     0
 10
42.6462
 20
88.302
 30
0.0
 11
42.7373
 21
87.4021
 31
0.0
  0
LINE
  8
0
 62
     0
 10
119.412
 20
87.4021
 30
0.0
 11
119.321
 21
86.5036
 31
0.0
  0
LINE
  8
0
 62
     0
 10
119.321
 20
86.5036
 30
0.0
 11
119.061
 21
85.6657
 31
0.0
  0
LINE
  8
0
 62
     0
 10
119.061
 20
85.6657
 30
0.0
 11
118.649
 21
84.9066
 31
0.0
  0
LINE
  8
0
 62
     0
 10
118.649
 20
84.9066
 30
0.0
 11
118.103
 21
84.2465
 31
0.0
  0
LINE
  8
0
 62
     0
 10
118.103
 20
84.2465
 30
0.0
 11
117.443
 21
83.7008
 31
0.0
  0
LINE
  8
0
 62
     0
 10
117.443
 20
83.7008
 30
0.0
 11
116.684
 21
83.2887
 31
0.0
  0
LINE
  8
0
 62
     0
 10
116.684
 20
83.2887
 30
0.0
 11
115.846
 21
83.028
 31
0.0
  0
LINE
  8
0
 62
     0
 10
115.846
 20
83.028
 30
0.0
 11
114.948
 21
82.9374
 31
0.0
  0
LINE
  8
0
 62
     0
 10
114.948
 20
82.9374
 30
0.0
 11
114.048
 21
83.028
 31
0.0
  0
LINE
  8
0
 62
     0
 10
114.048
 20
83.028
 30
0.0
 11
113.21
 21
83.2887
 31
0.0
  0
LINE
  8
0
 62
     0
 10
113.21
 20
83.2887
 30
0.0
 11
112.451
 21
83.7008
 31
0.0
  0
LINE
  8
0
 62
     0
 10
112.451
 20
83.7008
 30
0.0
 11
111.791
 21
84.2465
 31
0.0
  0
LINE
  8
0
 62
     0
 10
111.791
 20
84.2465
 30
0.0
 11
111.246
 21
84.9066
 31
0.0
  0
LINE
  8
0
 62
     0
 10
111.246
 20
84.9066
 30
0.0
 11
110.834
 21
85.6657
 31
0.0
  0
LINE
  8
0
 62
     0
 10
110.834
 20
85.6657
 30
0.0
 11
110.574
 21
86.5036
 31
0.0
  0
LINE
  8
0
 62
     0
 10
110.574
 20
86.5036
 30
0.0
 11
110.484
 21
87.4021
 31
0.0
  0
LINE
  8
0
 62
     0
 10
110.484
 20
87.4021
 30
0.0
 11
110.574
 21
88.302
 31
0.0
  0
LINE
  8
0
 62
     0
 10
110.574
 20
88.302
 30
0.0
 11
110.834
 21
89.1399
 31
0.0
  0
LINE
  8
0
 62
     0
 10
110.834
 20
89.1399
 30
0.0
 11
111.246
 21
89.8991
 31
0.0
  0
LINE
  8
0
 62
     0
 10
111.246
 20
89.8991
 30
0.0
 11
111.791
 21
90.5591
 31
0.0
  0
LINE
  8
0
 62
     0
 10
111.791
 20
90.5591
 30
0.0
 11
112.451
 21
91.1035
 31
0.0
  0
LINE
  8
0
 62
     0
 10
112.451
 20
91.1035
 30
0.0
 11
113.21
 21
91.5155
 31
0.0
  0
LINE
  8
0
 62
     0
 10
113.21
 20
91.5155
 30
0.0
 11
114.048
 21
91.7758
 31
0.0
  0
LINE
  8
0
 62
     0
 10
114.048
 20
91.7758
 30
0.0
 11
114.948
 21
91.8655
 31
0.0
  0
LINE
  8
0
 62
     0
 10
114.948
 20
91.8655
 30
0.0
 11
115.846
 21
91.7758
 31
0.0
  0
LINE
  8
0
 62
     0
 10
115.846
 20
91.7758
 30
0.0
 11
116.684
 21
91.5155
 31
0.0
  0
LINE
  8
0
 62
     0
 10
116.684
 20
91.5155
 30
0.0
 11
117.443
 21
91.1035
 31
0.0
  0
LINE
  8
0
 62
     0
 10
117.443
 20
91.1035
 30
0.0
 11
118.103
 21
90.5591
 31
0.0
  0
LINE
  8
0
 62
     0
 10
118.103
 20
90.5591
 30
0.0
 11
118.649
 21
89.8991
 31
0.0
  0
LINE
  8
0
 62
     0
 10
118.649
 20
89.8991
 30
0.0
 11
119.061
 21
89.1399
 31
0.0
  0
LINE
  8
0
 62
     0
 10
119.061
 20
89.1399
 30
0.0
 11
119.321
 21
88.302
 31
0.0
  0
LINE
  8
0
 62
     0
 10
119.321
 20
88.302
 30
0.0
 11
119.412
 21
87.4021
 31
0.0
  0
LINE
  8
0
 62
     0
 10
93.8541
 20
87.4021
 30
0.0
 11
93.763
 21
86.5036
 31
0.0
  0
LINE
  8
0
 62
     0
 10
93.763
 20
86.5036
 30
0.0
 11
93.5027
 21
85.6657
 31
0.0
  0
LINE
  8
0
 62
     0
 10
93.5027
 20
85.6657
 30
0.0
 11
93.0906
 21
84.9066
 31
0.0
  0
LINE
  8
0
 62
     0
 10
93.0906
 20
84.9066
 30
0.0
 11
92.5463
 21
84.2465
 31
0.0
  0
LINE
  8
0
 62
     0
 10
92.5463
 20
84.2465
 30
0.0
 11
91.8849
 21
83.7008
 31
0.0
  0
LINE
  8
0
 62
     0
 10
91.8849
 20
83.7008
 30
0.0
 11
91.1271
 21
83.2887
 31
0.0
  0
LINE
  8
0
 62
     0
 10
91.1271
 20
83.2887
 30
0.0
 11
90.2892
 21
83.028
 31
0.0
  0
LINE
  8
0
 62
     0
 10
90.2892
 20
83.028
 30
0.0
 11
89.3893
 21
82.9374
 31
0.0
  0
LINE
  8
0
 62
     0
 10
89.3893
 20
82.9374
 30
0.0
 11
88.4894
 21
83.028
 31
0.0
  0
LINE
  8
0
 62
     0
 10
88.4894
 20
83.028
 30
0.0
 11
87.6515
 21
83.2887
 31
0.0
  0
LINE
  8
0
 62
     0
 10
87.6515
 20
83.2887
 30
0.0
 11
86.8923
 21
83.7008
 31
0.0
  0
LINE
  8
0
 62
     0
 10
86.8923
 20
83.7008
 30
0.0
 11
86.2323
 21
84.2465
 31
0.0
  0
LINE
  8
0
 62
     0
 10
86.2323
 20
84.2465
 30
0.0
 11
85.688
 21
84.9066
 31
0.0
  0
LINE
  8
0
 62
     0
 10
85.688
 20
84.9066
 30
0.0
 11
85.2759
 21
85.6657
 31
0.0
  0
LINE
  8
0
 62
     0
 10
85.2759
 20
85.6657
 30
0.0
 11
85.0152
 21
86.5036
 31
0.0
  0
LINE
  8
0
 62
     0
 10
85.0152
 20
86.5036
 30
0.0
 11
84.9256
 21
87.4021
 31
0.0
  0
LINE
  8
0
 62
     0
 10
84.9256
 20
87.4021
 30
0.0
 11
85.0152
 21
88.302
 31
0.0
  0
LINE
  8
0
 62
     0
 10
85.0152
 20
88.302
 30
0.0
 11
85.2759
 21
89.1399
 31
0.0
  0
LINE
  8
0
 62
     0
 10
85.2759
 20
89.1399
 30
0.0
 11
85.688
 21
89.8991
 31
0.0
  0
LINE
  8
0
 62
     0
 10
85.688
 20
89.8991
 30
0.0
 11
86.2323
 21
90.5591
 31
0.0
  0
LINE
  8
0
 62
     0
 10
86.2323
 20
90.5591
 30
0.0
 11
86.8923
 21
91.1035
 31
0.0
  0
LINE
  8
0
 62
     0
 10
86.8923
 20
91.1035
 30
0.0
 11
87.6515
 21
91.5155
 31
0.0
  0
LINE
  8
0
 62
     0
 10
87.6515
 20
91.5155
 30
0.0
 11
88.4894
 21
91.7758
 31
0.0
  0
LINE
  8
0
 62
     0
 10
88.4894
 20
91.7758
 30
0.0
 11
89.3893
 21
91.8655
 31
0.0
  0
LINE
  8
0
 62
     0
 10
89.3893
 20
91.8655
 30
0.0
 11
90.2892
 21
91.7758
 31
0.0
  0
LINE
  8
0
 62
     0
 10
90.2892
 20
91.7758
 30
0.0
 11
91.1271
 21
91.5155
 31
0.0
  0
LINE
  8
0
 62
     0
 10
91.1271
 20
91.5155
 30
0.0
 11
91.8849
 21
91.1035
 31
0.0
  0
LINE
  8
0
 62
     0
 10
91.8849
 20
91.1035
 30
0.0
 11
92.5463
 21
90.5591
 31
0.0
  0
LINE
  8
0
 62
     0
 10
92.5463
 20
90.5591
 30
0.0
 11
93.0906
 21
89.8991
 31
0.0
  0
LINE
  8
0
 62
     0
 10
93.0906
 20
89.8991
 30
0.0
 11
93.5027
 21
89.1399
 31
0.0
  0
LINE
  8
0
 62
     0
 10
93.5027
 20
89.1399
 30
0.0
 11
93.763
 21
88.302
 31
0.0
  0
LINE
  8
0
 62
     0
 10
93.763
 20
88.302
 30
0.0
 11
93.8541
 21
87.4021
 31
0.0
  0
LINE
  8
0
 62
     0
 10
126.748
 20
118.788
 30
0.0
 11
126.279
 21
116.472
 31
0.0
  0
LINE
  8
0
 62
     0
 10
126.279
 20
116.472
 30
0.0
 11
125.003
 21
114.58
 31
0.0
  0
LINE
  8
0
 62
     0
 10
125.003
 20
114.58
 30
0.0
 11
123.111
 21
113.305
 31
0.0
  0
LINE
  8
0
 62
     0
 10
123.111
 20
113.305
 30
0.0
 11
120.795
 21
112.837
 31
0.0
  0
LINE
  8
0
 62
     0
 10
120.795
 20
112.837
 30
0.0
 11
118.477
 21
113.305
 31
0.0
  0
LINE
  8
0
 62
     0
 10
118.477
 20
113.305
 30
0.0
 11
116.586
 21
114.58
 31
0.0
  0
LINE
  8
0
 62
     0
 10
116.586
 20
114.58
 30
0.0
 11
115.31
 21
116.472
 31
0.0
  0
LINE
  8
0
 62
     0
 10
115.31
 20
116.472
 30
0.0
 11
114.843
 21
118.788
 31
0.0
  0
LINE
  8
0
 62
     0
 10
114.843
 20
118.788
 30
0.0
 11
115.31
 21
121.106
 31
0.0
  0
LINE
  8
0
 62
     0
 10
115.31
 20
121.106
 30
0.0
 11
116.586
 21
122.997
 31
0.0
  0
LINE
  8
0
 62
     0
 10
116.586
 20
122.997
 30
0.0
 11
118.477
 21
124.273
 31
0.0
  0
LINE
  8
0
 62
     0
 10
118.477
 20
124.273
 30
0.0
 11
120.795
 21
124.74
 31
0.0
  0
LINE
  8
0
 62
     0
 10
120.795
 20
124.74
 30
0.0
 11
123.111
 21
124.273
 31
0.0
  0
LINE
  8
0
 62
     0
 10
123.111
 20
124.273
 30
0.0
 11
125.003
 21
122.997
 31
0.0
  0
LINE
  8
0
 62
     0
 10
125.003
 20
122.997
 30
0.0
 11
126.279
 21
121.106
 31
0.0
  0
LINE
  8
0
 62
     0
 10
126.279
 20
121.106
 30
0.0
 11
126.748
 21
118.788
 31
0.0
  0
LINE
  8
0
 62
     0
 10
30.2617
 20
118.788
 30
0.0
 11
30.0771
 21
117.881
 31
0.0
  0
LINE
  8
0
 62
     0
 10
30.0771
 20
117.881
 30
0.0
 11
29.5782
 21
117.14
 31
0.0
  0
LINE
  8
0
 62
     0
 10
29.5782
 20
117.14
 30
0.0
 11
28.8368
 21
116.641
 31
0.0
  0
LINE
  8
0
 62
     0
 10
28.8368
 20
116.641
 30
0.0
 11
27.9301
 21
116.457
 31
0.0
  0
LINE
  8
0
 62
     0
 10
27.9301
 20
116.457
 30
0.0
 11
27.022
 21
116.641
 31
0.0
  0
LINE
  8
0
 62
     0
 10
27.022
 20
116.641
 30
0.0
 11
26.2806
 21
117.14
 31
0.0
  0
LINE
  8
0
 62
     0
 10
26.2806
 20
117.14
 30
0.0
 11
25.7817
 21
117.881
 31
0.0
  0
LINE
  8
0
 62
     0
 10
25.7817
 20
117.881
 30
0.0
 11
25.5984
 21
118.788
 31
0.0
  0
LINE
  8
0
 62
     0
 10
25.5984
 20
118.788
 30
0.0
 11
25.7817
 21
119.696
 31
0.0
  0
LINE
  8
0
 62
     0
 10
25.7817
 20
119.696
 30
0.0
 11
26.2806
 21
120.438
 31
0.0
  0
LINE
  8
0
 62
     0
 10
26.2806
 20
120.438
 30
0.0
 11
27.022
 21
120.937
 31
0.0
  0
LINE
  8
0
 62
     0
 10
27.022
 20
120.937
 30
0.0
 11
27.9301
 21
121.12
 31
0.0
  0
LINE
  8
0
 62
     0
 10
27.9301
 20
121.12
 30
0.0
 11
28.8368
 21
120.937
 31
0.0
  0
LINE
  8
0
 62
     0
 10
28.8368
 20
120.937
 30
0.0
 11
29.5782
 21
120.438
 31
0.0
  0
LINE
  8
0
 62
     0
 10
29.5782
 20
120.438
 30
0.0
 11
30.0771
 21
119.696
 31
0.0
  0
LINE
  8
0
 62
     0
 10
30.0771
 20
119.696
 30
0.0
 11
30.2617
 21
118.788
 31
0.0
  0
LINE
  8
0
 62
     0
 10
48.1295
 20
118.788
 30
0.0
 11
47.9446
 21
117.881
 31
0.0
  0
LINE
  8
0
 62
     0
 10
47.9446
 20
117.881
 30
0.0
 11
47.4458
 21
117.14
 31
0.0
  0
LINE
  8
0
 62
     0
 10
47.4458
 20
117.14
 30
0.0
 11
46.7046
 21
116.641
 31
0.0
  0
LINE
  8
0
 62
     0
 10
46.7046
 20
116.641
 30
0.0
 11
45.7976
 21
116.457
 31
0.0
  0
LINE
  8
0
 62
     0
 10
45.7976
 20
116.457
 30
0.0
 11
44.8896
 21
116.641
 31
0.0
  0
LINE
  8
0
 62
     0
 10
44.8896
 20
116.641
 30
0.0
 11
44.1484
 21
117.14
 31
0.0
  0
LINE
  8
0
 62
     0
 10
44.1484
 20
117.14
 30
0.0
 11
43.6492
 21
117.881
 31
0.0
  0
LINE
  8
0
 62
     0
 10
43.6492
 20
117.881
 30
0.0
 11
43.4661
 21
118.788
 31
0.0
  0
LINE
  8
0
 62
     0
 10
43.4661
 20
118.788
 30
0.0
 11
43.6492
 21
119.696
 31
0.0
  0
LINE
  8
0
 62
     0
 10
43.6492
 20
119.696
 30
0.0
 11
44.1484
 21
120.438
 31
0.0
  0
LINE
  8
0
 62
     0
 10
44.1484
 20
120.438
 30
0.0
 11
44.8896
 21
120.937
 31
0.0
  0
LINE
  8
0
 62
     0
 10
44.8896
 20
120.937
 30
0.0
 11
45.7976
 21
121.12
 31
0.0
  0
LINE
  8
0
 62
     0
 10
45.7976
 20
121.12
 30
0.0
 11
46.7046
 21
120.937
 31
0.0
  0
LINE
  8
0
 62
     0
 10
46.7046
 20
120.937
 30
0.0
 11
47.4458
 21
120.438
 31
0.0
  0
LINE
  8
0
 62
     0
 10
47.4458
 20
120.438
 30
0.0
 11
47.9446
 21
119.696
 31
0.0
  0
LINE
  8
0
 62
     0
 10
47.9446
 20
119.696
 30
0.0
 11
48.1295
 21
118.788
 31
0.0
  0
LINE
  8
0
 62
     0
 10
65.997
 20
118.788
 30
0.0
 11
65.8125
 21
117.881
 31
0.0
  0
LINE
  8
0
 62
     0
 10
65.8125
 20
117.881
 30
0.0
 11
65.3136
 21
117.14
 31
0.0
  0
LINE
  8
0
 62
     0
 10
65.3136
 20
117.14
 30
0.0
 11
64.5721
 21
116.641
 31
0.0
  0
LINE
  8
0
 62
     0
 10
64.5721
 20
116.641
 30
0.0
 11
63.6655
 21
116.457
 31
0.0
  0
LINE
  8
0
 62
     0
 10
63.6655
 20
116.457
 30
0.0
 11
62.7574
 21
116.641
 31
0.0
  0
LINE
  8
0
 62
     0
 10
62.7574
 20
116.641
 30
0.0
 11
62.0159
 21
117.14
 31
0.0
  0
LINE
  8
0
 62
     0
 10
62.0159
 20
117.14
 30
0.0
 11
61.517
 21
117.881
 31
0.0
  0
LINE
  8
0
 62
     0
 10
61.517
 20
117.881
 30
0.0
 11
61.3336
 21
118.788
 31
0.0
  0
LINE
  8
0
 62
     0
 10
61.3336
 20
118.788
 30
0.0
 11
61.517
 21
119.696
 31
0.0
  0
LINE
  8
0
 62
     0
 10
61.517
 20
119.696
 30
0.0
 11
62.0159
 21
120.438
 31
0.0
  0
LINE
  8
0
 62
     0
 10
62.0159
 20
120.438
 30
0.0
 11
62.7574
 21
120.937
 31
0.0
  0
LINE
  8
0
 62
     0
 10
62.7574
 20
120.937
 30
0.0
 11
63.6655
 21
121.12
 31
0.0
  0
LINE
  8
0
 62
     0
 10
63.6655
 20
121.12
 30
0.0
 11
64.5721
 21
120.937
 31
0.0
  0
LINE
  8
0
 62
     0
 10
64.5721
 20
120.937
 30
0.0
 11
65.3136
 21
120.438
 31
0.0
  0
LINE
  8
0
 62
     0
 10
65.3136
 20
120.438
 30
0.0
 11
65.8125
 21
119.696
 31
0.0
  0
LINE
  8
0
 62
     0
 10
65.8125
 20
119.696
 30
0.0
 11
65.997
 21
118.788
 31
0.0
  0
LINE
  8
0
 62
     0
 10
83.8648
 20
118.788
 30
0.0
 11
83.6799
 21
117.881
 31
0.0
  0
LINE
  8
0
 62
     0
 10
83.6799
 20
117.881
 30
0.0
 11
83.1811
 21
117.14
 31
0.0
  0
LINE
  8
0
 62
     0
 10
83.1811
 20
117.14
 30
0.0
 11
82.4399
 21
116.641
 31
0.0
  0
LINE
  8
0
 62
     0
 10
82.4399
 20
116.641
 30
0.0
 11
81.5329
 21
116.457
 31
0.0
  0
LINE
  8
0
 62
     0
 10
81.5329
 20
116.457
 30
0.0
 11
80.6249
 21
116.641
 31
0.0
  0
LINE
  8
0
 62
     0
 10
80.6249
 20
116.641
 30
0.0
 11
79.8834
 21
117.14
 31
0.0
  0
LINE
  8
0
 62
     0
 10
79.8834
 20
117.14
 30
0.0
 11
79.3845
 21
117.881
 31
0.0
  0
LINE
  8
0
 62
     0
 10
79.3845
 20
117.881
 30
0.0
 11
79.2014
 21
118.788
 31
0.0
  0
LINE
  8
0
 62
     0
 10
79.2014
 20
118.788
 30
0.0
 11
79.3845
 21
119.696
 31
0.0
  0
LINE
  8
0
 62
     0
 10
79.3845
 20
119.696
 30
0.0
 11
79.8834
 21
120.438
 31
0.0
  0
LINE
  8
0
 62
     0
 10
79.8834
 20
120.438
 30
0.0
 11
80.6249
 21
120.937
 31
0.0
  0
LINE
  8
0
 62
     0
 10
80.6249
 20
120.937
 30
0.0
 11
81.5329
 21
121.12
 31
0.0
  0
LINE
  8
0
 62
     0
 10
81.5329
 20
121.12
 30
0.0
 11
82.4399
 21
120.937
 31
0.0
  0
LINE
  8
0
 62
     0
 10
82.4399
 20
120.937
 30
0.0
 11
83.1811
 21
120.438
 31
0.0
  0
LINE
  8
0
 62
     0
 10
83.1811
 20
120.438
 30
0.0
 11
83.6799
 21
119.696
 31
0.0
  0
LINE
  8
0
 62
     0
 10
83.6799
 20
119.696
 30
0.0
 11
83.8648
 21
118.788
 31
0.0
  0
LINE
  8
0
 62
     0
 10
101.732
 20
118.788
 30
0.0
 11
101.548
 21
117.881
 31
0.0
  0
LINE
  8
0
 62
     0
 10
101.548
 20
117.881
 30
0.0
 11
101.049
 21
117.14
 31
0.0
  0
LINE
  8
0
 62
     0
 10
101.049
 20
117.14
 30
0.0
 11
100.307
 21
116.641
 31
0.0
  0
LINE
  8
0
 62
     0
 10
100.307
 20
116.641
 30
0.0
 11
99.4008
 21
116.457
 31
0.0
  0
LINE
  8
0
 62
     0
 10
99.4008
 20
116.457
 30
0.0
 11
98.4924
 21
116.641
 31
0.0
  0
LINE
  8
0
 62
     0
 10
98.4924
 20
116.641
 30
0.0
 11
97.7512
 21
117.14
 31
0.0
  0
LINE
  8
0
 62
     0
 10
97.7512
 20
117.14
 30
0.0
 11
97.2524
 21
117.881
 31
0.0
  0
LINE
  8
0
 62
     0
 10
97.2524
 20
117.881
 30
0.0
 11
97.0689
 21
118.788
 31
0.0
  0
LINE
  8
0
 62
     0
 10
97.0689
 20
118.788
 30
0.0
 11
97.2524
 21
119.696
 31
0.0
  0
LINE
  8
0
 62
     0
 10
97.2524
 20
119.696
 30
0.0
 11
97.7512
 21
120.438
 31
0.0
  0
LINE
  8
0
 62
     0
 10
97.7512
 20
120.438
 30
0.0
 11
98.4924
 21
120.937
 31
0.0
  0
LINE
  8
0
 62
     0
 10
98.4924
 20
120.937
 30
0.0
 11
99.4008
 21
121.12
 31
0.0
  0
LINE
  8
0
 62
     0
 10
99.4008
 20
121.12
 30
0.0
 11
100.307
 21
120.937
 31
0.0
  0
LINE
  8
0
 62
     0
 10
100.307
 20
120.937
 30
0.0
 11
101.049
 21
120.438
 31
0.0
  0
LINE
  8
0
 62
     0
 10
101.049
 20
120.438
 30
0.0
 11
101.548
 21
119.696
 31
0.0
  0
LINE
  8
0
 62
     0
 10
101.548
 20
119.696
 30
0.0
 11
101.732
 21
118.788
 31
0.0
  0
ENDSEC
  0
EOF
