  0
SECTION
  2
BLOCKS
  0
ENDSEC
  0
SECTION
  2
ENTITIES
  0
LINE
  8
0
 10
-30
 11
-30
 20
-28
 21
28
  0
LINE
  8
0
 10
-30
 11
-29.848
 20
28
 21
28.765
  0
LINE
  8
0
 10
-29.848
 11
-29.414
 20
28.765
 21
29.414
  0
LINE
  8
0
 10
-29.414
 11
-28.765
 20
29.414
 21
29.848
  0
LINE
  8
0
 10
-28.765
 11
-28
 20
29.848
 21
30
  0
LINE
  8
0
 10
-28
 11
28
 20
30
 21
30
  0
LINE
  8
0
 10
28
 11
28.765
 20
30
 21
29.848
  0
LINE
  8
0
 10
28.765
 11
29.414
 20
29.848
 21
29.414
  0
LINE
  8
0
 10
29.414
 11
29.848
 20
29.414
 21
28.765
  0
LINE
  8
0
 10
29.848
 11
30
 20
28.765
 21
28
  0
LINE
  8
0
 10
30
 11
30
 20
28
 21
-28
  0
LINE
  8
0
 10
30
 11
29.848
 20
-28
 21
-28.765
  0
LINE
  8
0
 10
29.848
 11
29.414
 20
-28.765
 21
-29.414
  0
LINE
  8
0
 10
29.414
 11
28.765
 20
-29.414
 21
-29.848
  0
LINE
  8
0
 10
28.765
 11
28
 20
-29.848
 21
-30
  0
LINE
  8
0
 10
28
 11
28
 20
-30
 21
0
  0
LINE
  8
0
 10
28
 11
27.878
 20
0
 21
0.773
  0
LINE
  8
0
 10
27.878
 11
27.523
 20
0.773
 21
1.469
  0
LINE
  8
0
 10
27.523
 11
26.969
 20
1.469
 21
2.023
  0
LINE
  8
0
 10
26.969
 11
26.273
 20
2.023
 21
2.378
  0
LINE
  8
0
 10
26.273
 11
25.5
 20
2.378
 21
2.5
  0
LINE
  8
0
 10
25.5
 11
24.727
 20
2.5
 21
2.378
  0
LINE
  8
0
 10
24.727
 11
24.031
 20
2.378
 21
2.023
  0
LINE
  8
0
 10
24.031
 11
23.477
 20
2.023
 21
1.469
  0
LINE
  8
0
 10
23.477
 11
23.122
 20
1.469
 21
0.773
  0
LINE
  8
0
 10
23.122
 11
23
 20
0.773
 21
0
  0
LINE
  8
0
 10
23
 11
23
 20
0
 21
-30
  0
LINE
  8
0
 10
23
 11
20.057
 20
-30
 21
-30
  0
LINE
  8
0
 10
20.057
 11
20.156
 20
-30
 21
-29.788
  0
LINE
  8
0
 10
20.156
 11
20.787
 20
-29.788
 21
-27.431
  0
LINE
  8
0
 10
20.787
 11
21
 20
-27.431
 21
-25
  0
LINE
  8
0
 10
21
 11
21
 20
-25
 21
7
  0
LINE
  8
0
 10
21
 11
20.787
 20
7
 21
9.431
  0
LINE
  8
0
 10
20.787
 11
20.156
 20
9.431
 21
11.788
  0
LINE
  8
0
 10
20.156
 11
19.124
 20
11.788
 21
14
  0
LINE
  8
0
 10
19.124
 11
17.725
 20
14
 21
15.999
  0
LINE
  8
0
 10
17.725
 11
15.999
 20
15.999
 21
17.725
  0
LINE
  8
0
 10
15.999
 11
14
 20
17.725
 21
19.124
  0
LINE
  8
0
 10
14
 11
11.788
 20
19.124
 21
20.156
  0
LINE
  8
0
 10
11.788
 11
9.431
 20
20.156
 21
20.787
  0
LINE
  8
0
 10
9.431
 11
7
 20
20.787
 21
21
  0
LINE
  8
0
 10
7
 11
-7
 20
21
 21
21
  0
LINE
  8
0
 10
-7
 11
-9.431
 20
21
 21
20.787
  0
LINE
  8
0
 10
-9.431
 11
-11.788
 20
20.787
 21
20.156
  0
LINE
  8
0
 10
-11.788
 11
-14
 20
20.156
 21
19.124
  0
LINE
  8
0
 10
-14
 11
-15.999
 20
19.124
 21
17.725
  0
LINE
  8
0
 10
-15.999
 11
-17.725
 20
17.725
 21
15.999
  0
LINE
  8
0
 10
-17.725
 11
-19.124
 20
15.999
 21
14
  0
LINE
  8
0
 10
-19.124
 11
-20.156
 20
14
 21
11.788
  0
LINE
  8
0
 10
-20.156
 11
-20.787
 20
11.788
 21
9.431
  0
LINE
  8
0
 10
-20.787
 11
-21
 20
9.431
 21
7
  0
LINE
  8
0
 10
-21
 11
-21
 20
7
 21
-25
  0
LINE
  8
0
 10
-21
 11
-20.787
 20
-25
 21
-27.431
  0
LINE
  8
0
 10
-20.787
 11
-20.156
 20
-27.431
 21
-29.788
  0
LINE
  8
0
 10
-20.156
 11
-20.057
 20
-29.788
 21
-30
  0
LINE
  8
0
 10
-20.057
 11
-23
 20
-30
 21
-30
  0
LINE
  8
0
 10
-23
 11
-23
 20
-30
 21
0
  0
LINE
  8
0
 10
-23
 11
-23.122
 20
0
 21
0.773
  0
LINE
  8
0
 10
-23.122
 11
-23.477
 20
0.773
 21
1.469
  0
LINE
  8
0
 10
-23.477
 11
-24.031
 20
1.469
 21
2.023
  0
LINE
  8
0
 10
-24.031
 11
-24.727
 20
2.023
 21
2.378
  0
LINE
  8
0
 10
-24.727
 11
-25.5
 20
2.378
 21
2.5
  0
LINE
  8
0
 10
-25.5
 11
-26.273
 20
2.5
 21
2.378
  0
LINE
  8
0
 10
-26.273
 11
-26.969
 20
2.378
 21
2.023
  0
LINE
  8
0
 10
-26.969
 11
-27.523
 20
2.023
 21
1.469
  0
LINE
  8
0
 10
-27.523
 11
-27.878
 20
1.469
 21
0.773
  0
LINE
  8
0
 10
-27.878
 11
-28
 20
0.773
 21
0
  0
LINE
  8
0
 10
-28
 11
-28
 20
0
 21
-30
  0
LINE
  8
0
 10
-28
 11
-28.765
 20
-30
 21
-29.848
  0
LINE
  8
0
 10
-28.765
 11
-29.414
 20
-29.848
 21
-29.414
  0
LINE
  8
0
 10
-29.414
 11
-29.848
 20
-29.414
 21
-28.765
  0
LINE
  8
0
 10
-29.848
 11
-30
 20
-28.765
 21
-28
  0
LINE
  8
0
 10
-60
 11
-59.088
 20
0
 21
10.419
  0
LINE
  8
0
 10
-59.088
 11
-56.382
 20
10.419
 21
20.521
  0
LINE
  8
0
 10
-56.382
 11
-51.962
 20
20.521
 21
30
  0
LINE
  8
0
 10
-51.962
 11
-45.963
 20
30
 21
38.567
  0
LINE
  8
0
 10
-45.963
 11
-38.567
 20
38.567
 21
45.963
  0
LINE
  8
0
 10
-38.567
 11
-30
 20
45.963
 21
51.962
  0
LINE
  8
0
 10
-30
 11
-20.521
 20
51.962
 21
56.382
  0
LINE
  8
0
 10
-20.521
 11
-10.419
 20
56.382
 21
59.088
  0
LINE
  8
0
 10
-10.419
 11
0
 20
59.088
 21
60
  0
LINE
  8
0
 10
0
 11
10.419
 20
60
 21
59.088
  0
LINE
  8
0
 10
10.419
 11
20.521
 20
59.088
 21
56.382
  0
LINE
  8
0
 10
20.521
 11
30
 20
56.382
 21
51.962
  0
LINE
  8
0
 10
30
 11
38.567
 20
51.962
 21
45.963
  0
LINE
  8
0
 10
38.567
 11
45.963
 20
45.963
 21
38.567
  0
LINE
  8
0
 10
45.963
 11
51.962
 20
38.567
 21
30
  0
LINE
  8
0
 10
51.962
 11
56.382
 20
30
 21
20.521
  0
LINE
  8
0
 10
56.382
 11
59.088
 20
20.521
 21
10.419
  0
LINE
  8
0
 10
59.088
 11
60
 20
10.419
 21
0
  0
LINE
  8
0
 10
60
 11
59.088
 20
0
 21
-10.419
  0
LINE
  8
0
 10
59.088
 11
56.382
 20
-10.419
 21
-20.521
  0
LINE
  8
0
 10
56.382
 11
51.962
 20
-20.521
 21
-30
  0
LINE
  8
0
 10
51.962
 11
45.963
 20
-30
 21
-38.567
  0
LINE
  8
0
 10
45.963
 11
38.567
 20
-38.567
 21
-45.963
  0
LINE
  8
0
 10
38.567
 11
30
 20
-45.963
 21
-51.962
  0
LINE
  8
0
 10
30
 11
20.521
 20
-51.962
 21
-56.382
  0
LINE
  8
0
 10
20.521
 11
10.419
 20
-56.382
 21
-59.088
  0
LINE
  8
0
 10
10.419
 11
0
 20
-59.088
 21
-60
  0
LINE
  8
0
 10
0
 11
-10.419
 20
-60
 21
-59.088
  0
LINE
  8
0
 10
-10.419
 11
-20.521
 20
-59.088
 21
-56.382
  0
LINE
  8
0
 10
-20.521
 11
-30
 20
-56.382
 21
-51.962
  0
LINE
  8
0
 10
-30
 11
-38.567
 20
-51.962
 21
-45.963
  0
LINE
  8
0
 10
-38.567
 11
-45.963
 20
-45.963
 21
-38.567
  0
LINE
  8
0
 10
-45.963
 11
-51.962
 20
-38.567
 21
-30
  0
LINE
  8
0
 10
-51.962
 11
-56.382
 20
-30
 21
-20.521
  0
LINE
  8
0
 10
-56.382
 11
-59.088
 20
-20.521
 21
-10.419
  0
LINE
  8
0
 10
-59.088
 11
-60
 20
-10.419
 21
0
  0
LINE
  8
0
 10
-22.25
 11
-22.011
 20
-36
 21
-35.265
  0
LINE
  8
0
 10
-22.011
 11
-21.386
 20
-35.265
 21
-34.811
  0
LINE
  8
0
 10
-21.386
 11
-20.614
 20
-34.811
 21
-34.811
  0
LINE
  8
0
 10
-20.614
 11
-19.989
 20
-34.811
 21
-35.265
  0
LINE
  8
0
 10
-19.989
 11
-19.75
 20
-35.265
 21
-36
  0
LINE
  8
0
 10
-19.75
 11
-19.989
 20
-36
 21
-36.735
  0
LINE
  8
0
 10
-19.989
 11
-20.614
 20
-36.735
 21
-37.189
  0
LINE
  8
0
 10
-20.614
 11
-21.386
 20
-37.189
 21
-37.189
  0
LINE
  8
0
 10
-21.386
 11
-22.011
 20
-37.189
 21
-36.735
  0
LINE
  8
0
 10
-22.011
 11
-22.25
 20
-36.735
 21
-36
  0
LINE
  8
0
 10
-22.085
 11
-22.085
 20
36.4
 21
39.6
  0
LINE
  8
0
 10
-22.085
 11
22.085
 20
39.6
 21
39.6
  0
LINE
  8
0
 10
22.085
 11
22.085
 20
39.6
 21
36.4
  0
LINE
  8
0
 10
22.085
 11
-22.085
 20
36.4
 21
36.4
  0
LINE
  8
0
 10
-12.5
 11
-12.31
 20
0
 21
2.171
  0
LINE
  8
0
 10
-12.31
 11
-11.746
 20
2.171
 21
4.275
  0
LINE
  8
0
 10
-11.746
 11
-10.825
 20
4.275
 21
6.25
  0
LINE
  8
0
 10
-10.825
 11
-9.576
 20
6.25
 21
8.035
  0
LINE
  8
0
 10
-9.576
 11
-8.035
 20
8.035
 21
9.576
  0
LINE
  8
0
 10
-8.035
 11
-6.25
 20
9.576
 21
10.825
  0
LINE
  8
0
 10
-6.25
 11
-4.275
 20
10.825
 21
11.746
  0
LINE
  8
0
 10
-4.275
 11
-2.171
 20
11.746
 21
12.31
  0
LINE
  8
0
 10
-2.171
 11
0
 20
12.31
 21
12.5
  0
LINE
  8
0
 10
0
 11
2.171
 20
12.5
 21
12.31
  0
LINE
  8
0
 10
2.171
 11
4.275
 20
12.31
 21
11.746
  0
LINE
  8
0
 10
4.275
 11
6.25
 20
11.746
 21
10.825
  0
LINE
  8
0
 10
6.25
 11
8.035
 20
10.825
 21
9.576
  0
LINE
  8
0
 10
8.035
 11
9.576
 20
9.576
 21
8.035
  0
LINE
  8
0
 10
9.576
 11
10.825
 20
8.035
 21
6.25
  0
LINE
  8
0
 10
10.825
 11
11.746
 20
6.25
 21
4.275
  0
LINE
  8
0
 10
11.746
 11
12.31
 20
4.275
 21
2.171
  0
LINE
  8
0
 10
12.31
 11
12.5
 20
2.171
 21
0
  0
LINE
  8
0
 10
12.5
 11
12.31
 20
0
 21
-2.171
  0
LINE
  8
0
 10
12.31
 11
11.746
 20
-2.171
 21
-4.275
  0
LINE
  8
0
 10
11.746
 11
10.825
 20
-4.275
 21
-6.25
  0
LINE
  8
0
 10
10.825
 11
9.576
 20
-6.25
 21
-8.035
  0
LINE
  8
0
 10
9.576
 11
8.035
 20
-8.035
 21
-9.576
  0
LINE
  8
0
 10
8.035
 11
6.25
 20
-9.576
 21
-10.825
  0
LINE
  8
0
 10
6.25
 11
4.275
 20
-10.825
 21
-11.746
  0
LINE
  8
0
 10
4.275
 11
2.171
 20
-11.746
 21
-12.31
  0
LINE
  8
0
 10
2.171
 11
0
 20
-12.31
 21
-12.5
  0
LINE
  8
0
 10
0
 11
-2.171
 20
-12.5
 21
-12.31
  0
LINE
  8
0
 10
-2.171
 11
-4.275
 20
-12.31
 21
-11.746
  0
LINE
  8
0
 10
-4.275
 11
-6.25
 20
-11.746
 21
-10.825
  0
LINE
  8
0
 10
-6.25
 11
-8.035
 20
-10.825
 21
-9.576
  0
LINE
  8
0
 10
-8.035
 11
-9.576
 20
-9.576
 21
-8.035
  0
LINE
  8
0
 10
-9.576
 11
-10.825
 20
-8.035
 21
-6.25
  0
LINE
  8
0
 10
-10.825
 11
-11.746
 20
-6.25
 21
-4.275
  0
LINE
  8
0
 10
-11.746
 11
-12.31
 20
-4.275
 21
-2.171
  0
LINE
  8
0
 10
-12.31
 11
-12.5
 20
-2.171
 21
0
  0
LINE
  8
0
 10
19.75
 11
19.989
 20
-36
 21
-35.265
  0
LINE
  8
0
 10
19.989
 11
20.614
 20
-35.265
 21
-34.811
  0
LINE
  8
0
 10
20.614
 11
21.386
 20
-34.811
 21
-34.811
  0
LINE
  8
0
 10
21.386
 11
22.011
 20
-34.811
 21
-35.265
  0
LINE
  8
0
 10
22.011
 11
22.25
 20
-35.265
 21
-36
  0
LINE
  8
0
 10
22.25
 11
22.011
 20
-36
 21
-36.735
  0
LINE
  8
0
 10
22.011
 11
21.386
 20
-36.735
 21
-37.189
  0
LINE
  8
0
 10
21.386
 11
20.614
 20
-37.189
 21
-37.189
  0
LINE
  8
0
 10
20.614
 11
19.989
 20
-37.189
 21
-36.735
  0
LINE
  8
0
 10
19.989
 11
19.75
 20
-36.735
 21
-36
  0
ENDSEC
  0
SECTION
  2
OBJECTS
  0
DICTIONARY
  0
ENDSEC
  0
EOF
