  0
SECTION
  2
BLOCKS
  0
ENDSEC
  0
SECTION
  2
ENTITIES
  0
LINE
  8
0
 10
-28
 11
-28
 20
-12.5
 21
25.5
  0
LINE
  8
0
 10
-28
 11
-27.848
 20
25.5
 21
26.265
  0
LINE
  8
0
 10
-27.848
 11
-27.414
 20
26.265
 21
26.914
  0
LINE
  8
0
 10
-27.414
 11
-26.765
 20
26.914
 21
27.348
  0
LINE
  8
0
 10
-26.765
 11
-26
 20
27.348
 21
27.5
  0
LINE
  8
0
 10
-26
 11
26
 20
27.5
 21
27.5
  0
LINE
  8
0
 10
26
 11
26.765
 20
27.5
 21
27.348
  0
LINE
  8
0
 10
26.765
 11
27.414
 20
27.348
 21
26.914
  0
LINE
  8
0
 10
27.414
 11
27.848
 20
26.914
 21
26.265
  0
LINE
  8
0
 10
27.848
 11
28
 20
26.265
 21
25.5
  0
LINE
  8
0
 10
28
 11
28
 20
25.5
 21
-12.5
  0
LINE
  8
0
 10
28
 11
27.848
 20
-12.5
 21
-13.265
  0
LINE
  8
0
 10
27.848
 11
27.414
 20
-13.265
 21
-13.914
  0
LINE
  8
0
 10
27.414
 11
26.765
 20
-13.914
 21
-14.348
  0
LINE
  8
0
 10
26.765
 11
26
 20
-14.348
 21
-14.5
  0
LINE
  8
0
 10
26
 11
23
 20
-14.5
 21
-14.5
  0
LINE
  8
0
 10
23
 11
23
 20
-14.5
 21
9
  0
LINE
  8
0
 10
23
 11
22.787
 20
9
 21
11.431
  0
LINE
  8
0
 10
22.787
 11
22.156
 20
11.431
 21
13.788
  0
LINE
  8
0
 10
22.156
 11
21.124
 20
13.788
 21
16
  0
LINE
  8
0
 10
21.124
 11
19.725
 20
16
 21
17.999
  0
LINE
  8
0
 10
19.725
 11
17.999
 20
17.999
 21
19.725
  0
LINE
  8
0
 10
17.999
 11
16
 20
19.725
 21
21.124
  0
LINE
  8
0
 10
16
 11
13.788
 20
21.124
 21
22.156
  0
LINE
  8
0
 10
13.788
 11
11.431
 20
22.156
 21
22.787
  0
LINE
  8
0
 10
11.431
 11
9
 20
22.787
 21
23
  0
LINE
  8
0
 10
9
 11
-9
 20
23
 21
23
  0
LINE
  8
0
 10
-9
 11
-11.431
 20
23
 21
22.787
  0
LINE
  8
0
 10
-11.431
 11
-13.788
 20
22.787
 21
22.156
  0
LINE
  8
0
 10
-13.788
 11
-16
 20
22.156
 21
21.124
  0
LINE
  8
0
 10
-16
 11
-17.999
 20
21.124
 21
19.725
  0
LINE
  8
0
 10
-17.999
 11
-19.725
 20
19.725
 21
17.999
  0
LINE
  8
0
 10
-19.725
 11
-21.124
 20
17.999
 21
16
  0
LINE
  8
0
 10
-21.124
 11
-22.156
 20
16
 21
13.788
  0
LINE
  8
0
 10
-22.156
 11
-22.787
 20
13.788
 21
11.431
  0
LINE
  8
0
 10
-22.787
 11
-23
 20
11.431
 21
9
  0
LINE
  8
0
 10
-23
 11
-23
 20
9
 21
-14.5
  0
LINE
  8
0
 10
-23
 11
-26
 20
-14.5
 21
-14.5
  0
LINE
  8
0
 10
-26
 11
-26.765
 20
-14.5
 21
-14.348
  0
LINE
  8
0
 10
-26.765
 11
-27.414
 20
-14.348
 21
-13.914
  0
LINE
  8
0
 10
-27.414
 11
-27.848
 20
-13.914
 21
-13.265
  0
LINE
  8
0
 10
-27.848
 11
-28
 20
-13.265
 21
-12.5
  0
ENDSEC
  0
SECTION
  2
OBJECTS
  0
DICTIONARY
  0
ENDSEC
  0
EOF
