  0
SECTION
  2
BLOCKS
  0
ENDSEC
  0
SECTION
  2
ENTITIES
  0
LINE
  8
0
 10
-20
 11
-19.696
 20
0
 21
3.473
  0
LINE
  8
0
 10
-19.696
 11
-18.794
 20
3.473
 21
6.84
  0
LINE
  8
0
 10
-18.794
 11
-17.321
 20
6.84
 21
10
  0
LINE
  8
0
 10
-17.321
 11
-15.321
 20
10
 21
12.856
  0
LINE
  8
0
 10
-15.321
 11
-12.856
 20
12.856
 21
15.321
  0
LINE
  8
0
 10
-12.856
 11
-10
 20
15.321
 21
17.321
  0
LINE
  8
0
 10
-10
 11
-6.84
 20
17.321
 21
18.794
  0
LINE
  8
0
 10
-6.84
 11
-3.473
 20
18.794
 21
19.696
  0
LINE
  8
0
 10
-3.473
 11
0
 20
19.696
 21
20
  0
LINE
  8
0
 10
0
 11
3.473
 20
20
 21
19.696
  0
LINE
  8
0
 10
3.473
 11
6.84
 20
19.696
 21
18.794
  0
LINE
  8
0
 10
6.84
 11
10
 20
18.794
 21
17.321
  0
LINE
  8
0
 10
10
 11
12.856
 20
17.321
 21
15.321
  0
LINE
  8
0
 10
12.856
 11
15.321
 20
15.321
 21
12.856
  0
LINE
  8
0
 10
15.321
 11
17.321
 20
12.856
 21
10
  0
LINE
  8
0
 10
17.321
 11
18.794
 20
10
 21
6.84
  0
LINE
  8
0
 10
18.794
 11
19.696
 20
6.84
 21
3.473
  0
LINE
  8
0
 10
19.696
 11
20
 20
3.473
 21
0
  0
LINE
  8
0
 10
20
 11
19.696
 20
0
 21
-3.473
  0
LINE
  8
0
 10
19.696
 11
18.794
 20
-3.473
 21
-6.84
  0
LINE
  8
0
 10
18.794
 11
17.321
 20
-6.84
 21
-10
  0
LINE
  8
0
 10
17.321
 11
15.321
 20
-10
 21
-12.856
  0
LINE
  8
0
 10
15.321
 11
12.856
 20
-12.856
 21
-15.321
  0
LINE
  8
0
 10
12.856
 11
10
 20
-15.321
 21
-17.321
  0
LINE
  8
0
 10
10
 11
6.84
 20
-17.321
 21
-18.794
  0
LINE
  8
0
 10
6.84
 11
3.473
 20
-18.794
 21
-19.696
  0
LINE
  8
0
 10
3.473
 11
0
 20
-19.696
 21
-20
  0
LINE
  8
0
 10
0
 11
-3.473
 20
-20
 21
-19.696
  0
LINE
  8
0
 10
-3.473
 11
-6.84
 20
-19.696
 21
-18.794
  0
LINE
  8
0
 10
-6.84
 11
-10
 20
-18.794
 21
-17.321
  0
LINE
  8
0
 10
-10
 11
-12.856
 20
-17.321
 21
-15.321
  0
LINE
  8
0
 10
-12.856
 11
-15.321
 20
-15.321
 21
-12.856
  0
LINE
  8
0
 10
-15.321
 11
-17.321
 20
-12.856
 21
-10
  0
LINE
  8
0
 10
-17.321
 11
-18.794
 20
-10
 21
-6.84
  0
LINE
  8
0
 10
-18.794
 11
-19.696
 20
-6.84
 21
-3.473
  0
LINE
  8
0
 10
-19.696
 11
-20
 20
-3.473
 21
0
  0
LINE
  8
0
 10
-15.2
 11
-14.969
 20
0
 21
2.639
  0
LINE
  8
0
 10
-14.969
 11
-14.283
 20
2.639
 21
5.199
  0
LINE
  8
0
 10
-14.283
 11
-13.164
 20
5.199
 21
7.6
  0
LINE
  8
0
 10
-13.164
 11
-11.644
 20
7.6
 21
9.77
  0
LINE
  8
0
 10
-11.644
 11
-9.77
 20
9.77
 21
11.644
  0
LINE
  8
0
 10
-9.77
 11
-7.6
 20
11.644
 21
13.164
  0
LINE
  8
0
 10
-7.6
 11
-5.199
 20
13.164
 21
14.283
  0
LINE
  8
0
 10
-5.199
 11
-2.639
 20
14.283
 21
14.969
  0
LINE
  8
0
 10
-2.639
 11
0
 20
14.969
 21
15.2
  0
LINE
  8
0
 10
0
 11
2.639
 20
15.2
 21
14.969
  0
LINE
  8
0
 10
2.639
 11
5.199
 20
14.969
 21
14.283
  0
LINE
  8
0
 10
5.199
 11
7.6
 20
14.283
 21
13.164
  0
LINE
  8
0
 10
7.6
 11
9.77
 20
13.164
 21
11.644
  0
LINE
  8
0
 10
9.77
 11
11.644
 20
11.644
 21
9.77
  0
LINE
  8
0
 10
11.644
 11
13.164
 20
9.77
 21
7.6
  0
LINE
  8
0
 10
13.164
 11
14.283
 20
7.6
 21
5.199
  0
LINE
  8
0
 10
14.283
 11
14.969
 20
5.199
 21
2.639
  0
LINE
  8
0
 10
14.969
 11
15.2
 20
2.639
 21
0
  0
LINE
  8
0
 10
15.2
 11
14.969
 20
0
 21
-2.639
  0
LINE
  8
0
 10
14.969
 11
14.283
 20
-2.639
 21
-5.199
  0
LINE
  8
0
 10
14.283
 11
13.164
 20
-5.199
 21
-7.6
  0
LINE
  8
0
 10
13.164
 11
11.644
 20
-7.6
 21
-9.77
  0
LINE
  8
0
 10
11.644
 11
9.77
 20
-9.77
 21
-11.644
  0
LINE
  8
0
 10
9.77
 11
7.6
 20
-11.644
 21
-13.164
  0
LINE
  8
0
 10
7.6
 11
5.199
 20
-13.164
 21
-14.283
  0
LINE
  8
0
 10
5.199
 11
2.639
 20
-14.283
 21
-14.969
  0
LINE
  8
0
 10
2.639
 11
0
 20
-14.969
 21
-15.2
  0
LINE
  8
0
 10
0
 11
-2.639
 20
-15.2
 21
-14.969
  0
LINE
  8
0
 10
-2.639
 11
-5.199
 20
-14.969
 21
-14.283
  0
LINE
  8
0
 10
-5.199
 11
-7.6
 20
-14.283
 21
-13.164
  0
LINE
  8
0
 10
-7.6
 11
-9.77
 20
-13.164
 21
-11.644
  0
LINE
  8
0
 10
-9.77
 11
-11.644
 20
-11.644
 21
-9.77
  0
LINE
  8
0
 10
-11.644
 11
-13.164
 20
-9.77
 21
-7.6
  0
LINE
  8
0
 10
-13.164
 11
-14.283
 20
-7.6
 21
-5.199
  0
LINE
  8
0
 10
-14.283
 11
-14.969
 20
-5.199
 21
-2.639
  0
LINE
  8
0
 10
-14.969
 11
-15.2
 20
-2.639
 21
0
  0
ENDSEC
  0
SECTION
  2
OBJECTS
  0
DICTIONARY
  0
ENDSEC
  0
EOF
