  0
SECTION
  2
BLOCKS
  0
ENDSEC
  0
SECTION
  2
ENTITIES
  0
LINE
  8
0
 10
-59.8
 11
-59.8
 20
-63
 21
-46.497
  0
LINE
  8
0
 10
-59.8
 11
-51.051
 20
-46.497
 21
-46.497
  0
LINE
  8
0
 10
-51.051
 11
-50.553
 20
-46.497
 21
-46.472
  0
LINE
  8
0
 10
-50.553
 11
-50.057
 20
-46.472
 21
-46.422
  0
LINE
  8
0
 10
-50.057
 11
-49.564
 20
-46.422
 21
-46.348
  0
LINE
  8
0
 10
-49.564
 11
-49.075
 20
-46.348
 21
-46.249
  0
LINE
  8
0
 10
-49.075
 11
-48.592
 20
-46.249
 21
-46.126
  0
LINE
  8
0
 10
-48.592
 11
-48.115
 20
-46.126
 21
-45.979
  0
LINE
  8
0
 10
-48.115
 11
-47.647
 20
-45.979
 21
-45.809
  0
LINE
  8
0
 10
-47.647
 11
-47.187
 20
-45.809
 21
-45.615
  0
LINE
  8
0
 10
-47.187
 11
-46.738
 20
-45.615
 21
-45.399
  0
LINE
  8
0
 10
-46.738
 11
-46.3
 20
-45.399
 21
-45.16
  0
LINE
  8
0
 10
-46.3
 11
-45.875
 20
-45.16
 21
-44.9
  0
LINE
  8
0
 10
-45.875
 11
-45.463
 20
-44.9
 21
-44.619
  0
LINE
  8
0
 10
-45.463
 11
-45.065
 20
-44.619
 21
-44.318
  0
LINE
  8
0
 10
-45.065
 11
-44.683
 20
-44.318
 21
-43.998
  0
LINE
  8
0
 10
-44.683
 11
-44.318
 20
-43.998
 21
-43.659
  0
LINE
  8
0
 10
-44.318
 11
-43.969
 20
-43.659
 21
-43.302
  0
LINE
  8
0
 10
-43.969
 11
-43.64
 20
-43.302
 21
-42.928
  0
LINE
  8
0
 10
-43.64
 11
-43.329
 20
-42.928
 21
-42.538
  0
LINE
  8
0
 10
-43.329
 11
-43.038
 20
-42.538
 21
-42.133
  0
LINE
  8
0
 10
-43.038
 11
-42.767
 20
-42.133
 21
-41.714
  0
LINE
  8
0
 10
-42.767
 11
-42.518
 20
-41.714
 21
-41.283
  0
LINE
  8
0
 10
-42.518
 11
-42.29
 20
-41.283
 21
-40.839
  0
LINE
  8
0
 10
-42.29
 11
-42.085
 20
-40.839
 21
-40.384
  0
LINE
  8
0
 10
-42.085
 11
-41.903
 20
-40.384
 21
-39.92
  0
LINE
  8
0
 10
-41.903
 11
-41.744
 20
-39.92
 21
-39.448
  0
LINE
  8
0
 10
-41.744
 11
-41.609
 20
-39.448
 21
-38.968
  0
LINE
  8
0
 10
-41.609
 11
-41.498
 20
-38.968
 21
-38.481
  0
LINE
  8
0
 10
-41.498
 11
-41.412
 20
-38.481
 21
-37.99
  0
LINE
  8
0
 10
-41.412
 11
-41.35
 20
-37.99
 21
-37.496
  0
LINE
  8
0
 10
-41.35
 11
-41.312
 20
-37.496
 21
-36.998
  0
LINE
  8
0
 10
-41.312
 11
-41.3
 20
-36.998
 21
-36.5
  0
LINE
  8
0
 10
-41.3
 11
-41.312
 20
-36.5
 21
-36.002
  0
LINE
  8
0
 10
-41.312
 11
-41.35
 20
-36.002
 21
-35.504
  0
LINE
  8
0
 10
-41.35
 11
-41.412
 20
-35.504
 21
-35.01
  0
LINE
  8
0
 10
-41.412
 11
-41.498
 20
-35.01
 21
-34.519
  0
LINE
  8
0
 10
-41.498
 11
-41.609
 20
-34.519
 21
-34.032
  0
LINE
  8
0
 10
-41.609
 11
-41.744
 20
-34.032
 21
-33.552
  0
LINE
  8
0
 10
-41.744
 11
-41.903
 20
-33.552
 21
-33.08
  0
LINE
  8
0
 10
-41.903
 11
-42.085
 20
-33.08
 21
-32.616
  0
LINE
  8
0
 10
-42.085
 11
-42.29
 20
-32.616
 21
-32.161
  0
LINE
  8
0
 10
-42.29
 11
-42.518
 20
-32.161
 21
-31.717
  0
LINE
  8
0
 10
-42.518
 11
-42.767
 20
-31.717
 21
-31.286
  0
LINE
  8
0
 10
-42.767
 11
-43.038
 20
-31.286
 21
-30.867
  0
LINE
  8
0
 10
-43.038
 11
-43.329
 20
-30.867
 21
-30.462
  0
LINE
  8
0
 10
-43.329
 11
-43.64
 20
-30.462
 21
-30.072
  0
LINE
  8
0
 10
-43.64
 11
-43.969
 20
-30.072
 21
-29.698
  0
LINE
  8
0
 10
-43.969
 11
-44.318
 20
-29.698
 21
-29.341
  0
LINE
  8
0
 10
-44.318
 11
-44.683
 20
-29.341
 21
-29.002
  0
LINE
  8
0
 10
-44.683
 11
-45.065
 20
-29.002
 21
-28.682
  0
LINE
  8
0
 10
-45.065
 11
-45.463
 20
-28.682
 21
-28.381
  0
LINE
  8
0
 10
-45.463
 11
-45.875
 20
-28.381
 21
-28.1
  0
LINE
  8
0
 10
-45.875
 11
-46.3
 20
-28.1
 21
-27.84
  0
LINE
  8
0
 10
-46.3
 11
-46.738
 20
-27.84
 21
-27.601
  0
LINE
  8
0
 10
-46.738
 11
-47.187
 20
-27.601
 21
-27.385
  0
LINE
  8
0
 10
-47.187
 11
-47.647
 20
-27.385
 21
-27.191
  0
LINE
  8
0
 10
-47.647
 11
-48.115
 20
-27.191
 21
-27.021
  0
LINE
  8
0
 10
-48.115
 11
-48.592
 20
-27.021
 21
-26.874
  0
LINE
  8
0
 10
-48.592
 11
-49.075
 20
-26.874
 21
-26.751
  0
LINE
  8
0
 10
-49.075
 11
-49.564
 20
-26.751
 21
-26.652
  0
LINE
  8
0
 10
-49.564
 11
-50.057
 20
-26.652
 21
-26.578
  0
LINE
  8
0
 10
-50.057
 11
-50.553
 20
-26.578
 21
-26.528
  0
LINE
  8
0
 10
-50.553
 11
-51.051
 20
-26.528
 21
-26.503
  0
LINE
  8
0
 10
-51.051
 11
-59.8
 20
-26.503
 21
-26.503
  0
LINE
  8
0
 10
-59.8
 11
-59.8
 20
-26.503
 21
63
  0
LINE
  8
0
 10
-59.8
 11
-59.793
 20
63
 21
63.499
  0
LINE
  8
0
 10
-59.793
 11
-59.771
 20
63.499
 21
63.998
  0
LINE
  8
0
 10
-59.771
 11
-59.734
 20
63.998
 21
64.495
  0
LINE
  8
0
 10
-59.734
 11
-59.683
 20
64.495
 21
64.992
  0
LINE
  8
0
 10
-59.683
 11
-59.617
 20
64.992
 21
65.487
  0
LINE
  8
0
 10
-59.617
 11
-59.537
 20
65.487
 21
65.979
  0
LINE
  8
0
 10
-59.537
 11
-59.442
 20
65.979
 21
66.469
  0
LINE
  8
0
 10
-59.442
 11
-59.333
 20
66.469
 21
66.956
  0
LINE
  8
0
 10
-59.333
 11
-59.21
 20
66.956
 21
67.44
  0
LINE
  8
0
 10
-59.21
 11
-59.073
 20
67.44
 21
67.92
  0
LINE
  8
0
 10
-59.073
 11
-58.921
 20
67.92
 21
68.395
  0
LINE
  8
0
 10
-58.921
 11
-58.756
 20
68.395
 21
68.866
  0
LINE
  8
0
 10
-58.756
 11
-58.577
 20
68.866
 21
69.332
  0
LINE
  8
0
 10
-58.577
 11
-58.384
 20
69.332
 21
69.793
  0
LINE
  8
0
 10
-58.384
 11
-58.178
 20
69.793
 21
70.247
  0
LINE
  8
0
 10
-58.178
 11
-57.958
 20
70.247
 21
70.696
  0
LINE
  8
0
 10
-57.958
 11
-57.726
 20
70.696
 21
71.137
  0
LINE
  8
0
 10
-57.726
 11
-57.481
 20
71.137
 21
71.572
  0
LINE
  8
0
 10
-57.481
 11
-57.223
 20
71.572
 21
71.999
  0
LINE
  8
0
 10
-57.223
 11
-56.952
 20
71.999
 21
72.419
  0
LINE
  8
0
 10
-56.952
 11
-56.67
 20
72.419
 21
72.83
  0
LINE
  8
0
 10
-56.67
 11
-56.375
 20
72.83
 21
73.233
  0
LINE
  8
0
 10
-56.375
 11
-56.069
 20
73.233
 21
73.627
  0
LINE
  8
0
 10
-56.069
 11
-55.751
 20
73.627
 21
74.012
  0
LINE
  8
0
 10
-55.751
 11
-55.422
 20
74.012
 21
74.388
  0
LINE
  8
0
 10
-55.422
 11
-55.083
 20
74.388
 21
74.753
  0
LINE
  8
0
 10
-55.083
 11
-54.732
 20
74.753
 21
75.109
  0
LINE
  8
0
 10
-54.732
 11
-54.372
 20
75.109
 21
75.454
  0
LINE
  8
0
 10
-54.372
 11
-54.001
 20
75.454
 21
75.788
  0
LINE
  8
0
 10
-54.001
 11
-53.621
 20
75.788
 21
76.111
  0
LINE
  8
0
 10
-53.621
 11
-53.231
 20
76.111
 21
76.423
  0
LINE
  8
0
 10
-53.231
 11
-52.833
 20
76.423
 21
76.724
  0
LINE
  8
0
 10
-52.833
 11
-52.425
 20
76.724
 21
77.013
  0
LINE
  8
0
 10
-52.425
 11
-52.01
 20
77.013
 21
77.289
  0
LINE
  8
0
 10
-52.01
 11
-51.587
 20
77.289
 21
77.553
  0
LINE
  8
0
 10
-51.587
 11
-51.156
 20
77.553
 21
77.805
  0
LINE
  8
0
 10
-51.156
 11
-50.717
 20
77.805
 21
78.044
  0
LINE
  8
0
 10
-50.717
 11
-50.272
 20
78.044
 21
78.27
  0
LINE
  8
0
 10
-50.272
 11
-49.821
 20
78.27
 21
78.483
  0
LINE
  8
0
 10
-49.821
 11
-49.363
 20
78.483
 21
78.682
  0
LINE
  8
0
 10
-49.363
 11
-48.9
 20
78.682
 21
78.868
  0
LINE
  8
0
 10
-48.9
 11
-48.432
 20
78.868
 21
79.04
  0
LINE
  8
0
 10
-48.432
 11
-47.958
 20
79.04
 21
79.199
  0
LINE
  8
0
 10
-47.958
 11
-47.481
 20
79.199
 21
79.343
  0
LINE
  8
0
 10
-47.481
 11
-46.999
 20
79.343
 21
79.473
  0
LINE
  8
0
 10
-46.999
 11
-46.513
 20
79.473
 21
79.589
  0
LINE
  8
0
 10
-46.513
 11
-46.025
 20
79.589
 21
79.691
  0
LINE
  8
0
 10
-46.025
 11
-45.533
 20
79.691
 21
79.779
  0
LINE
  8
0
 10
-45.533
 11
-45.04
 20
79.779
 21
79.852
  0
LINE
  8
0
 10
-45.04
 11
-44.544
 20
79.852
 21
79.91
  0
LINE
  8
0
 10
-44.544
 11
-44.047
 20
79.91
 21
79.954
  0
LINE
  8
0
 10
-44.047
 11
-43.548
 20
79.954
 21
79.984
  0
LINE
  8
0
 10
-43.548
 11
-43.05
 20
79.984
 21
79.998
  0
LINE
  8
0
 10
-43.05
 11
-42.8
 20
79.998
 21
79.998
  0
LINE
  8
0
 10
-42.8
 11
-42.8
 20
79.998
 21
80
  0
LINE
  8
0
 10
-42.8
 11
42.8
 20
80
 21
80
  0
LINE
  8
0
 10
42.8
 11
42.8
 20
80
 21
79.998
  0
LINE
  8
0
 10
42.8
 11
43.05
 20
79.998
 21
79.998
  0
LINE
  8
0
 10
43.05
 11
43.548
 20
79.998
 21
79.984
  0
LINE
  8
0
 10
43.548
 11
44.047
 20
79.984
 21
79.954
  0
LINE
  8
0
 10
44.047
 11
44.544
 20
79.954
 21
79.91
  0
LINE
  8
0
 10
44.544
 11
45.04
 20
79.91
 21
79.852
  0
LINE
  8
0
 10
45.04
 11
45.533
 20
79.852
 21
79.779
  0
LINE
  8
0
 10
45.533
 11
46.025
 20
79.779
 21
79.691
  0
LINE
  8
0
 10
46.025
 11
46.513
 20
79.691
 21
79.589
  0
LINE
  8
0
 10
46.513
 11
46.999
 20
79.589
 21
79.473
  0
LINE
  8
0
 10
46.999
 11
47.481
 20
79.473
 21
79.343
  0
LINE
  8
0
 10
47.481
 11
47.958
 20
79.343
 21
79.199
  0
LINE
  8
0
 10
47.958
 11
48.432
 20
79.199
 21
79.04
  0
LINE
  8
0
 10
48.432
 11
48.9
 20
79.04
 21
78.868
  0
LINE
  8
0
 10
48.9
 11
49.363
 20
78.868
 21
78.682
  0
LINE
  8
0
 10
49.363
 11
49.821
 20
78.682
 21
78.483
  0
LINE
  8
0
 10
49.821
 11
50.272
 20
78.483
 21
78.27
  0
LINE
  8
0
 10
50.272
 11
50.717
 20
78.27
 21
78.044
  0
LINE
  8
0
 10
50.717
 11
51.156
 20
78.044
 21
77.805
  0
LINE
  8
0
 10
51.156
 11
51.587
 20
77.805
 21
77.553
  0
LINE
  8
0
 10
51.587
 11
52.01
 20
77.553
 21
77.289
  0
LINE
  8
0
 10
52.01
 11
52.425
 20
77.289
 21
77.013
  0
LINE
  8
0
 10
52.425
 11
52.833
 20
77.013
 21
76.724
  0
LINE
  8
0
 10
52.833
 11
53.231
 20
76.724
 21
76.423
  0
LINE
  8
0
 10
53.231
 11
53.621
 20
76.423
 21
76.111
  0
LINE
  8
0
 10
53.621
 11
54.001
 20
76.111
 21
75.788
  0
LINE
  8
0
 10
54.001
 11
54.372
 20
75.788
 21
75.454
  0
LINE
  8
0
 10
54.372
 11
54.732
 20
75.454
 21
75.109
  0
LINE
  8
0
 10
54.732
 11
55.083
 20
75.109
 21
74.753
  0
LINE
  8
0
 10
55.083
 11
55.422
 20
74.753
 21
74.388
  0
LINE
  8
0
 10
55.422
 11
55.751
 20
74.388
 21
74.012
  0
LINE
  8
0
 10
55.751
 11
56.069
 20
74.012
 21
73.627
  0
LINE
  8
0
 10
56.069
 11
56.375
 20
73.627
 21
73.233
  0
LINE
  8
0
 10
56.375
 11
56.67
 20
73.233
 21
72.83
  0
LINE
  8
0
 10
56.67
 11
56.952
 20
72.83
 21
72.419
  0
LINE
  8
0
 10
56.952
 11
57.223
 20
72.419
 21
71.999
  0
LINE
  8
0
 10
57.223
 11
57.481
 20
71.999
 21
71.572
  0
LINE
  8
0
 10
57.481
 11
57.726
 20
71.572
 21
71.137
  0
LINE
  8
0
 10
57.726
 11
57.958
 20
71.137
 21
70.696
  0
LINE
  8
0
 10
57.958
 11
58.178
 20
70.696
 21
70.247
  0
LINE
  8
0
 10
58.178
 11
58.384
 20
70.247
 21
69.793
  0
LINE
  8
0
 10
58.384
 11
58.577
 20
69.793
 21
69.332
  0
LINE
  8
0
 10
58.577
 11
58.756
 20
69.332
 21
68.866
  0
LINE
  8
0
 10
58.756
 11
58.921
 20
68.866
 21
68.395
  0
LINE
  8
0
 10
58.921
 11
59.073
 20
68.395
 21
67.92
  0
LINE
  8
0
 10
59.073
 11
59.21
 20
67.92
 21
67.44
  0
LINE
  8
0
 10
59.21
 11
59.333
 20
67.44
 21
66.956
  0
LINE
  8
0
 10
59.333
 11
59.442
 20
66.956
 21
66.469
  0
LINE
  8
0
 10
59.442
 11
59.537
 20
66.469
 21
65.979
  0
LINE
  8
0
 10
59.537
 11
59.617
 20
65.979
 21
65.487
  0
LINE
  8
0
 10
59.617
 11
59.683
 20
65.487
 21
64.992
  0
LINE
  8
0
 10
59.683
 11
59.734
 20
64.992
 21
64.495
  0
LINE
  8
0
 10
59.734
 11
59.771
 20
64.495
 21
63.998
  0
LINE
  8
0
 10
59.771
 11
59.793
 20
63.998
 21
63.499
  0
LINE
  8
0
 10
59.793
 11
59.8
 20
63.499
 21
63
  0
LINE
  8
0
 10
59.8
 11
59.8
 20
63
 21
-63
  0
LINE
  8
0
 10
59.8
 11
59.793
 20
-63
 21
-63.499
  0
LINE
  8
0
 10
59.793
 11
59.771
 20
-63.499
 21
-63.998
  0
LINE
  8
0
 10
59.771
 11
59.734
 20
-63.998
 21
-64.495
  0
LINE
  8
0
 10
59.734
 11
59.683
 20
-64.495
 21
-64.992
  0
LINE
  8
0
 10
59.683
 11
59.617
 20
-64.992
 21
-65.487
  0
LINE
  8
0
 10
59.617
 11
59.537
 20
-65.487
 21
-65.979
  0
LINE
  8
0
 10
59.537
 11
59.442
 20
-65.979
 21
-66.469
  0
LINE
  8
0
 10
59.442
 11
59.333
 20
-66.469
 21
-66.956
  0
LINE
  8
0
 10
59.333
 11
59.21
 20
-66.956
 21
-67.44
  0
LINE
  8
0
 10
59.21
 11
59.073
 20
-67.44
 21
-67.92
  0
LINE
  8
0
 10
59.073
 11
58.921
 20
-67.92
 21
-68.395
  0
LINE
  8
0
 10
58.921
 11
58.756
 20
-68.395
 21
-68.866
  0
LINE
  8
0
 10
58.756
 11
58.577
 20
-68.866
 21
-69.332
  0
LINE
  8
0
 10
58.577
 11
58.384
 20
-69.332
 21
-69.793
  0
LINE
  8
0
 10
58.384
 11
58.178
 20
-69.793
 21
-70.247
  0
LINE
  8
0
 10
58.178
 11
57.958
 20
-70.247
 21
-70.696
  0
LINE
  8
0
 10
57.958
 11
57.726
 20
-70.696
 21
-71.137
  0
LINE
  8
0
 10
57.726
 11
57.481
 20
-71.137
 21
-71.572
  0
LINE
  8
0
 10
57.481
 11
57.223
 20
-71.572
 21
-71.999
  0
LINE
  8
0
 10
57.223
 11
56.952
 20
-71.999
 21
-72.419
  0
LINE
  8
0
 10
56.952
 11
56.67
 20
-72.419
 21
-72.83
  0
LINE
  8
0
 10
56.67
 11
56.375
 20
-72.83
 21
-73.233
  0
LINE
  8
0
 10
56.375
 11
56.069
 20
-73.233
 21
-73.627
  0
LINE
  8
0
 10
56.069
 11
55.751
 20
-73.627
 21
-74.012
  0
LINE
  8
0
 10
55.751
 11
55.422
 20
-74.012
 21
-74.388
  0
LINE
  8
0
 10
55.422
 11
55.083
 20
-74.388
 21
-74.753
  0
LINE
  8
0
 10
55.083
 11
54.732
 20
-74.753
 21
-75.109
  0
LINE
  8
0
 10
54.732
 11
54.372
 20
-75.109
 21
-75.454
  0
LINE
  8
0
 10
54.372
 11
54.001
 20
-75.454
 21
-75.788
  0
LINE
  8
0
 10
54.001
 11
53.621
 20
-75.788
 21
-76.111
  0
LINE
  8
0
 10
53.621
 11
53.231
 20
-76.111
 21
-76.423
  0
LINE
  8
0
 10
53.231
 11
52.833
 20
-76.423
 21
-76.724
  0
LINE
  8
0
 10
52.833
 11
52.425
 20
-76.724
 21
-77.013
  0
LINE
  8
0
 10
52.425
 11
52.01
 20
-77.013
 21
-77.289
  0
LINE
  8
0
 10
52.01
 11
51.587
 20
-77.289
 21
-77.553
  0
LINE
  8
0
 10
51.587
 11
51.156
 20
-77.553
 21
-77.805
  0
LINE
  8
0
 10
51.156
 11
50.717
 20
-77.805
 21
-78.044
  0
LINE
  8
0
 10
50.717
 11
50.272
 20
-78.044
 21
-78.27
  0
LINE
  8
0
 10
50.272
 11
49.821
 20
-78.27
 21
-78.483
  0
LINE
  8
0
 10
49.821
 11
49.363
 20
-78.483
 21
-78.682
  0
LINE
  8
0
 10
49.363
 11
48.9
 20
-78.682
 21
-78.868
  0
LINE
  8
0
 10
48.9
 11
48.432
 20
-78.868
 21
-79.04
  0
LINE
  8
0
 10
48.432
 11
47.958
 20
-79.04
 21
-79.199
  0
LINE
  8
0
 10
47.958
 11
47.481
 20
-79.199
 21
-79.343
  0
LINE
  8
0
 10
47.481
 11
46.999
 20
-79.343
 21
-79.473
  0
LINE
  8
0
 10
46.999
 11
46.513
 20
-79.473
 21
-79.589
  0
LINE
  8
0
 10
46.513
 11
46.025
 20
-79.589
 21
-79.691
  0
LINE
  8
0
 10
46.025
 11
45.533
 20
-79.691
 21
-79.779
  0
LINE
  8
0
 10
45.533
 11
45.04
 20
-79.779
 21
-79.852
  0
LINE
  8
0
 10
45.04
 11
44.544
 20
-79.852
 21
-79.91
  0
LINE
  8
0
 10
44.544
 11
44.047
 20
-79.91
 21
-79.954
  0
LINE
  8
0
 10
44.047
 11
43.548
 20
-79.954
 21
-79.984
  0
LINE
  8
0
 10
43.548
 11
43.05
 20
-79.984
 21
-79.998
  0
LINE
  8
0
 10
43.05
 11
42.8
 20
-79.998
 21
-79.998
  0
LINE
  8
0
 10
42.8
 11
42.8
 20
-79.998
 21
-80
  0
LINE
  8
0
 10
42.8
 11
-42.8
 20
-80
 21
-80
  0
LINE
  8
0
 10
-42.8
 11
-42.8
 20
-80
 21
-79.998
  0
LINE
  8
0
 10
-42.8
 11
-43.05
 20
-79.998
 21
-79.998
  0
LINE
  8
0
 10
-43.05
 11
-43.548
 20
-79.998
 21
-79.984
  0
LINE
  8
0
 10
-43.548
 11
-44.047
 20
-79.984
 21
-79.954
  0
LINE
  8
0
 10
-44.047
 11
-44.544
 20
-79.954
 21
-79.91
  0
LINE
  8
0
 10
-44.544
 11
-45.04
 20
-79.91
 21
-79.852
  0
LINE
  8
0
 10
-45.04
 11
-45.533
 20
-79.852
 21
-79.779
  0
LINE
  8
0
 10
-45.533
 11
-46.025
 20
-79.779
 21
-79.691
  0
LINE
  8
0
 10
-46.025
 11
-46.513
 20
-79.691
 21
-79.589
  0
LINE
  8
0
 10
-46.513
 11
-46.999
 20
-79.589
 21
-79.473
  0
LINE
  8
0
 10
-46.999
 11
-47.481
 20
-79.473
 21
-79.343
  0
LINE
  8
0
 10
-47.481
 11
-47.958
 20
-79.343
 21
-79.199
  0
LINE
  8
0
 10
-47.958
 11
-48.432
 20
-79.199
 21
-79.04
  0
LINE
  8
0
 10
-48.432
 11
-48.9
 20
-79.04
 21
-78.868
  0
LINE
  8
0
 10
-48.9
 11
-49.363
 20
-78.868
 21
-78.682
  0
LINE
  8
0
 10
-49.363
 11
-49.821
 20
-78.682
 21
-78.483
  0
LINE
  8
0
 10
-49.821
 11
-50.272
 20
-78.483
 21
-78.27
  0
LINE
  8
0
 10
-50.272
 11
-50.717
 20
-78.27
 21
-78.044
  0
LINE
  8
0
 10
-50.717
 11
-51.156
 20
-78.044
 21
-77.805
  0
LINE
  8
0
 10
-51.156
 11
-51.587
 20
-77.805
 21
-77.553
  0
LINE
  8
0
 10
-51.587
 11
-52.01
 20
-77.553
 21
-77.289
  0
LINE
  8
0
 10
-52.01
 11
-52.425
 20
-77.289
 21
-77.013
  0
LINE
  8
0
 10
-52.425
 11
-52.833
 20
-77.013
 21
-76.724
  0
LINE
  8
0
 10
-52.833
 11
-53.231
 20
-76.724
 21
-76.423
  0
LINE
  8
0
 10
-53.231
 11
-53.621
 20
-76.423
 21
-76.111
  0
LINE
  8
0
 10
-53.621
 11
-54.001
 20
-76.111
 21
-75.788
  0
LINE
  8
0
 10
-54.001
 11
-54.372
 20
-75.788
 21
-75.454
  0
LINE
  8
0
 10
-54.372
 11
-54.732
 20
-75.454
 21
-75.109
  0
LINE
  8
0
 10
-54.732
 11
-55.083
 20
-75.109
 21
-74.753
  0
LINE
  8
0
 10
-55.083
 11
-55.422
 20
-74.753
 21
-74.388
  0
LINE
  8
0
 10
-55.422
 11
-55.751
 20
-74.388
 21
-74.012
  0
LINE
  8
0
 10
-55.751
 11
-56.069
 20
-74.012
 21
-73.627
  0
LINE
  8
0
 10
-56.069
 11
-56.375
 20
-73.627
 21
-73.233
  0
LINE
  8
0
 10
-56.375
 11
-56.67
 20
-73.233
 21
-72.83
  0
LINE
  8
0
 10
-56.67
 11
-56.952
 20
-72.83
 21
-72.419
  0
LINE
  8
0
 10
-56.952
 11
-57.223
 20
-72.419
 21
-71.999
  0
LINE
  8
0
 10
-57.223
 11
-57.481
 20
-71.999
 21
-71.572
  0
LINE
  8
0
 10
-57.481
 11
-57.726
 20
-71.572
 21
-71.137
  0
LINE
  8
0
 10
-57.726
 11
-57.958
 20
-71.137
 21
-70.696
  0
LINE
  8
0
 10
-57.958
 11
-58.178
 20
-70.696
 21
-70.247
  0
LINE
  8
0
 10
-58.178
 11
-58.384
 20
-70.247
 21
-69.793
  0
LINE
  8
0
 10
-58.384
 11
-58.577
 20
-69.793
 21
-69.332
  0
LINE
  8
0
 10
-58.577
 11
-58.756
 20
-69.332
 21
-68.866
  0
LINE
  8
0
 10
-58.756
 11
-58.921
 20
-68.866
 21
-68.395
  0
LINE
  8
0
 10
-58.921
 11
-59.073
 20
-68.395
 21
-67.92
  0
LINE
  8
0
 10
-59.073
 11
-59.21
 20
-67.92
 21
-67.44
  0
LINE
  8
0
 10
-59.21
 11
-59.333
 20
-67.44
 21
-66.956
  0
LINE
  8
0
 10
-59.333
 11
-59.442
 20
-66.956
 21
-66.469
  0
LINE
  8
0
 10
-59.442
 11
-59.537
 20
-66.469
 21
-65.979
  0
LINE
  8
0
 10
-59.537
 11
-59.617
 20
-65.979
 21
-65.487
  0
LINE
  8
0
 10
-59.617
 11
-59.683
 20
-65.487
 21
-64.992
  0
LINE
  8
0
 10
-59.683
 11
-59.734
 20
-64.992
 21
-64.495
  0
LINE
  8
0
 10
-59.734
 11
-59.771
 20
-64.495
 21
-63.998
  0
LINE
  8
0
 10
-59.771
 11
-59.793
 20
-63.998
 21
-63.499
  0
LINE
  8
0
 10
-59.793
 11
-59.8
 20
-63.499
 21
-63
  0
LINE
  8
0
 10
-49.38
 11
-49.38
 20
-68.347
 21
-67.853
  0
LINE
  8
0
 10
-49.38
 11
-49.219
 20
-67.853
 21
-67.386
  0
LINE
  8
0
 10
-49.219
 11
-48.916
 20
-67.386
 21
-66.996
  0
LINE
  8
0
 10
-48.916
 11
-48.503
 20
-66.996
 21
-66.726
  0
LINE
  8
0
 10
-48.503
 11
-48.024
 20
-66.726
 21
-66.605
  0
LINE
  8
0
 10
-48.024
 11
-47.532
 20
-66.605
 21
-66.646
  0
LINE
  8
0
 10
-47.532
 11
-47.08
 20
-66.646
 21
-66.844
  0
LINE
  8
0
 10
-47.08
 11
-46.716
 20
-66.844
 21
-67.179
  0
LINE
  8
0
 10
-46.716
 11
-46.481
 20
-67.179
 21
-67.613
  0
LINE
  8
0
 10
-46.481
 11
-46.4
 20
-67.613
 21
-68.1
  0
LINE
  8
0
 10
-46.4
 11
-46.481
 20
-68.1
 21
-68.587
  0
LINE
  8
0
 10
-46.481
 11
-46.716
 20
-68.587
 21
-69.021
  0
LINE
  8
0
 10
-46.716
 11
-47.08
 20
-69.021
 21
-69.356
  0
LINE
  8
0
 10
-47.08
 11
-47.532
 20
-69.356
 21
-69.554
  0
LINE
  8
0
 10
-47.532
 11
-48.024
 20
-69.554
 21
-69.595
  0
LINE
  8
0
 10
-48.024
 11
-48.503
 20
-69.595
 21
-69.474
  0
LINE
  8
0
 10
-48.503
 11
-48.916
 20
-69.474
 21
-69.204
  0
LINE
  8
0
 10
-48.916
 11
-49.219
 20
-69.204
 21
-68.814
  0
LINE
  8
0
 10
-49.219
 11
-49.38
 20
-68.814
 21
-68.347
  0
LINE
  8
0
 10
-49.38
 11
-49.38
 20
67.853
 21
68.347
  0
LINE
  8
0
 10
-49.38
 11
-49.219
 20
68.347
 21
68.814
  0
LINE
  8
0
 10
-49.219
 11
-48.916
 20
68.814
 21
69.204
  0
LINE
  8
0
 10
-48.916
 11
-48.503
 20
69.204
 21
69.474
  0
LINE
  8
0
 10
-48.503
 11
-48.024
 20
69.474
 21
69.595
  0
LINE
  8
0
 10
-48.024
 11
-47.532
 20
69.595
 21
69.554
  0
LINE
  8
0
 10
-47.532
 11
-47.08
 20
69.554
 21
69.356
  0
LINE
  8
0
 10
-47.08
 11
-46.716
 20
69.356
 21
69.021
  0
LINE
  8
0
 10
-46.716
 11
-46.481
 20
69.021
 21
68.587
  0
LINE
  8
0
 10
-46.481
 11
-46.4
 20
68.587
 21
68.1
  0
LINE
  8
0
 10
-46.4
 11
-46.481
 20
68.1
 21
67.613
  0
LINE
  8
0
 10
-46.481
 11
-46.716
 20
67.613
 21
67.179
  0
LINE
  8
0
 10
-46.716
 11
-47.08
 20
67.179
 21
66.844
  0
LINE
  8
0
 10
-47.08
 11
-47.532
 20
66.844
 21
66.646
  0
LINE
  8
0
 10
-47.532
 11
-48.024
 20
66.646
 21
66.605
  0
LINE
  8
0
 10
-48.024
 11
-48.503
 20
66.605
 21
66.726
  0
LINE
  8
0
 10
-48.503
 11
-48.916
 20
66.726
 21
66.996
  0
LINE
  8
0
 10
-48.916
 11
-49.219
 20
66.996
 21
67.386
  0
LINE
  8
0
 10
-49.219
 11
-49.38
 20
67.386
 21
67.853
  0
LINE
  8
0
 10
-41
 11
-41
 20
8.5
 21
61.5
  0
LINE
  8
0
 10
-41
 11
41
 20
61.5
 21
61.5
  0
LINE
  8
0
 10
41
 11
41
 20
61.5
 21
8.5
  0
LINE
  8
0
 10
41
 11
-41
 20
8.5
 21
8.5
  0
LINE
  8
0
 10
-18.73
 11
-18.73
 20
-46.739
 21
-46.261
  0
LINE
  8
0
 10
-18.73
 11
-18.575
 20
-46.261
 21
-45.81
  0
LINE
  8
0
 10
-18.575
 11
-18.282
 20
-45.81
 21
-45.433
  0
LINE
  8
0
 10
-18.282
 11
-17.882
 20
-45.433
 21
-45.172
  0
LINE
  8
0
 10
-17.882
 11
-17.42
 20
-45.172
 21
-45.055
  0
LINE
  8
0
 10
-17.42
 11
-16.944
 20
-45.055
 21
-45.094
  0
LINE
  8
0
 10
-16.944
 11
-16.507
 20
-45.094
 21
-45.286
  0
LINE
  8
0
 10
-16.507
 11
-16.156
 20
-45.286
 21
-45.609
  0
LINE
  8
0
 10
-16.156
 11
-15.929
 20
-45.609
 21
-46.029
  0
LINE
  8
0
 10
-15.929
 11
-15.85
 20
-46.029
 21
-46.5
  0
LINE
  8
0
 10
-15.85
 11
-15.929
 20
-46.5
 21
-46.971
  0
LINE
  8
0
 10
-15.929
 11
-16.156
 20
-46.971
 21
-47.391
  0
LINE
  8
0
 10
-16.156
 11
-16.507
 20
-47.391
 21
-47.714
  0
LINE
  8
0
 10
-16.507
 11
-16.944
 20
-47.714
 21
-47.906
  0
LINE
  8
0
 10
-16.944
 11
-17.42
 20
-47.906
 21
-47.945
  0
LINE
  8
0
 10
-17.42
 11
-17.882
 20
-47.945
 21
-47.828
  0
LINE
  8
0
 10
-17.882
 11
-18.282
 20
-47.828
 21
-47.567
  0
LINE
  8
0
 10
-18.282
 11
-18.575
 20
-47.567
 21
-47.19
  0
LINE
  8
0
 10
-18.575
 11
-18.73
 20
-47.19
 21
-46.739
  0
LINE
  8
0
 10
35.87
 11
35.87
 20
-21.139
 21
-20.661
  0
LINE
  8
0
 10
35.87
 11
36.025
 20
-20.661
 21
-20.21
  0
LINE
  8
0
 10
36.025
 11
36.318
 20
-20.21
 21
-19.833
  0
LINE
  8
0
 10
36.318
 11
36.718
 20
-19.833
 21
-19.572
  0
LINE
  8
0
 10
36.718
 11
37.18
 20
-19.572
 21
-19.455
  0
LINE
  8
0
 10
37.18
 11
37.656
 20
-19.455
 21
-19.494
  0
LINE
  8
0
 10
37.656
 11
38.093
 20
-19.494
 21
-19.686
  0
LINE
  8
0
 10
38.093
 11
38.444
 20
-19.686
 21
-20.009
  0
LINE
  8
0
 10
38.444
 11
38.671
 20
-20.009
 21
-20.429
  0
LINE
  8
0
 10
38.671
 11
38.75
 20
-20.429
 21
-20.9
  0
LINE
  8
0
 10
38.75
 11
38.671
 20
-20.9
 21
-21.371
  0
LINE
  8
0
 10
38.671
 11
38.444
 20
-21.371
 21
-21.791
  0
LINE
  8
0
 10
38.444
 11
38.093
 20
-21.791
 21
-22.114
  0
LINE
  8
0
 10
38.093
 11
37.656
 20
-22.114
 21
-22.306
  0
LINE
  8
0
 10
37.656
 11
37.18
 20
-22.306
 21
-22.345
  0
LINE
  8
0
 10
37.18
 11
36.718
 20
-22.345
 21
-22.228
  0
LINE
  8
0
 10
36.718
 11
36.318
 20
-22.228
 21
-21.967
  0
LINE
  8
0
 10
36.318
 11
36.025
 20
-21.967
 21
-21.59
  0
LINE
  8
0
 10
36.025
 11
35.87
 20
-21.59
 21
-21.139
  0
LINE
  8
0
 10
46.42
 11
46.42
 20
-68.347
 21
-67.853
  0
LINE
  8
0
 10
46.42
 11
46.581
 20
-67.853
 21
-67.386
  0
LINE
  8
0
 10
46.581
 11
46.884
 20
-67.386
 21
-66.996
  0
LINE
  8
0
 10
46.884
 11
47.297
 20
-66.996
 21
-66.726
  0
LINE
  8
0
 10
47.297
 11
47.776
 20
-66.726
 21
-66.605
  0
LINE
  8
0
 10
47.776
 11
48.268
 20
-66.605
 21
-66.646
  0
LINE
  8
0
 10
48.268
 11
48.72
 20
-66.646
 21
-66.844
  0
LINE
  8
0
 10
48.72
 11
49.084
 20
-66.844
 21
-67.179
  0
LINE
  8
0
 10
49.084
 11
49.319
 20
-67.179
 21
-67.613
  0
LINE
  8
0
 10
49.319
 11
49.4
 20
-67.613
 21
-68.1
  0
LINE
  8
0
 10
49.4
 11
49.319
 20
-68.1
 21
-68.587
  0
LINE
  8
0
 10
49.319
 11
49.084
 20
-68.587
 21
-69.021
  0
LINE
  8
0
 10
49.084
 11
48.72
 20
-69.021
 21
-69.356
  0
LINE
  8
0
 10
48.72
 11
48.268
 20
-69.356
 21
-69.554
  0
LINE
  8
0
 10
48.268
 11
47.776
 20
-69.554
 21
-69.595
  0
LINE
  8
0
 10
47.776
 11
47.297
 20
-69.595
 21
-69.474
  0
LINE
  8
0
 10
47.297
 11
46.884
 20
-69.474
 21
-69.204
  0
LINE
  8
0
 10
46.884
 11
46.581
 20
-69.204
 21
-68.814
  0
LINE
  8
0
 10
46.581
 11
46.42
 20
-68.814
 21
-68.347
  0
LINE
  8
0
 10
46.42
 11
46.42
 20
67.853
 21
68.347
  0
LINE
  8
0
 10
46.42
 11
46.581
 20
68.347
 21
68.814
  0
LINE
  8
0
 10
46.581
 11
46.884
 20
68.814
 21
69.204
  0
LINE
  8
0
 10
46.884
 11
47.297
 20
69.204
 21
69.474
  0
LINE
  8
0
 10
47.297
 11
47.776
 20
69.474
 21
69.595
  0
LINE
  8
0
 10
47.776
 11
48.268
 20
69.595
 21
69.554
  0
LINE
  8
0
 10
48.268
 11
48.72
 20
69.554
 21
69.356
  0
LINE
  8
0
 10
48.72
 11
49.084
 20
69.356
 21
69.021
  0
LINE
  8
0
 10
49.084
 11
49.319
 20
69.021
 21
68.587
  0
LINE
  8
0
 10
49.319
 11
49.4
 20
68.587
 21
68.1
  0
LINE
  8
0
 10
49.4
 11
49.319
 20
68.1
 21
67.613
  0
LINE
  8
0
 10
49.319
 11
49.084
 20
67.613
 21
67.179
  0
LINE
  8
0
 10
49.084
 11
48.72
 20
67.179
 21
66.844
  0
LINE
  8
0
 10
48.72
 11
48.268
 20
66.844
 21
66.646
  0
LINE
  8
0
 10
48.268
 11
47.776
 20
66.646
 21
66.605
  0
LINE
  8
0
 10
47.776
 11
47.297
 20
66.605
 21
66.726
  0
LINE
  8
0
 10
47.297
 11
46.884
 20
66.726
 21
66.996
  0
LINE
  8
0
 10
46.884
 11
46.581
 20
66.996
 21
67.386
  0
LINE
  8
0
 10
46.581
 11
46.42
 20
67.386
 21
67.853
  0
ENDSEC
  0
SECTION
  2
OBJECTS
  0
DICTIONARY
  0
ENDSEC
  0
EOF
