  0
SECTION
  2
BLOCKS
  0
ENDSEC
  0
SECTION
  2
ENTITIES
  0
LINE
  8
0
 10
-25
 11
-25
 20
-50
 21
-21
  0
LINE
  8
0
 10
-25
 11
-8.333
 20
-21
 21
-21
  0
LINE
  8
0
 10
-8.333
 11
-8.333
 20
-21
 21
-19
  0
LINE
  8
0
 10
-8.333
 11
-25
 20
-19
 21
-19
  0
LINE
  8
0
 10
-25
 11
-25
 20
-19
 21
39
  0
LINE
  8
0
 10
-25
 11
-8.333
 20
39
 21
39
  0
LINE
  8
0
 10
-8.333
 11
-8.333
 20
39
 21
41
  0
LINE
  8
0
 10
-8.333
 11
-25
 20
41
 21
41
  0
LINE
  8
0
 10
-25
 11
-25
 20
41
 21
50
  0
LINE
  8
0
 10
-25
 11
25
 20
50
 21
50
  0
LINE
  8
0
 10
25
 11
25
 20
50
 21
41
  0
LINE
  8
0
 10
25
 11
8.333
 20
41
 21
41
  0
LINE
  8
0
 10
8.333
 11
8.333
 20
41
 21
39
  0
LINE
  8
0
 10
8.333
 11
25
 20
39
 21
39
  0
LINE
  8
0
 10
25
 11
25
 20
39
 21
-19
  0
LINE
  8
0
 10
25
 11
8.333
 20
-19
 21
-19
  0
LINE
  8
0
 10
8.333
 11
8.333
 20
-19
 21
-21
  0
LINE
  8
0
 10
8.333
 11
25
 20
-21
 21
-21
  0
LINE
  8
0
 10
25
 11
25
 20
-21
 21
-50
  0
LINE
  8
0
 10
25
 11
-25
 20
-50
 21
-50
  0
LINE
  8
0
 10
-3.5
 11
-3.5
 20
-45.5
 21
-38.5
  0
LINE
  8
0
 10
-3.5
 11
3.5
 20
-38.5
 21
-38.5
  0
LINE
  8
0
 10
3.5
 11
3.5
 20
-38.5
 21
-45.5
  0
LINE
  8
0
 10
3.5
 11
-3.5
 20
-45.5
 21
-45.5
  0
LINE
  8
0
 10
-0.5
 11
-0.476
 20
-35
 21
-34.845
  0
LINE
  8
0
 10
-0.476
 11
-0.405
 20
-34.845
 21
-34.706
  0
LINE
  8
0
 10
-0.405
 11
-0.294
 20
-34.706
 21
-34.595
  0
LINE
  8
0
 10
-0.294
 11
-0.155
 20
-34.595
 21
-34.524
  0
LINE
  8
0
 10
-0.155
 11
0
 20
-34.524
 21
-34.5
  0
LINE
  8
0
 10
0
 11
0.155
 20
-34.5
 21
-34.524
  0
LINE
  8
0
 10
0.155
 11
0.294
 20
-34.524
 21
-34.595
  0
LINE
  8
0
 10
0.294
 11
0.405
 20
-34.595
 21
-34.706
  0
LINE
  8
0
 10
0.405
 11
0.476
 20
-34.706
 21
-34.845
  0
LINE
  8
0
 10
0.476
 11
0.5
 20
-34.845
 21
-35
  0
LINE
  8
0
 10
0.5
 11
0.476
 20
-35
 21
-35.155
  0
LINE
  8
0
 10
0.476
 11
0.405
 20
-35.155
 21
-35.294
  0
LINE
  8
0
 10
0.405
 11
0.294
 20
-35.294
 21
-35.405
  0
LINE
  8
0
 10
0.294
 11
0.155
 20
-35.405
 21
-35.476
  0
LINE
  8
0
 10
0.155
 11
0
 20
-35.476
 21
-35.5
  0
LINE
  8
0
 10
0
 11
-0.155
 20
-35.5
 21
-35.476
  0
LINE
  8
0
 10
-0.155
 11
-0.294
 20
-35.476
 21
-35.405
  0
LINE
  8
0
 10
-0.294
 11
-0.405
 20
-35.405
 21
-35.294
  0
LINE
  8
0
 10
-0.405
 11
-0.476
 20
-35.294
 21
-35.155
  0
LINE
  8
0
 10
-0.476
 11
-0.5
 20
-35.155
 21
-35
  0
LINE
  8
0
 10
-0.5
 11
-0.476
 20
-31
 21
-30.845
  0
LINE
  8
0
 10
-0.476
 11
-0.405
 20
-30.845
 21
-30.706
  0
LINE
  8
0
 10
-0.405
 11
-0.294
 20
-30.706
 21
-30.595
  0
LINE
  8
0
 10
-0.294
 11
-0.155
 20
-30.595
 21
-30.524
  0
LINE
  8
0
 10
-0.155
 11
0
 20
-30.524
 21
-30.5
  0
LINE
  8
0
 10
0
 11
0.155
 20
-30.5
 21
-30.524
  0
LINE
  8
0
 10
0.155
 11
0.294
 20
-30.524
 21
-30.595
  0
LINE
  8
0
 10
0.294
 11
0.405
 20
-30.595
 21
-30.706
  0
LINE
  8
0
 10
0.405
 11
0.476
 20
-30.706
 21
-30.845
  0
LINE
  8
0
 10
0.476
 11
0.5
 20
-30.845
 21
-31
  0
LINE
  8
0
 10
0.5
 11
0.476
 20
-31
 21
-31.155
  0
LINE
  8
0
 10
0.476
 11
0.405
 20
-31.155
 21
-31.294
  0
LINE
  8
0
 10
0.405
 11
0.294
 20
-31.294
 21
-31.405
  0
LINE
  8
0
 10
0.294
 11
0.155
 20
-31.405
 21
-31.476
  0
LINE
  8
0
 10
0.155
 11
0
 20
-31.476
 21
-31.5
  0
LINE
  8
0
 10
0
 11
-0.155
 20
-31.5
 21
-31.476
  0
LINE
  8
0
 10
-0.155
 11
-0.294
 20
-31.476
 21
-31.405
  0
LINE
  8
0
 10
-0.294
 11
-0.405
 20
-31.405
 21
-31.294
  0
LINE
  8
0
 10
-0.405
 11
-0.476
 20
-31.294
 21
-31.155
  0
LINE
  8
0
 10
-0.476
 11
-0.5
 20
-31.155
 21
-31
  0
ENDSEC
  0
SECTION
  2
OBJECTS
  0
DICTIONARY
  0
ENDSEC
  0
EOF
