<?xml version="1.0" encoding="UTF-8" standalone="no"?>
<!-- Created with Inkscape (http://www.inkscape.org/) -->

<svg
   xmlns:dc="http://purl.org/dc/elements/1.1/"
   xmlns:cc="http://creativecommons.org/ns#"
   xmlns:rdf="http://www.w3.org/1999/02/22-rdf-syntax-ns#"
   xmlns:svg="http://www.w3.org/2000/svg"
   xmlns="http://www.w3.org/2000/svg"
   xmlns:sodipodi="http://sodipodi.sourceforge.net/DTD/sodipodi-0.dtd"
   xmlns:inkscape="http://www.inkscape.org/namespaces/inkscape"
   width="744.09448"
   height="1052.3622"
   id="svg2"
   version="1.1"
   inkscape:version="0.47 r22583"
   sodipodi:docname="holes.svg">
  <defs
     id="defs4">
    <inkscape:perspective
       sodipodi:type="inkscape:persp3d"
       inkscape:vp_x="0 : 526.18109 : 1"
       inkscape:vp_y="0 : 1000 : 0"
       inkscape:vp_z="744.09448 : 526.18109 : 1"
       inkscape:persp3d-origin="372.04724 : 350.78739 : 1"
       id="perspective10" />
    <inkscape:perspective
       id="perspective3140"
       inkscape:persp3d-origin="0.5 : 0.33333333 : 1"
       inkscape:vp_z="1 : 0.5 : 1"
       inkscape:vp_y="0 : 1000 : 0"
       inkscape:vp_x="0 : 0.5 : 1"
       sodipodi:type="inkscape:persp3d" />
    <inkscape:perspective
       id="perspective3208"
       inkscape:persp3d-origin="0.5 : 0.33333333 : 1"
       inkscape:vp_z="1 : 0.5 : 1"
       inkscape:vp_y="0 : 1000 : 0"
       inkscape:vp_x="0 : 0.5 : 1"
       sodipodi:type="inkscape:persp3d" />
    <inkscape:perspective
       id="perspective3230"
       inkscape:persp3d-origin="0.5 : 0.33333333 : 1"
       inkscape:vp_z="1 : 0.5 : 1"
       inkscape:vp_y="0 : 1000 : 0"
       inkscape:vp_x="0 : 0.5 : 1"
       sodipodi:type="inkscape:persp3d" />
    <inkscape:perspective
       id="perspective3254"
       inkscape:persp3d-origin="0.5 : 0.33333333 : 1"
       inkscape:vp_z="1 : 0.5 : 1"
       inkscape:vp_y="0 : 1000 : 0"
       inkscape:vp_x="0 : 0.5 : 1"
       sodipodi:type="inkscape:persp3d" />
    <inkscape:perspective
       id="perspective3339"
       inkscape:persp3d-origin="0.5 : 0.33333333 : 1"
       inkscape:vp_z="1 : 0.5 : 1"
       inkscape:vp_y="0 : 1000 : 0"
       inkscape:vp_x="0 : 0.5 : 1"
       sodipodi:type="inkscape:persp3d" />
  </defs>
  <sodipodi:namedview
     id="base"
     pagecolor="#ffffff"
     bordercolor="#666666"
     borderopacity="1.0"
     inkscape:pageopacity="0.0"
     inkscape:pageshadow="2"
     inkscape:zoom="0.90841942"
     inkscape:cx="691.3489"
     inkscape:cy="779.39488"
     inkscape:document-units="mm"
     inkscape:current-layer="layer1"
     showgrid="true"
     inkscape:snap-global="true"
     units="mm"
     inkscape:window-width="1600"
     inkscape:window-height="1125"
     inkscape:window-x="0"
     inkscape:window-y="25"
     inkscape:window-maximized="1">
    <inkscape:grid
       type="xygrid"
       id="grid2816"
       empspacing="5"
       visible="true"
       enabled="true"
       snapvisiblegridlinesonly="true"
       units="mm"
       spacingx="1mm"
       spacingy="1mm" />
  </sodipodi:namedview>
  <metadata
     id="metadata7">
    <rdf:RDF>
      <cc:Work
         rdf:about="">
        <dc:format>image/svg+xml</dc:format>
        <dc:type
           rdf:resource="http://purl.org/dc/dcmitype/StillImage" />
        <dc:title />
      </cc:Work>
    </rdf:RDF>
  </metadata>
  <g
     inkscape:label="Layer 1"
     inkscape:groupmode="layer"
     id="layer1"
     transform="translate(0,-2.5390623e-6)">
    <rect
       style="opacity:0.53480003;fill:#ff00ff;fill-opacity:1"
       id="rect2962"
       width="1427.2443"
       height="92.125984"
       x="-364.25214"
       y="226.77164" />
    <path
       sodipodi:type="arc"
       style="fill:#000000;fill-opacity:1"
       id="path2818"
       sodipodi:cx="142.85715"
       sodipodi:cy="335.21933"
       sodipodi:rx="17.142857"
       sodipodi:ry="14.285714"
       d="m 160,335.21933 c 0,7.88978 -7.67511,14.28571 -17.14285,14.28571 -9.46774,0 -17.14286,-6.39593 -17.14286,-14.28571 0,-7.88978 7.67512,-14.28571 17.14286,-14.28571 9.46774,0 17.14285,6.39593 17.14285,14.28571 z"
       transform="matrix(0.31003938,0,0,0.37204725,164.76378,155.20381)" />
    <path
       sodipodi:type="arc"
       style="fill:#000000;fill-opacity:1"
       id="path2838"
       sodipodi:cx="79.724411"
       sodipodi:cy="228.54329"
       sodipodi:rx="8.8582678"
       sodipodi:ry="8.8582678"
       d="m 88.582679,228.54329 a 8.8582678,8.8582678 0 1 1 -17.716536,0 8.8582678,8.8582678 0 1 1 17.716536,0 z"
       transform="matrix(1.2,0,0,1.2,-25.006694,-1.2846412)" />
    <path
       transform="matrix(1.2,0,0,1.2,588.13937,-1.6228328)"
       d="m 88.582679,228.54329 a 8.8582678,8.8582678 0 1 1 -17.716536,0 8.8582678,8.8582678 0 1 1 17.716536,0 z"
       sodipodi:ry="8.8582678"
       sodipodi:rx="8.8582678"
       sodipodi:cy="228.54329"
       sodipodi:cx="79.724411"
       id="path2840"
       style="fill:#000000;fill-opacity:1"
       sodipodi:type="arc" />
    <rect
       style="fill:#000000;fill-opacity:1"
       id="rect2908"
       width="10.629921"
       height="106.29921"
       x="31.787008"
       y="219.68501" />
    <rect
       style="fill:#000000;fill-opacity:1"
       id="rect2906"
       width="10.629921"
       height="106.29921"
       x="712.3075"
       y="219.68501" />
    <rect
       y="382.77161"
       x="-364.25214"
       height="92.125984"
       width="1427.2443"
       id="rect3154"
       style="opacity:0.53480003;fill:#ff00ff;fill-opacity:1" />
    <path
       transform="matrix(0.31003938,0,0,0.37204725,164.76378,314.74712)"
       d="m 160,335.21933 c 0,7.88978 -7.67511,14.28571 -17.14285,14.28571 -9.46774,0 -17.14286,-6.39593 -17.14286,-14.28571 0,-7.88978 7.67512,-14.28571 17.14286,-14.28571 9.46774,0 17.14285,6.39593 17.14285,14.28571 z"
       sodipodi:ry="14.285714"
       sodipodi:rx="17.142857"
       sodipodi:cy="335.21933"
       sodipodi:cx="142.85715"
       id="path2946"
       style="fill:#000000;fill-opacity:1"
       sodipodi:type="arc" />
    <path
       sodipodi:type="arc"
       style="fill:#000000;fill-opacity:1"
       id="path2948"
       sodipodi:cx="142.85715"
       sodipodi:cy="335.21933"
       sodipodi:rx="17.142857"
       sodipodi:ry="14.285714"
       d="m 160,335.21933 c 0,7.88978 -7.67511,14.28571 -17.14285,14.28571 -9.46774,0 -17.14286,-6.39593 -17.14286,-14.28571 0,-7.88978 7.67512,-14.28571 17.14286,-14.28571 9.46774,0 17.14285,6.39593 17.14285,14.28571 z"
       transform="matrix(0.31003938,0,0,0.37204725,504.92126,314.74712)" />
    <rect
       y="375.685"
       x="31.787008"
       height="106.29921"
       width="10.629921"
       id="rect2954"
       style="fill:#000000;fill-opacity:1" />
    <rect
       y="375.68463"
       x="712.3075"
       height="106.29921"
       width="10.629921"
       id="rect2956"
       style="fill:#000000;fill-opacity:1" />
    <path
       style="fill:#000000;fill-opacity:1"
       d="m 224.15747,400.78738 191.79527,0 0,50.063 -191.79527,0 0,-50.063 z"
       id="rect2958"
       sodipodi:nodetypes="ccccc" />
    <path
       sodipodi:type="arc"
       style="fill:#000000;fill-opacity:1"
       id="path3014"
       sodipodi:cx="-49.6063"
       sodipodi:cy="207.28345"
       sodipodi:rx="3.5433071"
       sodipodi:ry="1.7716535"
       d="m -46.062993,207.28345 c 0,0.97845 -1.586393,1.77165 -3.543307,1.77165 -1.956915,0 -3.543307,-0.7932 -3.543307,-1.77165 0,-0.97846 1.586392,-1.77166 3.543307,-1.77166 1.956914,0 3.543307,0.7932 3.543307,1.77166 z"
       transform="matrix(0.5,0,0,1,62.007875,116.92912)" />
    <path
       sodipodi:type="arc"
       style="fill:#000000;fill-opacity:1"
       id="path3014-3"
       sodipodi:cx="-49.6063"
       sodipodi:cy="207.28345"
       sodipodi:rx="3.5433071"
       sodipodi:ry="1.7716535"
       d="m -46.062993,207.28345 c 0,0.97845 -1.586393,1.77165 -3.543307,1.77165 -1.956915,0 -3.543307,-0.7932 -3.543307,-1.77165 0,-0.97846 1.586392,-1.77166 3.543307,-1.77166 1.956914,0 3.543307,0.7932 3.543307,1.77166 z"
       transform="matrix(0.5,0,0,1,62.007875,272.92911)" />
    <rect
       style="fill:#000000;fill-opacity:1"
       id="rect3185"
       width="35.433067"
       height="35.433094"
       x="-230.31496"
       y="591.73224" />
    <path
       sodipodi:type="arc"
       style="fill:#000000;fill-opacity:1"
       id="path2818-0"
       sodipodi:cx="142.85715"
       sodipodi:cy="335.21933"
       sodipodi:rx="17.142857"
       sodipodi:ry="14.285714"
       d="m 160,335.21933 c 0,7.88978 -7.67511,14.28571 -17.14285,14.28571 -9.46774,0 -17.14286,-6.39593 -17.14286,-14.28571 0,-7.88978 7.67512,-14.28571 17.14286,-14.28571 9.46774,0 17.14285,6.39593 17.14285,14.28571 z"
       transform="matrix(0.31003938,0,0,0.37204725,-31.992522,148.11719)" />
    <path
       sodipodi:type="arc"
       style="fill:#000000;fill-opacity:1"
       id="path2818-0-5"
       sodipodi:cx="142.85715"
       sodipodi:cy="335.21933"
       sodipodi:rx="17.142857"
       sodipodi:ry="14.285714"
       d="m 160,335.21933 c 0,7.88978 -7.67511,14.28571 -17.14285,14.28571 -9.46774,0 -17.14286,-6.39593 -17.14286,-14.28571 0,-7.88978 7.67512,-14.28571 17.14286,-14.28571 9.46774,0 17.14285,6.39593 17.14285,14.28571 z"
       transform="matrix(0.31003938,0,0,0.37204725,701.55,148.11719)" />
    <path
       sodipodi:type="arc"
       style="fill:#000000;fill-opacity:1"
       id="path2818-0-2"
       sodipodi:cx="142.85715"
       sodipodi:cy="335.21933"
       sodipodi:rx="17.142857"
       sodipodi:ry="14.285714"
       d="m 160,335.21933 c 0,7.88978 -7.67511,14.28571 -17.14285,14.28571 -9.46774,0 -17.14286,-6.39593 -17.14286,-14.28571 0,-7.88978 7.67512,-14.28571 17.14286,-14.28571 9.46774,0 17.14285,6.39593 17.14285,14.28571 z"
       transform="matrix(0.10334646,0,0,0.12401575,-5.9055127,284.6401)" />
    <path
       sodipodi:type="arc"
       style="fill:#000000;fill-opacity:1"
       id="path2818-0-2-8"
       sodipodi:cx="142.85715"
       sodipodi:cy="335.21933"
       sodipodi:rx="17.142857"
       sodipodi:ry="14.285714"
       d="m 160,335.21933 c 0,7.88978 -7.67511,14.28571 -17.14285,14.28571 -9.46774,0 -17.14286,-6.39593 -17.14286,-14.28571 0,-7.88978 7.67512,-14.28571 17.14286,-14.28571 9.46774,0 17.14285,6.39593 17.14285,14.28571 z"
       transform="matrix(0.10334646,0,0,0.12401575,-5.9055127,438.64008)" />
    <path
       transform="matrix(0.31003938,0,0,0.37204725,465.94488,155.20381)"
       d="m 160,335.21933 a 17.142857,14.285714 0 1 1 -34.28571,0 17.142857,14.285714 0 1 1 34.28571,0 z"
       sodipodi:ry="14.285714"
       sodipodi:rx="17.142857"
       sodipodi:cy="335.21933"
       sodipodi:cx="142.85715"
       id="path2849"
       style="fill:#000000;fill-opacity:1"
       sodipodi:type="arc" />
    <path
       transform="matrix(0.31003938,0,0,0.37204725,349.01575,123.31405)"
       d="m 160,335.21933 a 17.142857,14.285714 0 1 1 -34.28571,0 17.142857,14.285714 0 1 1 34.28571,0 z"
       sodipodi:ry="14.285714"
       sodipodi:rx="17.142857"
       sodipodi:cy="335.21933"
       sodipodi:cx="142.85715"
       id="path2851"
       style="fill:#000000;fill-opacity:1"
       sodipodi:type="arc" />
  </g>
</svg>
