  0
SECTION
  2
BLOCKS
  0
ENDSEC
  0
SECTION
  2
ENTITIES
  0
LINE
  8
0
 10
-13.055
 11
-13.055
 20
11.179
 21
11.921
  0
LINE
  8
0
 10
-13.055
 11
-12.71
 20
11.921
 21
12.578
  0
LINE
  8
0
 10
-12.71
 11
-12.1
 20
12.578
 21
12.999
  0
LINE
  8
0
 10
-12.1
 11
-11.363
 20
12.999
 21
13.089
  0
LINE
  8
0
 10
-11.363
 11
-10.67
 20
13.089
 21
12.826
  0
LINE
  8
0
 10
-10.67
 11
-10.178
 20
12.826
 21
12.27
  0
LINE
  8
0
 10
-10.178
 11
-10
 20
12.27
 21
11.55
  0
LINE
  8
0
 10
-10
 11
-10.178
 20
11.55
 21
10.83
  0
LINE
  8
0
 10
-10.178
 11
-10.67
 20
10.83
 21
10.274
  0
LINE
  8
0
 10
-10.67
 11
-11.363
 20
10.274
 21
10.011
  0
LINE
  8
0
 10
-11.363
 11
-12.1
 20
10.011
 21
10.101
  0
LINE
  8
0
 10
-12.1
 11
-12.71
 20
10.101
 21
10.522
  0
LINE
  8
0
 10
-12.71
 11
-13.055
 20
10.522
 21
11.179
  0
LINE
  8
0
 10
-2.755
 11
-2.755
 20
-11.021
 21
-10.279
  0
LINE
  8
0
 10
-2.755
 11
-2.41
 20
-10.279
 21
-9.622
  0
LINE
  8
0
 10
-2.41
 11
-1.8
 20
-9.622
 21
-9.201
  0
LINE
  8
0
 10
-1.8
 11
-1.063
 20
-9.201
 21
-9.111
  0
LINE
  8
0
 10
-1.063
 11
-0.37
 20
-9.111
 21
-9.374
  0
LINE
  8
0
 10
-0.37
 11
0.122
 20
-9.374
 21
-9.93
  0
LINE
  8
0
 10
0.122
 11
0.3
 20
-9.93
 21
-10.65
  0
LINE
  8
0
 10
0.3
 11
0.122
 20
-10.65
 21
-11.37
  0
LINE
  8
0
 10
0.122
 11
-0.37
 20
-11.37
 21
-11.926
  0
LINE
  8
0
 10
-0.37
 11
-1.063
 20
-11.926
 21
-12.189
  0
LINE
  8
0
 10
-1.063
 11
-1.8
 20
-12.189
 21
-12.099
  0
LINE
  8
0
 10
-1.8
 11
-2.41
 20
-12.099
 21
-11.678
  0
LINE
  8
0
 10
-2.41
 11
-2.755
 20
-11.678
 21
-11.021
  0
LINE
  8
0
 10
-14.55
 11
-14.55
 20
-12.5
 21
12.5
  0
LINE
  8
0
 10
-14.55
 11
-14.398
 20
12.5
 21
13.265
  0
LINE
  8
0
 10
-14.398
 11
-13.964
 20
13.265
 21
13.914
  0
LINE
  8
0
 10
-13.964
 11
-13.315
 20
13.914
 21
14.348
  0
LINE
  8
0
 10
-13.315
 11
-12.55
 20
14.348
 21
14.5
  0
LINE
  8
0
 10
-12.55
 11
12.55
 20
14.5
 21
14.5
  0
LINE
  8
0
 10
12.55
 11
13.315
 20
14.5
 21
14.348
  0
LINE
  8
0
 10
13.315
 11
13.964
 20
14.348
 21
13.914
  0
LINE
  8
0
 10
13.964
 11
14.398
 20
13.914
 21
13.265
  0
LINE
  8
0
 10
14.398
 11
14.55
 20
13.265
 21
12.5
  0
LINE
  8
0
 10
14.55
 11
14.55
 20
12.5
 21
5.4
  0
LINE
  8
0
 10
14.55
 11
5
 20
5.4
 21
5.4
  0
LINE
  8
0
 10
5
 11
5
 20
5.4
 21
-14.5
  0
LINE
  8
0
 10
5
 11
-12.55
 20
-14.5
 21
-14.5
  0
LINE
  8
0
 10
-12.55
 11
-13.315
 20
-14.5
 21
-14.348
  0
LINE
  8
0
 10
-13.315
 11
-13.964
 20
-14.348
 21
-13.914
  0
LINE
  8
0
 10
-13.964
 11
-14.398
 20
-13.914
 21
-13.265
  0
LINE
  8
0
 10
-14.398
 11
-14.55
 20
-13.265
 21
-12.5
  0
LINE
  8
0
 10
10.045
 11
10.045
 20
9.579
 21
10.321
  0
LINE
  8
0
 10
10.045
 11
10.39
 20
10.321
 21
10.978
  0
LINE
  8
0
 10
10.39
 11
11
 20
10.978
 21
11.399
  0
LINE
  8
0
 10
11
 11
11.737
 20
11.399
 21
11.489
  0
LINE
  8
0
 10
11.737
 11
12.43
 20
11.489
 21
11.226
  0
LINE
  8
0
 10
12.43
 11
12.922
 20
11.226
 21
10.67
  0
LINE
  8
0
 10
12.922
 11
13.1
 20
10.67
 21
9.95
  0
LINE
  8
0
 10
13.1
 11
12.922
 20
9.95
 21
9.23
  0
LINE
  8
0
 10
12.922
 11
12.43
 20
9.23
 21
8.674
  0
LINE
  8
0
 10
12.43
 11
11.737
 20
8.674
 21
8.411
  0
LINE
  8
0
 10
11.737
 11
11
 20
8.411
 21
8.501
  0
LINE
  8
0
 10
11
 11
10.39
 20
8.501
 21
8.922
  0
LINE
  8
0
 10
10.39
 11
10.045
 20
8.922
 21
9.579
  0
ENDSEC
  0
SECTION
  2
OBJECTS
  0
DICTIONARY
  0
ENDSEC
  0
EOF
