  0
SECTION
  2
BLOCKS
  0
ENDSEC
  0
SECTION
  2
ENTITIES
  0
LINE
  8
0
 10
-20
 11
-20
 20
-18
 21
63
  0
LINE
  8
0
 10
-20
 11
-19.848
 20
63
 21
63.765
  0
LINE
  8
0
 10
-19.848
 11
-19.414
 20
63.765
 21
64.414
  0
LINE
  8
0
 10
-19.414
 11
-18.765
 20
64.414
 21
64.848
  0
LINE
  8
0
 10
-18.765
 11
-18
 20
64.848
 21
65
  0
LINE
  8
0
 10
-18
 11
18
 20
65
 21
65
  0
LINE
  8
0
 10
18
 11
18.765
 20
65
 21
64.848
  0
LINE
  8
0
 10
18.765
 11
19.414
 20
64.848
 21
64.414
  0
LINE
  8
0
 10
19.414
 11
19.848
 20
64.414
 21
63.765
  0
LINE
  8
0
 10
19.848
 11
20
 20
63.765
 21
63
  0
LINE
  8
0
 10
20
 11
20
 20
63
 21
-18
  0
LINE
  8
0
 10
20
 11
19.848
 20
-18
 21
-18.765
  0
LINE
  8
0
 10
19.848
 11
19.414
 20
-18.765
 21
-19.414
  0
LINE
  8
0
 10
19.414
 11
18.765
 20
-19.414
 21
-19.848
  0
LINE
  8
0
 10
18.765
 11
18
 20
-19.848
 21
-20
  0
LINE
  8
0
 10
18
 11
-18
 20
-20
 21
-20
  0
LINE
  8
0
 10
-18
 11
-18.765
 20
-20
 21
-19.848
  0
LINE
  8
0
 10
-18.765
 11
-19.414
 20
-19.848
 21
-19.414
  0
LINE
  8
0
 10
-19.414
 11
-19.848
 20
-19.414
 21
-18.765
  0
LINE
  8
0
 10
-19.848
 11
-20
 20
-18.765
 21
-18
  0
LINE
  8
0
 10
-17.655
 11
-17.655
 20
61.229
 21
61.971
  0
LINE
  8
0
 10
-17.655
 11
-17.31
 20
61.971
 21
62.628
  0
LINE
  8
0
 10
-17.31
 11
-16.7
 20
62.628
 21
63.049
  0
LINE
  8
0
 10
-16.7
 11
-15.963
 20
63.049
 21
63.139
  0
LINE
  8
0
 10
-15.963
 11
-15.269
 20
63.139
 21
62.876
  0
LINE
  8
0
 10
-15.269
 11
-14.778
 20
62.876
 21
62.32
  0
LINE
  8
0
 10
-14.778
 11
-14.6
 20
62.32
 21
61.6
  0
LINE
  8
0
 10
-14.6
 11
-14.778
 20
61.6
 21
60.88
  0
LINE
  8
0
 10
-14.778
 11
-15.269
 20
60.88
 21
60.324
  0
LINE
  8
0
 10
-15.269
 11
-15.963
 20
60.324
 21
60.061
  0
LINE
  8
0
 10
-15.963
 11
-16.7
 20
60.061
 21
60.151
  0
LINE
  8
0
 10
-16.7
 11
-17.31
 20
60.151
 21
60.572
  0
LINE
  8
0
 10
-17.31
 11
-17.655
 20
60.572
 21
61.229
  0
LINE
  8
0
 10
-17.005
 11
-17.005
 20
-15.871
 21
-15.129
  0
LINE
  8
0
 10
-17.005
 11
-16.66
 20
-15.129
 21
-14.472
  0
LINE
  8
0
 10
-16.66
 11
-16.05
 20
-14.472
 21
-14.051
  0
LINE
  8
0
 10
-16.05
 11
-15.313
 20
-14.051
 21
-13.961
  0
LINE
  8
0
 10
-15.313
 11
-14.619
 20
-13.961
 21
-14.224
  0
LINE
  8
0
 10
-14.619
 11
-14.128
 20
-14.224
 21
-14.78
  0
LINE
  8
0
 10
-14.128
 11
-13.95
 20
-14.78
 21
-15.5
  0
LINE
  8
0
 10
-13.95
 11
-14.128
 20
-15.5
 21
-16.22
  0
LINE
  8
0
 10
-14.128
 11
-14.619
 20
-16.22
 21
-16.776
  0
LINE
  8
0
 10
-14.619
 11
-15.313
 20
-16.776
 21
-17.039
  0
LINE
  8
0
 10
-15.313
 11
-16.05
 20
-17.039
 21
-16.949
  0
LINE
  8
0
 10
-16.05
 11
-16.66
 20
-16.949
 21
-16.528
  0
LINE
  8
0
 10
-16.66
 11
-17.005
 20
-16.528
 21
-15.871
  0
LINE
  8
0
 10
-17.005
 11
-17.005
 20
15.129
 21
15.871
  0
LINE
  8
0
 10
-17.005
 11
-16.66
 20
15.871
 21
16.528
  0
LINE
  8
0
 10
-16.66
 11
-16.05
 20
16.528
 21
16.949
  0
LINE
  8
0
 10
-16.05
 11
-15.313
 20
16.949
 21
17.039
  0
LINE
  8
0
 10
-15.313
 11
-14.619
 20
17.039
 21
16.776
  0
LINE
  8
0
 10
-14.619
 11
-14.128
 20
16.776
 21
16.22
  0
LINE
  8
0
 10
-14.128
 11
-13.95
 20
16.22
 21
15.5
  0
LINE
  8
0
 10
-13.95
 11
-14.128
 20
15.5
 21
14.78
  0
LINE
  8
0
 10
-14.128
 11
-14.619
 20
14.78
 21
14.224
  0
LINE
  8
0
 10
-14.619
 11
-15.313
 20
14.224
 21
13.961
  0
LINE
  8
0
 10
-15.313
 11
-16.05
 20
13.961
 21
14.051
  0
LINE
  8
0
 10
-16.05
 11
-16.66
 20
14.051
 21
14.472
  0
LINE
  8
0
 10
-16.66
 11
-17.005
 20
14.472
 21
15.129
  0
LINE
  8
0
 10
-16
 11
-16
 20
44.4
 21
47.5
  0
LINE
  8
0
 10
-16
 11
16
 20
47.5
 21
47.5
  0
LINE
  8
0
 10
16
 11
16
 20
47.5
 21
44.4
  0
LINE
  8
0
 10
16
 11
-16
 20
44.4
 21
44.4
  0
LINE
  8
0
 10
-11.05
 11
-10.882
 20
0
 21
1.919
  0
LINE
  8
0
 10
-10.882
 11
-10.384
 20
1.919
 21
3.779
  0
LINE
  8
0
 10
-10.384
 11
-9.57
 20
3.779
 21
5.525
  0
LINE
  8
0
 10
-9.57
 11
-8.465
 20
5.525
 21
7.103
  0
LINE
  8
0
 10
-8.465
 11
-7.103
 20
7.103
 21
8.465
  0
LINE
  8
0
 10
-7.103
 11
-5.525
 20
8.465
 21
9.57
  0
LINE
  8
0
 10
-5.525
 11
-3.779
 20
9.57
 21
10.384
  0
LINE
  8
0
 10
-3.779
 11
-1.919
 20
10.384
 21
10.882
  0
LINE
  8
0
 10
-1.919
 11
0
 20
10.882
 21
11.05
  0
LINE
  8
0
 10
0
 11
1.919
 20
11.05
 21
10.882
  0
LINE
  8
0
 10
1.919
 11
3.779
 20
10.882
 21
10.384
  0
LINE
  8
0
 10
3.779
 11
5.525
 20
10.384
 21
9.57
  0
LINE
  8
0
 10
5.525
 11
7.103
 20
9.57
 21
8.465
  0
LINE
  8
0
 10
7.103
 11
8.465
 20
8.465
 21
7.103
  0
LINE
  8
0
 10
8.465
 11
9.57
 20
7.103
 21
5.525
  0
LINE
  8
0
 10
9.57
 11
10.384
 20
5.525
 21
3.779
  0
LINE
  8
0
 10
10.384
 11
10.882
 20
3.779
 21
1.919
  0
LINE
  8
0
 10
10.882
 11
11.05
 20
1.919
 21
0
  0
LINE
  8
0
 10
11.05
 11
10.882
 20
0
 21
-1.919
  0
LINE
  8
0
 10
10.882
 11
10.384
 20
-1.919
 21
-3.779
  0
LINE
  8
0
 10
10.384
 11
9.57
 20
-3.779
 21
-5.525
  0
LINE
  8
0
 10
9.57
 11
8.465
 20
-5.525
 21
-7.103
  0
LINE
  8
0
 10
8.465
 11
7.103
 20
-7.103
 21
-8.465
  0
LINE
  8
0
 10
7.103
 11
5.525
 20
-8.465
 21
-9.57
  0
LINE
  8
0
 10
5.525
 11
3.779
 20
-9.57
 21
-10.384
  0
LINE
  8
0
 10
3.779
 11
1.919
 20
-10.384
 21
-10.882
  0
LINE
  8
0
 10
1.919
 11
0
 20
-10.882
 21
-11.05
  0
LINE
  8
0
 10
0
 11
-1.919
 20
-11.05
 21
-10.882
  0
LINE
  8
0
 10
-1.919
 11
-3.779
 20
-10.882
 21
-10.384
  0
LINE
  8
0
 10
-3.779
 11
-5.525
 20
-10.384
 21
-9.57
  0
LINE
  8
0
 10
-5.525
 11
-7.103
 20
-9.57
 21
-8.465
  0
LINE
  8
0
 10
-7.103
 11
-8.465
 20
-8.465
 21
-7.103
  0
LINE
  8
0
 10
-8.465
 11
-9.57
 20
-7.103
 21
-5.525
  0
LINE
  8
0
 10
-9.57
 11
-10.384
 20
-5.525
 21
-3.779
  0
LINE
  8
0
 10
-10.384
 11
-10.882
 20
-3.779
 21
-1.919
  0
LINE
  8
0
 10
-10.882
 11
-11.05
 20
-1.919
 21
0
  0
LINE
  8
0
 10
-7.355
 11
-7.355
 20
39.029
 21
39.771
  0
LINE
  8
0
 10
-7.355
 11
-7.01
 20
39.771
 21
40.428
  0
LINE
  8
0
 10
-7.01
 11
-6.4
 20
40.428
 21
40.849
  0
LINE
  8
0
 10
-6.4
 11
-5.663
 20
40.849
 21
40.939
  0
LINE
  8
0
 10
-5.663
 11
-4.97
 20
40.939
 21
40.676
  0
LINE
  8
0
 10
-4.97
 11
-4.478
 20
40.676
 21
40.12
  0
LINE
  8
0
 10
-4.478
 11
-4.3
 20
40.12
 21
39.4
  0
LINE
  8
0
 10
-4.3
 11
-4.478
 20
39.4
 21
38.68
  0
LINE
  8
0
 10
-4.478
 11
-4.97
 20
38.68
 21
38.124
  0
LINE
  8
0
 10
-4.97
 11
-5.663
 20
38.124
 21
37.861
  0
LINE
  8
0
 10
-5.663
 11
-6.4
 20
37.861
 21
37.951
  0
LINE
  8
0
 10
-6.4
 11
-7.01
 20
37.951
 21
38.372
  0
LINE
  8
0
 10
-7.01
 11
-7.355
 20
38.372
 21
39.029
  0
LINE
  8
0
 10
6.045
 11
6.045
 20
59.629
 21
60.371
  0
LINE
  8
0
 10
6.045
 11
6.39
 20
60.371
 21
61.028
  0
LINE
  8
0
 10
6.39
 11
7
 20
61.028
 21
61.449
  0
LINE
  8
0
 10
7
 11
7.737
 20
61.449
 21
61.539
  0
LINE
  8
0
 10
7.737
 11
8.431
 20
61.539
 21
61.276
  0
LINE
  8
0
 10
8.431
 11
8.922
 20
61.276
 21
60.72
  0
LINE
  8
0
 10
8.922
 11
9.1
 20
60.72
 21
60
  0
LINE
  8
0
 10
9.1
 11
8.922
 20
60
 21
59.28
  0
LINE
  8
0
 10
8.922
 11
8.431
 20
59.28
 21
58.724
  0
LINE
  8
0
 10
8.431
 11
7.737
 20
58.724
 21
58.461
  0
LINE
  8
0
 10
7.737
 11
7
 20
58.461
 21
58.551
  0
LINE
  8
0
 10
7
 11
6.39
 20
58.551
 21
58.972
  0
LINE
  8
0
 10
6.39
 11
6.045
 20
58.972
 21
59.629
  0
LINE
  8
0
 10
13.995
 11
13.995
 20
-15.871
 21
-15.129
  0
LINE
  8
0
 10
13.995
 11
14.34
 20
-15.129
 21
-14.472
  0
LINE
  8
0
 10
14.34
 11
14.95
 20
-14.472
 21
-14.051
  0
LINE
  8
0
 10
14.95
 11
15.687
 20
-14.051
 21
-13.961
  0
LINE
  8
0
 10
15.687
 11
16.38
 20
-13.961
 21
-14.224
  0
LINE
  8
0
 10
16.38
 11
16.872
 20
-14.224
 21
-14.78
  0
LINE
  8
0
 10
16.872
 11
17.05
 20
-14.78
 21
-15.5
  0
LINE
  8
0
 10
17.05
 11
16.872
 20
-15.5
 21
-16.22
  0
LINE
  8
0
 10
16.872
 11
16.38
 20
-16.22
 21
-16.776
  0
LINE
  8
0
 10
16.38
 11
15.687
 20
-16.776
 21
-17.039
  0
LINE
  8
0
 10
15.687
 11
14.95
 20
-17.039
 21
-16.949
  0
LINE
  8
0
 10
14.95
 11
14.34
 20
-16.949
 21
-16.528
  0
LINE
  8
0
 10
14.34
 11
13.995
 20
-16.528
 21
-15.871
  0
LINE
  8
0
 10
13.995
 11
13.995
 20
15.129
 21
15.871
  0
LINE
  8
0
 10
13.995
 11
14.34
 20
15.871
 21
16.528
  0
LINE
  8
0
 10
14.34
 11
14.95
 20
16.528
 21
16.949
  0
LINE
  8
0
 10
14.95
 11
15.687
 20
16.949
 21
17.039
  0
LINE
  8
0
 10
15.687
 11
16.38
 20
17.039
 21
16.776
  0
LINE
  8
0
 10
16.38
 11
16.872
 20
16.776
 21
16.22
  0
LINE
  8
0
 10
16.872
 11
17.05
 20
16.22
 21
15.5
  0
LINE
  8
0
 10
17.05
 11
16.872
 20
15.5
 21
14.78
  0
LINE
  8
0
 10
16.872
 11
16.38
 20
14.78
 21
14.224
  0
LINE
  8
0
 10
16.38
 11
15.687
 20
14.224
 21
13.961
  0
LINE
  8
0
 10
15.687
 11
14.95
 20
13.961
 21
14.051
  0
LINE
  8
0
 10
14.95
 11
14.34
 20
14.051
 21
14.472
  0
LINE
  8
0
 10
14.34
 11
13.995
 20
14.472
 21
15.129
  0
ENDSEC
  0
SECTION
  2
OBJECTS
  0
DICTIONARY
  0
ENDSEC
  0
EOF
