  0
SECTION
  2
BLOCKS
  0
ENDSEC
  0
SECTION
  2
ENTITIES
  0
LINE
  8
0
 10
-13.3
 11
-13.3
 20
-12.5
 21
12.5
  0
LINE
  8
0
 10
-13.3
 11
-13.148
 20
12.5
 21
13.265
  0
LINE
  8
0
 10
-13.148
 11
-12.714
 20
13.265
 21
13.914
  0
LINE
  8
0
 10
-12.714
 11
-12.065
 20
13.914
 21
14.348
  0
LINE
  8
0
 10
-12.065
 11
-11.3
 20
14.348
 21
14.5
  0
LINE
  8
0
 10
-11.3
 11
11.3
 20
14.5
 21
14.5
  0
LINE
  8
0
 10
11.3
 11
12.065
 20
14.5
 21
14.348
  0
LINE
  8
0
 10
12.065
 11
12.714
 20
14.348
 21
13.914
  0
LINE
  8
0
 10
12.714
 11
13.148
 20
13.914
 21
13.265
  0
LINE
  8
0
 10
13.148
 11
13.3
 20
13.265
 21
12.5
  0
LINE
  8
0
 10
13.3
 11
13.3
 20
12.5
 21
5.4
  0
LINE
  8
0
 10
13.3
 11
5
 20
5.4
 21
5.4
  0
LINE
  8
0
 10
5
 11
5
 20
5.4
 21
-14.5
  0
LINE
  8
0
 10
5
 11
-11.3
 20
-14.5
 21
-14.5
  0
LINE
  8
0
 10
-11.3
 11
-12.065
 20
-14.5
 21
-14.348
  0
LINE
  8
0
 10
-12.065
 11
-12.714
 20
-14.348
 21
-13.914
  0
LINE
  8
0
 10
-12.714
 11
-13.148
 20
-13.914
 21
-13.265
  0
LINE
  8
0
 10
-13.148
 11
-13.3
 20
-13.265
 21
-12.5
  0
LINE
  8
0
 10
-11.805
 11
-11.805
 20
11.179
 21
11.921
  0
LINE
  8
0
 10
-11.805
 11
-11.46
 20
11.921
 21
12.578
  0
LINE
  8
0
 10
-11.46
 11
-10.85
 20
12.578
 21
12.999
  0
LINE
  8
0
 10
-10.85
 11
-10.113
 20
12.999
 21
13.089
  0
LINE
  8
0
 10
-10.113
 11
-9.42
 20
13.089
 21
12.826
  0
LINE
  8
0
 10
-9.42
 11
-8.928
 20
12.826
 21
12.27
  0
LINE
  8
0
 10
-8.928
 11
-8.75
 20
12.27
 21
11.55
  0
LINE
  8
0
 10
-8.75
 11
-8.928
 20
11.55
 21
10.83
  0
LINE
  8
0
 10
-8.928
 11
-9.42
 20
10.83
 21
10.274
  0
LINE
  8
0
 10
-9.42
 11
-10.113
 20
10.274
 21
10.011
  0
LINE
  8
0
 10
-10.113
 11
-10.85
 20
10.011
 21
10.101
  0
LINE
  8
0
 10
-10.85
 11
-11.46
 20
10.101
 21
10.522
  0
LINE
  8
0
 10
-11.46
 11
-11.805
 20
10.522
 21
11.179
  0
LINE
  8
0
 10
-1.505
 11
-1.505
 20
-11.021
 21
-10.279
  0
LINE
  8
0
 10
-1.505
 11
-1.16
 20
-10.279
 21
-9.622
  0
LINE
  8
0
 10
-1.16
 11
-0.55
 20
-9.622
 21
-9.201
  0
LINE
  8
0
 10
-0.55
 11
0.187
 20
-9.201
 21
-9.111
  0
LINE
  8
0
 10
0.187
 11
0.88
 20
-9.111
 21
-9.374
  0
LINE
  8
0
 10
0.88
 11
1.372
 20
-9.374
 21
-9.93
  0
LINE
  8
0
 10
1.372
 11
1.55
 20
-9.93
 21
-10.65
  0
LINE
  8
0
 10
1.55
 11
1.372
 20
-10.65
 21
-11.37
  0
LINE
  8
0
 10
1.372
 11
0.88
 20
-11.37
 21
-11.926
  0
LINE
  8
0
 10
0.88
 11
0.187
 20
-11.926
 21
-12.189
  0
LINE
  8
0
 10
0.187
 11
-0.55
 20
-12.189
 21
-12.099
  0
LINE
  8
0
 10
-0.55
 11
-1.16
 20
-12.099
 21
-11.678
  0
LINE
  8
0
 10
-1.16
 11
-1.505
 20
-11.678
 21
-11.021
  0
LINE
  8
0
 10
8.795
 11
8.795
 20
9.579
 21
10.321
  0
LINE
  8
0
 10
8.795
 11
9.14
 20
10.321
 21
10.978
  0
LINE
  8
0
 10
9.14
 11
9.75
 20
10.978
 21
11.399
  0
LINE
  8
0
 10
9.75
 11
10.487
 20
11.399
 21
11.489
  0
LINE
  8
0
 10
10.487
 11
11.181
 20
11.489
 21
11.226
  0
LINE
  8
0
 10
11.181
 11
11.672
 20
11.226
 21
10.67
  0
LINE
  8
0
 10
11.672
 11
11.85
 20
10.67
 21
9.95
  0
LINE
  8
0
 10
11.85
 11
11.672
 20
9.95
 21
9.23
  0
LINE
  8
0
 10
11.672
 11
11.181
 20
9.23
 21
8.674
  0
LINE
  8
0
 10
11.181
 11
10.487
 20
8.674
 21
8.411
  0
LINE
  8
0
 10
10.487
 11
9.75
 20
8.411
 21
8.501
  0
LINE
  8
0
 10
9.75
 11
9.14
 20
8.501
 21
8.922
  0
LINE
  8
0
 10
9.14
 11
8.795
 20
8.922
 21
9.579
  0
ENDSEC
  0
SECTION
  2
OBJECTS
  0
DICTIONARY
  0
ENDSEC
  0
EOF
