  0
SECTION
  2
BLOCKS
  0
ENDSEC
  0
SECTION
  2
ENTITIES
  0
LINE
  8
0
 10
-25.35
 11
-25.35
 20
-12.5
 21
12.5
  0
LINE
  8
0
 10
-25.35
 11
-25.198
 20
12.5
 21
13.265
  0
LINE
  8
0
 10
-25.198
 11
-24.764
 20
13.265
 21
13.914
  0
LINE
  8
0
 10
-24.764
 11
-24.115
 20
13.914
 21
14.348
  0
LINE
  8
0
 10
-24.115
 11
-23.35
 20
14.348
 21
14.5
  0
LINE
  8
0
 10
-23.35
 11
23.35
 20
14.5
 21
14.5
  0
LINE
  8
0
 10
23.35
 11
24.115
 20
14.5
 21
14.348
  0
LINE
  8
0
 10
24.115
 11
24.764
 20
14.348
 21
13.914
  0
LINE
  8
0
 10
24.764
 11
25.198
 20
13.914
 21
13.265
  0
LINE
  8
0
 10
25.198
 11
25.35
 20
13.265
 21
12.5
  0
LINE
  8
0
 10
25.35
 11
25.35
 20
12.5
 21
-12.5
  0
LINE
  8
0
 10
25.35
 11
25.198
 20
-12.5
 21
-13.265
  0
LINE
  8
0
 10
25.198
 11
24.764
 20
-13.265
 21
-13.914
  0
LINE
  8
0
 10
24.764
 11
24.115
 20
-13.914
 21
-14.348
  0
LINE
  8
0
 10
24.115
 11
23.35
 20
-14.348
 21
-14.5
  0
LINE
  8
0
 10
23.35
 11
15
 20
-14.5
 21
-14.5
  0
LINE
  8
0
 10
15
 11
15
 20
-14.5
 21
5.4
  0
LINE
  8
0
 10
15
 11
5
 20
5.4
 21
5.4
  0
LINE
  8
0
 10
5
 11
5
 20
5.4
 21
-14.5
  0
LINE
  8
0
 10
5
 11
-23.35
 20
-14.5
 21
-14.5
  0
LINE
  8
0
 10
-23.35
 11
-24.115
 20
-14.5
 21
-14.348
  0
LINE
  8
0
 10
-24.115
 11
-24.764
 20
-14.348
 21
-13.914
  0
LINE
  8
0
 10
-24.764
 11
-25.198
 20
-13.914
 21
-13.265
  0
LINE
  8
0
 10
-25.198
 11
-25.35
 20
-13.265
 21
-12.5
  0
LINE
  8
0
 10
-22.35
 11
-22.198
 20
0
 21
0.765
  0
LINE
  8
0
 10
-22.198
 11
-21.764
 20
0.765
 21
1.414
  0
LINE
  8
0
 10
-21.764
 11
-21.115
 20
1.414
 21
1.848
  0
LINE
  8
0
 10
-21.115
 11
-20.35
 20
1.848
 21
2
  0
LINE
  8
0
 10
-20.35
 11
-19.585
 20
2
 21
1.848
  0
LINE
  8
0
 10
-19.585
 11
-18.936
 20
1.848
 21
1.414
  0
LINE
  8
0
 10
-18.936
 11
-18.502
 20
1.414
 21
0.765
  0
LINE
  8
0
 10
-18.502
 11
-18.35
 20
0.765
 21
0
  0
LINE
  8
0
 10
-18.35
 11
-18.502
 20
0
 21
-0.765
  0
LINE
  8
0
 10
-18.502
 11
-18.936
 20
-0.765
 21
-1.414
  0
LINE
  8
0
 10
-18.936
 11
-19.585
 20
-1.414
 21
-1.848
  0
LINE
  8
0
 10
-19.585
 11
-20.35
 20
-1.848
 21
-2
  0
LINE
  8
0
 10
-20.35
 11
-21.115
 20
-2
 21
-1.848
  0
LINE
  8
0
 10
-21.115
 11
-21.764
 20
-1.848
 21
-1.414
  0
LINE
  8
0
 10
-21.764
 11
-22.198
 20
-1.414
 21
-0.765
  0
LINE
  8
0
 10
-22.198
 11
-22.35
 20
-0.765
 21
0
  0
LINE
  8
0
 10
-13.855
 11
-13.855
 20
11.179
 21
11.921
  0
LINE
  8
0
 10
-13.855
 11
-13.51
 20
11.921
 21
12.578
  0
LINE
  8
0
 10
-13.51
 11
-12.9
 20
12.578
 21
12.999
  0
LINE
  8
0
 10
-12.9
 11
-12.163
 20
12.999
 21
13.089
  0
LINE
  8
0
 10
-12.163
 11
-11.47
 20
13.089
 21
12.826
  0
LINE
  8
0
 10
-11.47
 11
-10.978
 20
12.826
 21
12.27
  0
LINE
  8
0
 10
-10.978
 11
-10.8
 20
12.27
 21
11.55
  0
LINE
  8
0
 10
-10.8
 11
-10.978
 20
11.55
 21
10.83
  0
LINE
  8
0
 10
-10.978
 11
-11.47
 20
10.83
 21
10.274
  0
LINE
  8
0
 10
-11.47
 11
-12.163
 20
10.274
 21
10.011
  0
LINE
  8
0
 10
-12.163
 11
-12.9
 20
10.011
 21
10.101
  0
LINE
  8
0
 10
-12.9
 11
-13.51
 20
10.101
 21
10.522
  0
LINE
  8
0
 10
-13.51
 11
-13.855
 20
10.522
 21
11.179
  0
LINE
  8
0
 10
-3.555
 11
-3.555
 20
-11.021
 21
-10.279
  0
LINE
  8
0
 10
-3.555
 11
-3.21
 20
-10.279
 21
-9.622
  0
LINE
  8
0
 10
-3.21
 11
-2.6
 20
-9.622
 21
-9.201
  0
LINE
  8
0
 10
-2.6
 11
-1.863
 20
-9.201
 21
-9.111
  0
LINE
  8
0
 10
-1.863
 11
-1.17
 20
-9.111
 21
-9.374
  0
LINE
  8
0
 10
-1.17
 11
-0.678
 20
-9.374
 21
-9.93
  0
LINE
  8
0
 10
-0.678
 11
-0.5
 20
-9.93
 21
-10.65
  0
LINE
  8
0
 10
-0.5
 11
-0.678
 20
-10.65
 21
-11.37
  0
LINE
  8
0
 10
-0.678
 11
-1.17
 20
-11.37
 21
-11.926
  0
LINE
  8
0
 10
-1.17
 11
-1.863
 20
-11.926
 21
-12.189
  0
LINE
  8
0
 10
-1.863
 11
-2.6
 20
-12.189
 21
-12.099
  0
LINE
  8
0
 10
-2.6
 11
-3.21
 20
-12.099
 21
-11.678
  0
LINE
  8
0
 10
-3.21
 11
-3.555
 20
-11.678
 21
-11.021
  0
LINE
  8
0
 10
10.845
 11
10.845
 20
9.579
 21
10.321
  0
LINE
  8
0
 10
10.845
 11
11.19
 20
10.321
 21
10.978
  0
LINE
  8
0
 10
11.19
 11
11.8
 20
10.978
 21
11.399
  0
LINE
  8
0
 10
11.8
 11
12.537
 20
11.399
 21
11.489
  0
LINE
  8
0
 10
12.537
 11
13.23
 20
11.489
 21
11.226
  0
LINE
  8
0
 10
13.23
 11
13.722
 20
11.226
 21
10.67
  0
LINE
  8
0
 10
13.722
 11
13.9
 20
10.67
 21
9.95
  0
LINE
  8
0
 10
13.9
 11
13.722
 20
9.95
 21
9.23
  0
LINE
  8
0
 10
13.722
 11
13.23
 20
9.23
 21
8.674
  0
LINE
  8
0
 10
13.23
 11
12.537
 20
8.674
 21
8.411
  0
LINE
  8
0
 10
12.537
 11
11.8
 20
8.411
 21
8.501
  0
LINE
  8
0
 10
11.8
 11
11.19
 20
8.501
 21
8.922
  0
LINE
  8
0
 10
11.19
 11
10.845
 20
8.922
 21
9.579
  0
LINE
  8
0
 10
18.35
 11
18.502
 20
0
 21
0.765
  0
LINE
  8
0
 10
18.502
 11
18.936
 20
0.765
 21
1.414
  0
LINE
  8
0
 10
18.936
 11
19.585
 20
1.414
 21
1.848
  0
LINE
  8
0
 10
19.585
 11
20.35
 20
1.848
 21
2
  0
LINE
  8
0
 10
20.35
 11
21.115
 20
2
 21
1.848
  0
LINE
  8
0
 10
21.115
 11
21.764
 20
1.848
 21
1.414
  0
LINE
  8
0
 10
21.764
 11
22.198
 20
1.414
 21
0.765
  0
LINE
  8
0
 10
22.198
 11
22.35
 20
0.765
 21
0
  0
LINE
  8
0
 10
22.35
 11
22.198
 20
0
 21
-0.765
  0
LINE
  8
0
 10
22.198
 11
21.764
 20
-0.765
 21
-1.414
  0
LINE
  8
0
 10
21.764
 11
21.115
 20
-1.414
 21
-1.848
  0
LINE
  8
0
 10
21.115
 11
20.35
 20
-1.848
 21
-2
  0
LINE
  8
0
 10
20.35
 11
19.585
 20
-2
 21
-1.848
  0
LINE
  8
0
 10
19.585
 11
18.936
 20
-1.848
 21
-1.414
  0
LINE
  8
0
 10
18.936
 11
18.502
 20
-1.414
 21
-0.765
  0
LINE
  8
0
 10
18.502
 11
18.35
 20
-0.765
 21
0
  0
ENDSEC
  0
SECTION
  2
OBJECTS
  0
DICTIONARY
  0
ENDSEC
  0
EOF
