<?xml version="1.0" encoding="UTF-8" standalone="no"?>
<!-- Created with Inkscape (http://www.inkscape.org/) -->

<svg
   xmlns:dc="http://purl.org/dc/elements/1.1/"
   xmlns:cc="http://creativecommons.org/ns#"
   xmlns:rdf="http://www.w3.org/1999/02/22-rdf-syntax-ns#"
   xmlns:svg="http://www.w3.org/2000/svg"
   xmlns="http://www.w3.org/2000/svg"
   xmlns:sodipodi="http://sodipodi.sourceforge.net/DTD/sodipodi-0.dtd"
   xmlns:inkscape="http://www.inkscape.org/namespaces/inkscape"
   width="744.09448819"
   height="1052.3622047"
   id="svg2"
   version="1.1"
   inkscape:version="0.47 r22583"
   sodipodi:docname="New document 1">
  <defs
     id="defs4">
    <inkscape:perspective
       sodipodi:type="inkscape:persp3d"
       inkscape:vp_x="0 : 526.18109 : 1"
       inkscape:vp_y="0 : 1000 : 0"
       inkscape:vp_z="744.09448 : 526.18109 : 1"
       inkscape:persp3d-origin="372.04724 : 350.78739 : 1"
       id="perspective10" />
  </defs>
  <sodipodi:namedview
     id="base"
     pagecolor="#ffffff"
     bordercolor="#666666"
     borderopacity="1.0"
     inkscape:pageopacity="0.0"
     inkscape:pageshadow="2"
     inkscape:zoom="3.6992511"
     inkscape:cx="59.5102"
     inkscape:cy="673.57551"
     inkscape:document-units="px"
     inkscape:current-layer="layer1"
     showgrid="false"
     inkscape:window-width="1440"
     inkscape:window-height="828"
     inkscape:window-x="0"
     inkscape:window-y="25"
     inkscape:window-maximized="1" />
  <metadata
     id="metadata7">
    <rdf:RDF>
      <cc:Work
         rdf:about="">
        <dc:format>image/svg+xml</dc:format>
        <dc:type
           rdf:resource="http://purl.org/dc/dcmitype/StillImage" />
        <dc:title></dc:title>
      </cc:Work>
    </rdf:RDF>
  </metadata>
  <g
     inkscape:label="Layer 1"
     inkscape:groupmode="layer"
     id="layer1">
    <path
       transform="matrix(0.87823203,0,0,0.76845305,101.2366,158.27371)"
       style="fill:none;stroke:#000000;stroke-width:0.35433072;stroke-miterlimit:4;stroke-opacity:1"
       d="m 40.357143,280.57648 c 0,4.73387 -3.357864,8.57143 -7.5,8.57143 -4.142135,0 -7.5,-3.83756 -7.5,-8.57143 0,-4.73387 3.357865,-8.57143 7.5,-8.57143 4.142136,0 7.5,3.83756 7.5,8.57143 z"
       id="path2818" />
    <path
       style="fill:none;stroke:#000000;stroke-width:0.38267073;stroke-miterlimit:4;stroke-opacity:1"
       d="M 106.90625 344.125 C 104.59696 344.35812 102.73618 346.078 102.28125 348.3125 C 102.27719 348.33245 102.28509 348.35497 102.28125 348.375 C 102.06169 349.05342 101.9375 349.76093 101.9375 350.53125 L 101.9375 406.0625 C 101.9375 409.47038 104.26866 412.21875 107.1875 412.21875 C 110.10633 412.21875 112.46875 409.47038 112.46875 406.0625 L 112.46875 354.9375 L 147.09375 354.9375 L 147.09375 406.0625 C 147.09375 409.47038 149.45617 412.21875 152.375 412.21875 C 155.29384 412.21875 157.625 409.47038 157.625 406.0625 L 157.625 350.53125 C 157.625 350.31826 157.61167 350.11354 157.59375 349.90625 C 157.59774 349.82168 157.59375 349.74185 157.59375 349.65625 L 157.59375 349.375 C 157.59375 346.45468 155.26407 344.125 152.34375 344.125 L 107.46875 344.125 C 107.28623 344.125 107.08389 344.10707 106.90625 344.125 z "
       id="rect2824" />
    <path
       transform="matrix(1.3703461,0,0,1.2675702,5.5039726,-104.19972)"
       style="fill:none;stroke:#000000;stroke-width:0.35433072;stroke-miterlimit:4;stroke-opacity:1"
       d="m 55.146295,333.29773 c 0,2.98593 -2.239029,5.4065 -5.001012,5.4065 -2.761983,0 -5.001013,-2.42057 -5.001013,-5.4065 0,-2.98593 2.23903,-5.4065 5.001013,-5.4065 2.761983,0 5.001012,2.42057 5.001012,5.4065 z"
       id="path2834" />
    <path
       transform="matrix(1.3703461,0,0,1.2675702,5.5039726,6.8836048)"
       style="fill:none;stroke:#000000;stroke-width:0.35433072;stroke-miterlimit:4;stroke-opacity:1"
       d="m 55.146295,333.29773 c 0,2.98593 -2.239029,5.4065 -5.001012,5.4065 -2.761983,0 -5.001013,-2.42057 -5.001013,-5.4065 0,-2.98593 2.23903,-5.4065 5.001013,-5.4065 2.761983,0 5.001012,2.42057 5.001012,5.4065 z"
       id="path2836" />
    <path
       transform="matrix(1.3703461,0,0,1.2675702,116.58709,-104.19972)"
       style="fill:none;stroke:#000000;stroke-width:0.35433072;stroke-miterlimit:4;stroke-opacity:1"
       d="m 55.146295,333.29773 c 0,2.98593 -2.239029,5.4065 -5.001012,5.4065 -2.761983,0 -5.001013,-2.42057 -5.001013,-5.4065 0,-2.98593 2.23903,-5.4065 5.001013,-5.4065 2.761983,0 5.001012,2.42057 5.001012,5.4065 z"
       id="path2838" />
    <path
       transform="matrix(1.3703461,0,0,1.2675702,116.58709,6.8836048)"
       style="fill:none;stroke:#000000;stroke-width:0.35433072;stroke-miterlimit:4;stroke-opacity:1"
       d="m 55.146295,333.29773 c 0,2.98593 -2.239029,5.4065 -5.001012,5.4065 -2.761983,0 -5.001013,-2.42057 -5.001013,-5.4065 0,-2.98593 2.23903,-5.4065 5.001013,-5.4065 2.761983,0 5.001012,2.42057 5.001012,5.4065 z"
       id="path2840" />
    <path
       style="fill:none;stroke:#000000;stroke-width:0.3647736;stroke-miterlimit:4;stroke-opacity:1"
       d="m 62.288095,299.65649 135.609405,0 c 3.55799,0 6.42236,2.86438 6.42236,6.42237 l 0,135.60939 c 0,3.55799 -2.86437,6.42236 -6.42236,6.42236 l -135.609405,0 c -3.55799,0 -6.422365,-2.86437 -6.422365,-6.42236 l 0,-135.60939 c 0,-3.55799 2.864375,-6.42237 6.422365,-6.42237 z"
       id="rect2842" />
  </g>
</svg>
