<?xml version="1.0" encoding="UTF-8" standalone="no"?>
<!-- Created with Inkscape (http://www.inkscape.org/) -->

<svg
   xmlns:dc="http://purl.org/dc/elements/1.1/"
   xmlns:cc="http://creativecommons.org/ns#"
   xmlns:rdf="http://www.w3.org/1999/02/22-rdf-syntax-ns#"
   xmlns:svg="http://www.w3.org/2000/svg"
   xmlns="http://www.w3.org/2000/svg"
   xmlns:sodipodi="http://sodipodi.sourceforge.net/DTD/sodipodi-0.dtd"
   xmlns:inkscape="http://www.inkscape.org/namespaces/inkscape"
   width="744.09448"
   height="1052.3622"
   id="svg3876"
   version="1.1"
   inkscape:version="0.47 r22583"
   sodipodi:docname="New document 3">
  <defs
     id="defs3878">
    <inkscape:perspective
       sodipodi:type="inkscape:persp3d"
       inkscape:vp_x="0 : 526.18109 : 1"
       inkscape:vp_y="0 : 1000 : 0"
       inkscape:vp_z="744.09448 : 526.18109 : 1"
       inkscape:persp3d-origin="372.04724 : 350.78739 : 1"
       id="perspective3884" />
    <inkscape:perspective
       id="perspective2835"
       inkscape:persp3d-origin="0.5 : 0.33333333 : 1"
       inkscape:vp_z="1 : 0.5 : 1"
       inkscape:vp_y="0 : 1000 : 0"
       inkscape:vp_x="0 : 0.5 : 1"
       sodipodi:type="inkscape:persp3d" />
    <inkscape:perspective
       id="perspective2871"
       inkscape:persp3d-origin="0.5 : 0.33333333 : 1"
       inkscape:vp_z="1 : 0.5 : 1"
       inkscape:vp_y="0 : 1000 : 0"
       inkscape:vp_x="0 : 0.5 : 1"
       sodipodi:type="inkscape:persp3d" />
    <inkscape:perspective
       id="perspective2893"
       inkscape:persp3d-origin="0.5 : 0.33333333 : 1"
       inkscape:vp_z="1 : 0.5 : 1"
       inkscape:vp_y="0 : 1000 : 0"
       inkscape:vp_x="0 : 0.5 : 1"
       sodipodi:type="inkscape:persp3d" />
    <inkscape:perspective
       id="perspective2893-1"
       inkscape:persp3d-origin="0.5 : 0.33333333 : 1"
       inkscape:vp_z="1 : 0.5 : 1"
       inkscape:vp_y="0 : 1000 : 0"
       inkscape:vp_x="0 : 0.5 : 1"
       sodipodi:type="inkscape:persp3d" />
    <inkscape:perspective
       id="perspective2926"
       inkscape:persp3d-origin="0.5 : 0.33333333 : 1"
       inkscape:vp_z="1 : 0.5 : 1"
       inkscape:vp_y="0 : 1000 : 0"
       inkscape:vp_x="0 : 0.5 : 1"
       sodipodi:type="inkscape:persp3d" />
    <inkscape:perspective
       id="perspective2926-8"
       inkscape:persp3d-origin="0.5 : 0.33333333 : 1"
       inkscape:vp_z="1 : 0.5 : 1"
       inkscape:vp_y="0 : 1000 : 0"
       inkscape:vp_x="0 : 0.5 : 1"
       sodipodi:type="inkscape:persp3d" />
  </defs>
  <sodipodi:namedview
     id="base"
     pagecolor="#ffffff"
     bordercolor="#666666"
     borderopacity="1.0"
     inkscape:pageopacity="0.0"
     inkscape:pageshadow="2"
     inkscape:zoom="4.1530937"
     inkscape:cx="-574.90158"
     inkscape:cy="755.98662"
     inkscape:document-units="mm"
     inkscape:current-layer="layer1"
     showgrid="true"
     units="mm"
     showborder="false"
     inkscape:window-width="1600"
     inkscape:window-height="1125"
     inkscape:window-x="0"
     inkscape:window-y="25"
     inkscape:window-maximized="1">
    <inkscape:grid
       type="xygrid"
       id="grid3886"
       empspacing="5"
       visible="true"
       enabled="true"
       snapvisiblegridlinesonly="true"
       units="mm"
       spacingx="1mm"
       spacingy="1mm" />
  </sodipodi:namedview>
  <metadata
     id="metadata3881">
    <rdf:RDF>
      <cc:Work
         rdf:about="">
        <dc:format>image/svg+xml</dc:format>
        <dc:type
           rdf:resource="http://purl.org/dc/dcmitype/StillImage" />
        <dc:title></dc:title>
      </cc:Work>
    </rdf:RDF>
  </metadata>
  <g
     inkscape:label="Layer 1"
     inkscape:groupmode="layer"
     id="layer1"
     transform="translate(0,-2.5390623e-6)">
    <path
       style="fill:#000000;fill-opacity:1;opacity:1"
       d="M -667.90625 212.59375 C -670.85074 212.59375 -673.21875 214.96176 -673.21875 217.90625 L -673.21875 384.4375 C -673.21875 387.38199 -670.85074 389.75 -667.90625 389.75 L -501.375 389.75 C -498.43051 389.75 -496.0625 387.38199 -496.0625 384.4375 L -496.0625 217.90625 C -496.0625 214.96176 -498.43051 212.59375 -501.375 212.59375 L -667.90625 212.59375 z M -647.625 223.90625 C -642.73272 223.90625 -638.78125 227.88895 -638.78125 232.78125 C -638.78125 237.67354 -642.73272 241.625 -647.625 241.625 C -652.51729 241.625 -656.5 237.67354 -656.5 232.78125 C -656.5 227.88895 -652.51729 223.90625 -647.625 223.90625 z M -519.09375 223.90625 C -514.20147 223.90625 -510.25 227.88895 -510.25 232.78125 C -510.25 237.67354 -514.20147 241.625 -519.09375 241.625 C -523.98604 241.625 -527.9375 237.67354 -527.9375 232.78125 C -527.9375 227.88895 -523.98604 223.90625 -519.09375 223.90625 z M -614.75 283.46875 C -611.80551 283.46875 -609.4375 285.83676 -609.4375 288.78125 L -609.4375 313.59375 C -609.4375 316.53824 -611.80551 318.90625 -614.75 318.90625 C -617.69449 318.90625 -620.09375 316.53824 -620.09375 313.59375 L -620.09375 288.78125 C -620.09375 285.83676 -617.69449 283.46875 -614.75 283.46875 z M -535.03125 320.65625 C -532.08676 320.65625 -529.71875 323.02426 -529.71875 325.96875 L -529.71875 350.78125 C -529.71875 353.72574 -532.08676 356.09375 -535.03125 356.09375 C -537.97574 356.09375 -540.34375 353.72574 -540.34375 350.78125 L -540.34375 325.96875 C -540.34375 323.02426 -537.97574 320.65625 -535.03125 320.65625 z M -647.625 359.65625 C -644.68963 359.65625 -642.3125 362.03337 -642.3125 364.96875 C -642.3125 367.90412 -644.68963 370.28125 -647.625 370.28125 C -650.56037 370.28125 -652.9375 367.90412 -652.9375 364.96875 C -652.9375 362.03337 -650.56037 359.65625 -647.625 359.65625 z M -515.09375 359.65625 C -512.15838 359.65625 -509.78125 362.03337 -509.78125 364.96875 C -509.78125 367.90412 -512.15838 370.28125 -515.09375 370.28125 C -518.02912 370.28125 -520.40625 367.90412 -520.40625 364.96875 C -520.40625 362.03337 -518.02912 359.65625 -515.09375 359.65625 z "
       transform="translate(0,2.5390623e-6)"
       id="rect2861" />
  </g>
</svg>
