  0
SECTION
  2
BLOCKS
  0
ENDSEC
  0
SECTION
  2
ENTITIES
  0
LINE
  8
0
 10
-13.99
 11
-13.99
 20
-0.247
 21
0.247
  0
LINE
  8
0
 10
-13.99
 11
-13.829
 20
0.247
 21
0.714
  0
LINE
  8
0
 10
-13.829
 11
-13.526
 20
0.714
 21
1.104
  0
LINE
  8
0
 10
-13.526
 11
-13.113
 20
1.104
 21
1.374
  0
LINE
  8
0
 10
-13.113
 11
-12.634
 20
1.374
 21
1.495
  0
LINE
  8
0
 10
-12.634
 11
-12.142
 20
1.495
 21
1.454
  0
LINE
  8
0
 10
-12.142
 11
-11.69
 20
1.454
 21
1.256
  0
LINE
  8
0
 10
-11.69
 11
-11.326
 20
1.256
 21
0.921
  0
LINE
  8
0
 10
-11.326
 11
-11.091
 20
0.921
 21
0.487
  0
LINE
  8
0
 10
-11.091
 11
-11.01
 20
0.487
 21
0
  0
LINE
  8
0
 10
-11.01
 11
-11.091
 20
0
 21
-0.487
  0
LINE
  8
0
 10
-11.091
 11
-11.326
 20
-0.487
 21
-0.921
  0
LINE
  8
0
 10
-11.326
 11
-11.69
 20
-0.921
 21
-1.256
  0
LINE
  8
0
 10
-11.69
 11
-12.142
 20
-1.256
 21
-1.454
  0
LINE
  8
0
 10
-12.142
 11
-12.634
 20
-1.454
 21
-1.495
  0
LINE
  8
0
 10
-12.634
 11
-13.113
 20
-1.495
 21
-1.374
  0
LINE
  8
0
 10
-13.113
 11
-13.526
 20
-1.374
 21
-1.104
  0
LINE
  8
0
 10
-13.526
 11
-13.829
 20
-1.104
 21
-0.714
  0
LINE
  8
0
 10
-13.829
 11
-13.99
 20
-0.714
 21
-0.247
  0
LINE
  8
0
 10
-9.51
 11
9.51
 20
5
 21
5
  0
LINE
  8
0
 10
9.51
 11
8.51
 20
5
 21
-5
  0
LINE
  8
0
 10
8.51
 11
-8.51
 20
-5
 21
-5
  0
LINE
  8
0
 10
-8.51
 11
-9.51
 20
-5
 21
5
  0
LINE
  8
0
 10
11.03
 11
11.03
 20
-0.247
 21
0.247
  0
LINE
  8
0
 10
11.03
 11
11.191
 20
0.247
 21
0.714
  0
LINE
  8
0
 10
11.191
 11
11.494
 20
0.714
 21
1.104
  0
LINE
  8
0
 10
11.494
 11
11.907
 20
1.104
 21
1.374
  0
LINE
  8
0
 10
11.907
 11
12.386
 20
1.374
 21
1.495
  0
LINE
  8
0
 10
12.386
 11
12.878
 20
1.495
 21
1.454
  0
LINE
  8
0
 10
12.878
 11
13.33
 20
1.454
 21
1.256
  0
LINE
  8
0
 10
13.33
 11
13.694
 20
1.256
 21
0.921
  0
LINE
  8
0
 10
13.694
 11
13.929
 20
0.921
 21
0.487
  0
LINE
  8
0
 10
13.929
 11
14.01
 20
0.487
 21
0
  0
LINE
  8
0
 10
14.01
 11
13.929
 20
0
 21
-0.487
  0
LINE
  8
0
 10
13.929
 11
13.694
 20
-0.487
 21
-0.921
  0
LINE
  8
0
 10
13.694
 11
13.33
 20
-0.921
 21
-1.256
  0
LINE
  8
0
 10
13.33
 11
12.878
 20
-1.256
 21
-1.454
  0
LINE
  8
0
 10
12.878
 11
12.386
 20
-1.454
 21
-1.495
  0
LINE
  8
0
 10
12.386
 11
11.907
 20
-1.495
 21
-1.374
  0
LINE
  8
0
 10
11.907
 11
11.494
 20
-1.374
 21
-1.104
  0
LINE
  8
0
 10
11.494
 11
11.191
 20
-1.104
 21
-0.714
  0
LINE
  8
0
 10
11.191
 11
11.03
 20
-0.714
 21
-0.247
  0
ENDSEC
  0
SECTION
  2
OBJECTS
  0
DICTIONARY
  0
ENDSEC
  0
EOF
