  0
SECTION
  2
BLOCKS
  0
ENDSEC
  0
SECTION
  2
ENTITIES
  0
LINE
  8
0
 10
-15.255
 11
-15.255
 20
-0.247
 21
0.247
  0
LINE
  8
0
 10
-15.255
 11
-15.094
 20
0.247
 21
0.714
  0
LINE
  8
0
 10
-15.094
 11
-14.791
 20
0.714
 21
1.104
  0
LINE
  8
0
 10
-14.791
 11
-14.378
 20
1.104
 21
1.374
  0
LINE
  8
0
 10
-14.378
 11
-13.899
 20
1.374
 21
1.495
  0
LINE
  8
0
 10
-13.899
 11
-13.407
 20
1.495
 21
1.454
  0
LINE
  8
0
 10
-13.407
 11
-12.955
 20
1.454
 21
1.256
  0
LINE
  8
0
 10
-12.955
 11
-12.591
 20
1.256
 21
0.921
  0
LINE
  8
0
 10
-12.591
 11
-12.356
 20
0.921
 21
0.487
  0
LINE
  8
0
 10
-12.356
 11
-12.275
 20
0.487
 21
0
  0
LINE
  8
0
 10
-12.275
 11
-12.356
 20
0
 21
-0.487
  0
LINE
  8
0
 10
-12.356
 11
-12.591
 20
-0.487
 21
-0.921
  0
LINE
  8
0
 10
-12.591
 11
-12.955
 20
-0.921
 21
-1.256
  0
LINE
  8
0
 10
-12.955
 11
-13.407
 20
-1.256
 21
-1.454
  0
LINE
  8
0
 10
-13.407
 11
-13.899
 20
-1.454
 21
-1.495
  0
LINE
  8
0
 10
-13.899
 11
-14.378
 20
-1.495
 21
-1.374
  0
LINE
  8
0
 10
-14.378
 11
-14.791
 20
-1.374
 21
-1.104
  0
LINE
  8
0
 10
-14.791
 11
-15.094
 20
-1.104
 21
-0.714
  0
LINE
  8
0
 10
-15.094
 11
-15.255
 20
-0.714
 21
-0.247
  0
LINE
  8
0
 10
-10.15
 11
10.15
 20
5
 21
5
  0
LINE
  8
0
 10
10.15
 11
9.4
 20
5
 21
-5
  0
LINE
  8
0
 10
9.4
 11
-9.4
 20
-5
 21
-5
  0
LINE
  8
0
 10
-9.4
 11
-10.15
 20
-5
 21
5
  0
LINE
  8
0
 10
12.295
 11
12.295
 20
-0.247
 21
0.247
  0
LINE
  8
0
 10
12.295
 11
12.456
 20
0.247
 21
0.714
  0
LINE
  8
0
 10
12.456
 11
12.759
 20
0.714
 21
1.104
  0
LINE
  8
0
 10
12.759
 11
13.172
 20
1.104
 21
1.374
  0
LINE
  8
0
 10
13.172
 11
13.651
 20
1.374
 21
1.495
  0
LINE
  8
0
 10
13.651
 11
14.143
 20
1.495
 21
1.454
  0
LINE
  8
0
 10
14.143
 11
14.595
 20
1.454
 21
1.256
  0
LINE
  8
0
 10
14.595
 11
14.959
 20
1.256
 21
0.921
  0
LINE
  8
0
 10
14.959
 11
15.194
 20
0.921
 21
0.487
  0
LINE
  8
0
 10
15.194
 11
15.275
 20
0.487
 21
0
  0
LINE
  8
0
 10
15.275
 11
15.194
 20
0
 21
-0.487
  0
LINE
  8
0
 10
15.194
 11
14.959
 20
-0.487
 21
-0.921
  0
LINE
  8
0
 10
14.959
 11
14.595
 20
-0.921
 21
-1.256
  0
LINE
  8
0
 10
14.595
 11
14.143
 20
-1.256
 21
-1.454
  0
LINE
  8
0
 10
14.143
 11
13.651
 20
-1.454
 21
-1.495
  0
LINE
  8
0
 10
13.651
 11
13.172
 20
-1.495
 21
-1.374
  0
LINE
  8
0
 10
13.172
 11
12.759
 20
-1.374
 21
-1.104
  0
LINE
  8
0
 10
12.759
 11
12.456
 20
-1.104
 21
-0.714
  0
LINE
  8
0
 10
12.456
 11
12.295
 20
-0.714
 21
-0.247
  0
ENDSEC
  0
SECTION
  2
OBJECTS
  0
DICTIONARY
  0
ENDSEC
  0
EOF
