  0
SECTION
  2
BLOCKS
  0
ENDSEC
  0
SECTION
  2
ENTITIES
  0
LINE
  8
0
 10
-7.9
 11
-7.727
 20
0
 21
1.643
  0
LINE
  8
0
 10
-7.727
 11
-7.217
 20
1.643
 21
3.213
  0
LINE
  8
0
 10
-7.217
 11
-6.391
 20
3.213
 21
4.644
  0
LINE
  8
0
 10
-6.391
 11
-5.286
 20
4.644
 21
5.871
  0
LINE
  8
0
 10
-5.286
 11
-3.95
 20
5.871
 21
6.842
  0
LINE
  8
0
 10
-3.95
 11
-2.696
 20
6.842
 21
7.4
  0
LINE
  8
0
 10
-2.696
 11
2.696
 20
7.4
 21
7.4
  0
LINE
  8
0
 10
2.696
 11
3.95
 20
7.4
 21
6.842
  0
LINE
  8
0
 10
3.95
 11
5.286
 20
6.842
 21
5.871
  0
LINE
  8
0
 10
5.286
 11
6.391
 20
5.871
 21
4.644
  0
LINE
  8
0
 10
6.391
 11
7.217
 20
4.644
 21
3.213
  0
LINE
  8
0
 10
7.217
 11
7.727
 20
3.213
 21
1.643
  0
LINE
  8
0
 10
7.727
 11
7.9
 20
1.643
 21
0
  0
LINE
  8
0
 10
7.9
 11
7.727
 20
0
 21
-1.643
  0
LINE
  8
0
 10
7.727
 11
7.217
 20
-1.643
 21
-3.213
  0
LINE
  8
0
 10
7.217
 11
6.391
 20
-3.213
 21
-4.644
  0
LINE
  8
0
 10
6.391
 11
5.286
 20
-4.644
 21
-5.871
  0
LINE
  8
0
 10
5.286
 11
3.95
 20
-5.871
 21
-6.842
  0
LINE
  8
0
 10
3.95
 11
2.441
 20
-6.842
 21
-7.513
  0
LINE
  8
0
 10
2.441
 11
0.826
 20
-7.513
 21
-7.857
  0
LINE
  8
0
 10
0.826
 11
-0.826
 20
-7.857
 21
-7.857
  0
LINE
  8
0
 10
-0.826
 11
-2.441
 20
-7.857
 21
-7.513
  0
LINE
  8
0
 10
-2.441
 11
-3.95
 20
-7.513
 21
-6.842
  0
LINE
  8
0
 10
-3.95
 11
-5.286
 20
-6.842
 21
-5.871
  0
LINE
  8
0
 10
-5.286
 11
-6.391
 20
-5.871
 21
-4.644
  0
LINE
  8
0
 10
-6.391
 11
-7.217
 20
-4.644
 21
-3.213
  0
LINE
  8
0
 10
-7.217
 11
-7.727
 20
-3.213
 21
-1.643
  0
LINE
  8
0
 10
-7.727
 11
-7.9
 20
-1.643
 21
0
  0
LINE
  8
0
 10
62.1
 11
62.273
 20
0
 21
1.643
  0
LINE
  8
0
 10
62.273
 11
62.783
 20
1.643
 21
3.213
  0
LINE
  8
0
 10
62.783
 11
63.609
 20
3.213
 21
4.644
  0
LINE
  8
0
 10
63.609
 11
64.714
 20
4.644
 21
5.871
  0
LINE
  8
0
 10
64.714
 11
66.05
 20
5.871
 21
6.842
  0
LINE
  8
0
 10
66.05
 11
67.304
 20
6.842
 21
7.4
  0
LINE
  8
0
 10
67.304
 11
72.696
 20
7.4
 21
7.4
  0
LINE
  8
0
 10
72.696
 11
73.95
 20
7.4
 21
6.842
  0
LINE
  8
0
 10
73.95
 11
75.286
 20
6.842
 21
5.871
  0
LINE
  8
0
 10
75.286
 11
76.391
 20
5.871
 21
4.644
  0
LINE
  8
0
 10
76.391
 11
77.217
 20
4.644
 21
3.213
  0
LINE
  8
0
 10
77.217
 11
77.727
 20
3.213
 21
1.643
  0
LINE
  8
0
 10
77.727
 11
77.9
 20
1.643
 21
0
  0
LINE
  8
0
 10
77.9
 11
77.727
 20
0
 21
-1.643
  0
LINE
  8
0
 10
77.727
 11
77.217
 20
-1.643
 21
-3.213
  0
LINE
  8
0
 10
77.217
 11
76.391
 20
-3.213
 21
-4.644
  0
LINE
  8
0
 10
76.391
 11
75.286
 20
-4.644
 21
-5.871
  0
LINE
  8
0
 10
75.286
 11
73.95
 20
-5.871
 21
-6.842
  0
LINE
  8
0
 10
73.95
 11
72.441
 20
-6.842
 21
-7.513
  0
LINE
  8
0
 10
72.441
 11
70.826
 20
-7.513
 21
-7.857
  0
LINE
  8
0
 10
70.826
 11
69.174
 20
-7.857
 21
-7.857
  0
LINE
  8
0
 10
69.174
 11
67.559
 20
-7.857
 21
-7.513
  0
LINE
  8
0
 10
67.559
 11
66.05
 20
-7.513
 21
-6.842
  0
LINE
  8
0
 10
66.05
 11
64.714
 20
-6.842
 21
-5.871
  0
LINE
  8
0
 10
64.714
 11
63.609
 20
-5.871
 21
-4.644
  0
LINE
  8
0
 10
63.609
 11
62.783
 20
-4.644
 21
-3.213
  0
LINE
  8
0
 10
62.783
 11
62.273
 20
-3.213
 21
-1.643
  0
LINE
  8
0
 10
62.273
 11
62.1
 20
-1.643
 21
0
  0
LINE
  8
0
 10
132.1
 11
132.273
 20
0
 21
1.643
  0
LINE
  8
0
 10
132.273
 11
132.783
 20
1.643
 21
3.213
  0
LINE
  8
0
 10
132.783
 11
133.609
 20
3.213
 21
4.644
  0
LINE
  8
0
 10
133.609
 11
134.714
 20
4.644
 21
5.871
  0
LINE
  8
0
 10
134.714
 11
136.05
 20
5.871
 21
6.842
  0
LINE
  8
0
 10
136.05
 11
137.304
 20
6.842
 21
7.4
  0
LINE
  8
0
 10
137.304
 11
142.696
 20
7.4
 21
7.4
  0
LINE
  8
0
 10
142.696
 11
143.95
 20
7.4
 21
6.842
  0
LINE
  8
0
 10
143.95
 11
145.286
 20
6.842
 21
5.871
  0
LINE
  8
0
 10
145.286
 11
146.391
 20
5.871
 21
4.644
  0
LINE
  8
0
 10
146.391
 11
147.217
 20
4.644
 21
3.213
  0
LINE
  8
0
 10
147.217
 11
147.727
 20
3.213
 21
1.643
  0
LINE
  8
0
 10
147.727
 11
147.9
 20
1.643
 21
0
  0
LINE
  8
0
 10
147.9
 11
147.727
 20
0
 21
-1.643
  0
LINE
  8
0
 10
147.727
 11
147.217
 20
-1.643
 21
-3.213
  0
LINE
  8
0
 10
147.217
 11
146.391
 20
-3.213
 21
-4.644
  0
LINE
  8
0
 10
146.391
 11
145.286
 20
-4.644
 21
-5.871
  0
LINE
  8
0
 10
145.286
 11
143.95
 20
-5.871
 21
-6.842
  0
LINE
  8
0
 10
143.95
 11
142.441
 20
-6.842
 21
-7.513
  0
LINE
  8
0
 10
142.441
 11
140.826
 20
-7.513
 21
-7.857
  0
LINE
  8
0
 10
140.826
 11
139.174
 20
-7.857
 21
-7.857
  0
LINE
  8
0
 10
139.174
 11
137.559
 20
-7.857
 21
-7.513
  0
LINE
  8
0
 10
137.559
 11
136.05
 20
-7.513
 21
-6.842
  0
LINE
  8
0
 10
136.05
 11
134.714
 20
-6.842
 21
-5.871
  0
LINE
  8
0
 10
134.714
 11
133.609
 20
-5.871
 21
-4.644
  0
LINE
  8
0
 10
133.609
 11
132.783
 20
-4.644
 21
-3.213
  0
LINE
  8
0
 10
132.783
 11
132.273
 20
-3.213
 21
-1.643
  0
LINE
  8
0
 10
132.273
 11
132.1
 20
-1.643
 21
0
  0
ENDSEC
  0
SECTION
  2
OBJECTS
  0
DICTIONARY
  0
ENDSEC
  0
EOF
