  0
SECTION
  2
BLOCKS
  0
ENDSEC
  0
SECTION
  2
ENTITIES
  0
LINE
  8
0
 10
-25.07
 11
-25.07
 20
-0.247
 21
0.247
  0
LINE
  8
0
 10
-25.07
 11
-24.909
 20
0.247
 21
0.714
  0
LINE
  8
0
 10
-24.909
 11
-24.606
 20
0.714
 21
1.104
  0
LINE
  8
0
 10
-24.606
 11
-24.193
 20
1.104
 21
1.374
  0
LINE
  8
0
 10
-24.193
 11
-23.714
 20
1.374
 21
1.495
  0
LINE
  8
0
 10
-23.714
 11
-23.222
 20
1.495
 21
1.454
  0
LINE
  8
0
 10
-23.222
 11
-22.77
 20
1.454
 21
1.256
  0
LINE
  8
0
 10
-22.77
 11
-22.406
 20
1.256
 21
0.921
  0
LINE
  8
0
 10
-22.406
 11
-22.171
 20
0.921
 21
0.487
  0
LINE
  8
0
 10
-22.171
 11
-22.09
 20
0.487
 21
0
  0
LINE
  8
0
 10
-22.09
 11
-22.171
 20
0
 21
-0.487
  0
LINE
  8
0
 10
-22.171
 11
-22.406
 20
-0.487
 21
-0.921
  0
LINE
  8
0
 10
-22.406
 11
-22.77
 20
-0.921
 21
-1.256
  0
LINE
  8
0
 10
-22.77
 11
-23.222
 20
-1.256
 21
-1.454
  0
LINE
  8
0
 10
-23.222
 11
-23.714
 20
-1.454
 21
-1.495
  0
LINE
  8
0
 10
-23.714
 11
-24.193
 20
-1.495
 21
-1.374
  0
LINE
  8
0
 10
-24.193
 11
-24.606
 20
-1.374
 21
-1.104
  0
LINE
  8
0
 10
-24.606
 11
-24.909
 20
-1.104
 21
-0.714
  0
LINE
  8
0
 10
-24.909
 11
-25.07
 20
-0.714
 21
-0.247
  0
LINE
  8
0
 10
-20.59
 11
20.59
 20
5
 21
5
  0
LINE
  8
0
 10
20.59
 11
19.59
 20
5
 21
-5
  0
LINE
  8
0
 10
19.59
 11
-19.59
 20
-5
 21
-5
  0
LINE
  8
0
 10
-19.59
 11
-20.59
 20
-5
 21
5
  0
LINE
  8
0
 10
22.11
 11
22.11
 20
-0.247
 21
0.247
  0
LINE
  8
0
 10
22.11
 11
22.271
 20
0.247
 21
0.714
  0
LINE
  8
0
 10
22.271
 11
22.574
 20
0.714
 21
1.104
  0
LINE
  8
0
 10
22.574
 11
22.987
 20
1.104
 21
1.374
  0
LINE
  8
0
 10
22.987
 11
23.466
 20
1.374
 21
1.495
  0
LINE
  8
0
 10
23.466
 11
23.958
 20
1.495
 21
1.454
  0
LINE
  8
0
 10
23.958
 11
24.41
 20
1.454
 21
1.256
  0
LINE
  8
0
 10
24.41
 11
24.774
 20
1.256
 21
0.921
  0
LINE
  8
0
 10
24.774
 11
25.009
 20
0.921
 21
0.487
  0
LINE
  8
0
 10
25.009
 11
25.09
 20
0.487
 21
0
  0
LINE
  8
0
 10
25.09
 11
25.009
 20
0
 21
-0.487
  0
LINE
  8
0
 10
25.009
 11
24.774
 20
-0.487
 21
-0.921
  0
LINE
  8
0
 10
24.774
 11
24.41
 20
-0.921
 21
-1.256
  0
LINE
  8
0
 10
24.41
 11
23.958
 20
-1.256
 21
-1.454
  0
LINE
  8
0
 10
23.958
 11
23.466
 20
-1.454
 21
-1.495
  0
LINE
  8
0
 10
23.466
 11
22.987
 20
-1.495
 21
-1.374
  0
LINE
  8
0
 10
22.987
 11
22.574
 20
-1.374
 21
-1.104
  0
LINE
  8
0
 10
22.574
 11
22.271
 20
-1.104
 21
-0.714
  0
LINE
  8
0
 10
22.271
 11
22.11
 20
-0.714
 21
-0.247
  0
ENDSEC
  0
SECTION
  2
OBJECTS
  0
DICTIONARY
  0
ENDSEC
  0
EOF
