  0
SECTION
  2
BLOCKS
  0
ENDSEC
  0
SECTION
  2
ENTITIES
  0
LINE
  8
0
 10
-25.295
 11
-25.295
 20
-0.247
 21
0.247
  0
LINE
  8
0
 10
-25.295
 11
-25.134
 20
0.247
 21
0.714
  0
LINE
  8
0
 10
-25.134
 11
-24.831
 20
0.714
 21
1.104
  0
LINE
  8
0
 10
-24.831
 11
-24.418
 20
1.104
 21
1.374
  0
LINE
  8
0
 10
-24.418
 11
-23.939
 20
1.374
 21
1.495
  0
LINE
  8
0
 10
-23.939
 11
-23.447
 20
1.495
 21
1.454
  0
LINE
  8
0
 10
-23.447
 11
-22.995
 20
1.454
 21
1.256
  0
LINE
  8
0
 10
-22.995
 11
-22.631
 20
1.256
 21
0.921
  0
LINE
  8
0
 10
-22.631
 11
-22.396
 20
0.921
 21
0.487
  0
LINE
  8
0
 10
-22.396
 11
-22.315
 20
0.487
 21
0
  0
LINE
  8
0
 10
-22.315
 11
-22.396
 20
0
 21
-0.487
  0
LINE
  8
0
 10
-22.396
 11
-22.631
 20
-0.487
 21
-0.921
  0
LINE
  8
0
 10
-22.631
 11
-22.995
 20
-0.921
 21
-1.256
  0
LINE
  8
0
 10
-22.995
 11
-23.447
 20
-1.256
 21
-1.454
  0
LINE
  8
0
 10
-23.447
 11
-23.939
 20
-1.454
 21
-1.495
  0
LINE
  8
0
 10
-23.939
 11
-24.418
 20
-1.495
 21
-1.374
  0
LINE
  8
0
 10
-24.418
 11
-24.831
 20
-1.374
 21
-1.104
  0
LINE
  8
0
 10
-24.831
 11
-25.134
 20
-1.104
 21
-0.714
  0
LINE
  8
0
 10
-25.134
 11
-25.295
 20
-0.714
 21
-0.247
  0
LINE
  8
0
 10
-20.19
 11
20.19
 20
5
 21
5
  0
LINE
  8
0
 10
20.19
 11
19.44
 20
5
 21
-5
  0
LINE
  8
0
 10
19.44
 11
-19.44
 20
-5
 21
-5
  0
LINE
  8
0
 10
-19.44
 11
-20.19
 20
-5
 21
5
  0
LINE
  8
0
 10
22.335
 11
22.335
 20
-0.247
 21
0.247
  0
LINE
  8
0
 10
22.335
 11
22.496
 20
0.247
 21
0.714
  0
LINE
  8
0
 10
22.496
 11
22.799
 20
0.714
 21
1.104
  0
LINE
  8
0
 10
22.799
 11
23.212
 20
1.104
 21
1.374
  0
LINE
  8
0
 10
23.212
 11
23.691
 20
1.374
 21
1.495
  0
LINE
  8
0
 10
23.691
 11
24.183
 20
1.495
 21
1.454
  0
LINE
  8
0
 10
24.183
 11
24.635
 20
1.454
 21
1.256
  0
LINE
  8
0
 10
24.635
 11
24.999
 20
1.256
 21
0.921
  0
LINE
  8
0
 10
24.999
 11
25.234
 20
0.921
 21
0.487
  0
LINE
  8
0
 10
25.234
 11
25.315
 20
0.487
 21
0
  0
LINE
  8
0
 10
25.315
 11
25.234
 20
0
 21
-0.487
  0
LINE
  8
0
 10
25.234
 11
24.999
 20
-0.487
 21
-0.921
  0
LINE
  8
0
 10
24.999
 11
24.635
 20
-0.921
 21
-1.256
  0
LINE
  8
0
 10
24.635
 11
24.183
 20
-1.256
 21
-1.454
  0
LINE
  8
0
 10
24.183
 11
23.691
 20
-1.454
 21
-1.495
  0
LINE
  8
0
 10
23.691
 11
23.212
 20
-1.495
 21
-1.374
  0
LINE
  8
0
 10
23.212
 11
22.799
 20
-1.374
 21
-1.104
  0
LINE
  8
0
 10
22.799
 11
22.496
 20
-1.104
 21
-0.714
  0
LINE
  8
0
 10
22.496
 11
22.335
 20
-0.714
 21
-0.247
  0
ENDSEC
  0
SECTION
  2
OBJECTS
  0
DICTIONARY
  0
ENDSEC
  0
EOF
