  0
SECTION
  2
BLOCKS
  0
ENDSEC
  0
SECTION
  2
ENTITIES
  0
LINE
  8
0
 10
-25.09
 11
-25.009
 20
0
 21
0.487
  0
LINE
  8
0
 10
-25.009
 11
-24.774
 20
0.487
 21
0.921
  0
LINE
  8
0
 10
-24.774
 11
-24.41
 20
0.921
 21
1.256
  0
LINE
  8
0
 10
-24.41
 11
-23.958
 20
1.256
 21
1.454
  0
LINE
  8
0
 10
-23.958
 11
-23.466
 20
1.454
 21
1.495
  0
LINE
  8
0
 10
-23.466
 11
-22.987
 20
1.495
 21
1.374
  0
LINE
  8
0
 10
-22.987
 11
-22.574
 20
1.374
 21
1.104
  0
LINE
  8
0
 10
-22.574
 11
-22.271
 20
1.104
 21
0.714
  0
LINE
  8
0
 10
-22.271
 11
-22.11
 20
0.714
 21
0.247
  0
LINE
  8
0
 10
-22.11
 11
-22.11
 20
0.247
 21
-0.247
  0
LINE
  8
0
 10
-22.11
 11
-22.271
 20
-0.247
 21
-0.714
  0
LINE
  8
0
 10
-22.271
 11
-22.574
 20
-0.714
 21
-1.104
  0
LINE
  8
0
 10
-22.574
 11
-22.987
 20
-1.104
 21
-1.374
  0
LINE
  8
0
 10
-22.987
 11
-23.466
 20
-1.374
 21
-1.495
  0
LINE
  8
0
 10
-23.466
 11
-23.958
 20
-1.495
 21
-1.454
  0
LINE
  8
0
 10
-23.958
 11
-24.41
 20
-1.454
 21
-1.256
  0
LINE
  8
0
 10
-24.41
 11
-24.774
 20
-1.256
 21
-0.921
  0
LINE
  8
0
 10
-24.774
 11
-25.009
 20
-0.921
 21
-0.487
  0
LINE
  8
0
 10
-25.009
 11
-25.09
 20
-0.487
 21
0
  0
LINE
  8
0
 10
-20.59
 11
-19.59
 20
-5
 21
5
  0
LINE
  8
0
 10
-19.59
 11
19.59
 20
5
 21
5
  0
LINE
  8
0
 10
19.59
 11
20.59
 20
5
 21
-5
  0
LINE
  8
0
 10
20.59
 11
-20.59
 20
-5
 21
-5
  0
LINE
  8
0
 10
22.09
 11
22.171
 20
0
 21
0.487
  0
LINE
  8
0
 10
22.171
 11
22.406
 20
0.487
 21
0.921
  0
LINE
  8
0
 10
22.406
 11
22.77
 20
0.921
 21
1.256
  0
LINE
  8
0
 10
22.77
 11
23.222
 20
1.256
 21
1.454
  0
LINE
  8
0
 10
23.222
 11
23.714
 20
1.454
 21
1.495
  0
LINE
  8
0
 10
23.714
 11
24.193
 20
1.495
 21
1.374
  0
LINE
  8
0
 10
24.193
 11
24.606
 20
1.374
 21
1.104
  0
LINE
  8
0
 10
24.606
 11
24.909
 20
1.104
 21
0.714
  0
LINE
  8
0
 10
24.909
 11
25.07
 20
0.714
 21
0.247
  0
LINE
  8
0
 10
25.07
 11
25.07
 20
0.247
 21
-0.247
  0
LINE
  8
0
 10
25.07
 11
24.909
 20
-0.247
 21
-0.714
  0
LINE
  8
0
 10
24.909
 11
24.606
 20
-0.714
 21
-1.104
  0
LINE
  8
0
 10
24.606
 11
24.193
 20
-1.104
 21
-1.374
  0
LINE
  8
0
 10
24.193
 11
23.714
 20
-1.374
 21
-1.495
  0
LINE
  8
0
 10
23.714
 11
23.222
 20
-1.495
 21
-1.454
  0
LINE
  8
0
 10
23.222
 11
22.77
 20
-1.454
 21
-1.256
  0
LINE
  8
0
 10
22.77
 11
22.406
 20
-1.256
 21
-0.921
  0
LINE
  8
0
 10
22.406
 11
22.171
 20
-0.921
 21
-0.487
  0
LINE
  8
0
 10
22.171
 11
22.09
 20
-0.487
 21
0
  0
LINE
  8
0
 10
55.99
 11
56.071
 20
0
 21
0.487
  0
LINE
  8
0
 10
56.071
 11
56.306
 20
0.487
 21
0.921
  0
LINE
  8
0
 10
56.306
 11
56.67
 20
0.921
 21
1.256
  0
LINE
  8
0
 10
56.67
 11
57.122
 20
1.256
 21
1.454
  0
LINE
  8
0
 10
57.122
 11
57.614
 20
1.454
 21
1.495
  0
LINE
  8
0
 10
57.614
 11
58.093
 20
1.495
 21
1.374
  0
LINE
  8
0
 10
58.093
 11
58.506
 20
1.374
 21
1.104
  0
LINE
  8
0
 10
58.506
 11
58.809
 20
1.104
 21
0.714
  0
LINE
  8
0
 10
58.809
 11
58.97
 20
0.714
 21
0.247
  0
LINE
  8
0
 10
58.97
 11
58.97
 20
0.247
 21
-0.247
  0
LINE
  8
0
 10
58.97
 11
58.809
 20
-0.247
 21
-0.714
  0
LINE
  8
0
 10
58.809
 11
58.506
 20
-0.714
 21
-1.104
  0
LINE
  8
0
 10
58.506
 11
58.093
 20
-1.104
 21
-1.374
  0
LINE
  8
0
 10
58.093
 11
57.614
 20
-1.374
 21
-1.495
  0
LINE
  8
0
 10
57.614
 11
57.122
 20
-1.495
 21
-1.454
  0
LINE
  8
0
 10
57.122
 11
56.67
 20
-1.454
 21
-1.256
  0
LINE
  8
0
 10
56.67
 11
56.306
 20
-1.256
 21
-0.921
  0
LINE
  8
0
 10
56.306
 11
56.071
 20
-0.921
 21
-0.487
  0
LINE
  8
0
 10
56.071
 11
55.99
 20
-0.487
 21
0
  0
LINE
  8
0
 10
60.49
 11
61.49
 20
-5
 21
5
  0
LINE
  8
0
 10
61.49
 11
78.51
 20
5
 21
5
  0
LINE
  8
0
 10
78.51
 11
79.51
 20
5
 21
-5
  0
LINE
  8
0
 10
79.51
 11
60.49
 20
-5
 21
-5
  0
LINE
  8
0
 10
81.01
 11
81.091
 20
0
 21
0.487
  0
LINE
  8
0
 10
81.091
 11
81.326
 20
0.487
 21
0.921
  0
LINE
  8
0
 10
81.326
 11
81.69
 20
0.921
 21
1.256
  0
LINE
  8
0
 10
81.69
 11
82.142
 20
1.256
 21
1.454
  0
LINE
  8
0
 10
82.142
 11
82.634
 20
1.454
 21
1.495
  0
LINE
  8
0
 10
82.634
 11
83.113
 20
1.495
 21
1.374
  0
LINE
  8
0
 10
83.113
 11
83.526
 20
1.374
 21
1.104
  0
LINE
  8
0
 10
83.526
 11
83.829
 20
1.104
 21
0.714
  0
LINE
  8
0
 10
83.829
 11
83.99
 20
0.714
 21
0.247
  0
LINE
  8
0
 10
83.99
 11
83.99
 20
0.247
 21
-0.247
  0
LINE
  8
0
 10
83.99
 11
83.829
 20
-0.247
 21
-0.714
  0
LINE
  8
0
 10
83.829
 11
83.526
 20
-0.714
 21
-1.104
  0
LINE
  8
0
 10
83.526
 11
83.113
 20
-1.104
 21
-1.374
  0
LINE
  8
0
 10
83.113
 11
82.634
 20
-1.374
 21
-1.495
  0
LINE
  8
0
 10
82.634
 11
82.142
 20
-1.495
 21
-1.454
  0
LINE
  8
0
 10
82.142
 11
81.69
 20
-1.454
 21
-1.256
  0
LINE
  8
0
 10
81.69
 11
81.326
 20
-1.256
 21
-0.921
  0
LINE
  8
0
 10
81.326
 11
81.091
 20
-0.921
 21
-0.487
  0
LINE
  8
0
 10
81.091
 11
81.01
 20
-0.487
 21
0
  0
LINE
  8
0
 10
106
 11
106.087
 20
0
 21
0.832
  0
LINE
  8
0
 10
106.087
 11
106.346
 20
0.832
 21
1.627
  0
LINE
  8
0
 10
106.346
 11
106.764
 20
1.627
 21
2.351
  0
LINE
  8
0
 10
106.764
 11
107.323
 20
2.351
 21
2.973
  0
LINE
  8
0
 10
107.323
 11
108
 20
2.973
 21
3.464
  0
LINE
  8
0
 10
108
 11
108.764
 20
3.464
 21
3.804
  0
LINE
  8
0
 10
108.764
 11
109.582
 20
3.804
 21
3.978
  0
LINE
  8
0
 10
109.582
 11
110.418
 20
3.978
 21
3.978
  0
LINE
  8
0
 10
110.418
 11
111.236
 20
3.978
 21
3.804
  0
LINE
  8
0
 10
111.236
 11
112
 20
3.804
 21
3.464
  0
LINE
  8
0
 10
112
 11
112.677
 20
3.464
 21
2.973
  0
LINE
  8
0
 10
112.677
 11
113.236
 20
2.973
 21
2.351
  0
LINE
  8
0
 10
113.236
 11
113.654
 20
2.351
 21
1.627
  0
LINE
  8
0
 10
113.654
 11
113.913
 20
1.627
 21
0.832
  0
LINE
  8
0
 10
113.913
 11
114
 20
0.832
 21
0
  0
LINE
  8
0
 10
114
 11
113.913
 20
0
 21
-0.832
  0
LINE
  8
0
 10
113.913
 11
113.654
 20
-0.832
 21
-1.627
  0
LINE
  8
0
 10
113.654
 11
113.236
 20
-1.627
 21
-2.351
  0
LINE
  8
0
 10
113.236
 11
112.677
 20
-2.351
 21
-2.973
  0
LINE
  8
0
 10
112.677
 11
112
 20
-2.973
 21
-3.464
  0
LINE
  8
0
 10
112
 11
111.236
 20
-3.464
 21
-3.804
  0
LINE
  8
0
 10
111.236
 11
110.418
 20
-3.804
 21
-3.978
  0
LINE
  8
0
 10
110.418
 11
109.582
 20
-3.978
 21
-3.978
  0
LINE
  8
0
 10
109.582
 11
108.764
 20
-3.978
 21
-3.804
  0
LINE
  8
0
 10
108.764
 11
108
 20
-3.804
 21
-3.464
  0
LINE
  8
0
 10
108
 11
107.323
 20
-3.464
 21
-2.973
  0
LINE
  8
0
 10
107.323
 11
106.764
 20
-2.973
 21
-2.351
  0
LINE
  8
0
 10
106.764
 11
106.346
 20
-2.351
 21
-1.627
  0
LINE
  8
0
 10
106.346
 11
106.087
 20
-1.627
 21
-0.832
  0
LINE
  8
0
 10
106.087
 11
106
 20
-0.832
 21
0
  0
LINE
  8
0
 10
132
 11
132.175
 20
0
 21
1.663
  0
LINE
  8
0
 10
132.175
 11
132.692
 20
1.663
 21
3.254
  0
LINE
  8
0
 10
132.692
 11
133.528
 20
3.254
 21
4.702
  0
LINE
  8
0
 10
133.528
 11
134.647
 20
4.702
 21
5.945
  0
LINE
  8
0
 10
134.647
 11
136
 20
5.945
 21
6.928
  0
LINE
  8
0
 10
136
 11
137.528
 20
6.928
 21
7.608
  0
LINE
  8
0
 10
137.528
 11
139.164
 20
7.608
 21
7.956
  0
LINE
  8
0
 10
139.164
 11
140.836
 20
7.956
 21
7.956
  0
LINE
  8
0
 10
140.836
 11
142.472
 20
7.956
 21
7.608
  0
LINE
  8
0
 10
142.472
 11
144
 20
7.608
 21
6.928
  0
LINE
  8
0
 10
144
 11
145.353
 20
6.928
 21
5.945
  0
LINE
  8
0
 10
145.353
 11
146.472
 20
5.945
 21
4.702
  0
LINE
  8
0
 10
146.472
 11
147.308
 20
4.702
 21
3.254
  0
LINE
  8
0
 10
147.308
 11
147.825
 20
3.254
 21
1.663
  0
LINE
  8
0
 10
147.825
 11
148
 20
1.663
 21
0
  0
LINE
  8
0
 10
148
 11
147.825
 20
0
 21
-1.663
  0
LINE
  8
0
 10
147.825
 11
147.308
 20
-1.663
 21
-3.254
  0
LINE
  8
0
 10
147.308
 11
146.472
 20
-3.254
 21
-4.702
  0
LINE
  8
0
 10
146.472
 11
145.353
 20
-4.702
 21
-5.945
  0
LINE
  8
0
 10
145.353
 11
144
 20
-5.945
 21
-6.928
  0
LINE
  8
0
 10
144
 11
142.472
 20
-6.928
 21
-7.608
  0
LINE
  8
0
 10
142.472
 11
140.836
 20
-7.608
 21
-7.956
  0
LINE
  8
0
 10
140.836
 11
139.164
 20
-7.956
 21
-7.956
  0
LINE
  8
0
 10
139.164
 11
137.528
 20
-7.956
 21
-7.608
  0
LINE
  8
0
 10
137.528
 11
136
 20
-7.608
 21
-6.928
  0
LINE
  8
0
 10
136
 11
134.647
 20
-6.928
 21
-5.945
  0
LINE
  8
0
 10
134.647
 11
133.528
 20
-5.945
 21
-4.702
  0
LINE
  8
0
 10
133.528
 11
132.692
 20
-4.702
 21
-3.254
  0
LINE
  8
0
 10
132.692
 11
132.175
 20
-3.254
 21
-1.663
  0
LINE
  8
0
 10
132.175
 11
132
 20
-1.663
 21
0
  0
ENDSEC
  0
SECTION
  2
OBJECTS
  0
DICTIONARY
  0
ENDSEC
  0
EOF
