  0
SECTION
  2
BLOCKS
  0
ENDSEC
  0
SECTION
  2
ENTITIES
  0
LINE
  8
0
 10
-25.09
 11
-25.009
 20
0
 21
0.487
  0
LINE
  8
0
 10
-25.009
 11
-24.774
 20
0.487
 21
0.921
  0
LINE
  8
0
 10
-24.774
 11
-24.41
 20
0.921
 21
1.256
  0
LINE
  8
0
 10
-24.41
 11
-23.958
 20
1.256
 21
1.454
  0
LINE
  8
0
 10
-23.958
 11
-23.466
 20
1.454
 21
1.495
  0
LINE
  8
0
 10
-23.466
 11
-22.987
 20
1.495
 21
1.374
  0
LINE
  8
0
 10
-22.987
 11
-22.574
 20
1.374
 21
1.104
  0
LINE
  8
0
 10
-22.574
 11
-22.271
 20
1.104
 21
0.714
  0
LINE
  8
0
 10
-22.271
 11
-22.11
 20
0.714
 21
0.247
  0
LINE
  8
0
 10
-22.11
 11
-22.11
 20
0.247
 21
-0.247
  0
LINE
  8
0
 10
-22.11
 11
-22.271
 20
-0.247
 21
-0.714
  0
LINE
  8
0
 10
-22.271
 11
-22.574
 20
-0.714
 21
-1.104
  0
LINE
  8
0
 10
-22.574
 11
-22.987
 20
-1.104
 21
-1.374
  0
LINE
  8
0
 10
-22.987
 11
-23.466
 20
-1.374
 21
-1.495
  0
LINE
  8
0
 10
-23.466
 11
-23.958
 20
-1.495
 21
-1.454
  0
LINE
  8
0
 10
-23.958
 11
-24.41
 20
-1.454
 21
-1.256
  0
LINE
  8
0
 10
-24.41
 11
-24.774
 20
-1.256
 21
-0.921
  0
LINE
  8
0
 10
-24.774
 11
-25.009
 20
-0.921
 21
-0.487
  0
LINE
  8
0
 10
-25.009
 11
-25.09
 20
-0.487
 21
0
  0
LINE
  8
0
 10
-20.59
 11
-19.59
 20
-5
 21
5
  0
LINE
  8
0
 10
-19.59
 11
19.59
 20
5
 21
5
  0
LINE
  8
0
 10
19.59
 11
20.59
 20
5
 21
-5
  0
LINE
  8
0
 10
20.59
 11
-20.59
 20
-5
 21
-5
  0
LINE
  8
0
 10
-14.01
 11
-13.929
 20
-25
 21
-24.513
  0
LINE
  8
0
 10
-13.929
 11
-13.694
 20
-24.513
 21
-24.079
  0
LINE
  8
0
 10
-13.694
 11
-13.33
 20
-24.079
 21
-23.744
  0
LINE
  8
0
 10
-13.33
 11
-12.878
 20
-23.744
 21
-23.546
  0
LINE
  8
0
 10
-12.878
 11
-12.386
 20
-23.546
 21
-23.505
  0
LINE
  8
0
 10
-12.386
 11
-11.907
 20
-23.505
 21
-23.626
  0
LINE
  8
0
 10
-11.907
 11
-11.494
 20
-23.626
 21
-23.896
  0
LINE
  8
0
 10
-11.494
 11
-11.191
 20
-23.896
 21
-24.286
  0
LINE
  8
0
 10
-11.191
 11
-11.03
 20
-24.286
 21
-24.753
  0
LINE
  8
0
 10
-11.03
 11
-11.03
 20
-24.753
 21
-25.247
  0
LINE
  8
0
 10
-11.03
 11
-11.191
 20
-25.247
 21
-25.714
  0
LINE
  8
0
 10
-11.191
 11
-11.494
 20
-25.714
 21
-26.104
  0
LINE
  8
0
 10
-11.494
 11
-11.907
 20
-26.104
 21
-26.374
  0
LINE
  8
0
 10
-11.907
 11
-12.386
 20
-26.374
 21
-26.495
  0
LINE
  8
0
 10
-12.386
 11
-12.878
 20
-26.495
 21
-26.454
  0
LINE
  8
0
 10
-12.878
 11
-13.33
 20
-26.454
 21
-26.256
  0
LINE
  8
0
 10
-13.33
 11
-13.694
 20
-26.256
 21
-25.921
  0
LINE
  8
0
 10
-13.694
 11
-13.929
 20
-25.921
 21
-25.487
  0
LINE
  8
0
 10
-13.929
 11
-14.01
 20
-25.487
 21
-25
  0
LINE
  8
0
 10
-9.51
 11
-8.51
 20
-30
 21
-20
  0
LINE
  8
0
 10
-8.51
 11
8.51
 20
-20
 21
-20
  0
LINE
  8
0
 10
8.51
 11
9.51
 20
-20
 21
-30
  0
LINE
  8
0
 10
9.51
 11
-9.51
 20
-30
 21
-30
  0
LINE
  8
0
 10
11.01
 11
11.091
 20
-25
 21
-24.513
  0
LINE
  8
0
 10
11.091
 11
11.326
 20
-24.513
 21
-24.079
  0
LINE
  8
0
 10
11.326
 11
11.69
 20
-24.079
 21
-23.744
  0
LINE
  8
0
 10
11.69
 11
12.142
 20
-23.744
 21
-23.546
  0
LINE
  8
0
 10
12.142
 11
12.634
 20
-23.546
 21
-23.505
  0
LINE
  8
0
 10
12.634
 11
13.113
 20
-23.505
 21
-23.626
  0
LINE
  8
0
 10
13.113
 11
13.526
 20
-23.626
 21
-23.896
  0
LINE
  8
0
 10
13.526
 11
13.829
 20
-23.896
 21
-24.286
  0
LINE
  8
0
 10
13.829
 11
13.99
 20
-24.286
 21
-24.753
  0
LINE
  8
0
 10
13.99
 11
13.99
 20
-24.753
 21
-25.247
  0
LINE
  8
0
 10
13.99
 11
13.829
 20
-25.247
 21
-25.714
  0
LINE
  8
0
 10
13.829
 11
13.526
 20
-25.714
 21
-26.104
  0
LINE
  8
0
 10
13.526
 11
13.113
 20
-26.104
 21
-26.374
  0
LINE
  8
0
 10
13.113
 11
12.634
 20
-26.374
 21
-26.495
  0
LINE
  8
0
 10
12.634
 11
12.142
 20
-26.495
 21
-26.454
  0
LINE
  8
0
 10
12.142
 11
11.69
 20
-26.454
 21
-26.256
  0
LINE
  8
0
 10
11.69
 11
11.326
 20
-26.256
 21
-25.921
  0
LINE
  8
0
 10
11.326
 11
11.091
 20
-25.921
 21
-25.487
  0
LINE
  8
0
 10
11.091
 11
11.01
 20
-25.487
 21
-25
  0
LINE
  8
0
 10
22.09
 11
22.171
 20
0
 21
0.487
  0
LINE
  8
0
 10
22.171
 11
22.406
 20
0.487
 21
0.921
  0
LINE
  8
0
 10
22.406
 11
22.77
 20
0.921
 21
1.256
  0
LINE
  8
0
 10
22.77
 11
23.222
 20
1.256
 21
1.454
  0
LINE
  8
0
 10
23.222
 11
23.714
 20
1.454
 21
1.495
  0
LINE
  8
0
 10
23.714
 11
24.193
 20
1.495
 21
1.374
  0
LINE
  8
0
 10
24.193
 11
24.606
 20
1.374
 21
1.104
  0
LINE
  8
0
 10
24.606
 11
24.909
 20
1.104
 21
0.714
  0
LINE
  8
0
 10
24.909
 11
25.07
 20
0.714
 21
0.247
  0
LINE
  8
0
 10
25.07
 11
25.07
 20
0.247
 21
-0.247
  0
LINE
  8
0
 10
25.07
 11
24.909
 20
-0.247
 21
-0.714
  0
LINE
  8
0
 10
24.909
 11
24.606
 20
-0.714
 21
-1.104
  0
LINE
  8
0
 10
24.606
 11
24.193
 20
-1.104
 21
-1.374
  0
LINE
  8
0
 10
24.193
 11
23.714
 20
-1.374
 21
-1.495
  0
LINE
  8
0
 10
23.714
 11
23.222
 20
-1.495
 21
-1.454
  0
LINE
  8
0
 10
23.222
 11
22.77
 20
-1.454
 21
-1.256
  0
LINE
  8
0
 10
22.77
 11
22.406
 20
-1.256
 21
-0.921
  0
LINE
  8
0
 10
22.406
 11
22.171
 20
-0.921
 21
-0.487
  0
LINE
  8
0
 10
22.171
 11
22.09
 20
-0.487
 21
0
  0
LINE
  8
0
 10
36
 11
36.087
 20
-25
 21
-24.168
  0
LINE
  8
0
 10
36.087
 11
36.346
 20
-24.168
 21
-23.373
  0
LINE
  8
0
 10
36.346
 11
36.764
 20
-23.373
 21
-22.649
  0
LINE
  8
0
 10
36.764
 11
37.323
 20
-22.649
 21
-22.027
  0
LINE
  8
0
 10
37.323
 11
38
 20
-22.027
 21
-21.536
  0
LINE
  8
0
 10
38
 11
38.764
 20
-21.536
 21
-21.196
  0
LINE
  8
0
 10
38.764
 11
39.582
 20
-21.196
 21
-21.022
  0
LINE
  8
0
 10
39.582
 11
40.418
 20
-21.022
 21
-21.022
  0
LINE
  8
0
 10
40.418
 11
41.236
 20
-21.022
 21
-21.196
  0
LINE
  8
0
 10
41.236
 11
42
 20
-21.196
 21
-21.536
  0
LINE
  8
0
 10
42
 11
42.677
 20
-21.536
 21
-22.027
  0
LINE
  8
0
 10
42.677
 11
43.236
 20
-22.027
 21
-22.649
  0
LINE
  8
0
 10
43.236
 11
43.654
 20
-22.649
 21
-23.373
  0
LINE
  8
0
 10
43.654
 11
43.913
 20
-23.373
 21
-24.168
  0
LINE
  8
0
 10
43.913
 11
44
 20
-24.168
 21
-25
  0
LINE
  8
0
 10
44
 11
43.913
 20
-25
 21
-25.832
  0
LINE
  8
0
 10
43.913
 11
43.654
 20
-25.832
 21
-26.627
  0
LINE
  8
0
 10
43.654
 11
43.236
 20
-26.627
 21
-27.351
  0
LINE
  8
0
 10
43.236
 11
42.677
 20
-27.351
 21
-27.973
  0
LINE
  8
0
 10
42.677
 11
42
 20
-27.973
 21
-28.464
  0
LINE
  8
0
 10
42
 11
41.236
 20
-28.464
 21
-28.804
  0
LINE
  8
0
 10
41.236
 11
40.418
 20
-28.804
 21
-28.978
  0
LINE
  8
0
 10
40.418
 11
39.582
 20
-28.978
 21
-28.978
  0
LINE
  8
0
 10
39.582
 11
38.764
 20
-28.978
 21
-28.804
  0
LINE
  8
0
 10
38.764
 11
38
 20
-28.804
 21
-28.464
  0
LINE
  8
0
 10
38
 11
37.323
 20
-28.464
 21
-27.973
  0
LINE
  8
0
 10
37.323
 11
36.764
 20
-27.973
 21
-27.351
  0
LINE
  8
0
 10
36.764
 11
36.346
 20
-27.351
 21
-26.627
  0
LINE
  8
0
 10
36.346
 11
36.087
 20
-26.627
 21
-25.832
  0
LINE
  8
0
 10
36.087
 11
36
 20
-25.832
 21
-25
  0
LINE
  8
0
 10
72
 11
72.175
 20
-25
 21
-23.337
  0
LINE
  8
0
 10
72.175
 11
72.692
 20
-23.337
 21
-21.746
  0
LINE
  8
0
 10
72.692
 11
73.528
 20
-21.746
 21
-20.298
  0
LINE
  8
0
 10
73.528
 11
74.647
 20
-20.298
 21
-19.055
  0
LINE
  8
0
 10
74.647
 11
76
 20
-19.055
 21
-18.072
  0
LINE
  8
0
 10
76
 11
77.528
 20
-18.072
 21
-17.392
  0
LINE
  8
0
 10
77.528
 11
79.164
 20
-17.392
 21
-17.044
  0
LINE
  8
0
 10
79.164
 11
80.836
 20
-17.044
 21
-17.044
  0
LINE
  8
0
 10
80.836
 11
82.472
 20
-17.044
 21
-17.392
  0
LINE
  8
0
 10
82.472
 11
84
 20
-17.392
 21
-18.072
  0
LINE
  8
0
 10
84
 11
85.353
 20
-18.072
 21
-19.055
  0
LINE
  8
0
 10
85.353
 11
86.472
 20
-19.055
 21
-20.298
  0
LINE
  8
0
 10
86.472
 11
87.308
 20
-20.298
 21
-21.746
  0
LINE
  8
0
 10
87.308
 11
87.825
 20
-21.746
 21
-23.337
  0
LINE
  8
0
 10
87.825
 11
88
 20
-23.337
 21
-25
  0
LINE
  8
0
 10
88
 11
87.825
 20
-25
 21
-26.663
  0
LINE
  8
0
 10
87.825
 11
87.308
 20
-26.663
 21
-28.254
  0
LINE
  8
0
 10
87.308
 11
86.472
 20
-28.254
 21
-29.702
  0
LINE
  8
0
 10
86.472
 11
85.353
 20
-29.702
 21
-30.945
  0
LINE
  8
0
 10
85.353
 11
84
 20
-30.945
 21
-31.928
  0
LINE
  8
0
 10
84
 11
82.472
 20
-31.928
 21
-32.608
  0
LINE
  8
0
 10
82.472
 11
80.836
 20
-32.608
 21
-32.956
  0
LINE
  8
0
 10
80.836
 11
79.164
 20
-32.956
 21
-32.956
  0
LINE
  8
0
 10
79.164
 11
77.528
 20
-32.956
 21
-32.608
  0
LINE
  8
0
 10
77.528
 11
76
 20
-32.608
 21
-31.928
  0
LINE
  8
0
 10
76
 11
74.647
 20
-31.928
 21
-30.945
  0
LINE
  8
0
 10
74.647
 11
73.528
 20
-30.945
 21
-29.702
  0
LINE
  8
0
 10
73.528
 11
72.692
 20
-29.702
 21
-28.254
  0
LINE
  8
0
 10
72.692
 11
72.175
 20
-28.254
 21
-26.663
  0
LINE
  8
0
 10
72.175
 11
72
 20
-26.663
 21
-25
  0
ENDSEC
  0
SECTION
  2
OBJECTS
  0
DICTIONARY
  0
ENDSEC
  0
EOF
