  0
SECTION
  2
BLOCKS
  0
ENDSEC
  0
SECTION
  2
ENTITIES
  0
LINE
  8
0
 10
-60
 11
-59.854
 20
0
 21
4.185
  0
LINE
  8
0
 10
-59.854
 11
-59.416
 20
4.185
 21
8.35
  0
LINE
  8
0
 10
-59.416
 11
-58.689
 20
8.35
 21
12.475
  0
LINE
  8
0
 10
-58.689
 11
-57.676
 20
12.475
 21
16.538
  0
LINE
  8
0
 10
-57.676
 11
-56.382
 20
16.538
 21
20.521
  0
LINE
  8
0
 10
-56.382
 11
-54.813
 20
20.521
 21
24.404
  0
LINE
  8
0
 10
-54.813
 11
-52.977
 20
24.404
 21
28.168
  0
LINE
  8
0
 10
-52.977
 11
-50.883
 20
28.168
 21
31.795
  0
LINE
  8
0
 10
-50.883
 11
-48.541
 20
31.795
 21
35.267
  0
LINE
  8
0
 10
-48.541
 11
-45.963
 20
35.267
 21
38.567
  0
LINE
  8
0
 10
-45.963
 11
-43.16
 20
38.567
 21
41.68
  0
LINE
  8
0
 10
-43.16
 11
-40.148
 20
41.68
 21
44.589
  0
LINE
  8
0
 10
-40.148
 11
-36.94
 20
44.589
 21
47.281
  0
LINE
  8
0
 10
-36.94
 11
-33.552
 20
47.281
 21
49.742
  0
LINE
  8
0
 10
-33.552
 11
-30
 20
49.742
 21
51.962
  0
LINE
  8
0
 10
-30
 11
-26.302
 20
51.962
 21
53.928
  0
LINE
  8
0
 10
-26.302
 11
-22.476
 20
53.928
 21
55.631
  0
LINE
  8
0
 10
-22.476
 11
-18.541
 20
55.631
 21
57.063
  0
LINE
  8
0
 10
-18.541
 11
-14.515
 20
57.063
 21
58.218
  0
LINE
  8
0
 10
-14.515
 11
-10.419
 20
58.218
 21
59.088
  0
LINE
  8
0
 10
-10.419
 11
-6.272
 20
59.088
 21
59.671
  0
LINE
  8
0
 10
-6.272
 11
-2.094
 20
59.671
 21
59.963
  0
LINE
  8
0
 10
-2.094
 11
2.094
 20
59.963
 21
59.963
  0
LINE
  8
0
 10
2.094
 11
6.272
 20
59.963
 21
59.671
  0
LINE
  8
0
 10
6.272
 11
10.419
 20
59.671
 21
59.088
  0
LINE
  8
0
 10
10.419
 11
14.515
 20
59.088
 21
58.218
  0
LINE
  8
0
 10
14.515
 11
18.541
 20
58.218
 21
57.063
  0
LINE
  8
0
 10
18.541
 11
22.476
 20
57.063
 21
55.631
  0
LINE
  8
0
 10
22.476
 11
26.302
 20
55.631
 21
53.928
  0
LINE
  8
0
 10
26.302
 11
30
 20
53.928
 21
51.962
  0
LINE
  8
0
 10
30
 11
33.552
 20
51.962
 21
49.742
  0
LINE
  8
0
 10
33.552
 11
36.94
 20
49.742
 21
47.281
  0
LINE
  8
0
 10
36.94
 11
40.148
 20
47.281
 21
44.589
  0
LINE
  8
0
 10
40.148
 11
43.16
 20
44.589
 21
41.68
  0
LINE
  8
0
 10
43.16
 11
45.963
 20
41.68
 21
38.567
  0
LINE
  8
0
 10
45.963
 11
48.541
 20
38.567
 21
35.267
  0
LINE
  8
0
 10
48.541
 11
50.883
 20
35.267
 21
31.795
  0
LINE
  8
0
 10
50.883
 11
52.977
 20
31.795
 21
28.168
  0
LINE
  8
0
 10
52.977
 11
54.813
 20
28.168
 21
24.404
  0
LINE
  8
0
 10
54.813
 11
56.382
 20
24.404
 21
20.521
  0
LINE
  8
0
 10
56.382
 11
57.676
 20
20.521
 21
16.538
  0
LINE
  8
0
 10
57.676
 11
58.689
 20
16.538
 21
12.475
  0
LINE
  8
0
 10
58.689
 11
59.416
 20
12.475
 21
8.35
  0
LINE
  8
0
 10
59.416
 11
59.854
 20
8.35
 21
4.185
  0
LINE
  8
0
 10
59.854
 11
60
 20
4.185
 21
0
  0
LINE
  8
0
 10
60
 11
59.854
 20
0
 21
-4.185
  0
LINE
  8
0
 10
59.854
 11
59.416
 20
-4.185
 21
-8.35
  0
LINE
  8
0
 10
59.416
 11
58.689
 20
-8.35
 21
-12.475
  0
LINE
  8
0
 10
58.689
 11
57.676
 20
-12.475
 21
-16.538
  0
LINE
  8
0
 10
57.676
 11
56.382
 20
-16.538
 21
-20.521
  0
LINE
  8
0
 10
56.382
 11
54.813
 20
-20.521
 21
-24.404
  0
LINE
  8
0
 10
54.813
 11
52.977
 20
-24.404
 21
-28.168
  0
LINE
  8
0
 10
52.977
 11
50.883
 20
-28.168
 21
-31.795
  0
LINE
  8
0
 10
50.883
 11
48.541
 20
-31.795
 21
-35.267
  0
LINE
  8
0
 10
48.541
 11
45.963
 20
-35.267
 21
-38.567
  0
LINE
  8
0
 10
45.963
 11
43.16
 20
-38.567
 21
-41.68
  0
LINE
  8
0
 10
43.16
 11
40.148
 20
-41.68
 21
-44.589
  0
LINE
  8
0
 10
40.148
 11
36.94
 20
-44.589
 21
-47.281
  0
LINE
  8
0
 10
36.94
 11
33.552
 20
-47.281
 21
-49.742
  0
LINE
  8
0
 10
33.552
 11
30
 20
-49.742
 21
-51.962
  0
LINE
  8
0
 10
30
 11
26.302
 20
-51.962
 21
-53.928
  0
LINE
  8
0
 10
26.302
 11
22.476
 20
-53.928
 21
-55.631
  0
LINE
  8
0
 10
22.476
 11
18.541
 20
-55.631
 21
-57.063
  0
LINE
  8
0
 10
18.541
 11
14.515
 20
-57.063
 21
-58.218
  0
LINE
  8
0
 10
14.515
 11
10.419
 20
-58.218
 21
-59.088
  0
LINE
  8
0
 10
10.419
 11
6.272
 20
-59.088
 21
-59.671
  0
LINE
  8
0
 10
6.272
 11
2.094
 20
-59.671
 21
-59.963
  0
LINE
  8
0
 10
2.094
 11
-2.094
 20
-59.963
 21
-59.963
  0
LINE
  8
0
 10
-2.094
 11
-6.272
 20
-59.963
 21
-59.671
  0
LINE
  8
0
 10
-6.272
 11
-10.419
 20
-59.671
 21
-59.088
  0
LINE
  8
0
 10
-10.419
 11
-14.515
 20
-59.088
 21
-58.218
  0
LINE
  8
0
 10
-14.515
 11
-18.541
 20
-58.218
 21
-57.063
  0
LINE
  8
0
 10
-18.541
 11
-22.476
 20
-57.063
 21
-55.631
  0
LINE
  8
0
 10
-22.476
 11
-26.302
 20
-55.631
 21
-53.928
  0
LINE
  8
0
 10
-26.302
 11
-30
 20
-53.928
 21
-51.962
  0
LINE
  8
0
 10
-30
 11
-33.552
 20
-51.962
 21
-49.742
  0
LINE
  8
0
 10
-33.552
 11
-36.94
 20
-49.742
 21
-47.281
  0
LINE
  8
0
 10
-36.94
 11
-40.148
 20
-47.281
 21
-44.589
  0
LINE
  8
0
 10
-40.148
 11
-43.16
 20
-44.589
 21
-41.68
  0
LINE
  8
0
 10
-43.16
 11
-45.963
 20
-41.68
 21
-38.567
  0
LINE
  8
0
 10
-45.963
 11
-48.541
 20
-38.567
 21
-35.267
  0
LINE
  8
0
 10
-48.541
 11
-50.883
 20
-35.267
 21
-31.795
  0
LINE
  8
0
 10
-50.883
 11
-52.977
 20
-31.795
 21
-28.168
  0
LINE
  8
0
 10
-52.977
 11
-54.813
 20
-28.168
 21
-24.404
  0
LINE
  8
0
 10
-54.813
 11
-56.382
 20
-24.404
 21
-20.521
  0
LINE
  8
0
 10
-56.382
 11
-57.676
 20
-20.521
 21
-16.538
  0
LINE
  8
0
 10
-57.676
 11
-58.689
 20
-16.538
 21
-12.475
  0
LINE
  8
0
 10
-58.689
 11
-59.416
 20
-12.475
 21
-8.35
  0
LINE
  8
0
 10
-59.416
 11
-59.854
 20
-8.35
 21
-4.185
  0
LINE
  8
0
 10
-59.854
 11
-60
 20
-4.185
 21
0
  0
LINE
  8
0
 10
-31.582
 11
-31.582
 20
-15.238
 21
-14.762
  0
LINE
  8
0
 10
-31.582
 11
-31.442
 20
-14.762
 21
-14.306
  0
LINE
  8
0
 10
-31.442
 11
-31.173
 20
-14.306
 21
-13.912
  0
LINE
  8
0
 10
-31.173
 11
-31
 20
-13.912
 21
-13.774
  0
LINE
  8
0
 10
-31
 11
-31
 20
-13.774
 21
35
  0
LINE
  8
0
 10
-31
 11
-30.971
 20
35
 21
35
  0
LINE
  8
0
 10
-30.971
 11
-30.971
 20
35
 21
35.239
  0
LINE
  8
0
 10
-30.971
 11
-30.749
 20
35.239
 21
35.663
  0
LINE
  8
0
 10
-30.749
 11
-30.355
 20
35.663
 21
35.935
  0
LINE
  8
0
 10
-30.355
 11
-30
 20
35.935
 21
35.978
  0
LINE
  8
0
 10
-30
 11
-30
 20
35.978
 21
36
  0
LINE
  8
0
 10
-30
 11
30
 20
36
 21
36
  0
LINE
  8
0
 10
30
 11
30
 20
36
 21
35.978
  0
LINE
  8
0
 10
30
 11
30.121
 20
35.978
 21
35.993
  0
LINE
  8
0
 10
30.121
 11
30.568
 20
35.993
 21
35.823
  0
LINE
  8
0
 10
30.568
 11
30.885
 20
35.823
 21
35.465
  0
LINE
  8
0
 10
30.885
 11
31
 20
35.465
 21
35
  0
LINE
  8
0
 10
31
 11
31
 20
35
 21
-13.752
  0
LINE
  8
0
 10
31
 11
31.322
 20
-13.752
 21
-14.099
  0
LINE
  8
0
 10
31.322
 11
31.529
 20
-14.099
 21
-14.528
  0
LINE
  8
0
 10
31.529
 11
31.6
 20
-14.528
 21
-15
  0
LINE
  8
0
 10
31.6
 11
31.529
 20
-15
 21
-15.472
  0
LINE
  8
0
 10
31.529
 11
31.322
 20
-15.472
 21
-15.901
  0
LINE
  8
0
 10
31.322
 11
30.998
 20
-15.901
 21
-16.251
  0
LINE
  8
0
 10
30.998
 11
30.585
 20
-16.251
 21
-16.489
  0
LINE
  8
0
 10
30.585
 11
30.12
 20
-16.489
 21
-16.596
  0
LINE
  8
0
 10
30.12
 11
29.644
 20
-16.596
 21
-16.56
  0
LINE
  8
0
 10
29.644
 11
29.2
 20
-16.56
 21
-16.386
  0
LINE
  8
0
 10
29.2
 11
28.827
 20
-16.386
 21
-16.088
  0
LINE
  8
0
 10
28.827
 11
28.558
 20
-16.088
 21
-15.694
  0
LINE
  8
0
 10
28.558
 11
28.418
 20
-15.694
 21
-15.238
  0
LINE
  8
0
 10
28.418
 11
28.418
 20
-15.238
 21
-14.762
  0
LINE
  8
0
 10
28.418
 11
28.558
 20
-14.762
 21
-14.306
  0
LINE
  8
0
 10
28.558
 11
28.827
 20
-14.306
 21
-13.912
  0
LINE
  8
0
 10
28.827
 11
29
 20
-13.912
 21
-13.774
  0
LINE
  8
0
 10
29
 11
29
 20
-13.774
 21
34
  0
LINE
  8
0
 10
29
 11
-29
 20
34
 21
34
  0
LINE
  8
0
 10
-29
 11
-29
 20
34
 21
-13.752
  0
LINE
  8
0
 10
-29
 11
-28.678
 20
-13.752
 21
-14.099
  0
LINE
  8
0
 10
-28.678
 11
-28.471
 20
-14.099
 21
-14.528
  0
LINE
  8
0
 10
-28.471
 11
-28.4
 20
-14.528
 21
-15
  0
LINE
  8
0
 10
-28.4
 11
-28.471
 20
-15
 21
-15.472
  0
LINE
  8
0
 10
-28.471
 11
-28.678
 20
-15.472
 21
-15.901
  0
LINE
  8
0
 10
-28.678
 11
-29.002
 20
-15.901
 21
-16.251
  0
LINE
  8
0
 10
-29.002
 11
-29.415
 20
-16.251
 21
-16.489
  0
LINE
  8
0
 10
-29.415
 11
-29.88
 20
-16.489
 21
-16.596
  0
LINE
  8
0
 10
-29.88
 11
-30.356
 20
-16.596
 21
-16.56
  0
LINE
  8
0
 10
-30.356
 11
-30.8
 20
-16.56
 21
-16.386
  0
LINE
  8
0
 10
-30.8
 11
-31.173
 20
-16.386
 21
-16.088
  0
LINE
  8
0
 10
-31.173
 11
-31.442
 20
-16.088
 21
-15.694
  0
LINE
  8
0
 10
-31.442
 11
-31.582
 20
-15.694
 21
-15.238
  0
LINE
  8
0
 10
-22.582
 11
-22.582
 20
-36.238
 21
-35.762
  0
LINE
  8
0
 10
-22.582
 11
-22.442
 20
-35.762
 21
-35.306
  0
LINE
  8
0
 10
-22.442
 11
-22.173
 20
-35.306
 21
-34.912
  0
LINE
  8
0
 10
-22.173
 11
-21.8
 20
-34.912
 21
-34.614
  0
LINE
  8
0
 10
-21.8
 11
-21.356
 20
-34.614
 21
-34.44
  0
LINE
  8
0
 10
-21.356
 11
-20.88
 20
-34.44
 21
-34.404
  0
LINE
  8
0
 10
-20.88
 11
-20.415
 20
-34.404
 21
-34.511
  0
LINE
  8
0
 10
-20.415
 11
-20.002
 20
-34.511
 21
-34.749
  0
LINE
  8
0
 10
-20.002
 11
-19.678
 20
-34.749
 21
-35.099
  0
LINE
  8
0
 10
-19.678
 11
-19.471
 20
-35.099
 21
-35.528
  0
LINE
  8
0
 10
-19.471
 11
-19.4
 20
-35.528
 21
-36
  0
LINE
  8
0
 10
-19.4
 11
-19.471
 20
-36
 21
-36.472
  0
LINE
  8
0
 10
-19.471
 11
-19.678
 20
-36.472
 21
-36.901
  0
LINE
  8
0
 10
-19.678
 11
-20.002
 20
-36.901
 21
-37.251
  0
LINE
  8
0
 10
-20.002
 11
-20.415
 20
-37.251
 21
-37.489
  0
LINE
  8
0
 10
-20.415
 11
-20.88
 20
-37.489
 21
-37.596
  0
LINE
  8
0
 10
-20.88
 11
-21.356
 20
-37.596
 21
-37.56
  0
LINE
  8
0
 10
-21.356
 11
-21.8
 20
-37.56
 21
-37.386
  0
LINE
  8
0
 10
-21.8
 11
-22.173
 20
-37.386
 21
-37.088
  0
LINE
  8
0
 10
-22.173
 11
-22.442
 20
-37.088
 21
-36.694
  0
LINE
  8
0
 10
-22.442
 11
-22.582
 20
-36.694
 21
-36.238
  0
LINE
  8
0
 10
-21.582
 11
-21.582
 20
-15.238
 21
-14.762
  0
LINE
  8
0
 10
-21.582
 11
-21.442
 20
-14.762
 21
-14.306
  0
LINE
  8
0
 10
-21.442
 11
-21.173
 20
-14.306
 21
-13.912
  0
LINE
  8
0
 10
-21.173
 11
-21
 20
-13.912
 21
-13.774
  0
LINE
  8
0
 10
-21
 11
-21
 20
-13.774
 21
25
  0
LINE
  8
0
 10
-21
 11
-20.971
 20
25
 21
25
  0
LINE
  8
0
 10
-20.971
 11
-20.971
 20
25
 21
25.239
  0
LINE
  8
0
 10
-20.971
 11
-20.749
 20
25.239
 21
25.663
  0
LINE
  8
0
 10
-20.749
 11
-20.355
 20
25.663
 21
25.935
  0
LINE
  8
0
 10
-20.355
 11
-20
 20
25.935
 21
25.978
  0
LINE
  8
0
 10
-20
 11
-20
 20
25.978
 21
26
  0
LINE
  8
0
 10
-20
 11
20
 20
26
 21
26
  0
LINE
  8
0
 10
20
 11
20
 20
26
 21
25.978
  0
LINE
  8
0
 10
20
 11
20.121
 20
25.978
 21
25.993
  0
LINE
  8
0
 10
20.121
 11
20.568
 20
25.993
 21
25.823
  0
LINE
  8
0
 10
20.568
 11
20.885
 20
25.823
 21
25.465
  0
LINE
  8
0
 10
20.885
 11
21
 20
25.465
 21
25
  0
LINE
  8
0
 10
21
 11
21
 20
25
 21
-13.752
  0
LINE
  8
0
 10
21
 11
21.322
 20
-13.752
 21
-14.099
  0
LINE
  8
0
 10
21.322
 11
21.529
 20
-14.099
 21
-14.528
  0
LINE
  8
0
 10
21.529
 11
21.6
 20
-14.528
 21
-15
  0
LINE
  8
0
 10
21.6
 11
21.529
 20
-15
 21
-15.472
  0
LINE
  8
0
 10
21.529
 11
21.322
 20
-15.472
 21
-15.901
  0
LINE
  8
0
 10
21.322
 11
20.998
 20
-15.901
 21
-16.251
  0
LINE
  8
0
 10
20.998
 11
20.585
 20
-16.251
 21
-16.489
  0
LINE
  8
0
 10
20.585
 11
20.12
 20
-16.489
 21
-16.596
  0
LINE
  8
0
 10
20.12
 11
19.644
 20
-16.596
 21
-16.56
  0
LINE
  8
0
 10
19.644
 11
19.2
 20
-16.56
 21
-16.386
  0
LINE
  8
0
 10
19.2
 11
18.827
 20
-16.386
 21
-16.088
  0
LINE
  8
0
 10
18.827
 11
18.558
 20
-16.088
 21
-15.694
  0
LINE
  8
0
 10
18.558
 11
18.418
 20
-15.694
 21
-15.238
  0
LINE
  8
0
 10
18.418
 11
18.418
 20
-15.238
 21
-14.762
  0
LINE
  8
0
 10
18.418
 11
18.558
 20
-14.762
 21
-14.306
  0
LINE
  8
0
 10
18.558
 11
18.827
 20
-14.306
 21
-13.912
  0
LINE
  8
0
 10
18.827
 11
19
 20
-13.912
 21
-13.774
  0
LINE
  8
0
 10
19
 11
19
 20
-13.774
 21
24
  0
LINE
  8
0
 10
19
 11
-19
 20
24
 21
24
  0
LINE
  8
0
 10
-19
 11
-19
 20
24
 21
-13.752
  0
LINE
  8
0
 10
-19
 11
-18.678
 20
-13.752
 21
-14.099
  0
LINE
  8
0
 10
-18.678
 11
-18.471
 20
-14.099
 21
-14.528
  0
LINE
  8
0
 10
-18.471
 11
-18.4
 20
-14.528
 21
-15
  0
LINE
  8
0
 10
-18.4
 11
-18.471
 20
-15
 21
-15.472
  0
LINE
  8
0
 10
-18.471
 11
-18.678
 20
-15.472
 21
-15.901
  0
LINE
  8
0
 10
-18.678
 11
-19.002
 20
-15.901
 21
-16.251
  0
LINE
  8
0
 10
-19.002
 11
-19.415
 20
-16.251
 21
-16.489
  0
LINE
  8
0
 10
-19.415
 11
-19.88
 20
-16.489
 21
-16.596
  0
LINE
  8
0
 10
-19.88
 11
-20.356
 20
-16.596
 21
-16.56
  0
LINE
  8
0
 10
-20.356
 11
-20.8
 20
-16.56
 21
-16.386
  0
LINE
  8
0
 10
-20.8
 11
-21.173
 20
-16.386
 21
-16.088
  0
LINE
  8
0
 10
-21.173
 11
-21.442
 20
-16.088
 21
-15.694
  0
LINE
  8
0
 10
-21.442
 11
-21.582
 20
-15.694
 21
-15.238
  0
LINE
  8
0
 10
-20.641
 11
-20.641
 20
42.465
 21
45.295
  0
LINE
  8
0
 10
-20.641
 11
20.67
 20
45.295
 21
45.295
  0
LINE
  8
0
 10
20.67
 11
20.67
 20
45.295
 21
42.465
  0
LINE
  8
0
 10
20.67
 11
-20.641
 20
42.465
 21
42.465
  0
LINE
  8
0
 10
-12.5
 11
-12.47
 20
0
 21
0.872
  0
LINE
  8
0
 10
-12.47
 11
-12.378
 20
0.872
 21
1.74
  0
LINE
  8
0
 10
-12.378
 11
-12.227
 20
1.74
 21
2.599
  0
LINE
  8
0
 10
-12.227
 11
-12.016
 20
2.599
 21
3.445
  0
LINE
  8
0
 10
-12.016
 11
-11.746
 20
3.445
 21
4.275
  0
LINE
  8
0
 10
-11.746
 11
-11.419
 20
4.275
 21
5.084
  0
LINE
  8
0
 10
-11.419
 11
-11.037
 20
5.084
 21
5.868
  0
LINE
  8
0
 10
-11.037
 11
-10.601
 20
5.868
 21
6.624
  0
LINE
  8
0
 10
-10.601
 11
-10.113
 20
6.624
 21
7.347
  0
LINE
  8
0
 10
-10.113
 11
-9.576
 20
7.347
 21
8.035
  0
LINE
  8
0
 10
-9.576
 11
-8.992
 20
8.035
 21
8.683
  0
LINE
  8
0
 10
-8.992
 11
-8.364
 20
8.683
 21
9.289
  0
LINE
  8
0
 10
-8.364
 11
-7.696
 20
9.289
 21
9.85
  0
LINE
  8
0
 10
-7.696
 11
-6.99
 20
9.85
 21
10.363
  0
LINE
  8
0
 10
-6.99
 11
-6.25
 20
10.363
 21
10.825
  0
LINE
  8
0
 10
-6.25
 11
-5.48
 20
10.825
 21
11.235
  0
LINE
  8
0
 10
-5.48
 11
-4.683
 20
11.235
 21
11.59
  0
LINE
  8
0
 10
-4.683
 11
-3.863
 20
11.59
 21
11.888
  0
LINE
  8
0
 10
-3.863
 11
-3.024
 20
11.888
 21
12.129
  0
LINE
  8
0
 10
-3.024
 11
-2.171
 20
12.129
 21
12.31
  0
LINE
  8
0
 10
-2.171
 11
-1.307
 20
12.31
 21
12.432
  0
LINE
  8
0
 10
-1.307
 11
-0.436
 20
12.432
 21
12.492
  0
LINE
  8
0
 10
-0.436
 11
0.436
 20
12.492
 21
12.492
  0
LINE
  8
0
 10
0.436
 11
1.307
 20
12.492
 21
12.432
  0
LINE
  8
0
 10
1.307
 11
2.171
 20
12.432
 21
12.31
  0
LINE
  8
0
 10
2.171
 11
3.024
 20
12.31
 21
12.129
  0
LINE
  8
0
 10
3.024
 11
3.863
 20
12.129
 21
11.888
  0
LINE
  8
0
 10
3.863
 11
4.683
 20
11.888
 21
11.59
  0
LINE
  8
0
 10
4.683
 11
5.48
 20
11.59
 21
11.235
  0
LINE
  8
0
 10
5.48
 11
6.25
 20
11.235
 21
10.825
  0
LINE
  8
0
 10
6.25
 11
6.99
 20
10.825
 21
10.363
  0
LINE
  8
0
 10
6.99
 11
7.696
 20
10.363
 21
9.85
  0
LINE
  8
0
 10
7.696
 11
8.364
 20
9.85
 21
9.289
  0
LINE
  8
0
 10
8.364
 11
8.992
 20
9.289
 21
8.683
  0
LINE
  8
0
 10
8.992
 11
9.576
 20
8.683
 21
8.035
  0
LINE
  8
0
 10
9.576
 11
10.113
 20
8.035
 21
7.347
  0
LINE
  8
0
 10
10.113
 11
10.601
 20
7.347
 21
6.624
  0
LINE
  8
0
 10
10.601
 11
11.037
 20
6.624
 21
5.868
  0
LINE
  8
0
 10
11.037
 11
11.419
 20
5.868
 21
5.084
  0
LINE
  8
0
 10
11.419
 11
11.746
 20
5.084
 21
4.275
  0
LINE
  8
0
 10
11.746
 11
12.016
 20
4.275
 21
3.445
  0
LINE
  8
0
 10
12.016
 11
12.227
 20
3.445
 21
2.599
  0
LINE
  8
0
 10
12.227
 11
12.378
 20
2.599
 21
1.74
  0
LINE
  8
0
 10
12.378
 11
12.47
 20
1.74
 21
0.872
  0
LINE
  8
0
 10
12.47
 11
12.5
 20
0.872
 21
0
  0
LINE
  8
0
 10
12.5
 11
12.47
 20
0
 21
-0.872
  0
LINE
  8
0
 10
12.47
 11
12.378
 20
-0.872
 21
-1.74
  0
LINE
  8
0
 10
12.378
 11
12.227
 20
-1.74
 21
-2.599
  0
LINE
  8
0
 10
12.227
 11
12.016
 20
-2.599
 21
-3.445
  0
LINE
  8
0
 10
12.016
 11
11.746
 20
-3.445
 21
-4.275
  0
LINE
  8
0
 10
11.746
 11
11.419
 20
-4.275
 21
-5.084
  0
LINE
  8
0
 10
11.419
 11
11.037
 20
-5.084
 21
-5.868
  0
LINE
  8
0
 10
11.037
 11
10.601
 20
-5.868
 21
-6.624
  0
LINE
  8
0
 10
10.601
 11
10.113
 20
-6.624
 21
-7.347
  0
LINE
  8
0
 10
10.113
 11
9.576
 20
-7.347
 21
-8.035
  0
LINE
  8
0
 10
9.576
 11
8.992
 20
-8.035
 21
-8.683
  0
LINE
  8
0
 10
8.992
 11
8.364
 20
-8.683
 21
-9.289
  0
LINE
  8
0
 10
8.364
 11
7.696
 20
-9.289
 21
-9.85
  0
LINE
  8
0
 10
7.696
 11
6.99
 20
-9.85
 21
-10.363
  0
LINE
  8
0
 10
6.99
 11
6.25
 20
-10.363
 21
-10.825
  0
LINE
  8
0
 10
6.25
 11
5.48
 20
-10.825
 21
-11.235
  0
LINE
  8
0
 10
5.48
 11
4.683
 20
-11.235
 21
-11.59
  0
LINE
  8
0
 10
4.683
 11
3.863
 20
-11.59
 21
-11.888
  0
LINE
  8
0
 10
3.863
 11
3.024
 20
-11.888
 21
-12.129
  0
LINE
  8
0
 10
3.024
 11
2.171
 20
-12.129
 21
-12.31
  0
LINE
  8
0
 10
2.171
 11
1.307
 20
-12.31
 21
-12.432
  0
LINE
  8
0
 10
1.307
 11
0.436
 20
-12.432
 21
-12.492
  0
LINE
  8
0
 10
0.436
 11
-0.436
 20
-12.492
 21
-12.492
  0
LINE
  8
0
 10
-0.436
 11
-1.307
 20
-12.492
 21
-12.432
  0
LINE
  8
0
 10
-1.307
 11
-2.171
 20
-12.432
 21
-12.31
  0
LINE
  8
0
 10
-2.171
 11
-3.024
 20
-12.31
 21
-12.129
  0
LINE
  8
0
 10
-3.024
 11
-3.863
 20
-12.129
 21
-11.888
  0
LINE
  8
0
 10
-3.863
 11
-4.683
 20
-11.888
 21
-11.59
  0
LINE
  8
0
 10
-4.683
 11
-5.48
 20
-11.59
 21
-11.235
  0
LINE
  8
0
 10
-5.48
 11
-6.25
 20
-11.235
 21
-10.825
  0
LINE
  8
0
 10
-6.25
 11
-6.99
 20
-10.825
 21
-10.363
  0
LINE
  8
0
 10
-6.99
 11
-7.696
 20
-10.363
 21
-9.85
  0
LINE
  8
0
 10
-7.696
 11
-8.364
 20
-9.85
 21
-9.289
  0
LINE
  8
0
 10
-8.364
 11
-8.992
 20
-9.289
 21
-8.683
  0
LINE
  8
0
 10
-8.992
 11
-9.576
 20
-8.683
 21
-8.035
  0
LINE
  8
0
 10
-9.576
 11
-10.113
 20
-8.035
 21
-7.347
  0
LINE
  8
0
 10
-10.113
 11
-10.601
 20
-7.347
 21
-6.624
  0
LINE
  8
0
 10
-10.601
 11
-11.037
 20
-6.624
 21
-5.868
  0
LINE
  8
0
 10
-11.037
 11
-11.419
 20
-5.868
 21
-5.084
  0
LINE
  8
0
 10
-11.419
 11
-11.746
 20
-5.084
 21
-4.275
  0
LINE
  8
0
 10
-11.746
 11
-12.016
 20
-4.275
 21
-3.445
  0
LINE
  8
0
 10
-12.016
 11
-12.227
 20
-3.445
 21
-2.599
  0
LINE
  8
0
 10
-12.227
 11
-12.378
 20
-2.599
 21
-1.74
  0
LINE
  8
0
 10
-12.378
 11
-12.47
 20
-1.74
 21
-0.872
  0
LINE
  8
0
 10
-12.47
 11
-12.5
 20
-0.872
 21
0
  0
LINE
  8
0
 10
19.418
 11
19.418
 20
-36.238
 21
-35.762
  0
LINE
  8
0
 10
19.418
 11
19.558
 20
-35.762
 21
-35.306
  0
LINE
  8
0
 10
19.558
 11
19.827
 20
-35.306
 21
-34.912
  0
LINE
  8
0
 10
19.827
 11
20.2
 20
-34.912
 21
-34.614
  0
LINE
  8
0
 10
20.2
 11
20.644
 20
-34.614
 21
-34.44
  0
LINE
  8
0
 10
20.644
 11
21.12
 20
-34.44
 21
-34.404
  0
LINE
  8
0
 10
21.12
 11
21.585
 20
-34.404
 21
-34.511
  0
LINE
  8
0
 10
21.585
 11
21.998
 20
-34.511
 21
-34.749
  0
LINE
  8
0
 10
21.998
 11
22.322
 20
-34.749
 21
-35.099
  0
LINE
  8
0
 10
22.322
 11
22.529
 20
-35.099
 21
-35.528
  0
LINE
  8
0
 10
22.529
 11
22.6
 20
-35.528
 21
-36
  0
LINE
  8
0
 10
22.6
 11
22.529
 20
-36
 21
-36.472
  0
LINE
  8
0
 10
22.529
 11
22.322
 20
-36.472
 21
-36.901
  0
LINE
  8
0
 10
22.322
 11
21.998
 20
-36.901
 21
-37.251
  0
LINE
  8
0
 10
21.998
 11
21.585
 20
-37.251
 21
-37.489
  0
LINE
  8
0
 10
21.585
 11
21.12
 20
-37.489
 21
-37.596
  0
LINE
  8
0
 10
21.12
 11
20.644
 20
-37.596
 21
-37.56
  0
LINE
  8
0
 10
20.644
 11
20.2
 20
-37.56
 21
-37.386
  0
LINE
  8
0
 10
20.2
 11
19.827
 20
-37.386
 21
-37.088
  0
LINE
  8
0
 10
19.827
 11
19.558
 20
-37.088
 21
-36.694
  0
LINE
  8
0
 10
19.558
 11
19.418
 20
-36.694
 21
-36.238
  0
ENDSEC
  0
SECTION
  2
OBJECTS
  0
DICTIONARY
  0
ENDSEC
  0
EOF
