  0
SECTION
  2
BLOCKS
  0
ENDSEC
  0
SECTION
  2
ENTITIES
  0
LINE
  8
0
 10
-60
 11
-59.854
 20
0
 21
4.185
  0
LINE
  8
0
 10
-59.854
 11
-59.416
 20
4.185
 21
8.35
  0
LINE
  8
0
 10
-59.416
 11
-58.689
 20
8.35
 21
12.475
  0
LINE
  8
0
 10
-58.689
 11
-57.676
 20
12.475
 21
16.538
  0
LINE
  8
0
 10
-57.676
 11
-56.382
 20
16.538
 21
20.521
  0
LINE
  8
0
 10
-56.382
 11
-54.813
 20
20.521
 21
24.404
  0
LINE
  8
0
 10
-54.813
 11
-52.977
 20
24.404
 21
28.168
  0
LINE
  8
0
 10
-52.977
 11
-50.883
 20
28.168
 21
31.795
  0
LINE
  8
0
 10
-50.883
 11
-48.541
 20
31.795
 21
35.267
  0
LINE
  8
0
 10
-48.541
 11
-45.963
 20
35.267
 21
38.567
  0
LINE
  8
0
 10
-45.963
 11
-43.16
 20
38.567
 21
41.68
  0
LINE
  8
0
 10
-43.16
 11
-40.148
 20
41.68
 21
44.589
  0
LINE
  8
0
 10
-40.148
 11
-36.94
 20
44.589
 21
47.281
  0
LINE
  8
0
 10
-36.94
 11
-33.552
 20
47.281
 21
49.742
  0
LINE
  8
0
 10
-33.552
 11
-30
 20
49.742
 21
51.962
  0
LINE
  8
0
 10
-30
 11
-26.302
 20
51.962
 21
53.928
  0
LINE
  8
0
 10
-26.302
 11
-22.476
 20
53.928
 21
55.631
  0
LINE
  8
0
 10
-22.476
 11
-18.541
 20
55.631
 21
57.063
  0
LINE
  8
0
 10
-18.541
 11
-14.515
 20
57.063
 21
58.218
  0
LINE
  8
0
 10
-14.515
 11
-10.419
 20
58.218
 21
59.088
  0
LINE
  8
0
 10
-10.419
 11
-6.272
 20
59.088
 21
59.671
  0
LINE
  8
0
 10
-6.272
 11
-2.094
 20
59.671
 21
59.963
  0
LINE
  8
0
 10
-2.094
 11
2.094
 20
59.963
 21
59.963
  0
LINE
  8
0
 10
2.094
 11
6.272
 20
59.963
 21
59.671
  0
LINE
  8
0
 10
6.272
 11
10.419
 20
59.671
 21
59.088
  0
LINE
  8
0
 10
10.419
 11
14.515
 20
59.088
 21
58.218
  0
LINE
  8
0
 10
14.515
 11
18.541
 20
58.218
 21
57.063
  0
LINE
  8
0
 10
18.541
 11
22.476
 20
57.063
 21
55.631
  0
LINE
  8
0
 10
22.476
 11
26.302
 20
55.631
 21
53.928
  0
LINE
  8
0
 10
26.302
 11
30
 20
53.928
 21
51.962
  0
LINE
  8
0
 10
30
 11
33.552
 20
51.962
 21
49.742
  0
LINE
  8
0
 10
33.552
 11
36.94
 20
49.742
 21
47.281
  0
LINE
  8
0
 10
36.94
 11
40.148
 20
47.281
 21
44.589
  0
LINE
  8
0
 10
40.148
 11
43.16
 20
44.589
 21
41.68
  0
LINE
  8
0
 10
43.16
 11
45.963
 20
41.68
 21
38.567
  0
LINE
  8
0
 10
45.963
 11
48.541
 20
38.567
 21
35.267
  0
LINE
  8
0
 10
48.541
 11
50.883
 20
35.267
 21
31.795
  0
LINE
  8
0
 10
50.883
 11
52.977
 20
31.795
 21
28.168
  0
LINE
  8
0
 10
52.977
 11
54.813
 20
28.168
 21
24.404
  0
LINE
  8
0
 10
54.813
 11
56.382
 20
24.404
 21
20.521
  0
LINE
  8
0
 10
56.382
 11
57.676
 20
20.521
 21
16.538
  0
LINE
  8
0
 10
57.676
 11
58.689
 20
16.538
 21
12.475
  0
LINE
  8
0
 10
58.689
 11
59.416
 20
12.475
 21
8.35
  0
LINE
  8
0
 10
59.416
 11
59.854
 20
8.35
 21
4.185
  0
LINE
  8
0
 10
59.854
 11
60
 20
4.185
 21
0
  0
LINE
  8
0
 10
60
 11
59.854
 20
0
 21
-4.185
  0
LINE
  8
0
 10
59.854
 11
59.416
 20
-4.185
 21
-8.35
  0
LINE
  8
0
 10
59.416
 11
58.689
 20
-8.35
 21
-12.475
  0
LINE
  8
0
 10
58.689
 11
57.676
 20
-12.475
 21
-16.538
  0
LINE
  8
0
 10
57.676
 11
56.382
 20
-16.538
 21
-20.521
  0
LINE
  8
0
 10
56.382
 11
54.813
 20
-20.521
 21
-24.404
  0
LINE
  8
0
 10
54.813
 11
52.977
 20
-24.404
 21
-28.168
  0
LINE
  8
0
 10
52.977
 11
50.883
 20
-28.168
 21
-31.795
  0
LINE
  8
0
 10
50.883
 11
48.541
 20
-31.795
 21
-35.267
  0
LINE
  8
0
 10
48.541
 11
45.963
 20
-35.267
 21
-38.567
  0
LINE
  8
0
 10
45.963
 11
43.16
 20
-38.567
 21
-41.68
  0
LINE
  8
0
 10
43.16
 11
40.148
 20
-41.68
 21
-44.589
  0
LINE
  8
0
 10
40.148
 11
36.94
 20
-44.589
 21
-47.281
  0
LINE
  8
0
 10
36.94
 11
33.552
 20
-47.281
 21
-49.742
  0
LINE
  8
0
 10
33.552
 11
30
 20
-49.742
 21
-51.962
  0
LINE
  8
0
 10
30
 11
26.302
 20
-51.962
 21
-53.928
  0
LINE
  8
0
 10
26.302
 11
22.476
 20
-53.928
 21
-55.631
  0
LINE
  8
0
 10
22.476
 11
18.541
 20
-55.631
 21
-57.063
  0
LINE
  8
0
 10
18.541
 11
14.515
 20
-57.063
 21
-58.218
  0
LINE
  8
0
 10
14.515
 11
10.419
 20
-58.218
 21
-59.088
  0
LINE
  8
0
 10
10.419
 11
6.272
 20
-59.088
 21
-59.671
  0
LINE
  8
0
 10
6.272
 11
2.094
 20
-59.671
 21
-59.963
  0
LINE
  8
0
 10
2.094
 11
-2.094
 20
-59.963
 21
-59.963
  0
LINE
  8
0
 10
-2.094
 11
-6.272
 20
-59.963
 21
-59.671
  0
LINE
  8
0
 10
-6.272
 11
-10.419
 20
-59.671
 21
-59.088
  0
LINE
  8
0
 10
-10.419
 11
-14.515
 20
-59.088
 21
-58.218
  0
LINE
  8
0
 10
-14.515
 11
-18.541
 20
-58.218
 21
-57.063
  0
LINE
  8
0
 10
-18.541
 11
-22.476
 20
-57.063
 21
-55.631
  0
LINE
  8
0
 10
-22.476
 11
-26.302
 20
-55.631
 21
-53.928
  0
LINE
  8
0
 10
-26.302
 11
-30
 20
-53.928
 21
-51.962
  0
LINE
  8
0
 10
-30
 11
-33.552
 20
-51.962
 21
-49.742
  0
LINE
  8
0
 10
-33.552
 11
-36.94
 20
-49.742
 21
-47.281
  0
LINE
  8
0
 10
-36.94
 11
-40.148
 20
-47.281
 21
-44.589
  0
LINE
  8
0
 10
-40.148
 11
-43.16
 20
-44.589
 21
-41.68
  0
LINE
  8
0
 10
-43.16
 11
-45.963
 20
-41.68
 21
-38.567
  0
LINE
  8
0
 10
-45.963
 11
-48.541
 20
-38.567
 21
-35.267
  0
LINE
  8
0
 10
-48.541
 11
-50.883
 20
-35.267
 21
-31.795
  0
LINE
  8
0
 10
-50.883
 11
-52.977
 20
-31.795
 21
-28.168
  0
LINE
  8
0
 10
-52.977
 11
-54.813
 20
-28.168
 21
-24.404
  0
LINE
  8
0
 10
-54.813
 11
-56.382
 20
-24.404
 21
-20.521
  0
LINE
  8
0
 10
-56.382
 11
-57.676
 20
-20.521
 21
-16.538
  0
LINE
  8
0
 10
-57.676
 11
-58.689
 20
-16.538
 21
-12.475
  0
LINE
  8
0
 10
-58.689
 11
-59.416
 20
-12.475
 21
-8.35
  0
LINE
  8
0
 10
-59.416
 11
-59.854
 20
-8.35
 21
-4.185
  0
LINE
  8
0
 10
-59.854
 11
-60
 20
-4.185
 21
0
  0
LINE
  8
0
 10
-31.905
 11
-31.905
 20
-15.241
 21
-14.759
  0
LINE
  8
0
 10
-31.905
 11
-31.785
 20
-14.759
 21
-14.293
  0
LINE
  8
0
 10
-31.785
 11
-31.553
 20
-14.293
 21
-13.871
  0
LINE
  8
0
 10
-31.553
 11
-31.224
 20
-13.871
 21
-13.521
  0
LINE
  8
0
 10
-31.224
 11
-31.2
 20
-13.521
 21
-13.505
  0
LINE
  8
0
 10
-31.2
 11
-31.2
 20
-13.505
 21
35
  0
LINE
  8
0
 10
-31.2
 11
-31.109
 20
35
 21
35.459
  0
LINE
  8
0
 10
-31.109
 11
-30.849
 20
35.459
 21
35.849
  0
LINE
  8
0
 10
-30.849
 11
-30.459
 20
35.849
 21
36.109
  0
LINE
  8
0
 10
-30.459
 11
-30
 20
36.109
 21
36.2
  0
LINE
  8
0
 10
-30
 11
30
 20
36.2
 21
36.2
  0
LINE
  8
0
 10
30
 11
30.459
 20
36.2
 21
36.109
  0
LINE
  8
0
 10
30.459
 11
30.849
 20
36.109
 21
35.849
  0
LINE
  8
0
 10
30.849
 11
31.109
 20
35.849
 21
35.459
  0
LINE
  8
0
 10
31.109
 11
31.2
 20
35.459
 21
35
  0
LINE
  8
0
 10
31.2
 11
31.2
 20
35
 21
-13.521
  0
LINE
  8
0
 10
31.2
 11
31.4
 20
-13.521
 21
-13.686
  0
LINE
  8
0
 10
31.4
 11
31.683
 20
-13.686
 21
-14.075
  0
LINE
  8
0
 10
31.683
 11
31.86
 20
-14.075
 21
-14.523
  0
LINE
  8
0
 10
31.86
 11
31.92
 20
-14.523
 21
-15
  0
LINE
  8
0
 10
31.92
 11
31.86
 20
-15
 21
-15.477
  0
LINE
  8
0
 10
31.86
 11
31.683
 20
-15.477
 21
-15.925
  0
LINE
  8
0
 10
31.683
 11
31.4
 20
-15.925
 21
-16.314
  0
LINE
  8
0
 10
31.4
 11
31.029
 20
-16.314
 21
-16.621
  0
LINE
  8
0
 10
31.029
 11
30.593
 20
-16.621
 21
-16.826
  0
LINE
  8
0
 10
30.593
 11
30.121
 20
-16.826
 21
-16.916
  0
LINE
  8
0
 10
30.121
 11
29.64
 20
-16.916
 21
-16.886
  0
LINE
  8
0
 10
29.64
 11
29.183
 20
-16.886
 21
-16.737
  0
LINE
  8
0
 10
29.183
 11
28.776
 20
-16.737
 21
-16.479
  0
LINE
  8
0
 10
28.776
 11
28.447
 20
-16.479
 21
-16.129
  0
LINE
  8
0
 10
28.447
 11
28.215
 20
-16.129
 21
-15.707
  0
LINE
  8
0
 10
28.215
 11
28.095
 20
-15.707
 21
-15.241
  0
LINE
  8
0
 10
28.095
 11
28.095
 20
-15.241
 21
-14.759
  0
LINE
  8
0
 10
28.095
 11
28.215
 20
-14.759
 21
-14.293
  0
LINE
  8
0
 10
28.215
 11
28.447
 20
-14.293
 21
-13.871
  0
LINE
  8
0
 10
28.447
 11
28.776
 20
-13.871
 21
-13.521
  0
LINE
  8
0
 10
28.776
 11
28.8
 20
-13.521
 21
-13.505
  0
LINE
  8
0
 10
28.8
 11
28.8
 20
-13.505
 21
33.8
  0
LINE
  8
0
 10
28.8
 11
-28.8
 20
33.8
 21
33.8
  0
LINE
  8
0
 10
-28.8
 11
-28.8
 20
33.8
 21
-13.521
  0
LINE
  8
0
 10
-28.8
 11
-28.6
 20
-13.521
 21
-13.686
  0
LINE
  8
0
 10
-28.6
 11
-28.317
 20
-13.686
 21
-14.075
  0
LINE
  8
0
 10
-28.317
 11
-28.14
 20
-14.075
 21
-14.523
  0
LINE
  8
0
 10
-28.14
 11
-28.08
 20
-14.523
 21
-15
  0
LINE
  8
0
 10
-28.08
 11
-28.14
 20
-15
 21
-15.477
  0
LINE
  8
0
 10
-28.14
 11
-28.317
 20
-15.477
 21
-15.925
  0
LINE
  8
0
 10
-28.317
 11
-28.6
 20
-15.925
 21
-16.314
  0
LINE
  8
0
 10
-28.6
 11
-28.971
 20
-16.314
 21
-16.621
  0
LINE
  8
0
 10
-28.971
 11
-29.407
 20
-16.621
 21
-16.826
  0
LINE
  8
0
 10
-29.407
 11
-29.879
 20
-16.826
 21
-16.916
  0
LINE
  8
0
 10
-29.879
 11
-30.36
 20
-16.916
 21
-16.886
  0
LINE
  8
0
 10
-30.36
 11
-30.817
 20
-16.886
 21
-16.737
  0
LINE
  8
0
 10
-30.817
 11
-31.224
 20
-16.737
 21
-16.479
  0
LINE
  8
0
 10
-31.224
 11
-31.553
 20
-16.479
 21
-16.129
  0
LINE
  8
0
 10
-31.553
 11
-31.785
 20
-16.129
 21
-15.707
  0
LINE
  8
0
 10
-31.785
 11
-31.905
 20
-15.707
 21
-15.241
  0
LINE
  8
0
 10
-22.582
 11
-22.582
 20
-36.238
 21
-35.762
  0
LINE
  8
0
 10
-22.582
 11
-22.442
 20
-35.762
 21
-35.306
  0
LINE
  8
0
 10
-22.442
 11
-22.173
 20
-35.306
 21
-34.912
  0
LINE
  8
0
 10
-22.173
 11
-21.8
 20
-34.912
 21
-34.614
  0
LINE
  8
0
 10
-21.8
 11
-21.356
 20
-34.614
 21
-34.44
  0
LINE
  8
0
 10
-21.356
 11
-20.88
 20
-34.44
 21
-34.404
  0
LINE
  8
0
 10
-20.88
 11
-20.415
 20
-34.404
 21
-34.511
  0
LINE
  8
0
 10
-20.415
 11
-20.002
 20
-34.511
 21
-34.749
  0
LINE
  8
0
 10
-20.002
 11
-19.678
 20
-34.749
 21
-35.099
  0
LINE
  8
0
 10
-19.678
 11
-19.471
 20
-35.099
 21
-35.528
  0
LINE
  8
0
 10
-19.471
 11
-19.4
 20
-35.528
 21
-36
  0
LINE
  8
0
 10
-19.4
 11
-19.471
 20
-36
 21
-36.472
  0
LINE
  8
0
 10
-19.471
 11
-19.678
 20
-36.472
 21
-36.901
  0
LINE
  8
0
 10
-19.678
 11
-20.002
 20
-36.901
 21
-37.251
  0
LINE
  8
0
 10
-20.002
 11
-20.415
 20
-37.251
 21
-37.489
  0
LINE
  8
0
 10
-20.415
 11
-20.88
 20
-37.489
 21
-37.596
  0
LINE
  8
0
 10
-20.88
 11
-21.356
 20
-37.596
 21
-37.56
  0
LINE
  8
0
 10
-21.356
 11
-21.8
 20
-37.56
 21
-37.386
  0
LINE
  8
0
 10
-21.8
 11
-22.173
 20
-37.386
 21
-37.088
  0
LINE
  8
0
 10
-22.173
 11
-22.442
 20
-37.088
 21
-36.694
  0
LINE
  8
0
 10
-22.442
 11
-22.582
 20
-36.694
 21
-36.238
  0
LINE
  8
0
 10
-21.905
 11
-21.905
 20
-15.241
 21
-14.759
  0
LINE
  8
0
 10
-21.905
 11
-21.785
 20
-14.759
 21
-14.293
  0
LINE
  8
0
 10
-21.785
 11
-21.553
 20
-14.293
 21
-13.871
  0
LINE
  8
0
 10
-21.553
 11
-21.224
 20
-13.871
 21
-13.521
  0
LINE
  8
0
 10
-21.224
 11
-21.2
 20
-13.521
 21
-13.505
  0
LINE
  8
0
 10
-21.2
 11
-21.2
 20
-13.505
 21
25
  0
LINE
  8
0
 10
-21.2
 11
-21.109
 20
25
 21
25.459
  0
LINE
  8
0
 10
-21.109
 11
-20.849
 20
25.459
 21
25.849
  0
LINE
  8
0
 10
-20.849
 11
-20.459
 20
25.849
 21
26.109
  0
LINE
  8
0
 10
-20.459
 11
-20
 20
26.109
 21
26.2
  0
LINE
  8
0
 10
-20
 11
20
 20
26.2
 21
26.2
  0
LINE
  8
0
 10
20
 11
20.459
 20
26.2
 21
26.109
  0
LINE
  8
0
 10
20.459
 11
20.849
 20
26.109
 21
25.849
  0
LINE
  8
0
 10
20.849
 11
21.109
 20
25.849
 21
25.459
  0
LINE
  8
0
 10
21.109
 11
21.2
 20
25.459
 21
25
  0
LINE
  8
0
 10
21.2
 11
21.2
 20
25
 21
-13.521
  0
LINE
  8
0
 10
21.2
 11
21.4
 20
-13.521
 21
-13.686
  0
LINE
  8
0
 10
21.4
 11
21.683
 20
-13.686
 21
-14.075
  0
LINE
  8
0
 10
21.683
 11
21.86
 20
-14.075
 21
-14.523
  0
LINE
  8
0
 10
21.86
 11
21.92
 20
-14.523
 21
-15
  0
LINE
  8
0
 10
21.92
 11
21.86
 20
-15
 21
-15.477
  0
LINE
  8
0
 10
21.86
 11
21.683
 20
-15.477
 21
-15.925
  0
LINE
  8
0
 10
21.683
 11
21.4
 20
-15.925
 21
-16.314
  0
LINE
  8
0
 10
21.4
 11
21.029
 20
-16.314
 21
-16.621
  0
LINE
  8
0
 10
21.029
 11
20.593
 20
-16.621
 21
-16.826
  0
LINE
  8
0
 10
20.593
 11
20.121
 20
-16.826
 21
-16.916
  0
LINE
  8
0
 10
20.121
 11
19.64
 20
-16.916
 21
-16.886
  0
LINE
  8
0
 10
19.64
 11
19.183
 20
-16.886
 21
-16.737
  0
LINE
  8
0
 10
19.183
 11
18.776
 20
-16.737
 21
-16.479
  0
LINE
  8
0
 10
18.776
 11
18.447
 20
-16.479
 21
-16.129
  0
LINE
  8
0
 10
18.447
 11
18.215
 20
-16.129
 21
-15.707
  0
LINE
  8
0
 10
18.215
 11
18.095
 20
-15.707
 21
-15.241
  0
LINE
  8
0
 10
18.095
 11
18.095
 20
-15.241
 21
-14.759
  0
LINE
  8
0
 10
18.095
 11
18.215
 20
-14.759
 21
-14.293
  0
LINE
  8
0
 10
18.215
 11
18.447
 20
-14.293
 21
-13.871
  0
LINE
  8
0
 10
18.447
 11
18.776
 20
-13.871
 21
-13.521
  0
LINE
  8
0
 10
18.776
 11
18.8
 20
-13.521
 21
-13.505
  0
LINE
  8
0
 10
18.8
 11
18.8
 20
-13.505
 21
23.8
  0
LINE
  8
0
 10
18.8
 11
-18.8
 20
23.8
 21
23.8
  0
LINE
  8
0
 10
-18.8
 11
-18.8
 20
23.8
 21
-13.521
  0
LINE
  8
0
 10
-18.8
 11
-18.6
 20
-13.521
 21
-13.686
  0
LINE
  8
0
 10
-18.6
 11
-18.317
 20
-13.686
 21
-14.075
  0
LINE
  8
0
 10
-18.317
 11
-18.14
 20
-14.075
 21
-14.523
  0
LINE
  8
0
 10
-18.14
 11
-18.08
 20
-14.523
 21
-15
  0
LINE
  8
0
 10
-18.08
 11
-18.14
 20
-15
 21
-15.477
  0
LINE
  8
0
 10
-18.14
 11
-18.317
 20
-15.477
 21
-15.925
  0
LINE
  8
0
 10
-18.317
 11
-18.6
 20
-15.925
 21
-16.314
  0
LINE
  8
0
 10
-18.6
 11
-18.971
 20
-16.314
 21
-16.621
  0
LINE
  8
0
 10
-18.971
 11
-19.407
 20
-16.621
 21
-16.826
  0
LINE
  8
0
 10
-19.407
 11
-19.879
 20
-16.826
 21
-16.916
  0
LINE
  8
0
 10
-19.879
 11
-20.36
 20
-16.916
 21
-16.886
  0
LINE
  8
0
 10
-20.36
 11
-20.817
 20
-16.886
 21
-16.737
  0
LINE
  8
0
 10
-20.817
 11
-21.224
 20
-16.737
 21
-16.479
  0
LINE
  8
0
 10
-21.224
 11
-21.553
 20
-16.479
 21
-16.129
  0
LINE
  8
0
 10
-21.553
 11
-21.785
 20
-16.129
 21
-15.707
  0
LINE
  8
0
 10
-21.785
 11
-21.905
 20
-15.707
 21
-15.241
  0
LINE
  8
0
 10
-20.63
 11
-20.63
 20
42.465
 21
45.295
  0
LINE
  8
0
 10
-20.63
 11
20.63
 20
45.295
 21
45.295
  0
LINE
  8
0
 10
20.63
 11
20.63
 20
45.295
 21
42.465
  0
LINE
  8
0
 10
20.63
 11
-20.63
 20
42.465
 21
42.465
  0
LINE
  8
0
 10
-12.5
 11
-12.47
 20
0
 21
0.872
  0
LINE
  8
0
 10
-12.47
 11
-12.378
 20
0.872
 21
1.74
  0
LINE
  8
0
 10
-12.378
 11
-12.227
 20
1.74
 21
2.599
  0
LINE
  8
0
 10
-12.227
 11
-12.016
 20
2.599
 21
3.445
  0
LINE
  8
0
 10
-12.016
 11
-11.746
 20
3.445
 21
4.275
  0
LINE
  8
0
 10
-11.746
 11
-11.419
 20
4.275
 21
5.084
  0
LINE
  8
0
 10
-11.419
 11
-11.037
 20
5.084
 21
5.868
  0
LINE
  8
0
 10
-11.037
 11
-10.601
 20
5.868
 21
6.624
  0
LINE
  8
0
 10
-10.601
 11
-10.113
 20
6.624
 21
7.347
  0
LINE
  8
0
 10
-10.113
 11
-9.576
 20
7.347
 21
8.035
  0
LINE
  8
0
 10
-9.576
 11
-8.992
 20
8.035
 21
8.683
  0
LINE
  8
0
 10
-8.992
 11
-8.364
 20
8.683
 21
9.289
  0
LINE
  8
0
 10
-8.364
 11
-7.696
 20
9.289
 21
9.85
  0
LINE
  8
0
 10
-7.696
 11
-6.99
 20
9.85
 21
10.363
  0
LINE
  8
0
 10
-6.99
 11
-6.25
 20
10.363
 21
10.825
  0
LINE
  8
0
 10
-6.25
 11
-5.48
 20
10.825
 21
11.235
  0
LINE
  8
0
 10
-5.48
 11
-4.683
 20
11.235
 21
11.59
  0
LINE
  8
0
 10
-4.683
 11
-3.863
 20
11.59
 21
11.888
  0
LINE
  8
0
 10
-3.863
 11
-3.024
 20
11.888
 21
12.129
  0
LINE
  8
0
 10
-3.024
 11
-2.171
 20
12.129
 21
12.31
  0
LINE
  8
0
 10
-2.171
 11
-1.307
 20
12.31
 21
12.432
  0
LINE
  8
0
 10
-1.307
 11
-0.436
 20
12.432
 21
12.492
  0
LINE
  8
0
 10
-0.436
 11
0.436
 20
12.492
 21
12.492
  0
LINE
  8
0
 10
0.436
 11
1.307
 20
12.492
 21
12.432
  0
LINE
  8
0
 10
1.307
 11
2.171
 20
12.432
 21
12.31
  0
LINE
  8
0
 10
2.171
 11
3.024
 20
12.31
 21
12.129
  0
LINE
  8
0
 10
3.024
 11
3.863
 20
12.129
 21
11.888
  0
LINE
  8
0
 10
3.863
 11
4.683
 20
11.888
 21
11.59
  0
LINE
  8
0
 10
4.683
 11
5.48
 20
11.59
 21
11.235
  0
LINE
  8
0
 10
5.48
 11
6.25
 20
11.235
 21
10.825
  0
LINE
  8
0
 10
6.25
 11
6.99
 20
10.825
 21
10.363
  0
LINE
  8
0
 10
6.99
 11
7.696
 20
10.363
 21
9.85
  0
LINE
  8
0
 10
7.696
 11
8.364
 20
9.85
 21
9.289
  0
LINE
  8
0
 10
8.364
 11
8.992
 20
9.289
 21
8.683
  0
LINE
  8
0
 10
8.992
 11
9.576
 20
8.683
 21
8.035
  0
LINE
  8
0
 10
9.576
 11
10.113
 20
8.035
 21
7.347
  0
LINE
  8
0
 10
10.113
 11
10.601
 20
7.347
 21
6.624
  0
LINE
  8
0
 10
10.601
 11
11.037
 20
6.624
 21
5.868
  0
LINE
  8
0
 10
11.037
 11
11.419
 20
5.868
 21
5.084
  0
LINE
  8
0
 10
11.419
 11
11.746
 20
5.084
 21
4.275
  0
LINE
  8
0
 10
11.746
 11
12.016
 20
4.275
 21
3.445
  0
LINE
  8
0
 10
12.016
 11
12.227
 20
3.445
 21
2.599
  0
LINE
  8
0
 10
12.227
 11
12.378
 20
2.599
 21
1.74
  0
LINE
  8
0
 10
12.378
 11
12.47
 20
1.74
 21
0.872
  0
LINE
  8
0
 10
12.47
 11
12.5
 20
0.872
 21
0
  0
LINE
  8
0
 10
12.5
 11
12.47
 20
0
 21
-0.872
  0
LINE
  8
0
 10
12.47
 11
12.378
 20
-0.872
 21
-1.74
  0
LINE
  8
0
 10
12.378
 11
12.227
 20
-1.74
 21
-2.599
  0
LINE
  8
0
 10
12.227
 11
12.016
 20
-2.599
 21
-3.445
  0
LINE
  8
0
 10
12.016
 11
11.746
 20
-3.445
 21
-4.275
  0
LINE
  8
0
 10
11.746
 11
11.419
 20
-4.275
 21
-5.084
  0
LINE
  8
0
 10
11.419
 11
11.037
 20
-5.084
 21
-5.868
  0
LINE
  8
0
 10
11.037
 11
10.601
 20
-5.868
 21
-6.624
  0
LINE
  8
0
 10
10.601
 11
10.113
 20
-6.624
 21
-7.347
  0
LINE
  8
0
 10
10.113
 11
9.576
 20
-7.347
 21
-8.035
  0
LINE
  8
0
 10
9.576
 11
8.992
 20
-8.035
 21
-8.683
  0
LINE
  8
0
 10
8.992
 11
8.364
 20
-8.683
 21
-9.289
  0
LINE
  8
0
 10
8.364
 11
7.696
 20
-9.289
 21
-9.85
  0
LINE
  8
0
 10
7.696
 11
6.99
 20
-9.85
 21
-10.363
  0
LINE
  8
0
 10
6.99
 11
6.25
 20
-10.363
 21
-10.825
  0
LINE
  8
0
 10
6.25
 11
5.48
 20
-10.825
 21
-11.235
  0
LINE
  8
0
 10
5.48
 11
4.683
 20
-11.235
 21
-11.59
  0
LINE
  8
0
 10
4.683
 11
3.863
 20
-11.59
 21
-11.888
  0
LINE
  8
0
 10
3.863
 11
3.024
 20
-11.888
 21
-12.129
  0
LINE
  8
0
 10
3.024
 11
2.171
 20
-12.129
 21
-12.31
  0
LINE
  8
0
 10
2.171
 11
1.307
 20
-12.31
 21
-12.432
  0
LINE
  8
0
 10
1.307
 11
0.436
 20
-12.432
 21
-12.492
  0
LINE
  8
0
 10
0.436
 11
-0.436
 20
-12.492
 21
-12.492
  0
LINE
  8
0
 10
-0.436
 11
-1.307
 20
-12.492
 21
-12.432
  0
LINE
  8
0
 10
-1.307
 11
-2.171
 20
-12.432
 21
-12.31
  0
LINE
  8
0
 10
-2.171
 11
-3.024
 20
-12.31
 21
-12.129
  0
LINE
  8
0
 10
-3.024
 11
-3.863
 20
-12.129
 21
-11.888
  0
LINE
  8
0
 10
-3.863
 11
-4.683
 20
-11.888
 21
-11.59
  0
LINE
  8
0
 10
-4.683
 11
-5.48
 20
-11.59
 21
-11.235
  0
LINE
  8
0
 10
-5.48
 11
-6.25
 20
-11.235
 21
-10.825
  0
LINE
  8
0
 10
-6.25
 11
-6.99
 20
-10.825
 21
-10.363
  0
LINE
  8
0
 10
-6.99
 11
-7.696
 20
-10.363
 21
-9.85
  0
LINE
  8
0
 10
-7.696
 11
-8.364
 20
-9.85
 21
-9.289
  0
LINE
  8
0
 10
-8.364
 11
-8.992
 20
-9.289
 21
-8.683
  0
LINE
  8
0
 10
-8.992
 11
-9.576
 20
-8.683
 21
-8.035
  0
LINE
  8
0
 10
-9.576
 11
-10.113
 20
-8.035
 21
-7.347
  0
LINE
  8
0
 10
-10.113
 11
-10.601
 20
-7.347
 21
-6.624
  0
LINE
  8
0
 10
-10.601
 11
-11.037
 20
-6.624
 21
-5.868
  0
LINE
  8
0
 10
-11.037
 11
-11.419
 20
-5.868
 21
-5.084
  0
LINE
  8
0
 10
-11.419
 11
-11.746
 20
-5.084
 21
-4.275
  0
LINE
  8
0
 10
-11.746
 11
-12.016
 20
-4.275
 21
-3.445
  0
LINE
  8
0
 10
-12.016
 11
-12.227
 20
-3.445
 21
-2.599
  0
LINE
  8
0
 10
-12.227
 11
-12.378
 20
-2.599
 21
-1.74
  0
LINE
  8
0
 10
-12.378
 11
-12.47
 20
-1.74
 21
-0.872
  0
LINE
  8
0
 10
-12.47
 11
-12.5
 20
-0.872
 21
0
  0
LINE
  8
0
 10
19.418
 11
19.418
 20
-36.238
 21
-35.762
  0
LINE
  8
0
 10
19.418
 11
19.558
 20
-35.762
 21
-35.306
  0
LINE
  8
0
 10
19.558
 11
19.827
 20
-35.306
 21
-34.912
  0
LINE
  8
0
 10
19.827
 11
20.2
 20
-34.912
 21
-34.614
  0
LINE
  8
0
 10
20.2
 11
20.644
 20
-34.614
 21
-34.44
  0
LINE
  8
0
 10
20.644
 11
21.12
 20
-34.44
 21
-34.404
  0
LINE
  8
0
 10
21.12
 11
21.585
 20
-34.404
 21
-34.511
  0
LINE
  8
0
 10
21.585
 11
21.998
 20
-34.511
 21
-34.749
  0
LINE
  8
0
 10
21.998
 11
22.322
 20
-34.749
 21
-35.099
  0
LINE
  8
0
 10
22.322
 11
22.529
 20
-35.099
 21
-35.528
  0
LINE
  8
0
 10
22.529
 11
22.6
 20
-35.528
 21
-36
  0
LINE
  8
0
 10
22.6
 11
22.529
 20
-36
 21
-36.472
  0
LINE
  8
0
 10
22.529
 11
22.322
 20
-36.472
 21
-36.901
  0
LINE
  8
0
 10
22.322
 11
21.998
 20
-36.901
 21
-37.251
  0
LINE
  8
0
 10
21.998
 11
21.585
 20
-37.251
 21
-37.489
  0
LINE
  8
0
 10
21.585
 11
21.12
 20
-37.489
 21
-37.596
  0
LINE
  8
0
 10
21.12
 11
20.644
 20
-37.596
 21
-37.56
  0
LINE
  8
0
 10
20.644
 11
20.2
 20
-37.56
 21
-37.386
  0
LINE
  8
0
 10
20.2
 11
19.827
 20
-37.386
 21
-37.088
  0
LINE
  8
0
 10
19.827
 11
19.558
 20
-37.088
 21
-36.694
  0
LINE
  8
0
 10
19.558
 11
19.418
 20
-36.694
 21
-36.238
  0
ENDSEC
  0
SECTION
  2
OBJECTS
  0
DICTIONARY
  0
ENDSEC
  0
EOF
