  0
SECTION
  2
BLOCKS
  0
ENDSEC
  0
SECTION
  2
ENTITIES
  0
LINE
  8
0
 10
-31.2
 11
-31.2
 20
-30
 21
31.2
  0
LINE
  8
0
 10
-31.2
 11
31.2
 20
31.2
 21
31.2
  0
LINE
  8
0
 10
31.2
 11
31.2
 20
31.2
 21
-30
  0
LINE
  8
0
 10
31.2
 11
28.8
 20
-30
 21
-30
  0
LINE
  8
0
 10
28.8
 11
28.8
 20
-30
 21
26.4
  0
LINE
  8
0
 10
28.8
 11
28.791
 20
26.4
 21
26.4
  0
LINE
  8
0
 10
28.791
 11
28.797
 20
26.4
 21
26.522
  0
LINE
  8
0
 10
28.797
 11
28.723
 20
26.522
 21
27.002
  0
LINE
  8
0
 10
28.723
 11
28.555
 20
27.002
 21
27.457
  0
LINE
  8
0
 10
28.555
 11
28.298
 20
27.457
 21
27.869
  0
LINE
  8
0
 10
28.298
 11
27.963
 20
27.869
 21
28.221
  0
LINE
  8
0
 10
27.963
 11
27.565
 20
28.221
 21
28.498
  0
LINE
  8
0
 10
27.565
 11
27.118
 20
28.498
 21
28.69
  0
LINE
  8
0
 10
27.118
 11
26.643
 20
28.69
 21
28.788
  0
LINE
  8
0
 10
26.643
 11
26.4
 20
28.788
 21
28.788
  0
LINE
  8
0
 10
26.4
 11
26.4
 20
28.788
 21
28.8
  0
LINE
  8
0
 10
26.4
 11
-26.4
 20
28.8
 21
28.8
  0
LINE
  8
0
 10
-26.4
 11
-26.4
 20
28.8
 21
28.788
  0
LINE
  8
0
 10
-26.4
 11
-26.643
 20
28.788
 21
28.788
  0
LINE
  8
0
 10
-26.643
 11
-27.118
 20
28.788
 21
28.69
  0
LINE
  8
0
 10
-27.118
 11
-27.565
 20
28.69
 21
28.498
  0
LINE
  8
0
 10
-27.565
 11
-27.963
 20
28.498
 21
28.221
  0
LINE
  8
0
 10
-27.963
 11
-28.298
 20
28.221
 21
27.869
  0
LINE
  8
0
 10
-28.298
 11
-28.555
 20
27.869
 21
27.457
  0
LINE
  8
0
 10
-28.555
 11
-28.723
 20
27.457
 21
27.002
  0
LINE
  8
0
 10
-28.723
 11
-28.797
 20
27.002
 21
26.522
  0
LINE
  8
0
 10
-28.797
 11
-28.791
 20
26.522
 21
26.4
  0
LINE
  8
0
 10
-28.791
 11
-28.8
 20
26.4
 21
26.4
  0
LINE
  8
0
 10
-28.8
 11
-28.8
 20
26.4
 21
-30
  0
LINE
  8
0
 10
-28.8
 11
-31.2
 20
-30
 21
-30
  0
LINE
  8
0
 10
-60
 11
-59.854
 20
0
 21
4.185
  0
LINE
  8
0
 10
-59.854
 11
-59.416
 20
4.185
 21
8.35
  0
LINE
  8
0
 10
-59.416
 11
-58.689
 20
8.35
 21
12.475
  0
LINE
  8
0
 10
-58.689
 11
-57.676
 20
12.475
 21
16.538
  0
LINE
  8
0
 10
-57.676
 11
-56.382
 20
16.538
 21
20.521
  0
LINE
  8
0
 10
-56.382
 11
-54.813
 20
20.521
 21
24.404
  0
LINE
  8
0
 10
-54.813
 11
-52.977
 20
24.404
 21
28.168
  0
LINE
  8
0
 10
-52.977
 11
-50.883
 20
28.168
 21
31.795
  0
LINE
  8
0
 10
-50.883
 11
-48.541
 20
31.795
 21
35.267
  0
LINE
  8
0
 10
-48.541
 11
-45.963
 20
35.267
 21
38.567
  0
LINE
  8
0
 10
-45.963
 11
-43.16
 20
38.567
 21
41.68
  0
LINE
  8
0
 10
-43.16
 11
-40.148
 20
41.68
 21
44.589
  0
LINE
  8
0
 10
-40.148
 11
-36.94
 20
44.589
 21
47.281
  0
LINE
  8
0
 10
-36.94
 11
-33.552
 20
47.281
 21
49.742
  0
LINE
  8
0
 10
-33.552
 11
-30
 20
49.742
 21
51.962
  0
LINE
  8
0
 10
-30
 11
-26.302
 20
51.962
 21
53.928
  0
LINE
  8
0
 10
-26.302
 11
-22.476
 20
53.928
 21
55.631
  0
LINE
  8
0
 10
-22.476
 11
-18.541
 20
55.631
 21
57.063
  0
LINE
  8
0
 10
-18.541
 11
-14.515
 20
57.063
 21
58.218
  0
LINE
  8
0
 10
-14.515
 11
-10.419
 20
58.218
 21
59.088
  0
LINE
  8
0
 10
-10.419
 11
-6.272
 20
59.088
 21
59.671
  0
LINE
  8
0
 10
-6.272
 11
-2.094
 20
59.671
 21
59.963
  0
LINE
  8
0
 10
-2.094
 11
2.094
 20
59.963
 21
59.963
  0
LINE
  8
0
 10
2.094
 11
6.272
 20
59.963
 21
59.671
  0
LINE
  8
0
 10
6.272
 11
10.419
 20
59.671
 21
59.088
  0
LINE
  8
0
 10
10.419
 11
14.515
 20
59.088
 21
58.218
  0
LINE
  8
0
 10
14.515
 11
18.541
 20
58.218
 21
57.063
  0
LINE
  8
0
 10
18.541
 11
22.476
 20
57.063
 21
55.631
  0
LINE
  8
0
 10
22.476
 11
26.302
 20
55.631
 21
53.928
  0
LINE
  8
0
 10
26.302
 11
30
 20
53.928
 21
51.962
  0
LINE
  8
0
 10
30
 11
33.552
 20
51.962
 21
49.742
  0
LINE
  8
0
 10
33.552
 11
36.94
 20
49.742
 21
47.281
  0
LINE
  8
0
 10
36.94
 11
40.148
 20
47.281
 21
44.589
  0
LINE
  8
0
 10
40.148
 11
43.16
 20
44.589
 21
41.68
  0
LINE
  8
0
 10
43.16
 11
45.963
 20
41.68
 21
38.567
  0
LINE
  8
0
 10
45.963
 11
48.541
 20
38.567
 21
35.267
  0
LINE
  8
0
 10
48.541
 11
50.883
 20
35.267
 21
31.795
  0
LINE
  8
0
 10
50.883
 11
52.977
 20
31.795
 21
28.168
  0
LINE
  8
0
 10
52.977
 11
54.813
 20
28.168
 21
24.404
  0
LINE
  8
0
 10
54.813
 11
56.382
 20
24.404
 21
20.521
  0
LINE
  8
0
 10
56.382
 11
57.676
 20
20.521
 21
16.538
  0
LINE
  8
0
 10
57.676
 11
58.689
 20
16.538
 21
12.475
  0
LINE
  8
0
 10
58.689
 11
59.416
 20
12.475
 21
8.35
  0
LINE
  8
0
 10
59.416
 11
59.854
 20
8.35
 21
4.185
  0
LINE
  8
0
 10
59.854
 11
60
 20
4.185
 21
0
  0
LINE
  8
0
 10
60
 11
59.854
 20
0
 21
-4.185
  0
LINE
  8
0
 10
59.854
 11
59.416
 20
-4.185
 21
-8.35
  0
LINE
  8
0
 10
59.416
 11
58.689
 20
-8.35
 21
-12.475
  0
LINE
  8
0
 10
58.689
 11
57.676
 20
-12.475
 21
-16.538
  0
LINE
  8
0
 10
57.676
 11
56.382
 20
-16.538
 21
-20.521
  0
LINE
  8
0
 10
56.382
 11
54.813
 20
-20.521
 21
-24.404
  0
LINE
  8
0
 10
54.813
 11
52.977
 20
-24.404
 21
-28.168
  0
LINE
  8
0
 10
52.977
 11
50.883
 20
-28.168
 21
-31.795
  0
LINE
  8
0
 10
50.883
 11
48.541
 20
-31.795
 21
-35.267
  0
LINE
  8
0
 10
48.541
 11
45.963
 20
-35.267
 21
-38.567
  0
LINE
  8
0
 10
45.963
 11
43.16
 20
-38.567
 21
-41.68
  0
LINE
  8
0
 10
43.16
 11
40.148
 20
-41.68
 21
-44.589
  0
LINE
  8
0
 10
40.148
 11
36.94
 20
-44.589
 21
-47.281
  0
LINE
  8
0
 10
36.94
 11
33.552
 20
-47.281
 21
-49.742
  0
LINE
  8
0
 10
33.552
 11
30
 20
-49.742
 21
-51.962
  0
LINE
  8
0
 10
30
 11
26.302
 20
-51.962
 21
-53.928
  0
LINE
  8
0
 10
26.302
 11
22.476
 20
-53.928
 21
-55.631
  0
LINE
  8
0
 10
22.476
 11
18.541
 20
-55.631
 21
-57.063
  0
LINE
  8
0
 10
18.541
 11
14.515
 20
-57.063
 21
-58.218
  0
LINE
  8
0
 10
14.515
 11
10.419
 20
-58.218
 21
-59.088
  0
LINE
  8
0
 10
10.419
 11
6.272
 20
-59.088
 21
-59.671
  0
LINE
  8
0
 10
6.272
 11
2.094
 20
-59.671
 21
-59.963
  0
LINE
  8
0
 10
2.094
 11
-2.094
 20
-59.963
 21
-59.963
  0
LINE
  8
0
 10
-2.094
 11
-6.272
 20
-59.963
 21
-59.671
  0
LINE
  8
0
 10
-6.272
 11
-10.419
 20
-59.671
 21
-59.088
  0
LINE
  8
0
 10
-10.419
 11
-14.515
 20
-59.088
 21
-58.218
  0
LINE
  8
0
 10
-14.515
 11
-18.541
 20
-58.218
 21
-57.063
  0
LINE
  8
0
 10
-18.541
 11
-22.476
 20
-57.063
 21
-55.631
  0
LINE
  8
0
 10
-22.476
 11
-26.302
 20
-55.631
 21
-53.928
  0
LINE
  8
0
 10
-26.302
 11
-30
 20
-53.928
 21
-51.962
  0
LINE
  8
0
 10
-30
 11
-33.552
 20
-51.962
 21
-49.742
  0
LINE
  8
0
 10
-33.552
 11
-36.94
 20
-49.742
 21
-47.281
  0
LINE
  8
0
 10
-36.94
 11
-40.148
 20
-47.281
 21
-44.589
  0
LINE
  8
0
 10
-40.148
 11
-43.16
 20
-44.589
 21
-41.68
  0
LINE
  8
0
 10
-43.16
 11
-45.963
 20
-41.68
 21
-38.567
  0
LINE
  8
0
 10
-45.963
 11
-48.541
 20
-38.567
 21
-35.267
  0
LINE
  8
0
 10
-48.541
 11
-50.883
 20
-35.267
 21
-31.795
  0
LINE
  8
0
 10
-50.883
 11
-52.977
 20
-31.795
 21
-28.168
  0
LINE
  8
0
 10
-52.977
 11
-54.813
 20
-28.168
 21
-24.404
  0
LINE
  8
0
 10
-54.813
 11
-56.382
 20
-24.404
 21
-20.521
  0
LINE
  8
0
 10
-56.382
 11
-57.676
 20
-20.521
 21
-16.538
  0
LINE
  8
0
 10
-57.676
 11
-58.689
 20
-16.538
 21
-12.475
  0
LINE
  8
0
 10
-58.689
 11
-59.416
 20
-12.475
 21
-8.35
  0
LINE
  8
0
 10
-59.416
 11
-59.854
 20
-8.35
 21
-4.185
  0
LINE
  8
0
 10
-59.854
 11
-60
 20
-4.185
 21
0
  0
LINE
  8
0
 10
-22.25
 11
-22.155
 20
-36
 21
-35.522
  0
LINE
  8
0
 10
-22.155
 11
-21.884
 20
-35.522
 21
-35.116
  0
LINE
  8
0
 10
-21.884
 11
-21.478
 20
-35.116
 21
-34.845
  0
LINE
  8
0
 10
-21.478
 11
-21
 20
-34.845
 21
-34.75
  0
LINE
  8
0
 10
-21
 11
-20.522
 20
-34.75
 21
-34.845
  0
LINE
  8
0
 10
-20.522
 11
-20.116
 20
-34.845
 21
-35.116
  0
LINE
  8
0
 10
-20.116
 11
-19.845
 20
-35.116
 21
-35.522
  0
LINE
  8
0
 10
-19.845
 11
-19.75
 20
-35.522
 21
-36
  0
LINE
  8
0
 10
-19.75
 11
-19.845
 20
-36
 21
-36.478
  0
LINE
  8
0
 10
-19.845
 11
-20.116
 20
-36.478
 21
-36.884
  0
LINE
  8
0
 10
-20.116
 11
-20.522
 20
-36.884
 21
-37.155
  0
LINE
  8
0
 10
-20.522
 11
-21
 20
-37.155
 21
-37.25
  0
LINE
  8
0
 10
-21
 11
-21.478
 20
-37.25
 21
-37.155
  0
LINE
  8
0
 10
-21.478
 11
-21.884
 20
-37.155
 21
-36.884
  0
LINE
  8
0
 10
-21.884
 11
-22.155
 20
-36.884
 21
-36.478
  0
LINE
  8
0
 10
-22.155
 11
-22.25
 20
-36.478
 21
-36
  0
LINE
  8
0
 10
-21.2
 11
-21.2
 20
-30
 21
20
  0
LINE
  8
0
 10
-21.2
 11
-21.109
 20
20
 21
20.459
  0
LINE
  8
0
 10
-21.109
 11
-20.849
 20
20.459
 21
20.849
  0
LINE
  8
0
 10
-20.849
 11
-20.459
 20
20.849
 21
21.109
  0
LINE
  8
0
 10
-20.459
 11
-20
 20
21.109
 21
21.2
  0
LINE
  8
0
 10
-20
 11
20
 20
21.2
 21
21.2
  0
LINE
  8
0
 10
20
 11
20.459
 20
21.2
 21
21.109
  0
LINE
  8
0
 10
20.459
 11
20.849
 20
21.109
 21
20.849
  0
LINE
  8
0
 10
20.849
 11
21.109
 20
20.849
 21
20.459
  0
LINE
  8
0
 10
21.109
 11
21.2
 20
20.459
 21
20
  0
LINE
  8
0
 10
21.2
 11
21.2
 20
20
 21
-30
  0
LINE
  8
0
 10
21.2
 11
18.8
 20
-30
 21
-30
  0
LINE
  8
0
 10
18.8
 11
18.8
 20
-30
 21
18.8
  0
LINE
  8
0
 10
18.8
 11
-18.8
 20
18.8
 21
18.8
  0
LINE
  8
0
 10
-18.8
 11
-18.8
 20
18.8
 21
-30
  0
LINE
  8
0
 10
-18.8
 11
-21.2
 20
-30
 21
-30
  0
LINE
  8
0
 10
-20.63
 11
-20.63
 20
37.465
 21
40.295
  0
LINE
  8
0
 10
-20.63
 11
20.63
 20
40.295
 21
40.295
  0
LINE
  8
0
 10
20.63
 11
20.63
 20
40.295
 21
37.465
  0
LINE
  8
0
 10
20.63
 11
-20.63
 20
37.465
 21
37.465
  0
LINE
  8
0
 10
-12.5
 11
-12.47
 20
0
 21
0.872
  0
LINE
  8
0
 10
-12.47
 11
-12.378
 20
0.872
 21
1.74
  0
LINE
  8
0
 10
-12.378
 11
-12.227
 20
1.74
 21
2.599
  0
LINE
  8
0
 10
-12.227
 11
-12.016
 20
2.599
 21
3.445
  0
LINE
  8
0
 10
-12.016
 11
-11.746
 20
3.445
 21
4.275
  0
LINE
  8
0
 10
-11.746
 11
-11.419
 20
4.275
 21
5.084
  0
LINE
  8
0
 10
-11.419
 11
-11.037
 20
5.084
 21
5.868
  0
LINE
  8
0
 10
-11.037
 11
-10.601
 20
5.868
 21
6.624
  0
LINE
  8
0
 10
-10.601
 11
-10.113
 20
6.624
 21
7.347
  0
LINE
  8
0
 10
-10.113
 11
-9.576
 20
7.347
 21
8.035
  0
LINE
  8
0
 10
-9.576
 11
-8.992
 20
8.035
 21
8.683
  0
LINE
  8
0
 10
-8.992
 11
-8.364
 20
8.683
 21
9.289
  0
LINE
  8
0
 10
-8.364
 11
-7.696
 20
9.289
 21
9.85
  0
LINE
  8
0
 10
-7.696
 11
-6.99
 20
9.85
 21
10.363
  0
LINE
  8
0
 10
-6.99
 11
-6.25
 20
10.363
 21
10.825
  0
LINE
  8
0
 10
-6.25
 11
-5.48
 20
10.825
 21
11.235
  0
LINE
  8
0
 10
-5.48
 11
-4.683
 20
11.235
 21
11.59
  0
LINE
  8
0
 10
-4.683
 11
-3.863
 20
11.59
 21
11.888
  0
LINE
  8
0
 10
-3.863
 11
-3.024
 20
11.888
 21
12.129
  0
LINE
  8
0
 10
-3.024
 11
-2.171
 20
12.129
 21
12.31
  0
LINE
  8
0
 10
-2.171
 11
-1.307
 20
12.31
 21
12.432
  0
LINE
  8
0
 10
-1.307
 11
-0.436
 20
12.432
 21
12.492
  0
LINE
  8
0
 10
-0.436
 11
0.436
 20
12.492
 21
12.492
  0
LINE
  8
0
 10
0.436
 11
1.307
 20
12.492
 21
12.432
  0
LINE
  8
0
 10
1.307
 11
2.171
 20
12.432
 21
12.31
  0
LINE
  8
0
 10
2.171
 11
3.024
 20
12.31
 21
12.129
  0
LINE
  8
0
 10
3.024
 11
3.863
 20
12.129
 21
11.888
  0
LINE
  8
0
 10
3.863
 11
4.683
 20
11.888
 21
11.59
  0
LINE
  8
0
 10
4.683
 11
5.48
 20
11.59
 21
11.235
  0
LINE
  8
0
 10
5.48
 11
6.25
 20
11.235
 21
10.825
  0
LINE
  8
0
 10
6.25
 11
6.99
 20
10.825
 21
10.363
  0
LINE
  8
0
 10
6.99
 11
7.696
 20
10.363
 21
9.85
  0
LINE
  8
0
 10
7.696
 11
8.364
 20
9.85
 21
9.289
  0
LINE
  8
0
 10
8.364
 11
8.992
 20
9.289
 21
8.683
  0
LINE
  8
0
 10
8.992
 11
9.576
 20
8.683
 21
8.035
  0
LINE
  8
0
 10
9.576
 11
10.113
 20
8.035
 21
7.347
  0
LINE
  8
0
 10
10.113
 11
10.601
 20
7.347
 21
6.624
  0
LINE
  8
0
 10
10.601
 11
11.037
 20
6.624
 21
5.868
  0
LINE
  8
0
 10
11.037
 11
11.419
 20
5.868
 21
5.084
  0
LINE
  8
0
 10
11.419
 11
11.746
 20
5.084
 21
4.275
  0
LINE
  8
0
 10
11.746
 11
12.016
 20
4.275
 21
3.445
  0
LINE
  8
0
 10
12.016
 11
12.227
 20
3.445
 21
2.599
  0
LINE
  8
0
 10
12.227
 11
12.378
 20
2.599
 21
1.74
  0
LINE
  8
0
 10
12.378
 11
12.47
 20
1.74
 21
0.872
  0
LINE
  8
0
 10
12.47
 11
12.5
 20
0.872
 21
0
  0
LINE
  8
0
 10
12.5
 11
12.47
 20
0
 21
-0.872
  0
LINE
  8
0
 10
12.47
 11
12.378
 20
-0.872
 21
-1.74
  0
LINE
  8
0
 10
12.378
 11
12.227
 20
-1.74
 21
-2.599
  0
LINE
  8
0
 10
12.227
 11
12.016
 20
-2.599
 21
-3.445
  0
LINE
  8
0
 10
12.016
 11
11.746
 20
-3.445
 21
-4.275
  0
LINE
  8
0
 10
11.746
 11
11.419
 20
-4.275
 21
-5.084
  0
LINE
  8
0
 10
11.419
 11
11.037
 20
-5.084
 21
-5.868
  0
LINE
  8
0
 10
11.037
 11
10.601
 20
-5.868
 21
-6.624
  0
LINE
  8
0
 10
10.601
 11
10.113
 20
-6.624
 21
-7.347
  0
LINE
  8
0
 10
10.113
 11
9.576
 20
-7.347
 21
-8.035
  0
LINE
  8
0
 10
9.576
 11
8.992
 20
-8.035
 21
-8.683
  0
LINE
  8
0
 10
8.992
 11
8.364
 20
-8.683
 21
-9.289
  0
LINE
  8
0
 10
8.364
 11
7.696
 20
-9.289
 21
-9.85
  0
LINE
  8
0
 10
7.696
 11
6.99
 20
-9.85
 21
-10.363
  0
LINE
  8
0
 10
6.99
 11
6.25
 20
-10.363
 21
-10.825
  0
LINE
  8
0
 10
6.25
 11
5.48
 20
-10.825
 21
-11.235
  0
LINE
  8
0
 10
5.48
 11
4.683
 20
-11.235
 21
-11.59
  0
LINE
  8
0
 10
4.683
 11
3.863
 20
-11.59
 21
-11.888
  0
LINE
  8
0
 10
3.863
 11
3.024
 20
-11.888
 21
-12.129
  0
LINE
  8
0
 10
3.024
 11
2.171
 20
-12.129
 21
-12.31
  0
LINE
  8
0
 10
2.171
 11
1.307
 20
-12.31
 21
-12.432
  0
LINE
  8
0
 10
1.307
 11
0.436
 20
-12.432
 21
-12.492
  0
LINE
  8
0
 10
0.436
 11
-0.436
 20
-12.492
 21
-12.492
  0
LINE
  8
0
 10
-0.436
 11
-1.307
 20
-12.492
 21
-12.432
  0
LINE
  8
0
 10
-1.307
 11
-2.171
 20
-12.432
 21
-12.31
  0
LINE
  8
0
 10
-2.171
 11
-3.024
 20
-12.31
 21
-12.129
  0
LINE
  8
0
 10
-3.024
 11
-3.863
 20
-12.129
 21
-11.888
  0
LINE
  8
0
 10
-3.863
 11
-4.683
 20
-11.888
 21
-11.59
  0
LINE
  8
0
 10
-4.683
 11
-5.48
 20
-11.59
 21
-11.235
  0
LINE
  8
0
 10
-5.48
 11
-6.25
 20
-11.235
 21
-10.825
  0
LINE
  8
0
 10
-6.25
 11
-6.99
 20
-10.825
 21
-10.363
  0
LINE
  8
0
 10
-6.99
 11
-7.696
 20
-10.363
 21
-9.85
  0
LINE
  8
0
 10
-7.696
 11
-8.364
 20
-9.85
 21
-9.289
  0
LINE
  8
0
 10
-8.364
 11
-8.992
 20
-9.289
 21
-8.683
  0
LINE
  8
0
 10
-8.992
 11
-9.576
 20
-8.683
 21
-8.035
  0
LINE
  8
0
 10
-9.576
 11
-10.113
 20
-8.035
 21
-7.347
  0
LINE
  8
0
 10
-10.113
 11
-10.601
 20
-7.347
 21
-6.624
  0
LINE
  8
0
 10
-10.601
 11
-11.037
 20
-6.624
 21
-5.868
  0
LINE
  8
0
 10
-11.037
 11
-11.419
 20
-5.868
 21
-5.084
  0
LINE
  8
0
 10
-11.419
 11
-11.746
 20
-5.084
 21
-4.275
  0
LINE
  8
0
 10
-11.746
 11
-12.016
 20
-4.275
 21
-3.445
  0
LINE
  8
0
 10
-12.016
 11
-12.227
 20
-3.445
 21
-2.599
  0
LINE
  8
0
 10
-12.227
 11
-12.378
 20
-2.599
 21
-1.74
  0
LINE
  8
0
 10
-12.378
 11
-12.47
 20
-1.74
 21
-0.872
  0
LINE
  8
0
 10
-12.47
 11
-12.5
 20
-0.872
 21
0
  0
LINE
  8
0
 10
19.75
 11
19.845
 20
-36
 21
-35.522
  0
LINE
  8
0
 10
19.845
 11
20.116
 20
-35.522
 21
-35.116
  0
LINE
  8
0
 10
20.116
 11
20.522
 20
-35.116
 21
-34.845
  0
LINE
  8
0
 10
20.522
 11
21
 20
-34.845
 21
-34.75
  0
LINE
  8
0
 10
21
 11
21.478
 20
-34.75
 21
-34.845
  0
LINE
  8
0
 10
21.478
 11
21.884
 20
-34.845
 21
-35.116
  0
LINE
  8
0
 10
21.884
 11
22.155
 20
-35.116
 21
-35.522
  0
LINE
  8
0
 10
22.155
 11
22.25
 20
-35.522
 21
-36
  0
LINE
  8
0
 10
22.25
 11
22.155
 20
-36
 21
-36.478
  0
LINE
  8
0
 10
22.155
 11
21.884
 20
-36.478
 21
-36.884
  0
LINE
  8
0
 10
21.884
 11
21.478
 20
-36.884
 21
-37.155
  0
LINE
  8
0
 10
21.478
 11
21
 20
-37.155
 21
-37.25
  0
LINE
  8
0
 10
21
 11
20.522
 20
-37.25
 21
-37.155
  0
LINE
  8
0
 10
20.522
 11
20.116
 20
-37.155
 21
-36.884
  0
LINE
  8
0
 10
20.116
 11
19.845
 20
-36.884
 21
-36.478
  0
LINE
  8
0
 10
19.845
 11
19.75
 20
-36.478
 21
-36
  0
ENDSEC
  0
SECTION
  2
OBJECTS
  0
DICTIONARY
  0
ENDSEC
  0
EOF
