  0
SECTION
  2
BLOCKS
  0
ENDSEC
  0
SECTION
  2
ENTITIES
  0
LINE
  8
0
 10
-15.2
 11
-15.163
 20
0
 21
1.06
  0
LINE
  8
0
 10
-15.163
 11
-15.052
 20
1.06
 21
2.115
  0
LINE
  8
0
 10
-15.052
 11
-14.868
 20
2.115
 21
3.16
  0
LINE
  8
0
 10
-14.868
 11
-14.611
 20
3.16
 21
4.19
  0
LINE
  8
0
 10
-14.611
 11
-14.283
 20
4.19
 21
5.199
  0
LINE
  8
0
 10
-14.283
 11
-13.886
 20
5.199
 21
6.182
  0
LINE
  8
0
 10
-13.886
 11
-13.421
 20
6.182
 21
7.136
  0
LINE
  8
0
 10
-13.421
 11
-12.89
 20
7.136
 21
8.055
  0
LINE
  8
0
 10
-12.89
 11
-12.297
 20
8.055
 21
8.934
  0
LINE
  8
0
 10
-12.297
 11
-11.644
 20
8.934
 21
9.77
  0
LINE
  8
0
 10
-11.644
 11
-10.934
 20
9.77
 21
10.559
  0
LINE
  8
0
 10
-10.934
 11
-10.171
 20
10.559
 21
11.296
  0
LINE
  8
0
 10
-10.171
 11
-9.358
 20
11.296
 21
11.978
  0
LINE
  8
0
 10
-9.358
 11
-8.5
 20
11.978
 21
12.601
  0
LINE
  8
0
 10
-8.5
 11
-7.6
 20
12.601
 21
13.164
  0
LINE
  8
0
 10
-7.6
 11
-6.663
 20
13.164
 21
13.662
  0
LINE
  8
0
 10
-6.663
 11
-5.694
 20
13.662
 21
14.093
  0
LINE
  8
0
 10
-5.694
 11
-4.697
 20
14.093
 21
14.456
  0
LINE
  8
0
 10
-4.697
 11
-3.677
 20
14.456
 21
14.748
  0
LINE
  8
0
 10
-3.677
 11
-2.639
 20
14.748
 21
14.969
  0
LINE
  8
0
 10
-2.639
 11
-1.589
 20
14.969
 21
15.117
  0
LINE
  8
0
 10
-1.589
 11
-0.53
 20
15.117
 21
15.191
  0
LINE
  8
0
 10
-0.53
 11
0.53
 20
15.191
 21
15.191
  0
LINE
  8
0
 10
0.53
 11
1.589
 20
15.191
 21
15.117
  0
LINE
  8
0
 10
1.589
 11
2.639
 20
15.117
 21
14.969
  0
LINE
  8
0
 10
2.639
 11
3.677
 20
14.969
 21
14.748
  0
LINE
  8
0
 10
3.677
 11
4.697
 20
14.748
 21
14.456
  0
LINE
  8
0
 10
4.697
 11
5.694
 20
14.456
 21
14.093
  0
LINE
  8
0
 10
5.694
 11
6.663
 20
14.093
 21
13.662
  0
LINE
  8
0
 10
6.663
 11
7.6
 20
13.662
 21
13.164
  0
LINE
  8
0
 10
7.6
 11
8.5
 20
13.164
 21
12.601
  0
LINE
  8
0
 10
8.5
 11
9.358
 20
12.601
 21
11.978
  0
LINE
  8
0
 10
9.358
 11
10.171
 20
11.978
 21
11.296
  0
LINE
  8
0
 10
10.171
 11
10.934
 20
11.296
 21
10.559
  0
LINE
  8
0
 10
10.934
 11
11.644
 20
10.559
 21
9.77
  0
LINE
  8
0
 10
11.644
 11
12.297
 20
9.77
 21
8.934
  0
LINE
  8
0
 10
12.297
 11
12.89
 20
8.934
 21
8.055
  0
LINE
  8
0
 10
12.89
 11
13.421
 20
8.055
 21
7.136
  0
LINE
  8
0
 10
13.421
 11
13.886
 20
7.136
 21
6.182
  0
LINE
  8
0
 10
13.886
 11
14.283
 20
6.182
 21
5.199
  0
LINE
  8
0
 10
14.283
 11
14.611
 20
5.199
 21
4.19
  0
LINE
  8
0
 10
14.611
 11
14.868
 20
4.19
 21
3.16
  0
LINE
  8
0
 10
14.868
 11
15.052
 20
3.16
 21
2.115
  0
LINE
  8
0
 10
15.052
 11
15.163
 20
2.115
 21
1.06
  0
LINE
  8
0
 10
15.163
 11
15.2
 20
1.06
 21
0
  0
LINE
  8
0
 10
15.2
 11
15.163
 20
0
 21
-1.06
  0
LINE
  8
0
 10
15.163
 11
15.052
 20
-1.06
 21
-2.115
  0
LINE
  8
0
 10
15.052
 11
14.868
 20
-2.115
 21
-3.16
  0
LINE
  8
0
 10
14.868
 11
14.611
 20
-3.16
 21
-4.19
  0
LINE
  8
0
 10
14.611
 11
14.283
 20
-4.19
 21
-5.199
  0
LINE
  8
0
 10
14.283
 11
13.886
 20
-5.199
 21
-6.182
  0
LINE
  8
0
 10
13.886
 11
13.421
 20
-6.182
 21
-7.136
  0
LINE
  8
0
 10
13.421
 11
12.89
 20
-7.136
 21
-8.055
  0
LINE
  8
0
 10
12.89
 11
12.297
 20
-8.055
 21
-8.934
  0
LINE
  8
0
 10
12.297
 11
11.644
 20
-8.934
 21
-9.77
  0
LINE
  8
0
 10
11.644
 11
10.934
 20
-9.77
 21
-10.559
  0
LINE
  8
0
 10
10.934
 11
10.171
 20
-10.559
 21
-11.296
  0
LINE
  8
0
 10
10.171
 11
9.358
 20
-11.296
 21
-11.978
  0
LINE
  8
0
 10
9.358
 11
8.5
 20
-11.978
 21
-12.601
  0
LINE
  8
0
 10
8.5
 11
7.6
 20
-12.601
 21
-13.164
  0
LINE
  8
0
 10
7.6
 11
6.663
 20
-13.164
 21
-13.662
  0
LINE
  8
0
 10
6.663
 11
5.694
 20
-13.662
 21
-14.093
  0
LINE
  8
0
 10
5.694
 11
4.697
 20
-14.093
 21
-14.456
  0
LINE
  8
0
 10
4.697
 11
3.677
 20
-14.456
 21
-14.748
  0
LINE
  8
0
 10
3.677
 11
2.639
 20
-14.748
 21
-14.969
  0
LINE
  8
0
 10
2.639
 11
1.589
 20
-14.969
 21
-15.117
  0
LINE
  8
0
 10
1.589
 11
0.53
 20
-15.117
 21
-15.191
  0
LINE
  8
0
 10
0.53
 11
-0.53
 20
-15.191
 21
-15.191
  0
LINE
  8
0
 10
-0.53
 11
-1.589
 20
-15.191
 21
-15.117
  0
LINE
  8
0
 10
-1.589
 11
-2.639
 20
-15.117
 21
-14.969
  0
LINE
  8
0
 10
-2.639
 11
-3.677
 20
-14.969
 21
-14.748
  0
LINE
  8
0
 10
-3.677
 11
-4.697
 20
-14.748
 21
-14.456
  0
LINE
  8
0
 10
-4.697
 11
-5.694
 20
-14.456
 21
-14.093
  0
LINE
  8
0
 10
-5.694
 11
-6.663
 20
-14.093
 21
-13.662
  0
LINE
  8
0
 10
-6.663
 11
-7.6
 20
-13.662
 21
-13.164
  0
LINE
  8
0
 10
-7.6
 11
-8.5
 20
-13.164
 21
-12.601
  0
LINE
  8
0
 10
-8.5
 11
-9.358
 20
-12.601
 21
-11.978
  0
LINE
  8
0
 10
-9.358
 11
-10.171
 20
-11.978
 21
-11.296
  0
LINE
  8
0
 10
-10.171
 11
-10.934
 20
-11.296
 21
-10.559
  0
LINE
  8
0
 10
-10.934
 11
-11.644
 20
-10.559
 21
-9.77
  0
LINE
  8
0
 10
-11.644
 11
-12.297
 20
-9.77
 21
-8.934
  0
LINE
  8
0
 10
-12.297
 11
-12.89
 20
-8.934
 21
-8.055
  0
LINE
  8
0
 10
-12.89
 11
-13.421
 20
-8.055
 21
-7.136
  0
LINE
  8
0
 10
-13.421
 11
-13.886
 20
-7.136
 21
-6.182
  0
LINE
  8
0
 10
-13.886
 11
-14.283
 20
-6.182
 21
-5.199
  0
LINE
  8
0
 10
-14.283
 11
-14.611
 20
-5.199
 21
-4.19
  0
LINE
  8
0
 10
-14.611
 11
-14.868
 20
-4.19
 21
-3.16
  0
LINE
  8
0
 10
-14.868
 11
-15.052
 20
-3.16
 21
-2.115
  0
LINE
  8
0
 10
-15.052
 11
-15.163
 20
-2.115
 21
-1.06
  0
LINE
  8
0
 10
-15.163
 11
-15.2
 20
-1.06
 21
0
  0
LINE
  8
0
 10
-20
 11
-19.951
 20
0
 21
1.395
  0
LINE
  8
0
 10
-19.951
 11
-19.805
 20
1.395
 21
2.783
  0
LINE
  8
0
 10
-19.805
 11
-19.563
 20
2.783
 21
4.158
  0
LINE
  8
0
 10
-19.563
 11
-19.225
 20
4.158
 21
5.513
  0
LINE
  8
0
 10
-19.225
 11
-18.794
 20
5.513
 21
6.84
  0
LINE
  8
0
 10
-18.794
 11
-18.271
 20
6.84
 21
8.135
  0
LINE
  8
0
 10
-18.271
 11
-17.659
 20
8.135
 21
9.389
  0
LINE
  8
0
 10
-17.659
 11
-16.961
 20
9.389
 21
10.598
  0
LINE
  8
0
 10
-16.961
 11
-16.18
 20
10.598
 21
11.756
  0
LINE
  8
0
 10
-16.18
 11
-15.321
 20
11.756
 21
12.856
  0
LINE
  8
0
 10
-15.321
 11
-14.387
 20
12.856
 21
13.893
  0
LINE
  8
0
 10
-14.387
 11
-13.383
 20
13.893
 21
14.863
  0
LINE
  8
0
 10
-13.383
 11
-12.313
 20
14.863
 21
15.76
  0
LINE
  8
0
 10
-12.313
 11
-11.184
 20
15.76
 21
16.581
  0
LINE
  8
0
 10
-11.184
 11
-10
 20
16.581
 21
17.321
  0
LINE
  8
0
 10
-10
 11
-8.767
 20
17.321
 21
17.976
  0
LINE
  8
0
 10
-8.767
 11
-7.492
 20
17.976
 21
18.544
  0
LINE
  8
0
 10
-7.492
 11
-6.18
 20
18.544
 21
19.021
  0
LINE
  8
0
 10
-6.18
 11
-4.838
 20
19.021
 21
19.406
  0
LINE
  8
0
 10
-4.838
 11
-3.473
 20
19.406
 21
19.696
  0
LINE
  8
0
 10
-3.473
 11
-2.091
 20
19.696
 21
19.89
  0
LINE
  8
0
 10
-2.091
 11
-0.698
 20
19.89
 21
19.988
  0
LINE
  8
0
 10
-0.698
 11
0.698
 20
19.988
 21
19.988
  0
LINE
  8
0
 10
0.698
 11
2.091
 20
19.988
 21
19.89
  0
LINE
  8
0
 10
2.091
 11
3.473
 20
19.89
 21
19.696
  0
LINE
  8
0
 10
3.473
 11
4.838
 20
19.696
 21
19.406
  0
LINE
  8
0
 10
4.838
 11
6.18
 20
19.406
 21
19.021
  0
LINE
  8
0
 10
6.18
 11
7.492
 20
19.021
 21
18.544
  0
LINE
  8
0
 10
7.492
 11
8.767
 20
18.544
 21
17.976
  0
LINE
  8
0
 10
8.767
 11
32.893
 20
17.976
 21
6.006
  0
LINE
  8
0
 10
32.893
 11
33.333
 20
6.006
 21
5.774
  0
LINE
  8
0
 10
33.333
 11
33.755
 20
5.774
 21
5.508
  0
LINE
  8
0
 10
33.755
 11
34.157
 20
5.508
 21
5.212
  0
LINE
  8
0
 10
34.157
 11
34.534
 20
5.212
 21
4.887
  0
LINE
  8
0
 10
34.534
 11
34.887
 20
4.887
 21
4.534
  0
LINE
  8
0
 10
34.887
 11
35.212
 20
4.534
 21
4.157
  0
LINE
  8
0
 10
35.212
 11
35.508
 20
4.157
 21
3.755
  0
LINE
  8
0
 10
35.508
 11
35.774
 20
3.755
 21
3.333
  0
LINE
  8
0
 10
35.774
 11
36.006
 20
3.333
 21
2.893
  0
LINE
  8
0
 10
36.006
 11
36.206
 20
2.893
 21
2.436
  0
LINE
  8
0
 10
36.206
 11
36.37
 20
2.436
 21
1.965
  0
LINE
  8
0
 10
36.37
 11
36.5
 20
1.965
 21
1.483
  0
LINE
  8
0
 10
36.5
 11
36.592
 20
1.483
 21
0.994
  0
LINE
  8
0
 10
36.592
 11
36.648
 20
0.994
 21
0.498
  0
LINE
  8
0
 10
36.648
 11
36.667
 20
0.498
 21
0
  0
LINE
  8
0
 10
36.667
 11
36.648
 20
0
 21
-0.498
  0
LINE
  8
0
 10
36.648
 11
36.592
 20
-0.498
 21
-0.994
  0
LINE
  8
0
 10
36.592
 11
36.5
 20
-0.994
 21
-1.483
  0
LINE
  8
0
 10
36.5
 11
36.37
 20
-1.483
 21
-1.965
  0
LINE
  8
0
 10
36.37
 11
36.206
 20
-1.965
 21
-2.436
  0
LINE
  8
0
 10
36.206
 11
36.006
 20
-2.436
 21
-2.893
  0
LINE
  8
0
 10
36.006
 11
35.774
 20
-2.893
 21
-3.333
  0
LINE
  8
0
 10
35.774
 11
35.508
 20
-3.333
 21
-3.755
  0
LINE
  8
0
 10
35.508
 11
35.212
 20
-3.755
 21
-4.157
  0
LINE
  8
0
 10
35.212
 11
34.887
 20
-4.157
 21
-4.534
  0
LINE
  8
0
 10
34.887
 11
34.534
 20
-4.534
 21
-4.887
  0
LINE
  8
0
 10
34.534
 11
34.157
 20
-4.887
 21
-5.212
  0
LINE
  8
0
 10
34.157
 11
33.755
 20
-5.212
 21
-5.508
  0
LINE
  8
0
 10
33.755
 11
33.333
 20
-5.508
 21
-5.774
  0
LINE
  8
0
 10
33.333
 11
32.893
 20
-5.774
 21
-6.006
  0
LINE
  8
0
 10
32.893
 11
8.767
 20
-6.006
 21
-17.976
  0
LINE
  8
0
 10
8.767
 11
7.492
 20
-17.976
 21
-18.544
  0
LINE
  8
0
 10
7.492
 11
6.18
 20
-18.544
 21
-19.021
  0
LINE
  8
0
 10
6.18
 11
4.838
 20
-19.021
 21
-19.406
  0
LINE
  8
0
 10
4.838
 11
3.473
 20
-19.406
 21
-19.696
  0
LINE
  8
0
 10
3.473
 11
2.091
 20
-19.696
 21
-19.89
  0
LINE
  8
0
 10
2.091
 11
0.698
 20
-19.89
 21
-19.988
  0
LINE
  8
0
 10
0.698
 11
-0.698
 20
-19.988
 21
-19.988
  0
LINE
  8
0
 10
-0.698
 11
-2.091
 20
-19.988
 21
-19.89
  0
LINE
  8
0
 10
-2.091
 11
-3.473
 20
-19.89
 21
-19.696
  0
LINE
  8
0
 10
-3.473
 11
-4.838
 20
-19.696
 21
-19.406
  0
LINE
  8
0
 10
-4.838
 11
-6.18
 20
-19.406
 21
-19.021
  0
LINE
  8
0
 10
-6.18
 11
-7.492
 20
-19.021
 21
-18.544
  0
LINE
  8
0
 10
-7.492
 11
-8.767
 20
-18.544
 21
-17.976
  0
LINE
  8
0
 10
-8.767
 11
-10
 20
-17.976
 21
-17.321
  0
LINE
  8
0
 10
-10
 11
-11.184
 20
-17.321
 21
-16.581
  0
LINE
  8
0
 10
-11.184
 11
-12.313
 20
-16.581
 21
-15.76
  0
LINE
  8
0
 10
-12.313
 11
-13.383
 20
-15.76
 21
-14.863
  0
LINE
  8
0
 10
-13.383
 11
-14.387
 20
-14.863
 21
-13.893
  0
LINE
  8
0
 10
-14.387
 11
-15.321
 20
-13.893
 21
-12.856
  0
LINE
  8
0
 10
-15.321
 11
-16.18
 20
-12.856
 21
-11.756
  0
LINE
  8
0
 10
-16.18
 11
-16.961
 20
-11.756
 21
-10.598
  0
LINE
  8
0
 10
-16.961
 11
-17.659
 20
-10.598
 21
-9.389
  0
LINE
  8
0
 10
-17.659
 11
-18.271
 20
-9.389
 21
-8.135
  0
LINE
  8
0
 10
-18.271
 11
-18.794
 20
-8.135
 21
-6.84
  0
LINE
  8
0
 10
-18.794
 11
-19.225
 20
-6.84
 21
-5.513
  0
LINE
  8
0
 10
-19.225
 11
-19.563
 20
-5.513
 21
-4.158
  0
LINE
  8
0
 10
-19.563
 11
-19.805
 20
-4.158
 21
-2.783
  0
LINE
  8
0
 10
-19.805
 11
-19.951
 20
-2.783
 21
-1.395
  0
LINE
  8
0
 10
-19.951
 11
-20
 20
-1.395
 21
0
  0
LINE
  8
0
 10
28.217
 11
28.217
 20
-0.245
 21
0.245
  0
LINE
  8
0
 10
28.217
 11
28.349
 20
0.245
 21
0.717
  0
LINE
  8
0
 10
28.349
 11
28.604
 20
0.717
 21
1.136
  0
LINE
  8
0
 10
28.604
 11
28.962
 20
1.136
 21
1.471
  0
LINE
  8
0
 10
28.962
 11
29.397
 20
1.471
 21
1.696
  0
LINE
  8
0
 10
29.397
 11
29.877
 20
1.696
 21
1.796
  0
LINE
  8
0
 10
29.877
 11
30.366
 20
1.796
 21
1.762
  0
LINE
  8
0
 10
30.366
 11
30.828
 20
1.762
 21
1.598
  0
LINE
  8
0
 10
30.828
 11
31.229
 20
1.598
 21
1.316
  0
LINE
  8
0
 10
31.229
 11
31.538
 20
1.316
 21
0.935
  0
LINE
  8
0
 10
31.538
 11
31.733
 20
0.935
 21
0.486
  0
LINE
  8
0
 10
31.733
 11
31.8
 20
0.486
 21
0
  0
LINE
  8
0
 10
31.8
 11
31.733
 20
0
 21
-0.486
  0
LINE
  8
0
 10
31.733
 11
31.538
 20
-0.486
 21
-0.935
  0
LINE
  8
0
 10
31.538
 11
31.229
 20
-0.935
 21
-1.316
  0
LINE
  8
0
 10
31.229
 11
30.828
 20
-1.316
 21
-1.598
  0
LINE
  8
0
 10
30.828
 11
30.366
 20
-1.598
 21
-1.762
  0
LINE
  8
0
 10
30.366
 11
29.877
 20
-1.762
 21
-1.796
  0
LINE
  8
0
 10
29.877
 11
29.397
 20
-1.796
 21
-1.696
  0
LINE
  8
0
 10
29.397
 11
28.962
 20
-1.696
 21
-1.471
  0
LINE
  8
0
 10
28.962
 11
28.604
 20
-1.471
 21
-1.136
  0
LINE
  8
0
 10
28.604
 11
28.349
 20
-1.136
 21
-0.717
  0
LINE
  8
0
 10
28.349
 11
28.217
 20
-0.717
 21
-0.245
  0
ENDSEC
  0
SECTION
  2
OBJECTS
  0
DICTIONARY
  0
ENDSEC
  0
EOF
