  0
SECTION
  2
BLOCKS
  0
ENDSEC
  0
SECTION
  2
ENTITIES
  0
LINE
  8
0
 10
-20.67
 11
-20.67
 20
-15.395
 21
0.165
  0
LINE
  8
0
 10
-20.67
 11
-20.579
 20
0.165
 21
0.624
  0
LINE
  8
0
 10
-20.579
 11
-20.319
 20
0.624
 21
1.014
  0
LINE
  8
0
 10
-20.319
 11
-19.929
 20
1.014
 21
1.274
  0
LINE
  8
0
 10
-19.929
 11
-19.47
 20
1.274
 21
1.365
  0
LINE
  8
0
 10
-19.47
 11
19.47
 20
1.365
 21
1.365
  0
LINE
  8
0
 10
19.47
 11
19.929
 20
1.365
 21
1.274
  0
LINE
  8
0
 10
19.929
 11
20.319
 20
1.274
 21
1.014
  0
LINE
  8
0
 10
20.319
 11
20.579
 20
1.014
 21
0.624
  0
LINE
  8
0
 10
20.579
 11
20.67
 20
0.624
 21
0.165
  0
LINE
  8
0
 10
20.67
 11
20.67
 20
0.165
 21
-15.395
  0
LINE
  8
0
 10
20.67
 11
20.579
 20
-15.395
 21
-15.854
  0
LINE
  8
0
 10
20.579
 11
20.319
 20
-15.854
 21
-16.244
  0
LINE
  8
0
 10
20.319
 11
19.929
 20
-16.244
 21
-16.504
  0
LINE
  8
0
 10
19.929
 11
19.47
 20
-16.504
 21
-16.595
  0
LINE
  8
0
 10
19.47
 11
-19.47
 20
-16.595
 21
-16.595
  0
LINE
  8
0
 10
-19.47
 11
-19.929
 20
-16.595
 21
-16.504
  0
LINE
  8
0
 10
-19.929
 11
-20.319
 20
-16.504
 21
-16.244
  0
LINE
  8
0
 10
-20.319
 11
-20.579
 20
-16.244
 21
-15.854
  0
LINE
  8
0
 10
-20.579
 11
-20.67
 20
-15.854
 21
-15.395
  0
LINE
  8
0
 10
-11.6
 11
-11.6
 20
-14.065
 21
-1.365
  0
LINE
  8
0
 10
-11.6
 11
11.5
 20
-1.365
 21
-1.365
  0
LINE
  8
0
 10
11.5
 11
11.5
 20
-1.365
 21
-4.977
  0
LINE
  8
0
 10
11.5
 11
11.543
 20
-4.977
 21
-4.977
  0
LINE
  8
0
 10
11.543
 11
12.018
 20
-4.977
 21
-5.075
  0
LINE
  8
0
 10
12.018
 11
12.465
 20
-5.075
 21
-5.267
  0
LINE
  8
0
 10
12.465
 11
12.863
 20
-5.267
 21
-5.544
  0
LINE
  8
0
 10
12.863
 11
13.198
 20
-5.544
 21
-5.896
  0
LINE
  8
0
 10
13.198
 11
13.455
 20
-5.896
 21
-6.308
  0
LINE
  8
0
 10
13.455
 11
13.623
 20
-6.308
 21
-6.763
  0
LINE
  8
0
 10
13.623
 11
13.697
 20
-6.763
 21
-7.243
  0
LINE
  8
0
 10
13.697
 11
13.672
 20
-7.243
 21
-7.728
  0
LINE
  8
0
 10
13.672
 11
13.551
 20
-7.728
 21
-8.199
  0
LINE
  8
0
 10
13.551
 11
13.337
 20
-8.199
 21
-8.635
  0
LINE
  8
0
 10
13.337
 11
13.04
 20
-8.635
 21
-9.019
  0
LINE
  8
0
 10
13.04
 11
12.671
 20
-9.019
 21
-9.335
  0
LINE
  8
0
 10
12.671
 11
12.246
 20
-9.335
 21
-9.57
  0
LINE
  8
0
 10
12.246
 11
11.783
 20
-9.57
 21
-9.716
  0
LINE
  8
0
 10
11.783
 11
11.5
 20
-9.716
 21
-9.745
  0
LINE
  8
0
 10
11.5
 11
11.5
 20
-9.745
 21
-14.065
  0
LINE
  8
0
 10
11.5
 11
-11.6
 20
-14.065
 21
-14.065
  0
ENDSEC
  0
SECTION
  2
OBJECTS
  0
DICTIONARY
  0
ENDSEC
  0
EOF
