<?xml version="1.0" encoding="UTF-8" standalone="no"?>
<!-- Created with Inkscape (http://www.inkscape.org/) -->

<svg
   xmlns:dc="http://purl.org/dc/elements/1.1/"
   xmlns:cc="http://creativecommons.org/ns#"
   xmlns:rdf="http://www.w3.org/1999/02/22-rdf-syntax-ns#"
   xmlns:svg="http://www.w3.org/2000/svg"
   xmlns="http://www.w3.org/2000/svg"
   xmlns:sodipodi="http://sodipodi.sourceforge.net/DTD/sodipodi-0.dtd"
   xmlns:inkscape="http://www.inkscape.org/namespaces/inkscape"
   width="744.09448"
   height="1052.3622"
   id="svg3876"
   version="1.1"
   inkscape:version="0.47 r22583"
   sodipodi:docname="back and front.svg">
  <defs
     id="defs3878">
    <inkscape:perspective
       sodipodi:type="inkscape:persp3d"
       inkscape:vp_x="0 : 526.18109 : 1"
       inkscape:vp_y="0 : 1000 : 0"
       inkscape:vp_z="744.09448 : 526.18109 : 1"
       inkscape:persp3d-origin="372.04724 : 350.78739 : 1"
       id="perspective3884" />
    <inkscape:perspective
       id="perspective2997"
       inkscape:persp3d-origin="0.5 : 0.33333333 : 1"
       inkscape:vp_z="1 : 0.5 : 1"
       inkscape:vp_y="0 : 1000 : 0"
       inkscape:vp_x="0 : 0.5 : 1"
       sodipodi:type="inkscape:persp3d" />
    <inkscape:perspective
       id="perspective3025"
       inkscape:persp3d-origin="0.5 : 0.33333333 : 1"
       inkscape:vp_z="1 : 0.5 : 1"
       inkscape:vp_y="0 : 1000 : 0"
       inkscape:vp_x="0 : 0.5 : 1"
       sodipodi:type="inkscape:persp3d" />
    <inkscape:perspective
       id="perspective3047"
       inkscape:persp3d-origin="0.5 : 0.33333333 : 1"
       inkscape:vp_z="1 : 0.5 : 1"
       inkscape:vp_y="0 : 1000 : 0"
       inkscape:vp_x="0 : 0.5 : 1"
       sodipodi:type="inkscape:persp3d" />
    <inkscape:perspective
       id="perspective3882"
       inkscape:persp3d-origin="0.5 : 0.33333333 : 1"
       inkscape:vp_z="1 : 0.5 : 1"
       inkscape:vp_y="0 : 1000 : 0"
       inkscape:vp_x="0 : 0.5 : 1"
       sodipodi:type="inkscape:persp3d" />
    <inkscape:perspective
       id="perspective4183"
       inkscape:persp3d-origin="0.5 : 0.33333333 : 1"
       inkscape:vp_z="1 : 0.5 : 1"
       inkscape:vp_y="0 : 1000 : 0"
       inkscape:vp_x="0 : 0.5 : 1"
       sodipodi:type="inkscape:persp3d" />
    <inkscape:perspective
       id="perspective4247"
       inkscape:persp3d-origin="0.5 : 0.33333333 : 1"
       inkscape:vp_z="1 : 0.5 : 1"
       inkscape:vp_y="0 : 1000 : 0"
       inkscape:vp_x="0 : 0.5 : 1"
       sodipodi:type="inkscape:persp3d" />
    <inkscape:perspective
       id="perspective4275"
       inkscape:persp3d-origin="0.5 : 0.33333333 : 1"
       inkscape:vp_z="1 : 0.5 : 1"
       inkscape:vp_y="0 : 1000 : 0"
       inkscape:vp_x="0 : 0.5 : 1"
       sodipodi:type="inkscape:persp3d" />
  </defs>
  <sodipodi:namedview
     id="base"
     pagecolor="#ffffff"
     bordercolor="#666666"
     borderopacity="1.0"
     inkscape:pageopacity="0.0"
     inkscape:pageshadow="2"
     inkscape:zoom="1.0381937"
     inkscape:cx="-1489.7647"
     inkscape:cy="566.18471"
     inkscape:document-units="mm"
     inkscape:current-layer="layer1"
     showgrid="true"
     units="mm"
     showborder="false"
     inkscape:window-width="1600"
     inkscape:window-height="1125"
     inkscape:window-x="0"
     inkscape:window-y="25"
     inkscape:window-maximized="1">
    <inkscape:grid
       type="xygrid"
       id="grid3886"
       empspacing="5"
       visible="true"
       enabled="true"
       snapvisiblegridlinesonly="true"
       units="mm"
       spacingx="1mm"
       spacingy="1mm" />
  </sodipodi:namedview>
  <metadata
     id="metadata3881">
    <rdf:RDF>
      <cc:Work
         rdf:about="">
        <dc:format>image/svg+xml</dc:format>
        <dc:type
           rdf:resource="http://purl.org/dc/dcmitype/StillImage" />
        <dc:title></dc:title>
      </cc:Work>
    </rdf:RDF>
  </metadata>
  <g
     inkscape:label="Layer 1"
     inkscape:groupmode="layer"
     id="layer1"
     transform="translate(0,-2.5390623e-6)">
    <rect
       style="fill:none;stroke:#000000;stroke-width:0.5;stroke-miterlimit:4;stroke-opacity:1;stroke-dasharray:none"
       id="rect2813"
       width="549.21259"
       height="549.21259"
       x="-1062.9921"
       y="166.53542"
       transform="translate(0,2.5390623e-6)" />
    <rect
       style="fill:none;stroke:#000000;stroke-width:0.5;stroke-miterlimit:4;stroke-opacity:1;stroke-dasharray:none"
       id="rect2815"
       width="612.88403"
       height="612.87799"
       x="-1094.8278"
       y="134.70271" />
    <path
       sodipodi:type="arc"
       style="fill:none;stroke:#000000;stroke-width:0.83975038;stroke-miterlimit:4;stroke-opacity:1;stroke-dasharray:none"
       id="path2836"
       sodipodi:cx="-1000.9843"
       sodipodi:cy="653.74011"
       sodipodi:rx="8.8582678"
       sodipodi:ry="8.8582678"
       d="m -992.12605,653.74011 a 8.8582678,8.8582678 0 1 1 -17.71655,0 8.8582678,8.8582678 0 1 1 17.71655,0 z"
       transform="matrix(0.59579537,0,0,0.59503494,-513.07188,371.35465)" />
    <rect
       y="161.28365"
       x="-1068.2433"
       height="559.71613"
       width="559.71509"
       id="rect2898"
       style="fill:none;stroke:#000000;stroke-width:0.5;stroke-miterlimit:4;stroke-opacity:1;stroke-dasharray:none" />
    <rect
       style="fill:none;stroke:#000000;stroke-width:0.5;stroke-miterlimit:4;stroke-opacity:1;stroke-dasharray:none"
       id="rect2900"
       width="570.34509"
       height="570.34607"
       x="-1073.5583"
       y="155.96867" />
    <rect
       y="150.6537"
       x="-1078.8733"
       height="580.97601"
       width="580.97504"
       id="rect2902"
       style="fill:none;stroke:#000000;stroke-width:0.5;stroke-miterlimit:4;stroke-opacity:1;stroke-dasharray:none" />
    <rect
       style="fill:none;stroke:#000000;stroke-width:0.5;stroke-miterlimit:4;stroke-opacity:1;stroke-dasharray:none"
       id="rect2904"
       width="591.60498"
       height="591.60596"
       x="-1084.1882"
       y="145.33873" />
    <rect
       y="140.02373"
       x="-1089.5032"
       height="602.23596"
       width="602.23492"
       id="rect2906"
       style="fill:none;stroke:#000000;stroke-width:0.5;stroke-miterlimit:4;stroke-opacity:1;stroke-dasharray:none" />
    <rect
       style="fill:none;stroke:#000000;stroke-width:0.5;stroke-miterlimit:4;stroke-opacity:1;stroke-dasharray:none"
       id="rect2815-6"
       width="612.88403"
       height="612.87799"
       x="-1803.0468"
       y="152.58923" />
    <path
       sodipodi:type="arc"
       style="fill:none;stroke:#000000;stroke-width:0.83975038;stroke-miterlimit:4;stroke-opacity:1;stroke-dasharray:none"
       id="path2836-4"
       sodipodi:cx="-1000.9843"
       sodipodi:cy="653.74011"
       sodipodi:rx="8.8582678"
       sodipodi:ry="8.8582678"
       d="m -992.12605,653.74011 a 8.8582678,8.8582678 0 1 1 -17.71655,0 8.8582678,8.8582678 0 1 1 17.71655,0 z"
       transform="matrix(0.59579537,0,0,0.59503494,-1221.2909,389.24117)" />
    <path
       sodipodi:type="arc"
       style="fill:none;stroke:#000000;stroke-width:0.83975038;stroke-miterlimit:4;stroke-opacity:1;stroke-dasharray:none"
       id="path2836-4-8"
       sodipodi:cx="-1000.9843"
       sodipodi:cy="653.74011"
       sodipodi:rx="8.8582678"
       sodipodi:ry="8.8582678"
       d="m -992.12605,653.74011 a 8.8582678,8.8582678 0 1 1 -17.71655,0 8.8582678,8.8582678 0 1 1 17.71655,0 z"
       transform="matrix(0.59579537,0,0,0.59503494,-1191.3044,359.84332)" />
    <path
       sodipodi:type="arc"
       style="fill:none;stroke:#000000;stroke-width:0.83975038;stroke-miterlimit:4;stroke-opacity:1;stroke-dasharray:none"
       id="path2836-4-8-0"
       sodipodi:cx="-1000.9843"
       sodipodi:cy="653.74011"
       sodipodi:rx="8.8582678"
       sodipodi:ry="8.8582678"
       d="m -992.12605,653.74011 a 8.8582678,8.8582678 0 1 1 -17.71655,0 8.8582678,8.8582678 0 1 1 17.71655,0 z"
       transform="matrix(0.59579537,0,0,0.59503494,-900.22295,359.84332)" />
    <path
       transform="matrix(0.59579537,0,0,0.59503494,-610.92433,359.84332)"
       d="m -992.12605,653.74011 a 8.8582678,8.8582678 0 1 1 -17.71655,0 8.8582678,8.8582678 0 1 1 17.71655,0 z"
       sodipodi:ry="8.8582678"
       sodipodi:rx="8.8582678"
       sodipodi:cy="653.74011"
       sodipodi:cx="-1000.9843"
       id="path3061"
       style="fill:none;stroke:#000000;stroke-width:0.83975038;stroke-miterlimit:4;stroke-opacity:1;stroke-dasharray:none"
       sodipodi:type="arc" />
    <path
       transform="matrix(0.59579537,0,0,0.59503494,-1191.3044,70.03002)"
       d="m -992.12605,653.74011 a 8.8582678,8.8582678 0 1 1 -17.71655,0 8.8582678,8.8582678 0 1 1 17.71655,0 z"
       sodipodi:ry="8.8582678"
       sodipodi:rx="8.8582678"
       sodipodi:cy="653.74011"
       sodipodi:cx="-1000.9843"
       id="path3078"
       style="fill:none;stroke:#000000;stroke-width:0.83975038;stroke-miterlimit:4;stroke-opacity:1;stroke-dasharray:none"
       sodipodi:type="arc" />
    <path
       sodipodi:type="arc"
       style="fill:none;stroke:#000000;stroke-width:0.83975038;stroke-miterlimit:4;stroke-opacity:1;stroke-dasharray:none"
       id="path3082"
       sodipodi:cx="-1000.9843"
       sodipodi:cy="653.74011"
       sodipodi:rx="8.8582678"
       sodipodi:ry="8.8582678"
       d="m -992.12605,653.74011 a 8.8582678,8.8582678 0 1 1 -17.71655,0 8.8582678,8.8582678 0 1 1 17.71655,0 z"
       transform="matrix(0.59579537,0,0,0.59503494,-610.92433,70.03002)" />
    <path
       sodipodi:type="arc"
       style="fill:none;stroke:#000000;stroke-width:0.83975038;stroke-miterlimit:4;stroke-opacity:1;stroke-dasharray:none"
       id="path3092"
       sodipodi:cx="-1000.9843"
       sodipodi:cy="653.74011"
       sodipodi:rx="8.8582678"
       sodipodi:ry="8.8582678"
       d="m -992.12605,653.74011 a 8.8582678,8.8582678 0 1 1 -17.71655,0 8.8582678,8.8582678 0 1 1 17.71655,0 z"
       transform="matrix(0.59579537,0,0,0.59503494,-1191.3044,-219.96998)" />
    <path
       sodipodi:type="arc"
       style="fill:none;stroke:#000000;stroke-width:0.83975038;stroke-miterlimit:4;stroke-opacity:1;stroke-dasharray:none"
       id="path3094"
       sodipodi:cx="-1000.9843"
       sodipodi:cy="653.74011"
       sodipodi:rx="8.8582678"
       sodipodi:ry="8.8582678"
       d="m -992.12605,653.74011 a 8.8582678,8.8582678 0 1 1 -17.71655,0 8.8582678,8.8582678 0 1 1 17.71655,0 z"
       transform="matrix(0.59579537,0,0,0.59503494,-900.22295,-219.96998)" />
    <path
       transform="matrix(0.59579537,0,0,0.59503494,-610.92433,-219.96998)"
       d="m -992.12605,653.74011 a 8.8582678,8.8582678 0 1 1 -17.71655,0 8.8582678,8.8582678 0 1 1 17.71655,0 z"
       sodipodi:ry="8.8582678"
       sodipodi:rx="8.8582678"
       sodipodi:cy="653.74011"
       sodipodi:cx="-1000.9843"
       id="path3096"
       style="fill:none;stroke:#000000;stroke-width:0.83975038;stroke-miterlimit:4;stroke-opacity:1;stroke-dasharray:none"
       sodipodi:type="arc" />
    <path
       sodipodi:type="arc"
       style="fill:none;stroke:#000000;stroke-width:0.5;stroke-miterlimit:4;stroke-opacity:1;stroke-dasharray:none"
       id="path3870"
       sodipodi:cx="-1603.3464"
       sodipodi:cy="308.2677"
       sodipodi:rx="44.29134"
       sodipodi:ry="35.433071"
       d="m -1559.0551,308.2677 a 44.29134,35.433071 0 1 1 -88.5827,0 44.29134,35.433071 0 1 1 88.5827,0 z"
       transform="matrix(0.83473225,0,0,1.0434153,-325.45101,-31.10007)" />
    <path
       sodipodi:type="arc"
       style="fill:none;stroke:#000000;stroke-width:0.83975041;stroke-miterlimit:4;stroke-opacity:1;stroke-dasharray:none"
       id="path3092-1"
       sodipodi:cx="-1000.9843"
       sodipodi:cy="653.74011"
       sodipodi:rx="8.8582678"
       sodipodi:ry="8.8582678"
       d="m -992.12605,653.74011 a 8.8582678,8.8582678 0 1 1 -17.71655,0 8.8582678,8.8582678 0 1 1 17.71655,0 z"
       transform="matrix(0.59579537,0,0,0.59503494,-1107.906,-138.93087)" />
    <path
       transform="matrix(0.59579537,0,0,0.59503494,-1026.4291,-139.07657)"
       d="m -992.12605,653.74011 a 8.8582678,8.8582678 0 1 1 -17.71655,0 8.8582678,8.8582678 0 1 1 17.71655,0 z"
       sodipodi:ry="8.8582678"
       sodipodi:rx="8.8582678"
       sodipodi:cy="653.74011"
       sodipodi:cx="-1000.9843"
       id="path3896"
       style="fill:none;stroke:#000000;stroke-width:0.83975041;stroke-miterlimit:4;stroke-opacity:1;stroke-dasharray:none"
       sodipodi:type="arc" />
    <path
       transform="matrix(0.59579537,0,0,0.59503494,-1108.1178,-57.89107)"
       d="m -992.12605,653.74011 a 8.8582678,8.8582678 0 1 1 -17.71655,0 8.8582678,8.8582678 0 1 1 17.71655,0 z"
       sodipodi:ry="8.8582678"
       sodipodi:rx="8.8582678"
       sodipodi:cy="653.74011"
       sodipodi:cx="-1000.9843"
       id="path3898"
       style="fill:none;stroke:#000000;stroke-width:0.83975041;stroke-miterlimit:4;stroke-opacity:1;stroke-dasharray:none"
       sodipodi:type="arc" />
    <path
       sodipodi:type="arc"
       style="fill:none;stroke:#000000;stroke-width:0.83975041;stroke-miterlimit:4;stroke-opacity:1;stroke-dasharray:none"
       id="path3900"
       sodipodi:cx="-1000.9843"
       sodipodi:cy="653.74011"
       sodipodi:rx="8.8582678"
       sodipodi:ry="8.8582678"
       d="m -992.12605,653.74011 a 8.8582678,8.8582678 0 1 1 -17.71655,0 8.8582678,8.8582678 0 1 1 17.71655,0 z"
       transform="matrix(0.59579537,0,0,0.59503494,-1026.5748,-57.59967)" />
    <rect
       style="fill:none;stroke:#000000;stroke-width:0.52800065;stroke-miterlimit:4;stroke-opacity:1;stroke-dasharray:none"
       id="rect3909"
       width="1084.224"
       height="612.46411"
       x="-3135.8267"
       y="-471.25986" />
    <rect
       y="288.74014"
       x="-3135.8267"
       height="612.46411"
       width="1084.224"
       id="rect4147"
       style="fill:none;stroke:#000000;stroke-width:0.52800065;stroke-miterlimit:4;stroke-opacity:1;stroke-dasharray:none" />
    <rect
       style="fill:none;stroke:#000000;stroke-width:0.49977249;stroke-miterlimit:4;stroke-opacity:1;stroke-dasharray:none"
       id="rect3909-7"
       width="1084.2522"
       height="548.71283"
       x="-3153.5432"
       y="1087.7953" />
    <path
       sodipodi:type="arc"
       style="fill:none;stroke:#000000;stroke-width:0.83975041;stroke-miterlimit:4;stroke-opacity:1;stroke-dasharray:none"
       id="path3092-1-9"
       sodipodi:cx="-1000.9843"
       sodipodi:cy="653.74011"
       sodipodi:rx="8.8582678"
       sodipodi:ry="8.8582678"
       d="m -992.12605,653.74011 a 8.8582678,8.8582678 0 1 1 -17.71655,0 8.8582678,8.8582678 0 1 1 17.71655,0 z"
       transform="matrix(0.59579537,0,0,0.59503494,-1726.4163,-554.44731)" />
    <path
       transform="matrix(0.59579537,0,0,0.59503494,-2268.2492,-553.60471)"
       d="m -992.12605,653.74011 a 8.8582678,8.8582678 0 1 1 -17.71655,0 8.8582678,8.8582678 0 1 1 17.71655,0 z"
       sodipodi:ry="8.8582678"
       sodipodi:rx="8.8582678"
       sodipodi:cy="653.74011"
       sodipodi:cx="-1000.9843"
       id="path4265"
       style="fill:none;stroke:#000000;stroke-width:0.83975041;stroke-miterlimit:4;stroke-opacity:1;stroke-dasharray:none"
       sodipodi:type="arc" />
    <path
       transform="matrix(0.59579537,0,0,0.59503494,-2550.1672,-230.46279)"
       d="m -992.12605,653.74011 a 8.8582678,8.8582678 0 1 1 -17.71655,0 8.8582678,8.8582678 0 1 1 17.71655,0 z"
       sodipodi:ry="8.8582678"
       sodipodi:rx="8.8582678"
       sodipodi:cy="653.74011"
       sodipodi:cx="-1000.9843"
       id="path4265-2"
       style="fill:none;stroke:#000000;stroke-width:0.83975041;stroke-miterlimit:4;stroke-opacity:1;stroke-dasharray:none"
       sodipodi:type="arc" />
  </g>
</svg>
