<?xml version="1.0" encoding="UTF-8" standalone="no"?>
<!-- Created with Inkscape (http://www.inkscape.org/) -->

<svg
   xmlns:dc="http://purl.org/dc/elements/1.1/"
   xmlns:cc="http://creativecommons.org/ns#"
   xmlns:rdf="http://www.w3.org/1999/02/22-rdf-syntax-ns#"
   xmlns:svg="http://www.w3.org/2000/svg"
   xmlns="http://www.w3.org/2000/svg"
   xmlns:sodipodi="http://sodipodi.sourceforge.net/DTD/sodipodi-0.dtd"
   xmlns:inkscape="http://www.inkscape.org/namespaces/inkscape"
   width="744.09448"
   height="1052.3622"
   id="svg3876"
   version="1.1"
   inkscape:version="0.48.2 r9819"
   sodipodi:docname="back and front and shelf.svg">
  <defs
     id="defs3878">
    <inkscape:perspective
       sodipodi:type="inkscape:persp3d"
       inkscape:vp_x="0 : 526.18109 : 1"
       inkscape:vp_y="0 : 1000 : 0"
       inkscape:vp_z="744.09448 : 526.18109 : 1"
       inkscape:persp3d-origin="372.04724 : 350.78739 : 1"
       id="perspective3884" />
    <inkscape:perspective
       id="perspective2997"
       inkscape:persp3d-origin="0.5 : 0.33333333 : 1"
       inkscape:vp_z="1 : 0.5 : 1"
       inkscape:vp_y="0 : 1000 : 0"
       inkscape:vp_x="0 : 0.5 : 1"
       sodipodi:type="inkscape:persp3d" />
    <inkscape:perspective
       id="perspective3025"
       inkscape:persp3d-origin="0.5 : 0.33333333 : 1"
       inkscape:vp_z="1 : 0.5 : 1"
       inkscape:vp_y="0 : 1000 : 0"
       inkscape:vp_x="0 : 0.5 : 1"
       sodipodi:type="inkscape:persp3d" />
    <inkscape:perspective
       id="perspective3047"
       inkscape:persp3d-origin="0.5 : 0.33333333 : 1"
       inkscape:vp_z="1 : 0.5 : 1"
       inkscape:vp_y="0 : 1000 : 0"
       inkscape:vp_x="0 : 0.5 : 1"
       sodipodi:type="inkscape:persp3d" />
    <inkscape:perspective
       id="perspective3882"
       inkscape:persp3d-origin="0.5 : 0.33333333 : 1"
       inkscape:vp_z="1 : 0.5 : 1"
       inkscape:vp_y="0 : 1000 : 0"
       inkscape:vp_x="0 : 0.5 : 1"
       sodipodi:type="inkscape:persp3d" />
    <inkscape:perspective
       id="perspective4183"
       inkscape:persp3d-origin="0.5 : 0.33333333 : 1"
       inkscape:vp_z="1 : 0.5 : 1"
       inkscape:vp_y="0 : 1000 : 0"
       inkscape:vp_x="0 : 0.5 : 1"
       sodipodi:type="inkscape:persp3d" />
    <inkscape:perspective
       id="perspective4247"
       inkscape:persp3d-origin="0.5 : 0.33333333 : 1"
       inkscape:vp_z="1 : 0.5 : 1"
       inkscape:vp_y="0 : 1000 : 0"
       inkscape:vp_x="0 : 0.5 : 1"
       sodipodi:type="inkscape:persp3d" />
    <inkscape:perspective
       id="perspective4275"
       inkscape:persp3d-origin="0.5 : 0.33333333 : 1"
       inkscape:vp_z="1 : 0.5 : 1"
       inkscape:vp_y="0 : 1000 : 0"
       inkscape:vp_x="0 : 0.5 : 1"
       sodipodi:type="inkscape:persp3d" />
  </defs>
  <sodipodi:namedview
     id="base"
     pagecolor="#ffffff"
     bordercolor="#666666"
     borderopacity="1.0"
     inkscape:pageopacity="0.0"
     inkscape:pageshadow="2"
     inkscape:zoom="0.51909685"
     inkscape:cx="-2806.5554"
     inkscape:cy="-936.42506"
     inkscape:document-units="mm"
     inkscape:current-layer="layer1"
     showgrid="true"
     units="mm"
     showborder="false"
     inkscape:window-width="1280"
     inkscape:window-height="756"
     inkscape:window-x="21"
     inkscape:window-y="0"
     inkscape:window-maximized="0">
    <inkscape:grid
       type="xygrid"
       id="grid3886"
       empspacing="5"
       visible="true"
       enabled="true"
       snapvisiblegridlinesonly="true"
       units="mm"
       spacingx="1mm"
       spacingy="1mm" />
  </sodipodi:namedview>
  <metadata
     id="metadata3881">
    <rdf:RDF>
      <cc:Work
         rdf:about="">
        <dc:format>image/svg+xml</dc:format>
        <dc:type
           rdf:resource="http://purl.org/dc/dcmitype/StillImage" />
        <dc:title />
      </cc:Work>
    </rdf:RDF>
  </metadata>
  <g
     inkscape:label="Layer 1"
     inkscape:groupmode="layer"
     id="layer1"
     transform="translate(0,-2.5390623e-6)">
    <rect
       style="fill:none;stroke:#000000;stroke-width:0.5;stroke-miterlimit:4;stroke-opacity:1;stroke-dasharray:none"
       id="rect2813"
       width="549.21259"
       height="549.21259"
       x="-1062.9921"
       y="166.53542"
       transform="translate(0,2.5390623e-6)" />
    <rect
       style="fill:none;stroke:#000000;stroke-width:0.5;stroke-miterlimit:4;stroke-opacity:1;stroke-dasharray:none"
       id="rect2815"
       width="612.88403"
       height="612.87799"
       x="-1094.8278"
       y="134.70271" />
    <path
       sodipodi:type="arc"
       style="fill:none;stroke:#000000;stroke-width:0.83975038;stroke-miterlimit:4;stroke-opacity:1;stroke-dasharray:none"
       id="path2836"
       sodipodi:cx="-1000.9843"
       sodipodi:cy="653.74011"
       sodipodi:rx="8.8582678"
       sodipodi:ry="8.8582678"
       d="m -992.12605,653.74011 c 0,4.89229 -3.96598,8.85827 -8.85825,8.85827 -4.8923,0 -8.8583,-3.96598 -8.8583,-8.85827 0,-4.89228 3.966,-8.85827 8.8583,-8.85827 4.89227,0 8.85825,3.96599 8.85825,8.85827 z"
       transform="matrix(0.59579537,0,0,0.59503494,-513.07188,371.35465)" />
    <rect
       y="161.28365"
       x="-1068.2433"
       height="559.71613"
       width="559.71509"
       id="rect2898"
       style="fill:none;stroke:#000000;stroke-width:0.5;stroke-miterlimit:4;stroke-opacity:1;stroke-dasharray:none" />
    <rect
       style="fill:none;stroke:#000000;stroke-width:0.5;stroke-miterlimit:4;stroke-opacity:1;stroke-dasharray:none"
       id="rect2900"
       width="570.34509"
       height="570.34607"
       x="-1073.5583"
       y="155.96867" />
    <rect
       y="150.6537"
       x="-1078.8733"
       height="580.97601"
       width="580.97504"
       id="rect2902"
       style="fill:none;stroke:#000000;stroke-width:0.5;stroke-miterlimit:4;stroke-opacity:1;stroke-dasharray:none" />
    <rect
       style="fill:none;stroke:#000000;stroke-width:0.5;stroke-miterlimit:4;stroke-opacity:1;stroke-dasharray:none"
       id="rect2904"
       width="591.60498"
       height="591.60596"
       x="-1084.1882"
       y="145.33873" />
    <rect
       y="140.02373"
       x="-1089.5032"
       height="602.23596"
       width="602.23492"
       id="rect2906"
       style="fill:none;stroke:#000000;stroke-width:0.5;stroke-miterlimit:4;stroke-opacity:1;stroke-dasharray:none" />
    <rect
       style="fill:none;stroke:#000000;stroke-width:0.5;stroke-miterlimit:4;stroke-opacity:1;stroke-dasharray:none"
       id="rect2815-6"
       width="612.88403"
       height="612.87799"
       x="-1803.0468"
       y="152.58923" />
    <path
       sodipodi:type="arc"
       style="fill:none;stroke:#000000;stroke-width:0.83975038;stroke-miterlimit:4;stroke-opacity:1;stroke-dasharray:none"
       id="path2836-4"
       sodipodi:cx="-1000.9843"
       sodipodi:cy="653.74011"
       sodipodi:rx="8.8582678"
       sodipodi:ry="8.8582678"
       d="m -992.12605,653.74011 c 0,4.89229 -3.96598,8.85827 -8.85825,8.85827 -4.8923,0 -8.8583,-3.96598 -8.8583,-8.85827 0,-4.89228 3.966,-8.85827 8.8583,-8.85827 4.89227,0 8.85825,3.96599 8.85825,8.85827 z"
       transform="matrix(0.59579537,0,0,0.59503494,-1221.2909,389.24117)" />
    <path
       sodipodi:type="arc"
       style="fill:none;stroke:#000000;stroke-width:0.83975038;stroke-miterlimit:4;stroke-opacity:1;stroke-dasharray:none"
       id="path2836-4-8"
       sodipodi:cx="-1000.9843"
       sodipodi:cy="653.74011"
       sodipodi:rx="8.8582678"
       sodipodi:ry="8.8582678"
       d="m -992.12605,653.74011 c 0,4.89229 -3.96598,8.85827 -8.85825,8.85827 -4.8923,0 -8.8583,-3.96598 -8.8583,-8.85827 0,-4.89228 3.966,-8.85827 8.8583,-8.85827 4.89227,0 8.85825,3.96599 8.85825,8.85827 z"
       transform="matrix(0.59579537,0,0,0.59503494,-1191.3044,359.84332)" />
    <path
       sodipodi:type="arc"
       style="fill:none;stroke:#000000;stroke-width:0.83975038;stroke-miterlimit:4;stroke-opacity:1;stroke-dasharray:none"
       id="path2836-4-8-0"
       sodipodi:cx="-1000.9843"
       sodipodi:cy="653.74011"
       sodipodi:rx="8.8582678"
       sodipodi:ry="8.8582678"
       d="m -992.12605,653.74011 c 0,4.89229 -3.96598,8.85827 -8.85825,8.85827 -4.8923,0 -8.8583,-3.96598 -8.8583,-8.85827 0,-4.89228 3.966,-8.85827 8.8583,-8.85827 4.89227,0 8.85825,3.96599 8.85825,8.85827 z"
       transform="matrix(0.59579537,0,0,0.59503494,-900.22295,359.84332)" />
    <path
       transform="matrix(0.59579537,0,0,0.59503494,-610.92433,359.84332)"
       d="m -992.12605,653.74011 c 0,4.89229 -3.96598,8.85827 -8.85825,8.85827 -4.8923,0 -8.8583,-3.96598 -8.8583,-8.85827 0,-4.89228 3.966,-8.85827 8.8583,-8.85827 4.89227,0 8.85825,3.96599 8.85825,8.85827 z"
       sodipodi:ry="8.8582678"
       sodipodi:rx="8.8582678"
       sodipodi:cy="653.74011"
       sodipodi:cx="-1000.9843"
       id="path3061"
       style="fill:none;stroke:#000000;stroke-width:0.83975038;stroke-miterlimit:4;stroke-opacity:1;stroke-dasharray:none"
       sodipodi:type="arc" />
    <path
       transform="matrix(0.59579537,0,0,0.59503494,-1191.3044,70.03002)"
       d="m -992.12605,653.74011 c 0,4.89229 -3.96598,8.85827 -8.85825,8.85827 -4.8923,0 -8.8583,-3.96598 -8.8583,-8.85827 0,-4.89228 3.966,-8.85827 8.8583,-8.85827 4.89227,0 8.85825,3.96599 8.85825,8.85827 z"
       sodipodi:ry="8.8582678"
       sodipodi:rx="8.8582678"
       sodipodi:cy="653.74011"
       sodipodi:cx="-1000.9843"
       id="path3078"
       style="fill:none;stroke:#000000;stroke-width:0.83975038;stroke-miterlimit:4;stroke-opacity:1;stroke-dasharray:none"
       sodipodi:type="arc" />
    <path
       sodipodi:type="arc"
       style="fill:none;stroke:#000000;stroke-width:0.83975038;stroke-miterlimit:4;stroke-opacity:1;stroke-dasharray:none"
       id="path3082"
       sodipodi:cx="-1000.9843"
       sodipodi:cy="653.74011"
       sodipodi:rx="8.8582678"
       sodipodi:ry="8.8582678"
       d="m -992.12605,653.74011 c 0,4.89229 -3.96598,8.85827 -8.85825,8.85827 -4.8923,0 -8.8583,-3.96598 -8.8583,-8.85827 0,-4.89228 3.966,-8.85827 8.8583,-8.85827 4.89227,0 8.85825,3.96599 8.85825,8.85827 z"
       transform="matrix(0.59579537,0,0,0.59503494,-610.92433,70.03002)" />
    <path
       sodipodi:type="arc"
       style="fill:none;stroke:#000000;stroke-width:0.83975038;stroke-miterlimit:4;stroke-opacity:1;stroke-dasharray:none"
       id="path3092"
       sodipodi:cx="-1000.9843"
       sodipodi:cy="653.74011"
       sodipodi:rx="8.8582678"
       sodipodi:ry="8.8582678"
       d="m -992.12605,653.74011 c 0,4.89229 -3.96598,8.85827 -8.85825,8.85827 -4.8923,0 -8.8583,-3.96598 -8.8583,-8.85827 0,-4.89228 3.966,-8.85827 8.8583,-8.85827 4.89227,0 8.85825,3.96599 8.85825,8.85827 z"
       transform="matrix(0.59579537,0,0,0.59503494,-1191.3044,-219.96998)" />
    <path
       sodipodi:type="arc"
       style="fill:none;stroke:#000000;stroke-width:0.83975038;stroke-miterlimit:4;stroke-opacity:1;stroke-dasharray:none"
       id="path3094"
       sodipodi:cx="-1000.9843"
       sodipodi:cy="653.74011"
       sodipodi:rx="8.8582678"
       sodipodi:ry="8.8582678"
       d="m -992.12605,653.74011 c 0,4.89229 -3.96598,8.85827 -8.85825,8.85827 -4.8923,0 -8.8583,-3.96598 -8.8583,-8.85827 0,-4.89228 3.966,-8.85827 8.8583,-8.85827 4.89227,0 8.85825,3.96599 8.85825,8.85827 z"
       transform="matrix(0.59579537,0,0,0.59503494,-900.22295,-219.96998)" />
    <path
       transform="matrix(0.59579537,0,0,0.59503494,-610.92433,-219.96998)"
       d="m -992.12605,653.74011 c 0,4.89229 -3.96598,8.85827 -8.85825,8.85827 -4.8923,0 -8.8583,-3.96598 -8.8583,-8.85827 0,-4.89228 3.966,-8.85827 8.8583,-8.85827 4.89227,0 8.85825,3.96599 8.85825,8.85827 z"
       sodipodi:ry="8.8582678"
       sodipodi:rx="8.8582678"
       sodipodi:cy="653.74011"
       sodipodi:cx="-1000.9843"
       id="path3096"
       style="fill:none;stroke:#000000;stroke-width:0.83975038;stroke-miterlimit:4;stroke-opacity:1;stroke-dasharray:none"
       sodipodi:type="arc" />
    <path
       sodipodi:type="arc"
       style="fill:none;stroke:#000000;stroke-width:0.5;stroke-miterlimit:4;stroke-opacity:1;stroke-dasharray:none"
       id="path3870"
       sodipodi:cx="-1603.3464"
       sodipodi:cy="308.2677"
       sodipodi:rx="44.29134"
       sodipodi:ry="35.433071"
       d="m -1559.0551,308.2677 c 0,19.56915 -19.8299,35.43307 -44.2913,35.43307 -24.4615,0 -44.2914,-15.86392 -44.2914,-35.43307 0,-19.56914 19.8299,-35.43307 44.2914,-35.43307 24.4614,0 44.2913,15.86393 44.2913,35.43307 z"
       transform="matrix(0.83473225,0,0,1.0434153,-325.45101,-31.10007)" />
    <path
       sodipodi:type="arc"
       style="fill:none;stroke:#000000;stroke-width:0.83975041;stroke-miterlimit:4;stroke-opacity:1;stroke-dasharray:none"
       id="path3092-1"
       sodipodi:cx="-1000.9843"
       sodipodi:cy="653.74011"
       sodipodi:rx="8.8582678"
       sodipodi:ry="8.8582678"
       d="m -992.12605,653.74011 c 0,4.89229 -3.96598,8.85827 -8.85825,8.85827 -4.8923,0 -8.8583,-3.96598 -8.8583,-8.85827 0,-4.89228 3.966,-8.85827 8.8583,-8.85827 4.89227,0 8.85825,3.96599 8.85825,8.85827 z"
       transform="matrix(0.59579537,0,0,0.59503494,-1107.906,-138.93087)" />
    <path
       transform="matrix(0.59579537,0,0,0.59503494,-1026.4291,-139.07657)"
       d="m -992.12605,653.74011 c 0,4.89229 -3.96598,8.85827 -8.85825,8.85827 -4.8923,0 -8.8583,-3.96598 -8.8583,-8.85827 0,-4.89228 3.966,-8.85827 8.8583,-8.85827 4.89227,0 8.85825,3.96599 8.85825,8.85827 z"
       sodipodi:ry="8.8582678"
       sodipodi:rx="8.8582678"
       sodipodi:cy="653.74011"
       sodipodi:cx="-1000.9843"
       id="path3896"
       style="fill:none;stroke:#000000;stroke-width:0.83975041;stroke-miterlimit:4;stroke-opacity:1;stroke-dasharray:none"
       sodipodi:type="arc" />
    <path
       transform="matrix(0.59579537,0,0,0.59503494,-1108.1178,-57.89107)"
       d="m -992.12605,653.74011 c 0,4.89229 -3.96598,8.85827 -8.85825,8.85827 -4.8923,0 -8.8583,-3.96598 -8.8583,-8.85827 0,-4.89228 3.966,-8.85827 8.8583,-8.85827 4.89227,0 8.85825,3.96599 8.85825,8.85827 z"
       sodipodi:ry="8.8582678"
       sodipodi:rx="8.8582678"
       sodipodi:cy="653.74011"
       sodipodi:cx="-1000.9843"
       id="path3898"
       style="fill:none;stroke:#000000;stroke-width:0.83975041;stroke-miterlimit:4;stroke-opacity:1;stroke-dasharray:none"
       sodipodi:type="arc" />
    <path
       sodipodi:type="arc"
       style="fill:none;stroke:#000000;stroke-width:0.83975041;stroke-miterlimit:4;stroke-opacity:1;stroke-dasharray:none"
       id="path3900"
       sodipodi:cx="-1000.9843"
       sodipodi:cy="653.74011"
       sodipodi:rx="8.8582678"
       sodipodi:ry="8.8582678"
       d="m -992.12605,653.74011 c 0,4.89229 -3.96598,8.85827 -8.85825,8.85827 -4.8923,0 -8.8583,-3.96598 -8.8583,-8.85827 0,-4.89228 3.966,-8.85827 8.8583,-8.85827 4.89227,0 8.85825,3.96599 8.85825,8.85827 z"
       transform="matrix(0.59579537,0,0,0.59503494,-1026.5748,-57.59967)" />
    <rect
       style="fill:none;stroke:#000000;stroke-width:0.52800065;stroke-miterlimit:4;stroke-opacity:1;stroke-dasharray:none"
       id="rect3909"
       width="1084.224"
       height="612.46411"
       x="-3135.8267"
       y="-471.25986" />
    <rect
       y="288.74014"
       x="-3135.8267"
       height="612.46411"
       width="1084.224"
       id="rect4147"
       style="fill:none;stroke:#000000;stroke-width:0.52800065;stroke-miterlimit:4;stroke-opacity:1;stroke-dasharray:none" />
    <rect
       style="fill:none;stroke:#000000;stroke-width:0.49977249;stroke-miterlimit:4;stroke-opacity:1;stroke-dasharray:none"
       id="rect3909-7"
       width="1084.2522"
       height="548.71283"
       x="-3153.5432"
       y="1087.7953" />
    <path
       sodipodi:type="arc"
       style="fill:none;stroke:#000000;stroke-width:0.83975041;stroke-miterlimit:4;stroke-opacity:1;stroke-dasharray:none"
       id="path3092-1-9"
       sodipodi:cx="-1000.9843"
       sodipodi:cy="653.74011"
       sodipodi:rx="8.8582678"
       sodipodi:ry="8.8582678"
       d="m -992.12605,653.74011 c 0,4.89229 -3.96598,8.85827 -8.85825,8.85827 -4.8923,0 -8.8583,-3.96598 -8.8583,-8.85827 0,-4.89228 3.966,-8.85827 8.8583,-8.85827 4.89227,0 8.85825,3.96599 8.85825,8.85827 z"
       transform="matrix(0.59579537,0,0,0.59503494,-1726.4163,-554.44731)" />
    <path
       transform="matrix(0.59579537,0,0,0.59503494,-2268.2492,-553.60471)"
       d="m -992.12605,653.74011 c 0,4.89229 -3.96598,8.85827 -8.85825,8.85827 -4.8923,0 -8.8583,-3.96598 -8.8583,-8.85827 0,-4.89228 3.966,-8.85827 8.8583,-8.85827 4.89227,0 8.85825,3.96599 8.85825,8.85827 z"
       sodipodi:ry="8.8582678"
       sodipodi:rx="8.8582678"
       sodipodi:cy="653.74011"
       sodipodi:cx="-1000.9843"
       id="path4265"
       style="fill:none;stroke:#000000;stroke-width:0.83975041;stroke-miterlimit:4;stroke-opacity:1;stroke-dasharray:none"
       sodipodi:type="arc" />
    <path
       transform="matrix(0.59579537,0,0,0.59503494,-2550.1672,-230.46279)"
       d="m -992.12605,653.74011 c 0,4.89229 -3.96598,8.85827 -8.85825,8.85827 -4.8923,0 -8.8583,-3.96598 -8.8583,-8.85827 0,-4.89228 3.966,-8.85827 8.8583,-8.85827 4.89227,0 8.85825,3.96599 8.85825,8.85827 z"
       sodipodi:ry="8.8582678"
       sodipodi:rx="8.8582678"
       sodipodi:cy="653.74011"
       sodipodi:cx="-1000.9843"
       id="path4265-2"
       style="fill:none;stroke:#000000;stroke-width:0.83975041;stroke-miterlimit:4;stroke-opacity:1;stroke-dasharray:none"
       sodipodi:type="arc" />
    <text
       xml:space="preserve"
       style="font-size:40px;font-style:normal;font-weight:normal;line-height:125%;letter-spacing:0px;word-spacing:0px;fill:#000000;fill-opacity:1;stroke:none;font-family:Sans"
       x="-3153.5432"
       y="1743.307"
       id="text3131"
       sodipodi:linespacing="125%"><tspan
         sodipodi:role="line"
         id="tspan3133"
         x="-3153.5432"
         y="1743.307">Shelf:</tspan></text>
    <text
       xml:space="preserve"
       style="font-size:40px;font-style:normal;font-weight:normal;line-height:125%;letter-spacing:0px;word-spacing:0px;fill:#000000;fill-opacity:1;stroke:none;font-family:Sans"
       x="-3150.6646"
       y="1057.1782"
       id="text3135"
       sodipodi:linespacing="125%"
       transform="translate(0,2.5390623e-6)"><tspan
         sodipodi:role="line"
         id="tspan3137"
         x="-3150.6646"
         y="1057.1782">Sides (cut x2)</tspan></text>
    <text
       xml:space="preserve"
       style="font-size:40px;font-style:normal;font-weight:normal;line-height:125%;letter-spacing:0px;word-spacing:0px;fill:#000000;fill-opacity:1;stroke:none;font-family:Sans"
       x="-3135.2532"
       y="260.60242"
       id="text3139"
       sodipodi:linespacing="125%"
       transform="translate(0,2.5390623e-6)"><tspan
         sodipodi:role="line"
         id="tspan3141"
         x="-3135.2532"
         y="260.60242">Bottom:</tspan></text>
    <text
       xml:space="preserve"
       style="font-size:40px;font-style:normal;font-weight:normal;line-height:125%;letter-spacing:0px;word-spacing:0px;fill:#000000;fill-opacity:1;stroke:none;font-family:Sans"
       x="-3135.2532"
       y="-496.48175"
       id="text3143"
       sodipodi:linespacing="125%"
       transform="translate(0,2.5390623e-6)"><tspan
         sodipodi:role="line"
         id="tspan3145"
         x="-3135.2532"
         y="-496.48175">Top:</tspan></text>
    <text
       xml:space="preserve"
       style="font-size:40px;font-style:normal;font-weight:normal;line-height:125%;letter-spacing:0px;word-spacing:0px;fill:#000000;fill-opacity:1;stroke:none;font-family:Sans"
       x="-1806.0214"
       y="101.67254"
       id="text3147"
       sodipodi:linespacing="125%"
       transform="translate(0,2.5390623e-6)"><tspan
         sodipodi:role="line"
         id="tspan3149"
         x="-1806.0214"
         y="101.67254">Front with connector:</tspan></text>
    <text
       xml:space="preserve"
       style="font-size:40px;font-style:normal;font-weight:normal;line-height:125%;letter-spacing:0px;word-spacing:0px;fill:#000000;fill-opacity:1;stroke:none;font-family:Sans"
       x="-1095.1714"
       y="81.445099"
       id="text3151"
       sodipodi:linespacing="125%"
       transform="translate(0,2.5390623e-6)"><tspan
         sodipodi:role="line"
         id="tspan3153"
         x="-1095.1714"
         y="81.445099">Front/back flanging:</tspan></text>
    <path
       style="fill:none;stroke:#000000;stroke-width:1.11184323px;stroke-linecap:butt;stroke-linejoin:miter;stroke-opacity:1"
       d="m -3135.8268,1796.4567 1061.8795,0 0,450 -91.0133,0 0,98.1 -205.5118,0 0,-98.1 -141.7323,0 0,98.1 -205.5118,0 0,-98.1 -141.7323,0 0,98.1 -205.5118,0 0,-98.1 -70.8662,0 z"
       id="path3116"
       inkscape:connector-curvature="0"
       sodipodi:nodetypes="ccccccccccccccccc" />
  </g>
</svg>
