<?xml version="1.0" encoding="UTF-8" standalone="no"?>
<svg
   xmlns:dc="http://purl.org/dc/elements/1.1/"
   xmlns:cc="http://creativecommons.org/ns#"
   xmlns:rdf="http://www.w3.org/1999/02/22-rdf-syntax-ns#"
   xmlns:svg="http://www.w3.org/2000/svg"
   xmlns="http://www.w3.org/2000/svg"
   xmlns:sodipodi="http://sodipodi.sourceforge.net/DTD/sodipodi-0.dtd"
   xmlns:inkscape="http://www.inkscape.org/namespaces/inkscape"
   height="100%"
   version="1.1"
   width="100%"
   id="svg7338"
   inkscape:version="0.47 r22583"
   sodipodi:docname="box.svg">
  <metadata
     id="metadata8006">
    <rdf:RDF>
      <cc:Work
         rdf:about="">
        <dc:format>image/svg+xml</dc:format>
        <dc:type
           rdf:resource="http://purl.org/dc/dcmitype/StillImage" />
        <dc:title />
      </cc:Work>
    </rdf:RDF>
  </metadata>
  <sodipodi:namedview
     pagecolor="#ffffff"
     bordercolor="#666666"
     borderopacity="1"
     objecttolerance="10"
     gridtolerance="10"
     guidetolerance="10"
     inkscape:pageopacity="0"
     inkscape:pageshadow="2"
     inkscape:window-width="1600"
     inkscape:window-height="1125"
     id="namedview8004"
     showgrid="true"
     inkscape:zoom="2.0635583"
     inkscape:cx="732.62191"
     inkscape:cy="578.26912"
     inkscape:window-x="0"
     inkscape:window-y="25"
     inkscape:window-maximized="1"
     inkscape:current-layer="svg7338">
    <inkscape:grid
       type="xygrid"
       id="grid2980"
       empspacing="5"
       visible="true"
       enabled="true"
       snapvisiblegridlinesonly="true"
       units="mm"
       spacingx="1mm"
       spacingy="1mm" />
  </sodipodi:namedview>
  <defs
     id="defs7340">
    <inkscape:perspective
       sodipodi:type="inkscape:persp3d"
       inkscape:vp_x="2352.264 : 388.9744 : 1"
       inkscape:vp_y="1095.8745 : -1.8369096e-13 : 0"
       inkscape:vp_z="2352.264 : 387.9744 : 1"
       inkscape:persp3d-origin="2352.0814 : 388.4744 : 1"
       id="perspective8008" />
    <inkscape:perspective
       id="perspective8422"
       inkscape:persp3d-origin="0.5 : 0.33333333 : 1"
       inkscape:vp_z="1 : 0.5 : 1"
       inkscape:vp_y="0 : 1000 : 0"
       inkscape:vp_x="0 : 0.5 : 1"
       sodipodi:type="inkscape:persp3d" />
    <inkscape:perspective
       id="perspective3090"
       inkscape:persp3d-origin="0.5 : 0.33333333 : 1"
       inkscape:vp_z="1 : 0.5 : 1"
       inkscape:vp_y="0 : 1000 : 0"
       inkscape:vp_x="0 : 0.5 : 1"
       sodipodi:type="inkscape:persp3d" />
    <inkscape:perspective
       id="perspective3130"
       inkscape:persp3d-origin="0.5 : 0.33333333 : 1"
       inkscape:vp_z="1 : 0.5 : 1"
       inkscape:vp_y="0 : 1000 : 0"
       inkscape:vp_x="0 : 0.5 : 1"
       sodipodi:type="inkscape:persp3d" />
    <inkscape:perspective
       id="perspective3514"
       inkscape:persp3d-origin="0.5 : 0.33333333 : 1"
       inkscape:vp_z="1 : 0.5 : 1"
       inkscape:vp_y="0 : 1000 : 0"
       inkscape:vp_x="0 : 0.5 : 1"
       sodipodi:type="inkscape:persp3d" />
    <inkscape:perspective
       id="perspective3273"
       inkscape:persp3d-origin="0.5 : 0.33333333 : 1"
       inkscape:vp_z="1 : 0.5 : 1"
       inkscape:vp_y="0 : 1000 : 0"
       inkscape:vp_x="0 : 0.5 : 1"
       sodipodi:type="inkscape:persp3d" />
    <inkscape:perspective
       id="perspective3428"
       inkscape:persp3d-origin="0.5 : 0.33333333 : 1"
       inkscape:vp_z="1 : 0.5 : 1"
       inkscape:vp_y="0 : 1000 : 0"
       inkscape:vp_x="0 : 0.5 : 1"
       sodipodi:type="inkscape:persp3d" />
  </defs>
  <path
     id="rect7373"
     style="fill:none;stroke:#000000;stroke-width:0.1mm"
     d="m 8.8582678,512.00787 17.7165352,0 0,24.80315 -17.7165352,0 0,-24.80315 z m 0,-56.69293 17.7165352,0 0,24.80315 -17.7165352,0 0,-24.80315 z m 14.1732282,40.74805 c 0,2.93537 -2.379589,5.31496 -5.31496,5.31496 -2.935372,0 -5.314961,-2.37959 -5.314961,-5.31496 0,-2.93537 2.379589,-5.31496 5.314961,-5.31496 2.935371,0 5.31496,2.37959 5.31496,5.31496 z M 0,318.89763 0,615.22833 m 122.24409,-26.57483 24.80315,0 0,17.71654 -24.80315,0 0,-17.71654 z m -56.692912,0 24.803148,0 0,17.71654 -24.803148,0 0,-17.71654 z m 46.062992,8.85828 c 0,2.93537 -2.37959,5.31496 -5.31496,5.31496 -2.93537,0 -5.31496,-2.37959 -5.31496,-5.31496 0,-2.93537 2.37959,-5.31496 5.31496,-5.31496 2.93537,0 5.31496,2.37959 5.31496,5.31496 z M 0,615.22833 l 212.59842,0 m -26.5748,-103.22046 17.71654,0 0,24.80315 -17.71654,0 0,-24.80315 z m 0,-56.69293 17.71654,0 0,24.80315 -17.71654,0 0,-24.80315 z m 14.17322,40.74805 c 0,2.93537 -2.37959,5.31496 -5.31496,5.31496 -2.93537,0 -5.31496,-2.37959 -5.31496,-5.31496 0,-2.93537 2.37959,-5.31496 5.31496,-5.31496 2.93537,0 5.31496,2.37959 5.31496,5.31496 z m 12.40158,-177.16536 0,296.3307 m -90.35433,-287.47244 24.80315,0 0,17.71654 -24.80315,0 0,-17.71654 z m -56.692912,0 24.803148,0 0,17.71654 -24.803148,0 0,-17.71654 z m 46.062992,8.85828 c 0,2.93537 -2.37959,5.31496 -5.31496,5.31496 -2.93537,0 -5.31496,-2.37959 -5.31496,-5.31496 0,-2.93538 2.37959,-5.31496 5.31496,-5.31496 2.93537,0 5.31496,2.37958 5.31496,5.31496 z M 0,318.89763 l 212.59842,0" />
  <path
     style="opacity:1;fill:none;fill-opacity:1;stroke:#000000;stroke-width:0.55400000000000005;stroke-miterlimit:4;stroke-opacity:1;stroke-dasharray:none"
     d="M 371.96875 318.78125 L 371.96875 358.09375 L 442.625 358.09375 L 442.625 367.84375 L 371.96875 367.84375 L 371.96875 378.09375 L 442.625 378.09375 L 442.625 387.84375 L 371.96875 387.84375 L 371.96875 398.09375 L 442.625 398.09375 L 442.625 407.84375 L 371.96875 407.84375 L 371.96875 418.09375 L 442.625 418.09375 L 442.625 427.84375 L 371.96875 427.84375 L 371.96875 438.09375 L 442.625 438.09375 L 442.625 447.84375 L 371.96875 447.84375 L 371.96875 458.09375 L 442.625 458.09375 L 442.625 467.84375 L 371.96875 467.84375 L 371.96875 478.09375 L 442.625 478.09375 L 442.625 487.84375 L 371.96875 487.84375 L 371.96875 498.09375 L 442.625 498.09375 L 442.625 507.84375 L 371.96875 507.84375 L 371.96875 615.34375 L 459.84375 615.34375 L 459.84375 318.78125 L 371.96875 318.78125 z M 402.15625 327.75 L 426.96875 327.75 L 426.96875 345.46875 L 402.15625 345.46875 L 402.15625 327.75 z M 442.375 331.3125 C 442.55367 331.29435 442.72279 331.3125 442.90625 331.3125 C 445.84162 331.3125 448.21875 333.68962 448.21875 336.625 C 448.21875 339.56037 445.84162 341.9375 442.90625 341.9375 C 439.97088 341.9375 437.59375 339.56037 437.59375 336.625 C 437.59375 333.87308 439.6949 331.58468 442.375 331.3125 z M 402.15625 588.65625 L 426.96875 588.65625 L 426.96875 606.375 L 402.15625 606.375 L 402.15625 588.65625 z M 442.90625 592.1875 C 445.84162 592.1875 448.21875 594.56463 448.21875 597.5 C 448.21875 600.43537 445.84162 602.8125 442.90625 602.8125 C 439.97088 602.8125 437.59375 600.43537 437.59375 597.5 C 437.59375 594.56463 439.97088 592.1875 442.90625 592.1875 z "
     id="rect3600" />
  <path
     style="fill:none;stroke:#000000;stroke-width:0.10000000000000001mm"
     d="m 1045.2812,318.90625 0,39.1875 70,0 0,9.75 -70,0 0,10.25 70,0 0,9.75 -70,0 0,10.25 70,0 0,9.75 -70,0 0,10.25 70,0 0,9.75 -70,0 0,10.25 70,0 0,9.75 -70,0 0,10.25 70,0 0,9.75 -70,0 0,10.25 70,0 0,9.75 -70,0 0,10.25 70,0 0,9.75 -70,0 0,107.375 131.2387,0 0,-83.71875 8.7587,0 0,-14.1875 -8.7587,0 0,-15.9375 -19.4688,0 0,4.78125 -15.9687,0 0,-4.78125 -8.8437,0 0,-10.625 8.8437,0 0,-4.78125 15.9687,0 0,4.78125 19.4688,0 0,-15.9375 8.7587,0 0,-14.1875 -8.7587,0 0,-141.71875 -131.2387,0 z m 30.125,8.84375 24.7813,0 0,17.71875 -24.7813,0 0,-17.71875 z m 56.6876,0 24.7812,0 0,17.71875 -24.7812,0 0,-17.71875 z m -16.5,3.5625 c 0.1784,-0.0181 0.3797,0 0.5624,0 2.9357,0 5.3126,2.37712 5.3126,5.3125 0,2.93537 -2.3769,5.3125 -5.3126,5.3125 -2.9346,0 -5.3437,-2.37713 -5.3437,-5.3125 0,-2.75192 2.101,-5.04032 4.7813,-5.3125 z m -40.1876,257.34375 24.7813,0 0,17.71875 -24.7813,0 0,-17.71875 z m 56.6876,0 24.7812,0 0,17.71875 -24.7812,0 0,-17.71875 z m -15.9376,3.53125 c 2.9357,0 5.3126,2.37713 5.3126,5.3125 0,2.93537 -2.3769,5.3125 -5.3126,5.3125 -2.9346,0 -5.3437,-2.37713 -5.3437,-5.3125 0,-2.93537 2.4091,-5.3125 5.3437,-5.3125 z"
     id="polyline7605"
     sodipodi:nodetypes="ccccccccccccccccccccccccccccccccccccccccccccccccccccccccccccccccccccssssccccccccccccsssc" />
  <polyline
     style="fill:none;stroke:#000000;stroke-width:0.1mm"
     id="polyline7775"
     points="699.8031325,832.677145 744.09447,832.677145" />
  <polyline
     style="fill:none;stroke:#000000;stroke-width:0.1mm"
     id="polyline7777"
     points="744.09447,832.677145 744.09447,814.96061" />
  <polyline
     style="fill:none;stroke:#000000;stroke-width:0.1mm"
     id="polyline7779"
     points="744.09447,814.96061 758.267698,814.96061" />
  <polyline
     style="fill:none;stroke:#000000;stroke-width:0.1mm"
     id="polyline7781"
     points="758.267698,832.677145 758.267698,814.96061" />
  <polyline
     style="fill:none;stroke:#000000;stroke-width:0.1mm"
     id="polyline7783"
     points="800.787382,832.677145 800.787382,814.96061" />
  <polyline
     style="fill:none;stroke:#000000;stroke-width:0.1mm"
     id="polyline7785"
     points="800.787382,814.96061 814.96061,814.96061" />
  <polyline
     style="fill:none;stroke:#000000;stroke-width:0.1mm"
     id="polyline7787"
     points="814.96061,832.677145 814.96061,814.96061" />
  <polyline
     style="fill:none;stroke:#000000;stroke-width:0.1mm"
     id="polyline7789"
     points="758.267698,832.677145 774.2125795,832.677145" />
  <polyline
     style="fill:none;stroke:#000000;stroke-width:0.1mm"
     id="polyline7791"
     points="774.2125795,832.677145 774.2125795,852.1653335" />
  <polyline
     style="fill:none;stroke:#000000;stroke-width:0.1mm"
     id="polyline7793"
     points="774.2125795,852.1653335 769.42911505,852.1653335" />
  <polyline
     style="fill:none;stroke:#000000;stroke-width:0.1mm"
     id="polyline7795"
     points="769.42911505,852.1653335 769.42911505,868.110215" />
  <polyline
     style="fill:none;stroke:#000000;stroke-width:0.1mm"
     id="polyline7797"
     points="769.42911505,868.110215 774.2125795,868.110215" />
  <polyline
     style="fill:none;stroke:#000000;stroke-width:0.1mm"
     id="polyline7799"
     points="774.2125795,868.110215 774.2125795,876.9684825" />
  <polyline
     style="fill:none;stroke:#000000;stroke-width:0.1mm"
     id="polyline7801"
     points="784.8425005,876.9684825 774.2125795,876.9684825" />
  <polyline
     style="fill:none;stroke:#000000;stroke-width:0.1mm"
     id="polyline7803"
     points="784.8425005,868.110215 784.8425005,876.9684825" />
  <polyline
     style="fill:none;stroke:#000000;stroke-width:0.1mm"
     id="polyline7805"
     points="789.62596495,868.110215 784.8425005,868.110215" />
  <polyline
     style="fill:none;stroke:#000000;stroke-width:0.1mm"
     id="polyline7807"
     points="789.62596495,852.1653335 789.62596495,868.110215" />
  <polyline
     style="fill:none;stroke:#000000;stroke-width:0.1mm"
     id="polyline7809"
     points="784.8425005,852.1653335 789.62596495,852.1653335" />
  <polyline
     style="fill:none;stroke:#000000;stroke-width:0.1mm"
     id="polyline7811"
     points="784.8425005,852.1653335 784.8425005,832.677145" />
  <polyline
     style="fill:none;stroke:#000000;stroke-width:0.1mm"
     id="polyline7813"
     points="784.8425005,832.677145 800.787382,832.677145" />
  <polyline
     style="fill:none;stroke:#000000;stroke-width:0.1mm"
     id="polyline7815"
     points="814.96061,832.677145 859.2519475,832.677145" />
  <polyline
     style="fill:none;stroke:#000000;stroke-width:0.1mm"
     id="polyline7817"
     points="859.2519475,832.677145 859.2519475,868.110215" />
  <polyline
     style="fill:none;stroke:#000000;stroke-width:0.1mm"
     id="polyline7819"
     points="859.2519475,868.110215 876.9684825,868.110215" />
  <polyline
     style="fill:none;stroke:#000000;stroke-width:0.1mm"
     id="polyline7821"
     points="876.9684825,868.110215 876.9684825,882.283443" />
  <polyline
     style="fill:none;stroke:#000000;stroke-width:0.1mm"
     id="polyline7823"
     points="859.2519475,882.283443 876.9684825,882.283443" />
  <polyline
     style="fill:none;stroke:#000000;stroke-width:0.1mm"
     id="polyline7825"
     points="859.2519475,938.976355 876.9684825,938.976355" />
  <polyline
     style="fill:none;stroke:#000000;stroke-width:0.1mm"
     id="polyline7827"
     points="876.9684825,938.976355 876.9684825,924.803127" />
  <polyline
     style="fill:none;stroke:#000000;stroke-width:0.1mm"
     id="polyline7829"
     points="859.2519475,924.803127 876.9684825,924.803127" />
  <polyline
     style="fill:none;stroke:#000000;stroke-width:0.1mm"
     id="polyline7831"
     points="859.2519475,882.283443 859.2519475,898.2283245" />
  <polyline
     style="fill:none;stroke:#000000;stroke-width:0.1mm"
     id="polyline7833"
     points="859.2519475,898.2283245 839.763759,898.2283245" />
  <polyline
     style="fill:none;stroke:#000000;stroke-width:0.1mm"
     id="polyline7835"
     points="839.763759,898.2283245 839.763759,893.44486005" />
  <polyline
     style="fill:none;stroke:#000000;stroke-width:0.1mm"
     id="polyline7837"
     points="839.763759,893.44486005 823.8188775,893.44486005" />
  <polyline
     style="fill:none;stroke:#000000;stroke-width:0.1mm"
     id="polyline7839"
     points="823.8188775,893.44486005 823.8188775,898.2283245" />
  <polyline
     style="fill:none;stroke:#000000;stroke-width:0.1mm"
     id="polyline7841"
     points="823.8188775,898.2283245 814.96061,898.2283245" />
  <polyline
     style="fill:none;stroke:#000000;stroke-width:0.1mm"
     id="polyline7843"
     points="814.96061,898.2283245 814.96061,908.8582455" />
  <polyline
     style="fill:none;stroke:#000000;stroke-width:0.1mm"
     id="polyline7845"
     points="839.763759,908.8582455 839.763759,913.64170995" />
  <polyline
     style="fill:none;stroke:#000000;stroke-width:0.1mm"
     id="polyline7847"
     points="839.763759,913.64170995 823.8188775,913.64170995" />
  <polyline
     style="fill:none;stroke:#000000;stroke-width:0.1mm"
     id="polyline7849"
     points="823.8188775,913.64170995 823.8188775,908.8582455" />
  <polyline
     style="fill:none;stroke:#000000;stroke-width:0.1mm"
     id="polyline7851"
     points="823.8188775,908.8582455 814.96061,908.8582455" />
  <polyline
     style="fill:none;stroke:#000000;stroke-width:0.1mm"
     id="polyline7853"
     points="839.763759,908.8582455 859.2519475,908.8582455" />
  <polyline
     style="fill:none;stroke:#000000;stroke-width:0.1mm"
     id="polyline7855"
     points="859.2519475,908.8582455 859.2519475,924.803127" />
  <polyline
     style="fill:none;stroke:#000000;stroke-width:0.1mm"
     id="polyline7857"
     points="859.2519475,938.976355 859.2519475,974.409425" />
  <polyline
     style="fill:none;stroke:#000000;stroke-width:0.1mm"
     id="polyline7859"
     points="699.8031325,974.409425 744.09447,974.409425" />
  <polyline
     style="fill:none;stroke:#000000;stroke-width:0.1mm"
     id="polyline7861"
     points="744.09447,974.409425 744.09447,992.12596" />
  <polyline
     style="fill:none;stroke:#000000;stroke-width:0.1mm"
     id="polyline7863"
     points="744.09447,992.12596 758.267698,992.12596" />
  <polyline
     style="fill:none;stroke:#000000;stroke-width:0.1mm"
     id="polyline7865"
     points="758.267698,974.409425 758.267698,992.12596" />
  <polyline
     style="fill:none;stroke:#000000;stroke-width:0.1mm"
     id="polyline7867"
     points="800.787382,974.409425 800.787382,992.12596" />
  <polyline
     style="fill:none;stroke:#000000;stroke-width:0.1mm"
     id="polyline7869"
     points="800.787382,992.12596 814.96061,992.12596" />
  <polyline
     style="fill:none;stroke:#000000;stroke-width:0.1mm"
     id="polyline7871"
     points="814.96061,974.409425 814.96061,992.12596" />
  <polyline
     style="fill:none;stroke:#000000;stroke-width:0.1mm"
     id="polyline7873"
     points="758.267698,974.409425 774.2125795,974.409425" />
  <polyline
     style="fill:none;stroke:#000000;stroke-width:0.1mm"
     id="polyline7875"
     points="774.2125795,974.409425 774.2125795,954.9212365" />
  <polyline
     style="fill:none;stroke:#000000;stroke-width:0.1mm"
     id="polyline7877"
     points="774.2125795,954.9212365 769.42911505,954.9212365" />
  <polyline
     style="fill:none;stroke:#000000;stroke-width:0.1mm"
     id="polyline7879"
     points="769.42911505,954.9212365 769.42911505,938.976355" />
  <polyline
     style="fill:none;stroke:#000000;stroke-width:0.1mm"
     id="polyline7881"
     points="769.42911505,938.976355 774.2125795,938.976355" />
  <polyline
     style="fill:none;stroke:#000000;stroke-width:0.1mm"
     id="polyline7883"
     points="774.2125795,938.976355 774.2125795,930.1180875" />
  <polyline
     style="fill:none;stroke:#000000;stroke-width:0.1mm"
     id="polyline7885"
     points="784.8425005,930.1180875 774.2125795,930.1180875" />
  <polyline
     style="fill:none;stroke:#000000;stroke-width:0.1mm"
     id="polyline7887"
     points="784.8425005,938.976355 784.8425005,930.1180875" />
  <polyline
     style="fill:none;stroke:#000000;stroke-width:0.1mm"
     id="polyline7889"
     points="789.62596495,938.976355 784.8425005,938.976355" />
  <polyline
     style="fill:none;stroke:#000000;stroke-width:0.1mm"
     id="polyline7891"
     points="789.62596495,954.9212365 789.62596495,938.976355" />
  <polyline
     style="fill:none;stroke:#000000;stroke-width:0.1mm"
     id="polyline7893"
     points="784.8425005,954.9212365 789.62596495,954.9212365" />
  <polyline
     style="fill:none;stroke:#000000;stroke-width:0.1mm"
     id="polyline7895"
     points="784.8425005,954.9212365 784.8425005,974.409425" />
  <polyline
     style="fill:none;stroke:#000000;stroke-width:0.1mm"
     id="polyline7897"
     points="784.8425005,974.409425 800.787382,974.409425" />
  <polyline
     style="fill:none;stroke:#000000;stroke-width:0.1mm"
     id="polyline7899"
     points="814.96061,974.409425 859.2519475,974.409425" />
  <polyline
     style="fill:none;stroke:#000000;stroke-width:0.1mm"
     id="polyline7901"
     points="699.8031325,832.677145 699.8031325,868.110215" />
  <polyline
     style="fill:none;stroke:#000000;stroke-width:0.1mm"
     id="polyline7903"
     points="699.8031325,868.110215 682.0865975,868.110215" />
  <polyline
     style="fill:none;stroke:#000000;stroke-width:0.1mm"
     id="polyline7905"
     points="682.0865975,868.110215 682.0865975,882.283443" />
  <polyline
     style="fill:none;stroke:#000000;stroke-width:0.1mm"
     id="polyline7907"
     points="699.8031325,882.283443 682.0865975,882.283443" />
  <polyline
     style="fill:none;stroke:#000000;stroke-width:0.1mm"
     id="polyline7909"
     points="699.8031325,938.976355 682.0865975,938.976355" />
  <polyline
     style="fill:none;stroke:#000000;stroke-width:0.1mm"
     id="polyline7911"
     points="682.0865975,938.976355 682.0865975,924.803127" />
  <polyline
     style="fill:none;stroke:#000000;stroke-width:0.1mm"
     id="polyline7913"
     points="699.8031325,924.803127 682.0865975,924.803127" />
  <polyline
     style="fill:none;stroke:#000000;stroke-width:0.1mm"
     id="polyline7915"
     points="699.8031325,882.283443 699.8031325,898.2283245" />
  <polyline
     style="fill:none;stroke:#000000;stroke-width:0.1mm"
     id="polyline7917"
     points="699.8031325,898.2283245 719.291321,898.2283245" />
  <polyline
     style="fill:none;stroke:#000000;stroke-width:0.1mm"
     id="polyline7919"
     points="719.291321,898.2283245 719.291321,893.44486005" />
  <polyline
     style="fill:none;stroke:#000000;stroke-width:0.1mm"
     id="polyline7921"
     points="719.291321,893.44486005 735.2362025,893.44486005" />
  <polyline
     style="fill:none;stroke:#000000;stroke-width:0.1mm"
     id="polyline7923"
     points="735.2362025,893.44486005 735.2362025,898.2283245" />
  <polyline
     style="fill:none;stroke:#000000;stroke-width:0.1mm"
     id="polyline7925"
     points="735.2362025,898.2283245 744.09447,898.2283245" />
  <polyline
     style="fill:none;stroke:#000000;stroke-width:0.1mm"
     id="polyline7927"
     points="744.09447,898.2283245 744.09447,908.8582455" />
  <polyline
     style="fill:none;stroke:#000000;stroke-width:0.1mm"
     id="polyline7929"
     points="719.291321,908.8582455 719.291321,913.64170995" />
  <polyline
     style="fill:none;stroke:#000000;stroke-width:0.1mm"
     id="polyline7931"
     points="719.291321,913.64170995 735.2362025,913.64170995" />
  <polyline
     style="fill:none;stroke:#000000;stroke-width:0.1mm"
     id="polyline7933"
     points="735.2362025,913.64170995 735.2362025,908.8582455" />
  <polyline
     style="fill:none;stroke:#000000;stroke-width:0.1mm"
     id="polyline7935"
     points="735.2362025,908.8582455 744.09447,908.8582455" />
  <polyline
     style="fill:none;stroke:#000000;stroke-width:0.1mm"
     id="polyline7937"
     points="719.291321,908.8582455 699.8031325,908.8582455" />
  <polyline
     style="fill:none;stroke:#000000;stroke-width:0.1mm"
     id="polyline7939"
     points="699.8031325,908.8582455 699.8031325,924.803127" />
  <polyline
     style="fill:none;stroke:#000000;stroke-width:0.1mm"
     id="polyline7941"
     points="699.8031325,938.976355 699.8031325,974.409425" />
  <polyline
     style="opacity:0.5;stroke:#ff0000"
     id="polyline7994"
     points="673.22833,814.96061 885.82675,814.96061" />
  <polyline
     style="opacity:0.5;stroke:#ff0000"
     id="polyline7996"
     points="885.82675,814.96061 885.82675,992.12596" />
  <polyline
     style="opacity:0.5;stroke:#ff0000"
     id="polyline7998"
     points="673.22833,814.96061 673.22833,992.12596" />
  <polyline
     style="opacity:0.5;stroke:#ff0000"
     id="polyline8000"
     points="673.22833,992.12596 885.82675,992.12596" />
  <text
     style="opacity:0.5;stroke:#ff0000"
     id="text8002"
     y="903.54327"
     x="779.52753">back</text>
  <path
     id="polyline7499"
     style="fill:none;stroke:#000000;stroke-width:0.10000000000000001mm"
     d="m 717.22833,318.89763 0,296.3307 m 0,0 168.59842,0 m 0,-296.3307 0,296.3307 m -168.59842,-296.3307 168.59842,0"
     sodipodi:nodetypes="cccccccc" />
  <path
     style="fill:none;stroke:#000000;stroke-width:0.354;stroke-miterlimit:4;stroke-opacity:1"
     d="M 662.5 166.53125 L 662.5 201.96875 L 668 201.96875 L 668 177.15625 L 676.78125 177.15625 L 676.78125 201.96875 L 797.25 201.96875 L 797.25 166.53125 L 662.5 166.53125 z "
     id="rect2931" />
  <rect
     style="fill:none;stroke:#000000;stroke-width:0.3955363;stroke-miterlimit:4;stroke-opacity:1;stroke-dasharray:none"
     id="rect2951"
     width="8.2913771"
     height="29.096321"
     x="661.27448"
     y="177.1861" />
  <rect
     style="fill:none;stroke:#000000;stroke-width:0.354;stroke-miterlimit:4;stroke-opacity:1;stroke-dasharray:none"
     id="rect2953"
     width="3.5433071"
     height="3.5433071"
     x="659.0343"
     y="205.5118" />
  <rect
     style="fill:none;stroke:#000000;stroke-width:0.36783355;stroke-miterlimit:4;stroke-opacity:1;stroke-dasharray:none"
     id="rect2969"
     width="8.8305655"
     height="29.391088"
     x="667.93414"
     y="177.17224" />
  <text
     xml:space="preserve"
     style="font-size:13px;font-style:normal;font-weight:normal;fill:#000000;fill-opacity:1;stroke:none;font-family:FreeSans;-inkscape-font-specification:FreeSans"
     x="662.59845"
     y="162.99211"
     id="text3027"><tspan
       sodipodi:role="line"
       id="tspan3029"
       x="662.59845"
       y="162.99211">slider adjustment</tspan></text>
  <rect
     style="fill:none;stroke:#000000;stroke-width:0.354;stroke-miterlimit:4;stroke-opacity:1;stroke-dasharray:none"
     id="rect3031"
     width="141.73228"
     height="53.149605"
     x="584.64569"
     y="60.236198" />
  <path
     d="m -356.75593,374.47243 0,-24.80315 17.71654,0 0,24.80315 -17.71654,0 z m 0,56.69291 0,-24.80315 17.71654,0 0,24.80315 -17.71654,0 z m 8.85828,-46.06299 c 2.93537,0 5.31496,2.37959 5.31496,5.31496 0,2.93537 -2.37959,5.31496 -5.31496,5.31496 -2.93537,0 -5.31496,-2.37959 -5.31496,-5.31496 0,-2.93537 2.37959,-5.31496 5.31496,-5.31496 z m -269.75589,-10.62992 0,-24.80315 17.71654,0 0,24.80315 -17.71654,0 z m 0,56.69291 0,-24.80315 17.71654,0 0,24.80315 -17.71654,0 z m 8.85828,-46.06299 c 2.93537,0 5.31496,2.37959 5.31496,5.31496 0,2.93537 -2.37959,5.31496 -5.31496,5.31496 -2.93538,0 -5.31496,-2.37959 -5.31496,-5.31496 0,-2.93537 2.37958,-5.31496 5.31496,-5.31496 z"
     style="fill:none;stroke:#000000;stroke-width:0.1mm"
     id="path3047"
     sodipodi:nodetypes="cccccccccccsssccccccccccccsssc" />
  <path
     sodipodi:nodetypes="cccccccccccsssc"
     id="path3049"
     style="fill:none;stroke:#000000;stroke-width:0.1mm"
     d="m -708.66142,162.14992 -24.80315,0 0,-17.71654 24.80315,0 0,17.71654 z m 56.69291,0 -24.80315,0 0,-17.71654 24.80315,0 0,17.71654 z m -46.06299,-8.85828 c 0,-2.93537 2.37959,-5.31496 5.31496,-5.31496 2.93537,0 5.31496,2.37959 5.31496,5.31496 0,2.93537 -2.37959,5.31496 -5.31496,5.31496 -2.93537,0 -5.31496,-2.37959 -5.31496,-5.31496 z" />
  <path
     d="m -288.66142,162.14992 -24.80315,0 0,-17.71654 24.80315,0 0,17.71654 z m 56.69291,0 -24.80315,0 0,-17.71654 24.80315,0 0,17.71654 z m -46.06299,-8.85828 c 0,-2.93537 2.37959,-5.31496 5.31496,-5.31496 2.93537,0 5.31496,2.37959 5.31496,5.31496 0,2.93537 -2.37959,5.31496 -5.31496,5.31496 -2.93537,0 -5.31496,-2.37959 -5.31496,-5.31496 z"
     style="fill:none;stroke:#000000;stroke-width:0.1mm"
     id="path3080"
     sodipodi:nodetypes="cccccccccccsssc" />
  <path
     style="fill:none;stroke:#000000;stroke-width:0.1mm"
     d="m -732.28125,15.15625 0,57.71875 3.71875,0 0,17.71875 14.1875,0 0,-17.71875 15.9375,0 0,-19.5 -4.78125,0 0,-15.9375 4.78125,0 0,-8.84375 10.625,0 0,8.84375 4.78125,0 0,15.9375 -4.78125,0 0,19.5 15.9375,0 0,17.71875 14.1875,0 0,-17.71875 57.5625,0 0,-38.40625 35.0625,0 0,38.40625 24.9375,0 0,-38.40625 35.0625,0 0,38.40625 24.9375,0 0,-38.40625 35.0625,0 0,38.40625 136.59375,0 0,17.71875 14.15625,0 0,-17.71875 15.96875,0 0,-19.5 -4.8125,0 0,-15.9375 4.8125,0 0,-8.84375 10.625,0 0,8.84375 4.78125,0 0,15.9375 -4.78125,0 0,19.5 15.9375,0 0,17.71875 14.15625,0 0,-17.71875 3.75,0 0,-57.71875 -99.15625,0 -122.9375,0 -54.25,0 -122.90625,0 -99.15625,0 z"
     id="polyline7473-1" />
  <path
     id="path3186"
     style="fill:none;stroke:#000000;stroke-width:0.1mm"
     d="m -527.02711,-140.24623 17.71654,3e-5 0,14.17323 -17.71654,0 0,15.94488 -19.48818,0 0,-4.78346 -15.94489,0 0,4.78346 -8.85826,0 0,10.629918 8.85826,0 0,4.78346 15.94489,0 0,-4.78346 19.48818,0 0,15.94488 17.71654,0 0,14.17323 -17.71654,0 0.0188,44.26507 -194.91865,-0.0263 0,-159.343748 194.91865,-0.0263 -0.0188,44.26511 z m -180.64981,93.198718 15.03125,-15.03125 7.5,7.5 -15.03125,15.03125 -7.5,-7.5 z m 26.25,-57.781248 c 0,-22.09905 17.48405,-40 39.03125,-40 21.5472,0 39,17.90095 39,40 0,22.099048 -17.4528,40.031248 -39,40.031248 -21.5472,0 -39.03125,-17.9322 -39.03125,-40.031248 z m 81.75,-50.21875 15.03125,-15.03125 7.5,7.5 -15.03125,15.03125 -7.5,-7.5 z"
     sodipodi:nodetypes="cccccccccccccccccccccccccccccccssscccccc" />
  <g
     id="g3212"
     transform="translate(-1704.4498,634.62838)">
    <g
       id="g3253">
      <g
         id="g3445"
         transform="matrix(0,-1,1,0,935.4135,706.0876)">
        <path
           sodipodi:nodetypes="ccccccccccccccccccccccccccccccccccccccccccccccccccccccccccccccccccccccccccccccccccccccccccccccccccccccccccccccccccccccccccccccccccccccccccccccccccccccccccccccccc"
           d="m 699.80313,124.01574 0,35.43307 m 0,-65.551174 0,15.944884 m 19.48819,-15.944884 -19.48819,0 m 35.43307,0 8.85827,0 m -8.85827,4.783464 0,-4.783464 m -15.94488,4.783464 15.94488,0 m -15.94488,-4.783464 0,4.783464 m 24.80315,-15.413386 0,10.629922 m -8.85827,-10.629922 8.85827,0 m -8.85827,-4.783464 0,4.783464 m -15.94488,-4.783464 15.94488,0 m -15.94488,4.783464 0,-4.783464 m -19.48819,4.783464 19.48819,0 m -19.48819,-55.144955 0,32.11346 0,23.031495 m 0,26.574806 -17.71653,0 m 0,14.17322 0,-14.17322 m 17.71653,14.17322 -17.71653,0 m 132.87401,35.43307 44.29134,0 m -74.40945,0 15.94488,0 m -15.94488,-19.48818 0,19.48818 m 0,-19.48818 4.78346,0 m 0,0 0,-15.94489 m 0,0 -4.78346,0 m 0,0 0,-8.85826 m 0,0 -10.62992,0 m 0,8.85826 0,-8.85826 m -4.78346,8.85826 4.78346,0 m -4.78346,15.94489 0,-15.94489 m 4.78346,15.94489 -4.78346,0 m 4.78346,19.48818 0,-19.48818 m -15.94488,19.48818 15.94488,0 m 40.74803,0 0,17.71654 m -14.17323,0 14.17323,0 m -14.17323,-17.71654 0,17.71654 m -42.51968,-17.71654 0,17.71654 m -14.17323,0 14.17323,0 m -14.17323,-17.71654 0,17.71654 m -44.29134,-17.71654 44.29134,0 m 115.15748,-35.43307 0,35.43307 m 0,-65.551174 0,15.944884 m -19.48819,-15.944884 19.48819,0 m -35.43307,0 -8.85827,0 m 8.85827,4.783464 0,-4.783464 m 15.94488,4.783464 -15.94488,0 m 15.94488,-4.783464 0,4.783464 m -24.80315,-15.413386 0,10.629922 m 8.85827,-10.629922 -8.85827,0 m 8.85827,-4.783464 0,4.783464 m 15.94488,-4.783464 -15.94488,0 m 15.94488,4.783464 0,-4.783464 m 19.48819,4.783464 -19.48819,0 m 19.48819,-15.944881 0,15.944881 m 0,26.574806 17.71653,0 m 0,14.17322 0,-14.17322 m -17.71653,14.17322 17.71653,0 m -17.71653,-56.692907 17.71653,0 m 0,-14.173228 0,14.173228 m -17.71653,-14.173228 17.71653,0 m -17.71653,-25.026846 0,25.026846 m -44.29134,-25.026846 44.29134,0 m -74.40945,0 15.94488,0 m -15.94488,21.081964 0,-21.081964 m 0,21.081964 4.78346,0 m 0,0 0,15.944882 m 0,0 -4.78346,0 m 0,0 0,8.858267 m 0,0 -10.62992,0 m 0,-8.858267 0,8.858267 m -4.78346,-8.858267 4.78346,0 m -4.78346,-15.944882 0,15.944882 m 4.78346,-15.944882 -4.78346,0 m 4.78346,-21.081964 0,21.081964 m -15.94488,-21.081964 15.94488,0 m 40.74803,0 0,-8.356988 m -14.17323,0 14.17323,0 m -14.17323,8.356988 0,-8.356988 m -42.51968,8.356988 0,-8.356988 m -14.17323,0 14.17323,0 m -14.17323,8.356988 0,-8.356988 m -44.29134,8.356988 44.29134,0"
           style="fill:none;stroke:#000000;stroke-width:0.1mm"
           id="path3214" />
        <path
           transform="matrix(0.67410533,0,0,0.67410533,597.04853,-26.34935)"
           d="m 346.54588,104.45729 c 0,8.78152 -7.11883,15.90034 -15.90034,15.90034 -8.78152,0 -15.90034,-7.11882 -15.90034,-15.90034 0,-8.781515 7.11882,-15.900339 15.90034,-15.900339 8.78151,0 15.90034,7.118824 15.90034,15.900339 z"
           sodipodi:ry="15.90034"
           sodipodi:rx="15.90034"
           sodipodi:cy="104.45729"
           sodipodi:cx="330.64554"
           id="path3216"
           style="fill:#000000;fill-opacity:1;stroke:none"
           sodipodi:type="arc" />
        <path
           sodipodi:type="arc"
           style="fill:#000000;fill-opacity:1;stroke:none"
           id="path3218"
           sodipodi:cx="330.64554"
           sodipodi:cy="104.45729"
           sodipodi:rx="15.90034"
           sodipodi:ry="15.90034"
           d="m 346.54588,104.45729 c 0,8.78152 -7.11883,15.90034 -15.90034,15.90034 -8.78152,0 -15.90034,-7.11882 -15.90034,-15.90034 0,-8.781515 7.11882,-15.900339 15.90034,-15.900339 8.78151,0 15.90034,7.118824 15.90034,15.900339 z"
           transform="matrix(0.66853421,0,0,0.66853421,598.80201,54.321176)" />
        <path
           transform="matrix(0.66853421,0,0,0.66853421,518.80201,54.321176)"
           d="m 346.54588,104.45729 c 0,8.78152 -7.11883,15.90034 -15.90034,15.90034 -8.78152,0 -15.90034,-7.11882 -15.90034,-15.90034 0,-8.781515 7.11882,-15.900339 15.90034,-15.900339 8.78151,0 15.90034,7.118824 15.90034,15.900339 z"
           sodipodi:ry="15.90034"
           sodipodi:rx="15.90034"
           sodipodi:cy="104.45729"
           sodipodi:cx="330.64554"
           id="path3220"
           style="fill:#000000;fill-opacity:1;stroke:none"
           sodipodi:type="arc" />
      </g>
    </g>
  </g>
  <path
     sodipodi:nodetypes="cccccccccccsssc"
     id="path3451"
     style="fill:none;stroke:#000000;stroke-width:0.1mm"
     d="m -246.48837,333.5789 0,-24.80315 17.71654,0 0,24.80315 -17.71654,0 z m 0,56.69291 0,-24.80315 17.71654,0 0,24.80315 -17.71654,0 z m 8.85828,-46.06299 c 2.93537,0 5.31496,2.37959 5.31496,5.31496 0,2.93537 -2.37959,5.31496 -5.31496,5.31496 -2.93538,0 -5.31496,-2.37959 -5.31496,-5.31496 0,-2.93537 2.37958,-5.31496 5.31496,-5.31496 z" />
  <path
     style="fill:none;fill-opacity:1;stroke:#000000;stroke-width:0.03808733000000000;stroke-miterlimit:4;stroke-opacity:1"
     d="m 780.47931,503.17119 10.59375,0 0,2.8124 67.1875,0 0,-7.6874 -77.78125,0 0,4.875 z m 0,-20 10.59375,0 0,2.8124 67.1875,0 0,-7.6874 -77.78125,0 0,4.875 z m 0,-20.0313 10.59375,0 0,2.8125 67.1875,0 0,-7.6875 -77.78125,0 0,4.875 z m 0,-20 10.59375,0 0,2.8125 67.1875,0 0,-7.6875 -77.78125,0 0,4.875 z m 0,-20.0313 10.59375,0 0,2.8126 67.1875,0 0,-7.6876 -77.78125,0 0,4.875 z m 0,-20.0312 10.59375,0 0,2.8125 67.1875,0 0,-7.6875 -77.78125,0 0,4.875 z m 0,-20 10.59375,0 0,2.8125 67.1875,0 0,-7.6875 -77.78125,0 0,4.875 z m 0,-20.03125 10.59375,0 0,2.8125 67.1875,0 0,-7.6875 -77.78125,0 0,4.875 z"
     id="rect3144"
     sodipodi:nodetypes="cccccccccccccccccccccccccccccccccccccccccccccccccccccccc" />
  <path
     id="rect3459"
     style="fill:none;stroke:#000000;stroke-width:0.10000000000000001;stroke-miterlimit:4;stroke-opacity:1"
     d="m 729.92126,327.84631 116.92914,0 0,17.71654 -116.92914,0 0,-17.71654 z m 0,260.34265 116.92914,0 0,17.71654 -116.92914,0 0,-17.71654 z" />
</svg>
