<?xml version="1.0" encoding="UTF-8" standalone="no"?>
<!-- Created with Inkscape (http://www.inkscape.org/) -->

<svg
   xmlns:dc="http://purl.org/dc/elements/1.1/"
   xmlns:cc="http://creativecommons.org/ns#"
   xmlns:rdf="http://www.w3.org/1999/02/22-rdf-syntax-ns#"
   xmlns:svg="http://www.w3.org/2000/svg"
   xmlns="http://www.w3.org/2000/svg"
   xmlns:sodipodi="http://sodipodi.sourceforge.net/DTD/sodipodi-0.dtd"
   xmlns:inkscape="http://www.inkscape.org/namespaces/inkscape"
   width="744.09448819"
   height="1052.3622047"
   id="svg2"
   version="1.1"
   inkscape:version="0.47 r22583"
   sodipodi:docname="drawing.dxf">
  <defs
     id="defs4">
    <inkscape:perspective
       sodipodi:type="inkscape:persp3d"
       inkscape:vp_x="0 : 526.18109 : 1"
       inkscape:vp_y="0 : 1000 : 0"
       inkscape:vp_z="744.09448 : 526.18109 : 1"
       inkscape:persp3d-origin="372.04724 : 350.78739 : 1"
       id="perspective10" />
  </defs>
  <sodipodi:namedview
     id="base"
     pagecolor="#ffffff"
     bordercolor="#666666"
     borderopacity="1.0"
     inkscape:pageopacity="0.0"
     inkscape:pageshadow="2"
     inkscape:zoom="2.9705697"
     inkscape:cx="222.65208"
     inkscape:cy="610.98861"
     inkscape:document-units="px"
     inkscape:current-layer="layer1"
     showgrid="false"
     inkscape:window-width="1440"
     inkscape:window-height="828"
     inkscape:window-x="0"
     inkscape:window-y="25"
     inkscape:window-maximized="1" />
  <metadata
     id="metadata7">
    <rdf:RDF>
      <cc:Work
         rdf:about="">
        <dc:format>image/svg+xml</dc:format>
        <dc:type
           rdf:resource="http://purl.org/dc/dcmitype/StillImage" />
        <dc:title></dc:title>
      </cc:Work>
    </rdf:RDF>
  </metadata>
  <g
     inkscape:label="Layer 1"
     inkscape:groupmode="layer"
     id="layer1">
    <path
       style="fill:none;stroke:#000000;stroke-width:0.6217801;stroke-opacity:1"
       d="m 82.66803,408.81985 265.12625,0 0,80.87429 -265.12625,0 0,-80.87429 z"
       id="rect2816"
       sodipodi:nodetypes="ccccc" />
    <g
       style="font-size:48px;font-style:normal;font-variant:normal;font-weight:normal;font-stretch:normal;fill:#000000;fill-opacity:1;stroke:none;font-family:Digital-7;-inkscape-font-specification:Digital-7"
       id="text2818">
      <path
         d="m 144.45076,447.51155 1.74545,1.74545 -1.74545,1.74546 -11.34545,0 -1.74546,-1.74546 1.74546,-1.74545 11.34545,0 m 2.61818,2.18182 0.87273,0.87272 0,12.21819 c -0.29093,1.16363 -1.0182,1.89091 -2.18182,2.18181 l -1.30909,-3.4909 0,-9.16364 2.61818,-2.61818 m -2.18182,15.27272 -13.09091,0 c -1.16363,-0.2909 -1.89091,-1.01818 -2.18181,-2.18181 l 3.49091,-1.30909 10.47272,0 1.30909,3.4909 m -11.78181,-27.05454 0,8.29091 -2.61819,2.61818 -0.87272,-0.87273 0,-11.34545 3.49091,1.30909 m 0.0436,-0.87273 -3.49091,-1.30909 c 0.29091,-1.1636 1.01818,-1.89088 2.18182,-2.18182 l 13.92,0 c 1.16362,0.29094 1.89089,1.01822 2.18182,2.18182 l -3.49091,1.30909 -11.30182,0"
         style=""
         id="path2868" />
      <path
         d="m 162.36724,460.60246 -3.49091,0 0,-10.03637 1.74545,-1.74545 1.74546,1.74545 0,10.03637 m 3.92727,-14.4 0,-9.16364 1.30909,-3.49091 c 1.16362,0.29094 1.89089,1.01822 2.18182,2.18182 l 0,12.21818 -0.87273,0.87273 -2.61818,-2.61818 m 0.43636,18.76363 -13.04727,0 c -1.16364,-0.2909 -1.89091,-1.01818 -2.18182,-2.18181 l 3.49091,-1.30909 10.42909,0 1.30909,3.4909 m -15.27272,-3.05454 0,-11.34546 0.87272,-0.87272 2.61819,2.61818 0,8.29091 -3.49091,1.30909 m 17.45454,-12.21818 0.87273,0.87272 0,12.21819 c -0.29093,1.16363 -1.0182,1.89091 -2.18182,2.18181 l -1.30909,-3.4909 0,-9.16364 2.61818,-2.61818 m -16.58182,-0.87273 -0.87272,-0.87273 0,-12.21818 c 0.2909,-1.1636 1.01818,-1.89088 2.18181,-2.18182 l 1.3091,3.49091 0,9.16364 -2.61819,2.61818"
         style=""
         id="path2870" />
      <path
         d="m 180.28371,446.20246 0,-9.16364 1.3091,-3.49091 c 1.16362,0.29094 1.89089,1.01822 2.18181,2.18182 l 0,12.21818 -0.87272,0.87273 -2.61819,-2.61818 m 2.61819,3.05454 0.87272,0.87273 0,12.21818 c -0.29092,1.16364 -1.01819,1.89091 -2.18181,2.18182 l -1.3091,-3.49091 0,-9.16363 2.61819,-2.61819"
         style=""
         id="path2872" />
      <path
         d="m 204.30928,449.69337 1.74546,1.74545 0,11.34546 c -0.29092,1.16363 -1.0182,1.89091 -2.18182,2.18181 l -1.30909,-3.4909 0,-10.03637 1.74545,-1.74545 m -1.74545,-2.61818 0,-9.16364 3.49091,0 0,9.16364 -1.74546,1.74545 -1.74545,-1.74545 m -3.88364,-10.03637 -3.49091,-1.30909 c 0.29091,-1.1636 1.01818,-1.89088 2.18182,-2.18182 l 13.92,0 c 1.16362,0.29094 1.89089,1.01822 2.18182,2.18182 l -3.49091,1.30909 -11.30182,0"
         style=""
         id="path2874" />
      <path
         d="m 233.57121,464.96609 -14.4,0 c -1.16363,-0.2909 -1.89091,-1.01818 -2.18181,-2.18181 l 3.49091,-1.30909 11.78181,0 1.30909,3.4909 m -16.58181,-3.05454 0,-11.34546 0.87272,-0.87272 2.61819,2.61818 0,8.29091 -3.49091,1.30909 m 15.27272,-24.87273 -11.73818,0 -3.49091,-1.30909 c 0.29091,-1.1636 1.01818,-1.89088 2.18182,-2.18182 l 14.35636,0 -1.30909,3.49091 m -11.78181,0.87273 0,8.29091 -2.61819,2.61818 -0.87272,-0.87273 0,-11.34545 3.49091,1.30909"
         style=""
         id="path2876" />
      <path
         d="m 253.66951,447.51155 1.74545,1.74545 -1.74545,1.74546 -11.34545,0 -1.74546,-1.74546 1.74546,-1.74545 11.34545,0 m 2.61818,2.18182 0.87273,0.87272 0,12.21819 c -0.29093,1.16363 -1.0182,1.89091 -2.18182,2.18181 l -1.30909,-3.4909 0,-9.16364 2.61818,-2.61818 m -2.61818,-3.49091 0,-9.16364 1.30909,-3.49091 c 1.16362,0.29094 1.89089,1.01822 2.18182,2.18182 l 0,12.21818 -0.87273,0.87273 -2.61818,-2.61818 m -11.34545,6.10909 0,9.16364 -1.3091,3.4909 c -1.16363,-0.2909 -1.89091,-1.01818 -2.18181,-2.18181 l 0,-12.21819 0.87272,-0.87272 2.61819,2.61818 m -2.61819,-3.05455 -0.87272,-0.87272 0,-12.21819 c 0.2909,-1.1636 1.01818,-1.89087 2.18181,-2.18181 l 1.3091,3.49091 0,9.16363 -2.61819,2.61818"
         style=""
         id="path2878" />
      <path
         d="m 275.51326,447.51155 1.74545,1.74545 -1.74545,1.74546 -11.34545,0 -1.74546,-1.74546 1.74546,-1.74545 11.34545,0 m 1.74545,17.45454 -14.4,0 c -1.16363,-0.2909 -1.89091,-1.01818 -2.18181,-2.18181 l 3.49091,-1.30909 11.78181,0 1.30909,3.4909 m -16.58181,-3.05454 0,-11.34546 0.87272,-0.87272 2.61819,2.61818 0,8.29091 -3.49091,1.30909 m 15.27272,-24.87273 -11.73818,0 -3.49091,-1.30909 c 0.29091,-1.1636 1.01818,-1.89088 2.18182,-2.18182 l 14.35636,0 -1.30909,3.49091 m -11.78181,0.87273 0,8.29091 -2.61819,2.61818 -0.87272,-0.87273 0,-11.34545 3.49091,1.30909"
         style=""
         id="path2880" />
      <path
         d="m 297.35701,447.51155 1.74545,1.74545 -1.74545,1.74546 -11.34545,0 -1.74546,-1.74546 1.74546,-1.74545 11.34545,0 m 2.61818,2.18182 0.87273,0.87272 0,12.21819 c -0.29093,1.16363 -1.0182,1.89091 -2.18182,2.18181 l -1.30909,-3.4909 0,-9.16364 2.61818,-2.61818 m -2.18182,15.27272 -13.09091,0 c -1.16363,-0.2909 -1.89091,-1.01818 -2.18181,-2.18181 l 3.49091,-1.30909 10.47272,0 1.30909,3.4909 m -11.78181,-27.05454 0,8.29091 -2.61819,2.61818 -0.87272,-0.87273 0,-11.34545 3.49091,1.30909 m 0.0436,-0.87273 -3.49091,-1.30909 c 0.29091,-1.1636 1.01818,-1.89088 2.18182,-2.18182 l 13.92,0 c 1.16362,0.29094 1.89089,1.01822 2.18182,2.18182 l -3.49091,1.30909 -11.30182,0"
         style=""
         id="path2882" />
    </g>
  </g>
</svg>
