  0
SECTION
  2
HEADER
  9
$ACADVER
  1
AC1009
  9
$EXTMIN
 10
0.0
 20
0.0
 30
0.0
  9
$EXTMAX
 10
1000.0
 20
1000.0
 30
0.0
  9
$FILLMODE
 70
 0
  9
$SPLFRAME
 70
 1
  0
ENDSEC
  0
SECTION
  2
TABLES
  0
TABLE
  2
LAYER
 70
1
  0
LAYER
  2
0
 70
     0
 62
     7
  6
CONTINUOUS
  0
ENDTAB
  0
ENDSEC
  0
SECTION
  2
ENTITIES
  0
POLYLINE
  8
0
 62
     0
 66
     1
 10
0
 20
0
 30
0.0
 70
     1
 40
0.497424
 41
0.497424
  0
VERTEX
  8
0
 10
0.00347222
 20
0.902018
 30
0.0
 40
0.00690867
 41
0.00690867
  0
VERTEX
  8
0
 10
2.94933
 20
0.902018
 30
0.0
 40
0.00690867
 41
0.00690867
  0
VERTEX
  8
0
 10
2.94933
 20
0.00341797
 30
0.0
 40
0.00690867
 41
0.00690867
  0
VERTEX
  8
0
 10
0.00347222
 20
0.00341797
 30
0.0
 40
0.00690867
 41
0.00690867
  0
VERTEX
  8
0
 10
0.00347222
 20
0.902018
 30
0.0
 40
0.00690867
 41
0.00690867
  0
SEQEND
 8
0
  0
POLYLINE
  8
0
 62
     0
 66
     1
 10
0
 20
0
 30
0.0
 40
0
 41
0
  0
VERTEX
  8
0
 10
0.689942
 20
0.472114
 30
0.0
 40
0
 41
0
  0
VERTEX
  8
0
 10
0.70931
 20
0.452746
 30
0.0
 40
0
 41
0
  0
VERTEX
  8
0
 10
0.689942
 20
0.433322
 30
0.0
 40
0
 41
0
  0
VERTEX
  8
0
 10
0.563857
 20
0.433322
 30
0.0
 40
0
 41
0
  0
VERTEX
  8
0
 10
0.544487
 20
0.452746
 30
0.0
 40
0
 41
0
  0
VERTEX
  8
0
 10
0.563857
 20
0.472114
 30
0.0
 40
0
 41
0
  0
VERTEX
  8
0
 10
0.689942
 20
0.472114
 30
0.0
 40
0
 41
0
  0
SEQEND
 8
0
  0
POLYLINE
  8
0
 62
     0
 66
     1
 10
0
 20
0
 30
0.0
 40
0
 41
0
  0
VERTEX
  8
0
 10
0.719021
 20
0.447863
 30
0.0
 40
0
 41
0
  0
VERTEX
  8
0
 10
0.728733
 20
0.438206
 30
0.0
 40
0
 41
0
  0
VERTEX
  8
0
 10
0.728733
 20
0.302408
 30
0.0
 40
0
 41
0
  0
VERTEX
  8
0
 10
0.720215
 20
0.286675
 30
0.0
 40
0
 41
0
  0
VERTEX
  8
0
 10
0.704482
 20
0.278211
 30
0.0
 40
0
 41
0
  0
VERTEX
  8
0
 10
0.689942
 20
0.317003
 30
0.0
 40
0
 41
0
  0
VERTEX
  8
0
 10
0.689942
 20
0.418782
 30
0.0
 40
0
 41
0
  0
VERTEX
  8
0
 10
0.719021
 20
0.447863
 30
0.0
 40
0
 41
0
  0
SEQEND
 8
0
  0
POLYLINE
  8
0
 62
     0
 66
     1
 10
0
 20
0
 30
0.0
 40
0
 41
0
  0
VERTEX
  8
0
 10
0.694769
 20
0.278211
 30
0.0
 40
0
 41
0
  0
VERTEX
  8
0
 10
0.549317
 20
0.278211
 30
0.0
 40
0
 41
0
  0
VERTEX
  8
0
 10
0.533529
 20
0.286675
 30
0.0
 40
0
 41
0
  0
VERTEX
  8
0
 10
0.525065
 20
0.302408
 30
0.0
 40
0
 41
0
  0
VERTEX
  8
0
 10
0.563857
 20
0.317003
 30
0.0
 40
0
 41
0
  0
VERTEX
  8
0
 10
0.680231
 20
0.317003
 30
0.0
 40
0
 41
0
  0
VERTEX
  8
0
 10
0.694769
 20
0.278211
 30
0.0
 40
0
 41
0
  0
SEQEND
 8
0
  0
POLYLINE
  8
0
 62
     0
 66
     1
 10
0
 20
0
 30
0.0
 40
0
 41
0
  0
VERTEX
  8
0
 10
0.563857
 20
0.578776
 30
0.0
 40
0
 41
0
  0
VERTEX
  8
0
 10
0.563857
 20
0.486654
 30
0.0
 40
0
 41
0
  0
VERTEX
  8
0
 10
0.534776
 20
0.457574
 30
0.0
 40
0
 41
0
  0
VERTEX
  8
0
 10
0.525065
 20
0.467285
 30
0.0
 40
0
 41
0
  0
VERTEX
  8
0
 10
0.525065
 20
0.593317
 30
0.0
 40
0
 41
0
  0
VERTEX
  8
0
 10
0.563857
 20
0.578776
 30
0.0
 40
0
 41
0
  0
SEQEND
 8
0
  0
POLYLINE
  8
0
 62
     0
 66
     1
 10
0
 20
0
 30
0.0
 40
0
 41
0
  0
VERTEX
  8
0
 10
0.564344
 20
0.588488
 30
0.0
 40
0
 41
0
  0
VERTEX
  8
0
 10
0.525553
 20
0.603082
 30
0.0
 40
0
 41
0
  0
VERTEX
  8
0
 10
0.534017
 20
0.618815
 30
0.0
 40
0
 41
0
  0
VERTEX
  8
0
 10
0.549804
 20
0.627279
 30
0.0
 40
0
 41
0
  0
VERTEX
  8
0
 10
0.704482
 20
0.627279
 30
0.0
 40
0
 41
0
  0
VERTEX
  8
0
 10
0.720215
 20
0.618815
 30
0.0
 40
0
 41
0
  0
VERTEX
  8
0
 10
0.728733
 20
0.603082
 30
0.0
 40
0
 41
0
  0
VERTEX
  8
0
 10
0.689942
 20
0.588488
 30
0.0
 40
0
 41
0
  0
VERTEX
  8
0
 10
0.564344
 20
0.588488
 30
0.0
 40
0
 41
0
  0
SEQEND
 8
0
  0
POLYLINE
  8
0
 62
     0
 66
     1
 10
0
 20
0
 30
0.0
 40
0
 41
0
  0
VERTEX
  8
0
 10
0.888997
 20
0.32666
 30
0.0
 40
0
 41
0
  0
VERTEX
  8
0
 10
0.850206
 20
0.32666
 30
0.0
 40
0
 41
0
  0
VERTEX
  8
0
 10
0.850206
 20
0.438206
 30
0.0
 40
0
 41
0
  0
VERTEX
  8
0
 10
0.869629
 20
0.457574
 30
0.0
 40
0
 41
0
  0
VERTEX
  8
0
 10
0.888997
 20
0.438206
 30
0.0
 40
0
 41
0
  0
VERTEX
  8
0
 10
0.888997
 20
0.32666
 30
0.0
 40
0
 41
0
  0
SEQEND
 8
0
  0
POLYLINE
  8
0
 62
     0
 66
     1
 10
0
 20
0
 30
0.0
 40
0
 41
0
  0
VERTEX
  8
0
 10
0.932617
 20
0.486654
 30
0.0
 40
0
 41
0
  0
VERTEX
  8
0
 10
0.932617
 20
0.588488
 30
0.0
 40
0
 41
0
  0
VERTEX
  8
0
 10
0.947157
 20
0.627279
 30
0.0
 40
0
 41
0
  0
VERTEX
  8
0
 10
0.962944
 20
0.618815
 30
0.0
 40
0
 41
0
  0
VERTEX
  8
0
 10
0.971408
 20
0.603082
 30
0.0
 40
0
 41
0
  0
VERTEX
  8
0
 10
0.971408
 20
0.467285
 30
0.0
 40
0
 41
0
  0
VERTEX
  8
0
 10
0.961751
 20
0.457574
 30
0.0
 40
0
 41
0
  0
VERTEX
  8
0
 10
0.932617
 20
0.486654
 30
0.0
 40
0
 41
0
  0
SEQEND
 8
0
  0
POLYLINE
  8
0
 62
     0
 66
     1
 10
0
 20
0
 30
0.0
 40
0
 41
0
  0
VERTEX
  8
0
 10
0.9375
 20
0.278211
 30
0.0
 40
0
 41
0
  0
VERTEX
  8
0
 10
0.792535
 20
0.278211
 30
0.0
 40
0
 41
0
  0
VERTEX
  8
0
 10
0.776747
 20
0.286675
 30
0.0
 40
0
 41
0
  0
VERTEX
  8
0
 10
0.768283
 20
0.302408
 30
0.0
 40
0
 41
0
  0
VERTEX
  8
0
 10
0.807075
 20
0.317003
 30
0.0
 40
0
 41
0
  0
VERTEX
  8
0
 10
0.92296
 20
0.317003
 30
0.0
 40
0
 41
0
  0
VERTEX
  8
0
 10
0.9375
 20
0.278211
 30
0.0
 40
0
 41
0
  0
SEQEND
 8
0
  0
POLYLINE
  8
0
 62
     0
 66
     1
 10
0
 20
0
 30
0.0
 40
0
 41
0
  0
VERTEX
  8
0
 10
0.767794
 20
0.312121
 30
0.0
 40
0
 41
0
  0
VERTEX
  8
0
 10
0.767794
 20
0.438206
 30
0.0
 40
0
 41
0
  0
VERTEX
  8
0
 10
0.777507
 20
0.447863
 30
0.0
 40
0
 41
0
  0
VERTEX
  8
0
 10
0.806586
 20
0.418782
 30
0.0
 40
0
 41
0
  0
VERTEX
  8
0
 10
0.806586
 20
0.32666
 30
0.0
 40
0
 41
0
  0
VERTEX
  8
0
 10
0.767794
 20
0.312121
 30
0.0
 40
0
 41
0
  0
SEQEND
 8
0
  0
POLYLINE
  8
0
 62
     0
 66
     1
 10
0
 20
0
 30
0.0
 40
0
 41
0
  0
VERTEX
  8
0
 10
0.961751
 20
0.447863
 30
0.0
 40
0
 41
0
  0
VERTEX
  8
0
 10
0.971408
 20
0.438206
 30
0.0
 40
0
 41
0
  0
VERTEX
  8
0
 10
0.971408
 20
0.302408
 30
0.0
 40
0
 41
0
  0
VERTEX
  8
0
 10
0.962944
 20
0.286675
 30
0.0
 40
0
 41
0
  0
VERTEX
  8
0
 10
0.947157
 20
0.278211
 30
0.0
 40
0
 41
0
  0
VERTEX
  8
0
 10
0.932617
 20
0.317003
 30
0.0
 40
0
 41
0
  0
VERTEX
  8
0
 10
0.932617
 20
0.418782
 30
0.0
 40
0
 41
0
  0
VERTEX
  8
0
 10
0.961751
 20
0.447863
 30
0.0
 40
0
 41
0
  0
SEQEND
 8
0
  0
POLYLINE
  8
0
 62
     0
 66
     1
 10
0
 20
0
 30
0.0
 40
0
 41
0
  0
VERTEX
  8
0
 10
0.777507
 20
0.457574
 30
0.0
 40
0
 41
0
  0
VERTEX
  8
0
 10
0.767794
 20
0.467285
 30
0.0
 40
0
 41
0
  0
VERTEX
  8
0
 10
0.767794
 20
0.603082
 30
0.0
 40
0
 41
0
  0
VERTEX
  8
0
 10
0.776258
 20
0.618815
 30
0.0
 40
0
 41
0
  0
VERTEX
  8
0
 10
0.792046
 20
0.627279
 30
0.0
 40
0
 41
0
  0
VERTEX
  8
0
 10
0.806586
 20
0.588488
 30
0.0
 40
0
 41
0
  0
VERTEX
  8
0
 10
0.806586
 20
0.486654
 30
0.0
 40
0
 41
0
  0
VERTEX
  8
0
 10
0.777507
 20
0.457574
 30
0.0
 40
0
 41
0
  0
SEQEND
 8
0
  0
POLYLINE
  8
0
 62
     0
 66
     1
 10
0
 20
0
 30
0.0
 40
0
 41
0
  0
VERTEX
  8
0
 10
1.08805
 20
0.486654
 30
0.0
 40
0
 41
0
  0
VERTEX
  8
0
 10
1.08805
 20
0.588488
 30
0.0
 40
0
 41
0
  0
VERTEX
  8
0
 10
1.10259
 20
0.627279
 30
0.0
 40
0
 41
0
  0
VERTEX
  8
0
 10
1.11838
 20
0.618815
 30
0.0
 40
0
 41
0
  0
VERTEX
  8
0
 10
1.12684
 20
0.603082
 30
0.0
 40
0
 41
0
  0
VERTEX
  8
0
 10
1.12684
 20
0.467285
 30
0.0
 40
0
 41
0
  0
VERTEX
  8
0
 10
1.11719
 20
0.457574
 30
0.0
 40
0
 41
0
  0
VERTEX
  8
0
 10
1.08805
 20
0.486654
 30
0.0
 40
0
 41
0
  0
SEQEND
 8
0
  0
POLYLINE
  8
0
 62
     0
 66
     1
 10
0
 20
0
 30
0.0
 40
0
 41
0
  0
VERTEX
  8
0
 10
1.11719
 20
0.452746
 30
0.0
 40
0
 41
0
  0
VERTEX
  8
0
 10
1.12684
 20
0.443033
 30
0.0
 40
0
 41
0
  0
VERTEX
  8
0
 10
1.12684
 20
0.307346
 30
0.0
 40
0
 41
0
  0
VERTEX
  8
0
 10
1.11838
 20
0.291558
 30
0.0
 40
0
 41
0
  0
VERTEX
  8
0
 10
1.10259
 20
0.28304
 30
0.0
 40
0
 41
0
  0
VERTEX
  8
0
 10
1.08805
 20
0.321832
 30
0.0
 40
0
 41
0
  0
VERTEX
  8
0
 10
1.08805
 20
0.423665
 30
0.0
 40
0
 41
0
  0
VERTEX
  8
0
 10
1.11719
 20
0.452746
 30
0.0
 40
0
 41
0
  0
SEQEND
 8
0
  0
POLYLINE
  8
0
 62
     0
 66
     1
 10
0
 20
0
 30
0.0
 40
0
 41
0
  0
VERTEX
  8
0
 10
1.35503
 20
0.447863
 30
0.0
 40
0
 41
0
  0
VERTEX
  8
0
 10
1.3744
 20
0.428494
 30
0.0
 40
0
 41
0
  0
VERTEX
  8
0
 10
1.3744
 20
0.302408
 30
0.0
 40
0
 41
0
  0
VERTEX
  8
0
 10
1.36594
 20
0.286675
 30
0.0
 40
0
 41
0
  0
VERTEX
  8
0
 10
1.35015
 20
0.278211
 30
0.0
 40
0
 41
0
  0
VERTEX
  8
0
 10
1.33561
 20
0.317003
 30
0.0
 40
0
 41
0
  0
VERTEX
  8
0
 10
1.33561
 20
0.428494
 30
0.0
 40
0
 41
0
  0
VERTEX
  8
0
 10
1.35503
 20
0.447863
 30
0.0
 40
0
 41
0
  0
SEQEND
 8
0
  0
POLYLINE
  8
0
 62
     0
 66
     1
 10
0
 20
0
 30
0.0
 40
0
 41
0
  0
VERTEX
  8
0
 10
1.33561
 20
0.476997
 30
0.0
 40
0
 41
0
  0
VERTEX
  8
0
 10
1.33561
 20
0.578776
 30
0.0
 40
0
 41
0
  0
VERTEX
  8
0
 10
1.3744
 20
0.578776
 30
0.0
 40
0
 41
0
  0
VERTEX
  8
0
 10
1.3744
 20
0.476997
 30
0.0
 40
0
 41
0
  0
VERTEX
  8
0
 10
1.35503
 20
0.457574
 30
0.0
 40
0
 41
0
  0
VERTEX
  8
0
 10
1.33561
 20
0.476997
 30
0.0
 40
0
 41
0
  0
SEQEND
 8
0
  0
POLYLINE
  8
0
 62
     0
 66
     1
 10
0
 20
0
 30
0.0
 40
0
 41
0
  0
VERTEX
  8
0
 10
1.29248
 20
0.588488
 30
0.0
 40
0
 41
0
  0
VERTEX
  8
0
 10
1.25369
 20
0.603082
 30
0.0
 40
0
 41
0
  0
VERTEX
  8
0
 10
1.26215
 20
0.618815
 30
0.0
 40
0
 41
0
  0
VERTEX
  8
0
 10
1.27794
 20
0.627279
 30
0.0
 40
0
 41
0
  0
VERTEX
  8
0
 10
1.43261
 20
0.627279
 30
0.0
 40
0
 41
0
  0
VERTEX
  8
0
 10
1.44835
 20
0.618815
 30
0.0
 40
0
 41
0
  0
VERTEX
  8
0
 10
1.45687
 20
0.603082
 30
0.0
 40
0
 41
0
  0
VERTEX
  8
0
 10
1.41808
 20
0.588488
 30
0.0
 40
0
 41
0
  0
VERTEX
  8
0
 10
1.29248
 20
0.588488
 30
0.0
 40
0
 41
0
  0
SEQEND
 8
0
  0
POLYLINE
  8
0
 62
     0
 66
     1
 10
0
 20
0
 30
0.0
 40
0
 41
0
  0
VERTEX
  8
0
 10
1.68018
 20
0.278211
 30
0.0
 40
0
 41
0
  0
VERTEX
  8
0
 10
1.52018
 20
0.278211
 30
0.0
 40
0
 41
0
  0
VERTEX
  8
0
 10
1.50439
 20
0.286675
 30
0.0
 40
0
 41
0
  0
VERTEX
  8
0
 10
1.49593
 20
0.302408
 30
0.0
 40
0
 41
0
  0
VERTEX
  8
0
 10
1.53472
 20
0.317003
 30
0.0
 40
0
 41
0
  0
VERTEX
  8
0
 10
1.66564
 20
0.317003
 30
0.0
 40
0
 41
0
  0
VERTEX
  8
0
 10
1.68018
 20
0.278211
 30
0.0
 40
0
 41
0
  0
SEQEND
 8
0
  0
POLYLINE
  8
0
 62
     0
 66
     1
 10
0
 20
0
 30
0.0
 40
0
 41
0
  0
VERTEX
  8
0
 10
1.49593
 20
0.312121
 30
0.0
 40
0
 41
0
  0
VERTEX
  8
0
 10
1.49593
 20
0.438206
 30
0.0
 40
0
 41
0
  0
VERTEX
  8
0
 10
1.50558
 20
0.447863
 30
0.0
 40
0
 41
0
  0
VERTEX
  8
0
 10
1.53472
 20
0.418782
 30
0.0
 40
0
 41
0
  0
VERTEX
  8
0
 10
1.53472
 20
0.32666
 30
0.0
 40
0
 41
0
  0
VERTEX
  8
0
 10
1.49593
 20
0.312121
 30
0.0
 40
0
 41
0
  0
SEQEND
 8
0
  0
POLYLINE
  8
0
 62
     0
 66
     1
 10
0
 20
0
 30
0.0
 40
0
 41
0
  0
VERTEX
  8
0
 10
1.66564
 20
0.588488
 30
0.0
 40
0
 41
0
  0
VERTEX
  8
0
 10
1.53521
 20
0.588488
 30
0.0
 40
0
 41
0
  0
VERTEX
  8
0
 10
1.49642
 20
0.603082
 30
0.0
 40
0
 41
0
  0
VERTEX
  8
0
 10
1.50483
 20
0.618815
 30
0.0
 40
0
 41
0
  0
VERTEX
  8
0
 10
1.52061
 20
0.627279
 30
0.0
 40
0
 41
0
  0
VERTEX
  8
0
 10
1.68018
 20
0.627279
 30
0.0
 40
0
 41
0
  0
VERTEX
  8
0
 10
1.66564
 20
0.588488
 30
0.0
 40
0
 41
0
  0
SEQEND
 8
0
  0
POLYLINE
  8
0
 62
     0
 66
     1
 10
0
 20
0
 30
0.0
 40
0
 41
0
  0
VERTEX
  8
0
 10
1.53472
 20
0.578776
 30
0.0
 40
0
 41
0
  0
VERTEX
  8
0
 10
1.53472
 20
0.486654
 30
0.0
 40
0
 41
0
  0
VERTEX
  8
0
 10
1.50558
 20
0.457574
 30
0.0
 40
0
 41
0
  0
VERTEX
  8
0
 10
1.49593
 20
0.467285
 30
0.0
 40
0
 41
0
  0
VERTEX
  8
0
 10
1.49593
 20
0.593317
 30
0.0
 40
0
 41
0
  0
VERTEX
  8
0
 10
1.53472
 20
0.578776
 30
0.0
 40
0
 41
0
  0
SEQEND
 8
0
  0
POLYLINE
  8
0
 62
     0
 66
     1
 10
0
 20
0
 30
0.0
 40
0
 41
0
  0
VERTEX
  8
0
 10
1.90349
 20
0.472114
 30
0.0
 40
0
 41
0
  0
VERTEX
  8
0
 10
1.92285
 20
0.452746
 30
0.0
 40
0
 41
0
  0
VERTEX
  8
0
 10
1.90349
 20
0.433322
 30
0.0
 40
0
 41
0
  0
VERTEX
  8
0
 10
1.7774
 20
0.433322
 30
0.0
 40
0
 41
0
  0
VERTEX
  8
0
 10
1.75803
 20
0.452746
 30
0.0
 40
0
 41
0
  0
VERTEX
  8
0
 10
1.7774
 20
0.472114
 30
0.0
 40
0
 41
0
  0
VERTEX
  8
0
 10
1.90349
 20
0.472114
 30
0.0
 40
0
 41
0
  0
SEQEND
 8
0
  0
POLYLINE
  8
0
 62
     0
 66
     1
 10
0
 20
0
 30
0.0
 40
0
 41
0
  0
VERTEX
  8
0
 10
1.93257
 20
0.447863
 30
0.0
 40
0
 41
0
  0
VERTEX
  8
0
 10
1.94228
 20
0.438206
 30
0.0
 40
0
 41
0
  0
VERTEX
  8
0
 10
1.94228
 20
0.302408
 30
0.0
 40
0
 41
0
  0
VERTEX
  8
0
 10
1.93375
 20
0.286675
 30
0.0
 40
0
 41
0
  0
VERTEX
  8
0
 10
1.91803
 20
0.278211
 30
0.0
 40
0
 41
0
  0
VERTEX
  8
0
 10
1.90349
 20
0.317003
 30
0.0
 40
0
 41
0
  0
VERTEX
  8
0
 10
1.90349
 20
0.418782
 30
0.0
 40
0
 41
0
  0
VERTEX
  8
0
 10
1.93257
 20
0.447863
 30
0.0
 40
0
 41
0
  0
SEQEND
 8
0
  0
POLYLINE
  8
0
 62
     0
 66
     1
 10
0
 20
0
 30
0.0
 40
0
 41
0
  0
VERTEX
  8
0
 10
1.90349
 20
0.486654
 30
0.0
 40
0
 41
0
  0
VERTEX
  8
0
 10
1.90349
 20
0.588488
 30
0.0
 40
0
 41
0
  0
VERTEX
  8
0
 10
1.91803
 20
0.627279
 30
0.0
 40
0
 41
0
  0
VERTEX
  8
0
 10
1.93375
 20
0.618815
 30
0.0
 40
0
 41
0
  0
VERTEX
  8
0
 10
1.94228
 20
0.603082
 30
0.0
 40
0
 41
0
  0
VERTEX
  8
0
 10
1.94228
 20
0.467285
 30
0.0
 40
0
 41
0
  0
VERTEX
  8
0
 10
1.93257
 20
0.457574
 30
0.0
 40
0
 41
0
  0
VERTEX
  8
0
 10
1.90349
 20
0.486654
 30
0.0
 40
0
 41
0
  0
SEQEND
 8
0
  0
POLYLINE
  8
0
 62
     0
 66
     1
 10
0
 20
0
 30
0.0
 40
0
 41
0
  0
VERTEX
  8
0
 10
1.7774
 20
0.418782
 30
0.0
 40
0
 41
0
  0
VERTEX
  8
0
 10
1.7774
 20
0.317003
 30
0.0
 40
0
 41
0
  0
VERTEX
  8
0
 10
1.76286
 20
0.278211
 30
0.0
 40
0
 41
0
  0
VERTEX
  8
0
 10
1.74707
 20
0.286675
 30
0.0
 40
0
 41
0
  0
VERTEX
  8
0
 10
1.73861
 20
0.302408
 30
0.0
 40
0
 41
0
  0
VERTEX
  8
0
 10
1.73861
 20
0.438206
 30
0.0
 40
0
 41
0
  0
VERTEX
  8
0
 10
1.74832
 20
0.447863
 30
0.0
 40
0
 41
0
  0
VERTEX
  8
0
 10
1.7774
 20
0.418782
 30
0.0
 40
0
 41
0
  0
SEQEND
 8
0
  0
POLYLINE
  8
0
 62
     0
 66
     1
 10
0
 20
0
 30
0.0
 40
0
 41
0
  0
VERTEX
  8
0
 10
1.74832
 20
0.452746
 30
0.0
 40
0
 41
0
  0
VERTEX
  8
0
 10
1.73861
 20
0.462457
 30
0.0
 40
0
 41
0
  0
VERTEX
  8
0
 10
1.73861
 20
0.598199
 30
0.0
 40
0
 41
0
  0
VERTEX
  8
0
 10
1.74707
 20
0.613986
 30
0.0
 40
0
 41
0
  0
VERTEX
  8
0
 10
1.76286
 20
0.62245
 30
0.0
 40
0
 41
0
  0
VERTEX
  8
0
 10
1.7774
 20
0.583658
 30
0.0
 40
0
 41
0
  0
VERTEX
  8
0
 10
1.7774
 20
0.481825
 30
0.0
 40
0
 41
0
  0
VERTEX
  8
0
 10
1.74832
 20
0.452746
 30
0.0
 40
0
 41
0
  0
SEQEND
 8
0
  0
POLYLINE
  8
0
 62
     0
 66
     1
 10
0
 20
0
 30
0.0
 40
0
 41
0
  0
VERTEX
  8
0
 10
2.14615
 20
0.472114
 30
0.0
 40
0
 41
0
  0
VERTEX
  8
0
 10
2.16558
 20
0.452746
 30
0.0
 40
0
 41
0
  0
VERTEX
  8
0
 10
2.14615
 20
0.433322
 30
0.0
 40
0
 41
0
  0
VERTEX
  8
0
 10
2.02013
 20
0.433322
 30
0.0
 40
0
 41
0
  0
VERTEX
  8
0
 10
2.00071
 20
0.452746
 30
0.0
 40
0
 41
0
  0
VERTEX
  8
0
 10
2.02013
 20
0.472114
 30
0.0
 40
0
 41
0
  0
VERTEX
  8
0
 10
2.14615
 20
0.472114
 30
0.0
 40
0
 41
0
  0
SEQEND
 8
0
  0
POLYLINE
  8
0
 62
     0
 66
     1
 10
0
 20
0
 30
0.0
 40
0
 41
0
  0
VERTEX
  8
0
 10
2.16558
 20
0.278211
 30
0.0
 40
0
 41
0
  0
VERTEX
  8
0
 10
2.00558
 20
0.278211
 30
0.0
 40
0
 41
0
  0
VERTEX
  8
0
 10
1.98981
 20
0.286675
 30
0.0
 40
0
 41
0
  0
VERTEX
  8
0
 10
1.98133
 20
0.302408
 30
0.0
 40
0
 41
0
  0
VERTEX
  8
0
 10
2.02013
 20
0.317003
 30
0.0
 40
0
 41
0
  0
VERTEX
  8
0
 10
2.15104
 20
0.317003
 30
0.0
 40
0
 41
0
  0
VERTEX
  8
0
 10
2.16558
 20
0.278211
 30
0.0
 40
0
 41
0
  0
SEQEND
 8
0
  0
POLYLINE
  8
0
 62
     0
 66
     1
 10
0
 20
0
 30
0.0
 40
0
 41
0
  0
VERTEX
  8
0
 10
1.98133
 20
0.312121
 30
0.0
 40
0
 41
0
  0
VERTEX
  8
0
 10
1.98133
 20
0.438206
 30
0.0
 40
0
 41
0
  0
VERTEX
  8
0
 10
1.99104
 20
0.447863
 30
0.0
 40
0
 41
0
  0
VERTEX
  8
0
 10
2.02013
 20
0.418782
 30
0.0
 40
0
 41
0
  0
VERTEX
  8
0
 10
2.02013
 20
0.32666
 30
0.0
 40
0
 41
0
  0
VERTEX
  8
0
 10
1.98133
 20
0.312121
 30
0.0
 40
0
 41
0
  0
SEQEND
 8
0
  0
POLYLINE
  8
0
 62
     0
 66
     1
 10
0
 20
0
 30
0.0
 40
0
 41
0
  0
VERTEX
  8
0
 10
2.15104
 20
0.588488
 30
0.0
 40
0
 41
0
  0
VERTEX
  8
0
 10
2.02061
 20
0.588488
 30
0.0
 40
0
 41
0
  0
VERTEX
  8
0
 10
1.98182
 20
0.603082
 30
0.0
 40
0
 41
0
  0
VERTEX
  8
0
 10
1.99029
 20
0.618815
 30
0.0
 40
0
 41
0
  0
VERTEX
  8
0
 10
2.00608
 20
0.627279
 30
0.0
 40
0
 41
0
  0
VERTEX
  8
0
 10
2.16558
 20
0.627279
 30
0.0
 40
0
 41
0
  0
VERTEX
  8
0
 10
2.15104
 20
0.588488
 30
0.0
 40
0
 41
0
  0
SEQEND
 8
0
  0
POLYLINE
  8
0
 62
     0
 66
     1
 10
0
 20
0
 30
0.0
 40
0
 41
0
  0
VERTEX
  8
0
 10
2.02013
 20
0.578776
 30
0.0
 40
0
 41
0
  0
VERTEX
  8
0
 10
2.02013
 20
0.486654
 30
0.0
 40
0
 41
0
  0
VERTEX
  8
0
 10
1.99104
 20
0.457574
 30
0.0
 40
0
 41
0
  0
VERTEX
  8
0
 10
1.98133
 20
0.467285
 30
0.0
 40
0
 41
0
  0
VERTEX
  8
0
 10
1.98133
 20
0.593317
 30
0.0
 40
0
 41
0
  0
VERTEX
  8
0
 10
2.02013
 20
0.578776
 30
0.0
 40
0
 41
0
  0
SEQEND
 8
0
  0
POLYLINE
  8
0
 62
     0
 66
     1
 10
0
 20
0
 30
0.0
 40
0
 41
0
  0
VERTEX
  8
0
 10
2.38889
 20
0.472114
 30
0.0
 40
0
 41
0
  0
VERTEX
  8
0
 10
2.40826
 20
0.452746
 30
0.0
 40
0
 41
0
  0
VERTEX
  8
0
 10
2.38889
 20
0.433322
 30
0.0
 40
0
 41
0
  0
VERTEX
  8
0
 10
2.26281
 20
0.433322
 30
0.0
 40
0
 41
0
  0
VERTEX
  8
0
 10
2.24343
 20
0.452746
 30
0.0
 40
0
 41
0
  0
VERTEX
  8
0
 10
2.26281
 20
0.472114
 30
0.0
 40
0
 41
0
  0
VERTEX
  8
0
 10
2.38889
 20
0.472114
 30
0.0
 40
0
 41
0
  0
SEQEND
 8
0
  0
POLYLINE
  8
0
 62
     0
 66
     1
 10
0
 20
0
 30
0.0
 40
0
 41
0
  0
VERTEX
  8
0
 10
2.41797
 20
0.447863
 30
0.0
 40
0
 41
0
  0
VERTEX
  8
0
 10
2.42768
 20
0.438206
 30
0.0
 40
0
 41
0
  0
VERTEX
  8
0
 10
2.42768
 20
0.302408
 30
0.0
 40
0
 41
0
  0
VERTEX
  8
0
 10
2.41917
 20
0.286675
 30
0.0
 40
0
 41
0
  0
VERTEX
  8
0
 10
2.40343
 20
0.278211
 30
0.0
 40
0
 41
0
  0
VERTEX
  8
0
 10
2.38889
 20
0.317003
 30
0.0
 40
0
 41
0
  0
VERTEX
  8
0
 10
2.38889
 20
0.418782
 30
0.0
 40
0
 41
0
  0
VERTEX
  8
0
 10
2.41797
 20
0.447863
 30
0.0
 40
0
 41
0
  0
SEQEND
 8
0
  0
POLYLINE
  8
0
 62
     0
 66
     1
 10
0
 20
0
 30
0.0
 40
0
 41
0
  0
VERTEX
  8
0
 10
2.39372
 20
0.278211
 30
0.0
 40
0
 41
0
  0
VERTEX
  8
0
 10
2.24826
 20
0.278211
 30
0.0
 40
0
 41
0
  0
VERTEX
  8
0
 10
2.23247
 20
0.286675
 30
0.0
 40
0
 41
0
  0
VERTEX
  8
0
 10
2.22401
 20
0.302408
 30
0.0
 40
0
 41
0
  0
VERTEX
  8
0
 10
2.26281
 20
0.317003
 30
0.0
 40
0
 41
0
  0
VERTEX
  8
0
 10
2.37918
 20
0.317003
 30
0.0
 40
0
 41
0
  0
VERTEX
  8
0
 10
2.39372
 20
0.278211
 30
0.0
 40
0
 41
0
  0
SEQEND
 8
0
  0
POLYLINE
  8
0
 62
     0
 66
     1
 10
0
 20
0
 30
0.0
 40
0
 41
0
  0
VERTEX
  8
0
 10
2.26281
 20
0.578776
 30
0.0
 40
0
 41
0
  0
VERTEX
  8
0
 10
2.26281
 20
0.486654
 30
0.0
 40
0
 41
0
  0
VERTEX
  8
0
 10
2.23372
 20
0.457574
 30
0.0
 40
0
 41
0
  0
VERTEX
  8
0
 10
2.22401
 20
0.467285
 30
0.0
 40
0
 41
0
  0
VERTEX
  8
0
 10
2.22401
 20
0.593317
 30
0.0
 40
0
 41
0
  0
VERTEX
  8
0
 10
2.26281
 20
0.578776
 30
0.0
 40
0
 41
0
  0
SEQEND
 8
0
  0
POLYLINE
  8
0
 62
     0
 66
     1
 10
0
 20
0
 30
0.0
 40
0
 41
0
  0
VERTEX
  8
0
 10
2.26329
 20
0.588488
 30
0.0
 40
0
 41
0
  0
VERTEX
  8
0
 10
2.2245
 20
0.603082
 30
0.0
 40
0
 41
0
  0
VERTEX
  8
0
 10
2.23296
 20
0.618815
 30
0.0
 40
0
 41
0
  0
VERTEX
  8
0
 10
2.24875
 20
0.627279
 30
0.0
 40
0
 41
0
  0
VERTEX
  8
0
 10
2.40343
 20
0.627279
 30
0.0
 40
0
 41
0
  0
VERTEX
  8
0
 10
2.41917
 20
0.618815
 30
0.0
 40
0
 41
0
  0
VERTEX
  8
0
 10
2.42768
 20
0.603082
 30
0.0
 40
0
 41
0
  0
VERTEX
  8
0
 10
2.38889
 20
0.588488
 30
0.0
 40
0
 41
0
  0
VERTEX
  8
0
 10
2.26329
 20
0.588488
 30
0.0
 40
0
 41
0
  0
SEQEND
 8
0
  0
ENDSEC
  0
EOF
