<?xml version="1.0" encoding="UTF-8" standalone="no"?>
<svg
   xmlns:dc="http://purl.org/dc/elements/1.1/"
   xmlns:cc="http://creativecommons.org/ns#"
   xmlns:rdf="http://www.w3.org/1999/02/22-rdf-syntax-ns#"
   xmlns:svg="http://www.w3.org/2000/svg"
   xmlns="http://www.w3.org/2000/svg"
   xmlns:sodipodi="http://sodipodi.sourceforge.net/DTD/sodipodi-0.dtd"
   xmlns:inkscape="http://www.inkscape.org/namespaces/inkscape"
   height="1052.3622"
   version="1.1"
   width="744.09448"
   id="svg2"
   inkscape:version="0.47 r22583"
   sodipodi:docname="handlebar box.svg">
  <metadata
     id="metadata854">
    <rdf:RDF>
      <cc:Work
         rdf:about="">
        <dc:format>image/svg+xml</dc:format>
        <dc:type
           rdf:resource="http://purl.org/dc/dcmitype/StillImage" />
        <dc:title />
      </cc:Work>
    </rdf:RDF>
  </metadata>
  <sodipodi:namedview
     pagecolor="#ffffff"
     bordercolor="#666666"
     borderopacity="1"
     objecttolerance="10"
     gridtolerance="10"
     guidetolerance="10"
     inkscape:pageopacity="0"
     inkscape:pageshadow="2"
     inkscape:window-width="1600"
     inkscape:window-height="1125"
     id="namedview852"
     showgrid="true"
     inkscape:zoom="1.1492347"
     inkscape:cx="566.92914"
     inkscape:cy="562.33587"
     inkscape:window-x="0"
     inkscape:window-y="25"
     inkscape:window-maximized="1"
     inkscape:current-layer="svg2"
     inkscape:document-units="mm"
     units="mm"
     inkscape:snap-global="true">
    <inkscape:grid
       type="xygrid"
       id="grid4330"
       empspacing="5"
       visible="true"
       enabled="true"
       snapvisiblegridlinesonly="true"
       units="mm"
       spacingx="5mm"
       spacingy="5mm" />
  </sodipodi:namedview>
  <defs
     id="defs4">
    <inkscape:perspective
       sodipodi:type="inkscape:persp3d"
       inkscape:vp_x="0 : 0.5 : 1"
       inkscape:vp_y="0 : 1000 : 0"
       inkscape:vp_z="1 : 0.5 : 1"
       inkscape:persp3d-origin="0.5 : 0.33333333 : 1"
       id="perspective856" />
    <inkscape:perspective
       id="perspective4283"
       inkscape:persp3d-origin="0.5 : 0.33333333 : 1"
       inkscape:vp_z="1 : 0.5 : 1"
       inkscape:vp_y="0 : 1000 : 0"
       inkscape:vp_x="0 : 0.5 : 1"
       sodipodi:type="inkscape:persp3d" />
    <inkscape:perspective
       id="perspective5898"
       inkscape:persp3d-origin="0.5 : 0.33333333 : 1"
       inkscape:vp_z="1 : 0.5 : 1"
       inkscape:vp_y="0 : 1000 : 0"
       inkscape:vp_x="0 : 0.5 : 1"
       sodipodi:type="inkscape:persp3d" />
    <inkscape:perspective
       id="perspective6133"
       inkscape:persp3d-origin="0.5 : 0.33333333 : 1"
       inkscape:vp_z="1 : 0.5 : 1"
       inkscape:vp_y="0 : 1000 : 0"
       inkscape:vp_x="0 : 0.5 : 1"
       sodipodi:type="inkscape:persp3d" />
    <inkscape:perspective
       id="perspective2971"
       inkscape:persp3d-origin="0.5 : 0.33333333 : 1"
       inkscape:vp_z="1 : 0.5 : 1"
       inkscape:vp_y="0 : 1000 : 0"
       inkscape:vp_x="0 : 0.5 : 1"
       sodipodi:type="inkscape:persp3d" />
    <inkscape:perspective
       id="perspective3036"
       inkscape:persp3d-origin="0.5 : 0.33333333 : 1"
       inkscape:vp_z="1 : 0.5 : 1"
       inkscape:vp_y="0 : 1000 : 0"
       inkscape:vp_x="0 : 0.5 : 1"
       sodipodi:type="inkscape:persp3d" />
    <inkscape:perspective
       id="perspective3877"
       inkscape:persp3d-origin="0.5 : 0.33333333 : 1"
       inkscape:vp_z="1 : 0.5 : 1"
       inkscape:vp_y="0 : 1000 : 0"
       inkscape:vp_x="0 : 0.5 : 1"
       sodipodi:type="inkscape:persp3d" />
  </defs>
  <polyline
     style="fill:none;stroke:#000000;stroke-width:0.1mm"
     id="polyline51"
     points="350.787393,162.992122 471.259831,162.992122"
     transform="translate(0,-2.5390623e-6)" />
  <circle
     style="fill:none;stroke:#000000;stroke-width:0.1mm"
     sodipodi:ry="5.3149605"
     sodipodi:rx="5.3149605"
     sodipodi:cy="180.70866"
     sodipodi:cx="411.02362"
     id="circle53"
     r="5.3149605"
     cy="180.70866"
     cx="411.02362"
     transform="translate(0,-2.5390623e-6)" />
  <rect
     style="fill:none;stroke:#000000;stroke-width:0.1mm"
     id="rect55"
     y="175.39368"
     x="372.04724"
     width="21.259842"
     height="10.629921" />
  <rect
     style="fill:none;stroke:#000000;stroke-width:0.1mm"
     id="rect57"
     y="175.39368"
     x="428.74014"
     width="21.259842"
     height="10.629921" />
  <polyline
     style="fill:none;stroke:#000000;stroke-width:0.1mm"
     id="polyline59"
     points="471.259831,162.992122 471.259831,242.7165295"
     transform="translate(0,-2.5390623e-6)" />
  <polyline
     style="fill:none;stroke:#000000;stroke-width:0.1mm"
     id="polyline61"
     points="471.259831,242.7165295 481.889752,242.7165295"
     transform="translate(0,-2.5390623e-6)" />
  <polyline
     style="fill:none;stroke:#000000;stroke-width:0.1mm"
     id="polyline63"
     points="481.889752,242.7165295 481.889752,256.8897575"
     transform="translate(0,-2.5390623e-6)" />
  <polyline
     style="fill:none;stroke:#000000;stroke-width:0.1mm"
     id="polyline65"
     points="471.259831,256.8897575 481.889752,256.8897575"
     transform="translate(0,-2.5390623e-6)" />
  <polyline
     style="fill:none;stroke:#000000;stroke-width:0.1mm"
     id="polyline67"
     points="471.259831,313.5826695 481.889752,313.5826695"
     transform="translate(0,-2.5390623e-6)" />
  <polyline
     style="fill:none;stroke:#000000;stroke-width:0.1mm"
     id="polyline69"
     points="481.889752,313.5826695 481.889752,299.4094415"
     transform="translate(0,-2.5390623e-6)" />
  <polyline
     style="fill:none;stroke:#000000;stroke-width:0.1mm"
     id="polyline71"
     points="471.259831,299.4094415 481.889752,299.4094415"
     transform="translate(0,-2.5390623e-6)" />
  <polyline
     style="fill:none;stroke:#000000;stroke-width:0.1mm"
     id="polyline73"
     points="471.259831,256.8897575 471.259831,272.834639"
     transform="translate(0,-2.5390623e-6)" />
  <polyline
     style="fill:none;stroke:#000000;stroke-width:0.1mm"
     id="polyline75"
     points="471.259831,272.834639 448.2283355,272.834639"
     transform="translate(0,-2.5390623e-6)" />
  <polyline
     style="fill:none;stroke:#000000;stroke-width:0.1mm"
     id="polyline77"
     points="448.2283355,272.834639 448.2283355,268.05117455"
     transform="translate(0,-2.5390623e-6)" />
  <polyline
     style="fill:none;stroke:#000000;stroke-width:0.1mm"
     id="polyline79"
     points="448.2283355,268.05117455 434.0551075,268.05117455"
     transform="translate(0,-2.5390623e-6)" />
  <polyline
     style="fill:none;stroke:#000000;stroke-width:0.1mm"
     id="polyline81"
     points="434.0551075,268.05117455 434.0551075,272.834639"
     transform="translate(0,-2.5390623e-6)" />
  <polyline
     style="fill:none;stroke:#000000;stroke-width:0.1mm"
     id="polyline83"
     points="434.0551075,272.834639 421.653533,272.834639"
     transform="translate(0,-2.5390623e-6)" />
  <polyline
     style="fill:none;stroke:#000000;stroke-width:0.1mm"
     id="polyline85"
     points="421.653533,272.834639 421.653533,283.46456"
     transform="translate(0,-2.5390623e-6)" />
  <polyline
     style="fill:none;stroke:#000000;stroke-width:0.1mm"
     id="polyline87"
     points="448.2283355,283.46456 448.2283355,288.24802445"
     transform="translate(0,-2.5390623e-6)" />
  <polyline
     style="fill:none;stroke:#000000;stroke-width:0.1mm"
     id="polyline89"
     points="448.2283355,288.24802445 434.0551075,288.24802445"
     transform="translate(0,-2.5390623e-6)" />
  <polyline
     style="fill:none;stroke:#000000;stroke-width:0.1mm"
     id="polyline91"
     points="434.0551075,288.24802445 434.0551075,283.46456"
     transform="translate(0,-2.5390623e-6)" />
  <polyline
     style="fill:none;stroke:#000000;stroke-width:0.1mm"
     id="polyline93"
     points="434.0551075,283.46456 421.653533,283.46456"
     transform="translate(0,-2.5390623e-6)" />
  <polyline
     style="fill:none;stroke:#000000;stroke-width:0.1mm"
     id="polyline95"
     points="448.2283355,283.46456 471.259831,283.46456"
     transform="translate(0,-2.5390623e-6)" />
  <polyline
     style="fill:none;stroke:#000000;stroke-width:0.1mm"
     id="polyline97"
     points="471.259831,283.46456 471.259831,299.4094415"
     transform="translate(0,-2.5390623e-6)" />
  <polyline
     style="fill:none;stroke:#000000;stroke-width:0.1mm"
     id="polyline99"
     points="471.259831,313.5826695 471.259831,393.307077"
     transform="translate(0,-2.5390623e-6)" />
  <polyline
     style="fill:none;stroke:#000000;stroke-width:0.1mm"
     id="polyline101"
     points="350.787393,393.307077 471.259831,393.307077"
     transform="translate(0,-2.5390623e-6)" />
  <circle
     style="fill:none;stroke:#000000;stroke-width:0.1mm"
     sodipodi:ry="5.3149605"
     sodipodi:rx="5.3149605"
     sodipodi:cy="375.59055"
     sodipodi:cx="411.02362"
     id="circle103"
     r="5.3149605"
     cy="375.59055"
     cx="411.02362"
     transform="translate(0,-2.5390623e-6)" />
  <rect
     style="fill:none;stroke:#000000;stroke-width:0.1mm"
     id="rect105"
     y="370.27551"
     x="372.04724"
     width="21.259842"
     height="10.629921" />
  <rect
     style="fill:none;stroke:#000000;stroke-width:0.1mm"
     id="rect107"
     y="370.27551"
     x="428.74014"
     width="21.259842"
     height="10.629921" />
  <polyline
     style="fill:none;stroke:#000000;stroke-width:0.1mm"
     id="polyline109"
     points="350.787393,162.992122 350.787393,242.7165295"
     transform="translate(0,-2.5390623e-6)" />
  <polyline
     style="fill:none;stroke:#000000;stroke-width:0.1mm"
     id="polyline111"
     points="350.787393,242.7165295 340.157472,242.7165295"
     transform="translate(0,-2.5390623e-6)" />
  <polyline
     style="fill:none;stroke:#000000;stroke-width:0.1mm"
     id="polyline113"
     points="340.157472,242.7165295 340.157472,256.8897575"
     transform="translate(0,-2.5390623e-6)" />
  <polyline
     style="fill:none;stroke:#000000;stroke-width:0.1mm"
     id="polyline115"
     points="350.787393,256.8897575 340.157472,256.8897575"
     transform="translate(0,-2.5390623e-6)" />
  <polyline
     style="fill:none;stroke:#000000;stroke-width:0.1mm"
     id="polyline117"
     points="350.787393,313.5826695 340.157472,313.5826695"
     transform="translate(0,-2.5390623e-6)" />
  <polyline
     style="fill:none;stroke:#000000;stroke-width:0.1mm"
     id="polyline119"
     points="340.157472,313.5826695 340.157472,299.4094415"
     transform="translate(0,-2.5390623e-6)" />
  <polyline
     style="fill:none;stroke:#000000;stroke-width:0.1mm"
     id="polyline121"
     points="350.787393,299.4094415 340.157472,299.4094415"
     transform="translate(0,-2.5390623e-6)" />
  <polyline
     style="fill:none;stroke:#000000;stroke-width:0.1mm"
     id="polyline123"
     points="350.787393,256.8897575 350.787393,272.834639"
     transform="translate(0,-2.5390623e-6)" />
  <polyline
     style="fill:none;stroke:#000000;stroke-width:0.1mm"
     id="polyline125"
     points="350.787393,272.834639 373.8188885,272.834639"
     transform="translate(0,-2.5390623e-6)" />
  <polyline
     style="fill:none;stroke:#000000;stroke-width:0.1mm"
     id="polyline127"
     points="373.8188885,272.834639 373.8188885,268.05117455"
     transform="translate(0,-2.5390623e-6)" />
  <polyline
     style="fill:none;stroke:#000000;stroke-width:0.1mm"
     id="polyline129"
     points="373.8188885,268.05117455 387.9921165,268.05117455"
     transform="translate(0,-2.5390623e-6)" />
  <polyline
     style="fill:none;stroke:#000000;stroke-width:0.1mm"
     id="polyline131"
     points="387.9921165,268.05117455 387.9921165,272.834639"
     transform="translate(0,-2.5390623e-6)" />
  <polyline
     style="fill:none;stroke:#000000;stroke-width:0.1mm"
     id="polyline133"
     points="387.9921165,272.834639 400.393691,272.834639"
     transform="translate(0,-2.5390623e-6)" />
  <polyline
     style="fill:none;stroke:#000000;stroke-width:0.1mm"
     id="polyline135"
     points="400.393691,272.834639 400.393691,283.46456"
     transform="translate(0,-2.5390623e-6)" />
  <polyline
     style="fill:none;stroke:#000000;stroke-width:0.1mm"
     id="polyline137"
     points="373.8188885,283.46456 373.8188885,288.24802445"
     transform="translate(0,-2.5390623e-6)" />
  <polyline
     style="fill:none;stroke:#000000;stroke-width:0.1mm"
     id="polyline139"
     points="373.8188885,288.24802445 387.9921165,288.24802445"
     transform="translate(0,-2.5390623e-6)" />
  <polyline
     style="fill:none;stroke:#000000;stroke-width:0.1mm"
     id="polyline141"
     points="387.9921165,288.24802445 387.9921165,283.46456"
     transform="translate(0,-2.5390623e-6)" />
  <polyline
     style="fill:none;stroke:#000000;stroke-width:0.1mm"
     id="polyline143"
     points="387.9921165,283.46456 400.393691,283.46456"
     transform="translate(0,-2.5390623e-6)" />
  <polyline
     style="fill:none;stroke:#000000;stroke-width:0.1mm"
     id="polyline145"
     points="373.8188885,283.46456 350.787393,283.46456"
     transform="translate(0,-2.5390623e-6)" />
  <polyline
     style="fill:none;stroke:#000000;stroke-width:0.1mm"
     id="polyline147"
     points="350.787393,283.46456 350.787393,299.4094415"
     transform="translate(0,-2.5390623e-6)" />
  <polyline
     style="fill:none;stroke:#000000;stroke-width:0.1mm"
     id="polyline149"
     points="350.787393,313.5826695 350.787393,393.307077"
     transform="translate(0,-2.5390623e-6)" />
  <g
     id="g5931"
     transform="translate(-88.582678,7.0866151)">
    <path
       id="polyline293"
       style="fill:none;stroke:#000000;stroke-width:0.1mm"
       d="m 931.88976,175.3937 -35.43307,0 -21.25985,0 0,10.62992 21.25985,0 35.43307,0 21.25984,0 0,-10.62992 -21.25984,0 z m -77.95277,138.18897 0,79.72441 m 0,-109.84252 0,15.94488 m 23.03149,-15.94488 -23.03149,0 m 37.20472,0 12.40157,0 m -12.40157,4.78346 0,-4.78346 m -14.17323,4.78346 14.17323,0 m -14.17323,-4.78346 0,4.78346 m 26.5748,-15.41338 0,10.62992 m -12.40157,-10.62992 12.40157,0 m -12.40157,-4.78347 0,4.78347 m -14.17323,-4.78347 14.17323,0 m -14.17323,4.78347 0,-4.78347 m -23.03149,4.78347 23.03149,0 m -23.03149,-15.94488 0,15.94488 m 0,26.5748 -10.62992,0 m 0,14.17323 0,-14.17323 m 10.62992,14.17323 -10.62992,0 m 10.62992,-56.69291 -10.62992,0 m 0,-14.17323 0,14.17323 m 10.62992,-14.17323 -10.62992,0 m 10.62992,-79.72441 0,79.72441 m 99.21261,127.55895 0,10.62992 0,-10.62992 z m -77.95276,0 0,10.62992 0,-10.62992 z m -21.25985,23.0316 120.47244,0 m 0,-79.72441 0,79.72441 m 0,-109.84252 0,15.94488 m -23.0315,-15.94488 23.0315,0 m -37.20473,0 -12.40157,0 m 12.40157,4.78346 0,-4.78346 m 14.17323,4.78346 -14.17323,0 m 14.17323,-4.78346 0,4.78346 m -26.5748,-15.41338 0,10.62992 m 12.40157,-10.62992 -12.40157,0 m 12.40157,-4.78347 0,4.78347 m 14.17323,-4.78347 -14.17323,0 m 14.17323,4.78347 0,-4.78347 m 23.0315,4.78347 -23.0315,0 m 23.0315,-15.94488 0,15.94488 m 0,26.5748 10.62992,0 m 0,14.17323 0,-14.17323 m -10.62992,14.17323 10.62992,0 m -10.62992,-56.69291 10.62992,0 m 0,-14.17323 0,14.17323 m -10.62992,-14.17323 10.62992,0 m -10.62992,-79.72441 0,79.72441 m -120.47244,-79.72441 120.47244,0"
       sodipodi:nodetypes="ccccccccccccccccccccccccccccccccccccccccccccccccccccccccccccccccccccccccccccccccccccccccccccccccccccccc"
       transform="matrix(0,1,-1,0,1128.5433,-853.93701)" />
  </g>
  <g
     id="g5924"
     transform="translate(-189.56692,-5.3149986)">
    <path
       sodipodi:nodetypes="cccccccccccccccccccccccccccccccccccccccccccccccccccccccccccccccccccccccccccccccccccccccccccccccccccccccccccccccccccccccccccccccccccccccc"
       d="m 721.06297,141.7323 42.51969,0 m -201.9685,0 42.51968,0 M 721.06297,-2.5390627e-6 l 42.51969,0 m -201.9685,0 42.51968,0 M 526.18109,106.2992 l 0,24.8032 m 0,-54.921303 0,15.9449 m 23.03149,-15.9449 -23.03149,0 m 37.20472,0 12.40158,0 m -12.40158,4.7835 0,-4.7835 m -14.17323,4.7835 14.17323,0 m -14.17323,-4.7835 0,4.7835 m 26.57481,-15.4134 0,10.6299 m -12.40158,-10.6299 12.40158,0 m -12.40158,-4.7835 0,4.7835 m -14.17323,-4.7835 14.17323,0 m -14.17323,4.7835 0,-4.7835 m -23.03149,4.7835 23.03149,0 m -23.03149,-15.9449 0,15.9449 m 0,26.5748 -10.62992,0 m 0,14.173203 0,-14.173203 m 10.62992,14.173203 -10.62992,0 m 10.62992,-56.692903 -10.62992,0 m 0,-14.1732 0,14.1732 m 10.62992,-14.1732 -10.62992,0 m 10.62992,-24.8032 0,24.8032 m 251.5748,95.669303 21.25984,0 m -21.25984,0 0,10.6299 m -14.17323,0 14.17323,0 m -70.86614,0 14.17322,0 m -14.17322,-10.6299 0,10.6299 m -88.58268,-10.6299 0,10.6299 m -14.17323,0 14.17323,0 m -70.86614,0 14.17323,0 m -14.17323,-10.6299 0,10.6299 m 70.86614,-10.6299 88.58268,0 m -180.70866,0 21.25984,0 m 251.5748,-24.8032 0,24.8032 m 0,-54.921303 0,15.9449 m -23.0315,-15.9449 23.0315,0 m -37.20472,0 -12.40158,0 m 12.40158,4.7835 0,-4.7835 m 14.17322,4.7835 -14.17322,0 m 14.17322,-4.7835 0,4.7835 m -26.5748,-15.4134 0,10.6299 m 12.40158,-10.6299 -12.40158,0 m 12.40158,-4.7835 0,4.7835 m 14.17322,-4.7835 -14.17322,0 m 14.17322,4.7835 0,-4.7835 m 23.0315,4.7835 -23.0315,0 m 23.0315,-15.9449 0,15.9449 m 0,26.5748 10.62992,0 m 0,14.173203 0,-14.173203 m -10.62992,14.173203 10.62992,0 m -10.62992,-56.692903 10.62992,0 m 0,-14.1732 0,14.1732 m -10.62992,-14.1732 10.62992,0 m -10.62992,-24.8032 0,24.8032 m -21.25984,-24.8032 21.25984,0 m -21.25984,0 0,-10.6298995390627 m -14.17323,0 14.17323,0 m -70.86614,0 14.17322,0 M 706.88975,10.629897 l 0,-10.6298995390627 M 618.30707,10.629897 l 0,-10.6298995390627 m -14.17323,0 14.17323,0 m -70.86614,0 14.17323,0 M 547.44093,10.629897 l 0,-10.6298995390627 M 618.30707,10.629897 l 88.58268,0 m -180.70866,0 21.25984,0"
       style="fill:none;stroke:#000000;stroke-width:0.1mm"
       id="polyline541" />
    <g
       style="fill:none;stroke:#000000;stroke-width:0.35433072;stroke-miterlimit:4;stroke-opacity:1;stroke-dasharray:none"
       transform="translate(-0.87008033,1.3147975)"
       id="g4309">
      <path
         sodipodi:type="arc"
         style="fill:none;stroke:#000000;stroke-width:0.41074634;stroke-miterlimit:4;stroke-opacity:1;stroke-dasharray:none"
         id="path3736"
         sodipodi:cx="-1479.3307"
         sodipodi:cy="-81.496086"
         sodipodi:rx="44.29134"
         sodipodi:ry="53.149605"
         d="m -1435.0393,-81.496086 c 0,29.353716 -19.83,53.149605 -44.2914,53.149605 -24.4614,0 -44.2913,-23.795889 -44.2913,-53.149605 0,-29.353714 19.8299,-53.149604 44.2913,-53.149604 24.4614,0 44.2914,23.79589 44.2914,53.149604 z"
         transform="matrix(0.94999997,0,0,0.78333336,2068.8326,133.38996)" />
      <path
         sodipodi:type="arc"
         style="fill:none;stroke:#000000;stroke-width:0.57150114;stroke-miterlimit:4;stroke-opacity:1;stroke-dasharray:none"
         id="path3741"
         sodipodi:cx="-1567.9133"
         sodipodi:cy="-161.22049"
         sodipodi:rx="8.8582678"
         sodipodi:ry="8.8582678"
         d="m -1559.0551,-161.22049 c 0,4.89229 -3.9659,8.85827 -8.8582,8.85827 -4.8923,0 -8.8583,-3.96598 -8.8583,-8.85827 0,-4.89229 3.966,-8.85827 8.8583,-8.85827 4.8923,0 8.8582,3.96598 8.8582,8.85827 z"
         transform="matrix(0.62,0,0,0.62,1600.2302,125.92538)" />
      <path
         transform="matrix(0.62,0,0,0.62,1670.9192,213.09074)"
         d="m -1559.0551,-161.22049 c 0,4.89229 -3.9659,8.85827 -8.8582,8.85827 -4.8923,0 -8.8583,-3.96598 -8.8583,-8.85827 0,-4.89229 3.966,-8.85827 8.8583,-8.85827 4.8923,0 8.8582,3.96598 8.8582,8.85827 z"
         sodipodi:ry="8.8582678"
         sodipodi:rx="8.8582678"
         sodipodi:cy="-161.22049"
         sodipodi:cx="-1567.9133"
         id="path4431"
         style="fill:none;stroke:#000000;stroke-width:0.57150114;stroke-miterlimit:4;stroke-opacity:1;stroke-dasharray:none"
         sodipodi:type="arc" />
    </g>
  </g>
  <path
     id="path4340"
     style="fill:none;stroke:#000000;stroke-width:0.35433072;stroke-miterlimit:4;stroke-opacity:1;stroke-dasharray:none"
     d="m 719.83532,214.66373 c -2.2424,0 -4.0313,1.79484 -4.0313,4.03125 l 0,12.78125 c -4.8923,0 -8.875,3.98272 -8.875,8.875 0,4.89229 3.9827,8.84375 8.875,8.84375 l 0,12.8125 c 0,2.23641 1.7889,4.03125 4.0313,4.03125 l 39.75,0 c 2.2423,0 4.0624,-1.79484 4.0624,-4.03125 l 0,-12.8125 c 4.8923,0 8.8438,-3.95146 8.8438,-8.84375 0,-4.89228 -3.9515,-8.875 -8.8438,-8.875 l 0,-12.78125 c 0,-2.23641 -1.8201,-4.03125 -4.0624,-4.03125 l -39.75,0 z m -42.17787,26.5069 c 0,8.31688 -6.74211,15.05905 -15.05902,15.05905 -8.31691,0 -15.05903,-6.74217 -15.05903,-15.05905 0,-8.31689 6.74212,-15.05906 15.05903,-15.05906 8.31691,0 15.05902,6.74217 15.05902,15.05906 z M 565.61159,214.07955 c -2.2424,0 -4.0313,1.79484 -4.0313,4.03125 l 0,12.78125 c -4.8923,0 -8.875,3.98272 -8.875,8.875 0,4.89229 3.9827,8.84375 8.875,8.84375 l 0,12.8125 c 0,2.23641 1.7889,4.03125 4.0313,4.03125 l 39.75,0 c 2.2423,0 4.0624,-1.79484 4.0624,-4.03125 l 0,-12.8125 c 4.8923,0 8.8438,-3.95146 8.8438,-8.84375 0,-4.89228 -3.9515,-8.875 -8.8438,-8.875 l 0,-12.78125 c 0,-2.23641 -1.8201,-4.03125 -4.0624,-4.03125 l -39.75,0 z m -50.06044,81.78654 10.62992,0 0,21.25984 -10.62992,0 0,-21.25984 z m 0,-56.69287 10.62992,0 0,21.25984 -10.62992,0 0,-21.25984 z m 10.62996,38.97638 c 0,2.93537 -2.37959,5.31496 -5.31496,5.31496 -2.93537,0 -5.31496,-2.37959 -5.31496,-5.31496 0,-2.93537 2.37959,-5.31496 5.31496,-5.31496 2.93537,0 5.31496,2.37959 5.31496,5.31496 z m -23.03152,-115.15748 0,230.31496 m 256.88978,-23.03157 21.25984,0 0,10.62992 -21.25984,0 0,-10.62992 z m -56.69293,0 21.25984,0 0,10.62992 -21.25984,0 0,-10.62992 z m -102.75592,0 21.25984,0 0,10.62992 -21.25984,0 0,-10.62992 z m -56.69288,0 21.25985,0 0,10.62992 -21.25985,0 0,-10.62992 z m -40.74805,23.03157 318.89763,0 m -23.03147,-97.44099 10.62992,0 0,21.25984 -10.62992,0 0,-21.25984 z m 0,-56.69287 10.62992,0 0,21.25984 -10.62992,0 0,-21.25984 z m 10.6299,38.97638 c 0,2.93537 -2.37959,5.31496 -5.31496,5.31496 -2.93537,0 -5.31496,-2.37959 -5.31496,-5.31496 0,-2.93537 2.37959,-5.31496 5.31496,-5.31496 2.93537,0 5.31496,2.37959 5.31496,5.31496 z m 12.40157,-115.15748 0,230.31496 m -62.00785,-217.9134 21.25984,0 0,10.62992 -21.25984,0 0,-10.62992 z m -56.69293,0 21.25984,0 0,10.62992 -21.25984,0 0,-10.62992 z m -102.75592,0 21.25984,0 0,10.62992 -21.25984,0 0,-10.62992 z m -56.69288,0 21.25985,0 0,10.62992 -21.25985,0 0,-10.62992 z m -40.74805,-12.40156 318.89763,0" />
  <path
     id="polyline541-1"
     style="fill:none;stroke:#000000;stroke-width:0.1mm"
     d="m 297.63779,38.976357 0,42.5197 m -294.0944791,-42.5197 0,42.5197 m 205.5117991,49.606303 42.51969,0 m -201.968499,0 42.519684,0 m 116.929125,-141.732303 42.51969,0 m -201.968499,0 42.519684,0 m -77.952754,106.299205 0,24.803198 M 3.5433109,95.669262 l 0,-14.173205 m 10.6299201,14.173205 -10.6299201,0 m 0,-70.866106 0,14.173201 m 10.6299201,-14.173201 -10.6299201,0 M 14.173231,-4.3667064e-5 l 0,24.803199667064 m 251.574799,95.669304 21.25984,0 m -21.25984,0 0,10.6299 m -14.17323,0 14.17323,0 m -70.86614,0 14.17322,0 m -14.17322,-10.6299 0,10.6299 m -88.58268,-10.6299 0,10.6299 m -14.173225,0 14.173225,0 m -70.866139,0 14.17323,0 m -14.17323,-10.6299 0,10.6299 m 70.866139,-10.6299 88.58268,0 m -180.708659,0 21.25984,0 m 251.574799,-24.803198 0,24.803198 m 10.62992,-24.803198 0,-14.173205 m -10.62992,14.173205 10.62992,0 m 0,-70.866106 0,14.173201 m -10.62992,-14.173201 10.62992,0 M 287.00787,-4.3667064e-5 287.00787,24.803156 M 265.74803,-4.3667064e-5 l 21.25984,0 m -21.25984,0 0,-10.629899332936 m -14.17323,0 14.17323,0 m -70.86614,0 14.17322,0 m -14.17322,10.629899332936 0,-10.629899332936 m -88.58268,10.629899332936 0,-10.629899332936 m -14.173225,0 14.173225,0 m -70.866139,0 14.17323,0 m -14.17323,10.629899332936 0,-10.629899332936 m 70.866139,10.629899332936 88.58268,0 m -180.708659,0 21.25984,0"
     sodipodi:nodetypes="cccccccccccccccccccccccccccccccccccccccccccccccccccccccccccccccccccccccccccccccc" />
  <path
     id="path4340-1"
     style="fill:none;stroke:#000000;stroke-width:0.35433072;stroke-miterlimit:4;stroke-opacity:1;stroke-dasharray:none"
     d="m 17.716528,294.0945 10.62992,0 0,21.25984 -10.62992,0 0,-21.25984 z m 0,-56.69287 10.62992,0 0,21.25984 -10.62992,0 0,-21.25984 z m 10.62996,38.97638 c 0,2.93537 -2.37959,5.31496 -5.31496,5.31496 -2.93537,0 -5.31496,-2.37959 -5.31496,-5.31496 0,-2.93537 2.37959,-5.31496 5.31496,-5.31496 2.93537,0 5.31496,2.37959 5.31496,5.31496 z m -23.03152,-115.15748 0,230.31496 m 256.889792,-23.03157 21.25984,0 0,10.62992 -21.25984,0 0,-10.62992 z m -56.69293,0 21.25984,0 0,10.62992 -21.25984,0 0,-10.62992 z m -102.75593,0 21.25985,0 0,10.62992 -21.25985,0 0,-10.62992 z m -56.692882,0 21.25985,0 0,10.62992 -21.25985,0 0,-10.62992 z m -40.74805,23.03157 318.897642,0 m -23.03147,-97.44099 10.62992,0 0,21.25984 -10.62992,0 0,-21.25984 z m 0,-56.69287 10.62992,0 0,21.25984 -10.62992,0 0,-21.25984 z m 10.6299,38.97638 c 0,2.93537 -2.37959,5.31496 -5.31496,5.31496 -2.93537,0 -5.31496,-2.37959 -5.31496,-5.31496 0,-2.93537 2.37959,-5.31496 5.31496,-5.31496 2.93537,0 5.31496,2.37959 5.31496,5.31496 z m 12.40157,-115.15748 0,230.31496 m -62.00785,-217.9134 21.25984,0 0,10.62992 -21.25984,0 0,-10.62992 z m -56.69293,0 21.25984,0 0,10.62992 -21.25984,0 0,-10.62992 z m -102.75593,0 21.25985,0 0,10.62992 -21.25985,0 0,-10.62992 z m -56.692882,0 21.25985,0 0,10.62992 -21.25985,0 0,-10.62992 z m -40.74805,-12.40156 318.897642,0"
     sodipodi:nodetypes="cccccccccccsssccccccccccccccccccccccccccccccccccccsssccccccccccccccccccccccccc" />
  <path
     sodipodi:type="arc"
     style="opacity:0.81000001;fill:none;stroke:#000000;stroke-width:0.35433072;stroke-miterlimit:4;stroke-opacity:1;stroke-dasharray:none"
     id="path6269"
     sodipodi:cx="-97.440948"
     sodipodi:cy="228.54329"
     sodipodi:rx="8.8582678"
     sodipodi:ry="26.574802"
     d="m -88.582681,228.54329 a 8.8582678,26.574802 0 1 1 -17.716539,0 8.8582678,26.574802 0 1 1 17.716539,0 z"
     transform="matrix(0.79086784,0,0,0.26362262,156.23393,216.12883)" />
  <text
     xml:space="preserve"
     style="font-size:11px;font-style:normal;font-weight:normal;fill:#000000;fill-opacity:1;stroke:none;font-family:Bitstream Vera Sans"
     x="201.01416"
     y="221.39815"
     id="text2884"><tspan
       sodipodi:role="line"
       id="tspan2886"
       x="201.01416"
       y="221.39815">maintenance:</tspan><tspan
       sodipodi:role="line"
       x="201.01416"
       y="235.14815"
       id="tspan2888">mattvenn</tspan></text>
  <path
     style="fill:none;stroke:#000000;stroke-width:0.19738504;stroke-opacity:1"
     d="m 567.06338,337.37081 c -1.65364,-0.32915 -3.70355,-1.29434 -4.75058,-2.23678 -1.5143,-1.36301 -2.71064,-3.78906 -3.02056,-6.12532 l -0.13609,-1.02591 1.65087,0.0578 1.65089,0.0578 0.21916,0.98692 c 0.668,3.00823 2.41468,4.7217 5.66426,5.55662 0.87495,0.2248 1.68699,0.28379 2.8097,0.20409 4.23617,-0.30075 6.83539,-2.21342 6.8621,-5.04956 0.0151,-1.59273 -0.48139,-2.47911 -1.94621,-3.4753 -1.24063,-0.8437 -2.09721,-1.11996 -7.3832,-2.38118 -6.28207,-1.49886 -8.48756,-3.44444 -8.48756,-7.4873 0,-2.01409 0.53196,-3.37219 1.84345,-4.70634 1.89851,-1.93131 4.64765,-2.88515 8.32975,-2.89008 3.39094,-0.005 5.79944,0.82878 7.64006,2.64336 0.98381,0.96989 1.99628,2.88167 2.20497,4.16352 0.0707,0.43424 0.17698,1.0338 0.23617,1.33235 l 0.10767,0.5428 -1.68451,0 -1.68451,0 -0.1326,-0.7402 c -0.62133,-3.46837 -3.51507,-5.37803 -7.78086,-5.13481 -1.83624,0.10472 -3.55679,0.71176 -4.5158,1.59329 -1.25052,1.14951 -1.58853,3.46879 -0.69701,4.78252 0.28115,0.41429 0.74234,0.93743 1.02487,1.1625 0.91414,0.72828 3.18818,1.49874 6.81267,2.3082 4.08763,0.91291 5.1102,1.27603 6.63485,2.35603 1.9795,1.40221 2.78107,3.01939 2.78107,5.61086 0,2.17103 -0.48112,3.48316 -1.81062,4.93784 -1.21895,1.33372 -3.50459,2.51209 -5.73103,2.95463 -1.82687,0.36313 -4.89169,0.36391 -6.71133,10e-4 z m 25.32805,-0.0118 c -2.54599,-0.68468 -4.18282,-1.90999 -5.17375,-3.87303 -1.18758,-2.35257 -1.21702,-2.66132 -1.30878,-13.72751 l -0.0839,-10.11598 1.69337,0 1.69336,0 0,8.86805 c 0,5.0849 0.0885,9.52672 0.20736,10.41205 0.50372,3.75077 2.38978,5.55952 6.15277,5.90051 3.54772,0.32149 6.26219,-1.2003 7.77083,-4.35649 1.31428,-2.74956 1.32812,-2.86985 1.41407,-12.28721 l 0.0779,-8.53691 1.66302,0 1.66301,0 0,13.61956 0,13.61958 -1.57907,0 -1.57908,0 0,-2.40247 0,-2.40246 -0.63878,0.97142 c -1.40034,2.12954 -3.56047,3.68082 -6.00212,4.31035 -1.50618,0.38834 -4.52722,0.38861 -5.97025,5.9e-4 z m 28.84617,0.0933 c -2.57474,-0.42907 -5.11367,-2.01296 -6.38854,-3.98542 -0.81696,-1.264 -1.50681,-3.2383 -1.60009,-4.5794 l -0.055,-0.78954 1.60342,-0.057 c 1.52634,-0.0541 1.60924,-0.0352 1.72442,0.39478 0.0666,0.24843 0.12229,0.62934 0.12385,0.84647 0.005,0.66346 1.08785,2.72461 1.79859,3.42286 2.60909,2.56327 7.98075,2.8863 11.4761,0.69014 2.06197,-1.29555 2.6599,-4.20423 1.24611,-6.06168 -0.97288,-1.27819 -2.58086,-1.96843 -6.93381,-2.97639 -6.32061,-1.46359 -8.31181,-2.50931 -9.57753,-5.02983 -0.5499,-1.09507 -0.73167,-3.37963 -0.3713,-4.66675 0.39632,-1.4155 1.56512,-3.05127 2.77274,-3.88052 1.78225,-1.22384 3.63819,-1.76288 6.46358,-1.87728 3.62668,-0.14684 5.61422,0.36438 7.71375,1.98407 1.42856,1.10207 2.29243,2.45821 2.77982,4.36393 0.6137,2.39953 0.67506,2.28703 -1.24722,2.28703 l -1.64636,0 -0.24216,-1.08208 c -0.46924,-2.09683 -1.32077,-3.14251 -3.33927,-4.10064 -2.30809,-1.09559 -5.85877,-0.93514 -8.07731,0.36501 -2.14681,1.25812 -2.67249,4.07728 -1.08744,5.83175 1.26036,1.39506 2.61309,1.90168 8.59462,3.2188 3.50308,0.77137 4.90362,1.39201 6.30608,2.79446 2.85835,2.85836 2.7073,7.54499 -0.33563,10.41351 -0.92144,0.86863 -3.57009,2.06555 -5.30397,2.39685 -1.66762,0.31865 -4.72595,0.35536 -6.39753,0.0768 z m 65.52429,-0.0684 c -3.47809,-0.79364 -5.7634,-3.0004 -6.34057,-6.12266 -0.29564,-1.59922 -0.26973,-2.69789 0.097,-4.11299 0.4143,-1.59887 0.68983,-2.09354 1.76487,-3.16858 1.70485,-1.70485 4.30968,-2.57118 9.56884,-3.18248 2.98578,-0.34706 4.10629,-0.58913 5.16831,-1.11651 1.0339,-0.51344 1.34539,-1.05471 1.34539,-2.3379 0,-1.43071 -0.48654,-2.33187 -1.5987,-2.96106 -0.77544,-0.43867 -1.09094,-0.49077 -2.94115,-0.48564 -2.23265,0.006 -3.1463,0.2982 -4.08632,1.30596 -0.50329,0.53956 -1.04569,1.74784 -1.04569,2.32945 0,0.38924 -0.11171,0.4011 -3.77794,0.4011 l -3.77793,0 0.11324,-1.09752 c 0.14036,-1.35988 1.04039,-3.32504 2.01892,-4.40815 2.20406,-2.43963 5.64356,-3.5753 10.81978,-3.57254 4.82068,0.002 7.79027,0.78648 9.83119,2.59525 0.84238,0.74655 1.69818,2.34755 1.92852,3.60779 0.1325,0.72492 0.21537,4.48563 0.21749,9.86925 0.004,8.49208 0.10021,10.11428 0.69334,11.6138 0.12996,0.32857 -0.0933,0.34652 -3.6841,0.29608 l -3.82244,-0.0537 -0.23461,-0.95054 c -0.12903,-0.5228 -0.26418,-1.03928 -0.30033,-1.14773 -0.0361,-0.10851 -0.47566,0.11584 -0.97669,0.4984 -1.13067,0.86333 -2.66419,1.59127 -4.21254,1.99961 -1.69404,0.44678 -5.23103,0.55199 -6.76787,0.20129 z m 7.74025,-5.03397 c 1.92978,-0.44756 3.45604,-2.24433 3.83003,-4.50886 0.24887,-1.50705 0.30334,-3.37113 0.113,-3.8672 -0.10187,-0.26543 -0.18936,-0.27141 -0.6415,-0.0438 -0.68307,0.34377 -1.24258,0.47269 -4.01302,0.92469 -2.22996,0.36384 -4.0639,0.91685 -4.72639,1.42522 -0.75003,0.57556 -1.15845,1.59428 -1.15921,2.8914 -9.9e-4,1.842 0.59822,2.59894 2.56527,3.24009 0.51331,0.16731 3.22353,0.12598 4.03184,-0.0615 z m 55.47975,5.02378 c -5.34332,-0.98489 -8.67097,-3.98144 -9.1125,-8.20582 l -0.12215,-1.16866 3.53435,0 3.53434,0 0.24066,1.01314 c 0.32599,1.37238 1.0124,2.20435 2.36778,2.8699 0.92539,0.45441 1.457,0.57093 2.86085,0.627 3.47678,0.13889 5.64558,-1.42943 5.20731,-3.76558 -0.30878,-1.6459 -1.81573,-2.3366 -8.51064,-3.90071 -3.90797,-0.91299 -5.40078,-1.57377 -6.89003,-3.0498 -1.38736,-1.37505 -1.78346,-2.53413 -1.6459,-4.8163 0.24017,-3.9844 2.21628,-6.30193 6.46209,-7.57858 1.88811,-0.56774 7.03896,-0.71497 9.261,-0.26474 3.32059,0.67284 4.92055,1.58692 6.65931,3.80452 0.59708,0.76152 1.44094,3.07035 1.44671,3.95824 l 0.005,0.64151 -3.55294,0 c -3.44447,0 -3.55293,-0.0123 -3.55293,-0.40264 0,-0.51482 -0.63666,-1.76703 -1.12119,-2.20518 -1.49308,-1.35021 -5.8645,-1.48772 -7.35751,-0.23143 -0.4145,0.34878 -0.61645,0.73487 -0.70972,1.35688 -0.16598,1.10682 0.3431,1.88938 1.65577,2.54519 1.01638,0.50781 0.89561,0.47386 5.06534,1.42395 3.79503,0.86473 5.68162,1.49683 7.1905,2.40919 2.39711,1.44944 3.29741,3.30709 3.12204,6.44191 -0.16236,2.90189 -1.13129,4.71508 -3.4163,6.39297 -1.43081,1.05065 -3.04745,1.6677 -5.52659,2.10945 -1.91403,0.34104 -5.23086,0.33898 -7.09382,-0.005 z m -101.15984,-0.22319 c -2.58023,-0.37674 -4.12098,-1.02277 -5.10085,-2.13879 -1.34189,-1.52833 -1.30483,-1.22275 -1.37116,-11.30562 l -0.0601,-9.12907 -2.26665,0 -2.26663,0 0.0552,-2.51665 0.0552,-2.51666 2.22058,-0.0558 2.22058,-0.0558 0,-4.03992 0,-4.03993 3.75031,0 3.75032,0 0,4.04082 0,4.04082 2.71404,0.055 2.71405,0.055 0.0552,2.51666 0.0552,2.51666 -2.77798,0 -2.77797,0 0.058,7.69375 0.058,7.69375 0.51201,0.51179 c 0.66648,0.66619 1.92597,0.93798 3.58373,0.77332 l 1.33235,-0.13233 0,2.95184 0,2.95185 -1.51016,0.12765 c -1.54224,0.13037 -4.11681,0.13132 -5.00354,0.002 z m 11.10156,-13.93787 0.0507,-13.66892 3.45424,0 3.45423,0 0.0987,2.43742 0.0987,2.43743 0.78954,-1.23043 c 1.64182,-2.55863 4.36859,-4.12612 7.46593,-4.29179 1.05972,-0.0567 1.82137,-0.0135 1.94507,0.11016 0.15225,0.15225 0.27703,5.13503 0.16945,6.76635 -0.004,0.0607 -1.00653,0.10507 -2.22785,0.0987 -2.9404,-0.0153 -3.97965,0.33428 -5.49274,1.84736 -2.08255,2.08256 -2.34981,3.50315 -2.35182,12.50089 l -10e-4,6.66175 -3.75167,0 -3.75166,0 0.0507,-13.66891 z m 51.4695,0.0531 0,-13.61581 0.44411,-0.10957 c 0.24427,-0.0603 1.82088,-0.0842 3.50359,-0.0531 l 3.05947,0.0565 0.0567,1.82794 0.0567,1.82794 1.32491,-1.33522 c 2.3666,-2.38501 4.36702,-3.11457 8.14449,-2.9703 5.29045,0.20206 7.8733,2.39428 8.78863,7.45943 0.20023,1.10804 0.26926,3.87586 0.27441,11.00422 l 0.007,9.52383 -3.75032,0 -3.75031,0 -0.004,-8.14213 c -0.002,-4.47818 -0.0923,-8.76391 -0.20024,-9.52383 -0.40281,-2.83476 -1.71763,-4.25761 -4.07296,-4.40758 -3.6172,-0.23033 -5.59463,1.35248 -6.1776,4.94476 -0.11253,0.69321 -0.20176,4.74001 -0.20259,9.18403 l -10e-4,7.94475 -3.75032,0 -3.75033,0 0,-13.61581 z"
     id="path3891" />
  <path
     style="fill:#000000"
     d=""
     id="path3885" />
  <path
     style="fill:#000000"
     d=""
     id="path3883" />
  <path
     sodipodi:type="arc"
     style="opacity:0.81000001;fill:#000000;fill-opacity:1;stroke:#000000;stroke-width:0.35433072;stroke-miterlimit:4;stroke-opacity:1;stroke-dasharray:none"
     id="path3933"
     sodipodi:cx="487.20471"
     sodipodi:cy="418.75183"
     sodipodi:rx="8.8582678"
     sodipodi:ry="4.1849165"
     d="m 496.06298,418.75183 a 8.8582678,4.1849165 0 1 1 -17.71654,0 8.8582678,4.1849165 0 1 1 17.71654,0 z"
     transform="matrix(0.19434498,0,0,0.41137257,401.25515,243.07926)" />
  <text
     xml:space="preserve"
     style="font-size:10px;font-style:normal;font-weight:normal;fill:#000000;fill-opacity:1;stroke:none;font-family:Bitstream Vera Sans"
     x="325.64297"
     y="477.87881"
     id="text3963"><tspan
       sodipodi:role="line"
       id="tspan3965"
       x="325.64297"
       y="477.87881">make box slightly wider for the new handle bar mount. Mounting holes are 5mm.-</tspan></text>
  <text
     xml:space="preserve"
     style="font-size:10px;font-style:normal;font-weight:normal;fill:#000000;fill-opacity:1;stroke:none;font-family:Bitstream Vera Sans"
     x="332.55521"
     y="442.54962"
     id="text3967"><tspan
       sodipodi:role="line"
       id="tspan3969"
       x="332.55521"
       y="442.54962">notes</tspan></text>
  <rect
     style="opacity:0.81000001;fill:#000000;fill-opacity:1;stroke:#000000;stroke-width:0.35433072;stroke-miterlimit:4;stroke-opacity:1;stroke-dasharray:none"
     id="rect3971"
     width="496.06299"
     height="115.48573"
     x="318.89764"
     y="432.28345" />
</svg>
