<?xml version="1.0" encoding="UTF-8" standalone="no"?>
<!-- Created with Inkscape (http://www.inkscape.org/) -->

<svg
   xmlns:dc="http://purl.org/dc/elements/1.1/"
   xmlns:cc="http://creativecommons.org/ns#"
   xmlns:rdf="http://www.w3.org/1999/02/22-rdf-syntax-ns#"
   xmlns:svg="http://www.w3.org/2000/svg"
   xmlns="http://www.w3.org/2000/svg"
   xmlns:sodipodi="http://sodipodi.sourceforge.net/DTD/sodipodi-0.dtd"
   xmlns:inkscape="http://www.inkscape.org/namespaces/inkscape"
   width="744.09448"
   height="1052.3622"
   id="svg3876"
   version="1.1"
   inkscape:version="0.47 r22583"
   sodipodi:docname="motor mount.svg">
  <defs
     id="defs3878">
    <inkscape:perspective
       sodipodi:type="inkscape:persp3d"
       inkscape:vp_x="0 : 526.18109 : 1"
       inkscape:vp_y="0 : 1000 : 0"
       inkscape:vp_z="744.09448 : 526.18109 : 1"
       inkscape:persp3d-origin="372.04724 : 350.78739 : 1"
       id="perspective3884" />
    <inkscape:perspective
       id="perspective3940"
       inkscape:persp3d-origin="0.5 : 0.33333333 : 1"
       inkscape:vp_z="1 : 0.5 : 1"
       inkscape:vp_y="0 : 1000 : 0"
       inkscape:vp_x="0 : 0.5 : 1"
       sodipodi:type="inkscape:persp3d" />
    <inkscape:perspective
       id="perspective2869"
       inkscape:persp3d-origin="0.5 : 0.33333333 : 1"
       inkscape:vp_z="1 : 0.5 : 1"
       inkscape:vp_y="0 : 1000 : 0"
       inkscape:vp_x="0 : 0.5 : 1"
       sodipodi:type="inkscape:persp3d" />
    <inkscape:perspective
       id="perspective2891"
       inkscape:persp3d-origin="0.5 : 0.33333333 : 1"
       inkscape:vp_z="1 : 0.5 : 1"
       inkscape:vp_y="0 : 1000 : 0"
       inkscape:vp_x="0 : 0.5 : 1"
       sodipodi:type="inkscape:persp3d" />
    <inkscape:perspective
       id="perspective3818"
       inkscape:persp3d-origin="0.5 : 0.33333333 : 1"
       inkscape:vp_z="1 : 0.5 : 1"
       inkscape:vp_y="0 : 1000 : 0"
       inkscape:vp_x="0 : 0.5 : 1"
       sodipodi:type="inkscape:persp3d" />
  </defs>
  <sodipodi:namedview
     id="base"
     pagecolor="#ffffff"
     bordercolor="#666666"
     borderopacity="1.0"
     inkscape:pageopacity="0.0"
     inkscape:pageshadow="2"
     inkscape:zoom="1.8035551"
     inkscape:cx="-1172.8087"
     inkscape:cy="1134.592"
     inkscape:document-units="mm"
     inkscape:current-layer="layer1"
     showgrid="true"
     units="mm"
     showborder="false"
     inkscape:window-width="1600"
     inkscape:window-height="1125"
     inkscape:window-x="0"
     inkscape:window-y="25"
     inkscape:window-maximized="1"
     showguides="true"
     inkscape:guide-bbox="true">
    <inkscape:grid
       type="xygrid"
       id="grid3886"
       empspacing="5"
       visible="true"
       enabled="true"
       snapvisiblegridlinesonly="true"
       units="mm"
       spacingx="1mm"
       spacingy="1mm" />
  </sodipodi:namedview>
  <metadata
     id="metadata3881">
    <rdf:RDF>
      <cc:Work
         rdf:about="">
        <dc:format>image/svg+xml</dc:format>
        <dc:type
           rdf:resource="http://purl.org/dc/dcmitype/StillImage" />
        <dc:title />
      </cc:Work>
    </rdf:RDF>
  </metadata>
  <g
     inkscape:label="Layer 1"
     inkscape:groupmode="layer"
     id="layer1"
     transform="translate(0,-2.5390623e-6)">
    <path
       sodipodi:type="arc"
       style="fill:none;stroke:#000000;stroke-opacity:1;opacity:1"
       id="path2813"
       sodipodi:cx="-1018.7008"
       sodipodi:cy="33.661396"
       sodipodi:rx="221.4567"
       sodipodi:ry="221.4567"
       d="m -797.24411,33.661396 c 0,122.307154 -99.14954,221.456694 -221.45669,221.456694 -122.3072,0 -221.4567,-99.14954 -221.4567,-221.456694 0,-122.307156 99.1495,-221.456696 221.4567,-221.456696 122.30715,0 221.45669,99.14954 221.45669,221.456696 z"
       transform="matrix(0.42304485,0,0,0.42304485,-720.79409,152.29513)" />
    <path
       sodipodi:type="arc"
       style="fill:none;stroke:#000000;stroke-width:0.35433072;stroke-miterlimit:4;stroke-opacity:1;stroke-dasharray:none"
       id="path3589"
       sodipodi:cx="-1133.8583"
       sodipodi:cy="166.53542"
       sodipodi:rx="17.716536"
       sodipodi:ry="17.716536"
       d="m -1116.1417,166.53542 c 0,9.78457 -7.932,17.71653 -17.7166,17.71653 -9.7845,0 -17.7165,-7.93196 -17.7165,-17.71653 0,-9.78458 7.932,-17.71654 17.7165,-17.71654 9.7846,0 17.7166,7.93196 17.7166,17.71654 z"
       transform="matrix(1.1881189,0,0,1.1881188,195.40823,-31.328448)" />
    <path
       sodipodi:type="arc"
       style="fill:none;stroke:#000000;stroke-width:0.35433071999999999;stroke-miterlimit:4;stroke-opacity:1;stroke-dasharray:none;opacity:1"
       id="path3594"
       sodipodi:cx="-1151.5748"
       sodipodi:cy="113.3858"
       sodipodi:rx="17.716536"
       sodipodi:ry="17.716536"
       d="m -1133.8583,113.3858 c 0,9.78458 -7.932,17.71654 -17.7165,17.71654 -9.7846,0 -17.7166,-7.93196 -17.7166,-17.71654 0,-9.78457 7.932,-17.716532 17.7166,-17.716532 9.7845,0 17.7165,7.931962 17.7165,17.716532 z"
       transform="matrix(0.29702971,0,0,0.2970297,-809.69828,69.524145)"
       inkscape:transform-center-y="-63.332317"
       inkscape:tile-cx="-1151.7502"
       inkscape:tile-cy="166.53541"
       inkscape:tile-w="10.524675"
       inkscape:tile-h="10.524674"
       inkscape:tile-x0="-1157.0126"
       inkscape:tile-y0="97.940756" />
    <path
       inkscape:tile-y0="97.940756"
       inkscape:tile-x0="-1157.0126"
       inkscape:transform-center-y="-63.332317"
       transform="matrix(-0.14851486,0.25723527,-0.25723526,-0.14851485,-1238.7619,511.26675)"
       d="m -1133.8583,113.3858 c 0,9.78458 -7.932,17.71654 -17.7165,17.71654 -9.7846,0 -17.7166,-7.93196 -17.7166,-17.71654 0,-9.78457 7.932,-17.716532 17.7166,-17.716532 9.7845,0 17.7165,7.931962 17.7165,17.716532 z"
       sodipodi:ry="17.716536"
       sodipodi:rx="17.716536"
       sodipodi:cy="113.3858"
       sodipodi:cx="-1151.5748"
       id="use3673"
       style="fill:none;stroke:#000000;stroke-width:0.35433071999999999;stroke-miterlimit:4;stroke-opacity:1;stroke-dasharray:none;opacity:1"
       sodipodi:type="arc" />
    <path
       inkscape:tile-y0="97.940756"
       inkscape:tile-x0="-1157.0126"
       inkscape:transform-center-y="-63.332317"
       transform="matrix(-0.14851486,-0.25723527,0.25723526,-0.14851485,-1406.7904,-81.184626)"
       d="m -1133.8583,113.3858 c 0,9.78458 -7.932,17.71654 -17.7165,17.71654 -9.7846,0 -17.7166,-7.93196 -17.7166,-17.71654 0,-9.78457 7.932,-17.716532 17.7166,-17.716532 9.7845,0 17.7165,7.931962 17.7165,17.716532 z"
       sodipodi:ry="17.716536"
       sodipodi:rx="17.716536"
       sodipodi:cy="113.3858"
       sodipodi:cx="-1151.5748"
       id="use3675"
       style="fill:none;stroke:#000000;stroke-width:0.35433071999999999;stroke-miterlimit:4;stroke-opacity:1;stroke-dasharray:none;opacity:1"
       sodipodi:type="arc" />
    <path
       sodipodi:type="arc"
       style="fill:none;stroke:#000000;stroke-width:0.35433072;stroke-miterlimit:4;stroke-opacity:1;stroke-dasharray:none"
       id="path3589-9"
       sodipodi:cx="-1133.8583"
       sodipodi:cy="166.53542"
       sodipodi:rx="17.716536"
       sodipodi:ry="17.716536"
       d="m -1116.1417,166.53542 c 0,9.78457 -7.932,17.71653 -17.7166,17.71653 -9.7845,0 -17.7165,-7.93196 -17.7165,-17.71653 0,-9.78458 7.932,-17.71654 17.7165,-17.71654 9.7846,0 17.7166,7.93196 17.7166,17.71654 z"
       transform="matrix(1.1881189,0,0,-1.1881188,-70.452757,10.41593)" />
    <path
       style="fill:none;stroke:#000000;stroke-width:0.35433072;stroke-miterlimit:4;stroke-opacity:1"
       d="m -1080.4375,-329.53125 c -78.2766,0 -273.6895,27.125 -337.1875,27.125 -63.498,0 -114.9688,51.47071 -114.9688,114.96875 0,63.49805 51.4708,114.96875 114.9688,114.96875 63.498,0 258.9109,26.40625 337.1875,26.40625 44.7342,0 83.7195,-21.07988 109.6951,-53.451548 l 69.15628,0.28125 c 48.92286,0 88.5625,-39.639642 88.5625,-88.562502 0,-48.92287 -39.63964,-88.59375 -88.5625,-88.59375 l -69.06248,-0.28125 c -25.9734,-32.43739 -65.0019,-52.86095 -109.7889,-52.86095 z"
       transform="translate(0,2.5390623e-6)"
       id="path3982"
       sodipodi:nodetypes="cssssccsccc" />
    <path
       sodipodi:type="arc"
       style="fill:none;stroke:#000000;stroke-width:0.50109929;stroke-miterlimit:4;stroke-opacity:1;stroke-dasharray:none"
       id="path3547"
       sodipodi:cx="-1532.4803"
       sodipodi:cy="-311.81104"
       sodipodi:rx="8.8582678"
       sodipodi:ry="17.716536"
       d="m -1523.6221,-311.81104 a 8.8582678,17.716536 0 1 1 -17.7165,0 8.8582678,17.716536 0 1 1 17.7165,0 z"
       transform="matrix(1.0213525,0,0,0.49998573,416.90809,-70.536579)" />
    <path
       transform="matrix(1.0213525,0,0,0.49998573,551.17526,-70.536579)"
       d="m -1523.6221,-311.81104 a 8.8582678,17.716536 0 1 1 -17.7165,0 8.8582678,17.716536 0 1 1 17.7165,0 z"
       sodipodi:ry="17.716536"
       sodipodi:rx="8.8582678"
       sodipodi:cy="-311.81104"
       sodipodi:cx="-1532.4803"
       id="path3551"
       style="fill:none;stroke:#000000;stroke-width:0.50109929;stroke-miterlimit:4;stroke-opacity:1;stroke-dasharray:none"
       sodipodi:type="arc" />
    <path
       sodipodi:type="arc"
       style="fill:none;stroke:#000000;stroke-width:0.50109929;stroke-miterlimit:4;stroke-opacity:1;stroke-dasharray:none"
       id="path3553"
       sodipodi:cx="-1532.4803"
       sodipodi:cy="-311.81104"
       sodipodi:rx="8.8582678"
       sodipodi:ry="17.716536"
       d="m -1523.6221,-311.81104 a 8.8582678,17.716536 0 1 1 -17.7165,0 8.8582678,17.716536 0 1 1 17.7165,0 z"
       transform="matrix(1.0213525,0,0,0.49998573,483.34102,43.307929)" />
    <path
       sodipodi:type="arc"
       style="fill:none;stroke:#000000;stroke-width:0.35433072;stroke-miterlimit:4;stroke-opacity:1;stroke-dasharray:none"
       id="path3555"
       sodipodi:cx="-1133.8583"
       sodipodi:cy="-240.9449"
       sodipodi:rx="17.716536"
       sodipodi:ry="17.716536"
       d="m -1116.1417,-240.9449 a 17.716536,17.716536 0 1 1 -35.4331,0 17.716536,17.716536 0 1 1 35.4331,0 z"
       transform="matrix(1.0213525,0,0,0.99997144,77.779619,53.143246)" />
    <path
       sodipodi:type="arc"
       style="fill:none;stroke:#000000;stroke-width:0.41074634;stroke-miterlimit:4;stroke-opacity:1;stroke-dasharray:none"
       id="path3736"
       sodipodi:cx="-1479.3307"
       sodipodi:cy="-81.496086"
       sodipodi:rx="44.29134"
       sodipodi:ry="53.149605"
       d="m -1435.0393,-81.496086 a 44.29134,53.149605 0 1 1 -88.5827,0 44.29134,53.149605 0 1 1 88.5827,0 z"
       transform="matrix(0.94999997,0,0,0.78333336,503.34246,-123.60932)" />
    <path
       sodipodi:type="arc"
       style="fill:none;stroke:#000000;stroke-width:0.5905512;stroke-miterlimit:4;stroke-opacity:1;stroke-dasharray:none"
       id="path3741"
       sodipodi:cx="-1567.9133"
       sodipodi:cy="-161.22049"
       sodipodi:rx="8.8582678"
       sodipodi:ry="8.8582678"
       d="m -1559.0551,-161.22049 a 8.8582678,8.8582678 0 1 1 -17.7165,0 8.8582678,8.8582678 0 1 1 17.7165,0 z"
       transform="matrix(0.6,0,0,0.6,3.381856,-134.2983)" />
    <path
       transform="matrix(0.6,0,0,0.6,74.07086,-47.132954)"
       d="m -1559.0551,-161.22049 a 8.8582678,8.8582678 0 1 1 -17.7165,0 8.8582678,8.8582678 0 1 1 17.7165,0 z"
       sodipodi:ry="8.8582678"
       sodipodi:rx="8.8582678"
       sodipodi:cy="-161.22049"
       sodipodi:cx="-1567.9133"
       id="path3745"
       style="fill:none;stroke:#000000;stroke-width:0.5905512;stroke-miterlimit:4;stroke-opacity:1;stroke-dasharray:none"
       sodipodi:type="arc" />
    <path
       inkscape:tile-y0="97.940756"
       inkscape:tile-x0="-1157.0126"
       inkscape:transform-center-y="-91.676329"
       transform="matrix(-0.43025726,0.11528707,0.11528708,0.43025726,-1942.7938,-164.74732)"
       d="m -1133.8583,113.3858 c 0,9.78458 -7.932,17.71654 -17.7165,17.71654 -9.7846,0 -17.7166,-7.93196 -17.7166,-17.71654 0,-9.78457 7.932,-17.716532 17.7166,-17.716532 9.7845,0 17.7165,7.931962 17.7165,17.716532 z"
       sodipodi:ry="17.716536"
       sodipodi:rx="17.716536"
       sodipodi:cy="113.3858"
       sodipodi:cx="-1151.5748"
       id="path4564"
       style="fill:none;stroke:#000000;stroke-width:0.35433072;stroke-miterlimit:4;stroke-opacity:1;stroke-dasharray:none"
       sodipodi:type="arc"
       inkscape:transform-center-x="25.255532" />
    <path
       inkscape:tile-y0="97.940756"
       inkscape:tile-x0="-1157.0126"
       inkscape:transform-center-y="24.643947"
       transform="matrix(0.11528707,-0.43025726,-0.43025726,-0.11528707,-1175.1357,-653.55953)"
       d="m -1133.8583,113.3858 c 0,9.78458 -7.932,17.71654 -17.7165,17.71654 -9.7846,0 -17.7166,-7.93196 -17.7166,-17.71654 0,-9.78457 7.932,-17.716532 17.7166,-17.716532 9.7845,0 17.7165,7.931962 17.7165,17.716532 z"
       sodipodi:ry="17.716536"
       sodipodi:rx="17.716536"
       sodipodi:cy="113.3858"
       sodipodi:cx="-1151.5748"
       id="path4566"
       style="fill:none;stroke:#000000;stroke-width:0.35433072;stroke-miterlimit:4;stroke-opacity:1;stroke-dasharray:none"
       sodipodi:type="arc"
       inkscape:transform-center-x="-91.065164" />
    <path
       inkscape:transform-center-x="67.542541"
       inkscape:tile-y0="97.940756"
       inkscape:tile-x0="-1157.0126"
       inkscape:tile-h="10.524674"
       inkscape:tile-w="10.524675"
       inkscape:tile-cy="166.53541"
       inkscape:tile-cx="-1151.7502"
       inkscape:transform-center-y="67.529377"
       transform="matrix(0.31504788,0.31498638,0.31504788,-0.31498638,-1135.5603,255.67842)"
       d="m -1133.8583,113.3858 c 0,9.78458 -7.932,17.71654 -17.7165,17.71654 -9.7846,0 -17.7166,-7.93196 -17.7166,-17.71654 0,-9.78457 7.932,-17.716532 17.7166,-17.716532 9.7845,0 17.7165,7.931962 17.7165,17.716532 z"
       sodipodi:ry="17.716536"
       sodipodi:rx="17.716536"
       sodipodi:cy="113.3858"
       sodipodi:cx="-1151.5748"
       id="path4568"
       style="fill:none;stroke:#000000;stroke-width:0.35433072;stroke-miterlimit:4;stroke-opacity:1;stroke-dasharray:none"
       sodipodi:type="arc" />
    <g
       id="g2847"
       transform="matrix(-1,0,0,1,-2486.9113,-24)">
      <rect
         y="-400.39371"
         x="-1417.3229"
         height="35.434414"
         width="365.73441"
         id="rect2841"
         style="fill:none;stroke:#000000;stroke-width:0.99787116;stroke-miterlimit:4;stroke-opacity:1;stroke-dasharray:none" />
      <path
         transform="translate(489.7495,35.43376)"
         d="m -1541.3386,-418.11026 c 0,9.78457 -7.932,17.71654 -17.7166,17.71654 -9.7845,0 -17.7165,-7.93197 -17.7165,-17.71654 0,-9.78457 7.932,-17.71654 17.7165,-17.71654 9.7846,0 17.7166,7.93197 17.7166,17.71654 z"
         sodipodi:ry="17.716536"
         sodipodi:rx="17.716536"
         sodipodi:cy="-418.11026"
         sodipodi:cx="-1559.0552"
         id="path2843"
         style="fill:none;stroke:#000000;stroke-width:0.99921262;stroke-miterlimit:4;stroke-opacity:1;stroke-dasharray:none"
         sodipodi:type="arc" />
      <path
         transform="matrix(0.77805874,0,0,0.77805874,-121.68958,-16.00865)"
         d="m -1629.9213,-471.25986 c 0,9.78458 -7.9319,17.71654 -17.7165,17.71654 -9.7846,0 -17.7166,-7.93196 -17.7166,-17.71654 0,-9.78457 7.932,-17.71653 17.7166,-17.71653 9.7846,0 17.7165,7.93196 17.7165,17.71653 z"
         sodipodi:ry="17.716536"
         sodipodi:rx="17.716536"
         sodipodi:cy="-471.25986"
         sodipodi:cx="-1647.6378"
         id="path2845"
         style="fill:none;stroke:#000000;stroke-width:0.99921262;stroke-miterlimit:4;stroke-opacity:1;stroke-dasharray:none"
         sodipodi:type="arc" />
    </g>
  </g>
</svg>
