<?xml version="1.0" encoding="UTF-8" standalone="no"?>
<!-- Created with Inkscape (http://www.inkscape.org/) -->

<svg
   xmlns:dc="http://purl.org/dc/elements/1.1/"
   xmlns:cc="http://creativecommons.org/ns#"
   xmlns:rdf="http://www.w3.org/1999/02/22-rdf-syntax-ns#"
   xmlns:svg="http://www.w3.org/2000/svg"
   xmlns="http://www.w3.org/2000/svg"
   xmlns:sodipodi="http://sodipodi.sourceforge.net/DTD/sodipodi-0.dtd"
   xmlns:inkscape="http://www.inkscape.org/namespaces/inkscape"
   width="744.09448"
   height="1052.3622"
   id="svg3876"
   version="1.1"
   inkscape:version="0.47 r22583"
   sodipodi:docname="sustrans.svg">
  <defs
     id="defs3878">
    <inkscape:perspective
       sodipodi:type="inkscape:persp3d"
       inkscape:vp_x="0 : 526.18109 : 1"
       inkscape:vp_y="0 : 1000 : 0"
       inkscape:vp_z="744.09448 : 526.18109 : 1"
       inkscape:persp3d-origin="372.04724 : 350.78739 : 1"
       id="perspective3884" />
    <inkscape:perspective
       id="perspective3940"
       inkscape:persp3d-origin="0.5 : 0.33333333 : 1"
       inkscape:vp_z="1 : 0.5 : 1"
       inkscape:vp_y="0 : 1000 : 0"
       inkscape:vp_x="0 : 0.5 : 1"
       sodipodi:type="inkscape:persp3d" />
    <inkscape:perspective
       id="perspective2869"
       inkscape:persp3d-origin="0.5 : 0.33333333 : 1"
       inkscape:vp_z="1 : 0.5 : 1"
       inkscape:vp_y="0 : 1000 : 0"
       inkscape:vp_x="0 : 0.5 : 1"
       sodipodi:type="inkscape:persp3d" />
    <inkscape:perspective
       id="perspective2891"
       inkscape:persp3d-origin="0.5 : 0.33333333 : 1"
       inkscape:vp_z="1 : 0.5 : 1"
       inkscape:vp_y="0 : 1000 : 0"
       inkscape:vp_x="0 : 0.5 : 1"
       sodipodi:type="inkscape:persp3d" />
  </defs>
  <sodipodi:namedview
     id="base"
     pagecolor="#ffffff"
     bordercolor="#666666"
     borderopacity="1.0"
     inkscape:pageopacity="0.0"
     inkscape:pageshadow="2"
     inkscape:zoom="1.48101"
     inkscape:cx="-1245.6388"
     inkscape:cy="1107.2201"
     inkscape:document-units="mm"
     inkscape:current-layer="layer1"
     showgrid="true"
     units="mm"
     showborder="false"
     inkscape:window-width="1600"
     inkscape:window-height="1125"
     inkscape:window-x="0"
     inkscape:window-y="25"
     inkscape:window-maximized="1"
     showguides="true"
     inkscape:guide-bbox="true">
    <inkscape:grid
       type="xygrid"
       id="grid3886"
       empspacing="5"
       visible="true"
       enabled="true"
       snapvisiblegridlinesonly="true"
       units="mm"
       spacingx="1mm"
       spacingy="1mm" />
  </sodipodi:namedview>
  <metadata
     id="metadata3881">
    <rdf:RDF>
      <cc:Work
         rdf:about="">
        <dc:format>image/svg+xml</dc:format>
        <dc:type
           rdf:resource="http://purl.org/dc/dcmitype/StillImage" />
        <dc:title />
      </cc:Work>
    </rdf:RDF>
  </metadata>
  <g
     inkscape:label="Layer 1"
     inkscape:groupmode="layer"
     id="layer1"
     transform="translate(0,-2.5390623e-6)">
    <path
       sodipodi:type="arc"
       style="fill:none;stroke:#000000;stroke-opacity:1;opacity:1"
       id="path2813"
       sodipodi:cx="-1018.7008"
       sodipodi:cy="33.661396"
       sodipodi:rx="221.4567"
       sodipodi:ry="221.4567"
       d="m -797.24411,33.661396 c 0,122.307154 -99.14954,221.456694 -221.45669,221.456694 -122.3072,0 -221.4567,-99.14954 -221.4567,-221.456694 0,-122.307156 99.1495,-221.456696 221.4567,-221.456696 122.30715,0 221.45669,99.14954 221.45669,221.456696 z"
       transform="matrix(0.42304485,0,0,0.42304485,-720.79409,152.29513)" />
    <path
       sodipodi:type="arc"
       style="fill:none;stroke:#000000;stroke-width:0.35433072;stroke-miterlimit:4;stroke-opacity:1;stroke-dasharray:none"
       id="path3589"
       sodipodi:cx="-1133.8583"
       sodipodi:cy="166.53542"
       sodipodi:rx="17.716536"
       sodipodi:ry="17.716536"
       d="m -1116.1417,166.53542 c 0,9.78457 -7.932,17.71653 -17.7166,17.71653 -9.7845,0 -17.7165,-7.93196 -17.7165,-17.71653 0,-9.78458 7.932,-17.71654 17.7165,-17.71654 9.7846,0 17.7166,7.93196 17.7166,17.71654 z"
       transform="matrix(1.1881189,0,0,1.1881188,195.40823,-31.328448)" />
    <path
       sodipodi:type="arc"
       style="fill:none;stroke:#000000;stroke-width:0.35433071999999999;stroke-miterlimit:4;stroke-opacity:1;stroke-dasharray:none;opacity:1"
       id="path3594"
       sodipodi:cx="-1151.5748"
       sodipodi:cy="113.3858"
       sodipodi:rx="17.716536"
       sodipodi:ry="17.716536"
       d="m -1133.8583,113.3858 c 0,9.78458 -7.932,17.71654 -17.7165,17.71654 -9.7846,0 -17.7166,-7.93196 -17.7166,-17.71654 0,-9.78457 7.932,-17.716532 17.7166,-17.716532 9.7845,0 17.7165,7.931962 17.7165,17.716532 z"
       transform="matrix(0.29702971,0,0,0.2970297,-809.69828,69.524145)"
       inkscape:transform-center-y="-63.332317"
       inkscape:tile-cx="-1151.7502"
       inkscape:tile-cy="166.53541"
       inkscape:tile-w="10.524675"
       inkscape:tile-h="10.524674"
       inkscape:tile-x0="-1157.0126"
       inkscape:tile-y0="97.940756" />
    <path
       inkscape:tile-y0="97.940756"
       inkscape:tile-x0="-1157.0126"
       inkscape:transform-center-y="-63.332317"
       transform="matrix(-0.14851486,0.25723527,-0.25723526,-0.14851485,-1238.7619,511.26675)"
       d="m -1133.8583,113.3858 c 0,9.78458 -7.932,17.71654 -17.7165,17.71654 -9.7846,0 -17.7166,-7.93196 -17.7166,-17.71654 0,-9.78457 7.932,-17.716532 17.7166,-17.716532 9.7845,0 17.7165,7.931962 17.7165,17.716532 z"
       sodipodi:ry="17.716536"
       sodipodi:rx="17.716536"
       sodipodi:cy="113.3858"
       sodipodi:cx="-1151.5748"
       id="use3673"
       style="fill:none;stroke:#000000;stroke-width:0.35433071999999999;stroke-miterlimit:4;stroke-opacity:1;stroke-dasharray:none;opacity:1"
       sodipodi:type="arc" />
    <path
       inkscape:tile-y0="97.940756"
       inkscape:tile-x0="-1157.0126"
       inkscape:transform-center-y="-63.332317"
       transform="matrix(-0.14851486,-0.25723527,0.25723526,-0.14851485,-1406.7904,-81.184626)"
       d="m -1133.8583,113.3858 c 0,9.78458 -7.932,17.71654 -17.7165,17.71654 -9.7846,0 -17.7166,-7.93196 -17.7166,-17.71654 0,-9.78457 7.932,-17.716532 17.7166,-17.716532 9.7845,0 17.7165,7.931962 17.7165,17.716532 z"
       sodipodi:ry="17.716536"
       sodipodi:rx="17.716536"
       sodipodi:cy="113.3858"
       sodipodi:cx="-1151.5748"
       id="use3675"
       style="fill:none;stroke:#000000;stroke-width:0.35433071999999999;stroke-miterlimit:4;stroke-opacity:1;stroke-dasharray:none;opacity:1"
       sodipodi:type="arc" />
    <path
       sodipodi:type="arc"
       style="fill:none;stroke:#000000;stroke-width:0.35433072;stroke-miterlimit:4;stroke-opacity:1;stroke-dasharray:none"
       id="path3589-9"
       sodipodi:cx="-1133.8583"
       sodipodi:cy="166.53542"
       sodipodi:rx="17.716536"
       sodipodi:ry="17.716536"
       d="m -1116.1417,166.53542 a 17.716536,17.716536 0 1 1 -35.4331,0 17.716536,17.716536 0 1 1 35.4331,0 z"
       transform="matrix(1.1881189,0,0,-1.1881188,-70.452757,10.41593)" />
    <path
       sodipodi:type="arc"
       style="fill:none;stroke:#000000;stroke-width:0.35433072;stroke-miterlimit:4;stroke-opacity:1;stroke-dasharray:none"
       id="path3594-1"
       sodipodi:cx="-1151.5748"
       sodipodi:cy="113.3858"
       sodipodi:rx="17.716536"
       sodipodi:ry="17.716536"
       d="m -1133.8583,113.3858 a 17.716536,17.716536 0 1 1 -35.4331,0 17.716536,17.716536 0 1 1 35.4331,0 z"
       transform="matrix(0.24458138,0.24477457,0.24458138,-0.24477457,-1208.7178,166.86324)"
       inkscape:transform-center-y="52.476793"
       inkscape:tile-cx="-1151.7502"
       inkscape:tile-cy="166.53541"
       inkscape:tile-w="10.524675"
       inkscape:tile-h="10.524674"
       inkscape:tile-x0="-1157.0126"
       inkscape:tile-y0="97.940756"
       inkscape:transform-center-x="52.435351" />
    <path
       inkscape:tile-y0="97.940756"
       inkscape:tile-x0="-1157.0126"
       inkscape:transform-center-y="19.146968"
       transform="matrix(0.08950104,-0.33428578,-0.33402245,-0.0895716,-1215.7419,-545.95696)"
       d="m -1133.8583,113.3858 a 17.716536,17.716536 0 1 1 -35.4331,0 17.716536,17.716536 0 1 1 35.4331,0 z"
       sodipodi:ry="17.716536"
       sodipodi:rx="17.716536"
       sodipodi:cy="113.3858"
       sodipodi:cx="-1151.5748"
       id="use3673-3"
       style="fill:none;stroke:#000000;stroke-width:0.35433072;stroke-miterlimit:4;stroke-opacity:1;stroke-dasharray:none"
       sodipodi:type="arc"
       inkscape:transform-center-x="-70.696659" />
    <path
       inkscape:tile-y0="97.940756"
       inkscape:tile-x0="-1157.0126"
       inkscape:transform-center-y="-71.30383"
       transform="matrix(-0.33464453,0.08966773,0.08966773,0.33464454,-1829.7837,-183.40879)"
       d="m -1133.8583,113.3858 a 17.716536,17.716536 0 1 1 -35.4331,0 17.716536,17.716536 0 1 1 35.4331,0 z"
       sodipodi:ry="17.716536"
       sodipodi:rx="17.716536"
       sodipodi:cy="113.3858"
       sodipodi:cx="-1151.5748"
       id="use3675-1"
       style="fill:none;stroke:#000000;stroke-width:0.35433072;stroke-miterlimit:4;stroke-opacity:1;stroke-dasharray:none"
       sodipodi:type="arc"
       inkscape:transform-center-x="19.643164" />
    <path
       id="path3982"
       style="fill:none;stroke:#000000;stroke-width:0.35433072;stroke-miterlimit:4;stroke-opacity:1"
       d="m -1417.6112,-302.42129 c 63.498,0 238.9094,-27.10629 317.186,-27.10629 78.2766,0 141.73229,63.4557 141.73229,141.73228 0,78.27658 -63.45569,141.73229 -141.73229,141.73229 -78.2766,0 -253.688,-26.41153 -317.186,-26.41153 -63.498,0 -114.9734,-51.47533 -114.9734,-114.97338 0,-63.49804 51.4754,-114.97337 114.9734,-114.97337 z"
       sodipodi:nodetypes="cccccss" />
    <path
       id="path4037"
       style="fill:none;stroke:#000000;stroke-width:0.34738305;stroke-miterlimit:4;stroke-opacity:1"
       d="m -1080.1954,-121.27609 c -4.7964,0 -38.519,0 -43.3154,0 -4.7964,0 -8.6846,3.88823 -8.6846,8.68458 0,4.79636 3.8882,8.68458 8.6846,8.68458 4.7964,0 38.519,0 43.3154,0 4.7964,0 8.6846,-3.88822 8.6846,-8.68458 0,-4.79635 -3.8882,-8.68458 -8.6846,-8.68458 z"
       sodipodi:nodetypes="ccsccsc" />
    <path
       id="path4045"
       style="fill:none;stroke:#000000;stroke-width:0.35433072;stroke-miterlimit:4;stroke-opacity:1"
       d="m -1122.1417,-205.51184 c 9.5928,0 33.038,0 42.6308,0 9.5928,0 17.3692,7.77644 17.3692,17.36915 0,9.59272 -7.7764,17.36916 -17.3692,17.36916 -9.5928,0 -33.038,0 -42.6308,0 -9.5928,0 -17.3692,-7.77644 -17.3692,-17.36916 0,-9.59271 7.7764,-17.36915 17.3692,-17.36915 z"
       sodipodi:nodetypes="ccsccsc" />
    <path
       sodipodi:nodetypes="ccsccsc"
       d="m -1145.2395,-235.12385 c -4.7964,0 -38.519,0 -43.3154,0 -4.7964,0 -8.6846,3.88823 -8.6846,8.68458 0,4.79636 3.8882,8.68458 8.6846,8.68458 4.7964,0 38.519,0 43.3154,0 4.7964,0 8.6846,-3.88822 8.6846,-8.68458 0,-4.79635 -3.8882,-8.68458 -8.6846,-8.68458 z"
       style="fill:none;stroke:#000000;stroke-width:0.34738305;stroke-miterlimit:4;stroke-opacity:1"
       id="path4048" />
    <path
       id="path4050"
       style="fill:none;stroke:#000000;stroke-width:0.34738305;stroke-miterlimit:4;stroke-opacity:1"
       d="m -1013.7793,-235.12385 c -4.7964,0 -38.519,0 -43.3154,0 -4.7964,0 -8.6846,3.88823 -8.6846,8.68458 0,4.79636 3.8882,8.68458 8.6846,8.68458 4.7964,0 38.519,0 43.3154,0 4.7964,0 8.6846,-3.88822 8.6846,-8.68458 0,-4.79635 -3.8882,-8.68458 -8.6846,-8.68458 z"
       sodipodi:nodetypes="ccsccsc" />
  </g>
</svg>
