  0
SECTION
  2
BLOCKS
  0
ENDSEC
  0
SECTION
  2
ENTITIES
  0
LINE
  8
0
 10
-51.5
 11
-51.5
 20
-21
 21
21
  0
LINE
  8
0
 10
-51.5
 11
-51.413
 20
21
 21
21.832
  0
LINE
  8
0
 10
-51.413
 11
-51.154
 20
21.832
 21
22.627
  0
LINE
  8
0
 10
-51.154
 11
-50.736
 20
22.627
 21
23.351
  0
LINE
  8
0
 10
-50.736
 11
-50.177
 20
23.351
 21
23.973
  0
LINE
  8
0
 10
-50.177
 11
-49.5
 20
23.973
 21
24.464
  0
LINE
  8
0
 10
-49.5
 11
-48.736
 20
24.464
 21
24.804
  0
LINE
  8
0
 10
-48.736
 11
-47.918
 20
24.804
 21
24.978
  0
LINE
  8
0
 10
-47.918
 11
-47.5
 20
24.978
 21
24.978
  0
LINE
  8
0
 10
-47.5
 11
-47.5
 20
24.978
 21
25
  0
LINE
  8
0
 10
-47.5
 11
-15
 20
25
 21
25
  0
LINE
  8
0
 10
-15
 11
-15
 20
25
 21
96
  0
LINE
  8
0
 10
-15
 11
-14.913
 20
96
 21
96.832
  0
LINE
  8
0
 10
-14.913
 11
-14.654
 20
96.832
 21
97.627
  0
LINE
  8
0
 10
-14.654
 11
-14.236
 20
97.627
 21
98.351
  0
LINE
  8
0
 10
-14.236
 11
-13.677
 20
98.351
 21
98.973
  0
LINE
  8
0
 10
-13.677
 11
-13
 20
98.973
 21
99.464
  0
LINE
  8
0
 10
-13
 11
-12.236
 20
99.464
 21
99.804
  0
LINE
  8
0
 10
-12.236
 11
-11.418
 20
99.804
 21
99.978
  0
LINE
  8
0
 10
-11.418
 11
-11
 20
99.978
 21
99.978
  0
LINE
  8
0
 10
-11
 11
-11
 20
99.978
 21
100
  0
LINE
  8
0
 10
-11
 11
11
 20
100
 21
100
  0
LINE
  8
0
 10
11
 11
11
 20
100
 21
99.978
  0
LINE
  8
0
 10
11
 11
11.418
 20
99.978
 21
99.978
  0
LINE
  8
0
 10
11.418
 11
12.236
 20
99.978
 21
99.804
  0
LINE
  8
0
 10
12.236
 11
13
 20
99.804
 21
99.464
  0
LINE
  8
0
 10
13
 11
13.677
 20
99.464
 21
98.973
  0
LINE
  8
0
 10
13.677
 11
14.236
 20
98.973
 21
98.351
  0
LINE
  8
0
 10
14.236
 11
14.654
 20
98.351
 21
97.627
  0
LINE
  8
0
 10
14.654
 11
14.913
 20
97.627
 21
96.832
  0
LINE
  8
0
 10
14.913
 11
15
 20
96.832
 21
96
  0
LINE
  8
0
 10
15
 11
15
 20
96
 21
25
  0
LINE
  8
0
 10
15
 11
47.5
 20
25
 21
25
  0
LINE
  8
0
 10
47.5
 11
47.5
 20
25
 21
24.978
  0
LINE
  8
0
 10
47.5
 11
47.918
 20
24.978
 21
24.978
  0
LINE
  8
0
 10
47.918
 11
48.736
 20
24.978
 21
24.804
  0
LINE
  8
0
 10
48.736
 11
49.5
 20
24.804
 21
24.464
  0
LINE
  8
0
 10
49.5
 11
50.177
 20
24.464
 21
23.973
  0
LINE
  8
0
 10
50.177
 11
50.736
 20
23.973
 21
23.351
  0
LINE
  8
0
 10
50.736
 11
51.154
 20
23.351
 21
22.627
  0
LINE
  8
0
 10
51.154
 11
51.413
 20
22.627
 21
21.832
  0
LINE
  8
0
 10
51.413
 11
51.5
 20
21.832
 21
21
  0
LINE
  8
0
 10
51.5
 11
51.5
 20
21
 21
-21
  0
LINE
  8
0
 10
51.5
 11
51.413
 20
-21
 21
-21.832
  0
LINE
  8
0
 10
51.413
 11
51.154
 20
-21.832
 21
-22.627
  0
LINE
  8
0
 10
51.154
 11
50.736
 20
-22.627
 21
-23.351
  0
LINE
  8
0
 10
50.736
 11
50.177
 20
-23.351
 21
-23.973
  0
LINE
  8
0
 10
50.177
 11
49.5
 20
-23.973
 21
-24.464
  0
LINE
  8
0
 10
49.5
 11
48.736
 20
-24.464
 21
-24.804
  0
LINE
  8
0
 10
48.736
 11
47.918
 20
-24.804
 21
-24.978
  0
LINE
  8
0
 10
47.918
 11
47.5
 20
-24.978
 21
-24.978
  0
LINE
  8
0
 10
47.5
 11
47.5
 20
-24.978
 21
-25
  0
LINE
  8
0
 10
47.5
 11
-47.5
 20
-25
 21
-25
  0
LINE
  8
0
 10
-47.5
 11
-47.5
 20
-25
 21
-24.978
  0
LINE
  8
0
 10
-47.5
 11
-47.918
 20
-24.978
 21
-24.978
  0
LINE
  8
0
 10
-47.918
 11
-48.736
 20
-24.978
 21
-24.804
  0
LINE
  8
0
 10
-48.736
 11
-49.5
 20
-24.804
 21
-24.464
  0
LINE
  8
0
 10
-49.5
 11
-50.177
 20
-24.464
 21
-23.973
  0
LINE
  8
0
 10
-50.177
 11
-50.736
 20
-23.973
 21
-23.351
  0
LINE
  8
0
 10
-50.736
 11
-51.154
 20
-23.351
 21
-22.627
  0
LINE
  8
0
 10
-51.154
 11
-51.413
 20
-22.627
 21
-21.832
  0
LINE
  8
0
 10
-51.413
 11
-51.5
 20
-21.832
 21
-21
  0
LINE
  8
0
 10
-10.55
 11
-10.275
 20
87.5
 21
87.976
  0
LINE
  8
0
 10
-10.275
 11
-9.725
 20
87.976
 21
87.976
  0
LINE
  8
0
 10
-9.725
 11
-9.45
 20
87.976
 21
87.5
  0
LINE
  8
0
 10
-9.45
 11
-9.725
 20
87.5
 21
87.024
  0
LINE
  8
0
 10
-9.725
 11
-10.275
 20
87.024
 21
87.024
  0
LINE
  8
0
 10
-10.275
 11
-10.55
 20
87.024
 21
87.5
  0
LINE
  8
0
 10
-10.55
 11
-10.275
 20
92.5
 21
92.976
  0
LINE
  8
0
 10
-10.275
 11
-9.725
 20
92.976
 21
92.976
  0
LINE
  8
0
 10
-9.725
 11
-9.45
 20
92.976
 21
92.5
  0
LINE
  8
0
 10
-9.45
 11
-9.725
 20
92.5
 21
92.024
  0
LINE
  8
0
 10
-9.725
 11
-10.275
 20
92.024
 21
92.024
  0
LINE
  8
0
 10
-10.275
 11
-10.55
 20
92.024
 21
92.5
  0
LINE
  8
0
 10
-0.959
 11
-0.959
 20
69.718
 21
70.282
  0
LINE
  8
0
 10
-0.959
 11
-0.655
 20
70.282
 21
70.756
  0
LINE
  8
0
 10
-0.655
 11
-0.142
 20
70.756
 21
70.99
  0
LINE
  8
0
 10
-0.142
 11
0.415
 20
70.99
 21
70.91
  0
LINE
  8
0
 10
0.415
 11
0.841
 20
70.91
 21
70.541
  0
LINE
  8
0
 10
0.841
 11
1
 20
70.541
 21
70
  0
LINE
  8
0
 10
1
 11
0.841
 20
70
 21
69.459
  0
LINE
  8
0
 10
0.841
 11
0.415
 20
69.459
 21
69.09
  0
LINE
  8
0
 10
0.415
 11
-0.142
 20
69.09
 21
69.01
  0
LINE
  8
0
 10
-0.142
 11
-0.655
 20
69.01
 21
69.244
  0
LINE
  8
0
 10
-0.655
 11
-0.959
 20
69.244
 21
69.718
  0
LINE
  8
0
 10
-0.959
 11
-0.959
 20
89.718
 21
90.282
  0
LINE
  8
0
 10
-0.959
 11
-0.655
 20
90.282
 21
90.756
  0
LINE
  8
0
 10
-0.655
 11
-0.142
 20
90.756
 21
90.99
  0
LINE
  8
0
 10
-0.142
 11
0.415
 20
90.99
 21
90.91
  0
LINE
  8
0
 10
0.415
 11
0.841
 20
90.91
 21
90.541
  0
LINE
  8
0
 10
0.841
 11
1
 20
90.541
 21
90
  0
LINE
  8
0
 10
1
 11
0.841
 20
90
 21
89.459
  0
LINE
  8
0
 10
0.841
 11
0.415
 20
89.459
 21
89.09
  0
LINE
  8
0
 10
0.415
 11
-0.142
 20
89.09
 21
89.01
  0
LINE
  8
0
 10
-0.142
 11
-0.655
 20
89.01
 21
89.244
  0
LINE
  8
0
 10
-0.655
 11
-0.959
 20
89.244
 21
89.718
  0
LINE
  8
0
 10
9.45
 11
9.725
 20
87.5
 21
87.976
  0
LINE
  8
0
 10
9.725
 11
10.275
 20
87.976
 21
87.976
  0
LINE
  8
0
 10
10.275
 11
10.55
 20
87.976
 21
87.5
  0
LINE
  8
0
 10
10.55
 11
10.275
 20
87.5
 21
87.024
  0
LINE
  8
0
 10
10.275
 11
9.725
 20
87.024
 21
87.024
  0
LINE
  8
0
 10
9.725
 11
9.45
 20
87.024
 21
87.5
  0
LINE
  8
0
 10
9.45
 11
9.725
 20
92.5
 21
92.976
  0
LINE
  8
0
 10
9.725
 11
10.275
 20
92.976
 21
92.976
  0
LINE
  8
0
 10
10.275
 11
10.55
 20
92.976
 21
92.5
  0
LINE
  8
0
 10
10.55
 11
10.275
 20
92.5
 21
92.024
  0
LINE
  8
0
 10
10.275
 11
9.725
 20
92.024
 21
92.024
  0
LINE
  8
0
 10
9.725
 11
9.45
 20
92.024
 21
92.5
  0
LINE
  8
0
 10
13.5
 11
13.614
 20
-12.5
 21
-11.926
  0
LINE
  8
0
 10
13.614
 11
13.939
 20
-11.926
 21
-11.439
  0
LINE
  8
0
 10
13.939
 11
14.426
 20
-11.439
 21
-11.114
  0
LINE
  8
0
 10
14.426
 11
15
 20
-11.114
 21
-11
  0
LINE
  8
0
 10
15
 11
15.574
 20
-11
 21
-11.114
  0
LINE
  8
0
 10
15.574
 11
16.061
 20
-11.114
 21
-11.439
  0
LINE
  8
0
 10
16.061
 11
16.386
 20
-11.439
 21
-11.926
  0
LINE
  8
0
 10
16.386
 11
16.5
 20
-11.926
 21
-12.5
  0
LINE
  8
0
 10
16.5
 11
16.386
 20
-12.5
 21
-13.074
  0
LINE
  8
0
 10
16.386
 11
16.061
 20
-13.074
 21
-13.561
  0
LINE
  8
0
 10
16.061
 11
15.574
 20
-13.561
 21
-13.886
  0
LINE
  8
0
 10
15.574
 11
15
 20
-13.886
 21
-14
  0
LINE
  8
0
 10
15
 11
14.426
 20
-14
 21
-13.886
  0
LINE
  8
0
 10
14.426
 11
13.939
 20
-13.886
 21
-13.561
  0
LINE
  8
0
 10
13.939
 11
13.614
 20
-13.561
 21
-13.074
  0
LINE
  8
0
 10
13.614
 11
13.5
 20
-13.074
 21
-12.5
  0
LINE
  8
0
 10
19.5
 11
19.614
 20
-12.5
 21
-11.926
  0
LINE
  8
0
 10
19.614
 11
19.939
 20
-11.926
 21
-11.439
  0
LINE
  8
0
 10
19.939
 11
20.426
 20
-11.439
 21
-11.114
  0
LINE
  8
0
 10
20.426
 11
21
 20
-11.114
 21
-11
  0
LINE
  8
0
 10
21
 11
21.574
 20
-11
 21
-11.114
  0
LINE
  8
0
 10
21.574
 11
22.061
 20
-11.114
 21
-11.439
  0
LINE
  8
0
 10
22.061
 11
22.386
 20
-11.439
 21
-11.926
  0
LINE
  8
0
 10
22.386
 11
22.5
 20
-11.926
 21
-12.5
  0
LINE
  8
0
 10
22.5
 11
22.386
 20
-12.5
 21
-13.074
  0
LINE
  8
0
 10
22.386
 11
22.061
 20
-13.074
 21
-13.561
  0
LINE
  8
0
 10
22.061
 11
21.574
 20
-13.561
 21
-13.886
  0
LINE
  8
0
 10
21.574
 11
21
 20
-13.886
 21
-14
  0
LINE
  8
0
 10
21
 11
20.426
 20
-14
 21
-13.886
  0
LINE
  8
0
 10
20.426
 11
19.939
 20
-13.886
 21
-13.561
  0
LINE
  8
0
 10
19.939
 11
19.614
 20
-13.561
 21
-13.074
  0
LINE
  8
0
 10
19.614
 11
19.5
 20
-13.074
 21
-12.5
  0
LINE
  8
0
 10
25.5
 11
25.614
 20
-12.5
 21
-11.926
  0
LINE
  8
0
 10
25.614
 11
25.939
 20
-11.926
 21
-11.439
  0
LINE
  8
0
 10
25.939
 11
26.426
 20
-11.439
 21
-11.114
  0
LINE
  8
0
 10
26.426
 11
27
 20
-11.114
 21
-11
  0
LINE
  8
0
 10
27
 11
27.574
 20
-11
 21
-11.114
  0
LINE
  8
0
 10
27.574
 11
28.061
 20
-11.114
 21
-11.439
  0
LINE
  8
0
 10
28.061
 11
28.386
 20
-11.439
 21
-11.926
  0
LINE
  8
0
 10
28.386
 11
28.5
 20
-11.926
 21
-12.5
  0
LINE
  8
0
 10
28.5
 11
28.386
 20
-12.5
 21
-13.074
  0
LINE
  8
0
 10
28.386
 11
28.061
 20
-13.074
 21
-13.561
  0
LINE
  8
0
 10
28.061
 11
27.574
 20
-13.561
 21
-13.886
  0
LINE
  8
0
 10
27.574
 11
27
 20
-13.886
 21
-14
  0
LINE
  8
0
 10
27
 11
26.426
 20
-14
 21
-13.886
  0
LINE
  8
0
 10
26.426
 11
25.939
 20
-13.886
 21
-13.561
  0
LINE
  8
0
 10
25.939
 11
25.614
 20
-13.561
 21
-13.074
  0
LINE
  8
0
 10
25.614
 11
25.5
 20
-13.074
 21
-12.5
  0
ENDSEC
  0
SECTION
  2
OBJECTS
  0
DICTIONARY
  0
ENDSEC
  0
EOF
