  0
SECTION
  2
BLOCKS
  0
ENDSEC
  0
SECTION
  2
ENTITIES
  0
LINE
  8
0
 10
-20
 11
-20
 20
-18
 21
18
  0
LINE
  8
0
 10
-20
 11
-19.848
 20
18
 21
18.765
  0
LINE
  8
0
 10
-19.848
 11
-19.414
 20
18.765
 21
19.414
  0
LINE
  8
0
 10
-19.414
 11
-18.765
 20
19.414
 21
19.848
  0
LINE
  8
0
 10
-18.765
 11
-18
 20
19.848
 21
20
  0
LINE
  8
0
 10
-18
 11
18
 20
20
 21
20
  0
LINE
  8
0
 10
18
 11
18.765
 20
20
 21
19.848
  0
LINE
  8
0
 10
18.765
 11
19.414
 20
19.848
 21
19.414
  0
LINE
  8
0
 10
19.414
 11
19.848
 20
19.414
 21
18.765
  0
LINE
  8
0
 10
19.848
 11
20
 20
18.765
 21
18
  0
LINE
  8
0
 10
20
 11
20
 20
18
 21
-18
  0
LINE
  8
0
 10
20
 11
19.848
 20
-18
 21
-18.765
  0
LINE
  8
0
 10
19.848
 11
19.414
 20
-18.765
 21
-19.414
  0
LINE
  8
0
 10
19.414
 11
18.765
 20
-19.414
 21
-19.848
  0
LINE
  8
0
 10
18.765
 11
18
 20
-19.848
 21
-20
  0
LINE
  8
0
 10
18
 11
-18
 20
-20
 21
-20
  0
LINE
  8
0
 10
-18
 11
-18.765
 20
-20
 21
-19.848
  0
LINE
  8
0
 10
-18.765
 11
-19.414
 20
-19.848
 21
-19.414
  0
LINE
  8
0
 10
-19.414
 11
-19.848
 20
-19.414
 21
-18.765
  0
LINE
  8
0
 10
-19.848
 11
-20
 20
-18.765
 21
-18
  0
LINE
  8
0
 10
-16.505
 11
-16.505
 20
-15.371
 21
-14.629
  0
LINE
  8
0
 10
-16.505
 11
-16.16
 20
-14.629
 21
-13.972
  0
LINE
  8
0
 10
-16.16
 11
-15.55
 20
-13.972
 21
-13.551
  0
LINE
  8
0
 10
-15.55
 11
-14.813
 20
-13.551
 21
-13.461
  0
LINE
  8
0
 10
-14.813
 11
-14.119
 20
-13.461
 21
-13.724
  0
LINE
  8
0
 10
-14.119
 11
-13.628
 20
-13.724
 21
-14.28
  0
LINE
  8
0
 10
-13.628
 11
-13.45
 20
-14.28
 21
-15
  0
LINE
  8
0
 10
-13.45
 11
-13.628
 20
-15
 21
-15.72
  0
LINE
  8
0
 10
-13.628
 11
-14.119
 20
-15.72
 21
-16.276
  0
LINE
  8
0
 10
-14.119
 11
-14.813
 20
-16.276
 21
-16.539
  0
LINE
  8
0
 10
-14.813
 11
-15.55
 20
-16.539
 21
-16.449
  0
LINE
  8
0
 10
-15.55
 11
-16.16
 20
-16.449
 21
-16.028
  0
LINE
  8
0
 10
-16.16
 11
-16.505
 20
-16.028
 21
-15.371
  0
LINE
  8
0
 10
-6.505
 11
-6.505
 20
-15.371
 21
-14.629
  0
LINE
  8
0
 10
-6.505
 11
-6.16
 20
-14.629
 21
-13.972
  0
LINE
  8
0
 10
-6.16
 11
-5.55
 20
-13.972
 21
-13.551
  0
LINE
  8
0
 10
-5.55
 11
-4.813
 20
-13.551
 21
-13.461
  0
LINE
  8
0
 10
-4.813
 11
-4.119
 20
-13.461
 21
-13.724
  0
LINE
  8
0
 10
-4.119
 11
-3.628
 20
-13.724
 21
-14.28
  0
LINE
  8
0
 10
-3.628
 11
-3.45
 20
-14.28
 21
-15
  0
LINE
  8
0
 10
-3.45
 11
-3.628
 20
-15
 21
-15.72
  0
LINE
  8
0
 10
-3.628
 11
-4.119
 20
-15.72
 21
-16.276
  0
LINE
  8
0
 10
-4.119
 11
-4.813
 20
-16.276
 21
-16.539
  0
LINE
  8
0
 10
-4.813
 11
-5.55
 20
-16.539
 21
-16.449
  0
LINE
  8
0
 10
-5.55
 11
-6.16
 20
-16.449
 21
-16.028
  0
LINE
  8
0
 10
-6.16
 11
-6.505
 20
-16.028
 21
-15.371
  0
LINE
  8
0
 10
-3.1
 11
-3.1
 20
9.608
 21
10.392
  0
LINE
  8
0
 10
-3.1
 11
-2.906
 20
10.392
 21
11.15
  0
LINE
  8
0
 10
-2.906
 11
-2.528
 20
11.15
 21
11.837
  0
LINE
  8
0
 10
-2.528
 11
-1.992
 20
11.837
 21
12.408
  0
LINE
  8
0
 10
-1.992
 11
-1.331
 20
12.408
 21
12.828
  0
LINE
  8
0
 10
-1.331
 11
-0.586
 20
12.828
 21
13.07
  0
LINE
  8
0
 10
-0.586
 11
0.196
 20
13.07
 21
13.119
  0
LINE
  8
0
 10
0.196
 11
0.966
 20
13.119
 21
12.972
  0
LINE
  8
0
 10
0.966
 11
1.674
 20
12.972
 21
12.639
  0
LINE
  8
0
 10
1.674
 11
2.278
 20
12.639
 21
12.139
  0
LINE
  8
0
 10
2.278
 11
2.738
 20
12.139
 21
11.505
  0
LINE
  8
0
 10
2.738
 11
3.027
 20
11.505
 21
10.777
  0
LINE
  8
0
 10
3.027
 11
3.125
 20
10.777
 21
10
  0
LINE
  8
0
 10
3.125
 11
3.027
 20
10
 21
9.223
  0
LINE
  8
0
 10
3.027
 11
2.738
 20
9.223
 21
8.495
  0
LINE
  8
0
 10
2.738
 11
2.278
 20
8.495
 21
7.861
  0
LINE
  8
0
 10
2.278
 11
1.674
 20
7.861
 21
7.361
  0
LINE
  8
0
 10
1.674
 11
0.966
 20
7.361
 21
7.028
  0
LINE
  8
0
 10
0.966
 11
0.196
 20
7.028
 21
6.881
  0
LINE
  8
0
 10
0.196
 11
-0.586
 20
6.881
 21
6.93
  0
LINE
  8
0
 10
-0.586
 11
-1.331
 20
6.93
 21
7.172
  0
LINE
  8
0
 10
-1.331
 11
-1.992
 20
7.172
 21
7.592
  0
LINE
  8
0
 10
-1.992
 11
-2.528
 20
7.592
 21
8.163
  0
LINE
  8
0
 10
-2.528
 11
-2.906
 20
8.163
 21
8.85
  0
LINE
  8
0
 10
-2.906
 11
-3.1
 20
8.85
 21
9.608
  0
LINE
  8
0
 10
13.495
 11
13.495
 20
-15.371
 21
-14.629
  0
LINE
  8
0
 10
13.495
 11
13.84
 20
-14.629
 21
-13.972
  0
LINE
  8
0
 10
13.84
 11
14.45
 20
-13.972
 21
-13.551
  0
LINE
  8
0
 10
14.45
 11
15.187
 20
-13.551
 21
-13.461
  0
LINE
  8
0
 10
15.187
 11
15.881
 20
-13.461
 21
-13.724
  0
LINE
  8
0
 10
15.881
 11
16.372
 20
-13.724
 21
-14.28
  0
LINE
  8
0
 10
16.372
 11
16.55
 20
-14.28
 21
-15
  0
LINE
  8
0
 10
16.55
 11
16.372
 20
-15
 21
-15.72
  0
LINE
  8
0
 10
16.372
 11
15.881
 20
-15.72
 21
-16.276
  0
LINE
  8
0
 10
15.881
 11
15.187
 20
-16.276
 21
-16.539
  0
LINE
  8
0
 10
15.187
 11
14.45
 20
-16.539
 21
-16.449
  0
LINE
  8
0
 10
14.45
 11
13.84
 20
-16.449
 21
-16.028
  0
LINE
  8
0
 10
13.84
 11
13.495
 20
-16.028
 21
-15.371
  0
ENDSEC
  0
SECTION
  2
OBJECTS
  0
DICTIONARY
  0
ENDSEC
  0
EOF
