  0
SECTION
  2
BLOCKS
  0
ENDSEC
  0
SECTION
  2
ENTITIES
  0
LINE
  8
0
 10
-16.505
 11
-16.505
 20
-15.371
 21
-14.629
  0
LINE
  8
0
 10
-16.505
 11
-16.16
 20
-14.629
 21
-13.972
  0
LINE
  8
0
 10
-16.16
 11
-15.55
 20
-13.972
 21
-13.551
  0
LINE
  8
0
 10
-15.55
 11
-14.813
 20
-13.551
 21
-13.461
  0
LINE
  8
0
 10
-14.813
 11
-14.119
 20
-13.461
 21
-13.724
  0
LINE
  8
0
 10
-14.119
 11
-13.628
 20
-13.724
 21
-14.28
  0
LINE
  8
0
 10
-13.628
 11
-13.45
 20
-14.28
 21
-15
  0
LINE
  8
0
 10
-13.45
 11
-13.628
 20
-15
 21
-15.72
  0
LINE
  8
0
 10
-13.628
 11
-14.119
 20
-15.72
 21
-16.276
  0
LINE
  8
0
 10
-14.119
 11
-14.813
 20
-16.276
 21
-16.539
  0
LINE
  8
0
 10
-14.813
 11
-15.55
 20
-16.539
 21
-16.449
  0
LINE
  8
0
 10
-15.55
 11
-16.16
 20
-16.449
 21
-16.028
  0
LINE
  8
0
 10
-16.16
 11
-16.505
 20
-16.028
 21
-15.371
  0
LINE
  8
0
 10
-20
 11
-20
 20
-18
 21
18
  0
LINE
  8
0
 10
-20
 11
-19.848
 20
18
 21
18.765
  0
LINE
  8
0
 10
-19.848
 11
-19.414
 20
18.765
 21
19.414
  0
LINE
  8
0
 10
-19.414
 11
-18.765
 20
19.414
 21
19.848
  0
LINE
  8
0
 10
-18.765
 11
-18
 20
19.848
 21
20
  0
LINE
  8
0
 10
-18
 11
18
 20
20
 21
20
  0
LINE
  8
0
 10
18
 11
18.765
 20
20
 21
19.848
  0
LINE
  8
0
 10
18.765
 11
19.414
 20
19.848
 21
19.414
  0
LINE
  8
0
 10
19.414
 11
19.848
 20
19.414
 21
18.765
  0
LINE
  8
0
 10
19.848
 11
20
 20
18.765
 21
18
  0
LINE
  8
0
 10
20
 11
20
 20
18
 21
-18
  0
LINE
  8
0
 10
20
 11
19.848
 20
-18
 21
-18.765
  0
LINE
  8
0
 10
19.848
 11
19.414
 20
-18.765
 21
-19.414
  0
LINE
  8
0
 10
19.414
 11
18.765
 20
-19.414
 21
-19.848
  0
LINE
  8
0
 10
18.765
 11
18
 20
-19.848
 21
-20
  0
LINE
  8
0
 10
18
 11
-18
 20
-20
 21
-20
  0
LINE
  8
0
 10
-18
 11
-18.765
 20
-20
 21
-19.848
  0
LINE
  8
0
 10
-18.765
 11
-19.414
 20
-19.848
 21
-19.414
  0
LINE
  8
0
 10
-19.414
 11
-19.848
 20
-19.414
 21
-18.765
  0
LINE
  8
0
 10
-19.848
 11
-20
 20
-18.765
 21
-18
  0
LINE
  8
0
 10
-6.505
 11
-6.505
 20
-15.371
 21
-14.629
  0
LINE
  8
0
 10
-6.505
 11
-6.16
 20
-14.629
 21
-13.972
  0
LINE
  8
0
 10
-6.16
 11
-5.55
 20
-13.972
 21
-13.551
  0
LINE
  8
0
 10
-5.55
 11
-4.813
 20
-13.551
 21
-13.461
  0
LINE
  8
0
 10
-4.813
 11
-4.119
 20
-13.461
 21
-13.724
  0
LINE
  8
0
 10
-4.119
 11
-3.628
 20
-13.724
 21
-14.28
  0
LINE
  8
0
 10
-3.628
 11
-3.45
 20
-14.28
 21
-15
  0
LINE
  8
0
 10
-3.45
 11
-3.628
 20
-15
 21
-15.72
  0
LINE
  8
0
 10
-3.628
 11
-4.119
 20
-15.72
 21
-16.276
  0
LINE
  8
0
 10
-4.119
 11
-4.813
 20
-16.276
 21
-16.539
  0
LINE
  8
0
 10
-4.813
 11
-5.55
 20
-16.539
 21
-16.449
  0
LINE
  8
0
 10
-5.55
 11
-6.16
 20
-16.449
 21
-16.028
  0
LINE
  8
0
 10
-6.16
 11
-6.505
 20
-16.028
 21
-15.371
  0
LINE
  8
0
 10
-2.75
 11
-2.639
 20
0
 21
0.775
  0
LINE
  8
0
 10
-2.639
 11
-2.313
 20
0.775
 21
1.487
  0
LINE
  8
0
 10
-2.313
 11
-1.801
 20
1.487
 21
2.078
  0
LINE
  8
0
 10
-1.801
 11
-1.142
 20
2.078
 21
2.501
  0
LINE
  8
0
 10
-1.142
 11
-0.391
 20
2.501
 21
2.722
  0
LINE
  8
0
 10
-0.391
 11
0.391
 20
2.722
 21
2.722
  0
LINE
  8
0
 10
0.391
 11
1.142
 20
2.722
 21
2.501
  0
LINE
  8
0
 10
1.142
 11
1.801
 20
2.501
 21
2.078
  0
LINE
  8
0
 10
1.801
 11
2.313
 20
2.078
 21
1.487
  0
LINE
  8
0
 10
2.313
 11
2.639
 20
1.487
 21
0.775
  0
LINE
  8
0
 10
2.639
 11
2.75
 20
0.775
 21
0
  0
LINE
  8
0
 10
2.75
 11
2.639
 20
0
 21
-0.775
  0
LINE
  8
0
 10
2.639
 11
2.313
 20
-0.775
 21
-1.487
  0
LINE
  8
0
 10
2.313
 11
1.801
 20
-1.487
 21
-2.078
  0
LINE
  8
0
 10
1.801
 11
1.142
 20
-2.078
 21
-2.501
  0
LINE
  8
0
 10
1.142
 11
0.391
 20
-2.501
 21
-2.722
  0
LINE
  8
0
 10
0.391
 11
-0.391
 20
-2.722
 21
-2.722
  0
LINE
  8
0
 10
-0.391
 11
-1.142
 20
-2.722
 21
-2.501
  0
LINE
  8
0
 10
-1.142
 11
-1.801
 20
-2.501
 21
-2.078
  0
LINE
  8
0
 10
-1.801
 11
-2.313
 20
-2.078
 21
-1.487
  0
LINE
  8
0
 10
-2.313
 11
-2.639
 20
-1.487
 21
-0.775
  0
LINE
  8
0
 10
-2.639
 11
-2.75
 20
-0.775
 21
0
  0
LINE
  8
0
 10
13.495
 11
13.495
 20
-15.371
 21
-14.629
  0
LINE
  8
0
 10
13.495
 11
13.84
 20
-14.629
 21
-13.972
  0
LINE
  8
0
 10
13.84
 11
14.45
 20
-13.972
 21
-13.551
  0
LINE
  8
0
 10
14.45
 11
15.187
 20
-13.551
 21
-13.461
  0
LINE
  8
0
 10
15.187
 11
15.881
 20
-13.461
 21
-13.724
  0
LINE
  8
0
 10
15.881
 11
16.372
 20
-13.724
 21
-14.28
  0
LINE
  8
0
 10
16.372
 11
16.55
 20
-14.28
 21
-15
  0
LINE
  8
0
 10
16.55
 11
16.372
 20
-15
 21
-15.72
  0
LINE
  8
0
 10
16.372
 11
15.881
 20
-15.72
 21
-16.276
  0
LINE
  8
0
 10
15.881
 11
15.187
 20
-16.276
 21
-16.539
  0
LINE
  8
0
 10
15.187
 11
14.45
 20
-16.539
 21
-16.449
  0
LINE
  8
0
 10
14.45
 11
13.84
 20
-16.449
 21
-16.028
  0
LINE
  8
0
 10
13.84
 11
13.495
 20
-16.028
 21
-15.371
  0
ENDSEC
  0
SECTION
  2
OBJECTS
  0
DICTIONARY
  0
ENDSEC
  0
EOF
