  0
SECTION
  2
BLOCKS
  0
ENDSEC
  0
SECTION
  2
ENTITIES
  0
LINE
  8
0
 10
-16.505
 11
-16.505
 20
-27.871
 21
-27.129
  0
LINE
  8
0
 10
-16.505
 11
-16.16
 20
-27.129
 21
-26.472
  0
LINE
  8
0
 10
-16.16
 11
-15.55
 20
-26.472
 21
-26.051
  0
LINE
  8
0
 10
-15.55
 11
-14.813
 20
-26.051
 21
-25.961
  0
LINE
  8
0
 10
-14.813
 11
-14.119
 20
-25.961
 21
-26.224
  0
LINE
  8
0
 10
-14.119
 11
-13.628
 20
-26.224
 21
-26.78
  0
LINE
  8
0
 10
-13.628
 11
-13.45
 20
-26.78
 21
-27.5
  0
LINE
  8
0
 10
-13.45
 11
-13.628
 20
-27.5
 21
-28.22
  0
LINE
  8
0
 10
-13.628
 11
-14.119
 20
-28.22
 21
-28.776
  0
LINE
  8
0
 10
-14.119
 11
-14.813
 20
-28.776
 21
-29.039
  0
LINE
  8
0
 10
-14.813
 11
-15.55
 20
-29.039
 21
-28.949
  0
LINE
  8
0
 10
-15.55
 11
-16.16
 20
-28.949
 21
-28.528
  0
LINE
  8
0
 10
-16.16
 11
-16.505
 20
-28.528
 21
-27.871
  0
LINE
  8
0
 10
-16.505
 11
-16.505
 20
27.129
 21
27.871
  0
LINE
  8
0
 10
-16.505
 11
-16.16
 20
27.871
 21
28.528
  0
LINE
  8
0
 10
-16.16
 11
-15.55
 20
28.528
 21
28.949
  0
LINE
  8
0
 10
-15.55
 11
-14.813
 20
28.949
 21
29.039
  0
LINE
  8
0
 10
-14.813
 11
-14.119
 20
29.039
 21
28.776
  0
LINE
  8
0
 10
-14.119
 11
-13.628
 20
28.776
 21
28.22
  0
LINE
  8
0
 10
-13.628
 11
-13.45
 20
28.22
 21
27.5
  0
LINE
  8
0
 10
-13.45
 11
-13.628
 20
27.5
 21
26.78
  0
LINE
  8
0
 10
-13.628
 11
-14.119
 20
26.78
 21
26.224
  0
LINE
  8
0
 10
-14.119
 11
-14.813
 20
26.224
 21
25.961
  0
LINE
  8
0
 10
-14.813
 11
-15.55
 20
25.961
 21
26.051
  0
LINE
  8
0
 10
-15.55
 11
-16.16
 20
26.051
 21
26.472
  0
LINE
  8
0
 10
-16.16
 11
-16.505
 20
26.472
 21
27.129
  0
LINE
  8
0
 10
-20
 11
-20
 20
-30.55
 21
30.55
  0
LINE
  8
0
 10
-20
 11
-19.848
 20
30.55
 21
31.315
  0
LINE
  8
0
 10
-19.848
 11
-19.414
 20
31.315
 21
31.964
  0
LINE
  8
0
 10
-19.414
 11
-18.765
 20
31.964
 21
32.398
  0
LINE
  8
0
 10
-18.765
 11
-18
 20
32.398
 21
32.55
  0
LINE
  8
0
 10
-18
 11
18
 20
32.55
 21
32.55
  0
LINE
  8
0
 10
18
 11
18.765
 20
32.55
 21
32.398
  0
LINE
  8
0
 10
18.765
 11
19.414
 20
32.398
 21
31.964
  0
LINE
  8
0
 10
19.414
 11
19.848
 20
31.964
 21
31.315
  0
LINE
  8
0
 10
19.848
 11
20
 20
31.315
 21
30.55
  0
LINE
  8
0
 10
20
 11
20
 20
30.55
 21
-30.55
  0
LINE
  8
0
 10
20
 11
19.848
 20
-30.55
 21
-31.315
  0
LINE
  8
0
 10
19.848
 11
19.414
 20
-31.315
 21
-31.964
  0
LINE
  8
0
 10
19.414
 11
18.765
 20
-31.964
 21
-32.398
  0
LINE
  8
0
 10
18.765
 11
18
 20
-32.398
 21
-32.55
  0
LINE
  8
0
 10
18
 11
-18
 20
-32.55
 21
-32.55
  0
LINE
  8
0
 10
-18
 11
-18.765
 20
-32.55
 21
-32.398
  0
LINE
  8
0
 10
-18.765
 11
-19.414
 20
-32.398
 21
-31.964
  0
LINE
  8
0
 10
-19.414
 11
-19.848
 20
-31.964
 21
-31.315
  0
LINE
  8
0
 10
-19.848
 11
-20
 20
-31.315
 21
-30.55
  0
LINE
  8
0
 10
-14.005
 11
-14.005
 20
-0.371
 21
0.371
  0
LINE
  8
0
 10
-14.005
 11
-13.66
 20
0.371
 21
1.028
  0
LINE
  8
0
 10
-13.66
 11
-13.05
 20
1.028
 21
1.449
  0
LINE
  8
0
 10
-13.05
 11
-12.313
 20
1.449
 21
1.539
  0
LINE
  8
0
 10
-12.313
 11
-11.619
 20
1.539
 21
1.276
  0
LINE
  8
0
 10
-11.619
 11
-11.128
 20
1.276
 21
0.72
  0
LINE
  8
0
 10
-11.128
 11
-10.95
 20
0.72
 21
0
  0
LINE
  8
0
 10
-10.95
 11
-11.128
 20
0
 21
-0.72
  0
LINE
  8
0
 10
-11.128
 11
-11.619
 20
-0.72
 21
-1.276
  0
LINE
  8
0
 10
-11.619
 11
-12.313
 20
-1.276
 21
-1.539
  0
LINE
  8
0
 10
-12.313
 11
-13.05
 20
-1.539
 21
-1.449
  0
LINE
  8
0
 10
-13.05
 11
-13.66
 20
-1.449
 21
-1.028
  0
LINE
  8
0
 10
-13.66
 11
-14.005
 20
-1.028
 21
-0.371
  0
LINE
  8
0
 10
10.995
 11
10.995
 20
-0.371
 21
0.371
  0
LINE
  8
0
 10
10.995
 11
11.34
 20
0.371
 21
1.028
  0
LINE
  8
0
 10
11.34
 11
11.95
 20
1.028
 21
1.449
  0
LINE
  8
0
 10
11.95
 11
12.687
 20
1.449
 21
1.539
  0
LINE
  8
0
 10
12.687
 11
13.381
 20
1.539
 21
1.276
  0
LINE
  8
0
 10
13.381
 11
13.872
 20
1.276
 21
0.72
  0
LINE
  8
0
 10
13.872
 11
14.05
 20
0.72
 21
0
  0
LINE
  8
0
 10
14.05
 11
13.872
 20
0
 21
-0.72
  0
LINE
  8
0
 10
13.872
 11
13.381
 20
-0.72
 21
-1.276
  0
LINE
  8
0
 10
13.381
 11
12.687
 20
-1.276
 21
-1.539
  0
LINE
  8
0
 10
12.687
 11
11.95
 20
-1.539
 21
-1.449
  0
LINE
  8
0
 10
11.95
 11
11.34
 20
-1.449
 21
-1.028
  0
LINE
  8
0
 10
11.34
 11
10.995
 20
-1.028
 21
-0.371
  0
LINE
  8
0
 10
13.495
 11
13.495
 20
-27.871
 21
-27.129
  0
LINE
  8
0
 10
13.495
 11
13.84
 20
-27.129
 21
-26.472
  0
LINE
  8
0
 10
13.84
 11
14.45
 20
-26.472
 21
-26.051
  0
LINE
  8
0
 10
14.45
 11
15.187
 20
-26.051
 21
-25.961
  0
LINE
  8
0
 10
15.187
 11
15.881
 20
-25.961
 21
-26.224
  0
LINE
  8
0
 10
15.881
 11
16.372
 20
-26.224
 21
-26.78
  0
LINE
  8
0
 10
16.372
 11
16.55
 20
-26.78
 21
-27.5
  0
LINE
  8
0
 10
16.55
 11
16.372
 20
-27.5
 21
-28.22
  0
LINE
  8
0
 10
16.372
 11
15.881
 20
-28.22
 21
-28.776
  0
LINE
  8
0
 10
15.881
 11
15.187
 20
-28.776
 21
-29.039
  0
LINE
  8
0
 10
15.187
 11
14.45
 20
-29.039
 21
-28.949
  0
LINE
  8
0
 10
14.45
 11
13.84
 20
-28.949
 21
-28.528
  0
LINE
  8
0
 10
13.84
 11
13.495
 20
-28.528
 21
-27.871
  0
LINE
  8
0
 10
13.495
 11
13.495
 20
27.129
 21
27.871
  0
LINE
  8
0
 10
13.495
 11
13.84
 20
27.871
 21
28.528
  0
LINE
  8
0
 10
13.84
 11
14.45
 20
28.528
 21
28.949
  0
LINE
  8
0
 10
14.45
 11
15.187
 20
28.949
 21
29.039
  0
LINE
  8
0
 10
15.187
 11
15.881
 20
29.039
 21
28.776
  0
LINE
  8
0
 10
15.881
 11
16.372
 20
28.776
 21
28.22
  0
LINE
  8
0
 10
16.372
 11
16.55
 20
28.22
 21
27.5
  0
LINE
  8
0
 10
16.55
 11
16.372
 20
27.5
 21
26.78
  0
LINE
  8
0
 10
16.372
 11
15.881
 20
26.78
 21
26.224
  0
LINE
  8
0
 10
15.881
 11
15.187
 20
26.224
 21
25.961
  0
LINE
  8
0
 10
15.187
 11
14.45
 20
25.961
 21
26.051
  0
LINE
  8
0
 10
14.45
 11
13.84
 20
26.051
 21
26.472
  0
LINE
  8
0
 10
13.84
 11
13.495
 20
26.472
 21
27.129
  0
ENDSEC
  0
SECTION
  2
OBJECTS
  0
DICTIONARY
  0
ENDSEC
  0
EOF
