  0
SECTION
  2
BLOCKS
  0
ENDSEC
  0
SECTION
  2
ENTITIES
  0
LINE
  8
0
 10
-10
 11
-9.848
 20
0
 21
1.736
  0
LINE
  8
0
 10
-9.848
 11
-9.397
 20
1.736
 21
3.42
  0
LINE
  8
0
 10
-9.397
 11
-8.66
 20
3.42
 21
5
  0
LINE
  8
0
 10
-8.66
 11
-7.66
 20
5
 21
6.428
  0
LINE
  8
0
 10
-7.66
 11
-6.428
 20
6.428
 21
7.66
  0
LINE
  8
0
 10
-6.428
 11
-5
 20
7.66
 21
8.66
  0
LINE
  8
0
 10
-5
 11
-3.42
 20
8.66
 21
9.397
  0
LINE
  8
0
 10
-3.42
 11
-1.736
 20
9.397
 21
9.848
  0
LINE
  8
0
 10
-1.736
 11
0
 20
9.848
 21
10
  0
LINE
  8
0
 10
0
 11
1.736
 20
10
 21
9.848
  0
LINE
  8
0
 10
1.736
 11
3.42
 20
9.848
 21
9.397
  0
LINE
  8
0
 10
3.42
 11
5
 20
9.397
 21
8.66
  0
LINE
  8
0
 10
5
 11
6.428
 20
8.66
 21
7.66
  0
LINE
  8
0
 10
6.428
 11
7.66
 20
7.66
 21
6.428
  0
LINE
  8
0
 10
7.66
 11
8.66
 20
6.428
 21
5
  0
LINE
  8
0
 10
8.66
 11
9.397
 20
5
 21
3.42
  0
LINE
  8
0
 10
9.397
 11
9.848
 20
3.42
 21
1.736
  0
LINE
  8
0
 10
9.848
 11
10
 20
1.736
 21
0
  0
LINE
  8
0
 10
10
 11
9.848
 20
0
 21
-1.736
  0
LINE
  8
0
 10
9.848
 11
9.397
 20
-1.736
 21
-3.42
  0
LINE
  8
0
 10
9.397
 11
8.66
 20
-3.42
 21
-5
  0
LINE
  8
0
 10
8.66
 11
7.66
 20
-5
 21
-6.428
  0
LINE
  8
0
 10
7.66
 11
6.428
 20
-6.428
 21
-7.66
  0
LINE
  8
0
 10
6.428
 11
5
 20
-7.66
 21
-8.66
  0
LINE
  8
0
 10
5
 11
3.42
 20
-8.66
 21
-9.397
  0
LINE
  8
0
 10
3.42
 11
1.736
 20
-9.397
 21
-9.848
  0
LINE
  8
0
 10
1.736
 11
0
 20
-9.848
 21
-10
  0
LINE
  8
0
 10
0
 11
-1.736
 20
-10
 21
-9.848
  0
LINE
  8
0
 10
-1.736
 11
-3.42
 20
-9.848
 21
-9.397
  0
LINE
  8
0
 10
-3.42
 11
-5
 20
-9.397
 21
-8.66
  0
LINE
  8
0
 10
-5
 11
-6.428
 20
-8.66
 21
-7.66
  0
LINE
  8
0
 10
-6.428
 11
-7.66
 20
-7.66
 21
-6.428
  0
LINE
  8
0
 10
-7.66
 11
-8.66
 20
-6.428
 21
-5
  0
LINE
  8
0
 10
-8.66
 11
-9.397
 20
-5
 21
-3.42
  0
LINE
  8
0
 10
-9.397
 11
-9.848
 20
-3.42
 21
-1.736
  0
LINE
  8
0
 10
-9.848
 11
-10
 20
-1.736
 21
0
  0
LINE
  8
0
 10
-1.505
 11
-1.505
 20
-5.371
 21
-4.629
  0
LINE
  8
0
 10
-1.505
 11
-1.16
 20
-4.629
 21
-3.972
  0
LINE
  8
0
 10
-1.16
 11
-0.55
 20
-3.972
 21
-3.551
  0
LINE
  8
0
 10
-0.55
 11
0.187
 20
-3.551
 21
-3.461
  0
LINE
  8
0
 10
0.187
 11
0.88
 20
-3.461
 21
-3.724
  0
LINE
  8
0
 10
0.88
 11
1.372
 20
-3.724
 21
-4.28
  0
LINE
  8
0
 10
1.372
 11
1.55
 20
-4.28
 21
-5
  0
LINE
  8
0
 10
1.55
 11
1.372
 20
-5
 21
-5.72
  0
LINE
  8
0
 10
1.372
 11
0.88
 20
-5.72
 21
-6.276
  0
LINE
  8
0
 10
0.88
 11
0.187
 20
-6.276
 21
-6.539
  0
LINE
  8
0
 10
0.187
 11
-0.55
 20
-6.539
 21
-6.449
  0
LINE
  8
0
 10
-0.55
 11
-1.16
 20
-6.449
 21
-6.028
  0
LINE
  8
0
 10
-1.16
 11
-1.505
 20
-6.028
 21
-5.371
  0
LINE
  8
0
 10
-1.505
 11
-1.505
 20
4.629
 21
5.371
  0
LINE
  8
0
 10
-1.505
 11
-1.16
 20
5.371
 21
6.028
  0
LINE
  8
0
 10
-1.16
 11
-0.55
 20
6.028
 21
6.449
  0
LINE
  8
0
 10
-0.55
 11
0.187
 20
6.449
 21
6.539
  0
LINE
  8
0
 10
0.187
 11
0.88
 20
6.539
 21
6.276
  0
LINE
  8
0
 10
0.88
 11
1.372
 20
6.276
 21
5.72
  0
LINE
  8
0
 10
1.372
 11
1.55
 20
5.72
 21
5
  0
LINE
  8
0
 10
1.55
 11
1.372
 20
5
 21
4.28
  0
LINE
  8
0
 10
1.372
 11
0.88
 20
4.28
 21
3.724
  0
LINE
  8
0
 10
0.88
 11
0.187
 20
3.724
 21
3.461
  0
LINE
  8
0
 10
0.187
 11
-0.55
 20
3.461
 21
3.551
  0
LINE
  8
0
 10
-0.55
 11
-1.16
 20
3.551
 21
3.972
  0
LINE
  8
0
 10
-1.16
 11
-1.505
 20
3.972
 21
4.629
  0
LINE
  8
0
 10
-1.5
 11
-1.299
 20
0
 21
0.75
  0
LINE
  8
0
 10
-1.299
 11
-0.75
 20
0.75
 21
1.299
  0
LINE
  8
0
 10
-0.75
 11
0
 20
1.299
 21
1.5
  0
LINE
  8
0
 10
0
 11
0.75
 20
1.5
 21
1.299
  0
LINE
  8
0
 10
0.75
 11
1.299
 20
1.299
 21
0.75
  0
LINE
  8
0
 10
1.299
 11
1.5
 20
0.75
 21
0
  0
LINE
  8
0
 10
1.5
 11
1.299
 20
0
 21
-0.75
  0
LINE
  8
0
 10
1.299
 11
0.75
 20
-0.75
 21
-1.299
  0
LINE
  8
0
 10
0.75
 11
0
 20
-1.299
 21
-1.5
  0
LINE
  8
0
 10
0
 11
-0.75
 20
-1.5
 21
-1.299
  0
LINE
  8
0
 10
-0.75
 11
-1.299
 20
-1.299
 21
-0.75
  0
LINE
  8
0
 10
-1.299
 11
-1.5
 20
-0.75
 21
0
  0
LINE
  8
0
 10
3.5
 11
3.5
 20
-2.95
 21
2.95
  0
LINE
  8
0
 10
3.5
 11
6.5
 20
2.95
 21
2.95
  0
LINE
  8
0
 10
6.5
 11
6.5
 20
2.95
 21
-2.95
  0
LINE
  8
0
 10
6.5
 11
3.5
 20
-2.95
 21
-2.95
  0
LINE
  8
0
 10
40
 11
40.152
 20
0
 21
1.736
  0
LINE
  8
0
 10
40.152
 11
40.603
 20
1.736
 21
3.42
  0
LINE
  8
0
 10
40.603
 11
41.34
 20
3.42
 21
5
  0
LINE
  8
0
 10
41.34
 11
42.34
 20
5
 21
6.428
  0
LINE
  8
0
 10
42.34
 11
43.572
 20
6.428
 21
7.66
  0
LINE
  8
0
 10
43.572
 11
45
 20
7.66
 21
8.66
  0
LINE
  8
0
 10
45
 11
46.58
 20
8.66
 21
9.397
  0
LINE
  8
0
 10
46.58
 11
48.264
 20
9.397
 21
9.848
  0
LINE
  8
0
 10
48.264
 11
50
 20
9.848
 21
10
  0
LINE
  8
0
 10
50
 11
51.736
 20
10
 21
9.848
  0
LINE
  8
0
 10
51.736
 11
53.42
 20
9.848
 21
9.397
  0
LINE
  8
0
 10
53.42
 11
55
 20
9.397
 21
8.66
  0
LINE
  8
0
 10
55
 11
56.428
 20
8.66
 21
7.66
  0
LINE
  8
0
 10
56.428
 11
57.66
 20
7.66
 21
6.428
  0
LINE
  8
0
 10
57.66
 11
58.66
 20
6.428
 21
5
  0
LINE
  8
0
 10
58.66
 11
59.397
 20
5
 21
3.42
  0
LINE
  8
0
 10
59.397
 11
59.848
 20
3.42
 21
1.736
  0
LINE
  8
0
 10
59.848
 11
60
 20
1.736
 21
0
  0
LINE
  8
0
 10
60
 11
59.848
 20
0
 21
-1.736
  0
LINE
  8
0
 10
59.848
 11
59.397
 20
-1.736
 21
-3.42
  0
LINE
  8
0
 10
59.397
 11
58.66
 20
-3.42
 21
-5
  0
LINE
  8
0
 10
58.66
 11
57.66
 20
-5
 21
-6.428
  0
LINE
  8
0
 10
57.66
 11
56.428
 20
-6.428
 21
-7.66
  0
LINE
  8
0
 10
56.428
 11
55
 20
-7.66
 21
-8.66
  0
LINE
  8
0
 10
55
 11
53.42
 20
-8.66
 21
-9.397
  0
LINE
  8
0
 10
53.42
 11
51.736
 20
-9.397
 21
-9.848
  0
LINE
  8
0
 10
51.736
 11
50
 20
-9.848
 21
-10
  0
LINE
  8
0
 10
50
 11
48.264
 20
-10
 21
-9.848
  0
LINE
  8
0
 10
48.264
 11
46.58
 20
-9.848
 21
-9.397
  0
LINE
  8
0
 10
46.58
 11
45
 20
-9.397
 21
-8.66
  0
LINE
  8
0
 10
45
 11
43.572
 20
-8.66
 21
-7.66
  0
LINE
  8
0
 10
43.572
 11
42.34
 20
-7.66
 21
-6.428
  0
LINE
  8
0
 10
42.34
 11
41.34
 20
-6.428
 21
-5
  0
LINE
  8
0
 10
41.34
 11
40.603
 20
-5
 21
-3.42
  0
LINE
  8
0
 10
40.603
 11
40.152
 20
-3.42
 21
-1.736
  0
LINE
  8
0
 10
40.152
 11
40
 20
-1.736
 21
0
  0
LINE
  8
0
 10
48.495
 11
48.495
 20
-5.371
 21
-4.629
  0
LINE
  8
0
 10
48.495
 11
48.84
 20
-4.629
 21
-3.972
  0
LINE
  8
0
 10
48.84
 11
49.45
 20
-3.972
 21
-3.551
  0
LINE
  8
0
 10
49.45
 11
50.187
 20
-3.551
 21
-3.461
  0
LINE
  8
0
 10
50.187
 11
50.881
 20
-3.461
 21
-3.724
  0
LINE
  8
0
 10
50.881
 11
51.372
 20
-3.724
 21
-4.28
  0
LINE
  8
0
 10
51.372
 11
51.55
 20
-4.28
 21
-5
  0
LINE
  8
0
 10
51.55
 11
51.372
 20
-5
 21
-5.72
  0
LINE
  8
0
 10
51.372
 11
50.881
 20
-5.72
 21
-6.276
  0
LINE
  8
0
 10
50.881
 11
50.187
 20
-6.276
 21
-6.539
  0
LINE
  8
0
 10
50.187
 11
49.45
 20
-6.539
 21
-6.449
  0
LINE
  8
0
 10
49.45
 11
48.84
 20
-6.449
 21
-6.028
  0
LINE
  8
0
 10
48.84
 11
48.495
 20
-6.028
 21
-5.371
  0
LINE
  8
0
 10
48.495
 11
48.495
 20
4.629
 21
5.371
  0
LINE
  8
0
 10
48.495
 11
48.84
 20
5.371
 21
6.028
  0
LINE
  8
0
 10
48.84
 11
49.45
 20
6.028
 21
6.449
  0
LINE
  8
0
 10
49.45
 11
50.187
 20
6.449
 21
6.539
  0
LINE
  8
0
 10
50.187
 11
50.881
 20
6.539
 21
6.276
  0
LINE
  8
0
 10
50.881
 11
51.372
 20
6.276
 21
5.72
  0
LINE
  8
0
 10
51.372
 11
51.55
 20
5.72
 21
5
  0
LINE
  8
0
 10
51.55
 11
51.372
 20
5
 21
4.28
  0
LINE
  8
0
 10
51.372
 11
50.881
 20
4.28
 21
3.724
  0
LINE
  8
0
 10
50.881
 11
50.187
 20
3.724
 21
3.461
  0
LINE
  8
0
 10
50.187
 11
49.45
 20
3.461
 21
3.551
  0
LINE
  8
0
 10
49.45
 11
48.84
 20
3.551
 21
3.972
  0
LINE
  8
0
 10
48.84
 11
48.495
 20
3.972
 21
4.629
  0
LINE
  8
0
 10
48.5
 11
48.701
 20
0
 21
0.75
  0
LINE
  8
0
 10
48.701
 11
49.25
 20
0.75
 21
1.299
  0
LINE
  8
0
 10
49.25
 11
50
 20
1.299
 21
1.5
  0
LINE
  8
0
 10
50
 11
50.75
 20
1.5
 21
1.299
  0
LINE
  8
0
 10
50.75
 11
51.299
 20
1.299
 21
0.75
  0
LINE
  8
0
 10
51.299
 11
51.5
 20
0.75
 21
0
  0
LINE
  8
0
 10
51.5
 11
51.299
 20
0
 21
-0.75
  0
LINE
  8
0
 10
51.299
 11
50.75
 20
-0.75
 21
-1.299
  0
LINE
  8
0
 10
50.75
 11
50
 20
-1.299
 21
-1.5
  0
LINE
  8
0
 10
50
 11
49.25
 20
-1.5
 21
-1.299
  0
LINE
  8
0
 10
49.25
 11
48.701
 20
-1.299
 21
-0.75
  0
LINE
  8
0
 10
48.701
 11
48.5
 20
-0.75
 21
0
  0
LINE
  8
0
 10
53.5
 11
53.5
 20
-2.95
 21
2.95
  0
LINE
  8
0
 10
53.5
 11
56.5
 20
2.95
 21
2.95
  0
LINE
  8
0
 10
56.5
 11
56.5
 20
2.95
 21
-2.95
  0
LINE
  8
0
 10
56.5
 11
53.5
 20
-2.95
 21
-2.95
  0
LINE
  8
0
 10
81.495
 11
81.495
 20
-5.371
 21
-4.629
  0
LINE
  8
0
 10
81.495
 11
81.84
 20
-4.629
 21
-3.972
  0
LINE
  8
0
 10
81.84
 11
82.45
 20
-3.972
 21
-3.551
  0
LINE
  8
0
 10
82.45
 11
83.187
 20
-3.551
 21
-3.461
  0
LINE
  8
0
 10
83.187
 11
83.881
 20
-3.461
 21
-3.724
  0
LINE
  8
0
 10
83.881
 11
84.372
 20
-3.724
 21
-4.28
  0
LINE
  8
0
 10
84.372
 11
84.55
 20
-4.28
 21
-5
  0
LINE
  8
0
 10
84.55
 11
84.372
 20
-5
 21
-5.72
  0
LINE
  8
0
 10
84.372
 11
83.881
 20
-5.72
 21
-6.276
  0
LINE
  8
0
 10
83.881
 11
83.187
 20
-6.276
 21
-6.539
  0
LINE
  8
0
 10
83.187
 11
82.45
 20
-6.539
 21
-6.449
  0
LINE
  8
0
 10
82.45
 11
81.84
 20
-6.449
 21
-6.028
  0
LINE
  8
0
 10
81.84
 11
81.495
 20
-6.028
 21
-5.371
  0
LINE
  8
0
 10
81.495
 11
81.495
 20
4.629
 21
5.371
  0
LINE
  8
0
 10
81.495
 11
81.84
 20
5.371
 21
6.028
  0
LINE
  8
0
 10
81.84
 11
82.45
 20
6.028
 21
6.449
  0
LINE
  8
0
 10
82.45
 11
83.187
 20
6.449
 21
6.539
  0
LINE
  8
0
 10
83.187
 11
83.881
 20
6.539
 21
6.276
  0
LINE
  8
0
 10
83.881
 11
84.372
 20
6.276
 21
5.72
  0
LINE
  8
0
 10
84.372
 11
84.55
 20
5.72
 21
5
  0
LINE
  8
0
 10
84.55
 11
84.372
 20
5
 21
4.28
  0
LINE
  8
0
 10
84.372
 11
83.881
 20
4.28
 21
3.724
  0
LINE
  8
0
 10
83.881
 11
83.187
 20
3.724
 21
3.461
  0
LINE
  8
0
 10
83.187
 11
82.45
 20
3.461
 21
3.551
  0
LINE
  8
0
 10
82.45
 11
81.84
 20
3.551
 21
3.972
  0
LINE
  8
0
 10
81.84
 11
81.495
 20
3.972
 21
4.629
  0
LINE
  8
0
 10
81.5
 11
81.701
 20
0
 21
0.75
  0
LINE
  8
0
 10
81.701
 11
82.25
 20
0.75
 21
1.299
  0
LINE
  8
0
 10
82.25
 11
83
 20
1.299
 21
1.5
  0
LINE
  8
0
 10
83
 11
83.75
 20
1.5
 21
1.299
  0
LINE
  8
0
 10
83.75
 11
84.299
 20
1.299
 21
0.75
  0
LINE
  8
0
 10
84.299
 11
84.5
 20
0.75
 21
0
  0
LINE
  8
0
 10
84.5
 11
84.299
 20
0
 21
-0.75
  0
LINE
  8
0
 10
84.299
 11
83.75
 20
-0.75
 21
-1.299
  0
LINE
  8
0
 10
83.75
 11
83
 20
-1.299
 21
-1.5
  0
LINE
  8
0
 10
83
 11
82.25
 20
-1.5
 21
-1.299
  0
LINE
  8
0
 10
82.25
 11
81.701
 20
-1.299
 21
-0.75
  0
LINE
  8
0
 10
81.701
 11
81.5
 20
-0.75
 21
0
  0
LINE
  8
0
 10
65.077
 11
73.075
 20
1.187
 21
1.327
  0
LINE
  8
0
 10
73.075
 11
73.082
 20
1.327
 21
0.939
  0
LINE
  8
0
 10
73.082
 11
73.141
 20
0.939
 21
1.614
  0
LINE
  8
0
 10
73.141
 11
73.094
 20
1.614
 21
1.46
  0
LINE
  8
0
 10
73.094
 11
65.444
 20
1.46
 21
3.799
  0
LINE
  8
0
 10
65.444
 11
66.321
 20
3.799
 21
6.668
  0
LINE
  8
0
 10
66.321
 11
73.971
 20
6.668
 21
4.329
  0
LINE
  8
0
 10
73.971
 11
73.865
 20
4.329
 21
3.982
  0
LINE
  8
0
 10
73.865
 11
74.189
 20
3.982
 21
4.677
  0
LINE
  8
0
 10
74.189
 11
74.03
 20
4.677
 21
4.45
  0
LINE
  8
0
 10
74.03
 11
67.477
 20
4.45
 21
9.038
  0
LINE
  8
0
 10
67.477
 11
69.198
 20
9.038
 21
11.496
  0
LINE
  8
0
 10
69.198
 11
75.751
 20
11.496
 21
6.907
  0
LINE
  8
0
 10
75.751
 11
75.592
 20
6.907
 21
6.68
  0
LINE
  8
0
 10
75.592
 11
76.134
 20
6.68
 21
7.222
  0
LINE
  8
0
 10
76.134
 11
75.844
 20
7.222
 21
7.004
  0
LINE
  8
0
 10
75.844
 11
71.03
 20
7.004
 21
13.393
  0
LINE
  8
0
 10
71.03
 11
73.425
 20
13.393
 21
15.198
  0
LINE
  8
0
 10
73.425
 11
78.24
 20
15.198
 21
8.809
  0
LINE
  8
0
 10
78.24
 11
78.111
 20
8.809
 21
8.712
  0
LINE
  8
0
 10
78.111
 11
78.726
 20
8.712
 21
8.999
  0
LINE
  8
0
 10
78.726
 11
78.359
 20
8.999
 21
8.872
  0
LINE
  8
0
 10
78.359
 11
75.754
 20
8.872
 21
16.436
  0
LINE
  8
0
 10
75.754
 11
78.591
 20
16.436
 21
17.413
  0
LINE
  8
0
 10
78.591
 11
81.195
 20
17.413
 21
9.849
  0
LINE
  8
0
 10
81.195
 11
80.943
 20
9.849
 21
9.762
  0
LINE
  8
0
 10
80.943
 11
81.264
 20
9.762
 21
9.848
  0
LINE
  8
0
 10
81.264
 11
81.594
 20
9.848
 21
9.877
  0
LINE
  8
0
 10
81.594
 11
81.327
 20
9.877
 21
9.872
  0
LINE
  8
0
 10
81.327
 11
81.188
 20
9.872
 21
17.871
  0
LINE
  8
0
 10
81.188
 11
84.187
 20
17.871
 21
17.923
  0
LINE
  8
0
 10
84.187
 11
84.327
 20
17.923
 21
9.925
  0
LINE
  8
0
 10
84.327
 11
83.939
 20
9.925
 21
9.918
  0
LINE
  8
0
 10
83.939
 11
84.614
 20
9.918
 21
9.859
  0
LINE
  8
0
 10
84.614
 11
84.46
 20
9.859
 21
9.906
  0
LINE
  8
0
 10
84.46
 11
86.799
 20
9.906
 21
17.556
  0
LINE
  8
0
 10
86.799
 11
89.668
 20
17.556
 21
16.679
  0
LINE
  8
0
 10
89.668
 11
87.329
 20
16.679
 21
9.029
  0
LINE
  8
0
 10
87.329
 11
86.982
 20
9.029
 21
9.135
  0
LINE
  8
0
 10
86.982
 11
87.677
 20
9.135
 21
8.811
  0
LINE
  8
0
 10
87.677
 11
87.45
 20
8.811
 21
8.97
  0
LINE
  8
0
 10
87.45
 11
92.038
 20
8.97
 21
15.523
  0
LINE
  8
0
 10
92.038
 11
94.496
 20
15.523
 21
13.802
  0
LINE
  8
0
 10
94.496
 11
89.907
 20
13.802
 21
7.249
  0
LINE
  8
0
 10
89.907
 11
89.68
 20
7.249
 21
7.408
  0
LINE
  8
0
 10
89.68
 11
90.222
 20
7.408
 21
6.866
  0
LINE
  8
0
 10
90.222
 11
90.004
 20
6.866
 21
7.156
  0
LINE
  8
0
 10
90.004
 11
96.393
 20
7.156
 21
11.97
  0
LINE
  8
0
 10
96.393
 11
98.198
 20
11.97
 21
9.575
  0
LINE
  8
0
 10
98.198
 11
91.809
 20
9.575
 21
4.76
  0
LINE
  8
0
 10
91.809
 11
91.712
 20
4.76
 21
4.889
  0
LINE
  8
0
 10
91.712
 11
91.999
 20
4.889
 21
4.274
  0
LINE
  8
0
 10
91.999
 11
91.872
 20
4.274
 21
4.641
  0
LINE
  8
0
 10
91.872
 11
99.436
 20
4.641
 21
7.246
  0
LINE
  8
0
 10
99.436
 11
100.413
 20
7.246
 21
4.409
  0
LINE
  8
0
 10
100.413
 11
92.849
 20
4.409
 21
1.805
  0
LINE
  8
0
 10
92.849
 11
92.762
 20
1.805
 21
2.057
  0
LINE
  8
0
 10
92.762
 11
92.848
 20
2.057
 21
1.736
  0
LINE
  8
0
 10
92.848
 11
92.877
 20
1.736
 21
1.406
  0
LINE
  8
0
 10
92.877
 11
92.872
 20
1.406
 21
1.673
  0
LINE
  8
0
 10
92.872
 11
100.871
 20
1.673
 21
1.812
  0
LINE
  8
0
 10
100.871
 11
100.923
 20
1.812
 21
-1.187
  0
LINE
  8
0
 10
100.923
 11
92.925
 20
-1.187
 21
-1.327
  0
LINE
  8
0
 10
92.925
 11
92.918
 20
-1.327
 21
-0.939
  0
LINE
  8
0
 10
92.918
 11
92.859
 20
-0.939
 21
-1.614
  0
LINE
  8
0
 10
92.859
 11
92.906
 20
-1.614
 21
-1.46
  0
LINE
  8
0
 10
92.906
 11
100.556
 20
-1.46
 21
-3.799
  0
LINE
  8
0
 10
100.556
 11
99.679
 20
-3.799
 21
-6.668
  0
LINE
  8
0
 10
99.679
 11
92.029
 20
-6.668
 21
-4.329
  0
LINE
  8
0
 10
92.029
 11
92.135
 20
-4.329
 21
-3.982
  0
LINE
  8
0
 10
92.135
 11
91.811
 20
-3.982
 21
-4.677
  0
LINE
  8
0
 10
91.811
 11
91.97
 20
-4.677
 21
-4.45
  0
LINE
  8
0
 10
91.97
 11
98.523
 20
-4.45
 21
-9.038
  0
LINE
  8
0
 10
98.523
 11
96.802
 20
-9.038
 21
-11.496
  0
LINE
  8
0
 10
96.802
 11
90.249
 20
-11.496
 21
-6.907
  0
LINE
  8
0
 10
90.249
 11
90.408
 20
-6.907
 21
-6.68
  0
LINE
  8
0
 10
90.408
 11
89.866
 20
-6.68
 21
-7.222
  0
LINE
  8
0
 10
89.866
 11
90.156
 20
-7.222
 21
-7.004
  0
LINE
  8
0
 10
90.156
 11
94.97
 20
-7.004
 21
-13.393
  0
LINE
  8
0
 10
94.97
 11
92.575
 20
-13.393
 21
-15.198
  0
LINE
  8
0
 10
92.575
 11
87.76
 20
-15.198
 21
-8.809
  0
LINE
  8
0
 10
87.76
 11
87.889
 20
-8.809
 21
-8.712
  0
LINE
  8
0
 10
87.889
 11
87.274
 20
-8.712
 21
-8.999
  0
LINE
  8
0
 10
87.274
 11
87.641
 20
-8.999
 21
-8.872
  0
LINE
  8
0
 10
87.641
 11
90.246
 20
-8.872
 21
-16.436
  0
LINE
  8
0
 10
90.246
 11
87.409
 20
-16.436
 21
-17.413
  0
LINE
  8
0
 10
87.409
 11
84.805
 20
-17.413
 21
-9.849
  0
LINE
  8
0
 10
84.805
 11
85.057
 20
-9.849
 21
-9.762
  0
LINE
  8
0
 10
85.057
 11
84.736
 20
-9.762
 21
-9.848
  0
LINE
  8
0
 10
84.736
 11
84.406
 20
-9.848
 21
-9.877
  0
LINE
  8
0
 10
84.406
 11
84.673
 20
-9.877
 21
-9.872
  0
LINE
  8
0
 10
84.673
 11
84.812
 20
-9.872
 21
-17.871
  0
LINE
  8
0
 10
84.812
 11
81.813
 20
-17.871
 21
-17.923
  0
LINE
  8
0
 10
81.813
 11
81.673
 20
-17.923
 21
-9.925
  0
LINE
  8
0
 10
81.673
 11
82.061
 20
-9.925
 21
-9.918
  0
LINE
  8
0
 10
82.061
 11
81.386
 20
-9.918
 21
-9.859
  0
LINE
  8
0
 10
81.386
 11
81.54
 20
-9.859
 21
-9.906
  0
LINE
  8
0
 10
81.54
 11
79.201
 20
-9.906
 21
-17.556
  0
LINE
  8
0
 10
79.201
 11
76.332
 20
-17.556
 21
-16.679
  0
LINE
  8
0
 10
76.332
 11
78.671
 20
-16.679
 21
-9.029
  0
LINE
  8
0
 10
78.671
 11
79.018
 20
-9.029
 21
-9.135
  0
LINE
  8
0
 10
79.018
 11
78.323
 20
-9.135
 21
-8.811
  0
LINE
  8
0
 10
78.323
 11
78.55
 20
-8.811
 21
-8.97
  0
LINE
  8
0
 10
78.55
 11
73.962
 20
-8.97
 21
-15.523
  0
LINE
  8
0
 10
73.962
 11
71.504
 20
-15.523
 21
-13.802
  0
LINE
  8
0
 10
71.504
 11
76.093
 20
-13.802
 21
-7.249
  0
LINE
  8
0
 10
76.093
 11
76.32
 20
-7.249
 21
-7.408
  0
LINE
  8
0
 10
76.32
 11
75.778
 20
-7.408
 21
-6.866
  0
LINE
  8
0
 10
75.778
 11
75.996
 20
-6.866
 21
-7.156
  0
LINE
  8
0
 10
75.996
 11
69.607
 20
-7.156
 21
-11.97
  0
LINE
  8
0
 10
69.607
 11
67.802
 20
-11.97
 21
-9.575
  0
LINE
  8
0
 10
67.802
 11
74.191
 20
-9.575
 21
-4.76
  0
LINE
  8
0
 10
74.191
 11
74.288
 20
-4.76
 21
-4.889
  0
LINE
  8
0
 10
74.288
 11
74.001
 20
-4.889
 21
-4.274
  0
LINE
  8
0
 10
74.001
 11
74.128
 20
-4.274
 21
-4.641
  0
LINE
  8
0
 10
74.128
 11
66.564
 20
-4.641
 21
-7.246
  0
LINE
  8
0
 10
66.564
 11
65.587
 20
-7.246
 21
-4.409
  0
LINE
  8
0
 10
65.587
 11
73.151
 20
-4.409
 21
-1.805
  0
LINE
  8
0
 10
73.151
 11
73.238
 20
-1.805
 21
-2.057
  0
LINE
  8
0
 10
73.238
 11
73.152
 20
-2.057
 21
-1.736
  0
LINE
  8
0
 10
73.152
 11
73.123
 20
-1.736
 21
-1.406
  0
LINE
  8
0
 10
73.123
 11
73.128
 20
-1.406
 21
-1.673
  0
LINE
  8
0
 10
73.128
 11
65.129
 20
-1.673
 21
-1.812
  0
LINE
  8
0
 10
65.129
 11
65.077
 20
-1.812
 21
1.187
  0
LINE
  8
0
 10
86.5
 11
86.5
 20
-2.95
 21
2.95
  0
LINE
  8
0
 10
86.5
 11
89.5
 20
2.95
 21
2.95
  0
LINE
  8
0
 10
89.5
 11
89.5
 20
2.95
 21
-2.95
  0
LINE
  8
0
 10
89.5
 11
86.5
 20
-2.95
 21
-2.95
  0
ENDSEC
  0
SECTION
  2
OBJECTS
  0
DICTIONARY
  0
ENDSEC
  0
EOF
