  0
SECTION
  2
BLOCKS
  0
ENDSEC
  0
SECTION
  2
ENTITIES
  0
LINE
  8
0
 10
-20
 11
-20
 20
-18
 21
18
  0
LINE
  8
0
 10
-20
 11
-19.848
 20
18
 21
18.765
  0
LINE
  8
0
 10
-19.848
 11
-19.414
 20
18.765
 21
19.414
  0
LINE
  8
0
 10
-19.414
 11
-18.765
 20
19.414
 21
19.848
  0
LINE
  8
0
 10
-18.765
 11
-18
 20
19.848
 21
20
  0
LINE
  8
0
 10
-18
 11
18
 20
20
 21
20
  0
LINE
  8
0
 10
18
 11
18.765
 20
20
 21
19.848
  0
LINE
  8
0
 10
18.765
 11
19.414
 20
19.848
 21
19.414
  0
LINE
  8
0
 10
19.414
 11
19.848
 20
19.414
 21
18.765
  0
LINE
  8
0
 10
19.848
 11
20
 20
18.765
 21
18
  0
LINE
  8
0
 10
20
 11
20
 20
18
 21
-18
  0
LINE
  8
0
 10
20
 11
19.848
 20
-18
 21
-18.765
  0
LINE
  8
0
 10
19.848
 11
19.414
 20
-18.765
 21
-19.414
  0
LINE
  8
0
 10
19.414
 11
18.765
 20
-19.414
 21
-19.848
  0
LINE
  8
0
 10
18.765
 11
18
 20
-19.848
 21
-20
  0
LINE
  8
0
 10
18
 11
-18
 20
-20
 21
-20
  0
LINE
  8
0
 10
-18
 11
-18.765
 20
-20
 21
-19.848
  0
LINE
  8
0
 10
-18.765
 11
-19.414
 20
-19.848
 21
-19.414
  0
LINE
  8
0
 10
-19.414
 11
-19.848
 20
-19.414
 21
-18.765
  0
LINE
  8
0
 10
-19.848
 11
-20
 20
-18.765
 21
-18
  0
LINE
  8
0
 10
-16.505
 11
-16.505
 20
-15.371
 21
-14.629
  0
LINE
  8
0
 10
-16.505
 11
-16.16
 20
-14.629
 21
-13.972
  0
LINE
  8
0
 10
-16.16
 11
-15.55
 20
-13.972
 21
-13.551
  0
LINE
  8
0
 10
-15.55
 11
-14.813
 20
-13.551
 21
-13.461
  0
LINE
  8
0
 10
-14.813
 11
-14.119
 20
-13.461
 21
-13.724
  0
LINE
  8
0
 10
-14.119
 11
-13.628
 20
-13.724
 21
-14.28
  0
LINE
  8
0
 10
-13.628
 11
-13.45
 20
-14.28
 21
-15
  0
LINE
  8
0
 10
-13.45
 11
-13.628
 20
-15
 21
-15.72
  0
LINE
  8
0
 10
-13.628
 11
-14.119
 20
-15.72
 21
-16.276
  0
LINE
  8
0
 10
-14.119
 11
-14.813
 20
-16.276
 21
-16.539
  0
LINE
  8
0
 10
-14.813
 11
-15.55
 20
-16.539
 21
-16.449
  0
LINE
  8
0
 10
-15.55
 11
-16.16
 20
-16.449
 21
-16.028
  0
LINE
  8
0
 10
-16.16
 11
-16.505
 20
-16.028
 21
-15.371
  0
LINE
  8
0
 10
-16.505
 11
-16.505
 20
14.629
 21
15.371
  0
LINE
  8
0
 10
-16.505
 11
-16.16
 20
15.371
 21
16.028
  0
LINE
  8
0
 10
-16.16
 11
-15.55
 20
16.028
 21
16.449
  0
LINE
  8
0
 10
-15.55
 11
-14.813
 20
16.449
 21
16.539
  0
LINE
  8
0
 10
-14.813
 11
-14.119
 20
16.539
 21
16.276
  0
LINE
  8
0
 10
-14.119
 11
-13.628
 20
16.276
 21
15.72
  0
LINE
  8
0
 10
-13.628
 11
-13.45
 20
15.72
 21
15
  0
LINE
  8
0
 10
-13.45
 11
-13.628
 20
15
 21
14.28
  0
LINE
  8
0
 10
-13.628
 11
-14.119
 20
14.28
 21
13.724
  0
LINE
  8
0
 10
-14.119
 11
-14.813
 20
13.724
 21
13.461
  0
LINE
  8
0
 10
-14.813
 11
-15.55
 20
13.461
 21
13.551
  0
LINE
  8
0
 10
-15.55
 11
-16.16
 20
13.551
 21
13.972
  0
LINE
  8
0
 10
-16.16
 11
-16.505
 20
13.972
 21
14.629
  0
LINE
  8
0
 10
-14.788
 11
-14.788
 20
-0.38
 21
0.38
  0
LINE
  8
0
 10
-14.788
 11
-14.195
 20
0.38
 21
0.853
  0
LINE
  8
0
 10
-14.195
 11
-13.454
 20
0.853
 21
0.684
  0
LINE
  8
0
 10
-13.454
 11
-13.125
 20
0.684
 21
0
  0
LINE
  8
0
 10
-13.125
 11
-13.454
 20
0
 21
-0.684
  0
LINE
  8
0
 10
-13.454
 11
-14.195
 20
-0.684
 21
-0.853
  0
LINE
  8
0
 10
-14.195
 11
-14.788
 20
-0.853
 21
-0.38
  0
LINE
  8
0
 10
-11.5
 11
-11.5
 20
-6.25
 21
6.25
  0
LINE
  8
0
 10
-11.5
 11
11.5
 20
6.25
 21
6.25
  0
LINE
  8
0
 10
11.5
 11
11.5
 20
6.25
 21
-6.25
  0
LINE
  8
0
 10
11.5
 11
-11.5
 20
-6.25
 21
-6.25
  0
LINE
  8
0
 10
13.212
 11
13.212
 20
-0.38
 21
0.38
  0
LINE
  8
0
 10
13.212
 11
13.805
 20
0.38
 21
0.853
  0
LINE
  8
0
 10
13.805
 11
14.546
 20
0.853
 21
0.684
  0
LINE
  8
0
 10
14.546
 11
14.875
 20
0.684
 21
0
  0
LINE
  8
0
 10
14.875
 11
14.546
 20
0
 21
-0.684
  0
LINE
  8
0
 10
14.546
 11
13.805
 20
-0.684
 21
-0.853
  0
LINE
  8
0
 10
13.805
 11
13.212
 20
-0.853
 21
-0.38
  0
LINE
  8
0
 10
13.495
 11
13.495
 20
-15.371
 21
-14.629
  0
LINE
  8
0
 10
13.495
 11
13.84
 20
-14.629
 21
-13.972
  0
LINE
  8
0
 10
13.84
 11
14.45
 20
-13.972
 21
-13.551
  0
LINE
  8
0
 10
14.45
 11
15.187
 20
-13.551
 21
-13.461
  0
LINE
  8
0
 10
15.187
 11
15.881
 20
-13.461
 21
-13.724
  0
LINE
  8
0
 10
15.881
 11
16.372
 20
-13.724
 21
-14.28
  0
LINE
  8
0
 10
16.372
 11
16.55
 20
-14.28
 21
-15
  0
LINE
  8
0
 10
16.55
 11
16.372
 20
-15
 21
-15.72
  0
LINE
  8
0
 10
16.372
 11
15.881
 20
-15.72
 21
-16.276
  0
LINE
  8
0
 10
15.881
 11
15.187
 20
-16.276
 21
-16.539
  0
LINE
  8
0
 10
15.187
 11
14.45
 20
-16.539
 21
-16.449
  0
LINE
  8
0
 10
14.45
 11
13.84
 20
-16.449
 21
-16.028
  0
LINE
  8
0
 10
13.84
 11
13.495
 20
-16.028
 21
-15.371
  0
LINE
  8
0
 10
13.495
 11
13.495
 20
14.629
 21
15.371
  0
LINE
  8
0
 10
13.495
 11
13.84
 20
15.371
 21
16.028
  0
LINE
  8
0
 10
13.84
 11
14.45
 20
16.028
 21
16.449
  0
LINE
  8
0
 10
14.45
 11
15.187
 20
16.449
 21
16.539
  0
LINE
  8
0
 10
15.187
 11
15.881
 20
16.539
 21
16.276
  0
LINE
  8
0
 10
15.881
 11
16.372
 20
16.276
 21
15.72
  0
LINE
  8
0
 10
16.372
 11
16.55
 20
15.72
 21
15
  0
LINE
  8
0
 10
16.55
 11
16.372
 20
15
 21
14.28
  0
LINE
  8
0
 10
16.372
 11
15.881
 20
14.28
 21
13.724
  0
LINE
  8
0
 10
15.881
 11
15.187
 20
13.724
 21
13.461
  0
LINE
  8
0
 10
15.187
 11
14.45
 20
13.461
 21
13.551
  0
LINE
  8
0
 10
14.45
 11
13.84
 20
13.551
 21
13.972
  0
LINE
  8
0
 10
13.84
 11
13.495
 20
13.972
 21
14.629
  0
ENDSEC
  0
SECTION
  2
OBJECTS
  0
DICTIONARY
  0
ENDSEC
  0
EOF
