  0
SECTION
  2
BLOCKS
  0
ENDSEC
  0
SECTION
  2
ENTITIES
  0
LINE
  8
0
 10
-16.505
 11
-16.505
 20
-27.871
 21
-27.129
  0
LINE
  8
0
 10
-16.505
 11
-16.16
 20
-27.129
 21
-26.472
  0
LINE
  8
0
 10
-16.16
 11
-15.55
 20
-26.472
 21
-26.051
  0
LINE
  8
0
 10
-15.55
 11
-14.813
 20
-26.051
 21
-25.961
  0
LINE
  8
0
 10
-14.813
 11
-14.119
 20
-25.961
 21
-26.224
  0
LINE
  8
0
 10
-14.119
 11
-13.628
 20
-26.224
 21
-26.78
  0
LINE
  8
0
 10
-13.628
 11
-13.45
 20
-26.78
 21
-27.5
  0
LINE
  8
0
 10
-13.45
 11
-13.628
 20
-27.5
 21
-28.22
  0
LINE
  8
0
 10
-13.628
 11
-14.119
 20
-28.22
 21
-28.776
  0
LINE
  8
0
 10
-14.119
 11
-14.813
 20
-28.776
 21
-29.039
  0
LINE
  8
0
 10
-14.813
 11
-15.55
 20
-29.039
 21
-28.949
  0
LINE
  8
0
 10
-15.55
 11
-16.16
 20
-28.949
 21
-28.528
  0
LINE
  8
0
 10
-16.16
 11
-16.505
 20
-28.528
 21
-27.871
  0
LINE
  8
0
 10
-16.505
 11
-16.505
 20
27.129
 21
27.871
  0
LINE
  8
0
 10
-16.505
 11
-16.16
 20
27.871
 21
28.528
  0
LINE
  8
0
 10
-16.16
 11
-15.55
 20
28.528
 21
28.949
  0
LINE
  8
0
 10
-15.55
 11
-14.813
 20
28.949
 21
29.039
  0
LINE
  8
0
 10
-14.813
 11
-14.119
 20
29.039
 21
28.776
  0
LINE
  8
0
 10
-14.119
 11
-13.628
 20
28.776
 21
28.22
  0
LINE
  8
0
 10
-13.628
 11
-13.45
 20
28.22
 21
27.5
  0
LINE
  8
0
 10
-13.45
 11
-13.628
 20
27.5
 21
26.78
  0
LINE
  8
0
 10
-13.628
 11
-14.119
 20
26.78
 21
26.224
  0
LINE
  8
0
 10
-14.119
 11
-14.813
 20
26.224
 21
25.961
  0
LINE
  8
0
 10
-14.813
 11
-15.55
 20
25.961
 21
26.051
  0
LINE
  8
0
 10
-15.55
 11
-16.16
 20
26.051
 21
26.472
  0
LINE
  8
0
 10
-16.16
 11
-16.505
 20
26.472
 21
27.129
  0
LINE
  8
0
 10
-20
 11
-20
 20
-32.55
 21
32.55
  0
LINE
  8
0
 10
-20
 11
20
 20
32.55
 21
32.55
  0
LINE
  8
0
 10
20
 11
20
 20
32.55
 21
1.55
  0
LINE
  8
0
 10
20
 11
11.5
 20
1.55
 21
1.55
  0
LINE
  8
0
 10
11.5
 11
11.5
 20
1.55
 21
2.95
  0
LINE
  8
0
 10
11.5
 11
8.5
 20
2.95
 21
2.95
  0
LINE
  8
0
 10
8.5
 11
8.5
 20
2.95
 21
1.55
  0
LINE
  8
0
 10
8.5
 11
1.942
 20
1.55
 21
1.55
  0
LINE
  8
0
 10
1.942
 11
1.469
 20
1.55
 21
2.023
  0
LINE
  8
0
 10
1.469
 11
0.773
 20
2.023
 21
2.378
  0
LINE
  8
0
 10
0.773
 11
0
 20
2.378
 21
2.5
  0
LINE
  8
0
 10
0
 11
-0.773
 20
2.5
 21
2.378
  0
LINE
  8
0
 10
-0.773
 11
-1.469
 20
2.378
 21
2.023
  0
LINE
  8
0
 10
-1.469
 11
-2.023
 20
2.023
 21
1.469
  0
LINE
  8
0
 10
-2.023
 11
-2.378
 20
1.469
 21
0.773
  0
LINE
  8
0
 10
-2.378
 11
-2.5
 20
0.773
 21
0
  0
LINE
  8
0
 10
-2.5
 11
-2.378
 20
0
 21
-0.773
  0
LINE
  8
0
 10
-2.378
 11
-2.023
 20
-0.773
 21
-1.469
  0
LINE
  8
0
 10
-2.023
 11
-1.469
 20
-1.469
 21
-2.023
  0
LINE
  8
0
 10
-1.469
 11
-0.773
 20
-2.023
 21
-2.378
  0
LINE
  8
0
 10
-0.773
 11
0
 20
-2.378
 21
-2.5
  0
LINE
  8
0
 10
0
 11
0.773
 20
-2.5
 21
-2.378
  0
LINE
  8
0
 10
0.773
 11
1.469
 20
-2.378
 21
-2.023
  0
LINE
  8
0
 10
1.469
 11
1.942
 20
-2.023
 21
-1.55
  0
LINE
  8
0
 10
1.942
 11
8.5
 20
-1.55
 21
-1.55
  0
LINE
  8
0
 10
8.5
 11
8.5
 20
-1.55
 21
-2.95
  0
LINE
  8
0
 10
8.5
 11
11.5
 20
-2.95
 21
-2.95
  0
LINE
  8
0
 10
11.5
 11
11.5
 20
-2.95
 21
-1.55
  0
LINE
  8
0
 10
11.5
 11
20
 20
-1.55
 21
-1.55
  0
LINE
  8
0
 10
20
 11
20
 20
-1.55
 21
-32.55
  0
LINE
  8
0
 10
20
 11
-20
 20
-32.55
 21
-32.55
  0
LINE
  8
0
 10
-1.505
 11
-1.505
 20
-7.871
 21
-7.129
  0
LINE
  8
0
 10
-1.505
 11
-1.16
 20
-7.129
 21
-6.472
  0
LINE
  8
0
 10
-1.16
 11
-0.55
 20
-6.472
 21
-6.051
  0
LINE
  8
0
 10
-0.55
 11
0.187
 20
-6.051
 21
-5.961
  0
LINE
  8
0
 10
0.187
 11
0.88
 20
-5.961
 21
-6.224
  0
LINE
  8
0
 10
0.88
 11
1.372
 20
-6.224
 21
-6.78
  0
LINE
  8
0
 10
1.372
 11
1.55
 20
-6.78
 21
-7.5
  0
LINE
  8
0
 10
1.55
 11
1.372
 20
-7.5
 21
-8.22
  0
LINE
  8
0
 10
1.372
 11
0.88
 20
-8.22
 21
-8.776
  0
LINE
  8
0
 10
0.88
 11
0.187
 20
-8.776
 21
-9.039
  0
LINE
  8
0
 10
0.187
 11
-0.55
 20
-9.039
 21
-8.949
  0
LINE
  8
0
 10
-0.55
 11
-1.16
 20
-8.949
 21
-8.528
  0
LINE
  8
0
 10
-1.16
 11
-1.505
 20
-8.528
 21
-7.871
  0
LINE
  8
0
 10
-1.505
 11
-1.505
 20
7.129
 21
7.871
  0
LINE
  8
0
 10
-1.505
 11
-1.16
 20
7.871
 21
8.528
  0
LINE
  8
0
 10
-1.16
 11
-0.55
 20
8.528
 21
8.949
  0
LINE
  8
0
 10
-0.55
 11
0.187
 20
8.949
 21
9.039
  0
LINE
  8
0
 10
0.187
 11
0.88
 20
9.039
 21
8.776
  0
LINE
  8
0
 10
0.88
 11
1.372
 20
8.776
 21
8.22
  0
LINE
  8
0
 10
1.372
 11
1.55
 20
8.22
 21
7.5
  0
LINE
  8
0
 10
1.55
 11
1.372
 20
7.5
 21
6.78
  0
LINE
  8
0
 10
1.372
 11
0.88
 20
6.78
 21
6.224
  0
LINE
  8
0
 10
0.88
 11
0.187
 20
6.224
 21
5.961
  0
LINE
  8
0
 10
0.187
 11
-0.55
 20
5.961
 21
6.051
  0
LINE
  8
0
 10
-0.55
 11
-1.16
 20
6.051
 21
6.472
  0
LINE
  8
0
 10
-1.16
 11
-1.505
 20
6.472
 21
7.129
  0
LINE
  8
0
 10
13.495
 11
13.495
 20
-27.871
 21
-27.129
  0
LINE
  8
0
 10
13.495
 11
13.84
 20
-27.129
 21
-26.472
  0
LINE
  8
0
 10
13.84
 11
14.45
 20
-26.472
 21
-26.051
  0
LINE
  8
0
 10
14.45
 11
15.187
 20
-26.051
 21
-25.961
  0
LINE
  8
0
 10
15.187
 11
15.881
 20
-25.961
 21
-26.224
  0
LINE
  8
0
 10
15.881
 11
16.372
 20
-26.224
 21
-26.78
  0
LINE
  8
0
 10
16.372
 11
16.55
 20
-26.78
 21
-27.5
  0
LINE
  8
0
 10
16.55
 11
16.372
 20
-27.5
 21
-28.22
  0
LINE
  8
0
 10
16.372
 11
15.881
 20
-28.22
 21
-28.776
  0
LINE
  8
0
 10
15.881
 11
15.187
 20
-28.776
 21
-29.039
  0
LINE
  8
0
 10
15.187
 11
14.45
 20
-29.039
 21
-28.949
  0
LINE
  8
0
 10
14.45
 11
13.84
 20
-28.949
 21
-28.528
  0
LINE
  8
0
 10
13.84
 11
13.495
 20
-28.528
 21
-27.871
  0
LINE
  8
0
 10
13.495
 11
13.495
 20
27.129
 21
27.871
  0
LINE
  8
0
 10
13.495
 11
13.84
 20
27.871
 21
28.528
  0
LINE
  8
0
 10
13.84
 11
14.45
 20
28.528
 21
28.949
  0
LINE
  8
0
 10
14.45
 11
15.187
 20
28.949
 21
29.039
  0
LINE
  8
0
 10
15.187
 11
15.881
 20
29.039
 21
28.776
  0
LINE
  8
0
 10
15.881
 11
16.372
 20
28.776
 21
28.22
  0
LINE
  8
0
 10
16.372
 11
16.55
 20
28.22
 21
27.5
  0
LINE
  8
0
 10
16.55
 11
16.372
 20
27.5
 21
26.78
  0
LINE
  8
0
 10
16.372
 11
15.881
 20
26.78
 21
26.224
  0
LINE
  8
0
 10
15.881
 11
15.187
 20
26.224
 21
25.961
  0
LINE
  8
0
 10
15.187
 11
14.45
 20
25.961
 21
26.051
  0
LINE
  8
0
 10
14.45
 11
13.84
 20
26.051
 21
26.472
  0
LINE
  8
0
 10
13.84
 11
13.495
 20
26.472
 21
27.129
  0
ENDSEC
  0
SECTION
  2
OBJECTS
  0
DICTIONARY
  0
ENDSEC
  0
EOF
