  0
SECTION
  2
BLOCKS
  0
ENDSEC
  0
SECTION
  2
ENTITIES
  0
LINE
  8
0
 10
-15
 11
-14.772
 20
0
 21
2.605
  0
LINE
  8
0
 10
-14.772
 11
-14.095
 20
2.605
 21
5.13
  0
LINE
  8
0
 10
-14.095
 11
-12.99
 20
5.13
 21
7.5
  0
LINE
  8
0
 10
-12.99
 11
-11.491
 20
7.5
 21
9.642
  0
LINE
  8
0
 10
-11.491
 11
-9.642
 20
9.642
 21
11.491
  0
LINE
  8
0
 10
-9.642
 11
-7.5
 20
11.491
 21
12.99
  0
LINE
  8
0
 10
-7.5
 11
-5.13
 20
12.99
 21
14.095
  0
LINE
  8
0
 10
-5.13
 11
-2.605
 20
14.095
 21
14.772
  0
LINE
  8
0
 10
-2.605
 11
0
 20
14.772
 21
15
  0
LINE
  8
0
 10
0
 11
2.605
 20
15
 21
14.772
  0
LINE
  8
0
 10
2.605
 11
5.13
 20
14.772
 21
14.095
  0
LINE
  8
0
 10
5.13
 11
7.5
 20
14.095
 21
12.99
  0
LINE
  8
0
 10
7.5
 11
9.642
 20
12.99
 21
11.491
  0
LINE
  8
0
 10
9.642
 11
11.491
 20
11.491
 21
9.642
  0
LINE
  8
0
 10
11.491
 11
12.99
 20
9.642
 21
7.5
  0
LINE
  8
0
 10
12.99
 11
14.095
 20
7.5
 21
5.13
  0
LINE
  8
0
 10
14.095
 11
14.772
 20
5.13
 21
2.605
  0
LINE
  8
0
 10
14.772
 11
15
 20
2.605
 21
0
  0
LINE
  8
0
 10
15
 11
14.772
 20
0
 21
-2.605
  0
LINE
  8
0
 10
14.772
 11
14.095
 20
-2.605
 21
-5.13
  0
LINE
  8
0
 10
14.095
 11
12.99
 20
-5.13
 21
-7.5
  0
LINE
  8
0
 10
12.99
 11
11.491
 20
-7.5
 21
-9.642
  0
LINE
  8
0
 10
11.491
 11
9.642
 20
-9.642
 21
-11.491
  0
LINE
  8
0
 10
9.642
 11
7.5
 20
-11.491
 21
-12.99
  0
LINE
  8
0
 10
7.5
 11
5.13
 20
-12.99
 21
-14.095
  0
LINE
  8
0
 10
5.13
 11
2.605
 20
-14.095
 21
-14.772
  0
LINE
  8
0
 10
2.605
 11
0
 20
-14.772
 21
-15
  0
LINE
  8
0
 10
0
 11
-2.605
 20
-15
 21
-14.772
  0
LINE
  8
0
 10
-2.605
 11
-5.13
 20
-14.772
 21
-14.095
  0
LINE
  8
0
 10
-5.13
 11
-7.5
 20
-14.095
 21
-12.99
  0
LINE
  8
0
 10
-7.5
 11
-9.642
 20
-12.99
 21
-11.491
  0
LINE
  8
0
 10
-9.642
 11
-11.491
 20
-11.491
 21
-9.642
  0
LINE
  8
0
 10
-11.491
 11
-12.99
 20
-9.642
 21
-7.5
  0
LINE
  8
0
 10
-12.99
 11
-14.095
 20
-7.5
 21
-5.13
  0
LINE
  8
0
 10
-14.095
 11
-14.772
 20
-5.13
 21
-2.605
  0
LINE
  8
0
 10
-14.772
 11
-15
 20
-2.605
 21
0
  0
LINE
  8
0
 10
-2.5
 11
-2.378
 20
0
 21
0.773
  0
LINE
  8
0
 10
-2.378
 11
-2.023
 20
0.773
 21
1.469
  0
LINE
  8
0
 10
-2.023
 11
-1.469
 20
1.469
 21
2.023
  0
LINE
  8
0
 10
-1.469
 11
-0.773
 20
2.023
 21
2.378
  0
LINE
  8
0
 10
-0.773
 11
0
 20
2.378
 21
2.5
  0
LINE
  8
0
 10
0
 11
0.773
 20
2.5
 21
2.378
  0
LINE
  8
0
 10
0.773
 11
1.469
 20
2.378
 21
2.023
  0
LINE
  8
0
 10
1.469
 11
2.023
 20
2.023
 21
1.469
  0
LINE
  8
0
 10
2.023
 11
2.378
 20
1.469
 21
0.773
  0
LINE
  8
0
 10
2.378
 11
2.5
 20
0.773
 21
0
  0
LINE
  8
0
 10
2.5
 11
2.378
 20
0
 21
-0.773
  0
LINE
  8
0
 10
2.378
 11
2.023
 20
-0.773
 21
-1.469
  0
LINE
  8
0
 10
2.023
 11
1.469
 20
-1.469
 21
-2.023
  0
LINE
  8
0
 10
1.469
 11
0.773
 20
-2.023
 21
-2.378
  0
LINE
  8
0
 10
0.773
 11
0
 20
-2.378
 21
-2.5
  0
LINE
  8
0
 10
0
 11
-0.773
 20
-2.5
 21
-2.378
  0
LINE
  8
0
 10
-0.773
 11
-1.469
 20
-2.378
 21
-2.023
  0
LINE
  8
0
 10
-1.469
 11
-2.023
 20
-2.023
 21
-1.469
  0
LINE
  8
0
 10
-2.023
 11
-2.378
 20
-1.469
 21
-0.773
  0
LINE
  8
0
 10
-2.378
 11
-2.5
 20
-0.773
 21
0
  0
LINE
  8
0
 10
-1.505
 11
-1.505
 20
-7.871
 21
-7.129
  0
LINE
  8
0
 10
-1.505
 11
-1.16
 20
-7.129
 21
-6.472
  0
LINE
  8
0
 10
-1.16
 11
-0.55
 20
-6.472
 21
-6.051
  0
LINE
  8
0
 10
-0.55
 11
0.187
 20
-6.051
 21
-5.961
  0
LINE
  8
0
 10
0.187
 11
0.88
 20
-5.961
 21
-6.224
  0
LINE
  8
0
 10
0.88
 11
1.372
 20
-6.224
 21
-6.78
  0
LINE
  8
0
 10
1.372
 11
1.55
 20
-6.78
 21
-7.5
  0
LINE
  8
0
 10
1.55
 11
1.372
 20
-7.5
 21
-8.22
  0
LINE
  8
0
 10
1.372
 11
0.88
 20
-8.22
 21
-8.776
  0
LINE
  8
0
 10
0.88
 11
0.187
 20
-8.776
 21
-9.039
  0
LINE
  8
0
 10
0.187
 11
-0.55
 20
-9.039
 21
-8.949
  0
LINE
  8
0
 10
-0.55
 11
-1.16
 20
-8.949
 21
-8.528
  0
LINE
  8
0
 10
-1.16
 11
-1.505
 20
-8.528
 21
-7.871
  0
LINE
  8
0
 10
-1.505
 11
-1.505
 20
7.129
 21
7.871
  0
LINE
  8
0
 10
-1.505
 11
-1.16
 20
7.871
 21
8.528
  0
LINE
  8
0
 10
-1.16
 11
-0.55
 20
8.528
 21
8.949
  0
LINE
  8
0
 10
-0.55
 11
0.187
 20
8.949
 21
9.039
  0
LINE
  8
0
 10
0.187
 11
0.88
 20
9.039
 21
8.776
  0
LINE
  8
0
 10
0.88
 11
1.372
 20
8.776
 21
8.22
  0
LINE
  8
0
 10
1.372
 11
1.55
 20
8.22
 21
7.5
  0
LINE
  8
0
 10
1.55
 11
1.372
 20
7.5
 21
6.78
  0
LINE
  8
0
 10
1.372
 11
0.88
 20
6.78
 21
6.224
  0
LINE
  8
0
 10
0.88
 11
0.187
 20
6.224
 21
5.961
  0
LINE
  8
0
 10
0.187
 11
-0.55
 20
5.961
 21
6.051
  0
LINE
  8
0
 10
-0.55
 11
-1.16
 20
6.051
 21
6.472
  0
LINE
  8
0
 10
-1.16
 11
-1.505
 20
6.472
 21
7.129
  0
LINE
  8
0
 10
8.5
 11
8.5
 20
-2.95
 21
2.95
  0
LINE
  8
0
 10
8.5
 11
11.5
 20
2.95
 21
2.95
  0
LINE
  8
0
 10
11.5
 11
11.5
 20
2.95
 21
-2.95
  0
LINE
  8
0
 10
11.5
 11
8.5
 20
-2.95
 21
-2.95
  0
ENDSEC
  0
SECTION
  2
OBJECTS
  0
DICTIONARY
  0
ENDSEC
  0
EOF
