  0
SECTION
  2
BLOCKS
  0
ENDSEC
  0
SECTION
  2
ENTITIES
  0
LINE
  8
0
 10
-20
 11
-20
 20
-30.55
 21
30.55
  0
LINE
  8
0
 10
-20
 11
-19.848
 20
30.55
 21
31.315
  0
LINE
  8
0
 10
-19.848
 11
-19.414
 20
31.315
 21
31.964
  0
LINE
  8
0
 10
-19.414
 11
-18.765
 20
31.964
 21
32.398
  0
LINE
  8
0
 10
-18.765
 11
-18
 20
32.398
 21
32.55
  0
LINE
  8
0
 10
-18
 11
18
 20
32.55
 21
32.55
  0
LINE
  8
0
 10
18
 11
18.765
 20
32.55
 21
32.398
  0
LINE
  8
0
 10
18.765
 11
19.414
 20
32.398
 21
31.964
  0
LINE
  8
0
 10
19.414
 11
19.848
 20
31.964
 21
31.315
  0
LINE
  8
0
 10
19.848
 11
20
 20
31.315
 21
30.55
  0
LINE
  8
0
 10
20
 11
20
 20
30.55
 21
-30.55
  0
LINE
  8
0
 10
20
 11
19.848
 20
-30.55
 21
-31.315
  0
LINE
  8
0
 10
19.848
 11
19.414
 20
-31.315
 21
-31.964
  0
LINE
  8
0
 10
19.414
 11
18.765
 20
-31.964
 21
-32.398
  0
LINE
  8
0
 10
18.765
 11
18
 20
-32.398
 21
-32.55
  0
LINE
  8
0
 10
18
 11
-18
 20
-32.55
 21
-32.55
  0
LINE
  8
0
 10
-18
 11
-18.765
 20
-32.55
 21
-32.398
  0
LINE
  8
0
 10
-18.765
 11
-19.414
 20
-32.398
 21
-31.964
  0
LINE
  8
0
 10
-19.414
 11
-19.848
 20
-31.964
 21
-31.315
  0
LINE
  8
0
 10
-19.848
 11
-20
 20
-31.315
 21
-30.55
  0
LINE
  8
0
 10
-17.005
 11
-17.005
 20
-15.871
 21
-15.129
  0
LINE
  8
0
 10
-17.005
 11
-16.66
 20
-15.129
 21
-14.472
  0
LINE
  8
0
 10
-16.66
 11
-16.05
 20
-14.472
 21
-14.051
  0
LINE
  8
0
 10
-16.05
 11
-15.313
 20
-14.051
 21
-13.961
  0
LINE
  8
0
 10
-15.313
 11
-14.619
 20
-13.961
 21
-14.224
  0
LINE
  8
0
 10
-14.619
 11
-14.128
 20
-14.224
 21
-14.78
  0
LINE
  8
0
 10
-14.128
 11
-13.95
 20
-14.78
 21
-15.5
  0
LINE
  8
0
 10
-13.95
 11
-14.128
 20
-15.5
 21
-16.22
  0
LINE
  8
0
 10
-14.128
 11
-14.619
 20
-16.22
 21
-16.776
  0
LINE
  8
0
 10
-14.619
 11
-15.313
 20
-16.776
 21
-17.039
  0
LINE
  8
0
 10
-15.313
 11
-16.05
 20
-17.039
 21
-16.949
  0
LINE
  8
0
 10
-16.05
 11
-16.66
 20
-16.949
 21
-16.528
  0
LINE
  8
0
 10
-16.66
 11
-17.005
 20
-16.528
 21
-15.871
  0
LINE
  8
0
 10
-17.005
 11
-17.005
 20
15.129
 21
15.871
  0
LINE
  8
0
 10
-17.005
 11
-16.66
 20
15.871
 21
16.528
  0
LINE
  8
0
 10
-16.66
 11
-16.05
 20
16.528
 21
16.949
  0
LINE
  8
0
 10
-16.05
 11
-15.313
 20
16.949
 21
17.039
  0
LINE
  8
0
 10
-15.313
 11
-14.619
 20
17.039
 21
16.776
  0
LINE
  8
0
 10
-14.619
 11
-14.128
 20
16.776
 21
16.22
  0
LINE
  8
0
 10
-14.128
 11
-13.95
 20
16.22
 21
15.5
  0
LINE
  8
0
 10
-13.95
 11
-14.128
 20
15.5
 21
14.78
  0
LINE
  8
0
 10
-14.128
 11
-14.619
 20
14.78
 21
14.224
  0
LINE
  8
0
 10
-14.619
 11
-15.313
 20
14.224
 21
13.961
  0
LINE
  8
0
 10
-15.313
 11
-16.05
 20
13.961
 21
14.051
  0
LINE
  8
0
 10
-16.05
 11
-16.66
 20
14.051
 21
14.472
  0
LINE
  8
0
 10
-16.66
 11
-17.005
 20
14.472
 21
15.129
  0
LINE
  8
0
 10
-16.505
 11
-16.505
 20
-27.871
 21
-27.129
  0
LINE
  8
0
 10
-16.505
 11
-16.16
 20
-27.129
 21
-26.472
  0
LINE
  8
0
 10
-16.16
 11
-15.55
 20
-26.472
 21
-26.051
  0
LINE
  8
0
 10
-15.55
 11
-14.813
 20
-26.051
 21
-25.961
  0
LINE
  8
0
 10
-14.813
 11
-14.119
 20
-25.961
 21
-26.224
  0
LINE
  8
0
 10
-14.119
 11
-13.628
 20
-26.224
 21
-26.78
  0
LINE
  8
0
 10
-13.628
 11
-13.45
 20
-26.78
 21
-27.5
  0
LINE
  8
0
 10
-13.45
 11
-13.628
 20
-27.5
 21
-28.22
  0
LINE
  8
0
 10
-13.628
 11
-14.119
 20
-28.22
 21
-28.776
  0
LINE
  8
0
 10
-14.119
 11
-14.813
 20
-28.776
 21
-29.039
  0
LINE
  8
0
 10
-14.813
 11
-15.55
 20
-29.039
 21
-28.949
  0
LINE
  8
0
 10
-15.55
 11
-16.16
 20
-28.949
 21
-28.528
  0
LINE
  8
0
 10
-16.16
 11
-16.505
 20
-28.528
 21
-27.871
  0
LINE
  8
0
 10
-16.505
 11
-16.505
 20
27.129
 21
27.871
  0
LINE
  8
0
 10
-16.505
 11
-16.16
 20
27.871
 21
28.528
  0
LINE
  8
0
 10
-16.16
 11
-15.55
 20
28.528
 21
28.949
  0
LINE
  8
0
 10
-15.55
 11
-14.813
 20
28.949
 21
29.039
  0
LINE
  8
0
 10
-14.813
 11
-14.119
 20
29.039
 21
28.776
  0
LINE
  8
0
 10
-14.119
 11
-13.628
 20
28.776
 21
28.22
  0
LINE
  8
0
 10
-13.628
 11
-13.45
 20
28.22
 21
27.5
  0
LINE
  8
0
 10
-13.45
 11
-13.628
 20
27.5
 21
26.78
  0
LINE
  8
0
 10
-13.628
 11
-14.119
 20
26.78
 21
26.224
  0
LINE
  8
0
 10
-14.119
 11
-14.813
 20
26.224
 21
25.961
  0
LINE
  8
0
 10
-14.813
 11
-15.55
 20
25.961
 21
26.051
  0
LINE
  8
0
 10
-15.55
 11
-16.16
 20
26.051
 21
26.472
  0
LINE
  8
0
 10
-16.16
 11
-16.505
 20
26.472
 21
27.129
  0
LINE
  8
0
 10
-11.05
 11
-10.882
 20
0
 21
1.919
  0
LINE
  8
0
 10
-10.882
 11
-10.384
 20
1.919
 21
3.779
  0
LINE
  8
0
 10
-10.384
 11
-9.57
 20
3.779
 21
5.525
  0
LINE
  8
0
 10
-9.57
 11
-8.465
 20
5.525
 21
7.103
  0
LINE
  8
0
 10
-8.465
 11
-7.103
 20
7.103
 21
8.465
  0
LINE
  8
0
 10
-7.103
 11
-5.525
 20
8.465
 21
9.57
  0
LINE
  8
0
 10
-5.525
 11
-3.779
 20
9.57
 21
10.384
  0
LINE
  8
0
 10
-3.779
 11
-1.919
 20
10.384
 21
10.882
  0
LINE
  8
0
 10
-1.919
 11
0
 20
10.882
 21
11.05
  0
LINE
  8
0
 10
0
 11
1.919
 20
11.05
 21
10.882
  0
LINE
  8
0
 10
1.919
 11
3.779
 20
10.882
 21
10.384
  0
LINE
  8
0
 10
3.779
 11
5.525
 20
10.384
 21
9.57
  0
LINE
  8
0
 10
5.525
 11
7.103
 20
9.57
 21
8.465
  0
LINE
  8
0
 10
7.103
 11
8.465
 20
8.465
 21
7.103
  0
LINE
  8
0
 10
8.465
 11
9.57
 20
7.103
 21
5.525
  0
LINE
  8
0
 10
9.57
 11
10.384
 20
5.525
 21
3.779
  0
LINE
  8
0
 10
10.384
 11
10.882
 20
3.779
 21
1.919
  0
LINE
  8
0
 10
10.882
 11
11.05
 20
1.919
 21
0
  0
LINE
  8
0
 10
11.05
 11
10.882
 20
0
 21
-1.919
  0
LINE
  8
0
 10
10.882
 11
10.384
 20
-1.919
 21
-3.779
  0
LINE
  8
0
 10
10.384
 11
9.57
 20
-3.779
 21
-5.525
  0
LINE
  8
0
 10
9.57
 11
8.465
 20
-5.525
 21
-7.103
  0
LINE
  8
0
 10
8.465
 11
7.103
 20
-7.103
 21
-8.465
  0
LINE
  8
0
 10
7.103
 11
5.525
 20
-8.465
 21
-9.57
  0
LINE
  8
0
 10
5.525
 11
3.779
 20
-9.57
 21
-10.384
  0
LINE
  8
0
 10
3.779
 11
1.919
 20
-10.384
 21
-10.882
  0
LINE
  8
0
 10
1.919
 11
0
 20
-10.882
 21
-11.05
  0
LINE
  8
0
 10
0
 11
-1.919
 20
-11.05
 21
-10.882
  0
LINE
  8
0
 10
-1.919
 11
-3.779
 20
-10.882
 21
-10.384
  0
LINE
  8
0
 10
-3.779
 11
-5.525
 20
-10.384
 21
-9.57
  0
LINE
  8
0
 10
-5.525
 11
-7.103
 20
-9.57
 21
-8.465
  0
LINE
  8
0
 10
-7.103
 11
-8.465
 20
-8.465
 21
-7.103
  0
LINE
  8
0
 10
-8.465
 11
-9.57
 20
-7.103
 21
-5.525
  0
LINE
  8
0
 10
-9.57
 11
-10.384
 20
-5.525
 21
-3.779
  0
LINE
  8
0
 10
-10.384
 11
-10.882
 20
-3.779
 21
-1.919
  0
LINE
  8
0
 10
-10.882
 11
-11.05
 20
-1.919
 21
0
  0
LINE
  8
0
 10
13.495
 11
13.495
 20
-27.871
 21
-27.129
  0
LINE
  8
0
 10
13.495
 11
13.84
 20
-27.129
 21
-26.472
  0
LINE
  8
0
 10
13.84
 11
14.45
 20
-26.472
 21
-26.051
  0
LINE
  8
0
 10
14.45
 11
15.187
 20
-26.051
 21
-25.961
  0
LINE
  8
0
 10
15.187
 11
15.881
 20
-25.961
 21
-26.224
  0
LINE
  8
0
 10
15.881
 11
16.372
 20
-26.224
 21
-26.78
  0
LINE
  8
0
 10
16.372
 11
16.55
 20
-26.78
 21
-27.5
  0
LINE
  8
0
 10
16.55
 11
16.372
 20
-27.5
 21
-28.22
  0
LINE
  8
0
 10
16.372
 11
15.881
 20
-28.22
 21
-28.776
  0
LINE
  8
0
 10
15.881
 11
15.187
 20
-28.776
 21
-29.039
  0
LINE
  8
0
 10
15.187
 11
14.45
 20
-29.039
 21
-28.949
  0
LINE
  8
0
 10
14.45
 11
13.84
 20
-28.949
 21
-28.528
  0
LINE
  8
0
 10
13.84
 11
13.495
 20
-28.528
 21
-27.871
  0
LINE
  8
0
 10
13.495
 11
13.495
 20
27.129
 21
27.871
  0
LINE
  8
0
 10
13.495
 11
13.84
 20
27.871
 21
28.528
  0
LINE
  8
0
 10
13.84
 11
14.45
 20
28.528
 21
28.949
  0
LINE
  8
0
 10
14.45
 11
15.187
 20
28.949
 21
29.039
  0
LINE
  8
0
 10
15.187
 11
15.881
 20
29.039
 21
28.776
  0
LINE
  8
0
 10
15.881
 11
16.372
 20
28.776
 21
28.22
  0
LINE
  8
0
 10
16.372
 11
16.55
 20
28.22
 21
27.5
  0
LINE
  8
0
 10
16.55
 11
16.372
 20
27.5
 21
26.78
  0
LINE
  8
0
 10
16.372
 11
15.881
 20
26.78
 21
26.224
  0
LINE
  8
0
 10
15.881
 11
15.187
 20
26.224
 21
25.961
  0
LINE
  8
0
 10
15.187
 11
14.45
 20
25.961
 21
26.051
  0
LINE
  8
0
 10
14.45
 11
13.84
 20
26.051
 21
26.472
  0
LINE
  8
0
 10
13.84
 11
13.495
 20
26.472
 21
27.129
  0
LINE
  8
0
 10
13.995
 11
13.995
 20
-15.871
 21
-15.129
  0
LINE
  8
0
 10
13.995
 11
14.34
 20
-15.129
 21
-14.472
  0
LINE
  8
0
 10
14.34
 11
14.95
 20
-14.472
 21
-14.051
  0
LINE
  8
0
 10
14.95
 11
15.687
 20
-14.051
 21
-13.961
  0
LINE
  8
0
 10
15.687
 11
16.38
 20
-13.961
 21
-14.224
  0
LINE
  8
0
 10
16.38
 11
16.872
 20
-14.224
 21
-14.78
  0
LINE
  8
0
 10
16.872
 11
17.05
 20
-14.78
 21
-15.5
  0
LINE
  8
0
 10
17.05
 11
16.872
 20
-15.5
 21
-16.22
  0
LINE
  8
0
 10
16.872
 11
16.38
 20
-16.22
 21
-16.776
  0
LINE
  8
0
 10
16.38
 11
15.687
 20
-16.776
 21
-17.039
  0
LINE
  8
0
 10
15.687
 11
14.95
 20
-17.039
 21
-16.949
  0
LINE
  8
0
 10
14.95
 11
14.34
 20
-16.949
 21
-16.528
  0
LINE
  8
0
 10
14.34
 11
13.995
 20
-16.528
 21
-15.871
  0
LINE
  8
0
 10
13.995
 11
13.995
 20
15.129
 21
15.871
  0
LINE
  8
0
 10
13.995
 11
14.34
 20
15.871
 21
16.528
  0
LINE
  8
0
 10
14.34
 11
14.95
 20
16.528
 21
16.949
  0
LINE
  8
0
 10
14.95
 11
15.687
 20
16.949
 21
17.039
  0
LINE
  8
0
 10
15.687
 11
16.38
 20
17.039
 21
16.776
  0
LINE
  8
0
 10
16.38
 11
16.872
 20
16.776
 21
16.22
  0
LINE
  8
0
 10
16.872
 11
17.05
 20
16.22
 21
15.5
  0
LINE
  8
0
 10
17.05
 11
16.872
 20
15.5
 21
14.78
  0
LINE
  8
0
 10
16.872
 11
16.38
 20
14.78
 21
14.224
  0
LINE
  8
0
 10
16.38
 11
15.687
 20
14.224
 21
13.961
  0
LINE
  8
0
 10
15.687
 11
14.95
 20
13.961
 21
14.051
  0
LINE
  8
0
 10
14.95
 11
14.34
 20
14.051
 21
14.472
  0
LINE
  8
0
 10
14.34
 11
13.995
 20
14.472
 21
15.129
  0
ENDSEC
  0
SECTION
  2
OBJECTS
  0
DICTIONARY
  0
ENDSEC
  0
EOF
