999
dxflib 2.0.4.8
  0
SECTION
  2
HEADER
  9
$ACADVER
  1
AC1015
  9
$HANDSEED
  5
FFFF
  9
$DIMASZ
 40
2.5
  9
$DIMGAP
 40
0.625
  9
$DIMEXO
 40
0.625
  9
$INSUNITS
 70
4
  9
$DIMTXT
 40
2.5
  9
$PLIMMAX
 10
210.0
 20
297.0
  9
$PLIMMIN
 10
0.0
 20
0.0
  9
$DIMEXE
 40
1.25
  0
ENDSEC
  0
SECTION
  2
TABLES
  0
TABLE
  2
VPORT
  5
8
100
AcDbSymbolTable
 70
1
  0
VPORT
  5
30
100
AcDbSymbolTableRecord
100
AcDbViewportTableRecord
  2
*Active
 70
0
 10
0.0
 20
0.0
 11
1.0
 21
1.0
 12
286.3055555555554861
 22
148.5
 13
0.0
 23
0.0
 14
10.0
 24
10.0
 15
10.0
 25
10.0
 16
0.0
 26
0.0
 36
1.0
 17
0.0
 27
0.0
 37
0.0
 40
297.0
 41
1.92798353909465
 42
50.0
 43
0.0
 44
0.0
 50
0.0
 51
0.0
 71
0
 72
100
 73
1
 74
3
 75
1
 76
1
 77
0
 78
0
281
0
 65
1
110
0.0
120
0.0
130
0.0
111
1.0
121
0.0
131
0.0
112
0.0
122
1.0
132
0.0
 79
0
146
0.0
  0
ENDTAB
  0
TABLE
  2
LTYPE
  5
5
100
AcDbSymbolTable
 70
21
  0
LTYPE
  5
14
100
AcDbSymbolTableRecord
100
AcDbLinetypeTableRecord
  2
ByBlock
 70
0
  3

 72
65
 73
0
 40
0.0
  0
LTYPE
  5
15
100
AcDbSymbolTableRecord
100
AcDbLinetypeTableRecord
  2
ByLayer
 70
0
  3

 72
65
 73
0
 40
0.0
  0
LTYPE
  5
16
100
AcDbSymbolTableRecord
100
AcDbLinetypeTableRecord
  2
CONTINUOUS
 70
0
  3
Solid line
 72
65
 73
0
 40
0.0
  0
LTYPE
  5
31
100
AcDbSymbolTableRecord
100
AcDbLinetypeTableRecord
  2
DOT
 70
0
  3
Dot . . . . . . . . . . . . . . . . . . . . . .
 72
65
 73
2
 40
6.3499999999999996
 49
0.0
 74
0
 49
-6.3499999999999996
 74
0
  0
LTYPE
  5
32
100
AcDbSymbolTableRecord
100
AcDbLinetypeTableRecord
  2
DOT2
 70
0
  3
Dot (.5x) .....................................
 72
65
 73
2
 40
3.1749999999999998
 49
0.0
 74
0
 49
-3.1749999999999998
 74
0
  0
LTYPE
  5
33
100
AcDbSymbolTableRecord
100
AcDbLinetypeTableRecord
  2
DOTX2
 70
0
  3
Dot (2x) .  .  .  .  .  .  .  .  .  .  .  .  .
 72
65
 73
2
 40
12.6999999999999993
 49
0.0
 74
0
 49
-12.6999999999999993
 74
0
  0
LTYPE
  5
34
100
AcDbSymbolTableRecord
100
AcDbLinetypeTableRecord
  2
DASHED
 70
0
  3
Dashed __ __ __ __ __ __ __ __ __ __ __ __ __ _
 72
65
 73
2
 40
19.0500000000000007
 49
12.6999999999999993
 74
0
 49
-6.3499999999999996
 74
0
  0
LTYPE
  5
35
100
AcDbSymbolTableRecord
100
AcDbLinetypeTableRecord
  2
DASHED2
 70
0
  3
Dashed (.5x) _ _ _ _ _ _ _ _ _ _ _ _ _ _ _ _ _
 72
65
 73
2
 40
9.5250000000000004
 49
6.3499999999999996
 74
0
 49
-3.1749999999999998
 74
0
  0
LTYPE
  5
36
100
AcDbSymbolTableRecord
100
AcDbLinetypeTableRecord
  2
DASHEDX2
 70
0
  3
Dashed (2x) ____  ____  ____  ____  ____  ___
 72
65
 73
2
 40
38.1000000000000014
 49
25.3999999999999986
 74
0
 49
-12.6999999999999993
 74
0
  0
LTYPE
  5
37
100
AcDbSymbolTableRecord
100
AcDbLinetypeTableRecord
  2
DASHDOT
 70
0
  3
Dash dot __ . __ . __ . __ . __ . __ . __ . __
 72
65
 73
4
 40
25.3999999999999986
 49
12.6999999999999993
 74
0
 49
-6.3499999999999996
 74
0
 49
0.0
 74
0
 49
-6.3499999999999996
 74
0
  0
LTYPE
  5
38
100
AcDbSymbolTableRecord
100
AcDbLinetypeTableRecord
  2
DASHDOT2
 70
0
  3
Dash dot (.5x) _._._._._._._._._._._._._._._.
 72
65
 73
4
 40
12.6999999999999993
 49
6.3499999999999996
 74
0
 49
-3.1749999999999998
 74
0
 49
0.0
 74
0
 49
-3.1749999999999998
 74
0
  0
LTYPE
  5
39
100
AcDbSymbolTableRecord
100
AcDbLinetypeTableRecord
  2
DASHDOTX2
 70
0
  3
Dash dot (2x) ____  .  ____  .  ____  .  ___
 72
65
 73
4
 40
50.7999999999999972
 49
25.3999999999999986
 74
0
 49
-12.6999999999999993
 74
0
 49
0.0
 74
0
 49
-12.6999999999999993
 74
0
  0
LTYPE
  5
3A
100
AcDbSymbolTableRecord
100
AcDbLinetypeTableRecord
  2
DIVIDE
 70
0
  3
Divide ____ . . ____ . . ____ . . ____ . . ____
 72
65
 73
6
 40
31.75
 49
12.6999999999999993
 74
0
 49
-6.3499999999999996
 74
0
 49
0.0
 74
0
 49
-6.3499999999999996
 74
0
 49
0.0
 74
0
 49
-6.3499999999999996
 74
0
  0
LTYPE
  5
3B
100
AcDbSymbolTableRecord
100
AcDbLinetypeTableRecord
  2
DIVIDE2
 70
0
  3
Divide (.5x) __..__..__..__..__..__..__..__.._
 72
65
 73
6
 40
15.875
 49
6.3499999999999996
 74
0
 49
-3.1749999999999998
 74
0
 49
0.0
 74
0
 49
-3.1749999999999998
 74
0
 49
0.0
 74
0
 49
-3.1749999999999998
 74
0
  0
LTYPE
  5
3C
100
AcDbSymbolTableRecord
100
AcDbLinetypeTableRecord
  2
DIVIDEX2
 70
0
  3
Divide (2x) ________  .  .  ________  .  .  _
 72
65
 73
6
 40
63.5
 49
25.3999999999999986
 74
0
 49
-12.6999999999999993
 74
0
 49
0.0
 74
0
 49
-12.6999999999999993
 74
0
 49
0.0
 74
0
 49
-12.6999999999999993
 74
0
  0
LTYPE
  5
3D
100
AcDbSymbolTableRecord
100
AcDbLinetypeTableRecord
  2
CENTER
 70
0
  3
Center ____ _ ____ _ ____ _ ____ _ ____ _ ____
 72
65
 73
4
 40
50.7999999999999972
 49
31.75
 74
0
 49
-6.3499999999999996
 74
0
 49
6.3499999999999996
 74
0
 49
-6.3499999999999996
 74
0
  0
LTYPE
  5
3E
100
AcDbSymbolTableRecord
100
AcDbLinetypeTableRecord
  2
CENTER2
 70
0
  3
Center (.5x) ___ _ ___ _ ___ _ ___ _ ___ _ ___
 72
65
 73
4
 40
28.5749999999999993
 49
19.0500000000000007
 74
0
 49
-3.1749999999999998
 74
0
 49
3.1749999999999998
 74
0
 49
-3.1749999999999998
 74
0
  0
LTYPE
  5
3F
100
AcDbSymbolTableRecord
100
AcDbLinetypeTableRecord
  2
CENTERX2
 70
0
  3
Center (2x) ________  __  ________  __  _____
 72
65
 73
4
 40
101.5999999999999943
 49
63.5
 74
0
 49
-12.6999999999999993
 74
0
 49
12.6999999999999993
 74
0
 49
-12.6999999999999993
 74
0
  0
LTYPE
  5
40
100
AcDbSymbolTableRecord
100
AcDbLinetypeTableRecord
  2
BORDER
 70
0
  3
Border __ __ . __ __ . __ __ . __ __ . __ __ .
 72
65
 73
6
 40
44.4500000000000028
 49
12.6999999999999993
 74
0
 49
-6.3499999999999996
 74
0
 49
12.6999999999999993
 74
0
 49
-6.3499999999999996
 74
0
 49
0.0
 74
0
 49
-6.3499999999999996
 74
0
  0
LTYPE
  5
41
100
AcDbSymbolTableRecord
100
AcDbLinetypeTableRecord
  2
BORDER2
 70
0
  3
Border (.5x) __.__.__.__.__.__.__.__.__.__.__.
 72
65
 73
6
 40
22.2250000000000014
 49
6.3499999999999996
 74
0
 49
-3.1749999999999998
 74
0
 49
6.3499999999999996
 74
0
 49
-3.1749999999999998
 74
0
 49
0.0
 74
0
 49
-3.1749999999999998
 74
0
  0
LTYPE
  5
42
100
AcDbSymbolTableRecord
100
AcDbLinetypeTableRecord
  2
BORDERX2
 70
0
  3
Border (2x) ____  ____  .  ____  ____  .  ___
 72
65
 73
6
 40
88.9000000000000057
 49
25.3999999999999986
 74
0
 49
-12.6999999999999993
 74
0
 49
25.3999999999999986
 74
0
 49
-12.6999999999999993
 74
0
 49
0.0
 74
0
 49
-12.6999999999999993
 74
0
  0
ENDTAB
  0
TABLE
  2
LAYER
  5
2
100
AcDbSymbolTable
 70
1
  0
LAYER
  5
10
100
AcDbSymbolTableRecord
100
AcDbLayerTableRecord
  2
0
 70
0
 62
7
  6
CONTINUOUS
370
0
390
F
  0
ENDTAB
  0
TABLE
  2
STYLE
  5
3
100
AcDbSymbolTable
 70
1
  0
STYLE
  5
11
100
AcDbSymbolTableRecord
100
AcDbTextStyleTableRecord
  2
Standard
 70
0
 40
0.0
 41
0.75
 50
0.0
 71
0
 42
2.5
  3
txt
  4

  0
ENDTAB
  0
TABLE
  2
VIEW
  5
6
100
AcDbSymbolTable
 70
0
  0
ENDTAB
  0
TABLE
  2
UCS
  5
7
100
AcDbSymbolTable
 70
0
  0
ENDTAB
  0
TABLE
  2
APPID
  5
9
100
AcDbSymbolTable
 70
1
  0
APPID
  5
12
100
AcDbSymbolTableRecord
100
AcDbRegAppTableRecord
  2
ACAD
 70
0
  0
ENDTAB
  0
TABLE
  2
DIMSTYLE
  5
A
100
AcDbSymbolTable
 70
1
100
AcDbDimStyleTable
 71
0
  0
DIMSTYLE
105
27
100
AcDbSymbolTableRecord
100
AcDbDimStyleTableRecord
  2
Standard
 41
2.5
 42
0.625
 43
3.75
 44
1.25
 70
0
 73
0
 74
0
 77
1
 78
8
140
2.5
141
2.5
143
0.03937007874016
147
0.625
171
3
172
1
271
2
272
2
274
3
278
44
283
0
284
8
340
11
  0
ENDTAB
  0
TABLE
  2
BLOCK_RECORD
  5
1
100
AcDbSymbolTable
 70
1
  0
BLOCK_RECORD
  5
1F
100
AcDbSymbolTableRecord
100
AcDbBlockTableRecord
  2
*Model_Space
340
22
  0
BLOCK_RECORD
  5
1B
100
AcDbSymbolTableRecord
100
AcDbBlockTableRecord
  2
*Paper_Space
340
1E
  0
BLOCK_RECORD
  5
23
100
AcDbSymbolTableRecord
100
AcDbBlockTableRecord
  2
*Paper_Space0
340
26
  0
ENDTAB
  0
ENDSEC
  0
SECTION
  2
BLOCKS
  0
BLOCK
  5
20
100
AcDbEntity
  8
0
100
AcDbBlockBegin
  2
*Model_Space
 70
0
 10
0.0
 20
0.0
 30
0.0
  3
*Model_Space
  1

  0
ENDBLK
  5
21
100
AcDbEntity
  8
0
100
AcDbBlockEnd
  0
BLOCK
  5
1C
100
AcDbEntity
 67
1
  8
0
100
AcDbBlockBegin
  2
*Paper_Space
 70
0
 10
0.0
 20
0.0
 30
0.0
  3
*Paper_Space
  1

  0
ENDBLK
  5
1D
100
AcDbEntity
 67
1
  8
0
100
AcDbBlockEnd
  0
BLOCK
  5
24
100
AcDbEntity
  8
0
100
AcDbBlockBegin
  2
*Paper_Space0
 70
0
 10
0.0
 20
0.0
 30
0.0
  3
*Paper_Space0
  1

  0
ENDBLK
  5
25
100
AcDbEntity
  8
0
100
AcDbBlockEnd
  0
ENDSEC
  0
SECTION
  2
ENTITIES
  0
LINE
  5
43
100
AcDbEntity
100
AcDbLine
  8
0
 62
256
370
-1
  6
ByLayer
 10
0.0
 20
0.0
 30
0.0
 11
20.0
 21
0.0
 31
0.0
  0
LINE
  5
44
100
AcDbEntity
100
AcDbLine
  8
0
 62
256
370
-1
  6
ByLayer
 10
20.0
 20
0.0
 30
0.0
 11
20.0
 21
20.0
 31
0.0
  0
LINE
  5
45
100
AcDbEntity
100
AcDbLine
  8
0
 62
256
370
-1
  6
ByLayer
 10
20.0
 20
20.0
 30
0.0
 11
0.0
 21
20.0
 31
0.0
  0
LINE
  5
46
100
AcDbEntity
100
AcDbLine
  8
0
 62
256
370
-1
  6
ByLayer
 10
0.0
 20
20.0
 30
0.0
 11
0.0
 21
0.0
 31
0.0
  0
CIRCLE
  5
47
100
AcDbEntity
100
AcDbCircle
  8
0
 62
256
370
-1
  6
ByLayer
 10
5.4721359549995796
 20
4.0
 30
0.0
 40
4.1231056256176606
  0
CIRCLE
  5
48
100
AcDbEntity
100
AcDbCircle
  8
0
 62
256
370
-1
  6
ByLayer
 10
15.4721359549995796
 20
5.0
 30
0.0
 40
4.4721359549995796
  0
CIRCLE
  5
49
100
AcDbEntity
100
AcDbCircle
  8
0
 62
256
370
-1
  6
ByLayer
 10
8.4721359549995796
 20
12.0
 30
0.0
 40
6.324555320336759
  0
SPLINE
  5
4A
  8
0
 62
256
370
-1
  6
ByLayer
100
AcDbEntity
100
AcDbSpline
 70
8
 71
3
 72
86
 73
82
 74
0
 40
0.0
 40
0.0
 40
0.0
 40
0.0
 40
0.0126582278481013
 40
0.0253164556962025
 40
0.0379746835443038
 40
0.0506329113924051
 40
0.0632911392405063
 40
0.0759493670886076
 40
0.0886075949367089
 40
0.1012658227848101
 40
0.1139240506329114
 40
0.1265822784810127
 40
0.1392405063291139
 40
0.1518987341772152
 40
0.1645569620253164
 40
0.1772151898734177
 40
0.189873417721519
 40
0.2025316455696203
 40
0.2151898734177215
 40
0.2278481012658228
 40
0.2405063291139241
 40
0.2531645569620253
 40
0.2658227848101266
 40
0.2784810126582278
 40
0.2911392405063291
 40
0.3037974683544304
 40
0.3164556962025317
 40
0.3291139240506329
 40
0.3417721518987342
 40
0.3544303797468354
 40
0.3670886075949367
 40
0.379746835443038
 40
0.3924050632911392
 40
0.4050632911392405
 40
0.4177215189873418
 40
0.4303797468354431
 40
0.4430379746835443
 40
0.4556962025316456
 40
0.4683544303797468
 40
0.4810126582278481
 40
0.4936708860759494
 40
0.5063291139240507
 40
0.5189873417721519
 40
0.5316455696202531
 40
0.5443037974683544
 40
0.5569620253164557
 40
0.569620253164557
 40
0.5822784810126582
 40
0.5949367088607594
 40
0.6075949367088608
 40
0.620253164556962
 40
0.6329113924050633
 40
0.6455696202531646
 40
0.6582278481012658
 40
0.6708860759493671
 40
0.6835443037974683
 40
0.6962025316455697
 40
0.7088607594936709
 40
0.7215189873417721
 40
0.7341772151898734
 40
0.7468354430379747
 40
0.759493670886076
 40
0.7721518987341772
 40
0.7848101265822784
 40
0.7974683544303798
 40
0.810126582278481
 40
0.8227848101265823
 40
0.8354430379746836
 40
0.8481012658227848
 40
0.8607594936708861
 40
0.8734177215189873
 40
0.8860759493670886
 40
0.8987341772151899
 40
0.9113924050632911
 40
0.9240506329113924
 40
0.9367088607594937
 40
0.9493670886075949
 40
0.9620253164556962
 40
0.9746835443037974
 40
0.9873417721518988
 40
1.0
 40
1.0
 40
1.0
 40
1.0
 10
12.8361337140066034
 20
7.4222796547428018
 30
0.0
 10
12.6082128405449918
 20
8.4348135894823653
 30
0.0
 10
10.8275880587878248
 20
17.8695694379366117
 30
0.0
 10
11.3704927024242419
 20
17.6213457609951334
 30
0.0
 10
1.7174535454267055
 20
2.296368583512256
 30
0.0
 10
1.7174535454267055
 20
2.296368583512256
 30
0.0
 10
13.9369221293382282
 20
15.1837261296721433
 30
0.0
 10
9.4573511064621751
 20
18.247347525576636
 30
0.0
 10
2.1481751405711451
 20
11.9132842714747849
 30
0.0
 10
15.4320880747125795
 20
0.5280433625442527
 30
0.0
 10
2.1505529939278318
 20
11.8061215166983295
 30
0.0
 10
2.1505529939278318
 20
11.8061215166983295
 30
0.0
 10
14.7962045279000751
 20
11.9215354522583716
 30
0.0
 10
14.7962045279000751
 20
11.9215354522583716
 30
0.0
 10
15.614499783573212
 20
0.5301305902393683
 30
0.0
 10
15.614499783573212
 20
0.5301305902393683
 30
0.0
 10
8.4348397315022723
 20
18.3244453505199054
 30
0.0
 10
8.4348397315022723
 20
18.3244453505199054
 30
0.0
 10
19.9433426080140528
 20
4.9088349516584175
 30
0.0
 10
19.9433426080140528
 20
4.9088349516584175
 30
0.0
 10
5.4141261942320922
 20
0.0
 30
0.0
 10
5.4141261942320922
 20
0.0
 30
0.0
 10
9.00204505579506
 20
18.30231674425319
 30
0.0
 10
9.00204505579506
 20
18.30231674425319
 30
0.0
 10
11.0462128822102965
 20
4.3587473557547884
 30
0.0
 10
11.0462128822102965
 20
4.3587473557547884
 30
0.0
 10
11.0532886813063058
 20
4.3116768405948154
 30
0.0
 10
11.0532886813063058
 20
4.3116768405948154
 30
0.0
 10
11.0532886813063058
 20
4.3116768405948154
 30
0.0
 10
8.3356804524775683
 20
18.3230831005002202
 30
0.0
 10
8.3356804524775683
 20
18.3230831005002202
 30
0.0
 10
12.0453084326884472
 20
2.1265259471623987
 30
0.0
 10
12.0453084326884472
 20
2.1265259471623987
 30
0.0
 10
12.4019738383677627
 20
1.7482151704642499
 30
0.0
 10
12.4019738383677627
 20
1.7482151704642499
 30
0.0
 10
14.7965963483900218
 20
12.0346515863362384
 30
0.0
 10
14.7965963483900218
 20
12.0346515863362384
 30
0.0
 10
14.7965963483900218
 20
12.0346515863362384
 30
0.0
 10
11.0703554101866057
 20
4.2098556870381216
 30
0.0
 10
11.0703554101866057
 20
4.2098556870381216
 30
0.0
 10
11.0525032499679945
 20
4.3167381522321113
 30
0.0
 10
11.0525032499679945
 20
4.3167381522321113
 30
0.0
 10
11.0525032499679945
 20
4.3167381522321113
 30
0.0
 10
8.3435885072493807
 20
6.9588444095927215
 30
0.0
 10
8.3435885072493807
 20
6.9588444095927215
 30
0.0
 10
8.3435885072493807
 20
6.9588444095927215
 30
0.0
 10
8.3435885072493807
 20
6.9588444095927215
 30
0.0
 10
2.1538691373781544
 20
11.71803471606591
 30
0.0
 10
2.1538691373781544
 20
11.71803471606591
 30
0.0
 10
2.1538691373781544
 20
11.71803471606591
 30
0.0
 10
8.8885192538501467
 20
18.3108339344684339
 30
0.0
 10
8.8885192538501467
 20
18.3108339344684339
 30
0.0
 10
8.8885192538501467
 20
18.3108339344684339
 30
0.0
 10
11.9458425276218172
 20
2.2494991975946648
 30
0.0
 10
11.9458425276218172
 20
2.2494991975946648
 30
0.0
 10
11.9458425276218172
 20
2.2494991975946648
 30
0.0
 10
11.9458425276218172
 20
2.2494991975946648
 30
0.0
 10
1.4762849173367076
 20
2.9835480902627269
 30
0.0
 10
1.4762849173367076
 20
2.9835480902627269
 30
0.0
 10
1.4762849173367076
 20
2.9835480902627269
 30
0.0
 10
19.937358911724381
 20
5.2485637679506585
 30
0.0
 10
19.937358911724381
 20
5.2485637679506585
 30
0.0
 10
19.937358911724381
 20
5.2485637679506585
 30
0.0
 10
19.937358911724381
 20
5.2485637679506585
 30
0.0
 10
2.1475875015930672
 20
11.9906801012185653
 30
0.0
 10
2.1475875015930672
 20
11.9906801012185653
 30
0.0
 10
2.1475875015930672
 20
11.9906801012185653
 30
0.0
 10
14.7914883981402241
 20
11.7435147189947013
 30
0.0
 10
14.7914883981402241
 20
11.7435147189947013
 30
0.0
 10
14.7914883981402241
 20
11.7435147189947013
 30
0.0
 10
8.9684452208021295
 20
18.3050517137196067
 30
0.0
 10
8.9684452208021295
 20
18.3050517137196067
 30
0.0
 10
8.9684452208021295
 20
18.3050517137196067
 30
0.0
 10
8.9684452208021295
 20
18.3050517137196067
 30
0.0
 10
14.7934481176059727
 20
11.7974844626096864
 30
0.0
 10
14.7934481176059727
 20
11.7974844626096864
 30
0.0
 10
14.7934481176059727
 20
11.7974844626096864
 30
0.0
 10
14.7934481176059727
 20
11.7974844626096864
 30
0.0
 10
19.9348420164385445
 20
5.2902664451774113
 30
0.0
 10
19.9348420164385445
 20
5.2902664451774113
 30
0.0
 10
19.9348420164385445
 20
5.2902664451774113
 30
0.0
 10
19.9348420164385445
 20
5.2902664451774113
 30
0.0
  0
ENDSEC
  0
SECTION
  2
OBJECTS
  0
DICTIONARY
  5
C
100
AcDbDictionary
280
0
281
1
  3
ACAD_GROUP
350
D
  3
ACAD_LAYOUT
350
1A
  3
ACAD_MLINESTYLE
350
17
  3
ACAD_PLOTSETTINGS
350
19
  3
ACAD_PLOTSTYLENAME
350
E
  3
AcDbVariableDictionary
350
4B
  0
DICTIONARY
  5
D
100
AcDbDictionary
280
0
281
1
  0
ACDBDICTIONARYWDFLT
  5
E
100
AcDbDictionary
281
1
  3
Normal
350
F
100
AcDbDictionaryWithDefault
340
F
  0
ACDBPLACEHOLDER
  5
F
  0
DICTIONARY
  5
17
100
AcDbDictionary
280
0
281
1
  3
Standard
350
18
  0
MLINESTYLE
  5
18
100
AcDbMlineStyle
  2
STANDARD
 70
0
  3

 62
256
 51
90.0
 52
90.0
 71
2
 49
0.5
 62
256
  6
BYLAYER
 49
-0.5
 62
256
  6
BYLAYER
  0
DICTIONARY
  5
19
100
AcDbDictionary
280
0
281
1
  0
DICTIONARY
  5
1A
100
AcDbDictionary
281
1
  3
Layout1
350
1E
  3
Layout2
350
26
  3
Model
350
22
  0
LAYOUT
  5
1E
100
AcDbPlotSettings
  1

  2
C:\Program Files\AutoCAD 2002\plotters\DWF ePlot (optimized for plotting).pc3
  4

  6

 40
0.0
 41
0.0
 42
0.0
 43
0.0
 44
0.0
 45
0.0
 46
0.0
 47
0.0
 48
0.0
 49
0.0
140
0.0
141
0.0
142
1.0
143
1.0
 70
688
 72
0
 73
0
 74
5
  7

 75
16
147
1.0
148
0.0
149
0.0
100
AcDbLayout
  1
Layout1
 70
1
 71
1
 10
0.0
 20
0.0
 11
420.0
 21
297.0
 12
0.0
 22
0.0
 32
0.0
 14
100000000000000000000.0
 24
100000000000000000000.0
 34
100000000000000000000.0
 15
-100000000000000000000.0
 25
-100000000000000000000.0
 35
-100000000000000000000.0
146
0.0
 13
0.0
 23
0.0
 33
0.0
 16
1.0
 26
0.0
 36
0.0
 17
0.0
 27
1.0
 37
0.0
 76
0
330
1B
  0
LAYOUT
  5
22
100
AcDbPlotSettings
  1

  2
C:\Program Files\AutoCAD 2002\plotters\DWF ePlot (optimized for plotting).pc3
  4

  6

 40
0.0
 41
0.0
 42
0.0
 43
0.0
 44
0.0
 45
0.0
 46
0.0
 47
0.0
 48
0.0
 49
0.0
140
0.0
141
0.0
142
1.0
143
1.0
 70
1712
 72
0
 73
0
 74
0
  7

 75
0
147
1.0
148
0.0
149
0.0
100
AcDbLayout
  1
Model
 70
1
 71
0
 10
0.0
 20
0.0
 11
12.0
 21
9.0
 12
0.0
 22
0.0
 32
0.0
 14
0.0
 24
0.0
 34
0.0
 15
0.0
 25
0.0
 35
0.0
146
0.0
 13
0.0
 23
0.0
 33
0.0
 16
1.0
 26
0.0
 36
0.0
 17
0.0
 27
1.0
 37
0.0
 76
0
330
1F
  0
LAYOUT
  5
26
100
AcDbPlotSettings
  1

  2
C:\Program Files\AutoCAD 2002\plotters\DWF ePlot (optimized for plotting).pc3
  4

  6

 40
0.0
 41
0.0
 42
0.0
 43
0.0
 44
0.0
 45
0.0
 46
0.0
 47
0.0
 48
0.0
 49
0.0
140
0.0
141
0.0
142
1.0
143
1.0
 70
688
 72
0
 73
0
 74
5
  7

 75
16
147
1.0
148
0.0
149
0.0
100
AcDbLayout
  1
Layout2
 70
1
 71
2
 10
0.0
 20
0.0
 11
12.0
 21
9.0
 12
0.0
 22
0.0
 32
0.0
 14
0.0
 24
0.0
 34
0.0
 15
0.0
 25
0.0
 35
0.0
146
0.0
 13
0.0
 23
0.0
 33
0.0
 16
1.0
 26
0.0
 36
0.0
 17
0.0
 27
1.0
 37
0.0
 76
0
330
23
  0
DICTIONARY
  5
4B
100
AcDbDictionary
281
1
  3
DIMASSOC
350
4D
  3
HIDETEXT
350
4C
  0
DICTIONARYVAR
  5
4C
100
DictionaryVariables
280
0
  1
2
  0
DICTIONARYVAR
  5
4D
100
DictionaryVariables
280
0
  1
1
  0
ENDSEC
  0
EOF
