  0
SECTION
  2
BLOCKS
  0
ENDSEC
  0
SECTION
  2
ENTITIES
  0
LINE
  8
0
 10
-0.680000
 11
-0.653000
 20
0.000000
 21
0.192000
  0
LINE
  8
0
 10
-0.653000
 11
-0.572000
 20
0.192000
 21
0.368000
  0
LINE
  8
0
 10
-0.572000
 11
-0.445000
 20
0.368000
 21
0.514000
  0
LINE
  8
0
 10
-0.445000
 11
-0.282000
 20
0.514000
 21
0.618000
  0
LINE
  8
0
 10
-0.282000
 11
-0.097000
 20
0.618000
 21
0.673000
  0
LINE
  8
0
 10
-0.097000
 11
0.097000
 20
0.673000
 21
0.673000
  0
LINE
  8
0
 10
0.097000
 11
0.282000
 20
0.673000
 21
0.618000
  0
LINE
  8
0
 10
0.282000
 11
0.445000
 20
0.618000
 21
0.514000
  0
LINE
  8
0
 10
0.445000
 11
0.572000
 20
0.514000
 21
0.368000
  0
LINE
  8
0
 10
0.572000
 11
0.653000
 20
0.368000
 21
0.192000
  0
LINE
  8
0
 10
0.653000
 11
0.680000
 20
0.192000
 21
0.000000
  0
LINE
  8
0
 10
0.680000
 11
0.653000
 20
0.000000
 21
-0.192000
  0
LINE
  8
0
 10
0.653000
 11
0.572000
 20
-0.192000
 21
-0.368000
  0
LINE
  8
0
 10
0.572000
 11
0.445000
 20
-0.368000
 21
-0.514000
  0
LINE
  8
0
 10
0.445000
 11
0.282000
 20
-0.514000
 21
-0.618000
  0
LINE
  8
0
 10
0.282000
 11
0.097000
 20
-0.618000
 21
-0.673000
  0
LINE
  8
0
 10
0.097000
 11
-0.097000
 20
-0.673000
 21
-0.673000
  0
LINE
  8
0
 10
-0.097000
 11
-0.282000
 20
-0.673000
 21
-0.618000
  0
LINE
  8
0
 10
-0.282000
 11
-0.445000
 20
-0.618000
 21
-0.514000
  0
LINE
  8
0
 10
-0.445000
 11
-0.572000
 20
-0.514000
 21
-0.368000
  0
LINE
  8
0
 10
-0.572000
 11
-0.653000
 20
-0.368000
 21
-0.192000
  0
LINE
  8
0
 10
-0.653000
 11
-0.680000
 20
-0.192000
 21
0.000000
  0
LINE
  8
0
 10
3.571000
 11
3.598000
 20
0.000000
 21
0.192000
  0
LINE
  8
0
 10
3.598000
 11
3.679000
 20
0.192000
 21
0.368000
  0
LINE
  8
0
 10
3.679000
 11
3.806000
 20
0.368000
 21
0.514000
  0
LINE
  8
0
 10
3.806000
 11
3.969000
 20
0.514000
 21
0.618000
  0
LINE
  8
0
 10
3.969000
 11
4.154000
 20
0.618000
 21
0.673000
  0
LINE
  8
0
 10
4.154000
 11
4.348000
 20
0.673000
 21
0.673000
  0
LINE
  8
0
 10
4.348000
 11
4.533000
 20
0.673000
 21
0.618000
  0
LINE
  8
0
 10
4.533000
 11
4.696000
 20
0.618000
 21
0.514000
  0
LINE
  8
0
 10
4.696000
 11
4.823000
 20
0.514000
 21
0.368000
  0
LINE
  8
0
 10
4.823000
 11
4.904000
 20
0.368000
 21
0.192000
  0
LINE
  8
0
 10
4.904000
 11
4.931000
 20
0.192000
 21
0.000000
  0
LINE
  8
0
 10
4.931000
 11
4.904000
 20
0.000000
 21
-0.192000
  0
LINE
  8
0
 10
4.904000
 11
4.823000
 20
-0.192000
 21
-0.368000
  0
LINE
  8
0
 10
4.823000
 11
4.696000
 20
-0.368000
 21
-0.514000
  0
LINE
  8
0
 10
4.696000
 11
4.533000
 20
-0.514000
 21
-0.618000
  0
LINE
  8
0
 10
4.533000
 11
4.348000
 20
-0.618000
 21
-0.673000
  0
LINE
  8
0
 10
4.348000
 11
4.154000
 20
-0.673000
 21
-0.673000
  0
LINE
  8
0
 10
4.154000
 11
3.969000
 20
-0.673000
 21
-0.618000
  0
LINE
  8
0
 10
3.969000
 11
3.806000
 20
-0.618000
 21
-0.514000
  0
LINE
  8
0
 10
3.806000
 11
3.679000
 20
-0.514000
 21
-0.368000
  0
LINE
  8
0
 10
3.679000
 11
3.598000
 20
-0.368000
 21
-0.192000
  0
LINE
  8
0
 10
3.598000
 11
3.571000
 20
-0.192000
 21
0.000000
  0
LINE
  8
0
 10
7.822000
 11
7.849000
 20
0.000000
 21
0.192000
  0
LINE
  8
0
 10
7.849000
 11
7.930000
 20
0.192000
 21
0.368000
  0
LINE
  8
0
 10
7.930000
 11
8.057000
 20
0.368000
 21
0.514000
  0
LINE
  8
0
 10
8.057000
 11
8.220000
 20
0.514000
 21
0.618000
  0
LINE
  8
0
 10
8.220000
 11
8.405000
 20
0.618000
 21
0.673000
  0
LINE
  8
0
 10
8.405000
 11
8.599000
 20
0.673000
 21
0.673000
  0
LINE
  8
0
 10
8.599000
 11
8.784000
 20
0.673000
 21
0.618000
  0
LINE
  8
0
 10
8.784000
 11
8.947000
 20
0.618000
 21
0.514000
  0
LINE
  8
0
 10
8.947000
 11
9.074000
 20
0.514000
 21
0.368000
  0
LINE
  8
0
 10
9.074000
 11
9.155000
 20
0.368000
 21
0.192000
  0
LINE
  8
0
 10
9.155000
 11
9.182000
 20
0.192000
 21
0.000000
  0
LINE
  8
0
 10
9.182000
 11
9.155000
 20
0.000000
 21
-0.192000
  0
LINE
  8
0
 10
9.155000
 11
9.074000
 20
-0.192000
 21
-0.368000
  0
LINE
  8
0
 10
9.074000
 11
8.947000
 20
-0.368000
 21
-0.514000
  0
LINE
  8
0
 10
8.947000
 11
8.784000
 20
-0.514000
 21
-0.618000
  0
LINE
  8
0
 10
8.784000
 11
8.599000
 20
-0.618000
 21
-0.673000
  0
LINE
  8
0
 10
8.599000
 11
8.405000
 20
-0.673000
 21
-0.673000
  0
LINE
  8
0
 10
8.405000
 11
8.220000
 20
-0.673000
 21
-0.618000
  0
LINE
  8
0
 10
8.220000
 11
8.057000
 20
-0.618000
 21
-0.514000
  0
LINE
  8
0
 10
8.057000
 11
7.930000
 20
-0.514000
 21
-0.368000
  0
LINE
  8
0
 10
7.930000
 11
7.849000
 20
-0.368000
 21
-0.192000
  0
LINE
  8
0
 10
7.849000
 11
7.822000
 20
-0.192000
 21
0.000000
  0
LINE
  8
0
 10
12.073000
 11
12.100000
 20
0.000000
 21
0.192000
  0
LINE
  8
0
 10
12.100000
 11
12.181000
 20
0.192000
 21
0.368000
  0
LINE
  8
0
 10
12.181000
 11
12.308000
 20
0.368000
 21
0.514000
  0
LINE
  8
0
 10
12.308000
 11
12.471000
 20
0.514000
 21
0.618000
  0
LINE
  8
0
 10
12.471000
 11
12.656000
 20
0.618000
 21
0.673000
  0
LINE
  8
0
 10
12.656000
 11
12.850000
 20
0.673000
 21
0.673000
  0
LINE
  8
0
 10
12.850000
 11
13.035000
 20
0.673000
 21
0.618000
  0
LINE
  8
0
 10
13.035000
 11
13.198000
 20
0.618000
 21
0.514000
  0
LINE
  8
0
 10
13.198000
 11
13.325000
 20
0.514000
 21
0.368000
  0
LINE
  8
0
 10
13.325000
 11
13.406000
 20
0.368000
 21
0.192000
  0
LINE
  8
0
 10
13.406000
 11
13.433000
 20
0.192000
 21
0.000000
  0
LINE
  8
0
 10
13.433000
 11
13.406000
 20
0.000000
 21
-0.192000
  0
LINE
  8
0
 10
13.406000
 11
13.325000
 20
-0.192000
 21
-0.368000
  0
LINE
  8
0
 10
13.325000
 11
13.198000
 20
-0.368000
 21
-0.514000
  0
LINE
  8
0
 10
13.198000
 11
13.035000
 20
-0.514000
 21
-0.618000
  0
LINE
  8
0
 10
13.035000
 11
12.850000
 20
-0.618000
 21
-0.673000
  0
LINE
  8
0
 10
12.850000
 11
12.656000
 20
-0.673000
 21
-0.673000
  0
LINE
  8
0
 10
12.656000
 11
12.471000
 20
-0.673000
 21
-0.618000
  0
LINE
  8
0
 10
12.471000
 11
12.308000
 20
-0.618000
 21
-0.514000
  0
LINE
  8
0
 10
12.308000
 11
12.181000
 20
-0.514000
 21
-0.368000
  0
LINE
  8
0
 10
12.181000
 11
12.100000
 20
-0.368000
 21
-0.192000
  0
LINE
  8
0
 10
12.100000
 11
12.073000
 20
-0.192000
 21
0.000000
  0
LINE
  8
0
 10
16.324000
 11
16.351000
 20
0.000000
 21
0.192000
  0
LINE
  8
0
 10
16.351000
 11
16.432000
 20
0.192000
 21
0.368000
  0
LINE
  8
0
 10
16.432000
 11
16.559000
 20
0.368000
 21
0.514000
  0
LINE
  8
0
 10
16.559000
 11
16.722000
 20
0.514000
 21
0.618000
  0
LINE
  8
0
 10
16.722000
 11
16.907000
 20
0.618000
 21
0.673000
  0
LINE
  8
0
 10
16.907000
 11
17.101000
 20
0.673000
 21
0.673000
  0
LINE
  8
0
 10
17.101000
 11
17.286000
 20
0.673000
 21
0.618000
  0
LINE
  8
0
 10
17.286000
 11
17.449000
 20
0.618000
 21
0.514000
  0
LINE
  8
0
 10
17.449000
 11
17.576000
 20
0.514000
 21
0.368000
  0
LINE
  8
0
 10
17.576000
 11
17.657000
 20
0.368000
 21
0.192000
  0
LINE
  8
0
 10
17.657000
 11
17.684000
 20
0.192000
 21
0.000000
  0
LINE
  8
0
 10
17.684000
 11
17.657000
 20
0.000000
 21
-0.192000
  0
LINE
  8
0
 10
17.657000
 11
17.576000
 20
-0.192000
 21
-0.368000
  0
LINE
  8
0
 10
17.576000
 11
17.449000
 20
-0.368000
 21
-0.514000
  0
LINE
  8
0
 10
17.449000
 11
17.286000
 20
-0.514000
 21
-0.618000
  0
LINE
  8
0
 10
17.286000
 11
17.101000
 20
-0.618000
 21
-0.673000
  0
LINE
  8
0
 10
17.101000
 11
16.907000
 20
-0.673000
 21
-0.673000
  0
LINE
  8
0
 10
16.907000
 11
16.722000
 20
-0.673000
 21
-0.618000
  0
LINE
  8
0
 10
16.722000
 11
16.559000
 20
-0.618000
 21
-0.514000
  0
LINE
  8
0
 10
16.559000
 11
16.432000
 20
-0.514000
 21
-0.368000
  0
LINE
  8
0
 10
16.432000
 11
16.351000
 20
-0.368000
 21
-0.192000
  0
LINE
  8
0
 10
16.351000
 11
16.324000
 20
-0.192000
 21
0.000000
  0
LINE
  8
0
 10
20.575000
 11
20.602000
 20
0.000000
 21
0.192000
  0
LINE
  8
0
 10
20.602000
 11
20.683000
 20
0.192000
 21
0.368000
  0
LINE
  8
0
 10
20.683000
 11
20.810000
 20
0.368000
 21
0.514000
  0
LINE
  8
0
 10
20.810000
 11
20.973000
 20
0.514000
 21
0.618000
  0
LINE
  8
0
 10
20.973000
 11
21.158000
 20
0.618000
 21
0.673000
  0
LINE
  8
0
 10
21.158000
 11
21.352000
 20
0.673000
 21
0.673000
  0
LINE
  8
0
 10
21.352000
 11
21.537000
 20
0.673000
 21
0.618000
  0
LINE
  8
0
 10
21.537000
 11
21.700000
 20
0.618000
 21
0.514000
  0
LINE
  8
0
 10
21.700000
 11
21.827000
 20
0.514000
 21
0.368000
  0
LINE
  8
0
 10
21.827000
 11
21.908000
 20
0.368000
 21
0.192000
  0
LINE
  8
0
 10
21.908000
 11
21.935000
 20
0.192000
 21
0.000000
  0
LINE
  8
0
 10
21.935000
 11
21.908000
 20
0.000000
 21
-0.192000
  0
LINE
  8
0
 10
21.908000
 11
21.827000
 20
-0.192000
 21
-0.368000
  0
LINE
  8
0
 10
21.827000
 11
21.700000
 20
-0.368000
 21
-0.514000
  0
LINE
  8
0
 10
21.700000
 11
21.537000
 20
-0.514000
 21
-0.618000
  0
LINE
  8
0
 10
21.537000
 11
21.352000
 20
-0.618000
 21
-0.673000
  0
LINE
  8
0
 10
21.352000
 11
21.158000
 20
-0.673000
 21
-0.673000
  0
LINE
  8
0
 10
21.158000
 11
20.973000
 20
-0.673000
 21
-0.618000
  0
LINE
  8
0
 10
20.973000
 11
20.810000
 20
-0.618000
 21
-0.514000
  0
LINE
  8
0
 10
20.810000
 11
20.683000
 20
-0.514000
 21
-0.368000
  0
LINE
  8
0
 10
20.683000
 11
20.602000
 20
-0.368000
 21
-0.192000
  0
LINE
  8
0
 10
20.602000
 11
20.575000
 20
-0.192000
 21
0.000000
  0
LINE
  8
0
 10
24.826000
 11
24.853000
 20
0.000000
 21
0.192000
  0
LINE
  8
0
 10
24.853000
 11
24.934000
 20
0.192000
 21
0.368000
  0
LINE
  8
0
 10
24.934000
 11
25.061000
 20
0.368000
 21
0.514000
  0
LINE
  8
0
 10
25.061000
 11
25.224000
 20
0.514000
 21
0.618000
  0
LINE
  8
0
 10
25.224000
 11
25.409000
 20
0.618000
 21
0.673000
  0
LINE
  8
0
 10
25.409000
 11
25.603000
 20
0.673000
 21
0.673000
  0
LINE
  8
0
 10
25.603000
 11
25.788000
 20
0.673000
 21
0.618000
  0
LINE
  8
0
 10
25.788000
 11
25.951000
 20
0.618000
 21
0.514000
  0
LINE
  8
0
 10
25.951000
 11
26.078000
 20
0.514000
 21
0.368000
  0
LINE
  8
0
 10
26.078000
 11
26.159000
 20
0.368000
 21
0.192000
  0
LINE
  8
0
 10
26.159000
 11
26.186000
 20
0.192000
 21
0.000000
  0
LINE
  8
0
 10
26.186000
 11
26.159000
 20
0.000000
 21
-0.192000
  0
LINE
  8
0
 10
26.159000
 11
26.078000
 20
-0.192000
 21
-0.368000
  0
LINE
  8
0
 10
26.078000
 11
25.951000
 20
-0.368000
 21
-0.514000
  0
LINE
  8
0
 10
25.951000
 11
25.788000
 20
-0.514000
 21
-0.618000
  0
LINE
  8
0
 10
25.788000
 11
25.603000
 20
-0.618000
 21
-0.673000
  0
LINE
  8
0
 10
25.603000
 11
25.409000
 20
-0.673000
 21
-0.673000
  0
LINE
  8
0
 10
25.409000
 11
25.224000
 20
-0.673000
 21
-0.618000
  0
LINE
  8
0
 10
25.224000
 11
25.061000
 20
-0.618000
 21
-0.514000
  0
LINE
  8
0
 10
25.061000
 11
24.934000
 20
-0.514000
 21
-0.368000
  0
LINE
  8
0
 10
24.934000
 11
24.853000
 20
-0.368000
 21
-0.192000
  0
LINE
  8
0
 10
24.853000
 11
24.826000
 20
-0.192000
 21
0.000000
  0
LINE
  8
0
 10
29.077000
 11
29.104000
 20
0.000000
 21
0.192000
  0
LINE
  8
0
 10
29.104000
 11
29.185000
 20
0.192000
 21
0.368000
  0
LINE
  8
0
 10
29.185000
 11
29.312000
 20
0.368000
 21
0.514000
  0
LINE
  8
0
 10
29.312000
 11
29.475000
 20
0.514000
 21
0.618000
  0
LINE
  8
0
 10
29.475000
 11
29.660000
 20
0.618000
 21
0.673000
  0
LINE
  8
0
 10
29.660000
 11
29.854000
 20
0.673000
 21
0.673000
  0
LINE
  8
0
 10
29.854000
 11
30.039000
 20
0.673000
 21
0.618000
  0
LINE
  8
0
 10
30.039000
 11
30.202000
 20
0.618000
 21
0.514000
  0
LINE
  8
0
 10
30.202000
 11
30.329000
 20
0.514000
 21
0.368000
  0
LINE
  8
0
 10
30.329000
 11
30.410000
 20
0.368000
 21
0.192000
  0
LINE
  8
0
 10
30.410000
 11
30.437000
 20
0.192000
 21
0.000000
  0
LINE
  8
0
 10
30.437000
 11
30.410000
 20
0.000000
 21
-0.192000
  0
LINE
  8
0
 10
30.410000
 11
30.329000
 20
-0.192000
 21
-0.368000
  0
LINE
  8
0
 10
30.329000
 11
30.202000
 20
-0.368000
 21
-0.514000
  0
LINE
  8
0
 10
30.202000
 11
30.039000
 20
-0.514000
 21
-0.618000
  0
LINE
  8
0
 10
30.039000
 11
29.854000
 20
-0.618000
 21
-0.673000
  0
LINE
  8
0
 10
29.854000
 11
29.660000
 20
-0.673000
 21
-0.673000
  0
LINE
  8
0
 10
29.660000
 11
29.475000
 20
-0.673000
 21
-0.618000
  0
LINE
  8
0
 10
29.475000
 11
29.312000
 20
-0.618000
 21
-0.514000
  0
LINE
  8
0
 10
29.312000
 11
29.185000
 20
-0.514000
 21
-0.368000
  0
LINE
  8
0
 10
29.185000
 11
29.104000
 20
-0.368000
 21
-0.192000
  0
LINE
  8
0
 10
29.104000
 11
29.077000
 20
-0.192000
 21
0.000000
  0
LINE
  8
0
 10
33.328000
 11
33.355000
 20
0.000000
 21
0.192000
  0
LINE
  8
0
 10
33.355000
 11
33.436000
 20
0.192000
 21
0.368000
  0
LINE
  8
0
 10
33.436000
 11
33.563000
 20
0.368000
 21
0.514000
  0
LINE
  8
0
 10
33.563000
 11
33.726000
 20
0.514000
 21
0.618000
  0
LINE
  8
0
 10
33.726000
 11
33.911000
 20
0.618000
 21
0.673000
  0
LINE
  8
0
 10
33.911000
 11
34.105000
 20
0.673000
 21
0.673000
  0
LINE
  8
0
 10
34.105000
 11
34.290000
 20
0.673000
 21
0.618000
  0
LINE
  8
0
 10
34.290000
 11
34.453000
 20
0.618000
 21
0.514000
  0
LINE
  8
0
 10
34.453000
 11
34.580000
 20
0.514000
 21
0.368000
  0
LINE
  8
0
 10
34.580000
 11
34.661000
 20
0.368000
 21
0.192000
  0
LINE
  8
0
 10
34.661000
 11
34.688000
 20
0.192000
 21
0.000000
  0
LINE
  8
0
 10
34.688000
 11
34.661000
 20
0.000000
 21
-0.192000
  0
LINE
  8
0
 10
34.661000
 11
34.580000
 20
-0.192000
 21
-0.368000
  0
LINE
  8
0
 10
34.580000
 11
34.453000
 20
-0.368000
 21
-0.514000
  0
LINE
  8
0
 10
34.453000
 11
34.290000
 20
-0.514000
 21
-0.618000
  0
LINE
  8
0
 10
34.290000
 11
34.105000
 20
-0.618000
 21
-0.673000
  0
LINE
  8
0
 10
34.105000
 11
33.911000
 20
-0.673000
 21
-0.673000
  0
LINE
  8
0
 10
33.911000
 11
33.726000
 20
-0.673000
 21
-0.618000
  0
LINE
  8
0
 10
33.726000
 11
33.563000
 20
-0.618000
 21
-0.514000
  0
LINE
  8
0
 10
33.563000
 11
33.436000
 20
-0.514000
 21
-0.368000
  0
LINE
  8
0
 10
33.436000
 11
33.355000
 20
-0.368000
 21
-0.192000
  0
LINE
  8
0
 10
33.355000
 11
33.328000
 20
-0.192000
 21
0.000000
  0
LINE
  8
0
 10
37.579000
 11
37.606000
 20
0.000000
 21
0.192000
  0
LINE
  8
0
 10
37.606000
 11
37.687000
 20
0.192000
 21
0.368000
  0
LINE
  8
0
 10
37.687000
 11
37.814000
 20
0.368000
 21
0.514000
  0
LINE
  8
0
 10
37.814000
 11
37.977000
 20
0.514000
 21
0.618000
  0
LINE
  8
0
 10
37.977000
 11
38.162000
 20
0.618000
 21
0.673000
  0
LINE
  8
0
 10
38.162000
 11
38.356000
 20
0.673000
 21
0.673000
  0
LINE
  8
0
 10
38.356000
 11
38.541000
 20
0.673000
 21
0.618000
  0
LINE
  8
0
 10
38.541000
 11
38.704000
 20
0.618000
 21
0.514000
  0
LINE
  8
0
 10
38.704000
 11
38.831000
 20
0.514000
 21
0.368000
  0
LINE
  8
0
 10
38.831000
 11
38.912000
 20
0.368000
 21
0.192000
  0
LINE
  8
0
 10
38.912000
 11
38.939000
 20
0.192000
 21
0.000000
  0
LINE
  8
0
 10
38.939000
 11
38.912000
 20
0.000000
 21
-0.192000
  0
LINE
  8
0
 10
38.912000
 11
38.831000
 20
-0.192000
 21
-0.368000
  0
LINE
  8
0
 10
38.831000
 11
38.704000
 20
-0.368000
 21
-0.514000
  0
LINE
  8
0
 10
38.704000
 11
38.541000
 20
-0.514000
 21
-0.618000
  0
LINE
  8
0
 10
38.541000
 11
38.356000
 20
-0.618000
 21
-0.673000
  0
LINE
  8
0
 10
38.356000
 11
38.162000
 20
-0.673000
 21
-0.673000
  0
LINE
  8
0
 10
38.162000
 11
37.977000
 20
-0.673000
 21
-0.618000
  0
LINE
  8
0
 10
37.977000
 11
37.814000
 20
-0.618000
 21
-0.514000
  0
LINE
  8
0
 10
37.814000
 11
37.687000
 20
-0.514000
 21
-0.368000
  0
LINE
  8
0
 10
37.687000
 11
37.606000
 20
-0.368000
 21
-0.192000
  0
LINE
  8
0
 10
37.606000
 11
37.579000
 20
-0.192000
 21
0.000000
  0
LINE
  8
0
 10
41.830000
 11
41.857000
 20
0.000000
 21
0.192000
  0
LINE
  8
0
 10
41.857000
 11
41.938000
 20
0.192000
 21
0.368000
  0
LINE
  8
0
 10
41.938000
 11
42.065000
 20
0.368000
 21
0.514000
  0
LINE
  8
0
 10
42.065000
 11
42.228000
 20
0.514000
 21
0.618000
  0
LINE
  8
0
 10
42.228000
 11
42.413000
 20
0.618000
 21
0.673000
  0
LINE
  8
0
 10
42.413000
 11
42.607000
 20
0.673000
 21
0.673000
  0
LINE
  8
0
 10
42.607000
 11
42.792000
 20
0.673000
 21
0.618000
  0
LINE
  8
0
 10
42.792000
 11
42.955000
 20
0.618000
 21
0.514000
  0
LINE
  8
0
 10
42.955000
 11
43.082000
 20
0.514000
 21
0.368000
  0
LINE
  8
0
 10
43.082000
 11
43.163000
 20
0.368000
 21
0.192000
  0
LINE
  8
0
 10
43.163000
 11
43.190000
 20
0.192000
 21
0.000000
  0
LINE
  8
0
 10
43.190000
 11
43.163000
 20
0.000000
 21
-0.192000
  0
LINE
  8
0
 10
43.163000
 11
43.082000
 20
-0.192000
 21
-0.368000
  0
LINE
  8
0
 10
43.082000
 11
42.955000
 20
-0.368000
 21
-0.514000
  0
LINE
  8
0
 10
42.955000
 11
42.792000
 20
-0.514000
 21
-0.618000
  0
LINE
  8
0
 10
42.792000
 11
42.607000
 20
-0.618000
 21
-0.673000
  0
LINE
  8
0
 10
42.607000
 11
42.413000
 20
-0.673000
 21
-0.673000
  0
LINE
  8
0
 10
42.413000
 11
42.228000
 20
-0.673000
 21
-0.618000
  0
LINE
  8
0
 10
42.228000
 11
42.065000
 20
-0.618000
 21
-0.514000
  0
LINE
  8
0
 10
42.065000
 11
41.938000
 20
-0.514000
 21
-0.368000
  0
LINE
  8
0
 10
41.938000
 11
41.857000
 20
-0.368000
 21
-0.192000
  0
LINE
  8
0
 10
41.857000
 11
41.830000
 20
-0.192000
 21
0.000000
  0
ENDSEC
  0
SECTION
  2
OBJECTS
  0
DICTIONARY
  0
ENDSEC
  0
EOF
