<?xml version="1.0" encoding="utf-8" ?>
<svg baseProfile="full" height="100%" version="1.1" width="100%" xmlns="http://www.w3.org/2000/svg" xmlns:ev="http://www.w3.org/2001/xml-events" xmlns:xlink="http://www.w3.org/1999/xlink"><defs /><g fill="none" id="lines" stroke="black" stroke-width="0.1mm"><polyline points="0.0,375.590542 354.3307,375.590542" /><circle cx="177.16535" cy="393.307077" r="5.3149605" /><rect height="10.629921" width="95.669289" x="65.5511795" y="387.9921165" /><rect height="10.629921" width="95.669289" x="193.1102315" y="387.9921165" /><polyline points="354.3307,375.590542 354.3307,729.921242" /><circle cx="336.614165" cy="552.755892" r="5.3149605" /><rect height="95.669289" width="10.629921" x="331.2992045" y="441.1417215" /><rect height="95.669289" width="10.629921" x="331.2992045" y="568.7007735" /><polyline points="0.0,729.921242 354.3307,729.921242" /><circle cx="177.16535" cy="712.204707" r="5.3149605" /><rect height="10.629921" width="95.669289" x="65.5511795" y="706.8897465" /><rect height="10.629921" width="95.669289" x="193.1102315" y="706.8897465" /><polyline points="0.0,375.590542 0.0,729.921242" /><circle cx="17.716535" cy="552.755892" r="5.3149605" /><rect height="95.669289" width="10.629921" x="12.4015745" y="441.1417215" /><rect height="95.669289" width="10.629921" x="12.4015745" y="568.7007735" /><polyline points="386.220463,375.590542 719.291321,375.590542" /><circle cx="552.755892" cy="393.307077" r="5.3149605" /><rect height="10.629921" width="95.669289" x="441.1417215" y="387.9921165" /><rect height="10.629921" width="95.669289" x="568.7007735" y="387.9921165" /><polyline points="719.291321,375.590542 719.291321,446.456682" /><polyline points="719.291321,446.456682 729.921242,446.456682" /><polyline points="729.921242,446.456682 729.921242,531.49605" /><polyline points="719.291321,531.49605 729.921242,531.49605" /><polyline points="719.291321,659.055102 729.921242,659.055102" /><polyline points="729.921242,659.055102 729.921242,574.015734" /><polyline points="719.291321,574.015734 729.921242,574.015734" /><polyline points="719.291321,531.49605 719.291321,547.4409315" /><polyline points="719.291321,547.4409315 696.2598255,547.4409315" /><polyline points="696.2598255,547.4409315 696.2598255,542.65746705" /><polyline points="696.2598255,542.65746705 680.314944,542.65746705" /><polyline points="680.314944,542.65746705 680.314944,547.4409315" /><polyline points="680.314944,547.4409315 667.9133695,547.4409315" /><polyline points="667.9133695,547.4409315 667.9133695,558.0708525" /><polyline points="696.2598255,558.0708525 696.2598255,562.85431695" /><polyline points="696.2598255,562.85431695 680.314944,562.85431695" /><polyline points="680.314944,562.85431695 680.314944,558.0708525" /><polyline points="680.314944,558.0708525 667.9133695,558.0708525" /><polyline points="696.2598255,558.0708525 719.291321,558.0708525" /><polyline points="719.291321,558.0708525 719.291321,574.015734" /><polyline points="719.291321,659.055102 719.291321,729.921242" /><polyline points="386.220463,729.921242 719.291321,729.921242" /><circle cx="552.755892" cy="712.204707" r="5.3149605" /><rect height="10.629921" width="95.669289" x="441.1417215" y="706.8897465" /><rect height="10.629921" width="95.669289" x="568.7007735" y="706.8897465" /><polyline points="386.220463,375.590542 386.220463,446.456682" /><polyline points="386.220463,446.456682 375.590542,446.456682" /><polyline points="375.590542,446.456682 375.590542,531.49605" /><polyline points="386.220463,531.49605 375.590542,531.49605" /><polyline points="386.220463,659.055102 375.590542,659.055102" /><polyline points="375.590542,659.055102 375.590542,574.015734" /><polyline points="386.220463,574.015734 375.590542,574.015734" /><polyline points="386.220463,531.49605 386.220463,547.4409315" /><polyline points="386.220463,547.4409315 409.2519585,547.4409315" /><polyline points="409.2519585,547.4409315 409.2519585,542.65746705" /><polyline points="409.2519585,542.65746705 425.19684,542.65746705" /><polyline points="425.19684,542.65746705 425.19684,547.4409315" /><polyline points="425.19684,547.4409315 437.5984145,547.4409315" /><polyline points="437.5984145,547.4409315 437.5984145,558.0708525" /><polyline points="409.2519585,558.0708525 409.2519585,562.85431695" /><polyline points="409.2519585,562.85431695 425.19684,562.85431695" /><polyline points="425.19684,562.85431695 425.19684,558.0708525" /><polyline points="425.19684,558.0708525 437.5984145,558.0708525" /><polyline points="409.2519585,558.0708525 386.220463,558.0708525" /><polyline points="386.220463,558.0708525 386.220463,574.015734" /><polyline points="386.220463,659.055102 386.220463,729.921242" /><polyline points="751.181084,375.590542 1105.511784,375.590542" /><circle cx="928.346434" cy="393.307077" r="5.3149605" /><rect height="10.629921" width="95.669289" x="816.7322635" y="387.9921165" /><rect height="10.629921" width="95.669289" x="944.2913155" y="387.9921165" /><polyline points="1105.511784,375.590542 1105.511784,729.921242" /><circle cx="1087.795249" cy="552.755892" r="5.3149605" /><rect height="95.669289" width="10.629921" x="1082.4802885" y="441.1417215" /><rect height="95.669289" width="10.629921" x="1082.4802885" y="568.7007735" /><polyline points="751.181084,729.921242 1105.511784,729.921242" /><circle cx="928.346434" cy="712.204707" r="5.3149605" /><rect height="10.629921" width="95.669289" x="816.7322635" y="706.8897465" /><rect height="10.629921" width="95.669289" x="944.2913155" y="706.8897465" /><polyline points="751.181084,375.590542 751.181084,729.921242" /><circle cx="768.897619" cy="552.755892" r="5.3149605" /><rect height="95.669289" width="10.629921" x="763.5826585" y="441.1417215" /><rect height="95.669289" width="10.629921" x="763.5826585" y="568.7007735" /><polyline points="1137.401547,375.590542 1470.472405,375.590542" /><circle cx="1303.936976" cy="393.307077" r="5.3149605" /><rect height="10.629921" width="95.669289" x="1192.3228055" y="387.9921165" /><rect height="10.629921" width="95.669289" x="1319.8818575" y="387.9921165" /><polyline points="1470.472405,375.590542 1470.472405,446.456682" /><polyline points="1470.472405,446.456682 1481.102326,446.456682" /><polyline points="1481.102326,446.456682 1481.102326,531.49605" /><polyline points="1470.472405,531.49605 1481.102326,531.49605" /><polyline points="1470.472405,659.055102 1481.102326,659.055102" /><polyline points="1481.102326,659.055102 1481.102326,574.015734" /><polyline points="1470.472405,574.015734 1481.102326,574.015734" /><polyline points="1470.472405,531.49605 1470.472405,547.4409315" /><polyline points="1470.472405,547.4409315 1447.4409095,547.4409315" /><polyline points="1447.4409095,547.4409315 1447.4409095,542.65746705" /><polyline points="1447.4409095,542.65746705 1431.496028,542.65746705" /><polyline points="1431.496028,542.65746705 1431.496028,547.4409315" /><polyline points="1431.496028,547.4409315 1419.0944535,547.4409315" /><polyline points="1419.0944535,547.4409315 1419.0944535,558.0708525" /><polyline points="1447.4409095,558.0708525 1447.4409095,562.85431695" /><polyline points="1447.4409095,562.85431695 1431.496028,562.85431695" /><polyline points="1431.496028,562.85431695 1431.496028,558.0708525" /><polyline points="1431.496028,558.0708525 1419.0944535,558.0708525" /><polyline points="1447.4409095,558.0708525 1470.472405,558.0708525" /><polyline points="1470.472405,558.0708525 1470.472405,574.015734" /><polyline points="1470.472405,659.055102 1470.472405,729.921242" /><polyline points="1137.401547,729.921242 1470.472405,729.921242" /><circle cx="1303.936976" cy="712.204707" r="5.3149605" /><rect height="10.629921" width="95.669289" x="1192.3228055" y="706.8897465" /><rect height="10.629921" width="95.669289" x="1319.8818575" y="706.8897465" /><polyline points="1137.401547,375.590542 1137.401547,446.456682" /><polyline points="1137.401547,446.456682 1126.771626,446.456682" /><polyline points="1126.771626,446.456682 1126.771626,531.49605" /><polyline points="1137.401547,531.49605 1126.771626,531.49605" /><polyline points="1137.401547,659.055102 1126.771626,659.055102" /><polyline points="1126.771626,659.055102 1126.771626,574.015734" /><polyline points="1137.401547,574.015734 1126.771626,574.015734" /><polyline points="1137.401547,531.49605 1137.401547,547.4409315" /><polyline points="1137.401547,547.4409315 1160.4330425,547.4409315" /><polyline points="1160.4330425,547.4409315 1160.4330425,542.65746705" /><polyline points="1160.4330425,542.65746705 1176.377924,542.65746705" /><polyline points="1176.377924,542.65746705 1176.377924,547.4409315" /><polyline points="1176.377924,547.4409315 1188.7794985,547.4409315" /><polyline points="1188.7794985,547.4409315 1188.7794985,558.0708525" /><polyline points="1160.4330425,558.0708525 1160.4330425,562.85431695" /><polyline points="1160.4330425,562.85431695 1176.377924,562.85431695" /><polyline points="1176.377924,562.85431695 1176.377924,558.0708525" /><polyline points="1176.377924,558.0708525 1188.7794985,558.0708525" /><polyline points="1160.4330425,558.0708525 1137.401547,558.0708525" /><polyline points="1137.401547,558.0708525 1137.401547,574.015734" /><polyline points="1137.401547,659.055102 1137.401547,729.921242" /><polyline points="774.2125795,10.629921 822.047224,10.629921" /><polyline points="822.047224,10.629921 822.047224,0.0" /><polyline points="822.047224,0.0 907.086592,0.0" /><polyline points="907.086592,10.629921 907.086592,0.0" /><polyline points="949.606276,10.629921 949.606276,0.0" /><polyline points="949.606276,0.0 1034.645644,0.0" /><polyline points="1034.645644,10.629921 1034.645644,0.0" /><polyline points="907.086592,10.629921 923.0314735,10.629921" /><polyline points="923.0314735,10.629921 923.0314735,33.6614165" /><polyline points="923.0314735,33.6614165 918.24800905,33.6614165" /><polyline points="918.24800905,33.6614165 918.24800905,49.606298" /><polyline points="918.24800905,49.606298 923.0314735,49.606298" /><polyline points="923.0314735,49.606298 923.0314735,62.0078725" /><polyline points="933.6613945,62.0078725 923.0314735,62.0078725" /><polyline points="933.6613945,49.606298 933.6613945,62.0078725" /><polyline points="938.44485895,49.606298 933.6613945,49.606298" /><polyline points="938.44485895,33.6614165 938.44485895,49.606298" /><polyline points="933.6613945,33.6614165 938.44485895,33.6614165" /><polyline points="933.6613945,33.6614165 933.6613945,10.629921" /><polyline points="933.6613945,10.629921 949.606276,10.629921" /><polyline points="1034.645644,10.629921 1082.4802885,10.629921" /><polyline points="1082.4802885,10.629921 1082.4802885,70.86614" /><polyline points="1082.4802885,70.86614 1093.1102095,70.86614" /><polyline points="1093.1102095,70.86614 1093.1102095,155.905508" /><polyline points="1082.4802885,155.905508 1093.1102095,155.905508" /><polyline points="1082.4802885,283.46456 1093.1102095,283.46456" /><polyline points="1093.1102095,283.46456 1093.1102095,198.425192" /><polyline points="1082.4802885,198.425192 1093.1102095,198.425192" /><polyline points="1082.4802885,155.905508 1082.4802885,171.8503895" /><polyline points="1082.4802885,171.8503895 1059.448793,171.8503895" /><polyline points="1059.448793,171.8503895 1059.448793,167.06692505" /><polyline points="1059.448793,167.06692505 1043.5039115,167.06692505" /><polyline points="1043.5039115,167.06692505 1043.5039115,171.8503895" /><polyline points="1043.5039115,171.8503895 1031.102337,171.8503895" /><polyline points="1031.102337,171.8503895 1031.102337,182.4803105" /><polyline points="1059.448793,182.4803105 1059.448793,187.26377495" /><polyline points="1059.448793,187.26377495 1043.5039115,187.26377495" /><polyline points="1043.5039115,187.26377495 1043.5039115,182.4803105" /><polyline points="1043.5039115,182.4803105 1031.102337,182.4803105" /><polyline points="1059.448793,182.4803105 1082.4802885,182.4803105" /><polyline points="1082.4802885,182.4803105 1082.4802885,198.425192" /><polyline points="1082.4802885,283.46456 1082.4802885,343.700779" /><polyline points="774.2125795,343.700779 822.047224,343.700779" /><polyline points="822.047224,343.700779 822.047224,354.3307" /><polyline points="822.047224,354.3307 907.086592,354.3307" /><polyline points="907.086592,343.700779 907.086592,354.3307" /><polyline points="949.606276,343.700779 949.606276,354.3307" /><polyline points="949.606276,354.3307 1034.645644,354.3307" /><polyline points="1034.645644,343.700779 1034.645644,354.3307" /><polyline points="907.086592,343.700779 923.0314735,343.700779" /><polyline points="923.0314735,343.700779 923.0314735,320.6692835" /><polyline points="923.0314735,320.6692835 918.24800905,320.6692835" /><polyline points="918.24800905,320.6692835 918.24800905,304.724402" /><polyline points="918.24800905,304.724402 923.0314735,304.724402" /><polyline points="923.0314735,304.724402 923.0314735,292.3228275" /><polyline points="933.6613945,292.3228275 923.0314735,292.3228275" /><polyline points="933.6613945,304.724402 933.6613945,292.3228275" /><polyline points="938.44485895,304.724402 933.6613945,304.724402" /><polyline points="938.44485895,320.6692835 938.44485895,304.724402" /><polyline points="933.6613945,320.6692835 938.44485895,320.6692835" /><polyline points="933.6613945,320.6692835 933.6613945,343.700779" /><polyline points="933.6613945,343.700779 949.606276,343.700779" /><polyline points="1034.645644,343.700779 1082.4802885,343.700779" /><polyline points="774.2125795,10.629921 774.2125795,70.86614" /><polyline points="774.2125795,70.86614 763.5826585,70.86614" /><polyline points="763.5826585,70.86614 763.5826585,155.905508" /><polyline points="774.2125795,155.905508 763.5826585,155.905508" /><polyline points="774.2125795,283.46456 763.5826585,283.46456" /><polyline points="763.5826585,283.46456 763.5826585,198.425192" /><polyline points="774.2125795,198.425192 763.5826585,198.425192" /><polyline points="774.2125795,155.905508 774.2125795,171.8503895" /><polyline points="774.2125795,171.8503895 797.244075,171.8503895" /><polyline points="797.244075,171.8503895 797.244075,167.06692505" /><polyline points="797.244075,167.06692505 813.1889565,167.06692505" /><polyline points="813.1889565,167.06692505 813.1889565,171.8503895" /><polyline points="813.1889565,171.8503895 825.590531,171.8503895" /><polyline points="825.590531,171.8503895 825.590531,182.4803105" /><polyline points="797.244075,182.4803105 797.244075,187.26377495" /><polyline points="797.244075,187.26377495 813.1889565,187.26377495" /><polyline points="813.1889565,187.26377495 813.1889565,182.4803105" /><polyline points="813.1889565,182.4803105 825.590531,182.4803105" /><polyline points="797.244075,182.4803105 774.2125795,182.4803105" /><polyline points="774.2125795,182.4803105 774.2125795,198.425192" /><polyline points="774.2125795,283.46456 774.2125795,343.700779" /><polyline points="774.2125795,761.811005 822.047224,761.811005" /><polyline points="822.047224,761.811005 822.047224,751.181084" /><polyline points="822.047224,751.181084 907.086592,751.181084" /><polyline points="907.086592,761.811005 907.086592,751.181084" /><polyline points="949.606276,761.811005 949.606276,751.181084" /><polyline points="949.606276,751.181084 1034.645644,751.181084" /><polyline points="1034.645644,761.811005 1034.645644,751.181084" /><polyline points="907.086592,761.811005 923.0314735,761.811005" /><polyline points="923.0314735,761.811005 923.0314735,784.8425005" /><polyline points="923.0314735,784.8425005 918.24800905,784.8425005" /><polyline points="918.24800905,784.8425005 918.24800905,800.787382" /><polyline points="918.24800905,800.787382 923.0314735,800.787382" /><polyline points="923.0314735,800.787382 923.0314735,813.1889565" /><polyline points="933.6613945,813.1889565 923.0314735,813.1889565" /><polyline points="933.6613945,800.787382 933.6613945,813.1889565" /><polyline points="938.44485895,800.787382 933.6613945,800.787382" /><polyline points="938.44485895,784.8425005 938.44485895,800.787382" /><polyline points="933.6613945,784.8425005 938.44485895,784.8425005" /><polyline points="933.6613945,784.8425005 933.6613945,761.811005" /><polyline points="933.6613945,761.811005 949.606276,761.811005" /><polyline points="1034.645644,761.811005 1082.4802885,761.811005" /><polyline points="1082.4802885,761.811005 1082.4802885,822.047224" /><polyline points="1082.4802885,822.047224 1093.1102095,822.047224" /><polyline points="1093.1102095,822.047224 1093.1102095,907.086592" /><polyline points="1082.4802885,907.086592 1093.1102095,907.086592" /><polyline points="1082.4802885,1034.645644 1093.1102095,1034.645644" /><polyline points="1093.1102095,1034.645644 1093.1102095,949.606276" /><polyline points="1082.4802885,949.606276 1093.1102095,949.606276" /><polyline points="1082.4802885,907.086592 1082.4802885,923.0314735" /><polyline points="1082.4802885,923.0314735 1059.448793,923.0314735" /><polyline points="1059.448793,923.0314735 1059.448793,918.24800905" /><polyline points="1059.448793,918.24800905 1043.5039115,918.24800905" /><polyline points="1043.5039115,918.24800905 1043.5039115,923.0314735" /><polyline points="1043.5039115,923.0314735 1031.102337,923.0314735" /><polyline points="1031.102337,923.0314735 1031.102337,933.6613945" /><polyline points="1059.448793,933.6613945 1059.448793,938.44485895" /><polyline points="1059.448793,938.44485895 1043.5039115,938.44485895" /><polyline points="1043.5039115,938.44485895 1043.5039115,933.6613945" /><polyline points="1043.5039115,933.6613945 1031.102337,933.6613945" /><polyline points="1059.448793,933.6613945 1082.4802885,933.6613945" /><polyline points="1082.4802885,933.6613945 1082.4802885,949.606276" /><polyline points="1082.4802885,1034.645644 1082.4802885,1094.881863" /><polyline points="774.2125795,1094.881863 822.047224,1094.881863" /><polyline points="822.047224,1094.881863 822.047224,1105.511784" /><polyline points="822.047224,1105.511784 907.086592,1105.511784" /><polyline points="907.086592,1094.881863 907.086592,1105.511784" /><polyline points="949.606276,1094.881863 949.606276,1105.511784" /><polyline points="949.606276,1105.511784 1034.645644,1105.511784" /><polyline points="1034.645644,1094.881863 1034.645644,1105.511784" /><polyline points="907.086592,1094.881863 923.0314735,1094.881863" /><polyline points="923.0314735,1094.881863 923.0314735,1071.8503675" /><polyline points="923.0314735,1071.8503675 918.24800905,1071.8503675" /><polyline points="918.24800905,1071.8503675 918.24800905,1055.905486" /><polyline points="918.24800905,1055.905486 923.0314735,1055.905486" /><polyline points="923.0314735,1055.905486 923.0314735,1043.5039115" /><polyline points="933.6613945,1043.5039115 923.0314735,1043.5039115" /><polyline points="933.6613945,1055.905486 933.6613945,1043.5039115" /><polyline points="938.44485895,1055.905486 933.6613945,1055.905486" /><polyline points="938.44485895,1071.8503675 938.44485895,1055.905486" /><polyline points="933.6613945,1071.8503675 938.44485895,1071.8503675" /><polyline points="933.6613945,1071.8503675 933.6613945,1094.881863" /><polyline points="933.6613945,1094.881863 949.606276,1094.881863" /><polyline points="1034.645644,1094.881863 1082.4802885,1094.881863" /><polyline points="774.2125795,761.811005 774.2125795,822.047224" /><polyline points="774.2125795,822.047224 763.5826585,822.047224" /><polyline points="763.5826585,822.047224 763.5826585,907.086592" /><polyline points="774.2125795,907.086592 763.5826585,907.086592" /><polyline points="774.2125795,1034.645644 763.5826585,1034.645644" /><polyline points="763.5826585,1034.645644 763.5826585,949.606276" /><polyline points="774.2125795,949.606276 763.5826585,949.606276" /><polyline points="774.2125795,907.086592 774.2125795,923.0314735" /><polyline points="774.2125795,923.0314735 797.244075,923.0314735" /><polyline points="797.244075,923.0314735 797.244075,918.24800905" /><polyline points="797.244075,918.24800905 813.1889565,918.24800905" /><polyline points="813.1889565,918.24800905 813.1889565,923.0314735" /><polyline points="813.1889565,923.0314735 825.590531,923.0314735" /><polyline points="825.590531,923.0314735 825.590531,933.6613945" /><polyline points="797.244075,933.6613945 797.244075,938.44485895" /><polyline points="797.244075,938.44485895 813.1889565,938.44485895" /><polyline points="813.1889565,938.44485895 813.1889565,933.6613945" /><polyline points="813.1889565,933.6613945 825.590531,933.6613945" /><polyline points="797.244075,933.6613945 774.2125795,933.6613945" /><polyline points="774.2125795,933.6613945 774.2125795,949.606276" /><polyline points="774.2125795,1034.645644 774.2125795,1094.881863" /></g><g id="constructionlines" opacity="0.50" stroke="red"><polyline points="0.0,375.590542 354.3307,375.590542" /><polyline points="354.3307,375.590542 354.3307,729.921242" /><polyline points="0.0,375.590542 0.0,729.921242" /><polyline points="0.0,729.921242 354.3307,729.921242" /><text x="177.16535" y="552.755892">top</text><polyline points="375.590542,375.590542 729.921242,375.590542" /><polyline points="729.921242,375.590542 729.921242,729.921242" /><polyline points="375.590542,375.590542 375.590542,729.921242" /><polyline points="375.590542,729.921242 729.921242,729.921242" /><text x="552.755892" y="552.755892">left</text><polyline points="751.181084,375.590542 1105.511784,375.590542" /><polyline points="1105.511784,375.590542 1105.511784,729.921242" /><polyline points="751.181084,375.590542 751.181084,729.921242" /><polyline points="751.181084,729.921242 1105.511784,729.921242" /><text x="928.346434" y="552.755892">bottom</text><polyline points="1126.771626,375.590542 1481.102326,375.590542" /><polyline points="1481.102326,375.590542 1481.102326,729.921242" /><polyline points="1126.771626,375.590542 1126.771626,729.921242" /><polyline points="1126.771626,729.921242 1481.102326,729.921242" /><text x="1303.936976" y="552.755892">right</text><polyline points="751.181084,0.0 1105.511784,0.0" /><polyline points="1105.511784,0.0 1105.511784,354.3307" /><polyline points="751.181084,0.0 751.181084,354.3307" /><polyline points="751.181084,354.3307 1105.511784,354.3307" /><text x="928.346434" y="177.16535">front</text><polyline points="751.181084,751.181084 1105.511784,751.181084" /><polyline points="1105.511784,751.181084 1105.511784,1105.511784" /><polyline points="751.181084,751.181084 751.181084,1105.511784" /><polyline points="751.181084,1105.511784 1105.511784,1105.511784" /><text x="928.346434" y="928.346434">back</text></g></svg>