<?xml version="1.0" encoding="UTF-8" standalone="no"?>
<!-- Created with Inkscape (http://www.inkscape.org/) -->

<svg
   xmlns:dc="http://purl.org/dc/elements/1.1/"
   xmlns:cc="http://creativecommons.org/ns#"
   xmlns:rdf="http://www.w3.org/1999/02/22-rdf-syntax-ns#"
   xmlns:svg="http://www.w3.org/2000/svg"
   xmlns="http://www.w3.org/2000/svg"
   xmlns:sodipodi="http://sodipodi.sourceforge.net/DTD/sodipodi-0.dtd"
   xmlns:inkscape="http://www.inkscape.org/namespaces/inkscape"
   sodipodi:docname="number10.svg"
   inkscape:version="0.47 r22583"
   version="1.1"
   id="svg2"
   height="1052.3622047"
   width="744.09448819">
  <sodipodi:namedview
     id="base"
     pagecolor="#ffffff"
     bordercolor="#666666"
     borderopacity="1.0"
     inkscape:pageopacity="0.0"
     inkscape:pageshadow="2"
     inkscape:zoom="0.7"
     inkscape:cx="123.30994"
     inkscape:cy="842.32126"
     inkscape:document-units="px"
     inkscape:current-layer="layer1"
     showgrid="false"
     inkscape:window-width="1440"
     inkscape:window-height="828"
     inkscape:window-x="0"
     inkscape:window-y="25"
     inkscape:window-maximized="1" />
  <defs
     id="defs4">
    <inkscape:perspective
       id="perspective10"
       inkscape:persp3d-origin="372.04724 : 350.78739 : 1"
       inkscape:vp_z="744.09448 : 526.18109 : 1"
       inkscape:vp_y="0 : 1000 : 0"
       inkscape:vp_x="0 : 526.18109 : 1"
       sodipodi:type="inkscape:persp3d" />
    <inkscape:perspective
       id="perspective4420"
       inkscape:persp3d-origin="0.5 : 0.33333333 : 1"
       inkscape:vp_z="1 : 0.5 : 1"
       inkscape:vp_y="0 : 1000 : 0"
       inkscape:vp_x="0 : 0.5 : 1"
       sodipodi:type="inkscape:persp3d" />
    <inkscape:perspective
       id="perspective4442"
       inkscape:persp3d-origin="0.5 : 0.33333333 : 1"
       inkscape:vp_z="1 : 0.5 : 1"
       inkscape:vp_y="0 : 1000 : 0"
       inkscape:vp_x="0 : 0.5 : 1"
       sodipodi:type="inkscape:persp3d" />
  </defs>
  <metadata
     id="metadata7">
    <rdf:RDF>
      <cc:Work
         rdf:about="">
        <dc:format>image/svg+xml</dc:format>
        <dc:type
           rdf:resource="http://purl.org/dc/dcmitype/StillImage" />
        <dc:title></dc:title>
      </cc:Work>
    </rdf:RDF>
  </metadata>
  <g
     style="display:inline"
     inkscape:label="back"
     id="layer3"
     inkscape:groupmode="layer">
    <path
       id="rect2877-4"
       d="m 231.30607,110.21478 230.0815,0 15.41886,0.77362 14.96372,2.27117 14.43414,3.69427 13.83009,5.04294 13.15156,6.31712 12.3986,7.51685 11.57119,8.64213 10.66928,9.69293 9.69293,10.66928 8.64213,11.57119 7.51684,12.3986 6.31713,13.15156 5.04294,13.83008 3.69427,14.43414 2.27117,14.96372 0.77362,15.41886 0,30.84894 -0.77362,15.41886 -2.27117,14.96371 -3.69427,14.43415 -5.04294,13.83009 -6.31713,13.15156 -7.51684,12.3986 -8.64213,11.57118 -9.69293,10.66929 -10.66928,9.69293 -11.57119,8.64213 -12.3986,7.51684 -13.15156,6.31713 -13.83009,5.04294 -14.43414,3.69427 -14.96372,2.27117 -15.41886,0.77362 -230.0815,0 -15.41886,-0.77362 -14.96372,-2.27117 -14.43414,-3.69427 -13.83008,-5.04294 -13.15158,-6.31713 -12.3986,-7.51684 -11.57117,-8.64213 -10.66929,-9.69293 -9.69293,-10.66929 -8.64212,-11.57118 -7.516854,-12.3986 -6.317123,-13.15156 -5.042934,-13.83009 -3.694283,-14.43415 -2.271174,-14.96371 -0.773605,-15.41886 0,-30.84894 0.773605,-15.41886 2.271174,-14.96372 3.694283,-14.43414 5.042934,-13.83008 6.317123,-13.15156 7.516854,-12.3986 8.64212,-11.57119 9.69293,-10.66928 10.66929,-9.69293 11.57117,-8.64213 12.3986,-7.51685 13.15158,-6.31712 13.83008,-5.04294 14.43414,-3.69427 14.96372,-2.27117 15.41886,-0.77362 0,0"
       style="fill:#000000;fill-opacity:1;stroke:#000000;stroke-width:0.63762528;stroke-miterlimit:4;stroke-opacity:1;display:inline" />
  </g>
  <g
     style="display:inline"
     id="layer1"
     inkscape:groupmode="layer"
     inkscape:label="Layer 1">
    <path
       id="path2862-4"
       d="m 298.21918,134.49195 -10.71512,0.18265 -10.17315,0.78221 -9.96379,1.73379 -10.08702,3.03732 -0.11247,0.0561 -0.39365,0.11247 0,0.0561 -8.08674,3.52661 -7.72124,4.49451 -7.16998,5.43263 -6.43294,6.34097 -3.50161,4.72084 -2.68424,5.23275 -3.4665,-4.5426 -4.50433,-3.51606 -5.32701,-2.27037 -5.93454,-0.8055 -4.47099,0.45175 -4.16168,1.29544 -3.76397,2.04939 -3.27784,2.71364 -2.70332,3.28817 -2.04039,3.77296 -1.28906,4.16807 -0.44934,4.47341 0.44934,4.471 1.28906,4.16167 2.04039,3.76397 2.70332,3.27784 3.27784,2.70331 3.76397,2.04041 4.16168,1.28905 4.47099,0.44934 4.89173,-0.5395 4.51086,-1.5412 4.01313,-2.42688 3.39855,-3.19662 0.73106,3.26163 2.33265,7.06501 3.74073,6.43139 6.24208,8.54772 0.956,1.23718 1.96822,4.04892 0.11247,0.28117 0.71754,2.72671 0.23846,3.00926 -1.08577,5.80486 -1.73314,4.96653 -2.86083,6.21176 -0.0562,0 -4.77998,8.9976 -3.23797,-5.79506 -4.75636,-4.55472 -5.94687,-2.97887 -3.31742,-0.79364 -3.4921,-0.27387 -4.47341,0.44934 -4.16805,1.28905 -3.77297,2.04041 -3.28817,2.70331 -2.71364,3.27784 -2.0494,3.76397 -1.29543,4.16167 -0.45175,4.471 0.45175,4.47341 1.29543,4.16807 2.0494,3.77296 2.71364,3.28817 3.28817,2.71365 3.77297,2.04938 4.16805,1.29544 4.47341,0.45175 5.4548,-0.73106 -4.58283,10.32513 -3.67889,10.4594 -2.65501,10.62529 -1.51121,10.82267 -4.17444,-2.54261 -4.5491,-1.91066 -4.86889,-1.20237 -5.13382,-0.41774 -6.51702,0.65688 -6.06981,1.88399 -5.49261,2.98112 -4.78543,3.94827 -3.94826,4.78543 -2.98112,5.4926 -1.884,6.06982 -0.65688,6.51702 0.65688,6.51701 1.884,6.06982 2.98112,5.4926 3.94826,4.78543 4.78543,3.94827 5.49261,2.98113 6.06981,1.88399 6.51702,0.65687 7.8766,-0.96853 7.1631,-2.7483 6.22275,-4.29211 5.05553,-5.59993 3.93309,7.90429 4.5584,7.61657 2.30563,3.2054 5.97086,6.19672 6.9995,5.41395 7.79676,4.40265 8.36261,3.16282 0,0.0561 0.84353,0.22494 8.13572,2.14679 8.39737,1.45225 0.22494,0 14.7898,0.78729 15.79795,-0.76481 15.33172,-2.39002 14.72538,-4.15858 7.09155,-2.78731 6.88745,-3.28321 6.41079,-4.27386 3.82398,-3.48657 10.22971,7.34463 11.37239,5.62127 5.97607,2.0697 6.09535,1.52526 6.15918,0.94291 6.16753,0.32273 10.42442,-0.43169 10.32676,-1.32869 10.15783,-2.27615 9.9176,-3.27402 10.00307,-4.62506 9.40035,-5.87084 8.59784,-7.01964 7.5955,-8.07139 3.03669,-4.3301 5.11739,-9.22254 6.06792,3.13662 3.39787,0.84434 3.58073,0.2929 4.4734,-0.45175 4.16805,-1.29544 3.77299,-2.04938 3.28815,-2.71364 2.71364,-3.28817 2.0494,-3.77297 1.29544,-4.16806 0.45175,-4.47341 -0.44372,-4.43312 -1.27293,-4.13443 -2.01478,-3.74846 -2.66926,-3.27518 -3.23639,-2.71458 -3.71615,-2.06665 -4.10857,-1.33147 -4.41361,-0.50894 2.64304,-15.63333 0.0562,-0.11247 0.28117,-2.86799 4.2103,3.71889 4.90098,2.8156 5.46269,1.78372 5.89557,0.62316 5.62235,-0.56652 5.23619,-1.62492 4.73801,-2.57124 4.12779,-3.40554 3.40554,-4.12779 2.57125,-4.73801 1.62491,-5.23619 0.56652,-5.62235 -0.56652,-5.62235 -1.62491,-5.23619 -2.57125,-4.73801 -3.40554,-4.12779 -4.12779,-3.40554 -4.73801,-2.57125 -5.23619,-1.62491 -5.62235,-0.56652 -5.85853,0.62231 -5.42732,1.77762 -4.87364,2.79893 -4.19758,3.68627 -1.59598,-12.96868 -2.40806,-12.89453 -3.20374,-12.79856 -3.98298,-12.68079 0.0561,0 -0.16861,-0.39365 -2.47434,-6.80443 4.4305,0.94883 4.62333,0.34457 6.33096,-0.60404 5.92822,-1.73312 5.42213,-2.74364 4.81269,-3.63562 1.8931,4.34235 3.14113,3.45709 4.11059,2.28476 4.80146,0.82539 2.90133,-0.29248 2.70231,-0.83884 4.57598,-3.08523 3.08522,-4.57598 0.83885,-2.7023 0.29247,-2.90133 -0.29247,-2.90133 -0.83885,-2.7023 -3.08522,-4.576 -4.57598,-3.08521 -2.70231,-0.83885 -2.90133,-0.29247 -3.65527,0.44988 0.84352,-7.47926 -0.68372,-6.77368 -1.96076,-6.31072 -3.10209,-5.71205 -4.10774,-4.97776 -4.97776,-4.10775 -5.71206,-3.10208 -6.31072,-1.96076 -6.77368,-0.68373 -5.31893,0.42015 -5.04954,1.21722 -4.71737,1.94936 -4.32236,2.61661 -3.86456,3.21895 -3.34396,3.75637 -2.76055,4.22893 -2.11433,4.63653 -7.31055,-9.84112 -2.58681,-2.92422 -4.8282,-4.37026 -5.41893,-3.9813 -5.97511,-3.4608 -6.4967,-2.80874 0,-0.0562 -0.50612,-0.16861 -5.66508,-2.09168 -8.67484,-1.7323 -6.38065,-0.50824 -5.03506,0.002 -9.47417,0.62772 -9.31388,1.81917 -8.98774,2.91541 -8.49579,3.91647 -0.16861,0.11247 -0.11247,0.0562 -9.29067,6.05646 -7.57983,7.04629 -4.17016,-4.68474 -4.52046,-4.11666 -4.73019,-3.49774 -4.79933,-2.82807 -2.92422,-1.34964 -13.21523,-5.39856 -6.6202,-1.97508 -6.8762,-0.66797 0,0 m -15.52086,24.12482 9.61618,0.33741 6.98486,2.84239 7.00211,3.09072 3.16189,1.95624 2.75141,2.3996 2.2027,2.97011 1.51574,3.66767 -4.26636,18.85341 -5.0794,18.69876 -4.48356,18.80357 -1.57807,9.52219 -0.90076,9.64568 1.4146,13.61721 2.56586,13.35038 3.4475,13.14552 4.05958,13.00255 8.87705,25.82385 4.27829,12.94516 3.81203,13.04985 -0.12687,5.09901 -1.09785,4.9096 -1.96788,4.61769 -2.73698,4.22324 -3.40518,3.72634 -3.97244,3.12692 -4.43879,2.42496 -4.80421,1.62056 -15.68304,3.97587 -8.04281,1.21439 -8.10614,0.64113 -8.11631,0.0247 -8.07332,-0.63498 -7.9772,-1.33778 -7.82795,-2.08345 -4.87102,-2.57889 -4.14544,-3.43784 -3.48243,-4.13654 -2.88202,-4.67505 -2.3442,-5.05334 -1.86895,-5.2714 -2.56253,-10.55617 -0.69083,-9.59668 0.80774,-9.33274 2.05037,-9.09409 3.03704,-8.88076 3.76777,-8.69271 4.24256,-8.52997 8.88571,-16.67292 8.28156,-15.61182 3.86216,-8.04217 3.34313,-8.20775 2.57416,-8.3794 1.55522,-8.55709 0.28632,-8.74086 -1.23253,-8.93068 -1.04217,-4.67539 -1.5371,-4.45595 -4.23488,-8.37862 -5.24224,-7.87614 -5.6014,-7.62385 -0.95726,-3.01549 0.11771,-2.77615 1.0008,-2.53605 1.69205,-2.29505 4.69043,-3.86386 5.15315,-2.89001 6.76206,-2.64107 7.05786,-1.80602 7.23351,-1.05863 7.28901,-0.39896 0,0 m 122.59231,1.68705 6.57926,0.7368 6.30012,1.83727 5.83539,3.01053 5.1851,4.25653 8.56575,12.04446 7.54343,12.69966 6.52454,13.26183 5.50918,13.73088 4.49728,14.10689 3.48888,14.38981 2.48397,14.57962 1.48253,14.6764 0.19762,11.21104 -0.41221,11.26531 -1.08277,11.2403 -1.81406,11.13612 -2.60607,10.95269 -3.45879,10.69001 -4.37225,10.34814 -5.34643,9.927 -6.06654,6.24637 -6.91687,5.15969 -7.60206,4.09957 -8.12219,3.06605 -8.47721,2.05906 -8.66712,1.07869 -8.69197,0.12488 -8.55171,-0.80238 -6.79663,-2.41345 -5.99627,-3.59738 -5.28391,-4.57062 -4.65954,-5.33313 -4.12311,-5.88492 -3.67469,-6.22601 -6.35602,-12.6324 -5.27885,-15.96867 -3.42973,-16.33446 -1.71688,-16.57889 -0.14037,-16.702 1.29989,-16.70375 2.6038,-16.58418 3.77141,-16.34328 4.80272,-15.98103 4.68791,-13.40195 5.47377,-13.27891 3.35099,-6.26753 3.93073,-5.84583 4.63823,-5.29381 5.47352,-4.61149 5.86453,-2.91795 6.3082,-2.12198 6.57638,-1.24691 6.66912,-0.29265 0,0 m -0.28118,23.00011 -4.17652,1.29971 -3.85071,3.08355 -3.08466,4.40661 -1.87839,5.26888 -2.54372,10.67415 -0.95446,11.02645 0.23458,5.50984 0.77092,5.43532 1.3536,5.30659 1.9826,5.12367 3.57234,3.06192 4.25268,1.50508 4.54848,0.0925 4.4597,-1.17607 3.98638,-2.30036 3.12847,-3.28049 1.886,-4.11641 0.25899,-4.80815 0.0866,-9.30966 -1.01295,-9.26099 -3.51621,-18.31951 -1.80465,-4.39252 -2.27515,-2.90027 -2.61118,-1.55952 -2.81273,-0.37023 0,0 m -241.81048,31.32278 -2.90133,0.29248 -2.70231,0.83885 -4.57598,3.0852 -3.08522,4.576 -0.83884,2.70231 -0.29248,2.90133 0.29248,2.90133 0.83884,2.7023 3.08522,4.57598 4.57598,3.08522 2.70231,0.83885 2.90133,0.29248 2.90133,-0.29248 2.7023,-0.83885 4.57599,-3.08522 3.08522,-4.57598 0.83884,-2.7023 0.29248,-2.90133 -0.29248,-2.90133 -0.83884,-2.70231 -3.08522,-4.576 -4.57599,-3.0852 -2.7023,-0.83885 -2.90133,-0.29248 0,0 m 370.81361,136.25742 -2.90133,0.29247 -2.70231,0.83885 -4.576,3.0852 -3.0852,4.576 -0.83885,2.70231 -0.29247,2.90133 0.29247,2.90133 0.83885,2.7023 3.0852,4.57598 4.576,3.08523 2.70231,0.83884 2.90133,0.29248 2.90133,-0.29248 2.7023,-0.83884 4.57598,-3.08523 3.08523,-4.57598 0.83884,-2.7023 0.29248,-2.90133 -0.29248,-2.90133 -0.83884,-2.70231 -3.08523,-4.576 -4.57598,-3.0852 -2.7023,-0.83885 -2.90133,-0.29247 0,0"
       style="font-size:144px;font-style:normal;font-variant:normal;font-weight:bold;font-stretch:normal;fill:#e37b7b;fill-opacity:1;stroke:none;display:inline;font-family:'BellBottom.Laser';-inkscape-font-specification:'BellBottom.Laser Bold'" />
  </g>
  <g
     style="display:none"
     inkscape:label="Layer"
     id="layer2"
     inkscape:groupmode="layer">
    <path
       id="rect2877"
       d="m 231.30607,110.21478 230.0815,0 15.41886,0.77362 14.96372,2.27117 14.43414,3.69427 13.83009,5.04294 13.15156,6.31712 12.3986,7.51685 11.57119,8.64213 10.66928,9.69293 9.69293,10.66928 8.64213,11.57119 7.51684,12.3986 6.31713,13.15156 5.04294,13.83009 3.69427,14.43414 2.27117,14.96372 0.77362,15.41886 0,30.84894 -0.77362,15.41886 -2.27117,14.96371 -3.69427,14.43415 -5.04294,13.83009 -6.31713,13.15156 -7.51684,12.3986 -8.64213,11.57118 -9.69293,10.66929 -10.66928,9.69293 -11.57119,8.64213 -12.3986,7.51684 -13.15156,6.31713 -13.83009,5.04294 -14.43414,3.69427 -14.96372,2.27117 -15.41886,0.77362 -230.0815,0 -15.41886,-0.77362 -14.96372,-2.27117 -14.43414,-3.69427 -13.83008,-5.04294 -13.15158,-6.31713 -12.3986,-7.51684 -11.57117,-8.64213 -10.66929,-9.69293 -9.69293,-10.66929 -8.64212,-11.57118 -7.516854,-12.3986 -6.317123,-13.15156 -5.042934,-13.83009 -3.694283,-14.43415 -2.271174,-14.96371 -0.773605,-15.41886 0,-30.84894 0.773605,-15.41886 2.271174,-14.96372 3.694283,-14.43414 5.042934,-13.83009 6.317123,-13.15156 7.516854,-12.3986 8.64212,-11.57119 9.69293,-10.66928 10.66929,-9.69293 11.57117,-8.64213 12.3986,-7.51685 13.15158,-6.31712 13.83008,-5.04294 14.43414,-3.69427 14.96372,-2.27117 15.41886,-0.77362 0,0"
       style="fill:#000000;fill-opacity:1;stroke:#000000;stroke-width:0.63762528;stroke-miterlimit:4;stroke-opacity:1;display:inline" />
    <path
       id="path2862"
       d="m 298.21918,134.49195 -10.71512,0.18265 -10.17315,0.78221 -9.96379,1.73379 -10.08702,3.03732 -0.11247,0.0561 -0.39365,0.11247 0,0.0561 -8.08674,3.52661 -7.72124,4.49451 -7.16998,5.43263 -6.43294,6.34097 -3.50161,4.72084 -2.68424,5.23275 -3.4665,-4.5426 -4.50433,-3.51606 -5.32701,-2.27037 -5.93454,-0.8055 -4.47099,0.45175 -4.16168,1.29544 -3.76397,2.04939 -3.27784,2.71364 -2.70332,3.28817 -2.04039,3.77296 -1.28906,4.16807 -0.44934,4.47341 0.44934,4.471 1.28906,4.16167 2.04039,3.76397 2.70332,3.27784 3.27784,2.70331 3.76397,2.04041 4.16168,1.28905 4.47099,0.44934 4.89173,-0.5395 4.51086,-1.5412 4.01313,-2.42688 3.39855,-3.19662 0.73106,3.26163 2.33265,7.06501 3.74073,6.43139 6.24208,8.54772 0.956,1.23718 1.96822,4.04892 0.11247,0.28117 0.71754,2.72671 0.23846,3.00926 -1.08577,5.80486 -1.73314,4.96653 -2.86083,6.21176 -0.0562,0 -4.77998,8.9976 -3.23797,-5.79506 -4.75636,-4.55472 -5.94687,-2.97887 -3.31742,-0.79364 -3.4921,-0.27387 -4.47341,0.44934 -4.16805,1.28905 -3.77297,2.04041 -3.28817,2.70331 -2.71364,3.27784 -2.0494,3.76397 -1.29543,4.16167 -0.45175,4.471 0.45175,4.47341 1.29543,4.16807 2.0494,3.77296 2.71364,3.28817 3.28817,2.71365 3.77297,2.04938 4.16805,1.29544 4.47341,0.45175 5.4548,-0.73106 -4.58283,10.32513 -3.67889,10.4594 -2.65501,10.62529 -1.51121,10.82267 -4.17444,-2.54261 -4.5491,-1.91066 -4.86889,-1.20237 -5.13382,-0.41774 -6.51702,0.65688 -6.06981,1.88399 -5.49261,2.98112 -4.78543,3.94827 -3.94826,4.78543 -2.98112,5.4926 -1.884,6.06982 -0.65688,6.51702 0.65688,6.51701 1.884,6.06982 2.98112,5.4926 3.94826,4.78543 4.78543,3.94827 5.49261,2.98113 6.06981,1.88399 6.51702,0.65687 7.8766,-0.96853 7.1631,-2.7483 6.22275,-4.29211 5.05553,-5.59993 3.93309,7.90429 4.5584,7.61657 2.30563,3.2054 5.97086,6.19672 6.9995,5.41395 7.79676,4.40265 8.36261,3.16282 0,0.0561 0.84353,0.22494 8.13572,2.14679 8.39737,1.45225 0.22494,0 14.7898,0.78729 15.79795,-0.76481 15.33172,-2.39002 14.72538,-4.15858 7.09155,-2.78731 6.88745,-3.28321 6.41079,-4.27386 3.82398,-3.48657 10.22971,7.34463 11.37239,5.62127 5.97607,2.0697 6.09535,1.52526 6.15918,0.94291 6.16753,0.32273 10.42442,-0.43169 10.32676,-1.32869 10.15783,-2.27615 9.9176,-3.27402 10.00307,-4.62506 9.40035,-5.87084 8.59784,-7.01964 7.5955,-8.07139 3.03669,-4.3301 5.11739,-9.22254 6.06792,3.13662 3.39787,0.84434 3.58073,0.2929 4.4734,-0.45175 4.16805,-1.29544 3.77299,-2.04938 3.28815,-2.71364 2.71364,-3.28817 2.0494,-3.77297 1.29544,-4.16806 0.45175,-4.47341 -0.44372,-4.43312 -1.27293,-4.13443 -2.01478,-3.74846 -2.66926,-3.27518 -3.23639,-2.71458 -3.71615,-2.06665 -4.10857,-1.33147 -4.41361,-0.50894 2.64304,-15.63333 0.0562,-0.11247 0.28117,-2.86799 4.2103,3.71889 4.90098,2.8156 5.46269,1.78372 5.89557,0.62316 5.62235,-0.56652 5.23619,-1.62492 4.73801,-2.57124 4.12779,-3.40554 3.40554,-4.12779 2.57125,-4.73801 1.62491,-5.23619 0.56652,-5.62235 -0.56652,-5.62235 -1.62491,-5.23619 -2.57125,-4.73801 -3.40554,-4.12779 -4.12779,-3.40554 -4.73801,-2.57125 -5.23619,-1.62491 -5.62235,-0.56652 -5.85853,0.62231 -5.42732,1.77762 -4.87364,2.79893 -4.19758,3.68627 -1.59598,-12.96868 -2.40806,-12.89453 -3.20374,-12.79856 -3.98298,-12.68079 0.0561,0 -0.16861,-0.39365 -2.47434,-6.80443 4.4305,0.94883 4.62333,0.34457 6.33096,-0.60404 5.92822,-1.73312 5.42213,-2.74364 4.81269,-3.63562 1.8931,4.34235 3.14113,3.45709 4.11059,2.28476 4.80146,0.82539 2.90133,-0.29248 2.70231,-0.83884 4.57598,-3.08523 3.08522,-4.57598 0.83885,-2.7023 0.29247,-2.90133 -0.29247,-2.90133 -0.83885,-2.7023 -3.08522,-4.576 -4.57598,-3.08521 -2.70231,-0.83885 -2.90133,-0.29247 -3.65527,0.44988 0.84352,-7.47926 -0.68372,-6.77368 -1.96076,-6.31072 -3.10209,-5.71205 -4.10774,-4.97776 -4.97776,-4.10775 -5.71206,-3.10208 -6.31072,-1.96076 -6.77368,-0.68373 -5.31893,0.42015 -5.04954,1.21722 -4.71737,1.94936 -4.32236,2.61661 -3.86456,3.21895 -3.34396,3.75637 -2.76055,4.22893 -2.11433,4.63653 -7.31055,-9.84112 -2.58681,-2.92422 -4.8282,-4.37026 -5.41893,-3.9813 -5.97511,-3.4608 -6.4967,-2.80874 0,-0.0562 -0.50612,-0.16861 -5.66508,-2.09168 -8.67484,-1.7323 -6.38065,-0.50824 -5.03506,0.002 -9.47417,0.62772 -9.31388,1.81917 -8.98774,2.91541 -8.49579,3.91647 -0.16861,0.11247 -0.11247,0.0562 -9.29067,6.05646 -7.57983,7.04629 -4.17016,-4.68474 -4.52046,-4.11666 -4.73019,-3.49774 -4.79933,-2.82807 -2.92422,-1.34964 -13.21523,-5.39856 -6.6202,-1.97508 -6.8762,-0.66797 0,0 m -15.52086,24.12482 9.61618,0.33741 6.98486,2.84239 7.00211,3.09072 3.16189,1.95624 2.75141,2.3996 2.2027,2.97011 1.51574,3.66767 -4.26636,18.85341 -5.0794,18.69876 -4.48356,18.80357 -1.57807,9.52219 -0.90076,9.64568 1.4146,13.61721 2.56586,13.35038 3.4475,13.14552 4.05958,13.00255 8.87705,25.82385 4.27829,12.94516 3.81203,13.04985 -0.12687,5.09901 -1.09785,4.9096 -1.96788,4.61769 -2.73698,4.22324 -3.40518,3.72634 -3.97244,3.12692 -4.43879,2.42496 -4.80421,1.62056 -15.68304,3.97587 -8.04281,1.21439 -8.10614,0.64113 -8.11631,0.0247 -8.07332,-0.63498 -7.9772,-1.33778 -7.82795,-2.08345 -4.87102,-2.57889 -4.14544,-3.43784 -3.48243,-4.13654 -2.88202,-4.67505 -2.3442,-5.05334 -1.86895,-5.2714 -2.56253,-10.55617 -0.69083,-9.59668 0.80774,-9.33274 2.05037,-9.09409 3.03704,-8.88076 3.76777,-8.69271 4.24256,-8.52997 8.88571,-16.67292 8.28156,-15.61182 3.86216,-8.04217 3.34313,-8.20775 2.57416,-8.3794 1.55522,-8.55709 0.28632,-8.74086 -1.23253,-8.93068 -1.04217,-4.67539 -1.5371,-4.45595 -4.23488,-8.37862 -5.24224,-7.87614 -5.6014,-7.62385 -0.95726,-3.01549 0.11771,-2.77615 1.0008,-2.53605 1.69205,-2.29505 4.69043,-3.86386 5.15315,-2.89001 6.76206,-2.64107 7.05786,-1.80602 7.23351,-1.05863 7.28901,-0.39896 0,0 m 122.59231,1.68705 6.57926,0.7368 6.30012,1.83727 5.83539,3.01053 5.1851,4.25653 8.56575,12.04446 7.54343,12.69966 6.52454,13.26183 5.50918,13.73088 4.49728,14.10689 3.48888,14.38981 2.48397,14.57962 1.48253,14.6764 0.19762,11.21104 -0.41221,11.26531 -1.08277,11.2403 -1.81406,11.13612 -2.60607,10.95269 -3.45879,10.69001 -4.37225,10.34814 -5.34643,9.927 -6.06654,6.24637 -6.91687,5.15969 -7.60206,4.09957 -8.12219,3.06605 -8.47721,2.05906 -8.66712,1.07869 -8.69197,0.12488 -8.55171,-0.80238 -6.79663,-2.41345 -5.99627,-3.59738 -5.28391,-4.57062 -4.65954,-5.33313 -4.12311,-5.88492 -3.67469,-6.22601 -6.35602,-12.6324 -5.27885,-15.96867 -3.42973,-16.33446 -1.71688,-16.57889 -0.14037,-16.702 1.29989,-16.70375 2.6038,-16.58418 3.77141,-16.34328 4.80272,-15.98103 4.68791,-13.40195 5.47377,-13.27891 3.35099,-6.26753 3.93073,-5.84583 4.63823,-5.29381 5.47352,-4.61149 5.86453,-2.91795 6.3082,-2.12198 6.57638,-1.24691 6.66912,-0.29265 0,0 m -0.28118,23.00011 -4.17652,1.29971 -3.85071,3.08355 -3.08466,4.40661 -1.87839,5.26888 -2.54372,10.67415 -0.95446,11.02645 0.23458,5.50984 0.77092,5.43532 1.3536,5.30659 1.9826,5.12367 3.57234,3.06192 4.25268,1.50508 4.54848,0.0925 4.4597,-1.17607 3.98638,-2.30036 3.12847,-3.28049 1.886,-4.11641 0.25899,-4.80815 0.0866,-9.30966 -1.01295,-9.26099 -3.51621,-18.31951 -1.80465,-4.39252 -2.27515,-2.90027 -2.61118,-1.55952 -2.81273,-0.37023 0,0 m -241.81048,31.32278 -2.90133,0.29248 -2.70231,0.83885 -4.57598,3.0852 -3.08522,4.576 -0.83884,2.70231 -0.29248,2.90133 0.29248,2.90133 0.83884,2.7023 3.08522,4.57598 4.57598,3.08522 2.70231,0.83885 2.90133,0.29248 2.90133,-0.29248 2.7023,-0.83885 4.57599,-3.08522 3.08522,-4.57598 0.83884,-2.7023 0.29248,-2.90133 -0.29248,-2.90133 -0.83884,-2.70231 -3.08522,-4.576 -4.57599,-3.0852 -2.7023,-0.83885 -2.90133,-0.29248 0,0 m 370.81361,136.25742 -2.90133,0.29247 -2.70231,0.83885 -4.576,3.0852 -3.0852,4.576 -0.83885,2.70231 -0.29247,2.90133 0.29247,2.90133 0.83885,2.7023 3.0852,4.57598 4.576,3.08523 2.70231,0.83884 2.90133,0.29248 2.90133,-0.29248 2.7023,-0.83884 4.57598,-3.08523 3.08523,-4.57598 0.83884,-2.7023 0.29248,-2.90133 -0.29248,-2.90133 -0.83884,-2.70231 -3.08523,-4.576 -4.57598,-3.0852 -2.7023,-0.83885 -2.90133,-0.29247 0,0"
       style="font-size:144px;font-style:normal;font-variant:normal;font-weight:bold;font-stretch:normal;fill:#e37b7b;fill-opacity:1;stroke:none;display:inline;font-family:'BellBottom.Laser';-inkscape-font-specification:'BellBottom.Laser Bold'" />
  </g>
</svg>
