<?xml version="1.0" encoding="utf-8" ?>
<svg baseProfile="full" height="455.000000mm" version="1.1" viewBox="0,0,96.4,455" width="96.400000mm" xmlns="http://www.w3.org/2000/svg" xmlns:ev="http://www.w3.org/2001/xml-events" xmlns:xlink="http://www.w3.org/1999/xlink"><defs /><g fill="none" id="lines" stroke="black" stroke-width="0.3" /><g id="constructionlines" opacity="0.50" stroke="red" /><g fill="none" id="cutlines" stroke="black" stroke-width="0.3"><circle cx="12.8" cy="12.8" r="10.8" /><circle cx="12.8" cy="36.4" r="10.8" /><circle cx="12.8" cy="60.0" r="10.8" /><circle cx="12.8" cy="83.6" r="10.8" /><circle cx="12.8" cy="107.2" r="10.8" /><circle cx="12.8" cy="130.8" r="10.8" /><circle cx="12.8" cy="154.4" r="10.8" /><circle cx="12.8" cy="178.0" r="10.8" /><circle cx="12.8" cy="201.6" r="10.8" /><circle cx="12.8" cy="225.2" r="10.8" /><circle cx="12.8" cy="248.8" r="10.8" /><circle cx="12.8" cy="272.4" r="10.8" /><circle cx="12.8" cy="296.0" r="10.8" /><circle cx="12.8" cy="319.6" r="10.8" /><circle cx="12.8" cy="343.2" r="10.8" /><circle cx="12.8" cy="366.8" r="10.8" /><circle cx="12.8" cy="390.4" r="10.8" /><circle cx="12.8" cy="414.0" r="10.8" /><circle cx="12.8" cy="437.6" r="10.8" /><circle cx="36.4" cy="12.8" r="10.8" /><circle cx="36.4" cy="36.4" r="10.8" /><circle cx="36.4" cy="60.0" r="10.8" /><circle cx="36.4" cy="83.6" r="10.8" /><circle cx="36.4" cy="107.2" r="10.8" /><circle cx="36.4" cy="130.8" r="10.8" /><circle cx="36.4" cy="154.4" r="10.8" /><circle cx="36.4" cy="178.0" r="10.8" /><circle cx="36.4" cy="201.6" r="10.8" /><circle cx="36.4" cy="225.2" r="10.8" /><circle cx="36.4" cy="248.8" r="10.8" /><circle cx="36.4" cy="272.4" r="10.8" /><circle cx="36.4" cy="296.0" r="10.8" /><circle cx="36.4" cy="319.6" r="10.8" /><circle cx="36.4" cy="343.2" r="10.8" /><circle cx="36.4" cy="366.8" r="10.8" /><circle cx="36.4" cy="390.4" r="10.8" /><circle cx="36.4" cy="414.0" r="10.8" /><circle cx="36.4" cy="437.6" r="10.8" /><circle cx="60.0" cy="12.8" r="10.8" /><circle cx="60.0" cy="36.4" r="10.8" /><circle cx="60.0" cy="60.0" r="10.8" /><circle cx="60.0" cy="83.6" r="10.8" /><circle cx="60.0" cy="107.2" r="10.8" /><circle cx="60.0" cy="130.8" r="10.8" /><circle cx="60.0" cy="154.4" r="10.8" /><circle cx="60.0" cy="178.0" r="10.8" /><circle cx="60.0" cy="201.6" r="10.8" /><circle cx="60.0" cy="225.2" r="10.8" /><circle cx="60.0" cy="248.8" r="10.8" /><circle cx="60.0" cy="272.4" r="10.8" /><circle cx="60.0" cy="296.0" r="10.8" /><circle cx="60.0" cy="319.6" r="10.8" /><circle cx="60.0" cy="343.2" r="10.8" /><circle cx="60.0" cy="366.8" r="10.8" /><circle cx="60.0" cy="390.4" r="10.8" /><circle cx="60.0" cy="414.0" r="10.8" /><circle cx="60.0" cy="437.6" r="10.8" /><circle cx="83.6" cy="12.8" r="10.8" /><circle cx="83.6" cy="36.4" r="10.8" /><circle cx="83.6" cy="60.0" r="10.8" /><circle cx="83.6" cy="83.6" r="10.8" /><circle cx="83.6" cy="107.2" r="10.8" /><circle cx="83.6" cy="130.8" r="10.8" /><circle cx="83.6" cy="154.4" r="10.8" /><circle cx="83.6" cy="178.0" r="10.8" /><circle cx="83.6" cy="201.6" r="10.8" /><circle cx="83.6" cy="225.2" r="10.8" /><circle cx="83.6" cy="248.8" r="10.8" /><circle cx="83.6" cy="272.4" r="10.8" /><circle cx="83.6" cy="296.0" r="10.8" /><circle cx="83.6" cy="319.6" r="10.8" /><circle cx="83.6" cy="343.2" r="10.8" /><circle cx="83.6" cy="366.8" r="10.8" /><circle cx="83.6" cy="390.4" r="10.8" /><circle cx="83.6" cy="414.0" r="10.8" /><circle cx="83.6" cy="437.6" r="10.8" /></g><g id="mazelines" stroke="black" stroke-width="0.3" /><g fill="none" id="engravlines" stroke="blue" stroke-width="0.3" /></svg>