  0
SECTION
  2
BLOCKS
  0
ENDSEC
  0
SECTION
  2
ENTITIES
  0
LINE
  8
0
 10
-13.996
 11
-13.978
 20
-18.5
 21
-18.001
  0
LINE
  8
0
 10
-13.978
 11
-13.924
 20
-18.001
 21
-17.504
  0
LINE
  8
0
 10
-13.924
 11
-13.836
 20
-17.504
 21
-17.013
  0
LINE
  8
0
 10
-13.836
 11
-13.712
 20
-17.013
 21
-16.529
  0
LINE
  8
0
 10
-13.712
 11
-13.554
 20
-16.529
 21
-16.055
  0
LINE
  8
0
 10
-13.554
 11
-13.363
 20
-16.055
 21
-15.594
  0
LINE
  8
0
 10
-13.363
 11
-13.14
 20
-15.594
 21
-15.147
  0
LINE
  8
0
 10
-13.14
 11
-12.885
 20
-15.147
 21
-14.718
  0
LINE
  8
0
 10
-12.885
 11
-12.6
 20
-14.718
 21
-14.308
  0
LINE
  8
0
 10
-12.6
 11
-12.287
 20
-14.308
 21
-13.919
  0
LINE
  8
0
 10
-12.287
 11
-11.947
 20
-13.919
 21
-13.553
  0
LINE
  8
0
 10
-11.947
 11
-11.581
 20
-13.553
 21
-13.213
  0
LINE
  8
0
 10
-11.581
 11
-11.192
 20
-13.213
 21
-12.9
  0
LINE
  8
0
 10
-11.192
 11
-10.782
 20
-12.9
 21
-12.615
  0
LINE
  8
0
 10
-10.782
 11
-10.353
 20
-12.615
 21
-12.36
  0
LINE
  8
0
 10
-10.353
 11
-9.906
 20
-12.36
 21
-12.137
  0
LINE
  8
0
 10
-9.906
 11
-9.445
 20
-12.137
 21
-11.946
  0
LINE
  8
0
 10
-9.445
 11
-8.971
 20
-11.946
 21
-11.788
  0
LINE
  8
0
 10
-8.971
 11
-8.487
 20
-11.788
 21
-11.664
  0
LINE
  8
0
 10
-8.487
 11
-7.996
 20
-11.664
 21
-11.576
  0
LINE
  8
0
 10
-7.996
 11
-7.499
 20
-11.576
 21
-11.522
  0
LINE
  8
0
 10
-7.499
 11
-7
 20
-11.522
 21
-11.504
  0
LINE
  8
0
 10
-7
 11
-6.501
 20
-11.504
 21
-11.522
  0
LINE
  8
0
 10
-6.501
 11
-6.004
 20
-11.522
 21
-11.576
  0
LINE
  8
0
 10
-6.004
 11
-5.513
 20
-11.576
 21
-11.664
  0
LINE
  8
0
 10
-5.513
 11
-5.029
 20
-11.664
 21
-11.788
  0
LINE
  8
0
 10
-5.029
 11
-4.994
 20
-11.788
 21
-11.8
  0
LINE
  8
0
 10
-4.994
 11
-4.994
 20
-11.8
 21
15
  0
LINE
  8
0
 10
-4.994
 11
-4.988
 20
15
 21
15
  0
LINE
  8
0
 10
-4.988
 11
-4.988
 20
15
 21
15.249
  0
LINE
  8
0
 10
-4.988
 11
-4.938
 20
15.249
 21
15.744
  0
LINE
  8
0
 10
-4.938
 11
-4.84
 20
15.744
 21
16.232
  0
LINE
  8
0
 10
-4.84
 11
-4.693
 20
16.232
 21
16.708
  0
LINE
  8
0
 10
-4.693
 11
-4.499
 20
16.708
 21
17.167
  0
LINE
  8
0
 10
-4.499
 11
-4.261
 20
17.167
 21
17.604
  0
LINE
  8
0
 10
-4.261
 11
-3.981
 20
17.604
 21
18.015
  0
LINE
  8
0
 10
-3.981
 11
-3.661
 20
18.015
 21
18.397
  0
LINE
  8
0
 10
-3.661
 11
-3.304
 20
18.397
 21
18.744
  0
LINE
  8
0
 10
-3.304
 11
-2.915
 20
18.744
 21
19.055
  0
LINE
  8
0
 10
-2.915
 11
-2.497
 20
19.055
 21
19.325
  0
LINE
  8
0
 10
-2.497
 11
-2.054
 20
19.325
 21
19.552
  0
LINE
  8
0
 10
-2.054
 11
-1.591
 20
19.552
 21
19.734
  0
LINE
  8
0
 10
-1.591
 11
-1.111
 20
19.734
 21
19.869
  0
LINE
  8
0
 10
-1.111
 11
-0.621
 20
19.869
 21
19.955
  0
LINE
  8
0
 10
-0.621
 11
-0.125
 20
19.955
 21
19.992
  0
LINE
  8
0
 10
-0.125
 11
0.373
 20
19.992
 21
19.98
  0
LINE
  8
0
 10
0.373
 11
0.867
 20
19.98
 21
19.918
  0
LINE
  8
0
 10
0.867
 11
1.353
 20
19.918
 21
19.807
  0
LINE
  8
0
 10
1.353
 11
1.825
 20
19.807
 21
19.649
  0
LINE
  8
0
 10
1.825
 11
2.278
 20
19.649
 21
19.444
  0
LINE
  8
0
 10
2.278
 11
2.709
 20
19.444
 21
19.195
  0
LINE
  8
0
 10
2.709
 11
3.114
 20
19.195
 21
18.904
  0
LINE
  8
0
 10
3.114
 11
3.487
 20
18.904
 21
18.575
  0
LINE
  8
0
 10
3.487
 11
3.826
 20
18.575
 21
18.21
  0
LINE
  8
0
 10
3.826
 11
4.126
 20
18.21
 21
17.813
  0
LINE
  8
0
 10
4.126
 11
4.386
 20
17.813
 21
17.388
  0
LINE
  8
0
 10
4.386
 11
4.602
 20
17.388
 21
16.94
  0
LINE
  8
0
 10
4.602
 11
4.772
 20
16.94
 21
16.472
  0
LINE
  8
0
 10
4.772
 11
4.895
 20
16.472
 21
15.99
  0
LINE
  8
0
 10
4.895
 11
4.969
 20
15.99
 21
15.497
  0
LINE
  8
0
 10
4.969
 11
4.994
 20
15.497
 21
15
  0
LINE
  8
0
 10
4.994
 11
5
 20
15
 21
15
  0
LINE
  8
0
 10
5
 11
5
 20
15
 21
-11.798
  0
LINE
  8
0
 10
5
 11
5.029
 20
-11.798
 21
-11.788
  0
LINE
  8
0
 10
5.029
 11
5.513
 20
-11.788
 21
-11.664
  0
LINE
  8
0
 10
5.513
 11
6.004
 20
-11.664
 21
-11.576
  0
LINE
  8
0
 10
6.004
 11
6.501
 20
-11.576
 21
-11.522
  0
LINE
  8
0
 10
6.501
 11
7
 20
-11.522
 21
-11.504
  0
LINE
  8
0
 10
7
 11
7.499
 20
-11.504
 21
-11.522
  0
LINE
  8
0
 10
7.499
 11
7.996
 20
-11.522
 21
-11.576
  0
LINE
  8
0
 10
7.996
 11
8.487
 20
-11.576
 21
-11.664
  0
LINE
  8
0
 10
8.487
 11
8.971
 20
-11.664
 21
-11.788
  0
LINE
  8
0
 10
8.971
 11
9.445
 20
-11.788
 21
-11.946
  0
LINE
  8
0
 10
9.445
 11
9.906
 20
-11.946
 21
-12.137
  0
LINE
  8
0
 10
9.906
 11
10.353
 20
-12.137
 21
-12.36
  0
LINE
  8
0
 10
10.353
 11
10.782
 20
-12.36
 21
-12.615
  0
LINE
  8
0
 10
10.782
 11
11.192
 20
-12.615
 21
-12.9
  0
LINE
  8
0
 10
11.192
 11
11.581
 20
-12.9
 21
-13.213
  0
LINE
  8
0
 10
11.581
 11
11.947
 20
-13.213
 21
-13.553
  0
LINE
  8
0
 10
11.947
 11
12.287
 20
-13.553
 21
-13.919
  0
LINE
  8
0
 10
12.287
 11
12.6
 20
-13.919
 21
-14.308
  0
LINE
  8
0
 10
12.6
 11
12.885
 20
-14.308
 21
-14.718
  0
LINE
  8
0
 10
12.885
 11
13.14
 20
-14.718
 21
-15.147
  0
LINE
  8
0
 10
13.14
 11
13.363
 20
-15.147
 21
-15.594
  0
LINE
  8
0
 10
13.363
 11
13.554
 20
-15.594
 21
-16.055
  0
LINE
  8
0
 10
13.554
 11
13.712
 20
-16.055
 21
-16.529
  0
LINE
  8
0
 10
13.712
 11
13.836
 20
-16.529
 21
-17.013
  0
LINE
  8
0
 10
13.836
 11
13.924
 20
-17.013
 21
-17.504
  0
LINE
  8
0
 10
13.924
 11
13.978
 20
-17.504
 21
-18.001
  0
LINE
  8
0
 10
13.978
 11
13.996
 20
-18.001
 21
-18.5
  0
LINE
  8
0
 10
13.996
 11
13.978
 20
-18.5
 21
-18.999
  0
LINE
  8
0
 10
13.978
 11
13.924
 20
-18.999
 21
-19.496
  0
LINE
  8
0
 10
13.924
 11
13.836
 20
-19.496
 21
-19.987
  0
LINE
  8
0
 10
13.836
 11
13.712
 20
-19.987
 21
-20.471
  0
LINE
  8
0
 10
13.712
 11
13.554
 20
-20.471
 21
-20.945
  0
LINE
  8
0
 10
13.554
 11
13.363
 20
-20.945
 21
-21.406
  0
LINE
  8
0
 10
13.363
 11
13.14
 20
-21.406
 21
-21.853
  0
LINE
  8
0
 10
13.14
 11
12.885
 20
-21.853
 21
-22.282
  0
LINE
  8
0
 10
12.885
 11
12.6
 20
-22.282
 21
-22.692
  0
LINE
  8
0
 10
12.6
 11
12.287
 20
-22.692
 21
-23.081
  0
LINE
  8
0
 10
12.287
 11
11.947
 20
-23.081
 21
-23.447
  0
LINE
  8
0
 10
11.947
 11
11.581
 20
-23.447
 21
-23.787
  0
LINE
  8
0
 10
11.581
 11
11.192
 20
-23.787
 21
-24.1
  0
LINE
  8
0
 10
11.192
 11
10.782
 20
-24.1
 21
-24.385
  0
LINE
  8
0
 10
10.782
 11
10.353
 20
-24.385
 21
-24.64
  0
LINE
  8
0
 10
10.353
 11
9.906
 20
-24.64
 21
-24.863
  0
LINE
  8
0
 10
9.906
 11
9.445
 20
-24.863
 21
-25.054
  0
LINE
  8
0
 10
9.445
 11
8.971
 20
-25.054
 21
-25.212
  0
LINE
  8
0
 10
8.971
 11
8.487
 20
-25.212
 21
-25.336
  0
LINE
  8
0
 10
8.487
 11
7.996
 20
-25.336
 21
-25.424
  0
LINE
  8
0
 10
7.996
 11
7.499
 20
-25.424
 21
-25.478
  0
LINE
  8
0
 10
7.499
 11
7
 20
-25.478
 21
-25.496
  0
LINE
  8
0
 10
7
 11
6.501
 20
-25.496
 21
-25.478
  0
LINE
  8
0
 10
6.501
 11
6.004
 20
-25.478
 21
-25.424
  0
LINE
  8
0
 10
6.004
 11
5.513
 20
-25.424
 21
-25.336
  0
LINE
  8
0
 10
5.513
 11
5.029
 20
-25.336
 21
-25.212
  0
LINE
  8
0
 10
5.029
 11
4.555
 20
-25.212
 21
-25.054
  0
LINE
  8
0
 10
4.555
 11
4.094
 20
-25.054
 21
-24.863
  0
LINE
  8
0
 10
4.094
 11
3.647
 20
-24.863
 21
-24.64
  0
LINE
  8
0
 10
3.647
 11
3.218
 20
-24.64
 21
-24.385
  0
LINE
  8
0
 10
3.218
 11
2.808
 20
-24.385
 21
-24.1
  0
LINE
  8
0
 10
2.808
 11
2.419
 20
-24.1
 21
-23.787
  0
LINE
  8
0
 10
2.419
 11
2.053
 20
-23.787
 21
-23.447
  0
LINE
  8
0
 10
2.053
 11
1.713
 20
-23.447
 21
-23.081
  0
LINE
  8
0
 10
1.713
 11
1.4
 20
-23.081
 21
-22.692
  0
LINE
  8
0
 10
1.4
 11
1.115
 20
-22.692
 21
-22.282
  0
LINE
  8
0
 10
1.115
 11
0.86
 20
-22.282
 21
-21.853
  0
LINE
  8
0
 10
0.86
 11
0.637
 20
-21.853
 21
-21.406
  0
LINE
  8
0
 10
0.637
 11
0.446
 20
-21.406
 21
-20.945
  0
LINE
  8
0
 10
0.446
 11
0.288
 20
-20.945
 21
-20.471
  0
LINE
  8
0
 10
0.288
 11
0.164
 20
-20.471
 21
-19.987
  0
LINE
  8
0
 10
0.164
 11
0.164
 20
-19.987
 21
-19.985
  0
LINE
  8
0
 10
0.164
 11
-0.125
 20
-19.985
 21
-19.992
  0
LINE
  8
0
 10
-0.125
 11
-0.165
 20
-19.992
 21
-19.989
  0
LINE
  8
0
 10
-0.165
 11
-0.288
 20
-19.989
 21
-20.471
  0
LINE
  8
0
 10
-0.288
 11
-0.446
 20
-20.471
 21
-20.945
  0
LINE
  8
0
 10
-0.446
 11
-0.637
 20
-20.945
 21
-21.406
  0
LINE
  8
0
 10
-0.637
 11
-0.86
 20
-21.406
 21
-21.853
  0
LINE
  8
0
 10
-0.86
 11
-1.115
 20
-21.853
 21
-22.282
  0
LINE
  8
0
 10
-1.115
 11
-1.4
 20
-22.282
 21
-22.692
  0
LINE
  8
0
 10
-1.4
 11
-1.713
 20
-22.692
 21
-23.081
  0
LINE
  8
0
 10
-1.713
 11
-2.053
 20
-23.081
 21
-23.447
  0
LINE
  8
0
 10
-2.053
 11
-2.419
 20
-23.447
 21
-23.787
  0
LINE
  8
0
 10
-2.419
 11
-2.808
 20
-23.787
 21
-24.1
  0
LINE
  8
0
 10
-2.808
 11
-3.218
 20
-24.1
 21
-24.385
  0
LINE
  8
0
 10
-3.218
 11
-3.647
 20
-24.385
 21
-24.64
  0
LINE
  8
0
 10
-3.647
 11
-4.094
 20
-24.64
 21
-24.863
  0
LINE
  8
0
 10
-4.094
 11
-4.555
 20
-24.863
 21
-25.054
  0
LINE
  8
0
 10
-4.555
 11
-5.029
 20
-25.054
 21
-25.212
  0
LINE
  8
0
 10
-5.029
 11
-5.513
 20
-25.212
 21
-25.336
  0
LINE
  8
0
 10
-5.513
 11
-6.004
 20
-25.336
 21
-25.424
  0
LINE
  8
0
 10
-6.004
 11
-6.501
 20
-25.424
 21
-25.478
  0
LINE
  8
0
 10
-6.501
 11
-7
 20
-25.478
 21
-25.496
  0
LINE
  8
0
 10
-7
 11
-7.499
 20
-25.496
 21
-25.478
  0
LINE
  8
0
 10
-7.499
 11
-7.996
 20
-25.478
 21
-25.424
  0
LINE
  8
0
 10
-7.996
 11
-8.487
 20
-25.424
 21
-25.336
  0
LINE
  8
0
 10
-8.487
 11
-8.971
 20
-25.336
 21
-25.212
  0
LINE
  8
0
 10
-8.971
 11
-9.445
 20
-25.212
 21
-25.054
  0
LINE
  8
0
 10
-9.445
 11
-9.906
 20
-25.054
 21
-24.863
  0
LINE
  8
0
 10
-9.906
 11
-10.353
 20
-24.863
 21
-24.64
  0
LINE
  8
0
 10
-10.353
 11
-10.782
 20
-24.64
 21
-24.385
  0
LINE
  8
0
 10
-10.782
 11
-11.192
 20
-24.385
 21
-24.1
  0
LINE
  8
0
 10
-11.192
 11
-11.581
 20
-24.1
 21
-23.787
  0
LINE
  8
0
 10
-11.581
 11
-11.947
 20
-23.787
 21
-23.447
  0
LINE
  8
0
 10
-11.947
 11
-12.287
 20
-23.447
 21
-23.081
  0
LINE
  8
0
 10
-12.287
 11
-12.6
 20
-23.081
 21
-22.692
  0
LINE
  8
0
 10
-12.6
 11
-12.885
 20
-22.692
 21
-22.282
  0
LINE
  8
0
 10
-12.885
 11
-13.14
 20
-22.282
 21
-21.853
  0
LINE
  8
0
 10
-13.14
 11
-13.363
 20
-21.853
 21
-21.406
  0
LINE
  8
0
 10
-13.363
 11
-13.554
 20
-21.406
 21
-20.945
  0
LINE
  8
0
 10
-13.554
 11
-13.712
 20
-20.945
 21
-20.471
  0
LINE
  8
0
 10
-13.712
 11
-13.836
 20
-20.471
 21
-19.987
  0
LINE
  8
0
 10
-13.836
 11
-13.924
 20
-19.987
 21
-19.496
  0
LINE
  8
0
 10
-13.924
 11
-13.978
 20
-19.496
 21
-18.999
  0
LINE
  8
0
 10
-13.978
 11
-13.996
 20
-18.999
 21
-18.5
  0
LINE
  8
0
 10
-10
 11
-9.959
 20
-18.5
 21
-18.006
  0
LINE
  8
0
 10
-9.959
 11
-9.837
 20
-18.006
 21
-17.526
  0
LINE
  8
0
 10
-9.837
 11
-9.638
 20
-17.526
 21
-17.072
  0
LINE
  8
0
 10
-9.638
 11
-9.367
 20
-17.072
 21
-16.657
  0
LINE
  8
0
 10
-9.367
 11
-9.032
 20
-16.657
 21
-16.293
  0
LINE
  8
0
 10
-9.032
 11
-8.641
 20
-16.293
 21
-15.989
  0
LINE
  8
0
 10
-8.641
 11
-8.205
 20
-15.989
 21
-15.753
  0
LINE
  8
0
 10
-8.205
 11
-7.736
 20
-15.753
 21
-15.592
  0
LINE
  8
0
 10
-7.736
 11
-7.248
 20
-15.592
 21
-15.51
  0
LINE
  8
0
 10
-7.248
 11
-6.752
 20
-15.51
 21
-15.51
  0
LINE
  8
0
 10
-6.752
 11
-6.264
 20
-15.51
 21
-15.592
  0
LINE
  8
0
 10
-6.264
 11
-5.795
 20
-15.592
 21
-15.753
  0
LINE
  8
0
 10
-5.795
 11
-5.359
 20
-15.753
 21
-15.989
  0
LINE
  8
0
 10
-5.359
 11
-4.968
 20
-15.989
 21
-16.293
  0
LINE
  8
0
 10
-4.968
 11
-4.747
 20
-16.293
 21
-16.533
  0
LINE
  8
0
 10
-4.747
 11
-4.693
 20
-16.533
 21
-16.708
  0
LINE
  8
0
 10
-4.693
 11
-4.499
 20
-16.708
 21
-17.167
  0
LINE
  8
0
 10
-4.499
 11
-4.261
 20
-17.167
 21
-17.604
  0
LINE
  8
0
 10
-4.261
 11
-4.073
 20
-17.604
 21
-17.881
  0
LINE
  8
0
 10
-4.073
 11
-4.041
 20
-17.881
 21
-18.006
  0
LINE
  8
0
 10
-4.041
 11
-4
 20
-18.006
 21
-18.5
  0
LINE
  8
0
 10
-4
 11
-4.041
 20
-18.5
 21
-18.994
  0
LINE
  8
0
 10
-4.041
 11
-4.163
 20
-18.994
 21
-19.474
  0
LINE
  8
0
 10
-4.163
 11
-4.362
 20
-19.474
 21
-19.928
  0
LINE
  8
0
 10
-4.362
 11
-4.633
 20
-19.928
 21
-20.343
  0
LINE
  8
0
 10
-4.633
 11
-4.968
 20
-20.343
 21
-20.707
  0
LINE
  8
0
 10
-4.968
 11
-5.359
 20
-20.707
 21
-21.011
  0
LINE
  8
0
 10
-5.359
 11
-5.795
 20
-21.011
 21
-21.247
  0
LINE
  8
0
 10
-5.795
 11
-6.264
 20
-21.247
 21
-21.408
  0
LINE
  8
0
 10
-6.264
 11
-6.752
 20
-21.408
 21
-21.49
  0
LINE
  8
0
 10
-6.752
 11
-7.248
 20
-21.49
 21
-21.49
  0
LINE
  8
0
 10
-7.248
 11
-7.736
 20
-21.49
 21
-21.408
  0
LINE
  8
0
 10
-7.736
 11
-8.205
 20
-21.408
 21
-21.247
  0
LINE
  8
0
 10
-8.205
 11
-8.641
 20
-21.247
 21
-21.011
  0
LINE
  8
0
 10
-8.641
 11
-9.032
 20
-21.011
 21
-20.707
  0
LINE
  8
0
 10
-9.032
 11
-9.367
 20
-20.707
 21
-20.343
  0
LINE
  8
0
 10
-9.367
 11
-9.638
 20
-20.343
 21
-19.928
  0
LINE
  8
0
 10
-9.638
 11
-9.837
 20
-19.928
 21
-19.474
  0
LINE
  8
0
 10
-9.837
 11
-9.959
 20
-19.474
 21
-18.994
  0
LINE
  8
0
 10
-9.959
 11
-10
 20
-18.994
 21
-18.5
  0
ENDSEC
  0
SECTION
  2
OBJECTS
  0
DICTIONARY
  0
ENDSEC
  0
EOF
