  0
SECTION
  2
BLOCKS
  0
ENDSEC
  0
SECTION
  2
ENTITIES
  0
LINE
  8
0
 10
7
 11
7.201
 20
31.5
 21
32.25
  0
LINE
  8
0
 10
7.201
 11
7.75
 20
32.25
 21
32.799
  0
LINE
  8
0
 10
7.75
 11
8.5
 20
32.799
 21
33
  0
LINE
  8
0
 10
8.5
 11
9.25
 20
33
 21
32.799
  0
LINE
  8
0
 10
9.25
 11
9.799
 20
32.799
 21
32.25
  0
LINE
  8
0
 10
9.799
 11
10
 20
32.25
 21
31.5
  0
LINE
  8
0
 10
10
 11
9.799
 20
31.5
 21
30.75
  0
LINE
  8
0
 10
9.799
 11
9.25
 20
30.75
 21
30.201
  0
LINE
  8
0
 10
9.25
 11
8.5
 20
30.201
 21
30
  0
LINE
  8
0
 10
8.5
 11
7.75
 20
30
 21
30.201
  0
LINE
  8
0
 10
7.75
 11
7.201
 20
30.201
 21
30.75
  0
LINE
  8
0
 10
7.201
 11
7
 20
30.75
 21
31.5
  0
LINE
  8
0
 10
7
 11
7.201
 20
89.5
 21
90.25
  0
LINE
  8
0
 10
7.201
 11
7.75
 20
90.25
 21
90.799
  0
LINE
  8
0
 10
7.75
 11
8.5
 20
90.799
 21
91
  0
LINE
  8
0
 10
8.5
 11
9.25
 20
91
 21
90.799
  0
LINE
  8
0
 10
9.25
 11
9.799
 20
90.799
 21
90.25
  0
LINE
  8
0
 10
9.799
 11
10
 20
90.25
 21
89.5
  0
LINE
  8
0
 10
10
 11
9.799
 20
89.5
 21
88.75
  0
LINE
  8
0
 10
9.799
 11
9.25
 20
88.75
 21
88.201
  0
LINE
  8
0
 10
9.25
 11
8.5
 20
88.201
 21
88
  0
LINE
  8
0
 10
8.5
 11
7.75
 20
88
 21
88.201
  0
LINE
  8
0
 10
7.75
 11
7.201
 20
88.201
 21
88.75
  0
LINE
  8
0
 10
7.201
 11
7
 20
88.75
 21
89.5
  0
LINE
  8
0
 10
56
 11
56.201
 20
31.5
 21
32.25
  0
LINE
  8
0
 10
56.201
 11
56.75
 20
32.25
 21
32.799
  0
LINE
  8
0
 10
56.75
 11
57.5
 20
32.799
 21
33
  0
LINE
  8
0
 10
57.5
 11
58.25
 20
33
 21
32.799
  0
LINE
  8
0
 10
58.25
 11
58.799
 20
32.799
 21
32.25
  0
LINE
  8
0
 10
58.799
 11
59
 20
32.25
 21
31.5
  0
LINE
  8
0
 10
59
 11
58.799
 20
31.5
 21
30.75
  0
LINE
  8
0
 10
58.799
 11
58.25
 20
30.75
 21
30.201
  0
LINE
  8
0
 10
58.25
 11
57.5
 20
30.201
 21
30
  0
LINE
  8
0
 10
57.5
 11
56.75
 20
30
 21
30.201
  0
LINE
  8
0
 10
56.75
 11
56.201
 20
30.201
 21
30.75
  0
LINE
  8
0
 10
56.201
 11
56
 20
30.75
 21
31.5
  0
LINE
  8
0
 10
56
 11
56.201
 20
89.5
 21
90.25
  0
LINE
  8
0
 10
56.201
 11
56.75
 20
90.25
 21
90.799
  0
LINE
  8
0
 10
56.75
 11
57.5
 20
90.799
 21
91
  0
LINE
  8
0
 10
57.5
 11
58.25
 20
91
 21
90.799
  0
LINE
  8
0
 10
58.25
 11
58.799
 20
90.799
 21
90.25
  0
LINE
  8
0
 10
58.799
 11
59
 20
90.25
 21
89.5
  0
LINE
  8
0
 10
59
 11
58.799
 20
89.5
 21
88.75
  0
LINE
  8
0
 10
58.799
 11
58.25
 20
88.75
 21
88.201
  0
LINE
  8
0
 10
58.25
 11
57.5
 20
88.201
 21
88
  0
LINE
  8
0
 10
57.5
 11
56.75
 20
88
 21
88.201
  0
LINE
  8
0
 10
56.75
 11
56.201
 20
88.201
 21
88.75
  0
LINE
  8
0
 10
56.201
 11
56
 20
88.75
 21
89.5
  0
ENDSEC
  0
SECTION
  2
OBJECTS
  0
DICTIONARY
  0
ENDSEC
  0
EOF
