  0
SECTION
  2
BLOCKS
  0
ENDSEC
  0
SECTION
  2
ENTITIES
  0
LINE
  8
0
 10
-108
 11
-108
 20
-56.5
 21
56.5
  0
LINE
  8
0
 10
-108
 11
108
 20
56.5
 21
56.5
  0
LINE
  8
0
 10
108
 11
108
 20
56.5
 21
-56.5
  0
LINE
  8
0
 10
108
 11
-108
 20
-56.5
 21
-56.5
  0
LINE
  8
0
 10
-102.464
 11
-102.464
 20
-50.182
 21
-48.418
  0
LINE
  8
0
 10
-102.464
 11
-100.786
 20
-48.418
 21
-47.873
  0
LINE
  8
0
 10
-100.786
 11
-99.75
 20
-47.873
 21
-49.3
  0
LINE
  8
0
 10
-99.75
 11
-100.786
 20
-49.3
 21
-50.727
  0
LINE
  8
0
 10
-100.786
 11
-102.464
 20
-50.727
 21
-50.182
  0
LINE
  8
0
 10
-102.464
 11
-102.464
 20
48.418
 21
50.182
  0
LINE
  8
0
 10
-102.464
 11
-100.786
 20
50.182
 21
50.727
  0
LINE
  8
0
 10
-100.786
 11
-99.75
 20
50.727
 21
49.3
  0
LINE
  8
0
 10
-99.75
 11
-100.786
 20
49.3
 21
47.873
  0
LINE
  8
0
 10
-100.786
 11
-102.464
 20
47.873
 21
48.418
  0
LINE
  8
0
 10
-78.75
 11
-78.018
 20
-28.5
 21
-26.732
  0
LINE
  8
0
 10
-78.018
 11
-76.25
 20
-26.732
 21
-26
  0
LINE
  8
0
 10
-76.25
 11
-74.482
 20
-26
 21
-26.732
  0
LINE
  8
0
 10
-74.482
 11
-73.75
 20
-26.732
 21
-28.5
  0
LINE
  8
0
 10
-73.75
 11
-74.482
 20
-28.5
 21
-30.268
  0
LINE
  8
0
 10
-74.482
 11
-76.25
 20
-30.268
 21
-31
  0
LINE
  8
0
 10
-76.25
 11
-78.018
 20
-31
 21
-30.268
  0
LINE
  8
0
 10
-78.018
 11
-78.75
 20
-30.268
 21
-28.5
  0
LINE
  8
0
 10
-78.75
 11
-78.018
 20
28.5
 21
30.268
  0
LINE
  8
0
 10
-78.018
 11
-76.25
 20
30.268
 21
31
  0
LINE
  8
0
 10
-76.25
 11
-74.482
 20
31
 21
30.268
  0
LINE
  8
0
 10
-74.482
 11
-73.75
 20
30.268
 21
28.5
  0
LINE
  8
0
 10
-73.75
 11
-74.482
 20
28.5
 21
26.732
  0
LINE
  8
0
 10
-74.482
 11
-76.25
 20
26.732
 21
26
  0
LINE
  8
0
 10
-76.25
 11
-78.018
 20
26
 21
26.732
  0
LINE
  8
0
 10
-78.018
 11
-78.75
 20
26.732
 21
28.5
  0
LINE
  8
0
 10
-36.214
 11
-36.214
 20
-29.882
 21
-28.118
  0
LINE
  8
0
 10
-36.214
 11
-34.536
 20
-28.118
 21
-27.573
  0
LINE
  8
0
 10
-34.536
 11
-33.5
 20
-27.573
 21
-29
  0
LINE
  8
0
 10
-33.5
 11
-34.536
 20
-29
 21
-30.427
  0
LINE
  8
0
 10
-34.536
 11
-36.214
 20
-30.427
 21
-29.882
  0
LINE
  8
0
 10
-36.214
 11
-36.214
 20
28.118
 21
29.882
  0
LINE
  8
0
 10
-36.214
 11
-34.536
 20
29.882
 21
30.427
  0
LINE
  8
0
 10
-34.536
 11
-33.5
 20
30.427
 21
29
  0
LINE
  8
0
 10
-33.5
 11
-34.536
 20
29
 21
27.573
  0
LINE
  8
0
 10
-34.536
 11
-36.214
 20
27.573
 21
28.118
  0
LINE
  8
0
 10
-18.714
 11
-18.714
 20
-29.882
 21
-28.118
  0
LINE
  8
0
 10
-18.714
 11
-17.036
 20
-28.118
 21
-27.573
  0
LINE
  8
0
 10
-17.036
 11
-16
 20
-27.573
 21
-29
  0
LINE
  8
0
 10
-16
 11
-17.036
 20
-29
 21
-30.427
  0
LINE
  8
0
 10
-17.036
 11
-18.714
 20
-30.427
 21
-29.882
  0
LINE
  8
0
 10
-18.714
 11
-18.714
 20
28.118
 21
29.882
  0
LINE
  8
0
 10
-18.714
 11
-17.036
 20
29.882
 21
30.427
  0
LINE
  8
0
 10
-17.036
 11
-16
 20
30.427
 21
29
  0
LINE
  8
0
 10
-16
 11
-17.036
 20
29
 21
27.573
  0
LINE
  8
0
 10
-17.036
 11
-18.714
 20
27.573
 21
28.118
  0
LINE
  8
0
 10
7.536
 11
7.536
 20
-25.882
 21
-24.118
  0
LINE
  8
0
 10
7.536
 11
9.214
 20
-24.118
 21
-23.573
  0
LINE
  8
0
 10
9.214
 11
10.25
 20
-23.573
 21
-25
  0
LINE
  8
0
 10
10.25
 11
9.214
 20
-25
 21
-26.427
  0
LINE
  8
0
 10
9.214
 11
7.536
 20
-26.427
 21
-25.882
  0
LINE
  8
0
 10
22.736
 11
22.736
 20
24.918
 21
26.682
  0
LINE
  8
0
 10
22.736
 11
24.414
 20
26.682
 21
27.227
  0
LINE
  8
0
 10
24.414
 11
25.45
 20
27.227
 21
25.8
  0
LINE
  8
0
 10
25.45
 11
24.414
 20
25.8
 21
24.373
  0
LINE
  8
0
 10
24.414
 11
22.736
 20
24.373
 21
24.918
  0
LINE
  8
0
 10
55.736
 11
55.736
 20
-27.182
 21
-25.418
  0
LINE
  8
0
 10
55.736
 11
57.414
 20
-25.418
 21
-24.873
  0
LINE
  8
0
 10
57.414
 11
58.45
 20
-24.873
 21
-26.3
  0
LINE
  8
0
 10
58.45
 11
57.414
 20
-26.3
 21
-27.727
  0
LINE
  8
0
 10
57.414
 11
55.736
 20
-27.727
 21
-27.182
  0
LINE
  8
0
 10
72.536
 11
72.536
 20
-15.882
 21
-14.118
  0
LINE
  8
0
 10
72.536
 11
74.214
 20
-14.118
 21
-13.573
  0
LINE
  8
0
 10
74.214
 11
75.25
 20
-13.573
 21
-15
  0
LINE
  8
0
 10
75.25
 11
74.214
 20
-15
 21
-16.427
  0
LINE
  8
0
 10
74.214
 11
72.536
 20
-16.427
 21
-15.882
  0
LINE
  8
0
 10
82.536
 11
82.536
 20
14.118
 21
15.882
  0
LINE
  8
0
 10
82.536
 11
84.214
 20
15.882
 21
16.427
  0
LINE
  8
0
 10
84.214
 11
85.25
 20
16.427
 21
15
  0
LINE
  8
0
 10
85.25
 11
84.214
 20
15
 21
13.573
  0
LINE
  8
0
 10
84.214
 11
82.536
 20
13.573
 21
14.118
  0
LINE
  8
0
 10
92.536
 11
92.536
 20
-15.882
 21
-14.118
  0
LINE
  8
0
 10
92.536
 11
94.214
 20
-14.118
 21
-13.573
  0
LINE
  8
0
 10
94.214
 11
95.25
 20
-13.573
 21
-15
  0
LINE
  8
0
 10
95.25
 11
94.214
 20
-15
 21
-16.427
  0
LINE
  8
0
 10
94.214
 11
92.536
 20
-16.427
 21
-15.882
  0
LINE
  8
0
 10
100.036
 11
100.036
 20
-50.182
 21
-48.418
  0
LINE
  8
0
 10
100.036
 11
101.714
 20
-48.418
 21
-47.873
  0
LINE
  8
0
 10
101.714
 11
102.75
 20
-47.873
 21
-49.3
  0
LINE
  8
0
 10
102.75
 11
101.714
 20
-49.3
 21
-50.727
  0
LINE
  8
0
 10
101.714
 11
100.036
 20
-50.727
 21
-50.182
  0
LINE
  8
0
 10
100.036
 11
100.036
 20
48.418
 21
50.182
  0
LINE
  8
0
 10
100.036
 11
101.714
 20
50.182
 21
50.727
  0
LINE
  8
0
 10
101.714
 11
102.75
 20
50.727
 21
49.3
  0
LINE
  8
0
 10
102.75
 11
101.714
 20
49.3
 21
47.873
  0
LINE
  8
0
 10
101.714
 11
100.036
 20
47.873
 21
48.418
  0
ENDSEC
  0
SECTION
  2
OBJECTS
  0
DICTIONARY
  0
ENDSEC
  0
EOF
