  0
SECTION
  2
BLOCKS
  0
ENDSEC
  0
SECTION
  2
ENTITIES
  0
LINE
  8
0
 10
-102.214
 11
-102.214
 20
-49.882
 21
-48.118
  0
LINE
  8
0
 10
-102.214
 11
-100.536
 20
-48.118
 21
-47.573
  0
LINE
  8
0
 10
-100.536
 11
-99.5
 20
-47.573
 21
-49
  0
LINE
  8
0
 10
-99.5
 11
-100.536
 20
-49
 21
-50.427
  0
LINE
  8
0
 10
-100.536
 11
-102.214
 20
-50.427
 21
-49.882
  0
LINE
  8
0
 10
-102.214
 11
-102.214
 20
48.118
 21
49.882
  0
LINE
  8
0
 10
-102.214
 11
-100.536
 20
49.882
 21
50.427
  0
LINE
  8
0
 10
-100.536
 11
-99.5
 20
50.427
 21
49
  0
LINE
  8
0
 10
-99.5
 11
-100.536
 20
49
 21
47.573
  0
LINE
  8
0
 10
-100.536
 11
-102.214
 20
47.573
 21
48.118
  0
LINE
  8
0
 10
-78.5
 11
-77.768
 20
-28.5
 21
-26.732
  0
LINE
  8
0
 10
-77.768
 11
-76
 20
-26.732
 21
-26
  0
LINE
  8
0
 10
-76
 11
-74.232
 20
-26
 21
-26.732
  0
LINE
  8
0
 10
-74.232
 11
-73.5
 20
-26.732
 21
-28.5
  0
LINE
  8
0
 10
-73.5
 11
-74.232
 20
-28.5
 21
-30.268
  0
LINE
  8
0
 10
-74.232
 11
-76
 20
-30.268
 21
-31
  0
LINE
  8
0
 10
-76
 11
-77.768
 20
-31
 21
-30.268
  0
LINE
  8
0
 10
-77.768
 11
-78.5
 20
-30.268
 21
-28.5
  0
LINE
  8
0
 10
-78.5
 11
-77.768
 20
28.5
 21
30.268
  0
LINE
  8
0
 10
-77.768
 11
-76
 20
30.268
 21
31
  0
LINE
  8
0
 10
-76
 11
-74.232
 20
31
 21
30.268
  0
LINE
  8
0
 10
-74.232
 11
-73.5
 20
30.268
 21
28.5
  0
LINE
  8
0
 10
-73.5
 11
-74.232
 20
28.5
 21
26.732
  0
LINE
  8
0
 10
-74.232
 11
-76
 20
26.732
 21
26
  0
LINE
  8
0
 10
-76
 11
-77.768
 20
26
 21
26.732
  0
LINE
  8
0
 10
-77.768
 11
-78.5
 20
26.732
 21
28.5
  0
LINE
  8
0
 10
-35.964
 11
-35.964
 20
-29.882
 21
-28.118
  0
LINE
  8
0
 10
-35.964
 11
-34.286
 20
-28.118
 21
-27.573
  0
LINE
  8
0
 10
-34.286
 11
-33.25
 20
-27.573
 21
-29
  0
LINE
  8
0
 10
-33.25
 11
-34.286
 20
-29
 21
-30.427
  0
LINE
  8
0
 10
-34.286
 11
-35.964
 20
-30.427
 21
-29.882
  0
LINE
  8
0
 10
-35.964
 11
-35.964
 20
28.118
 21
29.882
  0
LINE
  8
0
 10
-35.964
 11
-34.286
 20
29.882
 21
30.427
  0
LINE
  8
0
 10
-34.286
 11
-33.25
 20
30.427
 21
29
  0
LINE
  8
0
 10
-33.25
 11
-34.286
 20
29
 21
27.573
  0
LINE
  8
0
 10
-34.286
 11
-35.964
 20
27.573
 21
28.118
  0
LINE
  8
0
 10
-18.464
 11
-18.464
 20
-29.882
 21
-28.118
  0
LINE
  8
0
 10
-18.464
 11
-16.786
 20
-28.118
 21
-27.573
  0
LINE
  8
0
 10
-16.786
 11
-15.75
 20
-27.573
 21
-29
  0
LINE
  8
0
 10
-15.75
 11
-16.786
 20
-29
 21
-30.427
  0
LINE
  8
0
 10
-16.786
 11
-18.464
 20
-30.427
 21
-29.882
  0
LINE
  8
0
 10
-18.464
 11
-18.464
 20
28.118
 21
29.882
  0
LINE
  8
0
 10
-18.464
 11
-16.786
 20
29.882
 21
30.427
  0
LINE
  8
0
 10
-16.786
 11
-15.75
 20
30.427
 21
29
  0
LINE
  8
0
 10
-15.75
 11
-16.786
 20
29
 21
27.573
  0
LINE
  8
0
 10
-16.786
 11
-18.464
 20
27.573
 21
28.118
  0
LINE
  8
0
 10
7.786
 11
7.786
 20
-25.882
 21
-24.118
  0
LINE
  8
0
 10
7.786
 11
9.464
 20
-24.118
 21
-23.573
  0
LINE
  8
0
 10
9.464
 11
10.5
 20
-23.573
 21
-25
  0
LINE
  8
0
 10
10.5
 11
9.464
 20
-25
 21
-26.427
  0
LINE
  8
0
 10
9.464
 11
7.786
 20
-26.427
 21
-25.882
  0
LINE
  8
0
 10
22.986
 11
22.986
 20
24.918
 21
26.682
  0
LINE
  8
0
 10
22.986
 11
24.664
 20
26.682
 21
27.227
  0
LINE
  8
0
 10
24.664
 11
25.7
 20
27.227
 21
25.8
  0
LINE
  8
0
 10
25.7
 11
24.664
 20
25.8
 21
24.373
  0
LINE
  8
0
 10
24.664
 11
22.986
 20
24.373
 21
24.918
  0
LINE
  8
0
 10
-108
 11
-108
 20
-56.5
 21
56.5
  0
LINE
  8
0
 10
-108
 11
108
 20
56.5
 21
56.5
  0
LINE
  8
0
 10
108
 11
108
 20
56.5
 21
-56.5
  0
LINE
  8
0
 10
108
 11
-108
 20
-56.5
 21
-56.5
  0
LINE
  8
0
 10
55.986
 11
55.986
 20
-27.182
 21
-25.418
  0
LINE
  8
0
 10
55.986
 11
57.664
 20
-25.418
 21
-24.873
  0
LINE
  8
0
 10
57.664
 11
58.7
 20
-24.873
 21
-26.3
  0
LINE
  8
0
 10
58.7
 11
57.664
 20
-26.3
 21
-27.727
  0
LINE
  8
0
 10
57.664
 11
55.986
 20
-27.727
 21
-27.182
  0
LINE
  8
0
 10
72.786
 11
72.786
 20
-15.882
 21
-14.118
  0
LINE
  8
0
 10
72.786
 11
74.464
 20
-14.118
 21
-13.573
  0
LINE
  8
0
 10
74.464
 11
75.5
 20
-13.573
 21
-15
  0
LINE
  8
0
 10
75.5
 11
74.464
 20
-15
 21
-16.427
  0
LINE
  8
0
 10
74.464
 11
72.786
 20
-16.427
 21
-15.882
  0
LINE
  8
0
 10
82.786
 11
82.786
 20
14.118
 21
15.882
  0
LINE
  8
0
 10
82.786
 11
84.464
 20
15.882
 21
16.427
  0
LINE
  8
0
 10
84.464
 11
85.5
 20
16.427
 21
15
  0
LINE
  8
0
 10
85.5
 11
84.464
 20
15
 21
13.573
  0
LINE
  8
0
 10
84.464
 11
82.786
 20
13.573
 21
14.118
  0
LINE
  8
0
 10
92.786
 11
92.786
 20
-15.882
 21
-14.118
  0
LINE
  8
0
 10
92.786
 11
94.464
 20
-14.118
 21
-13.573
  0
LINE
  8
0
 10
94.464
 11
95.5
 20
-13.573
 21
-15
  0
LINE
  8
0
 10
95.5
 11
94.464
 20
-15
 21
-16.427
  0
LINE
  8
0
 10
94.464
 11
92.786
 20
-16.427
 21
-15.882
  0
LINE
  8
0
 10
99.786
 11
99.786
 20
-49.882
 21
-48.118
  0
LINE
  8
0
 10
99.786
 11
101.464
 20
-48.118
 21
-47.573
  0
LINE
  8
0
 10
101.464
 11
102.5
 20
-47.573
 21
-49
  0
LINE
  8
0
 10
102.5
 11
101.464
 20
-49
 21
-50.427
  0
LINE
  8
0
 10
101.464
 11
99.786
 20
-50.427
 21
-49.882
  0
LINE
  8
0
 10
99.786
 11
99.786
 20
48.118
 21
49.882
  0
LINE
  8
0
 10
99.786
 11
101.464
 20
49.882
 21
50.427
  0
LINE
  8
0
 10
101.464
 11
102.5
 20
50.427
 21
49
  0
LINE
  8
0
 10
102.5
 11
101.464
 20
49
 21
47.573
  0
LINE
  8
0
 10
101.464
 11
99.786
 20
47.573
 21
48.118
  0
ENDSEC
  0
SECTION
  2
OBJECTS
  0
DICTIONARY
  0
ENDSEC
  0
EOF
