  0
SECTION
  2
BLOCKS
  0
ENDSEC
  0
SECTION
  2
ENTITIES
  0
LINE
  8
0
 10
-82.5
 11
-82.5
 20
-32.5
 21
-4.227
  0
LINE
  8
0
 10
-82.5
 11
-81.913
 20
-4.227
 21
-4.619
  0
LINE
  8
0
 10
-81.913
 11
-80
 20
-4.619
 21
-5
  0
LINE
  8
0
 10
-80
 11
-78.087
 20
-5
 21
-4.619
  0
LINE
  8
0
 10
-78.087
 11
-76.464
 20
-4.619
 21
-3.536
  0
LINE
  8
0
 10
-76.464
 11
-75.381
 20
-3.536
 21
-1.913
  0
LINE
  8
0
 10
-75.381
 11
-75
 20
-1.913
 21
0
  0
LINE
  8
0
 10
-75
 11
-75.381
 20
0
 21
1.913
  0
LINE
  8
0
 10
-75.381
 11
-76.464
 20
1.913
 21
3.536
  0
LINE
  8
0
 10
-76.464
 11
-78.087
 20
3.536
 21
4.619
  0
LINE
  8
0
 10
-78.087
 11
-80
 20
4.619
 21
5
  0
LINE
  8
0
 10
-80
 11
-81.913
 20
5
 21
4.619
  0
LINE
  8
0
 10
-81.913
 11
-82.5
 20
4.619
 21
4.227
  0
LINE
  8
0
 10
-82.5
 11
-82.5
 20
4.227
 21
32.5
  0
LINE
  8
0
 10
-82.5
 11
-17.5
 20
32.5
 21
32.5
  0
LINE
  8
0
 10
-17.5
 11
-17.5
 20
32.5
 21
4.227
  0
LINE
  8
0
 10
-17.5
 11
-18.087
 20
4.227
 21
4.619
  0
LINE
  8
0
 10
-18.087
 11
-20
 20
4.619
 21
5
  0
LINE
  8
0
 10
-20
 11
-21.913
 20
5
 21
4.619
  0
LINE
  8
0
 10
-21.913
 11
-23.536
 20
4.619
 21
3.536
  0
LINE
  8
0
 10
-23.536
 11
-24.619
 20
3.536
 21
1.913
  0
LINE
  8
0
 10
-24.619
 11
-25
 20
1.913
 21
0
  0
LINE
  8
0
 10
-25
 11
-24.619
 20
0
 21
-1.913
  0
LINE
  8
0
 10
-24.619
 11
-23.536
 20
-1.913
 21
-3.536
  0
LINE
  8
0
 10
-23.536
 11
-21.913
 20
-3.536
 21
-4.619
  0
LINE
  8
0
 10
-21.913
 11
-20
 20
-4.619
 21
-5
  0
LINE
  8
0
 10
-20
 11
-18.087
 20
-5
 21
-4.619
  0
LINE
  8
0
 10
-18.087
 11
-17.5
 20
-4.619
 21
-4.227
  0
LINE
  8
0
 10
-17.5
 11
-17.5
 20
-4.227
 21
-32.5
  0
LINE
  8
0
 10
-17.5
 11
-82.5
 20
-32.5
 21
-32.5
  0
LINE
  8
0
 10
-81.75
 11
-80.875
 20
0
 21
1.516
  0
LINE
  8
0
 10
-80.875
 11
-79.125
 20
1.516
 21
1.516
  0
LINE
  8
0
 10
-79.125
 11
-78.25
 20
1.516
 21
0
  0
LINE
  8
0
 10
-78.25
 11
-79.125
 20
0
 21
-1.516
  0
LINE
  8
0
 10
-79.125
 11
-80.875
 20
-1.516
 21
-1.516
  0
LINE
  8
0
 10
-80.875
 11
-81.75
 20
-1.516
 21
0
  0
LINE
  8
0
 10
-21.75
 11
-20.875
 20
0
 21
1.516
  0
LINE
  8
0
 10
-20.875
 11
-19.125
 20
1.516
 21
1.516
  0
LINE
  8
0
 10
-19.125
 11
-18.25
 20
1.516
 21
0
  0
LINE
  8
0
 10
-18.25
 11
-19.125
 20
0
 21
-1.516
  0
LINE
  8
0
 10
-19.125
 11
-20.875
 20
-1.516
 21
-1.516
  0
LINE
  8
0
 10
-20.875
 11
-21.75
 20
-1.516
 21
0
  0
LINE
  8
0
 10
-1.75
 11
-0.875
 20
25
 21
26.516
  0
LINE
  8
0
 10
-0.875
 11
0.875
 20
26.516
 21
26.516
  0
LINE
  8
0
 10
0.875
 11
1.75
 20
26.516
 21
25
  0
LINE
  8
0
 10
1.75
 11
0.875
 20
25
 21
23.484
  0
LINE
  8
0
 10
0.875
 11
-0.875
 20
23.484
 21
23.484
  0
LINE
  8
0
 10
-0.875
 11
-1.75
 20
23.484
 21
25
  0
LINE
  8
0
 10
5.75
 11
6.625
 20
-30.5
 21
-28.984
  0
LINE
  8
0
 10
6.625
 11
8.375
 20
-28.984
 21
-28.984
  0
LINE
  8
0
 10
8.375
 11
9.25
 20
-28.984
 21
-30.5
  0
LINE
  8
0
 10
9.25
 11
8.375
 20
-30.5
 21
-32.016
  0
LINE
  8
0
 10
8.375
 11
6.625
 20
-32.016
 21
-32.016
  0
LINE
  8
0
 10
6.625
 11
5.75
 20
-32.016
 21
-30.5
  0
LINE
  8
0
 10
5.75
 11
6.625
 20
0.5
 21
2.016
  0
LINE
  8
0
 10
6.625
 11
8.375
 20
2.016
 21
2.016
  0
LINE
  8
0
 10
8.375
 11
9.25
 20
2.016
 21
0.5
  0
LINE
  8
0
 10
9.25
 11
8.375
 20
0.5
 21
-1.016
  0
LINE
  8
0
 10
8.375
 11
6.625
 20
-1.016
 21
-1.016
  0
LINE
  8
0
 10
6.625
 11
5.75
 20
-1.016
 21
0.5
  0
LINE
  8
0
 10
6.7
 11
6.7
 20
15.5
 21
34.5
  0
LINE
  8
0
 10
6.7
 11
33.3
 20
34.5
 21
34.5
  0
LINE
  8
0
 10
33.3
 11
33.3
 20
34.5
 21
15.5
  0
LINE
  8
0
 10
33.3
 11
6.7
 20
15.5
 21
15.5
  0
LINE
  8
0
 10
10
 11
10
 20
-28.5
 21
-1.5
  0
LINE
  8
0
 10
10
 11
80
 20
-1.5
 21
-1.5
  0
LINE
  8
0
 10
80
 11
80
 20
-1.5
 21
-28.5
  0
LINE
  8
0
 10
80
 11
10
 20
-28.5
 21
-28.5
  0
LINE
  8
0
 10
38.25
 11
39.125
 20
25
 21
26.516
  0
LINE
  8
0
 10
39.125
 11
40.875
 20
26.516
 21
26.516
  0
LINE
  8
0
 10
40.875
 11
41.75
 20
26.516
 21
25
  0
LINE
  8
0
 10
41.75
 11
40.875
 20
25
 21
23.484
  0
LINE
  8
0
 10
40.875
 11
39.125
 20
23.484
 21
23.484
  0
LINE
  8
0
 10
39.125
 11
38.25
 20
23.484
 21
25
  0
LINE
  8
0
 10
56.1
 11
56.404
 20
25
 21
27.89
  0
LINE
  8
0
 10
56.404
 11
57.302
 20
27.89
 21
30.654
  0
LINE
  8
0
 10
57.302
 11
58.755
 20
30.654
 21
33.17
  0
LINE
  8
0
 10
58.755
 11
60.699
 20
33.17
 21
35.33
  0
LINE
  8
0
 10
60.699
 11
63.05
 20
35.33
 21
37.038
  0
LINE
  8
0
 10
63.05
 11
65.705
 20
37.038
 21
38.22
  0
LINE
  8
0
 10
65.705
 11
68.547
 20
38.22
 21
38.824
  0
LINE
  8
0
 10
68.547
 11
71.453
 20
38.824
 21
38.824
  0
LINE
  8
0
 10
71.453
 11
74.295
 20
38.824
 21
38.22
  0
LINE
  8
0
 10
74.295
 11
76.95
 20
38.22
 21
37.038
  0
LINE
  8
0
 10
76.95
 11
79.301
 20
37.038
 21
35.33
  0
LINE
  8
0
 10
79.301
 11
81.245
 20
35.33
 21
33.17
  0
LINE
  8
0
 10
81.245
 11
82.698
 20
33.17
 21
30.654
  0
LINE
  8
0
 10
82.698
 11
83.596
 20
30.654
 21
27.89
  0
LINE
  8
0
 10
83.596
 11
83.9
 20
27.89
 21
25
  0
LINE
  8
0
 10
83.9
 11
83.596
 20
25
 21
22.11
  0
LINE
  8
0
 10
83.596
 11
82.698
 20
22.11
 21
19.346
  0
LINE
  8
0
 10
82.698
 11
81.245
 20
19.346
 21
16.83
  0
LINE
  8
0
 10
81.245
 11
79.301
 20
16.83
 21
14.67
  0
LINE
  8
0
 10
79.301
 11
76.95
 20
14.67
 21
12.962
  0
LINE
  8
0
 10
76.95
 11
74.295
 20
12.962
 21
11.78
  0
LINE
  8
0
 10
74.295
 11
71.453
 20
11.78
 21
11.176
  0
LINE
  8
0
 10
71.453
 11
68.547
 20
11.176
 21
11.176
  0
LINE
  8
0
 10
68.547
 11
65.705
 20
11.176
 21
11.78
  0
LINE
  8
0
 10
65.705
 11
63.05
 20
11.78
 21
12.962
  0
LINE
  8
0
 10
63.05
 11
60.699
 20
12.962
 21
14.67
  0
LINE
  8
0
 10
60.699
 11
58.755
 20
14.67
 21
16.83
  0
LINE
  8
0
 10
58.755
 11
57.302
 20
16.83
 21
19.346
  0
LINE
  8
0
 10
57.302
 11
56.404
 20
19.346
 21
22.11
  0
LINE
  8
0
 10
56.404
 11
56.1
 20
22.11
 21
25
  0
LINE
  8
0
 10
80.75
 11
81.625
 20
-30.5
 21
-28.984
  0
LINE
  8
0
 10
81.625
 11
83.375
 20
-28.984
 21
-28.984
  0
LINE
  8
0
 10
83.375
 11
84.25
 20
-28.984
 21
-30.5
  0
LINE
  8
0
 10
84.25
 11
83.375
 20
-30.5
 21
-32.016
  0
LINE
  8
0
 10
83.375
 11
81.625
 20
-32.016
 21
-32.016
  0
LINE
  8
0
 10
81.625
 11
80.75
 20
-32.016
 21
-30.5
  0
LINE
  8
0
 10
80.75
 11
81.625
 20
0.5
 21
2.016
  0
LINE
  8
0
 10
81.625
 11
83.375
 20
2.016
 21
2.016
  0
LINE
  8
0
 10
83.375
 11
84.25
 20
2.016
 21
0.5
  0
LINE
  8
0
 10
84.25
 11
83.375
 20
0.5
 21
-1.016
  0
LINE
  8
0
 10
83.375
 11
81.625
 20
-1.016
 21
-1.016
  0
LINE
  8
0
 10
81.625
 11
80.75
 20
-1.016
 21
0.5
  0
ENDSEC
  0
SECTION
  2
OBJECTS
  0
DICTIONARY
  0
ENDSEC
  0
EOF
