  0
SECTION
  2
BLOCKS
  0
ENDSEC
  0
SECTION
  2
ENTITIES
  0
LINE
  8
0
 10
-50
 11
-48.907
 20
0
 21
10.396
  0
LINE
  8
0
 10
-48.907
 11
-45.677
 20
10.396
 21
20.337
  0
LINE
  8
0
 10
-45.677
 11
-40.451
 20
20.337
 21
29.389
  0
LINE
  8
0
 10
-40.451
 11
-33.457
 20
29.389
 21
37.157
  0
LINE
  8
0
 10
-33.457
 11
-25
 20
37.157
 21
43.301
  0
LINE
  8
0
 10
-25
 11
-15.451
 20
43.301
 21
47.553
  0
LINE
  8
0
 10
-15.451
 11
-5.226
 20
47.553
 21
49.726
  0
LINE
  8
0
 10
-5.226
 11
5.226
 20
49.726
 21
49.726
  0
LINE
  8
0
 10
5.226
 11
15.451
 20
49.726
 21
47.553
  0
LINE
  8
0
 10
15.451
 11
25
 20
47.553
 21
43.301
  0
LINE
  8
0
 10
25
 11
33.457
 20
43.301
 21
37.157
  0
LINE
  8
0
 10
33.457
 11
40.451
 20
37.157
 21
29.389
  0
LINE
  8
0
 10
40.451
 11
45.677
 20
29.389
 21
20.337
  0
LINE
  8
0
 10
45.677
 11
48.907
 20
20.337
 21
10.396
  0
LINE
  8
0
 10
48.907
 11
49.854
 20
10.396
 21
1.386
  0
LINE
  8
0
 10
49.854
 11
49.2
 20
1.386
 21
1.386
  0
LINE
  8
0
 10
49.2
 11
48.4
 20
1.386
 21
0
  0
LINE
  8
0
 10
48.4
 11
49.2
 20
0
 21
-1.386
  0
LINE
  8
0
 10
49.2
 11
49.854
 20
-1.386
 21
-1.386
  0
LINE
  8
0
 10
49.854
 11
48.907
 20
-1.386
 21
-10.396
  0
LINE
  8
0
 10
48.907
 11
45.677
 20
-10.396
 21
-20.337
  0
LINE
  8
0
 10
45.677
 11
40.451
 20
-20.337
 21
-29.389
  0
LINE
  8
0
 10
40.451
 11
33.457
 20
-29.389
 21
-37.157
  0
LINE
  8
0
 10
33.457
 11
25
 20
-37.157
 21
-43.301
  0
LINE
  8
0
 10
25
 11
15.451
 20
-43.301
 21
-47.553
  0
LINE
  8
0
 10
15.451
 11
5.226
 20
-47.553
 21
-49.726
  0
LINE
  8
0
 10
5.226
 11
-5.226
 20
-49.726
 21
-49.726
  0
LINE
  8
0
 10
-5.226
 11
-15.451
 20
-49.726
 21
-47.553
  0
LINE
  8
0
 10
-15.451
 11
-25
 20
-47.553
 21
-43.301
  0
LINE
  8
0
 10
-25
 11
-33.457
 20
-43.301
 21
-37.157
  0
LINE
  8
0
 10
-33.457
 11
-40.451
 20
-37.157
 21
-29.389
  0
LINE
  8
0
 10
-40.451
 11
-45.677
 20
-29.389
 21
-20.337
  0
LINE
  8
0
 10
-45.677
 11
-48.907
 20
-20.337
 21
-10.396
  0
LINE
  8
0
 10
-48.907
 11
-50
 20
-10.396
 21
0
  0
LINE
  8
0
 10
-2.5
 11
-1.768
 20
0
 21
1.768
  0
LINE
  8
0
 10
-1.768
 11
0
 20
1.768
 21
2.5
  0
LINE
  8
0
 10
0
 11
1.768
 20
2.5
 21
1.768
  0
LINE
  8
0
 10
1.768
 11
2.5
 20
1.768
 21
0
  0
LINE
  8
0
 10
2.5
 11
1.768
 20
0
 21
-1.768
  0
LINE
  8
0
 10
1.768
 11
0
 20
-1.768
 21
-2.5
  0
LINE
  8
0
 10
0
 11
-1.768
 20
-2.5
 21
-1.768
  0
LINE
  8
0
 10
-1.768
 11
-2.5
 20
-1.768
 21
0
  0
LINE
  8
0
 10
0
 11
0
 20
100
 21
115
  0
LINE
  8
0
 10
0
 11
120
 20
115
 21
115
  0
LINE
  8
0
 10
120
 11
120
 20
115
 21
100
  0
LINE
  8
0
 10
120
 11
0
 20
100
 21
100
  0
LINE
  8
0
 10
0
 11
0
 20
130
 21
145
  0
LINE
  8
0
 10
0
 11
120
 20
145
 21
145
  0
LINE
  8
0
 10
120
 11
120
 20
145
 21
130
  0
LINE
  8
0
 10
120
 11
0
 20
130
 21
130
  0
LINE
  8
0
 10
0
 11
0
 20
160
 21
175
  0
LINE
  8
0
 10
0
 11
240
 20
175
 21
175
  0
LINE
  8
0
 10
240
 11
240
 20
175
 21
160
  0
LINE
  8
0
 10
240
 11
0
 20
160
 21
160
  0
LINE
  8
0
 10
0
 11
0
 20
190
 21
205
  0
LINE
  8
0
 10
0
 11
240
 20
205
 21
205
  0
LINE
  8
0
 10
240
 11
240
 20
205
 21
190
  0
LINE
  8
0
 10
240
 11
0
 20
190
 21
190
  0
LINE
  8
0
 10
8.4
 11
9.2
 20
0
 21
1.386
  0
LINE
  8
0
 10
9.2
 11
10.8
 20
1.386
 21
1.386
  0
LINE
  8
0
 10
10.8
 11
11.6
 20
1.386
 21
0
  0
LINE
  8
0
 10
11.6
 11
10.8
 20
0
 21
-1.386
  0
LINE
  8
0
 10
10.8
 11
9.2
 20
-1.386
 21
-1.386
  0
LINE
  8
0
 10
9.2
 11
8.4
 20
-1.386
 21
0
  0
LINE
  8
0
 10
8.4
 11
9.2
 20
107.5
 21
108.886
  0
LINE
  8
0
 10
9.2
 11
10.8
 20
108.886
 21
108.886
  0
LINE
  8
0
 10
10.8
 11
11.6
 20
108.886
 21
107.5
  0
LINE
  8
0
 10
11.6
 11
10.8
 20
107.5
 21
106.114
  0
LINE
  8
0
 10
10.8
 11
9.2
 20
106.114
 21
106.114
  0
LINE
  8
0
 10
9.2
 11
8.4
 20
106.114
 21
107.5
  0
LINE
  8
0
 10
8.4
 11
9.2
 20
137.5
 21
138.886
  0
LINE
  8
0
 10
9.2
 11
10.8
 20
138.886
 21
138.886
  0
LINE
  8
0
 10
10.8
 11
11.6
 20
138.886
 21
137.5
  0
LINE
  8
0
 10
11.6
 11
10.8
 20
137.5
 21
136.114
  0
LINE
  8
0
 10
10.8
 11
9.2
 20
136.114
 21
136.114
  0
LINE
  8
0
 10
9.2
 11
8.4
 20
136.114
 21
137.5
  0
LINE
  8
0
 10
8.4
 11
9.2
 20
167.5
 21
168.886
  0
LINE
  8
0
 10
9.2
 11
10.8
 20
168.886
 21
168.886
  0
LINE
  8
0
 10
10.8
 11
11.6
 20
168.886
 21
167.5
  0
LINE
  8
0
 10
11.6
 11
10.8
 20
167.5
 21
166.114
  0
LINE
  8
0
 10
10.8
 11
9.2
 20
166.114
 21
166.114
  0
LINE
  8
0
 10
9.2
 11
8.4
 20
166.114
 21
167.5
  0
LINE
  8
0
 10
8.4
 11
9.2
 20
197.5
 21
198.886
  0
LINE
  8
0
 10
9.2
 11
10.8
 20
198.886
 21
198.886
  0
LINE
  8
0
 10
10.8
 11
11.6
 20
198.886
 21
197.5
  0
LINE
  8
0
 10
11.6
 11
10.8
 20
197.5
 21
196.114
  0
LINE
  8
0
 10
10.8
 11
9.2
 20
196.114
 21
196.114
  0
LINE
  8
0
 10
9.2
 11
8.4
 20
196.114
 21
197.5
  0
LINE
  8
0
 10
18.4
 11
19.2
 20
0
 21
1.386
  0
LINE
  8
0
 10
19.2
 11
20.8
 20
1.386
 21
1.386
  0
LINE
  8
0
 10
20.8
 11
21.6
 20
1.386
 21
0
  0
LINE
  8
0
 10
21.6
 11
20.8
 20
0
 21
-1.386
  0
LINE
  8
0
 10
20.8
 11
19.2
 20
-1.386
 21
-1.386
  0
LINE
  8
0
 10
19.2
 11
18.4
 20
-1.386
 21
0
  0
LINE
  8
0
 10
28.4
 11
29.2
 20
0
 21
1.386
  0
LINE
  8
0
 10
29.2
 11
30.8
 20
1.386
 21
1.386
  0
LINE
  8
0
 10
30.8
 11
31.6
 20
1.386
 21
0
  0
LINE
  8
0
 10
31.6
 11
30.8
 20
0
 21
-1.386
  0
LINE
  8
0
 10
30.8
 11
29.2
 20
-1.386
 21
-1.386
  0
LINE
  8
0
 10
29.2
 11
28.4
 20
-1.386
 21
0
  0
LINE
  8
0
 10
28.4
 11
29.2
 20
107.5
 21
108.886
  0
LINE
  8
0
 10
29.2
 11
30.8
 20
108.886
 21
108.886
  0
LINE
  8
0
 10
30.8
 11
31.6
 20
108.886
 21
107.5
  0
LINE
  8
0
 10
31.6
 11
30.8
 20
107.5
 21
106.114
  0
LINE
  8
0
 10
30.8
 11
29.2
 20
106.114
 21
106.114
  0
LINE
  8
0
 10
29.2
 11
28.4
 20
106.114
 21
107.5
  0
LINE
  8
0
 10
28.4
 11
29.2
 20
137.5
 21
138.886
  0
LINE
  8
0
 10
29.2
 11
30.8
 20
138.886
 21
138.886
  0
LINE
  8
0
 10
30.8
 11
31.6
 20
138.886
 21
137.5
  0
LINE
  8
0
 10
31.6
 11
30.8
 20
137.5
 21
136.114
  0
LINE
  8
0
 10
30.8
 11
29.2
 20
136.114
 21
136.114
  0
LINE
  8
0
 10
29.2
 11
28.4
 20
136.114
 21
137.5
  0
LINE
  8
0
 10
28.4
 11
29.2
 20
167.5
 21
168.886
  0
LINE
  8
0
 10
29.2
 11
30.8
 20
168.886
 21
168.886
  0
LINE
  8
0
 10
30.8
 11
31.6
 20
168.886
 21
167.5
  0
LINE
  8
0
 10
31.6
 11
30.8
 20
167.5
 21
166.114
  0
LINE
  8
0
 10
30.8
 11
29.2
 20
166.114
 21
166.114
  0
LINE
  8
0
 10
29.2
 11
28.4
 20
166.114
 21
167.5
  0
LINE
  8
0
 10
28.4
 11
29.2
 20
197.5
 21
198.886
  0
LINE
  8
0
 10
29.2
 11
30.8
 20
198.886
 21
198.886
  0
LINE
  8
0
 10
30.8
 11
31.6
 20
198.886
 21
197.5
  0
LINE
  8
0
 10
31.6
 11
30.8
 20
197.5
 21
196.114
  0
LINE
  8
0
 10
30.8
 11
29.2
 20
196.114
 21
196.114
  0
LINE
  8
0
 10
29.2
 11
28.4
 20
196.114
 21
197.5
  0
LINE
  8
0
 10
38.4
 11
39.2
 20
0
 21
1.386
  0
LINE
  8
0
 10
39.2
 11
40.8
 20
1.386
 21
1.386
  0
LINE
  8
0
 10
40.8
 11
41.6
 20
1.386
 21
0
  0
LINE
  8
0
 10
41.6
 11
40.8
 20
0
 21
-1.386
  0
LINE
  8
0
 10
40.8
 11
39.2
 20
-1.386
 21
-1.386
  0
LINE
  8
0
 10
39.2
 11
38.4
 20
-1.386
 21
0
  0
LINE
  8
0
 10
48.4
 11
49.2
 20
107.5
 21
108.886
  0
LINE
  8
0
 10
49.2
 11
50.8
 20
108.886
 21
108.886
  0
LINE
  8
0
 10
50.8
 11
51.6
 20
108.886
 21
107.5
  0
LINE
  8
0
 10
51.6
 11
50.8
 20
107.5
 21
106.114
  0
LINE
  8
0
 10
50.8
 11
49.2
 20
106.114
 21
106.114
  0
LINE
  8
0
 10
49.2
 11
48.4
 20
106.114
 21
107.5
  0
LINE
  8
0
 10
48.4
 11
49.2
 20
137.5
 21
138.886
  0
LINE
  8
0
 10
49.2
 11
50.8
 20
138.886
 21
138.886
  0
LINE
  8
0
 10
50.8
 11
51.6
 20
138.886
 21
137.5
  0
LINE
  8
0
 10
51.6
 11
50.8
 20
137.5
 21
136.114
  0
LINE
  8
0
 10
50.8
 11
49.2
 20
136.114
 21
136.114
  0
LINE
  8
0
 10
49.2
 11
48.4
 20
136.114
 21
137.5
  0
LINE
  8
0
 10
48.4
 11
49.2
 20
167.5
 21
168.886
  0
LINE
  8
0
 10
49.2
 11
50.8
 20
168.886
 21
168.886
  0
LINE
  8
0
 10
50.8
 11
51.6
 20
168.886
 21
167.5
  0
LINE
  8
0
 10
51.6
 11
50.8
 20
167.5
 21
166.114
  0
LINE
  8
0
 10
50.8
 11
49.2
 20
166.114
 21
166.114
  0
LINE
  8
0
 10
49.2
 11
48.4
 20
166.114
 21
167.5
  0
LINE
  8
0
 10
48.4
 11
49.2
 20
197.5
 21
198.886
  0
LINE
  8
0
 10
49.2
 11
50.8
 20
198.886
 21
198.886
  0
LINE
  8
0
 10
50.8
 11
51.6
 20
198.886
 21
197.5
  0
LINE
  8
0
 10
51.6
 11
50.8
 20
197.5
 21
196.114
  0
LINE
  8
0
 10
50.8
 11
49.2
 20
196.114
 21
196.114
  0
LINE
  8
0
 10
49.2
 11
48.4
 20
196.114
 21
197.5
  0
LINE
  8
0
 10
55
 11
56.093
 20
0
 21
10.396
  0
LINE
  8
0
 10
56.093
 11
59.323
 20
10.396
 21
20.337
  0
LINE
  8
0
 10
59.323
 11
64.549
 20
20.337
 21
29.389
  0
LINE
  8
0
 10
64.549
 11
71.543
 20
29.389
 21
37.157
  0
LINE
  8
0
 10
71.543
 11
80
 20
37.157
 21
43.301
  0
LINE
  8
0
 10
80
 11
89.549
 20
43.301
 21
47.553
  0
LINE
  8
0
 10
89.549
 11
99.774
 20
47.553
 21
49.726
  0
LINE
  8
0
 10
99.774
 11
110.226
 20
49.726
 21
49.726
  0
LINE
  8
0
 10
110.226
 11
120.451
 20
49.726
 21
47.553
  0
LINE
  8
0
 10
120.451
 11
130
 20
47.553
 21
43.301
  0
LINE
  8
0
 10
130
 11
138.457
 20
43.301
 21
37.157
  0
LINE
  8
0
 10
138.457
 11
145.451
 20
37.157
 21
29.389
  0
LINE
  8
0
 10
145.451
 11
150.677
 20
29.389
 21
20.337
  0
LINE
  8
0
 10
150.677
 11
153.907
 20
20.337
 21
10.396
  0
LINE
  8
0
 10
153.907
 11
154.854
 20
10.396
 21
1.386
  0
LINE
  8
0
 10
154.854
 11
154.2
 20
1.386
 21
1.386
  0
LINE
  8
0
 10
154.2
 11
153.4
 20
1.386
 21
0
  0
LINE
  8
0
 10
153.4
 11
154.2
 20
0
 21
-1.386
  0
LINE
  8
0
 10
154.2
 11
154.854
 20
-1.386
 21
-1.386
  0
LINE
  8
0
 10
154.854
 11
153.907
 20
-1.386
 21
-10.396
  0
LINE
  8
0
 10
153.907
 11
150.677
 20
-10.396
 21
-20.337
  0
LINE
  8
0
 10
150.677
 11
145.451
 20
-20.337
 21
-29.389
  0
LINE
  8
0
 10
145.451
 11
138.457
 20
-29.389
 21
-37.157
  0
LINE
  8
0
 10
138.457
 11
130
 20
-37.157
 21
-43.301
  0
LINE
  8
0
 10
130
 11
120.451
 20
-43.301
 21
-47.553
  0
LINE
  8
0
 10
120.451
 11
110.226
 20
-47.553
 21
-49.726
  0
LINE
  8
0
 10
110.226
 11
99.774
 20
-49.726
 21
-49.726
  0
LINE
  8
0
 10
99.774
 11
89.549
 20
-49.726
 21
-47.553
  0
LINE
  8
0
 10
89.549
 11
80
 20
-47.553
 21
-43.301
  0
LINE
  8
0
 10
80
 11
71.543
 20
-43.301
 21
-37.157
  0
LINE
  8
0
 10
71.543
 11
64.549
 20
-37.157
 21
-29.389
  0
LINE
  8
0
 10
64.549
 11
59.323
 20
-29.389
 21
-20.337
  0
LINE
  8
0
 10
59.323
 11
56.093
 20
-20.337
 21
-10.396
  0
LINE
  8
0
 10
56.093
 11
55
 20
-10.396
 21
0
  0
LINE
  8
0
 10
68.4
 11
69.2
 20
107.5
 21
108.886
  0
LINE
  8
0
 10
69.2
 11
70.8
 20
108.886
 21
108.886
  0
LINE
  8
0
 10
70.8
 11
71.6
 20
108.886
 21
107.5
  0
LINE
  8
0
 10
71.6
 11
70.8
 20
107.5
 21
106.114
  0
LINE
  8
0
 10
70.8
 11
69.2
 20
106.114
 21
106.114
  0
LINE
  8
0
 10
69.2
 11
68.4
 20
106.114
 21
107.5
  0
LINE
  8
0
 10
68.4
 11
69.2
 20
137.5
 21
138.886
  0
LINE
  8
0
 10
69.2
 11
70.8
 20
138.886
 21
138.886
  0
LINE
  8
0
 10
70.8
 11
71.6
 20
138.886
 21
137.5
  0
LINE
  8
0
 10
71.6
 11
70.8
 20
137.5
 21
136.114
  0
LINE
  8
0
 10
70.8
 11
69.2
 20
136.114
 21
136.114
  0
LINE
  8
0
 10
69.2
 11
68.4
 20
136.114
 21
137.5
  0
LINE
  8
0
 10
68.4
 11
69.2
 20
167.5
 21
168.886
  0
LINE
  8
0
 10
69.2
 11
70.8
 20
168.886
 21
168.886
  0
LINE
  8
0
 10
70.8
 11
71.6
 20
168.886
 21
167.5
  0
LINE
  8
0
 10
71.6
 11
70.8
 20
167.5
 21
166.114
  0
LINE
  8
0
 10
70.8
 11
69.2
 20
166.114
 21
166.114
  0
LINE
  8
0
 10
69.2
 11
68.4
 20
166.114
 21
167.5
  0
LINE
  8
0
 10
68.4
 11
69.2
 20
197.5
 21
198.886
  0
LINE
  8
0
 10
69.2
 11
70.8
 20
198.886
 21
198.886
  0
LINE
  8
0
 10
70.8
 11
71.6
 20
198.886
 21
197.5
  0
LINE
  8
0
 10
71.6
 11
70.8
 20
197.5
 21
196.114
  0
LINE
  8
0
 10
70.8
 11
69.2
 20
196.114
 21
196.114
  0
LINE
  8
0
 10
69.2
 11
68.4
 20
196.114
 21
197.5
  0
LINE
  8
0
 10
88.4
 11
89.2
 20
107.5
 21
108.886
  0
LINE
  8
0
 10
89.2
 11
90.8
 20
108.886
 21
108.886
  0
LINE
  8
0
 10
90.8
 11
91.6
 20
108.886
 21
107.5
  0
LINE
  8
0
 10
91.6
 11
90.8
 20
107.5
 21
106.114
  0
LINE
  8
0
 10
90.8
 11
89.2
 20
106.114
 21
106.114
  0
LINE
  8
0
 10
89.2
 11
88.4
 20
106.114
 21
107.5
  0
LINE
  8
0
 10
88.4
 11
89.2
 20
137.5
 21
138.886
  0
LINE
  8
0
 10
89.2
 11
90.8
 20
138.886
 21
138.886
  0
LINE
  8
0
 10
90.8
 11
91.6
 20
138.886
 21
137.5
  0
LINE
  8
0
 10
91.6
 11
90.8
 20
137.5
 21
136.114
  0
LINE
  8
0
 10
90.8
 11
89.2
 20
136.114
 21
136.114
  0
LINE
  8
0
 10
89.2
 11
88.4
 20
136.114
 21
137.5
  0
LINE
  8
0
 10
88.4
 11
89.2
 20
167.5
 21
168.886
  0
LINE
  8
0
 10
89.2
 11
90.8
 20
168.886
 21
168.886
  0
LINE
  8
0
 10
90.8
 11
91.6
 20
168.886
 21
167.5
  0
LINE
  8
0
 10
91.6
 11
90.8
 20
167.5
 21
166.114
  0
LINE
  8
0
 10
90.8
 11
89.2
 20
166.114
 21
166.114
  0
LINE
  8
0
 10
89.2
 11
88.4
 20
166.114
 21
167.5
  0
LINE
  8
0
 10
88.4
 11
89.2
 20
197.5
 21
198.886
  0
LINE
  8
0
 10
89.2
 11
90.8
 20
198.886
 21
198.886
  0
LINE
  8
0
 10
90.8
 11
91.6
 20
198.886
 21
197.5
  0
LINE
  8
0
 10
91.6
 11
90.8
 20
197.5
 21
196.114
  0
LINE
  8
0
 10
90.8
 11
89.2
 20
196.114
 21
196.114
  0
LINE
  8
0
 10
89.2
 11
88.4
 20
196.114
 21
197.5
  0
LINE
  8
0
 10
102.5
 11
103.232
 20
0
 21
1.768
  0
LINE
  8
0
 10
103.232
 11
105
 20
1.768
 21
2.5
  0
LINE
  8
0
 10
105
 11
106.768
 20
2.5
 21
1.768
  0
LINE
  8
0
 10
106.768
 11
107.5
 20
1.768
 21
0
  0
LINE
  8
0
 10
107.5
 11
106.768
 20
0
 21
-1.768
  0
LINE
  8
0
 10
106.768
 11
105
 20
-1.768
 21
-2.5
  0
LINE
  8
0
 10
105
 11
103.232
 20
-2.5
 21
-1.768
  0
LINE
  8
0
 10
103.232
 11
102.5
 20
-1.768
 21
0
  0
LINE
  8
0
 10
108.4
 11
109.2
 20
107.5
 21
108.886
  0
LINE
  8
0
 10
109.2
 11
110.8
 20
108.886
 21
108.886
  0
LINE
  8
0
 10
110.8
 11
111.6
 20
108.886
 21
107.5
  0
LINE
  8
0
 10
111.6
 11
110.8
 20
107.5
 21
106.114
  0
LINE
  8
0
 10
110.8
 11
109.2
 20
106.114
 21
106.114
  0
LINE
  8
0
 10
109.2
 11
108.4
 20
106.114
 21
107.5
  0
LINE
  8
0
 10
108.4
 11
109.2
 20
137.5
 21
138.886
  0
LINE
  8
0
 10
109.2
 11
110.8
 20
138.886
 21
138.886
  0
LINE
  8
0
 10
110.8
 11
111.6
 20
138.886
 21
137.5
  0
LINE
  8
0
 10
111.6
 11
110.8
 20
137.5
 21
136.114
  0
LINE
  8
0
 10
110.8
 11
109.2
 20
136.114
 21
136.114
  0
LINE
  8
0
 10
109.2
 11
108.4
 20
136.114
 21
137.5
  0
LINE
  8
0
 10
108.4
 11
109.2
 20
167.5
 21
168.886
  0
LINE
  8
0
 10
109.2
 11
110.8
 20
168.886
 21
168.886
  0
LINE
  8
0
 10
110.8
 11
111.6
 20
168.886
 21
167.5
  0
LINE
  8
0
 10
111.6
 11
110.8
 20
167.5
 21
166.114
  0
LINE
  8
0
 10
110.8
 11
109.2
 20
166.114
 21
166.114
  0
LINE
  8
0
 10
109.2
 11
108.4
 20
166.114
 21
167.5
  0
LINE
  8
0
 10
108.4
 11
109.2
 20
197.5
 21
198.886
  0
LINE
  8
0
 10
109.2
 11
110.8
 20
198.886
 21
198.886
  0
LINE
  8
0
 10
110.8
 11
111.6
 20
198.886
 21
197.5
  0
LINE
  8
0
 10
111.6
 11
110.8
 20
197.5
 21
196.114
  0
LINE
  8
0
 10
110.8
 11
109.2
 20
196.114
 21
196.114
  0
LINE
  8
0
 10
109.2
 11
108.4
 20
196.114
 21
197.5
  0
LINE
  8
0
 10
113.4
 11
114.2
 20
0
 21
1.386
  0
LINE
  8
0
 10
114.2
 11
115.8
 20
1.386
 21
1.386
  0
LINE
  8
0
 10
115.8
 11
116.6
 20
1.386
 21
0
  0
LINE
  8
0
 10
116.6
 11
115.8
 20
0
 21
-1.386
  0
LINE
  8
0
 10
115.8
 11
114.2
 20
-1.386
 21
-1.386
  0
LINE
  8
0
 10
114.2
 11
113.4
 20
-1.386
 21
0
  0
LINE
  8
0
 10
123.4
 11
124.2
 20
0
 21
1.386
  0
LINE
  8
0
 10
124.2
 11
125.8
 20
1.386
 21
1.386
  0
LINE
  8
0
 10
125.8
 11
126.6
 20
1.386
 21
0
  0
LINE
  8
0
 10
126.6
 11
125.8
 20
0
 21
-1.386
  0
LINE
  8
0
 10
125.8
 11
124.2
 20
-1.386
 21
-1.386
  0
LINE
  8
0
 10
124.2
 11
123.4
 20
-1.386
 21
0
  0
LINE
  8
0
 10
128.4
 11
129.2
 20
167.5
 21
168.886
  0
LINE
  8
0
 10
129.2
 11
130.8
 20
168.886
 21
168.886
  0
LINE
  8
0
 10
130.8
 11
131.6
 20
168.886
 21
167.5
  0
LINE
  8
0
 10
131.6
 11
130.8
 20
167.5
 21
166.114
  0
LINE
  8
0
 10
130.8
 11
129.2
 20
166.114
 21
166.114
  0
LINE
  8
0
 10
129.2
 11
128.4
 20
166.114
 21
167.5
  0
LINE
  8
0
 10
128.4
 11
129.2
 20
197.5
 21
198.886
  0
LINE
  8
0
 10
129.2
 11
130.8
 20
198.886
 21
198.886
  0
LINE
  8
0
 10
130.8
 11
131.6
 20
198.886
 21
197.5
  0
LINE
  8
0
 10
131.6
 11
130.8
 20
197.5
 21
196.114
  0
LINE
  8
0
 10
130.8
 11
129.2
 20
196.114
 21
196.114
  0
LINE
  8
0
 10
129.2
 11
128.4
 20
196.114
 21
197.5
  0
LINE
  8
0
 10
130
 11
130
 20
100
 21
115
  0
LINE
  8
0
 10
130
 11
250
 20
115
 21
115
  0
LINE
  8
0
 10
250
 11
250
 20
115
 21
100
  0
LINE
  8
0
 10
250
 11
130
 20
100
 21
100
  0
LINE
  8
0
 10
130
 11
130
 20
130
 21
145
  0
LINE
  8
0
 10
130
 11
250
 20
145
 21
145
  0
LINE
  8
0
 10
250
 11
250
 20
145
 21
130
  0
LINE
  8
0
 10
250
 11
130
 20
130
 21
130
  0
LINE
  8
0
 10
133.4
 11
134.2
 20
0
 21
1.386
  0
LINE
  8
0
 10
134.2
 11
135.8
 20
1.386
 21
1.386
  0
LINE
  8
0
 10
135.8
 11
136.6
 20
1.386
 21
0
  0
LINE
  8
0
 10
136.6
 11
135.8
 20
0
 21
-1.386
  0
LINE
  8
0
 10
135.8
 11
134.2
 20
-1.386
 21
-1.386
  0
LINE
  8
0
 10
134.2
 11
133.4
 20
-1.386
 21
0
  0
LINE
  8
0
 10
138.4
 11
139.2
 20
107.5
 21
108.886
  0
LINE
  8
0
 10
139.2
 11
140.8
 20
108.886
 21
108.886
  0
LINE
  8
0
 10
140.8
 11
141.6
 20
108.886
 21
107.5
  0
LINE
  8
0
 10
141.6
 11
140.8
 20
107.5
 21
106.114
  0
LINE
  8
0
 10
140.8
 11
139.2
 20
106.114
 21
106.114
  0
LINE
  8
0
 10
139.2
 11
138.4
 20
106.114
 21
107.5
  0
LINE
  8
0
 10
138.4
 11
139.2
 20
137.5
 21
138.886
  0
LINE
  8
0
 10
139.2
 11
140.8
 20
138.886
 21
138.886
  0
LINE
  8
0
 10
140.8
 11
141.6
 20
138.886
 21
137.5
  0
LINE
  8
0
 10
141.6
 11
140.8
 20
137.5
 21
136.114
  0
LINE
  8
0
 10
140.8
 11
139.2
 20
136.114
 21
136.114
  0
LINE
  8
0
 10
139.2
 11
138.4
 20
136.114
 21
137.5
  0
LINE
  8
0
 10
143.4
 11
144.2
 20
0
 21
1.386
  0
LINE
  8
0
 10
144.2
 11
145.8
 20
1.386
 21
1.386
  0
LINE
  8
0
 10
145.8
 11
146.6
 20
1.386
 21
0
  0
LINE
  8
0
 10
146.6
 11
145.8
 20
0
 21
-1.386
  0
LINE
  8
0
 10
145.8
 11
144.2
 20
-1.386
 21
-1.386
  0
LINE
  8
0
 10
144.2
 11
143.4
 20
-1.386
 21
0
  0
LINE
  8
0
 10
148.4
 11
149.2
 20
167.5
 21
168.886
  0
LINE
  8
0
 10
149.2
 11
150.8
 20
168.886
 21
168.886
  0
LINE
  8
0
 10
150.8
 11
151.6
 20
168.886
 21
167.5
  0
LINE
  8
0
 10
151.6
 11
150.8
 20
167.5
 21
166.114
  0
LINE
  8
0
 10
150.8
 11
149.2
 20
166.114
 21
166.114
  0
LINE
  8
0
 10
149.2
 11
148.4
 20
166.114
 21
167.5
  0
LINE
  8
0
 10
148.4
 11
149.2
 20
197.5
 21
198.886
  0
LINE
  8
0
 10
149.2
 11
150.8
 20
198.886
 21
198.886
  0
LINE
  8
0
 10
150.8
 11
151.6
 20
198.886
 21
197.5
  0
LINE
  8
0
 10
151.6
 11
150.8
 20
197.5
 21
196.114
  0
LINE
  8
0
 10
150.8
 11
149.2
 20
196.114
 21
196.114
  0
LINE
  8
0
 10
149.2
 11
148.4
 20
196.114
 21
197.5
  0
LINE
  8
0
 10
158.4
 11
159.2
 20
107.5
 21
108.886
  0
LINE
  8
0
 10
159.2
 11
160.8
 20
108.886
 21
108.886
  0
LINE
  8
0
 10
160.8
 11
161.6
 20
108.886
 21
107.5
  0
LINE
  8
0
 10
161.6
 11
160.8
 20
107.5
 21
106.114
  0
LINE
  8
0
 10
160.8
 11
159.2
 20
106.114
 21
106.114
  0
LINE
  8
0
 10
159.2
 11
158.4
 20
106.114
 21
107.5
  0
LINE
  8
0
 10
158.4
 11
159.2
 20
137.5
 21
138.886
  0
LINE
  8
0
 10
159.2
 11
160.8
 20
138.886
 21
138.886
  0
LINE
  8
0
 10
160.8
 11
161.6
 20
138.886
 21
137.5
  0
LINE
  8
0
 10
161.6
 11
160.8
 20
137.5
 21
136.114
  0
LINE
  8
0
 10
160.8
 11
159.2
 20
136.114
 21
136.114
  0
LINE
  8
0
 10
159.2
 11
158.4
 20
136.114
 21
137.5
  0
LINE
  8
0
 10
168.4
 11
169.2
 20
167.5
 21
168.886
  0
LINE
  8
0
 10
169.2
 11
170.8
 20
168.886
 21
168.886
  0
LINE
  8
0
 10
170.8
 11
171.6
 20
168.886
 21
167.5
  0
LINE
  8
0
 10
171.6
 11
170.8
 20
167.5
 21
166.114
  0
LINE
  8
0
 10
170.8
 11
169.2
 20
166.114
 21
166.114
  0
LINE
  8
0
 10
169.2
 11
168.4
 20
166.114
 21
167.5
  0
LINE
  8
0
 10
168.4
 11
169.2
 20
197.5
 21
198.886
  0
LINE
  8
0
 10
169.2
 11
170.8
 20
198.886
 21
198.886
  0
LINE
  8
0
 10
170.8
 11
171.6
 20
198.886
 21
197.5
  0
LINE
  8
0
 10
171.6
 11
170.8
 20
197.5
 21
196.114
  0
LINE
  8
0
 10
170.8
 11
169.2
 20
196.114
 21
196.114
  0
LINE
  8
0
 10
169.2
 11
168.4
 20
196.114
 21
197.5
  0
LINE
  8
0
 10
178.4
 11
179.2
 20
107.5
 21
108.886
  0
LINE
  8
0
 10
179.2
 11
180.8
 20
108.886
 21
108.886
  0
LINE
  8
0
 10
180.8
 11
181.6
 20
108.886
 21
107.5
  0
LINE
  8
0
 10
181.6
 11
180.8
 20
107.5
 21
106.114
  0
LINE
  8
0
 10
180.8
 11
179.2
 20
106.114
 21
106.114
  0
LINE
  8
0
 10
179.2
 11
178.4
 20
106.114
 21
107.5
  0
LINE
  8
0
 10
178.4
 11
179.2
 20
137.5
 21
138.886
  0
LINE
  8
0
 10
179.2
 11
180.8
 20
138.886
 21
138.886
  0
LINE
  8
0
 10
180.8
 11
181.6
 20
138.886
 21
137.5
  0
LINE
  8
0
 10
181.6
 11
180.8
 20
137.5
 21
136.114
  0
LINE
  8
0
 10
180.8
 11
179.2
 20
136.114
 21
136.114
  0
LINE
  8
0
 10
179.2
 11
178.4
 20
136.114
 21
137.5
  0
LINE
  8
0
 10
188.4
 11
189.2
 20
167.5
 21
168.886
  0
LINE
  8
0
 10
189.2
 11
190.8
 20
168.886
 21
168.886
  0
LINE
  8
0
 10
190.8
 11
191.6
 20
168.886
 21
167.5
  0
LINE
  8
0
 10
191.6
 11
190.8
 20
167.5
 21
166.114
  0
LINE
  8
0
 10
190.8
 11
189.2
 20
166.114
 21
166.114
  0
LINE
  8
0
 10
189.2
 11
188.4
 20
166.114
 21
167.5
  0
LINE
  8
0
 10
188.4
 11
189.2
 20
197.5
 21
198.886
  0
LINE
  8
0
 10
189.2
 11
190.8
 20
198.886
 21
198.886
  0
LINE
  8
0
 10
190.8
 11
191.6
 20
198.886
 21
197.5
  0
LINE
  8
0
 10
191.6
 11
190.8
 20
197.5
 21
196.114
  0
LINE
  8
0
 10
190.8
 11
189.2
 20
196.114
 21
196.114
  0
LINE
  8
0
 10
189.2
 11
188.4
 20
196.114
 21
197.5
  0
LINE
  8
0
 10
198.4
 11
199.2
 20
107.5
 21
108.886
  0
LINE
  8
0
 10
199.2
 11
200.8
 20
108.886
 21
108.886
  0
LINE
  8
0
 10
200.8
 11
201.6
 20
108.886
 21
107.5
  0
LINE
  8
0
 10
201.6
 11
200.8
 20
107.5
 21
106.114
  0
LINE
  8
0
 10
200.8
 11
199.2
 20
106.114
 21
106.114
  0
LINE
  8
0
 10
199.2
 11
198.4
 20
106.114
 21
107.5
  0
LINE
  8
0
 10
198.4
 11
199.2
 20
137.5
 21
138.886
  0
LINE
  8
0
 10
199.2
 11
200.8
 20
138.886
 21
138.886
  0
LINE
  8
0
 10
200.8
 11
201.6
 20
138.886
 21
137.5
  0
LINE
  8
0
 10
201.6
 11
200.8
 20
137.5
 21
136.114
  0
LINE
  8
0
 10
200.8
 11
199.2
 20
136.114
 21
136.114
  0
LINE
  8
0
 10
199.2
 11
198.4
 20
136.114
 21
137.5
  0
LINE
  8
0
 10
208.4
 11
209.2
 20
167.5
 21
168.886
  0
LINE
  8
0
 10
209.2
 11
210.8
 20
168.886
 21
168.886
  0
LINE
  8
0
 10
210.8
 11
211.6
 20
168.886
 21
167.5
  0
LINE
  8
0
 10
211.6
 11
210.8
 20
167.5
 21
166.114
  0
LINE
  8
0
 10
210.8
 11
209.2
 20
166.114
 21
166.114
  0
LINE
  8
0
 10
209.2
 11
208.4
 20
166.114
 21
167.5
  0
LINE
  8
0
 10
208.4
 11
209.2
 20
197.5
 21
198.886
  0
LINE
  8
0
 10
209.2
 11
210.8
 20
198.886
 21
198.886
  0
LINE
  8
0
 10
210.8
 11
211.6
 20
198.886
 21
197.5
  0
LINE
  8
0
 10
211.6
 11
210.8
 20
197.5
 21
196.114
  0
LINE
  8
0
 10
210.8
 11
209.2
 20
196.114
 21
196.114
  0
LINE
  8
0
 10
209.2
 11
208.4
 20
196.114
 21
197.5
  0
LINE
  8
0
 10
218.4
 11
219.2
 20
107.5
 21
108.886
  0
LINE
  8
0
 10
219.2
 11
220.8
 20
108.886
 21
108.886
  0
LINE
  8
0
 10
220.8
 11
221.6
 20
108.886
 21
107.5
  0
LINE
  8
0
 10
221.6
 11
220.8
 20
107.5
 21
106.114
  0
LINE
  8
0
 10
220.8
 11
219.2
 20
106.114
 21
106.114
  0
LINE
  8
0
 10
219.2
 11
218.4
 20
106.114
 21
107.5
  0
LINE
  8
0
 10
218.4
 11
219.2
 20
137.5
 21
138.886
  0
LINE
  8
0
 10
219.2
 11
220.8
 20
138.886
 21
138.886
  0
LINE
  8
0
 10
220.8
 11
221.6
 20
138.886
 21
137.5
  0
LINE
  8
0
 10
221.6
 11
220.8
 20
137.5
 21
136.114
  0
LINE
  8
0
 10
220.8
 11
219.2
 20
136.114
 21
136.114
  0
LINE
  8
0
 10
219.2
 11
218.4
 20
136.114
 21
137.5
  0
LINE
  8
0
 10
228.4
 11
229.2
 20
167.5
 21
168.886
  0
LINE
  8
0
 10
229.2
 11
230.8
 20
168.886
 21
168.886
  0
LINE
  8
0
 10
230.8
 11
231.6
 20
168.886
 21
167.5
  0
LINE
  8
0
 10
231.6
 11
230.8
 20
167.5
 21
166.114
  0
LINE
  8
0
 10
230.8
 11
229.2
 20
166.114
 21
166.114
  0
LINE
  8
0
 10
229.2
 11
228.4
 20
166.114
 21
167.5
  0
LINE
  8
0
 10
228.4
 11
229.2
 20
197.5
 21
198.886
  0
LINE
  8
0
 10
229.2
 11
230.8
 20
198.886
 21
198.886
  0
LINE
  8
0
 10
230.8
 11
231.6
 20
198.886
 21
197.5
  0
LINE
  8
0
 10
231.6
 11
230.8
 20
197.5
 21
196.114
  0
LINE
  8
0
 10
230.8
 11
229.2
 20
196.114
 21
196.114
  0
LINE
  8
0
 10
229.2
 11
228.4
 20
196.114
 21
197.5
  0
LINE
  8
0
 10
238.4
 11
239.2
 20
107.5
 21
108.886
  0
LINE
  8
0
 10
239.2
 11
240.8
 20
108.886
 21
108.886
  0
LINE
  8
0
 10
240.8
 11
241.6
 20
108.886
 21
107.5
  0
LINE
  8
0
 10
241.6
 11
240.8
 20
107.5
 21
106.114
  0
LINE
  8
0
 10
240.8
 11
239.2
 20
106.114
 21
106.114
  0
LINE
  8
0
 10
239.2
 11
238.4
 20
106.114
 21
107.5
  0
LINE
  8
0
 10
238.4
 11
239.2
 20
137.5
 21
138.886
  0
LINE
  8
0
 10
239.2
 11
240.8
 20
138.886
 21
138.886
  0
LINE
  8
0
 10
240.8
 11
241.6
 20
138.886
 21
137.5
  0
LINE
  8
0
 10
241.6
 11
240.8
 20
137.5
 21
136.114
  0
LINE
  8
0
 10
240.8
 11
239.2
 20
136.114
 21
136.114
  0
LINE
  8
0
 10
239.2
 11
238.4
 20
136.114
 21
137.5
  0
ENDSEC
  0
SECTION
  2
OBJECTS
  0
DICTIONARY
  0
ENDSEC
  0
EOF
