999
dxflib 2.0.4.8
  0
SECTION
  2
HEADER
  9
$ACADVER
  1
AC1015
  9
$HANDSEED
  5
FFFF
  9
$DIMASZ
 40
2.5
  9
$DIMGAP
 40
0.625
  9
$DIMEXO
 40
0.625
  9
$INSUNITS
 70
4
  9
$DIMTXT
 40
2.5
  9
$DIMSTYLE
  2
Standard
  9
$PLIMMAX
 10
210.0
 20
297.0
  9
$PLIMMIN
 10
0.0
 20
0.0
  9
$DIMEXE
 40
1.25
  0
ENDSEC
  0
SECTION
  2
TABLES
  0
TABLE
  2
VPORT
  5
8
100
AcDbSymbolTable
 70
1
  0
VPORT
  5
30
100
AcDbSymbolTableRecord
100
AcDbViewportTableRecord
  2
*Active
 70
0
 10
0.0
 20
0.0
 11
1.0
 21
1.0
 12
286.3055555555554861
 22
148.5
 13
0.0
 23
0.0
 14
10.0
 24
10.0
 15
10.0
 25
10.0
 16
0.0
 26
0.0
 36
1.0
 17
0.0
 27
0.0
 37
0.0
 40
297.0
 41
1.92798353909465
 42
50.0
 43
0.0
 44
0.0
 50
0.0
 51
0.0
 71
0
 72
100
 73
1
 74
3
 75
1
 76
1
 77
0
 78
0
281
0
 65
1
110
0.0
120
0.0
130
0.0
111
1.0
121
0.0
131
0.0
112
0.0
122
1.0
132
0.0
 79
0
146
0.0
  0
ENDTAB
  0
TABLE
  2
LTYPE
  5
5
100
AcDbSymbolTable
 70
21
  0
LTYPE
  5
14
100
AcDbSymbolTableRecord
100
AcDbLinetypeTableRecord
  2
ByBlock
 70
0
  3

 72
65
 73
0
 40
0.0
  0
LTYPE
  5
15
100
AcDbSymbolTableRecord
100
AcDbLinetypeTableRecord
  2
ByLayer
 70
0
  3

 72
65
 73
0
 40
0.0
  0
LTYPE
  5
16
100
AcDbSymbolTableRecord
100
AcDbLinetypeTableRecord
  2
CONTINUOUS
 70
0
  3
Solid line
 72
65
 73
0
 40
0.0
  0
LTYPE
  5
31
100
AcDbSymbolTableRecord
100
AcDbLinetypeTableRecord
  2
DOT
 70
0
  3
Dot . . . . . . . . . . . . . . . . . . . . . .
 72
65
 73
2
 40
6.3499999999999996
 49
0.0
 74
0
 49
-6.3499999999999996
 74
0
  0
LTYPE
  5
32
100
AcDbSymbolTableRecord
100
AcDbLinetypeTableRecord
  2
DOT2
 70
0
  3
Dot (.5x) .....................................
 72
65
 73
2
 40
3.1749999999999998
 49
0.0
 74
0
 49
-3.1749999999999998
 74
0
  0
LTYPE
  5
33
100
AcDbSymbolTableRecord
100
AcDbLinetypeTableRecord
  2
DOTX2
 70
0
  3
Dot (2x) .  .  .  .  .  .  .  .  .  .  .  .  .
 72
65
 73
2
 40
12.6999999999999993
 49
0.0
 74
0
 49
-12.6999999999999993
 74
0
  0
LTYPE
  5
34
100
AcDbSymbolTableRecord
100
AcDbLinetypeTableRecord
  2
DASHED
 70
0
  3
Dashed __ __ __ __ __ __ __ __ __ __ __ __ __ _
 72
65
 73
2
 40
19.0500000000000007
 49
12.6999999999999993
 74
0
 49
-6.3499999999999996
 74
0
  0
LTYPE
  5
35
100
AcDbSymbolTableRecord
100
AcDbLinetypeTableRecord
  2
DASHED2
 70
0
  3
Dashed (.5x) _ _ _ _ _ _ _ _ _ _ _ _ _ _ _ _ _
 72
65
 73
2
 40
9.5250000000000004
 49
6.3499999999999996
 74
0
 49
-3.1749999999999998
 74
0
  0
LTYPE
  5
36
100
AcDbSymbolTableRecord
100
AcDbLinetypeTableRecord
  2
DASHEDX2
 70
0
  3
Dashed (2x) ____  ____  ____  ____  ____  ___
 72
65
 73
2
 40
38.1000000000000014
 49
25.3999999999999986
 74
0
 49
-12.6999999999999993
 74
0
  0
LTYPE
  5
37
100
AcDbSymbolTableRecord
100
AcDbLinetypeTableRecord
  2
DASHDOT
 70
0
  3
Dash dot __ . __ . __ . __ . __ . __ . __ . __
 72
65
 73
4
 40
25.3999999999999986
 49
12.6999999999999993
 74
0
 49
-6.3499999999999996
 74
0
 49
0.0
 74
0
 49
-6.3499999999999996
 74
0
  0
LTYPE
  5
38
100
AcDbSymbolTableRecord
100
AcDbLinetypeTableRecord
  2
DASHDOT2
 70
0
  3
Dash dot (.5x) _._._._._._._._._._._._._._._.
 72
65
 73
4
 40
12.6999999999999993
 49
6.3499999999999996
 74
0
 49
-3.1749999999999998
 74
0
 49
0.0
 74
0
 49
-3.1749999999999998
 74
0
  0
LTYPE
  5
39
100
AcDbSymbolTableRecord
100
AcDbLinetypeTableRecord
  2
DASHDOTX2
 70
0
  3
Dash dot (2x) ____  .  ____  .  ____  .  ___
 72
65
 73
4
 40
50.7999999999999972
 49
25.3999999999999986
 74
0
 49
-12.6999999999999993
 74
0
 49
0.0
 74
0
 49
-12.6999999999999993
 74
0
  0
LTYPE
  5
3A
100
AcDbSymbolTableRecord
100
AcDbLinetypeTableRecord
  2
DIVIDE
 70
0
  3
Divide ____ . . ____ . . ____ . . ____ . . ____
 72
65
 73
6
 40
31.75
 49
12.6999999999999993
 74
0
 49
-6.3499999999999996
 74
0
 49
0.0
 74
0
 49
-6.3499999999999996
 74
0
 49
0.0
 74
0
 49
-6.3499999999999996
 74
0
  0
LTYPE
  5
3B
100
AcDbSymbolTableRecord
100
AcDbLinetypeTableRecord
  2
DIVIDE2
 70
0
  3
Divide (.5x) __..__..__..__..__..__..__..__.._
 72
65
 73
6
 40
15.875
 49
6.3499999999999996
 74
0
 49
-3.1749999999999998
 74
0
 49
0.0
 74
0
 49
-3.1749999999999998
 74
0
 49
0.0
 74
0
 49
-3.1749999999999998
 74
0
  0
LTYPE
  5
3C
100
AcDbSymbolTableRecord
100
AcDbLinetypeTableRecord
  2
DIVIDEX2
 70
0
  3
Divide (2x) ________  .  .  ________  .  .  _
 72
65
 73
6
 40
63.5
 49
25.3999999999999986
 74
0
 49
-12.6999999999999993
 74
0
 49
0.0
 74
0
 49
-12.6999999999999993
 74
0
 49
0.0
 74
0
 49
-12.6999999999999993
 74
0
  0
LTYPE
  5
3D
100
AcDbSymbolTableRecord
100
AcDbLinetypeTableRecord
  2
CENTER
 70
0
  3
Center ____ _ ____ _ ____ _ ____ _ ____ _ ____
 72
65
 73
4
 40
50.7999999999999972
 49
31.75
 74
0
 49
-6.3499999999999996
 74
0
 49
6.3499999999999996
 74
0
 49
-6.3499999999999996
 74
0
  0
LTYPE
  5
3E
100
AcDbSymbolTableRecord
100
AcDbLinetypeTableRecord
  2
CENTER2
 70
0
  3
Center (.5x) ___ _ ___ _ ___ _ ___ _ ___ _ ___
 72
65
 73
4
 40
28.5749999999999993
 49
19.0500000000000007
 74
0
 49
-3.1749999999999998
 74
0
 49
3.1749999999999998
 74
0
 49
-3.1749999999999998
 74
0
  0
LTYPE
  5
3F
100
AcDbSymbolTableRecord
100
AcDbLinetypeTableRecord
  2
CENTERX2
 70
0
  3
Center (2x) ________  __  ________  __  _____
 72
65
 73
4
 40
101.5999999999999943
 49
63.5
 74
0
 49
-12.6999999999999993
 74
0
 49
12.6999999999999993
 74
0
 49
-12.6999999999999993
 74
0
  0
LTYPE
  5
40
100
AcDbSymbolTableRecord
100
AcDbLinetypeTableRecord
  2
BORDER
 70
0
  3
Border __ __ . __ __ . __ __ . __ __ . __ __ .
 72
65
 73
6
 40
44.4500000000000028
 49
12.6999999999999993
 74
0
 49
-6.3499999999999996
 74
0
 49
12.6999999999999993
 74
0
 49
-6.3499999999999996
 74
0
 49
0.0
 74
0
 49
-6.3499999999999996
 74
0
  0
LTYPE
  5
41
100
AcDbSymbolTableRecord
100
AcDbLinetypeTableRecord
  2
BORDER2
 70
0
  3
Border (.5x) __.__.__.__.__.__.__.__.__.__.__.
 72
65
 73
6
 40
22.2250000000000014
 49
6.3499999999999996
 74
0
 49
-3.1749999999999998
 74
0
 49
6.3499999999999996
 74
0
 49
-3.1749999999999998
 74
0
 49
0.0
 74
0
 49
-3.1749999999999998
 74
0
  0
LTYPE
  5
42
100
AcDbSymbolTableRecord
100
AcDbLinetypeTableRecord
  2
BORDERX2
 70
0
  3
Border (2x) ____  ____  .  ____  ____  .  ___
 72
65
 73
6
 40
88.9000000000000057
 49
25.3999999999999986
 74
0
 49
-12.6999999999999993
 74
0
 49
25.3999999999999986
 74
0
 49
-12.6999999999999993
 74
0
 49
0.0
 74
0
 49
-12.6999999999999993
 74
0
  0
ENDTAB
  0
TABLE
  2
LAYER
  5
2
100
AcDbSymbolTable
 70
2
  0
LAYER
  5
10
100
AcDbSymbolTableRecord
100
AcDbLayerTableRecord
  2
0
 70
0
 62
7
  6
CONTINUOUS
370
0
390
F
  0
LAYER
  5
43
100
AcDbSymbolTableRecord
100
AcDbLayerTableRecord
  2
Layer0
 70
0
 62
7
  6
ByLayer
390
F
  0
ENDTAB
  0
TABLE
  2
STYLE
  5
3
100
AcDbSymbolTable
 70
1
  0
STYLE
  5
11
100
AcDbSymbolTableRecord
100
AcDbTextStyleTableRecord
  2
Standard
 70
0
 40
0.0
 41
0.75
 50
0.0
 71
0
 42
2.5
  3
txt
  4

  0
ENDTAB
  0
TABLE
  2
VIEW
  5
6
100
AcDbSymbolTable
 70
0
  0
ENDTAB
  0
TABLE
  2
UCS
  5
7
100
AcDbSymbolTable
 70
0
  0
ENDTAB
  0
TABLE
  2
APPID
  5
9
100
AcDbSymbolTable
 70
1
  0
APPID
  5
12
100
AcDbSymbolTableRecord
100
AcDbRegAppTableRecord
  2
ACAD
 70
0
  0
ENDTAB
  0
TABLE
  2
DIMSTYLE
  5
A
100
AcDbSymbolTable
 70
1
100
AcDbDimStyleTable
 71
0
  0
DIMSTYLE
105
27
100
AcDbSymbolTableRecord
100
AcDbDimStyleTableRecord
  2
Standard
 41
2.5
 42
0.625
 43
3.75
 44
1.25
 70
0
 73
0
 74
0
 77
1
 78
8
140
2.5
141
2.5
143
0.03937007874016
147
0.625
171
3
172
1
271
2
272
2
274
3
278
44
283
0
284
8
340
11
  0
ENDTAB
  0
TABLE
  2
BLOCK_RECORD
  5
1
100
AcDbSymbolTable
 70
1
  0
BLOCK_RECORD
  5
1F
100
AcDbSymbolTableRecord
100
AcDbBlockTableRecord
  2
*Model_Space
340
22
  0
BLOCK_RECORD
  5
1B
100
AcDbSymbolTableRecord
100
AcDbBlockTableRecord
  2
*Paper_Space
340
1E
  0
BLOCK_RECORD
  5
23
100
AcDbSymbolTableRecord
100
AcDbBlockTableRecord
  2
*Paper_Space0
340
26
  0
ENDTAB
  0
ENDSEC
  0
SECTION
  2
BLOCKS
  0
BLOCK
  5
20
100
AcDbEntity
  8
0
100
AcDbBlockBegin
  2
*Model_Space
 70
0
 10
0.0
 20
0.0
 30
0.0
  3
*Model_Space
  1

  0
ENDBLK
  5
21
100
AcDbEntity
  8
0
100
AcDbBlockEnd
  0
BLOCK
  5
1C
100
AcDbEntity
 67
1
  8
0
100
AcDbBlockBegin
  2
*Paper_Space
 70
0
 10
0.0
 20
0.0
 30
0.0
  3
*Paper_Space
  1

  0
ENDBLK
  5
1D
100
AcDbEntity
 67
1
  8
0
100
AcDbBlockEnd
  0
BLOCK
  5
24
100
AcDbEntity
  8
0
100
AcDbBlockBegin
  2
*Paper_Space0
 70
0
 10
0.0
 20
0.0
 30
0.0
  3
*Paper_Space0
  1

  0
ENDBLK
  5
25
100
AcDbEntity
  8
0
100
AcDbBlockEnd
  0
ENDSEC
  0
SECTION
  2
ENTITIES
  0
LINE
  5
44
100
AcDbEntity
100
AcDbLine
  8
Layer0
 62
256
370
-1
  6
ByLayer
 10
2.4972466703329701
 20
-1.5573684291932022
 30
0.0
 11
2.8128792240170242
 21
-1.6881077136558034
 31
0.0
  0
LINE
  5
45
100
AcDbEntity
100
AcDbLine
  8
Layer0
 62
256
370
-1
  6
ByLayer
 10
0.750627802951044
 20
1.2096859530786972
 30
0.0
 11
0.5863846082620512
 21
1.2906817332962959
 31
0.0
  0
LINE
  5
46
100
AcDbEntity
100
AcDbLine
  8
Layer0
 62
256
370
-1
  6
ByLayer
 10
1.4173488691340026
 20
-0.2925773587726024
 30
0.0
 11
1.4386506088740134
 21
-0.1854862813275027
 31
0.0
  0
LINE
  5
47
100
AcDbEntity
100
AcDbLine
  8
Layer0
 62
256
370
-1
  6
ByLayer
 10
2.4972466703329701
 20
-1.5573684291932022
 30
0.0
 11
1.3781008980899969
 21
-0.4382226569505026
 31
0.0
  0
LINE
  5
48
100
AcDbEntity
100
AcDbLine
  8
Layer0
 62
256
370
-1
  6
ByLayer
 10
1.3781008980899969
 20
-0.4382226569505026
 30
0.0
 11
1.4029239597549577
 21
-0.3650962753631024
 31
0.0
  0
LINE
  5
49
100
AcDbEntity
100
AcDbLine
  8
Layer0
 62
256
370
-1
  6
ByLayer
 10
1.4029239597549577
 20
-0.3650962753631024
 30
0.0
 11
1.4173488691340026
 21
-0.2925773587726024
 31
0.0
  0
LINE
  5
4A
100
AcDbEntity
100
AcDbLine
  8
Layer0
 62
256
370
-1
  6
ByLayer
 10
1.1613224793579775
 20
0.8495163883926971
 30
0.0
 11
1.0405772966120139
 21
0.9871998814417964
 31
0.0
  0
LINE
  5
4B
100
AcDbEntity
100
AcDbLine
  8
Layer0
 62
256
370
-1
  6
ByLayer
 10
1.4386506088740134
 20
-0.1854862813275027
 30
0.0
 11
1.4506278029509758
 21
-0.0027496122194037
 31
0.0
  0
LINE
  5
4C
100
AcDbEntity
100
AcDbLine
  8
Layer0
 62
256
370
-1
  6
ByLayer
 10
1.4506278029509758
 20
-0.0027496122194037
 30
0.0
 11
1.4386506088740134
 21
0.1799870568885957
 31
0.0
  0
LINE
  5
4D
100
AcDbEntity
100
AcDbLine
  8
Layer0
 62
256
370
-1
  6
ByLayer
 10
1.4386506088740134
 20
0.1799870568885957
 30
0.0
 11
1.4029239597559808
 21
0.3595970509238988
 31
0.0
  0
LINE
  5
4E
100
AcDbEntity
100
AcDbLine
  8
Layer0
 62
256
370
-1
  6
ByLayer
 10
1.4029239597559808
 20
0.3595970509238988
 30
0.0
 11
1.3440591484660445
 21
0.5330071930915956
 31
0.0
  0
LINE
  5
4F
100
AcDbEntity
100
AcDbLine
  8
Layer0
 62
256
370
-1
  6
ByLayer
 10
1.3440591484660445
 20
0.5330071930915956
 30
0.0
 11
1.2630633682490497
 21
0.6972503877803966
 31
0.0
  0
LINE
  5
50
100
AcDbEntity
100
AcDbLine
  8
Layer0
 62
256
370
-1
  6
ByLayer
 10
1.2630633682490497
 20
0.6972503877803966
 30
0.0
 11
1.1613224793579775
 21
0.8495163883926971
 31
0.0
  0
LINE
  5
51
100
AcDbEntity
100
AcDbLine
  8
Layer0
 62
256
370
-1
  6
ByLayer
 10
1.0405772966120139
 20
0.9871998814417964
 30
0.0
 11
0.9028938035629608
 21
1.1079450641882964
 31
0.0
  0
LINE
  5
52
100
AcDbEntity
100
AcDbLine
  8
Layer0
 62
256
370
-1
  6
ByLayer
 10
0.9028938035629608
 20
1.1079450641882964
 30
0.0
 11
0.750627802951044
 21
1.2096859530786972
 31
0.0
  0
LINE
  5
53
100
AcDbEntity
100
AcDbLine
  8
Layer0
 62
256
370
-1
  6
ByLayer
 10
-1.2428035425650137
 20
-0.5385064175305025
 30
0.0
 11
-1.161807762348019
 21
-0.7027496122195025
 31
0.0
  0
LINE
  5
54
100
AcDbEntity
100
AcDbLine
  8
Layer0
 62
256
370
-1
  6
ByLayer
 10
-1.161807762348019
 20
-0.7027496122195025
 30
0.0
 11
-1.0600668734570036
 21
-0.8550156128317035
 31
0.0
  0
LINE
  5
55
100
AcDbEntity
100
AcDbLine
  8
Layer0
 62
256
370
-1
  6
ByLayer
 10
0.5863846082620512
 20
1.2906817332962959
 30
0.0
 11
0.4129744660939991
 21
1.3495465445850989
 31
0.0
  0
LINE
  5
56
100
AcDbEntity
100
AcDbLine
  8
Layer0
 62
256
370
-1
  6
ByLayer
 10
0.4129744660939991
 20
1.3495465445850989
 30
0.0
 11
0.2333644720590087
 21
1.3852731937038989
 31
0.0
  0
LINE
  5
57
100
AcDbEntity
100
AcDbLine
  8
Layer0
 62
256
370
-1
  6
ByLayer
 10
0.2333644720590087
 20
1.3852731937038989
 30
0.0
 11
0.0506278029509986
 21
1.3972503877805984
 31
0.0
  0
LINE
  5
58
100
AcDbEntity
100
AcDbLine
  8
Layer0
 62
256
370
-1
  6
ByLayer
 10
0.0506278029509986
 20
1.3972503877805984
 30
0.0
 11
-0.1321088661579779
 21
1.3852731937038989
 31
0.0
  0
LINE
  5
59
100
AcDbEntity
100
AcDbLine
  8
Layer0
 62
256
370
-1
  6
ByLayer
 10
-0.1321088661579779
 20
1.3852731937038989
 30
0.0
 11
-0.2391999436019887
 21
1.3639714539640977
 31
0.0
  0
LINE
  5
5A
100
AcDbEntity
100
AcDbLine
  8
Layer0
 62
256
370
-1
  6
ByLayer
 10
-0.2391999436019887
 20
1.3639714539640977
 30
0.0
 11
-0.3117188601930252
 21
1.3495465445852979
 31
0.0
  0
LINE
  5
5B
100
AcDbEntity
100
AcDbLine
  8
Layer0
 62
256
370
-1
  6
ByLayer
 10
-0.3117188601930252
 20
1.3495465445852979
 30
0.0
 11
-0.4851290023599972
 21
1.2906817332963989
 31
0.0
  0
LINE
  5
5C
100
AcDbEntity
100
AcDbLine
  8
Layer0
 62
256
370
-1
  6
ByLayer
 10
-1.0600668734570036
 20
-0.8550156128317035
 30
0.0
 11
-0.9393216907109831
 21
-0.9926991058807033
 31
0.0
  0
LINE
  5
5D
100
AcDbEntity
100
AcDbLine
  8
Layer0
 62
256
370
-1
  6
ByLayer
 10
-0.9393216907109831
 20
-0.9926991058807033
 30
0.0
 11
-0.8016381976619869
 21
-1.1134442886273028
 31
0.0
  0
LINE
  5
5E
100
AcDbEntity
100
AcDbLine
  8
Layer0
 62
256
370
-1
  6
ByLayer
 10
-0.4851290023599972
 20
1.2906817332963989
 30
0.0
 11
-0.6493721970500133
 21
1.2096859530786972
 31
0.0
  0
LINE
  5
5F
100
AcDbEntity
100
AcDbLine
  8
Layer0
 62
256
370
-1
  6
ByLayer
 10
-0.6493721970500133
 20
1.2096859530786972
 30
0.0
 11
-0.8016381976619869
 21
1.1079450641881969
 31
0.0
  0
LINE
  5
60
100
AcDbEntity
100
AcDbLine
  8
Layer0
 62
256
370
-1
  6
ByLayer
 10
-0.8016381976619869
 20
1.1079450641881969
 30
0.0
 11
-0.9393216907100168
 21
0.9871998814415974
 31
0.0
  0
LINE
  5
61
100
AcDbEntity
100
AcDbLine
  8
Layer0
 62
256
370
-1
  6
ByLayer
 10
-0.9393216907100168
 20
0.9871998814415974
 30
0.0
 11
-1.0600668734570036
 21
0.8495163883926971
 31
0.0
  0
LINE
  5
62
100
AcDbEntity
100
AcDbLine
  8
Layer0
 62
256
370
-1
  6
ByLayer
 10
-1.0600668734570036
 20
0.8495163883926971
 30
0.0
 11
-1.161807762348019
 21
0.6972503877805956
 31
0.0
  0
LINE
  5
63
100
AcDbEntity
100
AcDbLine
  8
Layer0
 62
256
370
-1
  6
ByLayer
 10
-1.161807762348019
 20
0.6972503877805956
 30
0.0
 11
-1.2428035425650137
 21
0.5330071930915956
 31
0.0
  0
LINE
  5
64
100
AcDbEntity
100
AcDbLine
  8
Layer0
 62
256
370
-1
  6
ByLayer
 10
-1.2428035425650137
 20
0.5330071930915956
 30
0.0
 11
-1.3016683538539837
 21
0.3595970509239983
 31
0.0
  0
LINE
  5
65
100
AcDbEntity
100
AcDbLine
  8
Layer0
 62
256
370
-1
  6
ByLayer
 10
-1.3016683538539837
 20
0.3595970509239983
 30
0.0
 11
-1.3160932632329718
 21
0.2870781343336972
 31
0.0
  0
LINE
  5
66
100
AcDbEntity
100
AcDbLine
  8
Layer0
 62
256
370
-1
  6
ByLayer
 10
-1.3160932632329718
 20
0.2870781343336972
 30
0.0
 11
-1.3373950029729826
 21
0.1799870568885957
 31
0.0
  0
LINE
  5
67
100
AcDbEntity
100
AcDbLine
  8
Layer0
 62
256
370
-1
  6
ByLayer
 10
-1.3373950029729826
 20
0.1799870568885957
 30
0.0
 11
-1.3493721970489787
 21
-0.0027496122194037
 31
0.0
  0
LINE
  5
68
100
AcDbEntity
100
AcDbLine
  8
Layer0
 62
256
370
-1
  6
ByLayer
 10
-1.3493721970489787
 20
-0.0027496122194037
 30
0.0
 11
-1.3373950029729826
 21
-0.1854862813276021
 31
0.0
  0
LINE
  5
69
100
AcDbEntity
100
AcDbLine
  8
Layer0
 62
256
370
-1
  6
ByLayer
 10
-1.3373950029729826
 20
-0.1854862813276021
 30
0.0
 11
-1.3016683538539837
 21
-0.3650962753631024
 31
0.0
  0
LINE
  5
6A
100
AcDbEntity
100
AcDbLine
  8
Layer0
 62
256
370
-1
  6
ByLayer
 10
-1.3016683538539837
 20
-0.3650962753631024
 30
0.0
 11
-1.2428035425650137
 21
-0.5385064175305025
 31
0.0
  0
LINE
  5
6B
100
AcDbEntity
100
AcDbLine
  8
Layer0
 62
256
370
-1
  6
ByLayer
 10
-0.6108507659749876
 20
-3.1675757023893034
 30
0.0
 11
-0.3722770598420198
 21
-3.2150309630704026
 31
0.0
  0
LINE
  5
6C
100
AcDbEntity
100
AcDbLine
  8
Layer0
 62
256
370
-1
  6
ByLayer
 10
-0.7108507659750103
 20
-3.1476844656513023
 30
0.0
 11
-0.6108507659749876
 21
-3.1675757023893034
 31
0.0
  0
LINE
  5
6D
100
AcDbEntity
100
AcDbLine
  8
Layer0
 62
256
370
-1
  6
ByLayer
 10
-0.7108507659750103
 20
-3.1476844656513023
 30
0.0
 11
-1.6347302984859766
 21
-4.0715639981619027
 31
0.0
  0
LINE
  5
6E
100
AcDbEntity
100
AcDbLine
  8
Layer0
 62
256
370
-1
  6
ByLayer
 10
-1.6347302984859766
 20
-2.7650010332863033
 30
0.0
 11
-1.6347302984859766
 21
-4.0715639981619027
 31
0.0
  0
LINE
  5
6F
100
AcDbEntity
100
AcDbLine
  8
Layer0
 62
256
370
-1
  6
ByLayer
 10
-1.2609588706559975
 20
-1.8626369829923028
 30
0.0
 11
-1.6347302984859766
 21
-2.7650010332863033
 31
0.0
  0
LINE
  5
70
100
AcDbEntity
100
AcDbLine
  8
Layer0
 62
256
370
-1
  6
ByLayer
 10
-1.3373482551900224
 20
-1.8115952280834033
 30
0.0
 11
-1.2609588706559975
 21
-1.8626369829923028
 31
0.0
  0
LINE
  5
71
100
AcDbEntity
100
AcDbLine
  8
Layer0
 62
256
370
-1
  6
ByLayer
 10
-0.8016381976619869
 20
-1.1134442886273028
 30
0.0
 11
-0.6493721970500133
 21
-1.2151851775178031
 31
0.0
  0
LINE
  5
72
100
AcDbEntity
100
AcDbLine
  8
Layer0
 62
256
370
-1
  6
ByLayer
 10
-0.6493721970500133
 20
-1.2151851775178031
 30
0.0
 11
-0.4851290023599972
 21
-1.2961809577353023
 31
0.0
  0
LINE
  5
73
100
AcDbEntity
100
AcDbLine
  8
Layer0
 62
256
370
-1
  6
ByLayer
 10
-0.4851290023599972
 20
-1.2961809577353023
 30
0.0
 11
-0.3117188601930252
 21
-1.355045769024203
 31
0.0
  0
LINE
  5
74
100
AcDbEntity
100
AcDbLine
  8
Layer0
 62
256
370
-1
  6
ByLayer
 10
-0.3117188601930252
 20
-1.355045769024203
 30
0.0
 11
-0.1321088661579779
 21
-1.3907724181429035
 31
0.0
  0
LINE
  5
75
100
AcDbEntity
100
AcDbLine
  8
Layer0
 62
256
370
-1
  6
ByLayer
 10
-0.1321088661579779
 20
-1.3907724181429035
 30
0.0
 11
0.0506278029509986
 21
-1.4027496122195036
 31
0.0
  0
LINE
  5
76
100
AcDbEntity
100
AcDbLine
  8
Layer0
 62
256
370
-1
  6
ByLayer
 10
0.0506278029509986
 20
-1.4027496122195036
 30
0.0
 11
0.2333644720579855
 21
-1.3907724181428023
 31
0.0
  0
LINE
  5
77
100
AcDbEntity
100
AcDbLine
  8
Layer0
 62
256
370
-1
  6
ByLayer
 10
0.2333644720579855
 20
-1.3907724181428023
 30
0.0
 11
0.3404555495039858
 21
-1.3694706784030029
 31
0.0
  0
LINE
  5
78
100
AcDbEntity
100
AcDbLine
  8
Layer0
 62
256
370
-1
  6
ByLayer
 10
0.3404555495039858
 20
-1.3694706784030029
 30
0.0
 11
0.4129744660939991
 21
-1.3550457690243025
 31
0.0
  0
LINE
  5
79
100
AcDbEntity
100
AcDbLine
  8
Layer0
 62
256
370
-1
  6
ByLayer
 10
0.4129744660939991
 20
-1.3550457690243025
 30
0.0
 11
0.4861008476819961
 21
-1.330222707359102
 31
0.0
  0
LINE
  5
7A
100
AcDbEntity
100
AcDbLine
  8
Layer0
 62
256
370
-1
  6
ByLayer
 10
1.6052466199249693
 20
-2.4493684796017021
 30
0.0
 11
0.4861008476819961
 21
-1.330222707359102
 31
0.0
  0
LINE
  5
7B
100
AcDbEntity
100
AcDbLine
  8
Layer0
 62
256
370
-1
  6
ByLayer
 10
1.6052466199249693
 20
-2.4493684796017021
 30
0.0
 11
1.7359859043870074
 21
-2.7650010332862021
 31
0.0
  0
LINE
  5
7C
100
AcDbEntity
100
AcDbLine
  8
Layer0
 62
256
370
-1
  6
ByLayer
 10
1.7359859043870074
 20
-2.7650010332862021
 30
0.0
 11
1.7359859043870074
 21
-4.0715639981631035
 31
0.0
  0
LINE
  5
7D
100
AcDbEntity
100
AcDbLine
  8
Layer0
 62
256
370
-1
  6
ByLayer
 10
0.8121063718759842
 20
-3.1476844656513023
 30
0.0
 11
1.7359859043870074
 21
-4.0715639981631035
 31
0.0
  0
LINE
  5
7E
100
AcDbEntity
100
AcDbLine
  8
Layer0
 62
256
370
-1
  6
ByLayer
 10
0.7121063718759615
 20
-3.1675757023893034
 30
0.0
 11
0.8121063718759842
 21
-3.1476844656513023
 31
0.0
  0
LINE
  5
7F
100
AcDbEntity
100
AcDbLine
  8
Layer0
 62
256
370
-1
  6
ByLayer
 10
0.4735326657440169
 20
-3.2150309630705021
 30
0.0
 11
0.7121063718759615
 21
-3.1675757023893034
 31
0.0
  0
LINE
  5
80
100
AcDbEntity
100
AcDbLine
  8
Layer0
 62
256
370
-1
  6
ByLayer
 10
0.0506278029499754
 20
-3.2427496122195034
 30
0.0
 11
0.4735326657440169
 21
-3.2150309630705021
 31
0.0
  0
LINE
  5
81
100
AcDbEntity
100
AcDbLine
  8
Layer0
 62
256
370
-1
  6
ByLayer
 10
-0.3722770598420198
 20
-3.2150309630704026
 30
0.0
 11
0.0506278029499754
 21
-3.2427496122195034
 31
0.0
  0
LINE
  5
82
100
AcDbEntity
100
AcDbLine
  8
Layer0
 62
256
370
-1
  6
ByLayer
 10
-1.758217812913017
 20
1.3852264459205976
 30
0.0
 11
-1.8092595678219823
 21
1.308837061387397
 31
0.0
  0
LINE
  5
83
100
AcDbEntity
100
AcDbLine
  8
Layer0
 62
256
370
-1
  6
ByLayer
 10
-1.5615756581549931
 20
1.6094538488860977
 30
0.0
 11
-1.758217812913017
 21
1.3852264459205976
 31
0.0
  0
LINE
  5
84
100
AcDbEntity
100
AcDbLine
  8
Layer0
 62
256
370
-1
  6
ByLayer
 10
-1.3373482551889992
 20
1.8060960036444982
 30
0.0
 11
-1.5615756581549931
 21
1.6094538488860977
 31
0.0
  0
LINE
  5
85
100
AcDbEntity
100
AcDbLine
  8
Layer0
 62
256
370
-1
  6
ByLayer
 10
-1.2609588706559975
 20
1.8571377585534954
 30
0.0
 11
-1.3373482551889992
 21
1.8060960036444982
 31
0.0
  0
LINE
  5
86
100
AcDbEntity
100
AcDbLine
  8
Layer0
 62
256
370
-1
  6
ByLayer
 10
-1.6347302984859766
 20
2.7595018088473964
 30
0.0
 11
-1.2609588706559975
 21
1.8571377585534954
 31
0.0
  0
LINE
  5
87
100
AcDbEntity
100
AcDbLine
  8
Layer0
 62
256
370
-1
  6
ByLayer
 10
2.0506278029509986
 20
2.5434992855503964
 30
0.0
 11
2.0230148329389976
 21
2.5677152103239962
 31
0.0
  0
LINE
  5
88
100
AcDbEntity
100
AcDbLine
  8
Layer0
 62
256
370
-1
  6
ByLayer
 10
2.341653773994949
 20
2.2882763588247954
 30
0.0
 11
2.0506278029509986
 21
2.5434992855503964
 31
0.0
  0
LINE
  5
89
100
AcDbEntity
100
AcDbLine
  8
Layer0
 62
256
370
-1
  6
ByLayer
 10
2.6210926254940432
 20
1.9696374177686984
 30
0.0
 11
2.341653773994949
 21
2.2882763588247954
 31
0.0
  0
LINE
  5
8A
100
AcDbEntity
100
AcDbLine
  8
Layer0
 62
256
370
-1
  6
ByLayer
 10
-1.5615756581549931
 20
-1.6149530733247026
 30
0.0
 11
-1.3373482551900224
 21
-1.8115952280834033
 31
0.0
  0
LINE
  5
8B
100
AcDbEntity
100
AcDbLine
  8
Layer0
 62
256
370
-1
  6
ByLayer
 10
-1.758217812913017
 20
-1.3907256703592026
 30
0.0
 11
-1.5615756581549931
 21
-1.6149530733247026
 31
0.0
  0
LINE
  5
8C
100
AcDbEntity
100
AcDbLine
  8
Layer0
 62
256
370
-1
  6
ByLayer
 10
-1.8092595678219823
 20
-1.3143362858263021
 30
0.0
 11
-1.758217812913017
 21
-1.3907256703592026
 31
0.0
  0
LINE
  5
8D
100
AcDbEntity
100
AcDbLine
  8
Layer0
 62
256
370
-1
  6
ByLayer
 10
-1.8092595678219823
 20
-1.3143362858263021
 30
0.0
 11
-2.7116236181159934
 21
-1.6881077136560023
 31
0.0
  0
LINE
  5
8E
100
AcDbEntity
100
AcDbLine
  8
Layer0
 62
256
370
-1
  6
ByLayer
 10
-2.7116236181159934
 20
-1.6881077136560023
 30
0.0
 11
-4.0181865829929961
 21
-1.6881077136560023
 31
0.0
  0
LINE
  5
8F
100
AcDbEntity
100
AcDbLine
  8
Layer0
 62
256
370
-1
  6
ByLayer
 10
-3.0943070504810066
 20
-0.764228181144702
 30
0.0
 11
-4.0181865829929961
 21
-1.6881077136560023
 31
0.0
  0
LINE
  5
90
100
AcDbEntity
100
AcDbLine
  8
Layer0
 62
256
370
-1
  6
ByLayer
 10
-2.1919430001869955
 20
-0.3904567533151031
 30
0.0
 11
-3.0943070504810066
 21
-0.764228181144702
 31
0.0
  0
LINE
  5
91
100
AcDbEntity
100
AcDbLine
  8
Layer0
 62
256
370
-1
  6
ByLayer
 10
-2.2098664809819866
 20
-0.3003493304811027
 30
0.0
 11
-2.1919430001869955
 21
-0.3904567533151031
 31
0.0
  0
LINE
  5
92
100
AcDbEntity
100
AcDbLine
  8
Layer0
 62
256
370
-1
  6
ByLayer
 10
-2.2293721970499973
 20
-0.0027496122195032
 30
0.0
 11
-2.2098664809819866
 21
-0.3003493304811027
 31
0.0
  0
LINE
  5
93
100
AcDbEntity
100
AcDbLine
  8
Layer0
 62
256
370
-1
  6
ByLayer
 10
-2.2098664809819866
 20
0.2948501060423965
 30
0.0
 11
-2.2293721970499973
 21
-0.0027496122195032
 31
0.0
  0
LINE
  5
94
100
AcDbEntity
100
AcDbLine
  8
Layer0
 62
256
370
-1
  6
ByLayer
 10
-2.1919430001869955
 20
0.3849575288761962
 30
0.0
 11
-2.2098664809819866
 21
0.2948501060423965
 31
0.0
  0
LINE
  5
95
100
AcDbEntity
100
AcDbLine
  8
Layer0
 62
256
370
-1
  6
ByLayer
 10
-3.0943070504810066
 20
0.7587289567058981
 30
0.0
 11
-2.1919430001869955
 21
0.3849575288761962
 31
0.0
  0
LINE
  5
96
100
AcDbEntity
100
AcDbLine
  8
Layer0
 62
256
370
-1
  6
ByLayer
 10
-4.018186582991973
 20
1.6826084892171984
 30
0.0
 11
-3.0943070504810066
 21
0.7587289567058981
 31
0.0
  0
LINE
  5
97
100
AcDbEntity
100
AcDbLine
  8
Layer0
 62
256
370
-1
  6
ByLayer
 10
-2.7116236181159934
 20
1.6826084892170954
 30
0.0
 11
-4.018186582991973
 21
1.6826084892171984
 31
0.0
  0
LINE
  5
98
100
AcDbEntity
100
AcDbLine
  8
Layer0
 62
256
370
-1
  6
ByLayer
 10
-2.7116236181159934
 20
1.6826084892170954
 30
0.0
 11
-1.8092595678219823
 21
1.308837061387397
 31
0.0
  0
LINE
  5
99
100
AcDbEntity
100
AcDbLine
  8
Layer0
 62
256
370
-1
  6
ByLayer
 10
2.7562337742820091
 20
1.7673843957190982
 30
0.0
 11
2.6210926254940432
 21
1.9696374177686984
 31
0.0
  0
LINE
  5
9A
100
AcDbEntity
100
AcDbLine
  8
Layer0
 62
256
370
-1
  6
ByLayer
 10
2.8128792240180474
 20
1.6826084892168964
 30
0.0
 11
2.7562337742820091
 21
1.7673843957190982
 31
0.0
  0
LINE
  5
9B
100
AcDbEntity
100
AcDbLine
  8
Layer0
 62
256
370
-1
  6
ByLayer
 10
2.8128792240180474
 20
1.6826084892168964
 30
0.0
 11
4.1194421888940269
 21
1.6826084892169959
 31
0.0
  0
LINE
  5
9C
100
AcDbEntity
100
AcDbLine
  8
Layer0
 62
256
370
-1
  6
ByLayer
 10
4.1194421888940269
 20
1.6826084892169959
 30
0.0
 11
3.1955626563830037
 21
0.7587289567055961
 31
0.0
  0
LINE
  5
9D
100
AcDbEntity
100
AcDbLine
  8
Layer0
 62
256
370
-1
  6
ByLayer
 10
3.21545389312098
 20
0.6587289567056978
 30
0.0
 11
3.1955626563830037
 21
0.7587289567055961
 31
0.0
  0
LINE
  5
9E
100
AcDbEntity
100
AcDbLine
  8
Layer0
 62
256
370
-1
  6
ByLayer
 10
3.2629091538019566
 20
0.4201552505735968
 30
0.0
 11
3.21545389312098
 21
0.6587289567056978
 31
0.0
  0
LINE
  5
9F
100
AcDbEntity
100
AcDbLine
  8
Layer0
 62
256
370
-1
  6
ByLayer
 10
3.2906278029510077
 20
-0.0027496122194037
 30
0.0
 11
3.2629091538019566
 21
0.4201552505735968
 31
0.0
  0
LINE
  5
A0
100
AcDbEntity
100
AcDbLine
  8
Layer0
 62
256
370
-1
  6
ByLayer
 10
-1.6347302984859766
 20
2.7595018088473964
 30
0.0
 11
-1.6347302984859766
 21
4.0660647737238982
 31
0.0
  0
LINE
  5
A1
100
AcDbEntity
100
AcDbLine
  8
Layer0
 62
256
370
-1
  6
ByLayer
 10
-0.7108507659739871
 20
3.1421852412125979
 30
0.0
 11
-1.6347302984859766
 21
4.0660647737238982
 31
0.0
  0
LINE
  5
A2
100
AcDbEntity
100
AcDbLine
  8
Layer0
 62
256
370
-1
  6
ByLayer
 10
-0.6108507659749876
 20
3.162076477950496
 30
0.0
 11
-0.7108507659739871
 21
3.1421852412125979
 31
0.0
  0
LINE
  5
A3
100
AcDbEntity
100
AcDbLine
  8
Layer0
 62
256
370
-1
  6
ByLayer
 10
-0.3722770598420198
 20
3.2095317386317959
 30
0.0
 11
-0.6108507659749876
 21
3.162076477950496
 31
0.0
  0
LINE
  5
A4
100
AcDbEntity
100
AcDbLine
  8
Layer0
 62
256
370
-1
  6
ByLayer
 10
0.0506278029509986
 20
3.2372503877804988
 30
0.0
 11
-0.3722770598420198
 21
3.2095317386317959
 31
0.0
  0
LINE
  5
A5
100
AcDbEntity
100
AcDbLine
  8
Layer0
 62
256
370
-1
  6
ByLayer
 10
0.4735326657440169
 20
3.2095317386316964
 30
0.0
 11
0.0506278029509986
 21
3.2372503877804988
 31
0.0
  0
LINE
  5
A6
100
AcDbEntity
100
AcDbLine
  8
Layer0
 62
256
370
-1
  6
ByLayer
 10
0.7121063718759615
 20
3.162076477950496
 30
0.0
 11
0.4735326657440169
 21
3.2095317386316964
 31
0.0
  0
LINE
  5
A7
100
AcDbEntity
100
AcDbLine
  8
Layer0
 62
256
370
-1
  6
ByLayer
 10
0.8121063718759842
 20
3.1421852412124984
 30
0.0
 11
0.7121063718759615
 21
3.162076477950496
 31
0.0
  0
LINE
  5
A8
100
AcDbEntity
100
AcDbLine
  8
Layer0
 62
256
370
-1
  6
ByLayer
 10
0.8121063718759842
 20
3.1421852412124984
 30
0.0
 11
1.7359859043870074
 21
4.0660647737237987
 31
0.0
  0
LINE
  5
A9
100
AcDbEntity
100
AcDbLine
  8
Layer0
 62
256
370
-1
  6
ByLayer
 10
1.7359859043870074
 20
2.7595018088473964
 30
0.0
 11
1.7359859043870074
 21
4.0660647737237987
 31
0.0
  0
LINE
  5
AA
100
AcDbEntity
100
AcDbLine
  8
Layer0
 62
256
370
-1
  6
ByLayer
 10
1.8207618108890529
 20
2.7028563591123955
 30
0.0
 11
1.7359859043870074
 21
2.7595018088473964
 31
0.0
  0
LINE
  5
AB
100
AcDbEntity
100
AcDbLine
  8
Layer0
 62
256
370
-1
  6
ByLayer
 10
2.0230148329389976
 20
2.5677152103239962
 30
0.0
 11
1.8207618108890529
 21
2.7028563591123955
 31
0.0
  0
LINE
  5
AC
100
AcDbEntity
100
AcDbLine
  8
Layer0
 62
256
370
-1
  6
ByLayer
 10
3.2629091538019566
 20
-0.4256544750124025
 30
0.0
 11
3.2906278029510077
 21
-0.0027496122194037
 31
0.0
  0
LINE
  5
AD
100
AcDbEntity
100
AcDbLine
  8
Layer0
 62
256
370
-1
  6
ByLayer
 10
3.21545389312098
 20
-0.6642281811446029
 30
0.0
 11
3.2629091538019566
 21
-0.4256544750124025
 31
0.0
  0
LINE
  5
AE
100
AcDbEntity
100
AcDbLine
  8
Layer0
 62
256
370
-1
  6
ByLayer
 10
3.1955626563819806
 20
-0.7642281811445031
 30
0.0
 11
3.21545389312098
 21
-0.6642281811446029
 31
0.0
  0
LINE
  5
AF
100
AcDbEntity
100
AcDbLine
  8
Layer0
 62
256
370
-1
  6
ByLayer
 10
3.1955626563819806
 20
-0.7642281811445031
 30
0.0
 11
4.1194421888930037
 21
-1.6881077136558034
 31
0.0
  0
LINE
  5
B0
100
AcDbEntity
100
AcDbLine
  8
Layer0
 62
256
370
-1
  6
ByLayer
 10
2.8128792240170242
 20
-1.6881077136558034
 30
0.0
 11
4.1194421888930037
 21
-1.6881077136558034
 31
0.0
  0
ENDSEC
  0
SECTION
  2
OBJECTS
  0
DICTIONARY
  5
C
100
AcDbDictionary
280
0
281
1
  3
ACAD_GROUP
350
D
  3
ACAD_LAYOUT
350
1A
  3
ACAD_MLINESTYLE
350
17
  3
ACAD_PLOTSETTINGS
350
19
  3
ACAD_PLOTSTYLENAME
350
E
  3
AcDbVariableDictionary
350
B1
  0
DICTIONARY
  5
D
100
AcDbDictionary
280
0
281
1
  0
ACDBDICTIONARYWDFLT
  5
E
100
AcDbDictionary
281
1
  3
Normal
350
F
100
AcDbDictionaryWithDefault
340
F
  0
ACDBPLACEHOLDER
  5
F
  0
DICTIONARY
  5
17
100
AcDbDictionary
280
0
281
1
  3
Standard
350
18
  0
MLINESTYLE
  5
18
100
AcDbMlineStyle
  2
STANDARD
 70
0
  3

 62
256
 51
90.0
 52
90.0
 71
2
 49
0.5
 62
256
  6
BYLAYER
 49
-0.5
 62
256
  6
BYLAYER
  0
DICTIONARY
  5
19
100
AcDbDictionary
280
0
281
1
  0
DICTIONARY
  5
1A
100
AcDbDictionary
281
1
  3
Layout1
350
1E
  3
Layout2
350
26
  3
Model
350
22
  0
LAYOUT
  5
1E
100
AcDbPlotSettings
  1

  2
C:\Program Files\AutoCAD 2002\plotters\DWF ePlot (optimized for plotting).pc3
  4

  6

 40
0.0
 41
0.0
 42
0.0
 43
0.0
 44
0.0
 45
0.0
 46
0.0
 47
0.0
 48
0.0
 49
0.0
140
0.0
141
0.0
142
1.0
143
1.0
 70
688
 72
0
 73
0
 74
5
  7

 75
16
147
1.0
148
0.0
149
0.0
100
AcDbLayout
  1
Layout1
 70
1
 71
1
 10
0.0
 20
0.0
 11
420.0
 21
297.0
 12
0.0
 22
0.0
 32
0.0
 14
100000000000000000000.0
 24
100000000000000000000.0
 34
100000000000000000000.0
 15
-100000000000000000000.0
 25
-100000000000000000000.0
 35
-100000000000000000000.0
146
0.0
 13
0.0
 23
0.0
 33
0.0
 16
1.0
 26
0.0
 36
0.0
 17
0.0
 27
1.0
 37
0.0
 76
0
330
1B
  0
LAYOUT
  5
22
100
AcDbPlotSettings
  1

  2
C:\Program Files\AutoCAD 2002\plotters\DWF ePlot (optimized for plotting).pc3
  4

  6

 40
0.0
 41
0.0
 42
0.0
 43
0.0
 44
0.0
 45
0.0
 46
0.0
 47
0.0
 48
0.0
 49
0.0
140
0.0
141
0.0
142
1.0
143
1.0
 70
1712
 72
0
 73
0
 74
0
  7

 75
0
147
1.0
148
0.0
149
0.0
100
AcDbLayout
  1
Model
 70
1
 71
0
 10
0.0
 20
0.0
 11
12.0
 21
9.0
 12
0.0
 22
0.0
 32
0.0
 14
0.0
 24
0.0
 34
0.0
 15
0.0
 25
0.0
 35
0.0
146
0.0
 13
0.0
 23
0.0
 33
0.0
 16
1.0
 26
0.0
 36
0.0
 17
0.0
 27
1.0
 37
0.0
 76
0
330
1F
  0
LAYOUT
  5
26
100
AcDbPlotSettings
  1

  2
C:\Program Files\AutoCAD 2002\plotters\DWF ePlot (optimized for plotting).pc3
  4

  6

 40
0.0
 41
0.0
 42
0.0
 43
0.0
 44
0.0
 45
0.0
 46
0.0
 47
0.0
 48
0.0
 49
0.0
140
0.0
141
0.0
142
1.0
143
1.0
 70
688
 72
0
 73
0
 74
5
  7

 75
16
147
1.0
148
0.0
149
0.0
100
AcDbLayout
  1
Layout2
 70
1
 71
2
 10
0.0
 20
0.0
 11
12.0
 21
9.0
 12
0.0
 22
0.0
 32
0.0
 14
0.0
 24
0.0
 34
0.0
 15
0.0
 25
0.0
 35
0.0
146
0.0
 13
0.0
 23
0.0
 33
0.0
 16
1.0
 26
0.0
 36
0.0
 17
0.0
 27
1.0
 37
0.0
 76
0
330
23
  0
DICTIONARY
  5
B1
100
AcDbDictionary
281
1
  3
DIMASSOC
350
B3
  3
HIDETEXT
350
B2
  0
DICTIONARYVAR
  5
B2
100
DictionaryVariables
280
0
  1
2
  0
DICTIONARYVAR
  5
B3
100
DictionaryVariables
280
0
  1
1
  0
ENDSEC
  0
EOF
